<?xml version="1.0" encoding="utf-8"?>
<!-- Generator: Adobe Illustrator 16.0.0, SVG Export Plug-In . SVG Version: 6.00 Build 0)  -->
<!DOCTYPE svg PUBLIC "-//W3C//DTD SVG 1.1//EN" "http://www.w3.org/Graphics/SVG/1.1/DTD/svg11.dtd">
<svg version="1.1" id="Layer_1" xmlns="http://www.w3.org/2000/svg" xmlns:xlink="http://www.w3.org/1999/xlink" x="0px" y="0px"
	 width="300px" height="300px" viewBox="0 -103.57 300 300" enable-background="new 0 -103.57 300 300" xml:space="preserve">
<g>
	<path opacity="0.5" fill="#E5C3C3" enable-background="new    " d="M275.313,94.596L256.916,83.49
		c-1.549-0.928-1.354-2.555,0.438-3.635l17.53-10.597c1.796-1.074,4.511-1.188,6.066-0.261l18.394,11.104
		c1.547,0.932,1.357,2.558-0.438,3.629l-17.53,10.597C279.583,95.404,276.867,95.521,275.313,94.596z"/>
	<path fill="#771818" d="M300.379,71.058L300.379,71.058v-3.823l-19.563-0.014l0.135-0.006c-1.549-0.928-4.262-0.817-6.063,0.261
		l0.582-0.248l-19.59-0.013v4.078c-0.051,0.629,0.295,1.238,1.033,1.689l18.396,11.104c1.549,0.928,4.266,0.813,6.064-0.257
		l17.53-10.601C299.939,72.607,300.436,71.802,300.379,71.058z"/>
	<path fill="#A83939" d="M278.133,66.592c-1.131,0.031-2.313,0.324-3.251,0.881l0.583-0.249l-19.588-0.012v4.078
		c-0.05,0.629,0.295,1.241,1.033,1.686l18.395,11.111c0.748,0.448,1.77,0.647,2.813,0.615L278.133,66.592z"/>
	<path fill="#E8B3B3" d="M258.1,67.215h-2.217v4.078c-0.053,0.629,0.292,1.238,1.033,1.689l1.177,0.702v-6.467h0.007V67.215z"/>
	<path fill="#872727" d="M275.71,84.281c1.334,0.6,3.274,0.562,4.836-0.061v-5.344h-4.836V84.281z"/>
	<path fill="#E6573F" d="M275.313,80.034L256.916,68.93c-1.549-0.928-1.354-2.554,0.438-3.628l17.53-10.597
		c1.796-1.076,4.511-1.188,6.066-0.26l18.394,11.104c1.547,0.931,1.357,2.557-0.438,3.628l-17.53,10.597
		C279.583,80.85,276.867,80.969,275.313,80.034z"/>
</g>
<path opacity="0.5" fill="#E5C3C3" enable-background="new    " d="M91.49,17.797c-7.006,4.199-18.366,4.199-25.378,0
	c-7.004-4.199-7.004-11,0-15.199c7.003-4.199,18.365-4.199,25.378,0C98.498,6.798,98.498,13.598,91.49,17.797z"/>
<g>
	<path opacity="0.5" fill="#E5C3C3" enable-background="new    " d="M144.925,153.361L31.867,85.637
		c-3.198-1.918-2.799-5.266,0.893-7.477l76.985-46.099c3.691-2.212,9.278-2.453,12.476-0.54l113.056,67.723
		c3.203,1.913,2.805,5.261-0.896,7.472L157.4,152.818C153.709,155.035,148.123,155.277,144.925,153.361z"/>
	<path fill="#771818" d="M264.275-24.942L149.001-93.991c-1.343-0.803-2.703-0.93-3.908-0.498l0.007-0.01l-0.209,0.081
		c-0.017,0.006-0.037,0.009-0.054,0.016l-4.167,1.656l3.74,1.896c-0.016,0.071-0.04,0.137-0.05,0.211L125.585-1.966
		c-0.94,4.438,0.94,9.618,4.201,11.574l112.507,67.39l-0.404,4.945l4.557-1.834c1.527-0.745,2.757-2.42,3.266-4.813l18.771-88.673
		C269.426-17.808,267.54-22.99,264.275-24.942z"/>
	<path fill="#A83939" d="M264.275-24.942L149.001-93.991c-1.343-0.803-2.703-0.93-3.908-0.498l0.007-0.01l-0.209,0.081
		c-0.017,0.006-0.037,0.009-0.054,0.016l-4.167,1.656l3.74,1.896c-0.016,0.071-0.04,0.137-0.05,0.211L131.982-32.2l56.409,45.589
		l79.528-33.573C267.154-22.232,265.884-23.978,264.275-24.942z"/>
	<path fill="#872727" d="M259.93-11.31l8.774-3.875c0.159-3.522-1.25-7.167-3.558-9.12l-13.892,6.062L259.93-11.31z"/>
	<path fill="#E6573F" d="M237.887,81.477l-115.28-69.048c-3.261-1.952-5.142-7.132-4.202-11.573l18.777-88.673
		c0.938-4.433,4.344-6.45,7.605-4.498l115.275,69.05c3.26,1.952,5.146,7.133,4.203,11.573L245.49,76.979
		C244.555,81.413,241.148,83.43,237.887,81.477z"/>
	<path fill="#FFFFFF" d="M235.389,74.875L126.968,9.966c-2.988-1.787-4.709-6.529-3.849-10.592l17.18-81.142
		c0.86-4.063,3.978-5.9,6.958-4.118l108.419,64.913c2.981,1.785,4.711,6.527,3.85,10.59l-17.178,81.142
		C241.486,74.825,238.375,76.67,235.389,74.875z"/>
	<path fill="#FFFFFF" d="M235.389,74.875L126.968,9.966c-2.988-1.787-4.709-6.529-3.849-10.592l17.18-81.142
		c0.86-4.063,3.978-5.9,6.958-4.118l108.419,64.913c2.981,1.785,4.711,6.527,3.85,10.59l-17.178,81.142
		C241.486,74.825,238.375,76.67,235.389,74.875z"/>
	<path fill="#751717" d="M239.48,84.48l-15.752-2.16L122.005,21.398c-3.26-1.952-8.955-1.711-12.723,0.549L37.202,65.1l-9.531-1.304
		V69.4h0.01c-0.063,1.295,0.652,2.544,2.188,3.467l115.276,69.049c3.262,1.954,8.957,1.708,12.72-0.546l78.498-46.998
		c2.123-1.272,3.181-2.906,3.113-4.44l0,0v-5.449h0.004V84.48L239.48,84.48z"/>
	<path fill="#A83939" d="M163.055,45.982l-7.231-4.33h-79.45L37.205,65.1l-9.53-1.304V69.4h0.01
		c-0.062,1.295,0.652,2.544,2.188,3.467l115.27,69.049c1.721,1.036,4.125,1.441,6.568,1.279L163.055,45.982z"/>
	<path fill="#CC5858" d="M31.901,64.375l-4.23-0.579V69.4h0.01c-0.063,1.295,0.652,2.544,2.188,3.467l2.029,1.218v-9.71H31.901z"/>
	<path fill="#872727" d="M146.312,142.477c3.086,1.219,7.512,0.951,10.808-0.692v-12.513h-10.808V142.477z"/>
	<path fill="#E6573F" d="M145.148,136.316L29.872,67.266c-3.26-1.951-2.85-5.359,0.913-7.624l78.492-46.999
		c3.767-2.254,9.465-2.501,12.725-0.55l115.273,69.052c3.265,1.951,2.853,5.363-0.912,7.621l-78.498,47.002
		C154.105,138.021,148.41,138.27,145.148,136.316z"/>
	<g>
		<path fill="#771818" d="M78.9,44.411l-5.217-3.122c-0.417-0.249-0.364-0.687,0.119-0.977l6.157-3.691
			c0.483-0.289,1.212-0.319,1.637-0.068l5.216,3.123c0.414,0.248,0.363,0.689-0.122,0.975l-6.154,3.692
			C80.05,44.629,79.32,44.659,78.9,44.411z"/>
		<path fill="#771818" d="M86.954,49.235l-5.217-3.123c-0.417-0.251-0.367-0.693,0.119-0.978l6.154-3.688
			c0.487-0.289,1.213-0.319,1.636-0.071l5.216,3.123c0.417,0.251,0.365,0.692-0.118,0.977l-6.157,3.691
			C88.106,49.455,87.374,49.484,86.954,49.235z"/>
		<path fill="#771818" d="M95.008,54.061l-5.217-3.122c-0.417-0.248-0.363-0.693,0.118-0.976l6.158-3.692
			c0.485-0.289,1.213-0.317,1.639-0.068l5.216,3.122c0.414,0.248,0.363,0.693-0.121,0.979l-6.156,3.691
			C96.159,54.28,95.432,54.312,95.008,54.061z"/>
		<path fill="#771818" d="M106.154,50.074l-5.217-3.125c-0.417-0.245-0.365-0.688,0.118-0.974l5.17-3.094
			c0.486-0.289,1.218-0.317,1.637-0.071l5.217,3.122c0.417,0.248,0.363,0.692-0.12,0.979l-5.169,3.09
			C107.296,50.296,106.566,50.322,106.154,50.074z"/>
		<path fill="#771818" d="M114.205,54.903l-5.217-3.126c-0.416-0.248-0.363-0.693,0.122-0.976l5.171-3.091
			c0.483-0.292,1.214-0.32,1.636-0.07l5.217,3.123c0.418,0.244,0.364,0.692-0.123,0.979l-5.17,3.091
			C115.352,55.118,114.623,55.15,114.205,54.903z"/>
		<path fill="#771818" d="M122.263,59.722l-5.217-3.123c-0.418-0.248-0.364-0.692,0.117-0.979l5.173-3.09
			c0.484-0.289,1.212-0.321,1.636-0.073l5.217,3.125c0.417,0.248,0.363,0.692-0.12,0.979l-5.169,3.088
			C123.413,59.947,122.679,59.976,122.263,59.722z"/>
		<path fill="#771818" d="M130.316,64.546l-5.217-3.119c-0.414-0.248-0.365-0.692,0.123-0.979l5.169-3.093
			c0.482-0.286,1.214-0.318,1.636-0.067l5.217,3.122c0.414,0.247,0.363,0.687-0.123,0.976l-5.169,3.094
			C131.466,64.766,130.729,64.801,130.316,64.546z"/>
		<path fill="#771818" d="M138.37,69.374l-5.217-3.125c-0.417-0.248-0.366-0.693,0.12-0.977l5.169-3.089
			c0.486-0.293,1.216-0.324,1.636-0.07l5.217,3.118c0.418,0.248,0.365,0.693-0.12,0.981l-5.169,3.092
			C139.521,69.591,138.787,69.629,138.37,69.374z"/>
		<path fill="#771818" d="M146.424,74.196l-5.216-3.12c-0.418-0.247-0.365-0.692,0.121-0.979l5.171-3.093
			c0.481-0.286,1.212-0.321,1.636-0.069l5.217,3.124c0.416,0.248,0.36,0.689-0.119,0.973l-5.168,3.094
			C147.575,74.419,146.842,74.444,146.424,74.196z"/>
		<path fill="#771818" d="M154.48,79.023l-5.217-3.119c-0.416-0.255-0.364-0.696,0.12-0.979l5.17-3.093
			c0.483-0.292,1.211-0.318,1.635-0.066l5.22,3.118c0.415,0.25,0.356,0.692-0.122,0.979l-5.172,3.094
			C155.632,79.243,154.896,79.271,154.48,79.023z"/>
		<path fill="#771818" d="M162.532,83.85l-5.218-3.123c-0.416-0.248-0.361-0.691,0.123-0.979l5.168-3.089
			c0.481-0.289,1.215-0.321,1.635-0.067l5.215,3.12c0.416,0.247,0.367,0.692-0.121,0.978l-5.167,3.095
			C163.684,84.068,162.954,84.1,162.532,83.85z"/>
		<path fill="#771818" d="M170.584,88.668l-5.212-3.12c-0.415-0.247-0.366-0.692,0.116-0.978l5.169-3.094
			c0.487-0.287,1.219-0.317,1.638-0.066l5.215,3.122c0.417,0.25,0.361,0.69-0.117,0.975l-5.168,3.095
			C171.736,88.895,171.01,88.922,170.584,88.668z"/>
		<path fill="#771818" d="M178.643,93.495l-5.217-3.125c-0.416-0.248-0.361-0.688,0.122-0.972l5.168-3.094
			c0.484-0.294,1.212-0.324,1.634-0.07l5.217,3.119c0.418,0.248,0.363,0.691-0.121,0.98l-5.168,3.091
			C179.793,93.712,179.064,93.75,178.643,93.495z"/>
		<path fill="#A83939" d="M118.021,47.794l-5.217-3.122c-0.415-0.249-0.365-0.694,0.123-0.977l5.17-3.093
			c0.486-0.291,1.212-0.319,1.636-0.068l5.217,3.123c0.417,0.246,0.363,0.689-0.118,0.975l-5.169,3.092
			C119.165,48.01,118.437,48.042,118.021,47.794z"/>
		<path fill="#A83939" d="M109.847,42.894l-5.216-3.122c-0.418-0.246-0.368-0.692,0.117-0.975l5.172-3.094
			c0.486-0.289,1.213-0.317,1.636-0.072l5.216,3.123c0.417,0.248,0.364,0.689-0.118,0.977l-5.171,3.091
			C110.991,43.116,110.263,43.142,109.847,42.894z"/>
		<path fill="#771818" d="M101.654,37.987l-11.233-6.729c-0.417-0.248-0.368-0.693,0.12-0.976l5.169-3.093
			c0.485-0.291,1.214-0.319,1.636-0.072l11.233,6.729c0.416,0.248,0.367,0.689-0.119,0.976l-5.169,3.093
			C102.805,38.205,102.071,38.244,101.654,37.987z"/>
		<path fill="#771818" d="M107.378,32.024l-9.116-5.458c-0.414-0.247-0.364-0.693,0.123-0.976l5.169-3.094
			c0.481-0.289,1.214-0.318,1.636-0.072l9.115,5.459c0.415,0.25,0.362,0.686-0.12,0.975l-5.17,3.094
			C108.529,32.246,107.798,32.276,107.378,32.024z"/>
		<path fill="#A83939" d="M126.074,52.616l-5.217-3.126c-0.416-0.248-0.364-0.693,0.12-0.976l5.17-3.092
			c0.484-0.291,1.216-0.32,1.636-0.072L133,48.473c0.417,0.247,0.368,0.692-0.118,0.975l-5.169,3.091
			C127.226,52.838,126.49,52.87,126.074,52.616z"/>
		<path fill="#771818" d="M134.127,57.438l-5.217-3.123c-0.412-0.247-0.361-0.689,0.123-0.975l5.169-3.094
			c0.485-0.289,1.213-0.317,1.636-0.07l5.217,3.126c0.418,0.247,0.364,0.692-0.119,0.972l-5.169,3.094
			C135.282,57.654,134.545,57.692,134.127,57.438z"/>
		<path fill="#771818" d="M142.181,62.266l-5.215-3.125c-0.417-0.249-0.364-0.693,0.118-0.979l5.171-3.087
			c0.486-0.292,1.214-0.323,1.635-0.072l5.217,3.121c0.417,0.248,0.366,0.692-0.118,0.979l-5.17,3.092
			C143.332,62.482,142.6,62.514,142.181,62.266z"/>
		<path fill="#771818" d="M150.239,67.088l-5.215-3.12c-0.414-0.248-0.364-0.692,0.122-0.979l5.169-3.09
			c0.483-0.289,1.214-0.321,1.637-0.073l5.214,3.128c0.416,0.245,0.368,0.693-0.116,0.973l-5.172,3.094
			C151.389,67.311,150.652,67.339,150.239,67.088z"/>
		<path fill="#771818" d="M158.288,71.916l-5.209-3.123c-0.417-0.251-0.369-0.696,0.114-0.976l5.168-3.093
			c0.488-0.293,1.22-0.318,1.636-0.07l5.217,3.118c0.417,0.251,0.361,0.693-0.122,0.979l-5.164,3.094
			C159.445,72.138,158.708,72.163,158.288,71.916z"/>
		<path fill="#771818" d="M166.348,76.744l-5.218-3.126c-0.415-0.248-0.36-0.693,0.122-0.976l5.168-3.09
			c0.484-0.293,1.214-0.324,1.637-0.07l5.213,3.122c0.42,0.247,0.363,0.692-0.119,0.976l-5.168,3.094
			C167.498,76.96,166.771,76.992,166.348,76.744z"/>
		<path fill="#771818" d="M174.4,81.559l-5.215-3.119c-0.418-0.248-0.365-0.691,0.119-0.979l5.168-3.094
			c0.482-0.285,1.219-0.317,1.635-0.069l5.213,3.124c0.416,0.248,0.365,0.693-0.115,0.973l-5.171,3.096
			C175.55,81.788,174.822,81.813,174.4,81.559z"/>
		<path fill="#771818" d="M182.458,86.389l-5.218-3.128c-0.418-0.247-0.367-0.69,0.115-0.973l5.172-3.093
			c0.483-0.291,1.216-0.32,1.633-0.069l5.218,3.119c0.415,0.25,0.358,0.692-0.123,0.978l-5.165,3.096
			C183.609,86.604,182.878,86.643,182.458,86.389z"/>
		<path fill="#771818" d="M190.512,91.212l-5.219-3.123c-0.416-0.247-0.361-0.692,0.123-0.976l5.167-3.094
			c0.483-0.289,1.217-0.319,1.632-0.065l5.219,3.119c0.418,0.247,0.367,0.696-0.121,0.978l-5.168,3.088
			C191.661,91.432,190.934,91.46,190.512,91.212z"/>
		<path fill="#771818" d="M204.83,99.785l-11.381-6.816c-0.417-0.248-0.361-0.693,0.121-0.976l5.164-3.095
			c0.488-0.287,1.218-0.319,1.641-0.064l11.378,6.818c0.414,0.248,0.358,0.688-0.12,0.973l-5.171,3.093
			C205.977,100.014,205.248,100.045,204.83,99.785z"/>
		<path fill="#771818" d="M220.512,90.396l-9.604-5.756c-0.417-0.248-0.368-0.692,0.115-0.973l5.174-3.095
			c0.484-0.292,1.214-0.323,1.635-0.069l9.604,5.756c0.418,0.248,0.36,0.689-0.119,0.975l-5.17,3.093
			C221.659,90.614,220.932,90.648,220.512,90.396z"/>
		<path fill="#771818" d="M140.176,51.675l-5.217-3.125c-0.417-0.249-0.364-0.693,0.119-0.979l5.171-3.089
			c0.481-0.289,1.212-0.319,1.632-0.071l5.217,3.122c0.412,0.248,0.363,0.692-0.123,0.975l-5.17,3.09
			C141.329,51.892,140.598,51.924,140.176,51.675z"/>
		<path fill="#771818" d="M131.923,46.726l-5.216-3.118c-0.414-0.251-0.365-0.687,0.122-0.976L132,39.538
			c0.483-0.289,1.212-0.319,1.637-0.071l5.216,3.122c0.417,0.251,0.363,0.693-0.118,0.976l-5.17,3.091
			C133.074,46.95,132.344,46.975,131.923,46.726z"/>
		<path fill="#A83939" d="M123.67,41.783l-5.217-3.122c-0.416-0.249-0.366-0.693,0.119-0.976l5.169-3.093
			c0.487-0.29,1.215-0.319,1.637-0.072l5.217,3.123c0.415,0.25,0.363,0.692-0.12,0.975l-5.17,3.093
			C124.82,42.003,124.085,42.034,123.67,41.783z"/>
		<path fill="#771818" d="M115.415,36.832l-5.217-3.122c-0.417-0.248-0.367-0.69,0.12-0.975l5.169-3.094
			c0.485-0.289,1.212-0.319,1.636-0.068l5.217,3.123c0.417,0.248,0.363,0.689-0.12,0.976l-5.169,3.093
			C116.558,37.053,115.832,37.089,115.415,36.832z"/>
		<path fill="#771818" d="M148.23,56.497l-5.217-3.123c-0.416-0.248-0.366-0.688,0.121-0.975l5.169-3.093
			c0.486-0.289,1.213-0.318,1.636-0.071l5.215,3.127c0.42,0.247,0.367,0.69-0.116,0.974l-5.172,3.091
			C149.384,56.714,148.654,56.745,148.23,56.497z"/>
		<path fill="#771818" d="M156.287,61.319l-5.217-3.127c-0.418-0.247-0.364-0.691,0.119-0.971l5.17-3.094
			c0.482-0.292,1.213-0.325,1.635-0.073l5.215,3.122c0.419,0.248,0.365,0.692-0.12,0.979l-5.168,3.09
			C157.438,61.541,156.709,61.573,156.287,61.319z"/>
		<path fill="#771818" d="M164.346,66.147l-5.219-3.126c-0.412-0.248-0.359-0.692,0.123-0.979l5.168-3.091
			c0.479-0.289,1.216-0.32,1.635-0.072l5.215,3.129c0.416,0.244,0.364,0.691-0.115,0.974l-5.17,3.092
			C165.488,66.363,164.762,66.397,164.346,66.147z"/>
		<path fill="#771818" d="M172.396,70.969l-5.211-3.123c-0.416-0.248-0.367-0.694,0.115-0.975l5.17-3.094
			c0.485-0.292,1.217-0.318,1.633-0.07l5.217,3.126c0.418,0.245,0.363,0.687-0.12,0.972l-5.165,3.094
			C173.548,71.191,172.816,71.223,172.396,70.969z"/>
		<path fill="#771818" d="M180.455,75.797l-5.217-3.126c-0.416-0.248-0.361-0.691,0.121-0.975l5.17-3.091
			c0.482-0.292,1.211-0.321,1.635-0.07l5.214,3.123c0.418,0.247,0.363,0.692-0.12,0.975l-5.167,3.095
			C181.602,76.013,180.87,76.045,180.455,75.797z"/>
		<path fill="#771818" d="M188.506,80.618l-5.212-3.119c-0.416-0.247-0.364-0.691,0.118-0.978l5.168-3.095
			c0.484-0.285,1.22-0.317,1.636-0.069l5.214,3.126c0.416,0.248,0.364,0.692-0.115,0.975l-5.172,3.091
			C189.658,80.841,188.924,80.869,188.506,80.618z"/>
		<path fill="#771818" d="M196.566,85.445l-5.217-3.125c-0.418-0.247-0.369-0.691,0.113-0.971l5.171-3.096
			c0.484-0.292,1.218-0.316,1.636-0.07l5.215,3.121c0.416,0.247,0.361,0.692-0.123,0.978l-5.163,3.094
			C197.716,85.662,196.977,85.693,196.566,85.445z"/>
		<path fill="#771818" d="M204.618,90.266l-5.218-3.123c-0.416-0.246-0.36-0.686,0.121-0.975l5.168-3.095
			c0.484-0.288,1.218-0.32,1.634-0.066l5.218,3.122c0.418,0.245,0.367,0.693-0.12,0.977l-5.168,3.094
			C205.77,90.491,205.033,90.52,204.618,90.266z"/>
		<path fill="#771818" d="M212.674,95.09l-5.217-3.119c-0.415-0.25-0.365-0.691,0.118-0.978l5.167-3.095
			c0.484-0.293,1.22-0.317,1.639-0.07l5.215,3.127c0.416,0.247,0.361,0.691-0.119,0.972l-5.172,3.093
			C213.82,95.313,213.085,95.346,212.674,95.09z"/>
		<path fill="#771818" d="M135.937,39.74l-5.217-3.123c-0.417-0.251-0.364-0.692,0.12-0.977l5.169-3.092
			c0.485-0.291,1.216-0.319,1.636-0.072l5.217,3.123c0.417,0.246,0.363,0.693-0.119,0.976l-5.169,3.093
			C137.087,39.955,136.356,39.988,135.937,39.74z"/>
		<path fill="#771818" d="M127.92,34.936l-5.217-3.123c-0.413-0.247-0.363-0.692,0.123-0.975l5.169-3.094
			c0.485-0.289,1.215-0.32,1.638-0.071l5.217,3.122c0.418,0.251,0.365,0.692-0.12,0.975l-5.169,3.095
			C129.075,35.153,128.345,35.19,127.92,34.936z"/>
		<path fill="#771818" d="M119.906,30.132l-5.216-3.123c-0.417-0.247-0.364-0.688,0.119-0.975l5.17-3.094
			c0.481-0.289,1.212-0.319,1.633-0.068l5.216,3.122c0.418,0.247,0.367,0.692-0.117,0.975l-5.172,3.094
			C121.058,30.353,120.33,30.389,119.906,30.132z"/>
		<path fill="#771818" d="M111.895,25.337l-5.217-3.123c-0.417-0.247-0.367-0.689,0.119-0.975l5.169-3.094
			c0.486-0.289,1.214-0.317,1.638-0.071l5.217,3.122c0.417,0.248,0.361,0.694-0.12,0.977l-5.169,3.093
			C113.043,25.556,112.314,25.584,111.895,25.337z"/>
		<path fill="#771818" d="M120.136,20.401l-5.217-3.124c-0.417-0.247-0.363-0.689,0.12-0.975l1.708-1.021
			c0.484-0.29,1.214-0.32,1.636-0.072l5.217,3.123c0.417,0.247,0.365,0.692-0.12,0.975l-1.708,1.024
			C121.288,20.619,120.55,20.646,120.136,20.401z"/>
		<path fill="#771818" d="M130.595,26.665l-5.217-3.123c-0.417-0.251-0.366-0.692,0.119-0.977l1.708-1.021
			c0.487-0.29,1.215-0.318,1.638-0.072l5.217,3.122c0.417,0.251,0.364,0.695-0.12,0.977l-1.708,1.021
			C131.746,26.879,131.01,26.918,130.595,26.665z"/>
		<path fill="#771818" d="M138.574,31.445l-5.217-3.123c-0.417-0.246-0.363-0.691,0.119-0.975l1.709-1.024
			c0.486-0.289,1.214-0.319,1.636-0.068l5.217,3.122c0.418,0.248,0.365,0.689-0.12,0.976l-1.708,1.021
			C139.728,31.667,138.997,31.693,138.574,31.445z"/>
		<path fill="#771818" d="M146.555,36.224l-5.216-3.123c-0.418-0.251-0.364-0.692,0.119-0.977l1.709-1.021
			c0.485-0.29,1.212-0.317,1.636-0.072l5.216,3.122c0.417,0.251,0.364,0.695-0.117,0.977l-1.71,1.021
			C147.706,36.445,146.979,36.475,146.555,36.224z"/>
		<path fill="#771818" d="M154.534,41.003l-5.217-3.124c-0.417-0.246-0.363-0.689,0.121-0.975l1.708-1.021
			c0.484-0.289,1.211-0.319,1.631-0.072l5.218,3.122c0.417,0.251,0.366,0.693-0.116,0.976l-1.715,1.021
			C155.688,41.224,154.958,41.258,154.534,41.003z"/>
		<path fill="#771818" d="M199.096,67.689l-5.219-3.117c-0.416-0.249-0.365-0.693,0.123-0.979l1.709-1.023
			c0.482-0.289,1.211-0.317,1.635-0.069l5.217,3.125c0.416,0.245,0.36,0.692-0.123,0.973l-1.707,1.021
			C200.246,67.919,199.518,67.944,199.096,67.689z"/>
		<path fill="#771818" d="M207.078,72.477l-5.213-3.121c-0.416-0.248-0.364-0.693,0.119-0.979l1.707-1.022
			c0.483-0.289,1.221-0.318,1.637-0.07l5.217,3.125c0.416,0.248,0.368,0.692-0.122,0.976l-1.708,1.021
			C208.225,72.696,207.495,72.725,207.078,72.477z"/>
		<path fill="#771818" d="M215.063,77.255l-5.215-3.122c-0.416-0.248-0.367-0.693,0.114-0.976l1.714-1.02
			c0.482-0.292,1.215-0.324,1.639-0.073l5.211,3.126c0.418,0.247,0.365,0.691-0.116,0.975l-1.716,1.024
			C216.205,77.474,215.48,77.509,215.063,77.255z"/>
		<path fill="#771818" d="M223.042,82.042l-5.217-3.126c-0.416-0.248-0.367-0.691,0.12-0.979l1.711-1.021
			c0.482-0.288,1.212-0.321,1.635-0.073l5.217,3.125c0.417,0.248,0.362,0.693-0.121,0.979l-1.71,1.02
			C224.193,82.257,223.459,82.288,223.042,82.042z"/>
		<path fill="#771818" d="M143.987,44.564l-5.214-3.123c-0.415-0.248-0.361-0.693,0.124-0.976l5.169-3.093
			c0.484-0.29,1.213-0.319,1.637-0.072l5.216,3.122c0.418,0.248,0.364,0.689-0.121,0.976l-5.17,3.094
			C145.142,44.781,144.411,44.811,143.987,44.564z"/>
		<path fill="#771818" d="M152.043,49.388l-5.214-3.124c-0.417-0.246-0.364-0.69,0.119-0.976l5.168-3.093
			c0.483-0.29,1.214-0.319,1.635-0.072l5.212,3.123c0.42,0.247,0.368,0.693-0.111,0.976l-5.17,3.093
			C153.193,49.608,152.465,49.637,152.043,49.388z"/>
		<path fill="#771818" d="M160.102,54.21l-5.217-3.126c-0.417-0.247-0.367-0.689,0.121-0.972l5.169-3.093
			c0.483-0.293,1.212-0.321,1.636-0.069l5.217,3.118c0.41,0.248,0.357,0.696-0.123,0.981l-5.168,3.091
			C161.252,54.427,160.518,54.465,160.102,54.21z"/>
		<path fill="#771818" d="M168.159,59.035l-5.218-3.123c-0.416-0.247-0.359-0.691,0.123-0.978l5.168-3.091
			c0.482-0.289,1.213-0.321,1.633-0.072l5.217,3.125c0.421,0.248,0.363,0.692-0.119,0.978l-5.169,3.089
			C169.305,59.254,168.577,59.286,168.159,59.035z"/>
		<path fill="#771818" d="M176.213,63.86l-5.215-3.12c-0.42-0.248-0.365-0.691,0.118-0.978l5.168-3.094
			c0.483-0.289,1.22-0.318,1.637-0.067l5.21,3.123c0.419,0.248,0.367,0.688-0.113,0.975l-5.17,3.094
			C177.355,64.079,176.628,64.107,176.213,63.86z"/>
		<path fill="#771818" d="M184.27,68.688l-5.217-3.126c-0.416-0.248-0.367-0.692,0.123-0.975l5.168-3.091
			c0.483-0.292,1.213-0.324,1.635-0.07l5.217,3.119c0.418,0.248,0.359,0.692-0.121,0.979l-5.17,3.094
			C185.416,68.904,184.682,68.936,184.27,68.688z"/>
		<path fill="#771818" d="M192.322,73.51l-5.217-3.119c-0.418-0.248-0.362-0.691,0.123-0.979l5.168-3.094
			c0.48-0.286,1.215-0.32,1.631-0.069l5.218,3.125c0.417,0.248,0.366,0.689-0.121,0.972l-5.167,3.094
			C193.475,73.732,192.738,73.764,192.322,73.51z"/>
		<path fill="#771818" d="M200.375,78.338l-5.212-3.123c-0.416-0.25-0.367-0.691,0.116-0.975l5.169-3.094
			c0.485-0.292,1.218-0.317,1.638-0.07l5.214,3.12c0.417,0.255,0.361,0.695-0.118,0.98l-5.173,3.094
			C201.525,78.559,200.794,78.586,200.375,78.338z"/>
		<path fill="#771818" d="M208.434,83.159l-5.218-3.125c-0.417-0.248-0.362-0.692,0.123-0.978l5.167-3.09
			c0.483-0.292,1.212-0.323,1.635-0.072l5.217,3.123c0.418,0.248,0.363,0.692-0.123,0.978l-5.166,3.095
			C209.584,83.375,208.85,83.413,208.434,83.159z"/>
		<path fill="#771818" d="M97.942,45.156L82.58,35.954c-0.417-0.247-0.368-0.689,0.12-0.975l5.169-3.094
			c0.484-0.289,1.213-0.319,1.636-0.072l15.362,9.203c0.418,0.247,0.364,0.692-0.121,0.975l-5.169,3.094
			C99.09,45.379,98.361,45.41,97.942,45.156z"/>
		<path fill="#771818" d="M196.896,104.43l-15.363-9.203c-0.415-0.248-0.367-0.688,0.121-0.975l5.169-3.094
			c0.483-0.293,1.211-0.317,1.636-0.07l15.354,9.195c0.416,0.251,0.361,0.695-0.123,0.976l-5.164,3.095
			C198.048,104.65,197.318,104.684,196.896,104.43z"/>
		<path fill="#771818" d="M164.682,95.796l-5.217-3.123c-0.418-0.248-0.357-0.692,0.122-0.975l6.151-3.691
			c0.486-0.293,1.222-0.321,1.64-0.069l5.215,3.119c0.417,0.25,0.368,0.692-0.118,0.979l-6.158,3.689
			C165.832,96.012,165.104,96.043,164.682,95.796z"/>
		<path fill="#771818" d="M106.19,60.753l-8.338-4.993c-0.415-0.248-0.364-0.691,0.123-0.978l6.154-3.691
			c0.484-0.289,1.212-0.318,1.636-0.069l8.34,4.999c0.416,0.248,0.366,0.693-0.12,0.976l-6.153,3.69
			C107.339,60.976,106.608,61.008,106.19,60.753z"/>
		<path fill="#771818" d="M156.923,91.146l-8.34-4.994c-0.417-0.25-0.366-0.687,0.121-0.979l6.157-3.688
			c0.479-0.293,1.212-0.322,1.632-0.07l8.337,4.999c0.419,0.249,0.367,0.688-0.117,0.972l-6.16,3.691
			C158.074,91.368,157.339,91.393,156.923,91.146z"/>
		<path fill="#771818" d="M117.809,67.716l-8.339-4.997c-0.417-0.25-0.364-0.691,0.119-0.975l6.159-3.69
			c0.481-0.292,1.212-0.32,1.636-0.07l8.338,4.996c0.418,0.248,0.367,0.69-0.119,0.976l-6.159,3.691
			C118.96,67.938,118.23,67.964,117.809,67.716z"/>
		<path fill="#771818" d="M117.435,58.015l36.262,21.727c0.457,0.273,0.457,0.701,0,0.976l-6.271,3.759
			c-0.452,0.272-1.179,0.272-1.63,0l-36.263-21.722L117.435,58.015z"/>
		<path fill="#771818" d="M187.195,104.543l5.813,3.472c0.34,0.211,0.301,0.569-0.098,0.809l-2.518,1.508
			c-0.404,0.234-0.998,0.264-1.343,0.061l-5.81-3.479c-0.344-0.203-0.305-0.563,0.097-0.804l2.519-1.51
			C186.247,104.357,186.848,104.333,187.195,104.543z"/>
		<path fill="#771818" d="M179.07,99.677l5.813,3.476c0.344,0.203,0.307,0.56-0.092,0.808l-2.521,1.505
			c-0.398,0.232-1,0.268-1.342,0.059l-5.812-3.477c-0.337-0.203-0.306-0.566,0.098-0.806l2.522-1.507
			C178.134,99.498,178.734,99.467,179.07,99.677z"/>
		<path fill="#771818" d="M171.02,94.85l5.812,3.479c0.344,0.204,0.306,0.563-0.095,0.804l-2.521,1.509
			c-0.397,0.231-0.995,0.264-1.342,0.062l-5.812-3.481c-0.342-0.203-0.301-0.56,0.101-0.801l2.519-1.513
			C170.076,94.671,170.684,94.645,171.02,94.85z"/>
		<path fill="#771818" d="M183.521,97.016l5.808,3.475c0.341,0.207,0.305,0.563-0.093,0.809l-2.523,1.506
			c-0.396,0.233-0.997,0.266-1.341,0.059l-5.806-3.478c-0.342-0.202-0.31-0.559,0.093-0.801l2.522-1.513
			C182.579,96.83,183.18,96.805,183.521,97.016z"/>
	</g>
</g>
<path fill="#E6573F" d="M249.436-29.638l-37.354-22.371l-33.709-15.245l-6.441,27.952c0,0-9.166,34.391,22.639,74.769
	c40.438,2.891,47.419-32.809,47.419-32.809L249.436-29.638z"/>
<g>
	<polygon fill="#771818" points="239.833,-35.386 249.436,-29.638 253.813,-31.208 240.686,-39.07 178.373,-67.251 177.247,-62.354 
			"/>
	<polygon fill="#A83939" points="249.436,-29.638 239.833,-35.386 238.834,-31.05 248.436,-25.309 	"/>
</g>
<g>
	<g opacity="0.5">
		<path fill="#D4ECFF" d="M169.604-50.781l-6.998-4.192c-0.647-0.391-1.027-1.356-0.851-2.154l0,0
			c0.177-0.798,0.851-1.128,1.499-0.738l6.999,4.192c0.649,0.391,1.031,1.356,0.851,2.154l0,0
			C170.928-50.725,170.257-50.393,169.604-50.781z"/>
		<path fill="#D4ECFF" d="M186.285-40.792l-10.324-6.186c-0.648-0.391-1.029-1.356-0.852-2.153l0,0
			c0.178-0.796,0.852-1.127,1.5-0.739l10.322,6.188c0.648,0.391,1.03,1.357,0.853,2.154l0,0
			C187.607-40.733,186.934-40.401,186.285-40.792z"/>
		<path fill="#E6573F" d="M157.4-16.876l-6.999-4.191c-0.653-0.391-1.031-1.356-0.857-2.154l0,0c0.176-0.8,0.849-1.129,1.499-0.742
			l6.999,4.193c0.648,0.389,1.035,1.356,0.854,2.152l0,0C158.725-16.817,158.049-16.485,157.4-16.876z"/>
		<path fill="#D4ECFF" d="M172.268-7.969l-10.322-6.186c-0.647-0.391-1.027-1.356-0.854-2.153l0,0
			c0.182-0.801,0.85-1.129,1.506-0.742l10.315,6.186c0.653,0.391,1.032,1.356,0.856,2.154l0,0
			C173.591-7.91,172.917-7.578,172.268-7.969z"/>
		<path fill="#E6573F" d="M148.954-56.284l-4.373-2.622c-0.652-0.391-1.032-1.353-0.856-2.153l0,0
			c0.18-0.799,0.851-1.128,1.499-0.742l4.374,2.623c0.65,0.391,1.031,1.356,0.854,2.153l0,0
			C150.271-56.224,149.603-55.893,148.954-56.284z"/>
		<path fill="#E6573F" d="M162.434-41.342l-13.364-8.007c-0.649-0.391-1.031-1.357-0.853-2.154l0,0
			c0.176-0.795,0.85-1.127,1.5-0.737l13.366,8.008c0.649,0.389,1.031,1.353,0.854,2.152l0,0
			C163.752-41.283,163.089-40.951,162.434-41.342z"/>
		<path fill="#E6573F" d="M150.745-34.598l-4.374-2.623c-0.652-0.391-1.031-1.356-0.856-2.153l0,0
			c0.178-0.796,0.851-1.127,1.503-0.739l4.373,2.622c0.646,0.391,1.032,1.354,0.854,2.154l0,0
			C152.066-34.546,151.395-34.207,150.745-34.598z"/>
		<path fill="#E6573F" d="M174.521,7.124l-11.688-6.998c-0.649-0.388-1.028-1.356-0.853-2.153l0,0
			c0.178-0.795,0.853-1.127,1.5-0.737l11.688,6.996c0.645,0.391,1.031,1.356,0.854,2.153l0,0
			C175.846,7.175,175.171,7.513,174.521,7.124z"/>
		<path fill="#E6573F" d="M146.48-23.416l-2.809-1.682c-0.652-0.391-1.03-1.354-0.856-2.153l0,0c0.18-0.801,0.851-1.128,1.503-0.743
			l2.81,1.683c0.652,0.391,1.031,1.356,0.854,2.153l0,0C147.805-23.357,147.13-23.025,146.48-23.416z"/>
		<path fill="#E6573F" d="M144.463-10.884l-3.488-2.088c-0.652-0.391-1.032-1.356-0.855-2.154l0,0
			c0.18-0.795,0.85-1.127,1.499-0.739l3.488,2.089c0.652,0.391,1.031,1.356,0.855,2.153l0,0
			C145.786-10.825,145.113-10.493,144.463-10.884z"/>
		<path fill="#E6573F" d="M158.033-2.758l-9.199-5.508c-0.652-0.389-1.03-1.356-0.856-2.152l0,0c0.176-0.797,0.85-1.129,1.498-0.738
			l9.198,5.507c0.649,0.391,1.028,1.353,0.854,2.153l0,0C159.35-2.699,158.682-2.368,158.033-2.758z"/>
		<path fill="#E6573F" d="M146.237-2.947l-6.613-3.955c-0.649-0.391-1.032-1.353-0.854-2.154l0,0c0.177-0.8,0.851-1.129,1.499-0.742
			l6.612,3.958c0.653,0.391,1.033,1.353,0.857,2.153l0,0C147.559-2.895,146.885-2.563,146.237-2.947z"/>
		<path fill="#D4ECFF" d="M184.545,13.158l-4.246-2.545c-0.648-0.391-1.033-1.356-0.854-2.154l0,0
			c0.179-0.795,0.849-1.128,1.5-0.738l4.244,2.544c0.647,0.391,1.033,1.356,0.854,2.154l0,0
			C185.863,13.214,185.193,13.546,184.545,13.158z"/>
		<path fill="#E6573F" d="M167.021-24.853l-11.688-6.997c-0.652-0.39-1.033-1.357-0.854-2.153l0,0
			c0.178-0.801,0.853-1.132,1.5-0.741l11.688,6.996c0.647,0.391,1.026,1.356,0.853,2.153l0,0
			C168.337-24.799,167.67-24.464,167.021-24.853z"/>
	</g>
	<path fill="#E6573F" d="M168.086-31.085l-20.363-12.194c-0.65-0.391-1.032-1.356-0.854-2.153l0,0
		c0.177-0.801,0.849-1.129,1.499-0.742l20.36,12.194c0.648,0.391,1.037,1.356,0.856,2.154l0,0
		C169.402-31.026,168.736-30.696,168.086-31.085z"/>
	<path fill="#E6573F" d="M156.709-24.161l-11.686-6.996c-0.65-0.391-1.033-1.356-0.854-2.153l0,0
		c0.176-0.798,0.851-1.129,1.499-0.739l11.689,6.997c0.648,0.391,1.027,1.357,0.851,2.154l0,0
		C158.025-24.102,157.357-23.77,156.709-24.161z"/>
	<path fill="#D4ECFF" d="M175.875-19.548l-4.243-2.544c-0.649-0.389-1.034-1.356-0.858-2.152l0,0c0.181-0.8,0.854-1.132,1.502-0.741
		l4.244,2.542c0.653,0.391,1.033,1.356,0.856,2.153l0,0C177.197-19.49,176.527-19.158,175.875-19.548z"/>
	<path fill="#D4ECFF" d="M217.779-21.927l-25.139-15.055c-0.649-0.391-1.029-1.356-0.855-2.154l0,0
		c0.182-0.797,0.85-1.129,1.499-0.739l25.144,15.057c0.65,0.39,1.028,1.356,0.85,2.153l0,0
		C219.104-21.871,218.428-21.543,217.779-21.927z"/>
	<path fill="#E6573F" d="M156.372-10.623l-14.045-8.408c-0.649-0.391-1.033-1.356-0.854-2.153l0,0
		c0.175-0.801,0.851-1.129,1.499-0.743l14.045,8.409c0.648,0.39,1.029,1.356,0.854,2.154l0,0
		C157.688-10.565,157.021-10.234,156.372-10.623z"/>
	<path fill="#E6573F" d="M156.251-58.778l-10.322-6.186c-0.649-0.391-1.031-1.356-0.852-2.154l0,0c0.173-0.8,0.849-1.13,1.498-0.739
		l10.323,6.186c0.647,0.391,1.031,1.353,0.852,2.154l0,0C157.572-58.726,156.9-58.395,156.251-58.778z"/>
	<path fill="#E6573F" d="M144.396,2.816l-11.958-7.163c-0.652-0.389-1.03-1.356-0.856-2.153l0,0c0.179-0.796,0.85-1.127,1.498-0.737
		l11.96,7.161c0.649,0.391,1.033,1.356,0.854,2.154l0,0C145.719,2.878,145.043,3.21,144.396,2.816z"/>
</g>
<g>
	<path fill="#771818" d="M225.854-73.045c-9.767-7.272-19.899-13.341-30.236-18.113l-20.479-9.445l-6.56,2.648
		c0,0,2.876,1.596,5.276,2.932l-9.728,42.213c0,0-9.167,34.391,22.636,74.767c6.104,0.44,11.44-0.01,16.109-1.075
		c-0.1,0.395-0.159,0.666-0.159,0.666l5.905-2.394c0.548-0.205,1.088-0.425,1.613-0.658l0.125-0.054h-0.006
		c19.789-8.6,23.836-29.297,23.836-29.297l11.008-47.797L225.854-73.045z"/>
	<path fill="#992222" d="M195.615-91.159l-20.48-9.445l-6.558,2.648c0,0,2.876,1.596,5.276,2.932l-3.526,15.317l36.51,24.633
		l31.81-0.918l6.56-2.647l-19.341-14.407C216.093-80.321,205.959-86.393,195.615-91.159z"/>
	<path fill="#BC3B3B" d="M205.273-79.859l6.601-2.613c-5.347-3.249-10.771-6.157-16.259-8.687l-20.48-9.445l-6.558,2.648
		c0,0,2.876,1.596,5.276,2.932l-0.211,0.906C186.417-88.31,205.273-79.859,205.273-79.859z"/>
	<path fill="#B52D2D" d="M206.669-85.519l-12.296,4.779l10.3,6.167l12.206-4.743C213.51-81.521,210.107-83.596,206.669-85.519z"/>
	<path fill="#A83939" d="M227.616-8.193l11.01-47.798l-19.343-14.405c-9.76-7.274-19.898-13.343-30.237-18.115l-20.481-9.444
		l-11.008,47.796c0,0-9.166,34.391,22.635,74.769C220.643,27.506,227.616-8.193,227.616-8.193z"/>
	<path fill="#771818" d="M182.771,19.418c-14.373-18.924-19.174-36.157-20.644-47.424c-1.646-12.591,0.376-20.674,0.386-20.735
		l9.625-41.744l14.828,6.846c9.997,4.612,19.869,10.526,29.327,17.57l16.532,12.318L222.62-9.434l-0.043,0.18
		c-0.019,0.075-1.653,7.829-7.47,15.158C207.593,15.371,196.717,19.915,182.771,19.418z"/>
</g>
<g>
	<path fill="#DD3E3E" d="M195.078-32.416c-0.324,1.021,0.104,2.271,0.968,2.784c0.854,0.514,1.812,0.096,2.134-0.925
		c0.328-1.023-0.105-2.271-0.971-2.786C196.352-33.859,195.396-33.44,195.078-32.416z"/>
	<path fill="#DD3E3E" d="M190.088-35.401c-0.326,1.021,0.109,2.271,0.973,2.784c0.854,0.515,1.813,0.094,2.131-0.931
		c0.324-1.021-0.104-2.269-0.974-2.784C191.366-36.846,190.406-36.427,190.088-35.401z"/>
	<path fill="#DD3E3E" d="M185.102-38.388c-0.328,1.021,0.105,2.27,0.969,2.785c0.854,0.514,1.813,0.093,2.134-0.928
		c0.325-1.021-0.11-2.27-0.97-2.784C186.376-39.828,185.422-39.418,185.102-38.388z"/>
</g>
<g>
	<path fill="#E6573F" d="M234.286,51.04c-0.329,1.022,0.104,2.268,0.967,2.782c0.856,0.512,1.813,0.093,2.133-0.927
		c0.327-1.023-0.108-2.269-0.97-2.783C235.559,49.598,234.598,50.018,234.286,51.04z"/>
	<path fill="#E6573F" d="M229.294,48.054c-0.323,1.023,0.106,2.268,0.968,2.783c0.858,0.512,1.813,0.092,2.137-0.928
		c0.326-1.022-0.104-2.274-0.973-2.785C230.564,46.609,229.613,47.026,229.294,48.054z"/>
	<path fill="#E6573F" d="M224.309,45.068c-0.328,1.021,0.105,2.269,0.969,2.782c0.854,0.516,1.813,0.096,2.133-0.927
		c0.326-1.02-0.107-2.27-0.973-2.783C225.584,43.624,224.628,44.036,224.309,45.068z"/>
</g>
<ellipse opacity="0.5" fill="#E5C3C3" enable-background="new    " cx="17.173" cy="148.352" rx="13.719" ry="8.22"/>
<g>
	<path fill="#012C4F" d="M8.89,48.016c0,0,0.363,7.362,0.94,12.311c0.577,4.949,12.779-3.798,12.779-3.798v-5.643L8.89,48.016z"/>
	<g>
		<path fill="#771818" d="M15.391,139.654c0.182,0.451,3.344,4.212,6.512,5.152c1.373,0.406,2.301,0.463,2.907,0.395
			c0.608-0.073,0.984-0.68,0.779-1.251c-0.542-1.493-2.104-4.613-6.072-6.534C14.156,134.82,15.391,139.654,15.391,139.654z"/>
		<path fill="#771818" d="M14.338,141.104c0,0,1.191,2.73,1.559,5.013c0.221,1.392-0.56,3.2-1.204,4.404
			c-0.4,0.746-1.415,0.904-2.051,0.348c-1.031-0.921-2.348-2.509-2.564-4.794c-0.364-3.854,0-4.525,0-4.525L14.338,141.104z"/>
		<path fill="#E6573F" d="M6.716,94.568c0,0-0.411,4.855,0,10.234c0.412,5.365,1.887,30.486,2.167,36.531
			c0,0-0.138,1.826,3.489,1.427c3.625-0.399,3.333-2.433,3.333-2.433s5.094-0.07,5.255-2.999c0.159-2.937,5.215-35.021,5.215-46.554
			L6.716,94.568z"/>
		<g>
			<path fill="#FFC2B0" d="M28.063,69.464l2.497,3.766l8.577,10.118c0,0-0.299,0.942-1.364,1.186
				c-0.834,0.189-8.048-6.528-11.167-9.482c-0.829-0.784-0.963-2.026-0.329-2.966L28.063,69.464z"/>
			<path fill="#8C2A2A" d="M23.198,53.969c0,0,3.97-0.102,5.349,5.492c1.379,5.59,2.46,12.601,1.259,13.182
				c-3.601,1.751-5.88-0.295-5.88-0.295L23.198,53.969z"/>
			<path fill="#A83939" d="M24.383,54.204c-0.677-0.28-1.437-0.314-2.139-0.114c-3.38,0.946-16.08,4.59-18.171,6.333
				c-2.417,2.021,3.625,13.36,3.54,17.083c-0.084,3.717-0.517,8.1-0.853,12.146c-0.335,4.041-0.792,6.258,2.594,7.973
				c3.386,1.721,9.167,1.8,13.5-1.419c4.326-3.22,3.545-5.423,3.363-7.758c-0.182-2.341-1.652-12.451-1.527-15.316
				c0,0,1.527-1.096,2.655-2.982c1.129-1.881-0.866-5.343-1.694-7.588c-0.827-2.247,0.468-4.818,0.212-6.652
				C25.721,54.96,25.104,54.503,24.383,54.204z"/>
			<path fill="#FFFFFF" d="M20.323,58.072c0.267,2.04-1.651,3.965-4.286,4.289c-2.632,0.336-4.987-1.056-5.253-3.101
				c-0.267-2.039,1.652-3.974,4.285-4.295C17.703,54.636,20.057,56.021,20.323,58.072z"/>
			<path fill="#FFC2B0" d="M18.962,58.244c0.195,1.462-1.179,2.83-3.06,3.068c-1.881,0.235-3.569-0.756-3.755-2.22
				c-0.194-1.458,1.179-2.831,3.059-3.072C17.084,55.788,18.771,56.783,18.962,58.244z"/>
			<path fill="#FFC2B0" d="M17.09,53.447c0,0-2.292-1.842-2.743-0.91c-0.452,0.923-0.82,4.933-0.82,4.933l4.554,1.193l-0.689-4.059
				C17.388,54.61,18.301,53.854,17.09,53.447z"/>
			<path fill="#FFC2B0" d="M24.204,49.058c-0.222,3.66-3.435,6.454-7.189,6.233c-3.749-0.217-6.606-3.355-6.384-7.021
				c0.224-3.658,3.437-6.448,7.186-6.231C21.568,42.257,24.427,45.402,24.204,49.058z"/>
			<path fill="#EA9C92" d="M14.029,53.695c-0.039,0.206-0.078,0.433-0.111,0.661c0.458,2.313,3.993,3.319,3.993,3.319l-0.523-3.068
				c0,0,0.429-0.353,0.312-0.709C16.294,53.47,14.533,53.086,14.029,53.695z"/>
			<path fill="#FFC2B0" d="M24.204,49.058c-0.222,3.66-3.435,6.454-7.189,6.233c-3.749-0.217-6.606-3.355-6.384-7.021
				c0.224-3.658,3.437-6.448,7.186-6.231C21.568,42.257,24.427,45.402,24.204,49.058z"/>
			<polygon fill="#FFC2B0" points="0.669,76.77 1.435,94.529 4.088,94.797 5.823,78.813 			"/>
			<path fill="#8C2A2A" d="M9.407,75.282C8.528,71.496,6.792,63.11,6.792,63.11l-0.741,8.335c0.856,2.471,1.597,4.745,1.562,6.057
				c-0.05,2.182-0.222,4.594-0.419,7.03v0.007C7.19,84.542,10.29,79.074,9.407,75.282z"/>
			<path fill="#A83939" d="M4.579,60.062c0,0-2.125,0.787-3.33,7.173c-1.205,6.377-2.103,12.767,0.04,13.587
				c2.145,0.82,3.938,1.441,4.571-0.266c0.634-1.707,1.022-9.931,1.101-12.878C7.042,64.718,7.155,60.646,4.579,60.062z"/>
			<path fill="#FFC2B0" d="M38.506,82.613c0,0,1.151,0.412,1.983,1.303c0.683,0.725,1.053,1.34,1.355,1.777
				c0.663,0.968,1.221,3.051,0.816,3.311c-0.404,0.262-2.712-3.494-3.087-2.615c-0.371,0.875,0.006,1.676-0.475,1.688
				c-0.479,0.013-2.137-3.771-3.441-4.941C34.354,81.959,38.506,82.613,38.506,82.613z"/>
		</g>
		<path fill="#F79A9A" d="M15.705,140.329c0,0,0.634-0.015,1.454-0.153l0,0l0.999-39.044L15.705,140.329z"/>
	</g>
	<path fill="#FFC2B0" d="M1.45,94.378c0,0-0.703,4.146-0.599,5.479c0.108,1.332,0.833,3.521,1.385,3.472
		c0.551-0.05,0.015-5.345,0.984-4.815c0.969,0.531,1.072,1.432,1.511,1.112c0.439-0.317-0.766-4.841-0.446-6.804
		C4.619,90.857,1.45,94.378,1.45,94.378z"/>
	<path fill="#EA9C92" d="M20.031,49.249c3.408,1.182,4.077,0.46,4.104,0.42c0.029-0.207,0.06-0.407,0.069-0.614
		c0.047-0.733-0.04-1.445-0.228-2.119l-8.848-1.166C15.131,45.77,16.527,48.036,20.031,49.249z"/>
	<path fill="#750404" d="M24.452,42.447c-0.802-0.677-3.707-3.998-8.897-3.212c-3.249,0.493-5.986,2.656-6.59,7.587
		c-0.411,3.322,0.837,6.601,3.141,9.021c0.126-0.061,0.258-0.108,0.371-0.185c1.301-0.831,1.442-1.296,1.442-1.302l0.284-2.516
		c-0.009-0.353-0.284-0.674-0.652-0.699c-0.285-0.019-0.626-0.146-0.949-0.572c-0.747-0.946-0.406-2.432,1.087-2.493
		c0.781-0.029,1.083-0.442,1.191-0.829c0.098-0.337,0.461-0.528,0.798-0.401c1.699,0.597,5.881,1.893,8.574,1.15
		C27.701,47.044,25.254,43.123,24.452,42.447z"/>
	<path fill="#FFFFFF" d="M20.574,52.247l2.081-0.559c0,0-0.991,1.527-2.438,1.918c-1.445,0.388-1.674-0.813-1.674-0.813
		L20.574,52.247z"/>
</g>
<g>
	<path opacity="0.5" fill="#E5C3C3" enable-background="new    " d="M59.239,181.552l-20.201-12.103
		c-1.238-0.744-1.083-2.039,0.349-2.899l19.506-11.684c1.432-0.86,3.596-0.953,4.84-0.206l20.202,12.102
		c1.241,0.744,1.083,2.04-0.351,2.898l-19.505,11.688C62.647,182.199,60.481,182.301,59.239,181.552z"/>
	<g>
		<path fill="#771818" d="M90.628,157.545L90.628,157.545v-9.055l-19.568-0.01l-6.766-4.049c-1.553-0.932-4.264-0.82-6.061,0.262
			l-6.311,3.772l-19.591-0.008v9.313c-0.048,0.623,0.294,1.231,1.038,1.685l25.297,15.149c1.552,0.93,4.264,0.819,6.061-0.26
			l24.427-14.631C90.191,159.098,90.688,158.294,90.628,157.545z"/>
		<path fill="#9E2525" d="M61.487,143.803c-1.134,0.031-2.313,0.324-3.251,0.885l-6.31,3.779l-19.592-0.014v9.313
			c-0.048,0.627,0.294,1.233,1.038,1.686l25.297,15.15c0.746,0.45,1.762,0.653,2.809,0.619v-31.418H61.487L61.487,143.803z"/>
		<path fill="#C13030" d="M34.557,148.459H32.34v9.313c-0.047,0.625,0.294,1.232,1.039,1.686l1.175,0.705V148.46L34.557,148.459
			L34.557,148.459z"/>
		<path fill="#991616" d="M59.064,174.805c1.338,0.598,3.276,0.563,4.837-0.063V164.17h-4.837V174.805z"/>
		<path fill="#891B1B" d="M58.675,165.329l-25.296-15.147c-1.553-0.928-1.358-2.554,0.431-3.627l24.426-14.631
			c1.791-1.074,4.504-1.185,6.06-0.258l25.296,15.148c1.554,0.928,1.358,2.554-0.431,3.633l-24.426,14.628
			C62.938,166.141,60.228,166.262,58.675,165.329z"/>
		<path fill="#6B1515" d="M59.133,162.598l-21.2-12.695c-1.301-0.781-1.138-2.141,0.367-3.041L58.768,134.6
			c1.505-0.896,3.775-1.002,5.073-0.218l21.201,12.699c1.3,0.778,1.137,2.138-0.368,3.038L64.206,162.38
			C62.705,163.284,60.431,163.38,59.133,162.598z"/>
		<g>
			<path fill="#A83939" d="M81.329,159.939c0,0.672-0.457,1.492-1.022,1.83c-0.563,0.336-1.021,0.067-1.021-0.611
				c0-0.674,0.458-1.491,1.021-1.832C80.872,158.984,81.329,159.266,81.329,159.939z"/>
			<path fill="#A83939" d="M84.615,157.971c0,0.674-0.458,1.491-1.018,1.829c-0.566,0.341-1.023,0.069-1.023-0.61
				c0-0.674,0.457-1.49,1.023-1.828C84.154,157.018,84.615,157.294,84.615,157.971z"/>
			<path fill="#A83939" d="M87.9,156c0,0.674-0.458,1.494-1.021,1.832c-0.565,0.341-1.02,0.066-1.02-0.611
				c0-0.674,0.457-1.494,1.02-1.83C87.441,155.048,87.9,155.326,87.9,156z"/>
		</g>
	</g>
	<g>
		<path fill="#771818" d="M90.628,142.863L90.628,142.863v-9.055l-19.568-0.013l-6.766-4.052c-1.553-0.926-4.264-0.814-6.061,0.261
			l-6.311,3.779l-19.591-0.013v9.315c-0.048,0.625,0.294,1.235,1.038,1.688l25.297,15.15c1.552,0.927,4.264,0.813,6.061-0.261
			l24.427-14.631C90.191,144.413,90.688,143.609,90.628,142.863z"/>
		<path fill="#9E2525" d="M61.487,129.122c-1.134,0.024-2.313,0.323-3.251,0.877l-6.31,3.778l-19.592-0.012v9.315
			c-0.048,0.626,0.294,1.235,1.038,1.687l25.297,15.151c0.746,0.451,1.762,0.646,2.809,0.619V129.12L61.487,129.122L61.487,129.122z
			"/>
		<path fill="#C13030" d="M34.557,133.771H32.34v9.316c-0.047,0.625,0.294,1.235,1.039,1.688l1.175,0.705v-11.709H34.557z"/>
		<path fill="#991616" d="M59.064,160.117c1.338,0.6,3.276,0.564,4.837-0.061v-10.573h-4.837V160.117z"/>
		<path fill="#891B1B" d="M58.675,150.639L33.379,135.49c-1.553-0.929-1.358-2.556,0.431-3.628l24.426-14.635
			c1.791-1.076,4.504-1.185,6.06-0.256l25.296,15.146c1.554,0.931,1.358,2.557-0.431,3.625l-24.426,14.63
			C62.938,151.458,60.228,151.573,58.675,150.639z"/>
		<path fill="#6B1515" d="M59.133,147.914l-21.2-12.696c-1.301-0.782-1.138-2.141,0.367-3.038l20.468-12.267
			c1.505-0.894,3.775-1,5.073-0.212l21.201,12.691c1.3,0.779,1.137,2.143-0.368,3.045l-20.469,12.26
			C62.705,148.593,60.431,148.693,59.133,147.914z"/>
		<g>
			<path fill="#A83939" d="M81.329,145.253c0,0.673-0.457,1.499-1.022,1.835c-0.563,0.333-1.021,0.063-1.021-0.613
				c0-0.678,0.458-1.498,1.021-1.832C80.872,144.298,81.329,144.57,81.329,145.253z"/>
			<path fill="#A83939" d="M84.615,143.282c0,0.674-0.458,1.5-1.018,1.836c-0.566,0.337-1.023,0.063-1.023-0.61
				c0-0.68,0.457-1.499,1.023-1.835C84.154,142.329,84.615,142.609,84.615,143.282z"/>
			<path fill="#A83939" d="M87.9,141.313c0,0.674-0.458,1.5-1.021,1.836c-0.565,0.338-1.02,0.063-1.02-0.611
				c0-0.678,0.457-1.497,1.02-1.833C87.441,140.359,87.9,140.641,87.9,141.313z"/>
		</g>
	</g>
	<g>
		<path fill="#771818" d="M90.628,128.176L90.628,128.176v-9.057l-19.568-0.014l-6.766-4.049c-1.553-0.929-4.264-0.816-6.061,0.26
			l-6.311,3.779l-19.591-0.013v9.313c-0.048,0.625,0.294,1.238,1.038,1.688l25.297,15.15c1.552,0.924,4.264,0.815,6.061-0.26
			l24.427-14.635C90.191,129.727,90.688,128.925,90.628,128.176z"/>
		<path fill="#9E2525" d="M61.487,114.436c-1.134,0.03-2.313,0.326-3.251,0.879l-6.31,3.779l-19.592-0.013v9.312
			c-0.048,0.629,0.294,1.24,1.038,1.688l25.297,15.151c0.746,0.447,1.762,0.647,2.809,0.615v-31.421h0.009V114.436z"/>
		<path fill="#C13030" d="M34.557,119.091H32.34v9.313c-0.047,0.628,0.294,1.234,1.039,1.684l1.175,0.705v-11.702H34.557z"/>
		<path fill="#991616" d="M59.064,145.438c1.338,0.599,3.276,0.563,4.837-0.059v-10.578h-4.837V145.438z"/>
		<path fill="#9E2525" d="M58.675,135.957l-25.296-15.15c-1.553-0.925-1.358-2.551,0.431-3.625l24.426-14.63
			c1.791-1.073,4.504-1.188,6.06-0.261l25.296,15.15c1.554,0.927,1.358,2.552-0.431,3.625l-24.426,14.632
			C62.938,136.771,60.228,136.886,58.675,135.957z"/>
		<path fill="#A83939" d="M89.156,119.288l-24.427,14.63c-1.792,1.073-4.502,1.188-6.061,0.257l-25.297-15.147
			c-0.349-0.207-0.601-0.449-0.777-0.717c-0.538,0.893-0.293,1.854,0.777,2.496l25.297,15.15c1.552,0.929,4.263,0.813,6.061-0.259
			l24.427-14.632c1.391-0.832,1.816-1.998,1.206-2.912C90.124,118.559,89.718,118.948,89.156,119.288z"/>
		<g>
			<path fill="#A83939" d="M81.329,130.564c0,0.672-0.457,1.492-1.022,1.828c-0.563,0.338-1.021,0.063-1.021-0.609
				c0-0.68,0.458-1.499,1.021-1.832C80.872,129.617,81.329,129.891,81.329,130.564z"/>
			<path fill="#A83939" d="M84.615,128.602c0,0.674-0.458,1.492-1.018,1.83c-0.566,0.34-1.023,0.069-1.023-0.606
				c0-0.677,0.457-1.496,1.023-1.833C84.154,127.648,84.615,127.922,84.615,128.602z"/>
			<path fill="#A83939" d="M87.9,126.632c0,0.675-0.458,1.493-1.021,1.83c-0.565,0.336-1.02,0.067-1.02-0.61
				c0-0.674,0.457-1.492,1.02-1.828C87.441,125.68,87.9,125.952,87.9,126.632z"/>
		</g>
		<g>
			<path fill="#771818" d="M60.167,126.968l-11.837-7.09c-0.727-0.438-0.634-1.196,0.203-1.698l11.431-6.845
				c0.84-0.506,2.109-0.561,2.833-0.124l11.838,7.089c0.725,0.441,0.634,1.194-0.204,1.693l-11.43,6.848
				C62.164,127.348,60.897,127.4,60.167,126.968z"/>
			<path fill="#A83939" d="M61.302,121.027l-1.634-0.978c-0.103-0.063-0.083-0.169,0.029-0.235l1.58-0.946
				c0.113-0.072,0.291-0.083,0.392-0.021l1.633,0.979c0.103,0.063,0.084,0.165-0.029,0.237l-1.58,0.946
				C61.574,121.079,61.407,121.086,61.302,121.027z"/>
			<path fill="#A83939" d="M48.336,119.878l0.034,0.017c0.059-0.041,0.11-0.078,0.173-0.123l11.43-6.849
				c0.838-0.499,2.11-0.553,2.834-0.128l11.804,7.077c0.668-0.495,0.708-1.175,0.033-1.578l-11.837-7.09
				c-0.724-0.439-1.996-0.378-2.834,0.125l-11.43,6.844C47.696,118.682,47.604,119.439,48.336,119.878z"/>
		</g>
	</g>
	<path fill="#A83939" d="M51.116,152.559l-10.243-6.139c-0.632-0.374-1.146-1.391-1.146-2.262l0,0c0-0.876,0.514-1.275,1.146-0.896
		l10.243,6.133c0.633,0.381,1.147,1.397,1.147,2.262l0,0C52.258,152.531,51.743,152.932,51.116,152.559z"/>
	<path fill="#7A1313" d="M52.029,151.975l-10.243-6.139c-0.633-0.375-1.147-1.395-1.147-2.262c0-0.153,0.016-0.279,0.048-0.4
		c-0.547-0.201-0.964,0.19-0.964,0.984c0,0.878,0.515,1.888,1.145,2.262l10.245,6.139c0.524,0.312,0.963,0.082,1.094-0.504
		C52.154,152.031,52.091,152.005,52.029,151.975z"/>
</g>
<g>
	<path fill="#9E2525" d="M55.956,68.408l-2.639-1.563v0.007c-0.243-0.2-0.571-0.21-0.94,0.006L34.297,77.69
		c-0.719,0.433-1.308,1.588-1.308,2.578v31.394c0,1.713,0.883,3.288,2.313,4.146l0.404,0.241l0.263-3.399l17.712-10.611V68.91
		l0.347,1.957L55.956,68.408z"/>
	<path fill="#9E2525" d="M53.317,66.84L53.317,66.84c-0.236-0.193-0.571-0.207-0.94,0.013l-18.08,10.831
		c-0.425,0.254-0.794,0.756-1.033,1.328l20.42,12.229V68.904l0.347,1.959l1.927-2.451L53.317,66.84z"/>
	<path fill="#BA2F2F" d="M37.042,82.489l2.042-1.224l-5.274-3.156c-0.438,0.508-0.751,1.258-0.802,1.963L37.042,82.489z"/>
	<path fill="#771818" d="M56.392,103.646l-20.691,12.4V81.891c0-0.998,0.58-2.154,1.304-2.586l18.083-10.832
		c0.718-0.433,1.304,0.024,1.304,1.022V103.646z"/>
</g>
<path fill="#D65151" d="M43.945,112.045c0,0.604-0.404,0.846-0.912,0.547c-0.501-0.305-0.912-1.036-0.912-1.638
	c0-0.604,0.41-0.848,0.912-0.547C43.541,110.712,43.945,111.44,43.945,112.045z"/>
<polygon fill="#D65151" points="39.35,112.172 42.372,110.354 43.717,112.63 40.687,114.453 "/>
<path fill="#9E2525" d="M40.947,113.844c0,0.604-0.406,0.846-0.913,0.547c-0.502-0.307-0.913-1.035-0.913-1.64
	c0-0.604,0.404-0.845,0.913-0.547C40.535,112.51,40.947,113.241,40.947,113.844z"/>
<path fill="#771818" d="M40.504,113.577c0,0.315-0.209,0.438-0.467,0.284c-0.263-0.15-0.468-0.532-0.468-0.844
	c0-0.314,0.211-0.438,0.468-0.285C40.291,112.891,40.504,113.271,40.504,113.577z"/>
<path fill="#D65151" d="M54.531,105.843c0,0.606-0.413,0.848-0.912,0.543c-0.502-0.299-0.913-1.036-0.913-1.637
	c0-0.606,0.404-0.849,0.913-0.543C54.125,104.511,54.531,105.241,54.531,105.843z"/>
<polygon fill="#D65151" points="49.934,105.966 52.956,104.154 54.302,106.438 51.271,108.25 "/>
<path fill="#9E2525" d="M51.527,107.644c0,0.604-0.406,0.849-0.912,0.541c-0.502-0.3-0.913-1.033-0.913-1.635
	c0-0.604,0.404-0.851,0.913-0.545C51.121,106.311,51.527,107.043,51.527,107.644z"/>
<path fill="#771818" d="M51.088,107.383c0,0.312-0.21,0.437-0.467,0.28c-0.257-0.153-0.466-0.534-0.466-0.846
	c0-0.314,0.209-0.441,0.466-0.285C50.878,106.688,51.088,107.063,51.088,107.383z"/>
<path opacity="0.5" fill="#E5C3C3" enable-background="new    " d="M231.01,158.854l-15.009-8.987
	c-0.925-0.549-0.802-1.514,0.257-2.15l14.487-8.683c1.073-0.642,2.677-0.704,3.595-0.151l15.01,8.989
	c0.924,0.546,0.803,1.511-0.258,2.149l-14.494,8.683C233.537,159.34,231.936,159.406,231.01,158.854z"/>
<g>
	<path fill="#771818" d="M261.98,131.885L261.98,131.885v-9.059l-19.57-0.012l-6.768-4.049c-1.543-0.927-4.259-0.817-6.055,0.262
		l-6.313,3.779l-19.596-0.013v9.313c-0.044,0.623,0.301,1.232,1.043,1.683l25.295,15.151c1.549,0.929,4.26,0.817,6.063-0.26
		l24.425-14.631C261.54,133.428,262.042,132.629,261.98,131.885z"/>
	<path fill="#9E2525" d="M232.833,118.139c-1.132,0.028-2.313,0.324-3.243,0.883l-6.314,3.773l-19.594-0.01v9.313
		c-0.045,0.627,0.299,1.235,1.043,1.688l25.293,15.148c0.746,0.453,1.762,0.65,2.809,0.621v-31.42h0.009L232.833,118.139
		L232.833,118.139z"/>
	<path fill="#DD5050" d="M205.907,122.792h-2.222v9.315c-0.043,0.623,0.301,1.232,1.043,1.683l1.17,0.707v-11.705H205.907z"/>
	<path fill="#B72A2A" d="M230.409,149.141c1.341,0.598,3.282,0.559,4.844-0.063v-10.574h-4.844V149.141z"/>
	<path fill="#E6573F" d="M230.021,139.664l-25.293-15.15c-1.554-0.931-1.36-2.558,0.434-3.625l24.428-14.63
		c1.793-1.079,4.502-1.188,6.059-0.261l25.293,15.15c1.553,0.928,1.36,2.554-0.434,3.625l-24.423,14.629
		C234.292,140.475,231.573,140.589,230.021,139.664z"/>
	<g>
		<path fill="#DD5050" d="M252.677,134.271c0,0.674-0.456,1.496-1.019,1.832c-0.561,0.334-1.024,0.063-1.024-0.611
			c0-0.678,0.459-1.494,1.024-1.834C252.221,133.324,252.677,133.594,252.677,134.271z"/>
		<path fill="#DD5050" d="M255.967,132.305c0,0.674-0.455,1.492-1.021,1.829c-0.563,0.337-1.016,0.064-1.016-0.608
			c0-0.68,0.456-1.493,1.016-1.834C255.508,131.357,255.967,131.624,255.967,132.305z"/>
		<path fill="#DD5050" d="M259.256,130.332c0,0.673-0.456,1.496-1.021,1.833c-0.563,0.334-1.018,0.063-1.018-0.613
			c0-0.676,0.459-1.491,1.018-1.833C258.793,129.386,259.256,129.658,259.256,130.332z"/>
	</g>
</g>
<path fill="#F78D8D" d="M220.061,133.688l9.963,5.967c1.552,0.935,4.271,0.82,6.064-0.258l17.727-10.619l0.115-0.139l-14.306-8.221
	L220.061,133.688z"/>
<polygon fill="#B72A2A" points="224.157,136.145 224.157,145.424 220.452,143.236 218.757,134.242 221.652,134.648 "/>
<polygon fill="#DD5050" points="212.119,138.216 213.014,138.752 214.77,130.057 213.674,129.563 210.313,130.752 "/>
<path opacity="0.5" fill="#E5C3C3" enable-background="new    " d="M213,153.459c8.027,0,14.537,3.9,14.537,8.714
	s-6.51,8.712-14.537,8.712c-8.032,0-14.542-3.898-14.542-8.712S204.968,153.459,213,153.459z"/>
<path fill="#FFFFFF" d="M228.257,74.164l-1.681-0.479c0,0,0.802,1.312,1.979,1.645c1.176,0.34,1.358-0.697,1.358-0.697
	L228.257,74.164z"/>
<g>
	<path fill="#E6573F" d="M105.499,68.437c-8.555-5.117-22.419-5.117-30.975,0c-8.556,5.125-8.552,13.434,0,18.555
		c8.556,5.119,22.42,5.119,30.975,0C114.048,81.87,114.048,73.567,105.499,68.437z M89.479,77.893c-2.202,1.322-5.77,1.322-7.964,0
		c-2.201-1.316-2.201-3.455,0-4.771c2.2-1.32,5.769-1.32,7.964,0C91.678,74.444,91.678,76.575,89.479,77.893z"/>
	<path fill="#E8B3B3" d="M110.114,82.881c-1.143,1.176-2.555,2.286-4.242,3.297c-1.689,1.016-3.542,1.861-5.512,2.541l4.188,2.51
		l6.311,0.338l3.123,1.867l-1.27,0.762l2.364,1.41l2.549-1.524l4.125,2.471l-4.151,2.488l3.05,1.832l2.957,1.772l3.684-2.205
		l5.461,3.267l-2.089,1.251l3.507,2.101l2.087-1.249l1.646,0.987l-1.657,3.428l5.304,3.177h19.501L110.114,82.881z"/>
</g>
<g>
	<path fill="#771818" d="M111.909,75.911v-6.143l-1.745,1.022c-1.066-1.506-2.622-2.917-4.668-4.145
		c-8.557-5.121-22.419-5.121-30.975,0c-2.375,1.419-4.083,3.087-5.142,4.862l-1.277-1.74v6.143
		c-0.005,3.359,2.133,6.727,6.412,9.288c8.555,5.12,22.419,5.12,30.975,0C109.777,82.639,111.915,79.271,111.909,75.911z
		 M89.405,71.909c-2.201,1.32-5.769,1.32-7.961,0c-2.201-1.319-2.201-3.456,0-4.771c2.2-1.322,5.769-1.322,7.961,0
		C91.6,68.459,91.6,70.59,89.405,71.909z"/>
	<path fill="#992020" d="M88.174,80.759l-9.452-4.835l-8.397-5.756c-0.36,0.438-0.671,0.89-0.946,1.347l-1.277-1.739v6.142
		c-0.005,3.361,2.133,6.729,6.412,9.288c3.807,2.28,8.674,3.539,13.65,3.797V80.76L88.174,80.759L88.174,80.759z"/>
	<path fill="#E56A6A" d="M105.499,60.486c-8.555-5.12-22.419-5.12-30.975,0c-8.556,5.12-8.552,13.43,0,18.557
		c8.556,5.117,22.42,5.117,30.975,0C114.048,73.916,114.048,65.619,105.499,60.486z M89.479,69.946c-2.202,1.317-5.77,1.317-7.964,0
		c-2.201-1.315-2.201-3.456,0-4.771c2.2-1.321,5.769-1.321,7.964,0C91.678,66.49,91.678,68.624,89.479,69.946z"/>
	<path fill="#771818" d="M93.77,63.732H81.885c-1.088,0.261-2.146,0.579-3.163,0.941v10.449H93.77V63.732z M89.405,71.909
		c-2.201,1.32-5.769,1.32-7.961,0c-2.201-1.319-2.201-3.456,0-4.771c2.2-1.322,5.769-1.322,7.961,0
		C91.6,68.459,91.6,70.59,89.405,71.909z"/>
	<path fill="#A83939" d="M103.662,61.585c-7.545-4.516-19.766-4.516-27.304,0c-7.541,4.523-7.541,11.842,0,16.353
		c7.542,4.523,19.762,4.523,27.304,0C111.194,73.427,111.194,66.108,103.662,61.585z M89.479,69.946
		c-2.202,1.317-5.77,1.317-7.964,0c-2.201-1.315-2.201-3.456,0-4.771c2.2-1.321,5.769-1.321,7.964,0
		C91.678,66.49,91.678,68.624,89.479,69.946z"/>
	<path fill="#771818" d="M76.358,63.288c7.542-4.521,19.762-4.521,27.304,0c3.407,2.039,5.272,4.656,5.594,7.324
		c0.392-3.232-1.464-6.549-5.594-9.021c-7.545-4.517-19.766-4.517-27.304,0c-4.134,2.475-5.992,5.788-5.597,9.021
		C71.084,67.944,72.95,65.333,76.358,63.288z"/>
	<g>
		<path fill="#992020" d="M110.114,81.041c-1.143,1.175-2.555,2.287-4.242,3.301c-1.689,1.014-3.542,1.855-5.512,2.534l4.188,2.51
			l6.311,0.337l3.123,1.867l-1.27,0.764l2.364,1.416l2.549-1.528l4.125,2.472l-4.151,2.487l3.05,1.827l2.957,1.774l3.684-2.211
			l5.461,3.274l-2.089,1.249l3.507,2.103l2.087-1.252l1.646,0.991l-1.657,3.425l5.304,3.175h19.501L110.114,81.041z"/>
		<path fill="#E56A6A" d="M110.114,76.597c-1.143,1.178-2.555,2.293-4.242,3.307c-1.689,1.011-3.542,1.853-5.512,2.531l4.188,2.51
			l6.311,0.336l3.123,1.869l-1.27,0.762l2.364,1.417l2.549-1.527l4.125,2.474l-4.151,2.484l3.05,1.826l2.957,1.77l3.684-2.207
			l5.461,3.271l-2.089,1.249l3.507,2.104l2.087-1.252l1.646,0.991l-1.657,3.425l5.304,3.175h19.501L110.114,76.597z"/>
		<rect x="141.555" y="107.108" fill="#771818" width="19.501" height="4.44"/>
		<polygon fill="#771818" points="134.175,105.21 134.175,100.775 136.261,99.518 136.261,103.965 		"/>
		<polygon fill="#771818" points="130.666,98.673 130.666,103.109 134.175,105.21 134.175,100.775 		"/>
		<polygon fill="#771818" points="127.294,94.15 127.294,98.591 123.606,100.798 123.606,96.357 		"/>
		<polygon fill="#771818" points="117.603,92.759 117.603,97.206 123.606,100.798 123.606,96.357 		"/>
		<polygon fill="#771818" points="136.261,103.965 136.251,108.368 141.555,111.55 141.555,107.108 		"/>
		<polygon fill="#771818" points="115.072,89.335 115.072,93.771 112.712,92.354 112.712,87.911 		"/>
		<polygon fill="#771818" points="104.554,84.943 104.554,89.386 110.865,89.723 110.865,85.279 		"/>
		<polygon fill="#771818" points="147.749,103.965 110.456,81.609 112.524,80.364 151.871,103.953 		"/>
		<polygon fill="#AD2828" points="112.524,81.438 150.083,103.959 151.871,103.953 112.524,80.364 110.456,81.609 111.351,82.145 		
			"/>
		<polygon fill="#771818" points="104.554,89.386 104.554,84.943 100.366,82.436 100.366,86.876 		"/>
		<polygon fill="#771818" points="117.621,87.805 117.621,92.24 115.072,93.771 115.072,89.335 		"/>
	</g>
	<path fill="#992020" d="M103.662,61.585c-4.237-2.534-9.956-3.646-15.481-3.332v1.7c5.536-0.317,11.245,0.794,15.481,3.332
		c3.407,2.039,5.272,4.659,5.594,7.324C109.651,67.38,107.79,64.069,103.662,61.585z"/>
</g>
<path fill="#A83939" d="M48.056,92.828l0.003-1.963c0-0.117-0.09-0.159-0.209-0.092l-1.586,0.947
	c-0.113,0.065-0.21,0.219-0.21,0.338l-0.006,1.967c0,0.115,0.09,0.16,0.209,0.093l1.583-0.946
	C47.958,93.104,48.056,92.949,48.056,92.828z"/>
<g>
	<path opacity="0.5" fill="#E5C3C3" enable-background="new    " d="M118.784,199.732l-18.396-11.106
		c-1.549-0.933-1.358-2.558,0.431-3.626l17.537-10.6c1.789-1.076,4.505-1.187,6.059-0.256l18.396,11.104
		c1.55,0.929,1.358,2.554-0.431,3.632l-17.536,10.599C123.049,200.54,120.333,200.661,118.784,199.732z"/>
	<path fill="#771818" d="M143.848,176.195L143.848,176.195v-3.828l-19.57-0.014l0.135-0.004c-1.548-0.931-4.264-0.816-6.059,0.26
		l0.583-0.248l-19.591-0.012v4.08c-0.048,0.622,0.296,1.234,1.037,1.684l18.394,11.111c1.552,0.928,4.263,0.813,6.061-0.262
		l17.533-10.604C143.407,177.74,143.91,176.938,143.848,176.195z"/>
	<path fill="#A83939" d="M121.606,171.73c-1.134,0.031-2.313,0.326-3.25,0.883l0.583-0.25l-19.591-0.012v4.082
		c-0.048,0.627,0.298,1.233,1.039,1.688l18.393,11.104c0.748,0.451,1.762,0.65,2.809,0.618L121.606,171.73z"/>
	<path fill="#E8B3B3" d="M101.564,172.35h-2.217v4.082c-0.048,0.623,0.298,1.234,1.039,1.685l1.176,0.704v-6.467h0.003
		L101.564,172.35L101.564,172.35z"/>
	<path fill="#872727" d="M119.17,189.416c1.339,0.598,3.276,0.564,4.836-0.057v-5.349h-4.836V189.416z"/>
	<path fill="#E6573F" d="M118.784,185.172l-18.396-11.109c-1.549-0.926-1.358-2.551,0.431-3.629l17.537-10.596
		c1.789-1.08,4.505-1.188,6.059-0.26l18.396,11.104c1.55,0.928,1.358,2.555-0.431,3.629l-17.536,10.597
		C123.049,185.986,120.333,186.105,118.784,185.172z"/>
</g>
<g>
	<path opacity="0.5" fill="#E5C3C3" enable-background="new    " d="M33.007-24.753L14.613-35.854
		c-1.55-0.929-1.356-2.556,0.434-3.629l17.534-10.598c1.791-1.076,4.505-1.188,6.061-0.259l18.394,11.106
		c1.553,0.931,1.358,2.556-0.433,3.627L39.068-25.01C37.274-23.937,34.563-23.822,33.007-24.753z"/>
	<path fill="#771818" d="M58.077-47.378L58.077-47.378v-3.825l-19.57-0.013l0.135-0.008c-1.55-0.926-4.263-0.816-6.061,0.261
		l0.58-0.247L13.57-51.224v4.083c-0.042,0.625,0.298,1.235,1.038,1.686l18.395,11.107c1.552,0.926,4.263,0.817,6.06-0.26
		l17.534-10.598C57.637-45.83,58.133-46.627,58.077-47.378z"/>
	<path fill="#A83939" d="M35.826-51.838c-1.135,0.03-2.313,0.326-3.25,0.881l0.584-0.247l-19.591-0.013v4.078
		c-0.045,0.628,0.295,1.236,1.038,1.688l18.398,11.108c0.745,0.448,1.762,0.649,2.808,0.621L35.826-51.838z"/>
	<path fill="#E8B3B3" d="M15.792-51.216h-2.22v4.078c-0.042,0.628,0.298,1.236,1.039,1.688l1.175,0.702v-6.469L15.792-51.216
		L15.792-51.216z"/>
	<path fill="#872727" d="M33.399-34.15c1.339,0.599,3.276,0.563,4.841-0.057v-5.342h-4.841V-34.15z"/>
	<path fill="#E54141" d="M33.007-38.394L14.613-49.502c-1.55-0.931-1.356-2.557,0.434-3.627l17.534-10.596
		c1.791-1.077,4.505-1.191,6.061-0.26l18.391,11.102c1.552,0.93,1.358,2.557-0.433,3.63L39.065-38.658
		C37.274-37.584,34.563-37.466,33.007-38.394z"/>
</g>
<g>
	<g>
		<path fill="#CC5858" d="M218.322,158.104c0,0-2.192-1.192-3.541,0.584c-1.346,1.774-3.272,5.978-3.33,8.807
			c-0.059,2.833,2.074,2.645,3.345,1.979c1.271-0.668,4.981-6.48,5.203-7.625c0.222-1.141-0.26-2.681-0.621-2.979
			C219.025,158.566,218.322,158.104,218.322,158.104z"/>
		<path fill="#E6573F" d="M218.8,157.539l0.104,2.452c0.02,0.521-0.223,1.015-0.643,1.274c-0.388,0.235-0.943,0.414-1.697,0.286
			c-1.652-0.286-1.801-0.801-1.914-3.245C214.537,155.852,218.8,157.539,218.8,157.539z"/>
		<g>
			<path fill="#CC5858" d="M210.294,153.389c0,0-2.192-1.193-3.54,0.586c-1.346,1.778-3.27,5.979-3.33,8.812
				c-0.063,2.825,2.072,2.646,3.344,1.971c1.273-0.666,4.985-6.479,5.203-7.623c0.221-1.141-0.263-2.675-0.623-2.979
				C211.007,153.854,210.294,153.389,210.294,153.389z"/>
			<path fill="#E6573F" d="M210.777,152.824l0.098,2.453c0.025,0.52-0.221,1.015-0.643,1.273c-0.381,0.238-0.942,0.413-1.693,0.287
				c-1.65-0.287-1.803-0.801-1.913-3.247C206.51,151.141,210.777,152.824,210.777,152.824z"/>
			<path fill="#771818" d="M230.33,107.81c-0.648-11.392-11.428,1.676-11.428,1.676l-7.383,7.813l-6.646,7.885
				c-1.297,1.537-1.902,3.614-1.652,5.681l2.688,22.101c0.134,1.095,0.997,1.9,2.021,1.888c0.291,0,0.617-0.031,0.998-0.096
				c2.399-0.398,2.223-2.861,2.223-2.861l-0.488-20.668l13.955-9.084C224.616,122.134,230.98,119.209,230.33,107.81z"/>
		</g>
		<path fill="#771818" d="M238.357,112.153c-0.648-11.396-11.432,1.671-11.432,1.671l-7.381,7.813l-6.646,7.885
			c-1.297,1.537-1.899,3.621-1.648,5.684l2.688,22.103c0.133,1.092,0.998,1.896,2.021,1.883c0.291,0,0.612-0.023,0.998-0.092
			c2.399-0.402,2.224-2.861,2.224-2.861l-0.49-20.672l13.949-9.078C232.633,126.479,239.007,123.551,238.357,112.153z"/>
		<path fill="#CC5858" d="M231.977,75.568c8.172,3.663,8.01,8.875,8.01,8.875s-1.598,19.129-1.053,31.902
			c0.227,5.34-26.281,5.75-22.319-8.499c4.661-16.795,2.907-30.398,5.095-32.445C223.882,73.351,229.863,74.621,231.977,75.568z"/>
		<path fill="#FFC2B0" d="M234.605,80.191c-0.424,1.793-2.6,2.738-4.856,2.109c-2.254-0.625-3.729-2.585-3.308-4.38
			c0.422-1.791,2.6-2.738,4.854-2.112C233.55,76.445,235.032,78.4,234.605,80.191z"/>
		<path fill="#FFFFFF" d="M231.131,82.921c-0.477,0-0.979-0.065-1.479-0.206c-2.459-0.686-4.068-2.878-3.592-4.892
			c0.476-2.008,2.873-3.1,5.332-2.414c1.168,0.327,2.19,1.004,2.869,1.893c0.709,0.935,0.967,2.003,0.721,3.003
			C234.598,81.908,233.006,82.921,231.131,82.921z M229.895,76.045c-1.512,0-2.785,0.763-3.071,1.984
			c-0.368,1.561,0.983,3.302,3.022,3.867c2.043,0.57,4.012-0.244,4.385-1.807c0.179-0.732-0.03-1.533-0.573-2.249
			c-0.579-0.759-1.445-1.333-2.457-1.613C230.758,76.103,230.32,76.045,229.895,76.045z"/>
		<path fill="#FFC2B0" d="M228.701,75.174c0,0,0.064,0.356-0.068,3.151c-0.05,0.884,2.805,1.702,3.545,0.905
			c0.735-0.797,0.446-1.627,0.623-4.611C232.968,71.617,228.701,75.174,228.701,75.174z"/>
		<path fill="#EA9C92" d="M232.795,74.612c0,0-0.701,2.772-4.162,3.837l0.051-2.52L232.795,74.612z"/>
		<path fill="#FFC2B0" d="M234.982,67.563c0.869,3.628-1.15,7.337-4.512,8.278c-3.363,0.94-6.8-1.245-7.669-4.879
			c-0.875-3.631,1.151-7.338,4.515-8.278C230.684,61.751,234.116,63.93,234.982,67.563z"/>
		<path fill="#EA9C92" d="M230.336,69.515c0,0-3.466,1.601-5.867,1.619c-2.396,0.02-1.867-2.153-1.867-2.153l7.123-1.112
			L230.336,69.515z"/>
		<path fill="#771818" d="M223.759,69.934c0,0,3.017-1.386,5.664-0.801c0.625,0.133,1.2,0.496,1.604,1.025
			c0.127,0.172,0.293,0.334,0.484,0.378c0.465,0.114,1.235-1.988,2.147-2.032c0.913-0.051,1.521,0.648,0.774,1.943
			c-0.742,1.297-0.494,2.738-0.146,2.955c0.337,0.202,3.991-2.813,0.771-9.701c-3.22-6.886-11.398-3.177-12.674-1.779
			c0,0-1.342,1.259-2.432,0.134C219.95,62.043,218.732,71.928,223.759,69.934z"/>
		<path fill="#FFC2B0" d="M235.404,98.419v5.171c0,0.594-0.232,1.159-0.639,1.561l-9.832,9.686l1.11,1.838l12.991-10.163
			c0.6-0.474,0.998-1.206,1.076-2.015l0.875-9.008L235.404,98.419z"/>
		<path fill="#CC5858" d="M239.3,81.864c0,0,2.976,4.841,4.091,17.59c0,0-5.095,1.782-7.983,0.769
			C232.51,99.221,239.3,81.864,239.3,81.864z"/>
		<path fill="#A83939" d="M234.854,87.986c0,0-1.162,6.748-1.234,9.918c-0.016,0.873,0.475,1.66,1.234,1.963l0,0V87.986z"/>
	</g>
	<g>
		<path fill="#CC5858" d="M232.307,121.543l-2.166-0.307l-14.026-8.746c-0.455-0.279-1.237-0.241-1.759,0.076l-9.943,6.192
			l-1.316-0.192v1.412l0,0c-0.013,0.187,0.09,0.367,0.307,0.496l15.896,9.918c0.453,0.272,1.236,0.237,1.759-0.076l10.822-6.75
			c0.292-0.182,0.438-0.412,0.428-0.64l0,0V121.543L232.307,121.543z"/>
		<path fill="#A83939" d="M221.764,116.021l-0.996-0.619h-10.961l-5.404,3.363l-1.313-0.188v1.409l0,0
			c-0.012,0.188,0.091,0.367,0.304,0.498l15.895,9.914c0.238,0.146,0.572,0.207,0.906,0.185L221.764,116.021z"/>
		<path fill="#5793CE" d="M203.68,118.659l-0.587-0.082v1.409l0,0c-0.012,0.188,0.091,0.367,0.306,0.498l0.281,0.182V118.659z"/>
		<path fill="#FFFFFF" d="M219.454,130.477c0.43,0.178,1.036,0.133,1.494-0.103v-2.401h-1.494V130.477z"/>
		<path fill="#FFFFFF" d="M219.295,128.98l-15.896-9.91c-0.449-0.279-0.395-0.768,0.123-1.092l10.828-6.745
			c0.52-0.332,1.303-0.362,1.758-0.077l15.896,9.91c0.452,0.279,0.393,0.769-0.126,1.093l-10.821,6.747
			C220.531,129.229,219.748,129.268,219.295,128.98z"/>
		<path fill="#E6573F" d="M219.025,127.482l-13.215-8.239c-0.377-0.229-0.326-0.636,0.1-0.908l5.804-3.526
			c0.438-0.271,1.089-0.297,1.459-0.065l13.222,8.243c0.377,0.229,0.328,0.641-0.103,0.914l-5.802,3.521
			C220.055,127.691,219.398,127.719,219.025,127.482z"/>
	</g>
	<path fill="#FFC2B0" d="M214.966,110.901l-0.167,1.188c-0.146,1.01-0.113,2.033,0.076,3.037l0.189,1.042
		c0.107,0.59,0.543,1.044,1.088,1.149l0,0c0.435,0.082,0.836-0.244,0.884-0.705l0.258-2.531c0,0,0.599,0.854,0.89,0.854
		c0.293,0-0.326-2.534-0.981-3.967C216.553,109.535,214.966,110.901,214.966,110.901z"/>
	<path fill="#FFC2B0" d="M220.35,92.079l-1.703,3.646c-0.402,0.865-0.637,1.805-0.696,2.769l-0.74,12.474l-2.248-0.063L213.943,96.9
		c-0.034-0.432-0.012-0.869,0.057-1.291l1.165-7.105L220.35,92.079z"/>
	<g>
		<path fill="#771818" d="M218.764,129.936l-1.336-1.881l-14.023-8.761c-0.449-0.286-0.818-1.035-0.818-1.685l0.016-12.394
			l-0.805-1.141l0.762-0.474l0,0c0.139-0.1,0.334-0.1,0.545,0.035l15.885,9.93c0.451,0.287,0.818,1.035,0.818,1.687l-0.014,13.496
			c0,0.368-0.116,0.616-0.296,0.722l0,0L218.764,129.936z"/>
		<path fill="#A83939" d="M209.063,122.826l-0.998-0.619l-5.461-10.257l0.006-6.733l-0.81-1.137l0.761-0.471l0,0
			c0.143-0.103,0.336-0.103,0.545,0.031l15.892,9.93c0.237,0.152,0.444,0.432,0.595,0.759L209.063,122.826z"/>
		<path fill="#CC5858" d="M202.157,104.588l-0.362-0.502l0.76-0.47l0,0c0.141-0.103,0.338-0.103,0.551,0.03l0.278,0.18
			L202.157,104.588z"/>
		<path fill="#872727" d="M219.137,113.686c0.355,0.311,0.627,0.896,0.66,1.441l-1.549,0.973l-0.744-1.397L219.137,113.686z"/>
		<path fill="#CC5858" d="M218.236,114.053l-15.885-9.93c-0.453-0.285-0.814,0.014-0.814,0.661l-0.012,13.491
			c0,0.644,0.361,1.404,0.815,1.687l15.882,9.929c0.457,0.279,0.813-0.02,0.813-0.664l0.013-13.494
			C219.051,115.089,218.688,114.329,218.236,114.053z"/>
	</g>
	<path fill="#FFC2B0" d="M226.049,116.67l-0.257,0.572c-0.287,0.654-0.747,1.205-1.325,1.588l-1.58,1.052
		c-0.486,0.327-1.111,0.353-1.611,0.041c-0.02-0.013-0.039-0.022-0.051-0.034c-0.502-0.34-0.551-1.121-0.142-1.572l1.646-1.836
		c0,0-0.929,0.769-1.185,0.461c-0.192-0.227,0.897-1.332,1.733-1.365c0.842-0.042,1.646-0.747,1.646-0.747L226.049,116.67z"/>
	<path fill="#CC5858" d="M221.867,75.378c0,0-6.051,7.103-8.486,13.62c0,0,2.069,4.021,7.131,5.6
		C225.57,96.18,221.867,75.378,221.867,75.378z"/>
	<path fill="#A83939" d="M219.375,94.176l0.98-10.222l-2.308,9.573C218.456,93.764,218.902,93.973,219.375,94.176z"/>
	<path fill="#FFFFFF" d="M226.398,73.941l-1.623-0.476c0,0,0.771,1.318,1.904,1.657c1.137,0.337,1.313-0.698,1.313-0.698
		L226.398,73.941z"/>
</g>
<path fill="#CC5858" d="M268.725,190.943c-3.389,0-6.14-3.104-6.14-6.928c0-3.813,2.751-6.926,6.14-6.926
	c3.385,0,6.137,3.104,6.137,6.926C274.867,187.84,272.109,190.943,268.725,190.943z M268.725,179.227
	c-2.345,0-4.25,2.153-4.25,4.791c0,2.644,1.905,4.795,4.25,4.795c2.342,0,4.248-2.146,4.248-4.795
	C272.979,181.374,271.064,179.227,268.725,179.227z"/>
<path fill="#CC5858" d="M284.711,24.93l-4.165-9.556l8.476-4.699l4.166,9.556L284.711,24.93z M283.076,16.345l2.504,5.736
	l5.088-2.818l-2.503-5.739L283.076,16.345z"/>
<path fill="#E6573F" d="M272.979-70.095c-4.776,0-8.66-4.381-8.66-9.764c0-5.379,3.877-9.761,8.66-9.761
	c4.772,0,8.658,4.382,8.658,9.761C281.634-74.476,277.751-70.095,272.979-70.095z M272.979-87.493c-3.729,0-6.771,3.426-6.771,7.634
	c0,4.212,3.041,7.638,6.771,7.638s6.772-3.426,6.772-7.638C279.751-84.067,276.707-87.493,272.979-87.493z"/>
<g>
	<path fill="#CC5858" d="M176.254,189.387l0.957-1.832c0,0,0.809,0.495,1.658,0.196c0.689-0.241,1.281-0.944,1.77-2.083
		c1.715-4.002,4.877-4.309,6.313-3.906l-0.452,2.07l0.23-1.036l-0.219,1.036c-0.271-0.072-2.731-0.602-4.164,2.768
		c-0.729,1.699-1.723,2.778-2.942,3.198C177.768,190.343,176.4,189.492,176.254,189.387z"/>
</g>
<g>
	<polygon fill="#E6573F" points="17.843,186.387 16.503,184.88 22.854,177.727 24.188,179.227 	"/>
	<polygon fill="#E6573F" points="22.854,186.387 16.503,179.227 17.843,177.727 24.188,184.88 	"/>
</g>
<path fill="#E6573F" d="M27.072-94.73c0,2.774-1.993,5.026-4.457,5.026c-2.464,0-4.458-2.248-4.458-5.026
	c0-2.774,1.993-5.029,4.458-5.029C25.08-99.759,27.072-97.504,27.072-94.73z"/>
<polygon fill="#CC5858" points="105.143,-48.794 99.202,-45.492 96.159,-52.446 102.099,-55.747 "/>
<g>
	<polygon fill="#CC5858" points="21.787,3.798 21.379,1.991 26.028,0.647 26.439,2.458 	"/>
	<polygon fill="#CC5858" points="19.411,6.407 19,4.604 23.659,3.262 24.069,5.064 	"/>
	<polygon fill="#CC5858" points="17.042,9.017 16.629,7.214 21.282,5.868 21.693,7.672 	"/>
	<polygon fill="#CC5858" points="14.667,11.627 14.26,9.818 18.909,8.476 19.319,10.281 	"/>
</g>
</svg>
