<?xml version="1.0" encoding="utf-8"?>
<!-- Generator: Adobe Illustrator 16.0.0, SVG Export Plug-In . SVG Version: 6.00 Build 0)  -->
<!DOCTYPE svg PUBLIC "-//W3C//DTD SVG 1.1//EN" "http://www.w3.org/Graphics/SVG/1.1/DTD/svg11.dtd">
<svg version="1.1" id="Layer_1" xmlns="http://www.w3.org/2000/svg" xmlns:xlink="http://www.w3.org/1999/xlink" x="0px" y="0px"
	 width="300px" height="100px" viewBox="0 0 300 100" enable-background="new 0 0 300 100" xml:space="preserve">
<g>
	<polygon fill="#E96B56" points="102.947,63.669 102.52,63.205 104.545,61.006 104.971,61.469 	"/>
	<polygon fill="#E96B56" points="104.545,63.669 102.52,61.469 102.947,61.006 104.971,63.205 	"/>
</g>
<path fill="#E96B56" d="M196.647,39.269c0,0.853-0.637,1.545-1.422,1.545c-0.786,0-1.422-0.691-1.422-1.545
	c0-0.853,0.636-1.545,1.422-1.545C196.011,37.724,196.647,38.415,196.647,39.269z"/>
<g>
	<path fill="#CC5858" d="M177.689,97.896l0.305-0.564c0,0,0.257,0.153,0.529,0.061c0.221-0.074,0.409-0.291,0.564-0.64
		c0.547-1.231,1.556-1.325,2.014-1.202l-0.144,0.637l0.073-0.318l-0.069,0.318c-0.087-0.021-0.871-0.184-1.329,0.851
		c-0.232,0.524-0.549,0.854-0.938,0.983C178.173,98.193,177.736,97.928,177.689,97.896z"/>
</g>
<g>
	<polygon fill="#CC5858" points="191.076,9.369 190.945,8.814 192.43,8.4 192.561,8.957 	"/>
	<polygon fill="#CC5858" points="190.318,10.171 190.188,9.616 191.673,9.204 191.804,9.758 	"/>
	<polygon fill="#CC5858" points="189.563,10.973 189.431,10.418 190.914,10.005 191.045,10.56 	"/>
	<polygon fill="#CC5858" points="188.806,11.776 188.674,11.22 190.158,10.807 190.289,11.362 	"/>
</g>
<path fill="#E96B56" d="M118.598,87.93c-1.523,0-2.762-1.348-2.762-3.002s1.238-3.002,2.762-3.002s2.762,1.348,2.762,3.002
	S120.122,87.93,118.598,87.93z M118.598,82.58c-1.191,0-2.16,1.053-2.16,2.348c0,1.294,0.969,2.347,2.16,2.347
	s2.16-1.053,2.16-2.347C120.758,83.633,119.789,82.58,118.598,82.58z"/>
<polygon fill="#CC5858" points="106.196,7.618 104.338,8.611 103.424,6.593 105.282,5.598 "/>
<path fill="#E96B56" d="M154.994,3.796c0,0.497-0.369,0.898-0.825,0.898s-0.825-0.401-0.825-0.898s0.369-0.898,0.825-0.898
	S154.994,3.3,154.994,3.796z"/>
<g>
	<g>
		<rect x="143.27" y="53.946" fill="#8C8C8C" width="8.877" height="26.962"/>
	</g>
	<g>
		<path fill="#F0F0F0" d="M120.533,66.933h54.351c6.158,0,11.151-4.993,11.151-11.151V24.011c0-6.158-4.993-11.151-11.151-11.151
			h-54.351c-6.158,0-11.151,4.993-11.151,11.151v31.772C109.384,61.941,114.375,66.933,120.533,66.933z"/>
	</g>
	<g>
		<rect x="112.384" y="7.105" fill="#FFFFFF" width="70.647" height="51.355"/>
	</g>
	<g>
		<rect x="112.384" y="7.106" fill="#771818" width="70.647" height="6.202"/>
	</g>
	<g>
		<path fill="#CCCCCC" d="M174.435,62.338c0,1.365,1.302,2.473,2.907,2.473s2.907-1.107,2.907-2.473s-1.302-2.473-2.907-2.473
			S174.435,60.971,174.435,62.338z"/>
	</g>
	<rect x="127.74" y="79.891" fill="#CCCCCC" width="39.934" height="2.035"/>
	<path fill="#F5F7FF" d="M124.507,11.378h-8.266c-0.5,0-0.905-0.405-0.905-0.905V9.94c0-0.5,0.405-0.905,0.905-0.905h8.266
		c0.5,0,0.905,0.405,0.905,0.905v0.533C125.413,10.973,125.007,11.378,124.507,11.378z"/>
	<rect x="117.56" y="34.92" fill="#E6E6E6" width="36.987" height="1.271"/>
	<rect x="117.56" y="37.209" fill="#E6E6E6" width="27.435" height="1.271"/>
	<rect x="117.56" y="42.186" fill="#E6E6E6" width="17.395" height="1.271"/>
	<rect x="117.56" y="44.475" fill="#E6E6E6" width="31.251" height="1.271"/>
	<rect x="117.56" y="49.947" fill="#E6E6E6" width="29.276" height="1.271"/>
	<rect x="117.56" y="52.236" fill="#E6E6E6" width="35.749" height="1.271"/>
	<rect x="115.756" y="34.92" fill="#771818" width="0.929" height="3.562"/>
	<rect x="115.756" y="42.186" fill="#771818" width="0.929" height="3.562"/>
	<rect x="115.756" y="49.947" fill="#771818" width="0.929" height="3.563"/>
	<g>
		<g>
			<path fill="#E96B56" d="M165.931,55.111h-1.157c-1.088,0-1.968-0.883-1.968-1.968v-1.158c0-1.087,0.882-1.967,1.968-1.967h1.157
				c1.087,0,1.968,0.882,1.968,1.967v1.158C167.9,54.23,167.018,55.111,165.931,55.111z"/>
		</g>
	</g>
	<g>
		<g>
			<g>
				<path fill="#E6573F" d="M166.74,47.353h-2.776c-0.64,0-1.16-0.52-1.16-1.162v-2.778c0-0.64,0.521-1.162,1.16-1.162h2.778
					c0.64,0,1.16,0.522,1.16,1.162v2.778C167.902,46.833,167.38,47.353,166.74,47.353z M163.964,42.576
					c-0.462,0-0.839,0.376-0.839,0.838v2.778c0,0.461,0.377,0.838,0.839,0.838h2.778c0.461,0,0.838-0.376,0.838-0.838v-2.778
					c0-0.462-0.377-0.838-0.838-0.838H163.964z"/>
			</g>
		</g>
	</g>
	<g>
		<g>
			<g>
				<path fill="#E6573F" d="M174.411,55.115h-2.778c-0.641,0-1.162-0.521-1.162-1.162v-2.778c0-0.64,0.521-1.162,1.162-1.162h2.778
					c0.64,0,1.159,0.521,1.159,1.162v2.778C175.572,54.593,175.051,55.115,174.411,55.115z M171.635,50.338
					c-0.462,0-0.838,0.376-0.838,0.837v2.779c0,0.461,0.376,0.838,0.838,0.838h2.777c0.463,0,0.839-0.377,0.839-0.838v-2.779
					c0-0.461-0.376-0.837-0.839-0.837H171.635z"/>
			</g>
		</g>
	</g>
	<g>
		<g>
			<path fill="#E96B56" d="M173.602,47.351h-1.158c-1.087,0-1.967-0.882-1.967-1.967v-1.158c0-1.087,0.882-1.967,1.967-1.967h1.158
				c1.088,0,1.968,0.882,1.968,1.967v1.158C175.569,46.469,174.689,47.351,173.602,47.351z"/>
		</g>
	</g>
	<g>
		<g>
			<g>
				<path fill="#E6573F" d="M174.411,39.591h-2.778c-0.641,0-1.162-0.52-1.162-1.162v-2.778c0-0.64,0.521-1.162,1.162-1.162h2.778
					c0.64,0,1.159,0.52,1.159,1.162v2.778C175.572,39.071,175.051,39.591,174.411,39.591z M171.635,34.814
					c-0.462,0-0.838,0.376-0.838,0.838v2.778c0,0.462,0.376,0.838,0.838,0.838h2.777c0.463,0,0.839-0.376,0.839-0.838v-2.778
					c0-0.462-0.376-0.838-0.839-0.838H171.635z"/>
			</g>
		</g>
	</g>
	<g>
		<g>
			<path fill="#E96B56" d="M165.931,39.589h-1.157c-1.088,0-1.968-0.882-1.968-1.967v-1.158c0-1.087,0.882-1.967,1.968-1.967h1.157
				c1.087,0,1.968,0.881,1.968,1.967v1.158C167.9,38.707,167.018,39.589,165.931,39.589z"/>
		</g>
	</g>
	<g>
		<g>
			<g>
				<g>
					<path fill="#EEA886" d="M142.125,67.122c0,0,0.186,0.304,0.207,0.551c0.019,0.196,0.184,0.487,0.255,0.649
						c0.071,0.161,0.3,0.893,0.309,1.083c0.003,0.078-0.171,0.567-0.146,0.726s0.114,0.467-0.027,0.489
						c-0.14,0.021-0.3-0.235-0.3-0.235s0.013,0.145-0.105,0.201c-0.231,0.107-0.354,0.012-0.354,0.012s-0.085,0.158-0.193,0.181
						c-0.236,0.047-0.353-0.048-0.353-0.048s-0.104,0.09-0.267,0.086c-0.209-0.004-0.296-0.186-0.296-0.186
						s-0.266,0.053-0.342-0.068c-0.076-0.125-0.063-0.256-0.095-0.368c-0.033-0.112-0.007-1.124,0.336-1.851
						c0.344-0.728-0.087-1.438-0.087-1.438L142.125,67.122z"/>
				</g>
			</g>
		</g>
		<g>
			<g>
				<path fill="#DB9C7C" d="M142.462,70.289c0,0,0.023-0.907-0.215-1.1c-0.238-0.193-0.265,0.135-0.265,0.135
					s0.033-0.324-0.229-0.367c-0.26-0.045-0.273,0.34-0.273,0.34s-0.043-0.25-0.316-0.199c-0.274,0.051-0.209,0.369-0.209,0.369
					s-0.262-0.313-0.431-0.012c-0.287,0.505-0.011,1.104-0.011,1.104s0.08,0.136,0.342,0.068c0,0,0.175,0.352,0.565,0.099
					c0,0,0.4,0.22,0.545-0.133C141.964,70.596,142.404,70.806,142.462,70.289z"/>
			</g>
		</g>
		<path fill="#771818" d="M145.204,54.055c0,0-1.553,5.176-2.078,7.086c-0.166,0.598-0.563,6.316-0.633,6.547
			c-0.071,0.23-2.04,0.545-2.04,0.545s0.238-7.152,0.262-7.543c0.022-0.391,2.173-8.379,2.798-8.664
			c0.469-0.213,0.716-0.036,1.307,0.402C145.647,53.042,145.204,54.055,145.204,54.055z"/>
		<g>
			
				<rect x="160.084" y="45.615" transform="matrix(-0.8367 0.5476 -0.5476 -0.8367 322.9996 -4.7509)" fill="#EF5050" width="4.247" height="0.316"/>
		</g>
		<path fill="#EFAA88" d="M164.453,45.814c0,0-0.035,0.202-0.092,0.282c0,0-0.115,0.138-0.192,0.242
			c-0.023,0.033-0.046,0.062-0.056,0.082c-0.048,0.085-0.124,0.286-0.295,0.457c-0.17,0.171-0.829,0.718-0.829,0.718l-0.565-0.48
			l-0.588-0.264c0,0,0.33-1.427,0.468-1.605c0.015-0.019,0.027-0.035,0.042-0.049c0.133-0.14,0.289-0.187,0.367-0.252
			c0.029-0.024,0.33-0.242,0.438-0.213c0.149,0.038,0.236,0.125,0.271,0.226c0,0,0.289,0.089,0.402,0.258
			c0,0,0.269,0.073,0.349,0.324C164.176,45.542,164.441,45.647,164.453,45.814z"/>
		<g>
			<g>
				<path fill="#424773" d="M143.944,89.391c0,0-0.142,0.982-0.16,1.131c-0.018,0.147-1.575-0.087-1.575-0.087l-0.125-1.169
					C142.083,89.266,143.749,89.253,143.944,89.391z"/>
			</g>
		</g>
		<g>
			<g>
				<path fill="#442828" d="M143.8,90.396c0,0,0.493,0.593,0.971,0.851c0.476,0.259,1.227,0.36,1.509,0.628
					c0.204,0.192,0.742,1.023-1.24,1.005c-1.982-0.017-2.937,0.116-3.149-0.202c-0.213-0.318,0.307-2.349,0.307-2.349
					S142.667,90.5,143.8,90.396z"/>
			</g>
		</g>
		<g>
			<g>
				<path fill="#424773" d="M155.098,89.391c0,0-0.141,0.982-0.16,1.131c-0.018,0.147-1.574-0.087-1.574-0.087l-0.125-1.169
					C153.238,89.266,154.904,89.253,155.098,89.391z"/>
			</g>
		</g>
		<g>
			<g>
				<path fill="#442828" d="M154.957,90.396c0,0,0.492,0.593,0.971,0.851c0.477,0.259,2.232,0.472,2.514,0.736
					c0.204,0.192,0.542,0.97-2.245,0.896c-1.981-0.051-2.937,0.116-3.149-0.202s0.308-2.349,0.308-2.349
					S153.797,90.511,154.957,90.396z"/>
			</g>
		</g>
		<g>
			<g>
				<path fill="#E96B56" d="M145.233,64.146c0,0-1.464,2.323-1.354,4.425c0.109,2.103-0.531,4.395-0.751,6.59
					c-0.246,2.447-1.248,8.24-1.284,9.549c-0.037,1.309,0.156,5.489,0.156,5.489l2.007,0.046c0,0,1.686-10.128,2.122-11.16
					c0.437-1.033,2.602-8.4,2.675-9.228S145.233,64.146,145.233,64.146z"/>
			</g>
		</g>
		<g>
			<g>
				<path fill="#E96B56" d="M152.935,64.46c0,0,1.102,5.759,1.247,7.046c0.146,1.285,0.242,6.223,0.314,7.027
					c0.073,0.803,0.68,10.492,0.873,11.711h-2.565c0,0-1.97-7.063-1.97-10.402c0-3.342-1.521-7.264-2.503-9.467
					c-0.982-2.204-3.231-2.257-3.834-6.348C144.497,64.027,152.116,63.164,152.935,64.46z"/>
			</g>
		</g>
		<g>
			<g>
				<path fill="#EEA886" d="M147.674,44.604c0,0,1.964-0.732,2.869,0.762c0.906,1.495,0.818,4.487-0.17,4.855
					s-2.476,0.176-2.983-0.76c-0.507-0.935-0.964-2.287-0.942-3.191C146.467,45.365,147.158,44.865,147.674,44.604z"/>
			</g>
		</g>
		<g>
			<g>
				<path fill="#EEA886" d="M150.158,50.289c0,0-0.082,0.531,0.053,0.791c0.135,0.262-2.543,0.268-2.543,0.268
					s-0.218-1.42-0.629-2.621C146.625,47.527,150.158,50.289,150.158,50.289z"/>
			</g>
		</g>
		<g>
			<g>
				<path fill="#771818" d="M147.038,48.727c0,0,0.186,0.306,0.94,0.188c0.755-0.118,1.677-1.122,1.991-1.233
					c0.314-0.111,0.318-0.294,0.318-0.294l0.198,0.289l0.335,0.022c0,0-0.306-0.898,0.154-1.266c0.46-0.365-0.478-2.907-2.898-2.062
					c0,0-1.86,0.513-1.791,1.569C146.351,46.997,146.622,48.2,147.038,48.727z"/>
			</g>
		</g>
		<g>
			<g>
				<path fill="#E2D2CA" d="M150.371,51.049c0,0-0.009-0.498-0.235-0.547c-0.225-0.047-2.496-0.266-2.774-0.156v0.582
					C147.362,50.926,147.896,51.254,150.371,51.049z"/>
			</g>
		</g>
		<g>
			<g>
				<path fill="#EEA886" d="M150.236,47.002c-0.042-0.178-0.493-0.684-0.666-0.142c-0.173,0.542,0.26,1.273,0.504,1.211
					C150.314,48.007,150.344,47.451,150.236,47.002z"/>
			</g>
		</g>
		<g>
			<g>
				<path fill="#771818" d="M154.125,51.804c-1.556-0.206-3.754-0.757-3.754-0.757l-3.009-0.121c0,0-2.762,0.607-3.849,1.098
					c-0.104,0.047-0.104,2.464-0.387,3.099l0.902,1.901c0,0,0.522,3.768,0.629,5.443c0.049,0.77-1.074,7.215-1.074,7.215
					s1.204,0.354,3.258,0.58c2.053,0.226,7.184-0.082,7.217-0.324c0.032-0.241-0.994-9.03-1.04-9.486
					c-0.069-0.698,0.239-4.411,0.239-4.411c0.475-0.367,4.637-2.3,5.773-3.308c0.303-0.269,1.587-1.518,1.951-1.949
					c1.291-1.527,2.349-2.836,2.478-3.12c0.146-0.16-1.437-1.015-1.576-1.06c-0.124-0.042-1.835,2.231-2.507,2.96
					c-0.301,0.324-1.546,1.231-1.546,1.231S155.1,51.859,154.125,51.804z"/>
			</g>
		</g>
		<g>
			<g>
				<path fill="#771818" d="M147.115,44.78c0,0-2.504,0.197-0.077,3.947L147.115,44.78z"/>
			</g>
		</g>
		<polygon fill="#DFE1E8" points="164.074,44.742 164.279,44.429 163.902,44.478 		"/>
	</g>
	<g>
		<g>
			<path fill="#5C544D" d="M186.538,89.164c0,0,0.142,0.99,0.16,1.14s1.575-0.087,1.575-0.087l0.125-1.181
				C188.398,89.036,186.732,89.023,186.538,89.164z"/>
		</g>
		<g>
			<path fill="#443C3C" d="M186.68,90.178c0,0-0.492,0.599-0.971,0.858c-0.477,0.261-1.227,0.364-1.509,0.633
				c-0.204,0.194-0.742,1.032,1.239,1.017c1.982-0.017,2.938,0.118,3.149-0.203c0.213-0.322-0.308-2.371-0.308-2.371
				S187.814,90.281,186.68,90.178z"/>
		</g>
		<g>
			<path fill="#5C544D" d="M175.384,89.164c0,0,0.142,0.99,0.159,1.14c0.02,0.149,1.575-0.087,1.575-0.087l0.126-1.181
				C177.244,89.036,175.578,89.023,175.384,89.164z"/>
		</g>
		<g>
			<path fill="#443C3C" d="M175.527,90.178c0,0-0.492,0.599-0.971,0.858c-0.477,0.261-2.232,0.475-2.515,0.743
				c-0.204,0.195-0.542,0.979,2.245,0.906c1.98-0.053,2.937,0.118,3.149-0.203c0.212-0.322-0.308-2.371-0.308-2.371
				S176.688,90.293,175.527,90.178z"/>
		</g>
		<g>
			<path fill="#563030" d="M185.985,63.561c0,0,0.829,2.461,0.72,4.581s0.43,4.442,0.647,6.657c0.245,2.469,1.247,8.316,1.284,9.638
				c0.036,1.321-0.156,5.54-0.156,5.54l-2.008,0.047c0,0-1.686-10.222-2.121-11.266c-0.438-1.043-2.603-8.479-2.676-9.313
				C181.605,68.609,185.985,63.561,185.985,63.561z"/>
		</g>
		<g>
			<path fill="#563030" d="M177.549,63.998c0,0-1.102,5.813-1.247,7.111c-0.146,1.298-0.241,6.281-0.314,7.092
				c-0.073,0.812-0.485,10.617-0.872,11.822h2.564c0,0,1.969-7.127,1.969-10.5s1.522-7.33,2.504-9.557
				c0.982-2.225,3.231-2.277,3.835-6.404C185.985,63.561,178.367,62.688,177.549,63.998z"/>
		</g>
		<g>
			<path fill="#EEA886" d="M182.764,44.131c0,0-2.021-0.754-2.955,0.784c-0.932,1.54-0.842,4.622,0.177,5
				c1.021,0.378,2.551,0.18,3.073-0.782c0.521-0.964,0.992-2.356,0.971-3.287C184.006,44.917,183.295,44.4,182.764,44.131z"/>
		</g>
		<g>
			<path fill="#EEA886" d="M180.324,49.822c0,0,0.081,0.531-0.053,0.792c-0.135,0.262,2.543,0.267,2.543,0.267
				s0.219-1.42,0.629-2.62C183.856,47.06,180.324,49.822,180.324,49.822z"/>
		</g>
		<g>
			<path fill="#771818" d="M183.443,48.26c0,0-0.186,0.306-0.939,0.188c-0.755-0.118-1.675-1.122-1.991-1.233
				c-0.314-0.111-0.318-0.294-0.318-0.294l-0.196,0.287l-0.334,0.022c0,0,0.305-0.898-0.154-1.264
				c-0.461-0.365,0.478-2.907,2.897-2.062c0,0,1.858,0.513,1.791,1.569C184.131,46.529,183.859,47.733,183.443,48.26z"/>
		</g>
		<g>
			<path fill="#E2D2CA" d="M180.113,50.582c0,0,0.008-0.499,0.234-0.547c0.225-0.047,2.496-0.266,2.774-0.157v0.582
				C183.12,50.458,182.586,50.787,180.113,50.582z"/>
		</g>
		<g>
			<path fill="#EEA886" d="M180.246,46.535c0.041-0.178,0.492-0.684,0.665-0.142c0.173,0.542-0.261,1.273-0.502,1.209
				C180.168,47.54,180.139,46.983,180.246,46.535z"/>
		</g>
		<g>
			<path fill="#CC5858" d="M180.113,50.582c0,0-1.244,0.447-2.686,1.06c0,0-1.658,0.62-1.839,2.451
				c-0.095,0.973-1.131,6.131-1.323,6.567c-0.195,0.436-2.489,7.449-2.569,7.594c-0.08,0.146,1.873,0.957,2.002,0.892
				s2.222-6.396,2.433-6.864c0,0,1.205-3.796,1.236-4.361c0,0,0.035,1.613,0.1,2.065c0.066,0.452-1.07,9.241-1.037,9.485
				c0.032,0.242,5.161,0.551,7.216,0.324c2.053-0.226,3.711-0.699,3.711-0.699s-1.616-6.936-1.565-7.705
				c0.107-1.676,0.667-4.832,0.667-4.832l1.675,3.156l-2.144,5.512l0.491,1.678c0,0,3.981-6.02,4.11-6.568
				c0.13-0.549-0.194-1.248-0.405-1.701s-1.591-3.898-1.914-4.384c-0.324-0.485-0.869-2.427-2.191-2.968
				c-1.104-0.452-2.958-0.821-2.958-0.821L180.113,50.582z"/>
		</g>
		<g>
			
				<rect x="168.682" y="63.58" transform="matrix(-0.9686 -0.2484 0.2484 -0.9686 324.9745 174.927)" fill="#D6D6D6" width="9.685" height="6.757"/>
		</g>
		<g>
			<path fill="#C98462" d="M170.879,69.684c0,0-0.268,0.433-0.366,0.557c-0.099,0.123,0.24,0.201,0.386,0.076
				C171.042,70.191,170.879,69.684,170.879,69.684z"/>
		</g>
		<g>
			<path fill="#DE9D7D" d="M172.831,71.164c0,0,0.158-0.166,0.192-0.271c0,0,0.047-0.198,0.09-0.336
				c0.012-0.044,0.025-0.082,0.035-0.105c0.046-0.099,0.174-0.303,0.215-0.569c0.042-0.267,0.158-1.468,0.158-1.468l-0.727-0.184
				l-0.584-0.123c0,0-1.262,1.258-1.329,1.504c-0.007,0.023-0.013,0.047-0.015,0.07c-0.036,0.213,0.025,0.388,0.018,0.5
				c-0.001,0.042,0.004,0.459,0.103,0.537c0.135,0.108,0.272,0.129,0.386,0.092c0,0,0.272,0.2,0.502,0.189
				c0,0,0.245,0.193,0.525,0.098C172.4,71.096,172.671,71.266,172.831,71.164z"/>
		</g>
		<g>
			<path fill="#CC5858" d="M175.668,63.572c0,0-1.666,5.043-1.972,5.571c0,0-1.222-0.257-2.002-0.891l1.827-5.442L175.668,63.572z"
				/>
		</g>
	</g>
	<g>
		<g>
			<rect x="116.242" y="17.533" fill="#E0E0E0" width="0.135" height="12.684"/>
		</g>
		<g>
			<rect x="125.8" y="17.533" fill="#E0E0E0" width="0.135" height="12.684"/>
		</g>
		<g>
			<rect x="135.356" y="17.533" fill="#E0E0E0" width="0.134" height="12.684"/>
		</g>
		<g>
			<rect x="144.915" y="17.533" fill="#E0E0E0" width="0.135" height="12.684"/>
		</g>
		<g>
			<rect x="154.473" y="17.533" fill="#E0E0E0" width="0.135" height="12.684"/>
		</g>
		<rect x="116.309" y="30.967" fill="#B8B8B8" width="1.52" height="0.44"/>
		<rect x="116.309" y="15.969" fill="#D9D9D9" width="2.289" height="0.331"/>
		<rect x="116.309" y="16.58" fill="#D9D9D9" width="3.247" height="0.331"/>
		<rect x="125.764" y="15.969" fill="#D9D9D9" width="2.687" height="0.331"/>
		<rect x="125.764" y="16.58" fill="#D9D9D9" width="1.718" height="0.331"/>
		<rect x="135.491" y="15.969" fill="#D9D9D9" width="1.666" height="0.331"/>
		<rect x="135.491" y="16.58" fill="#D9D9D9" width="1.942" height="0.331"/>
		<rect x="145.049" y="15.969" fill="#D9D9D9" width="2.425" height="0.331"/>
		<rect x="145.049" y="16.58" fill="#D9D9D9" width="1.941" height="0.331"/>
		<rect x="154.54" y="15.969" fill="#D9D9D9" width="1.449" height="0.331"/>
		<rect x="154.54" y="16.58" fill="#D9D9D9" width="1.16" height="0.331"/>
		<rect x="125.867" y="30.967" fill="#B8B8B8" width="1.52" height="0.44"/>
		<rect x="135.491" y="30.967" fill="#B8B8B8" width="1.52" height="0.44"/>
		<rect x="145.049" y="30.967" fill="#B8B8B8" width="1.52" height="0.44"/>
		<rect x="154.605" y="30.967" fill="#B8B8B8" width="1.52" height="0.44"/>
		<g>
			<path fill="#E96B56" d="M151.227,26.447c-2.981,0-5.572-1.158-8.274-2.367c-3.334-1.491-6.784-3.035-11.378-2.611
				c-2.935,0.269-4.776,1.343-6.4,2.292c-1.471,0.858-2.862,1.613-4.745,1.678c-3.044,0.104-4.1-1.063-4.118-1.134v-0.75l0,0l0,0
				c0.003,0.013,0.669,1.324,4.114,1.309c1.698-0.007,2.951-0.738,4.4-1.585c1.685-0.983,3.596-2.098,6.684-2.381
				c4.78-0.44,8.313,1.14,11.729,2.669c3.574,1.598,6.987,3.098,11.3,1.798v0.617C153.309,26.349,152.326,26.447,151.227,26.447z"/>
		</g>
		<g>
			<path fill="#E96B56" d="M133.333,26.304c-2.2,0-3.945-1.331-5.654-2.635c-1.296-0.987-2.64-1.998-4.191-2.496
				c-4.734-1.52-7.158,1.256-7.178,1.28v-0.845c0.025-0.029,0.458-0.533,1.708-1.015c1.138-0.438,3.047-0.789,5.682,0.035
				c1.669,0.521,3.055,1.578,4.395,2.6c2.718,2.073,5.067,3.864,9.144,1.06c3.089-2.124,6-4.149,8.864-4.887
				c2.802-0.724,5.724-0.194,8.457,2.266l-0.021,0.767c-5.807-5.247-10.752-1.922-16.913,2.313
				C135.997,25.869,134.591,26.304,133.333,26.304z"/>
		</g>
	</g>
</g>
<g id="XMLID_769_">
	<polygon id="XMLID_771_" fill="#E96B56" points="175.6,17.786 173.778,18.291 174.302,18.738 170.502,21.915 167.262,21.266 
		162.709,25.816 163.171,26.135 167.46,21.744 170.669,22.449 174.57,18.971 175.04,19.373 	"/>
	<path id="XMLID_770_" fill="#E96B56" d="M176.768,30.482V20.84c0-0.133-0.126-0.24-0.28-0.24h-2.731
		c-0.154,0-0.279,0.109-0.279,0.24v9.642h-0.355V23.54c0-0.133-0.125-0.24-0.279-0.24h-2.73c-0.154,0-0.28,0.109-0.28,0.24v6.942
		h-0.354V25.46c0-0.133-0.125-0.24-0.28-0.24h-2.731c-0.154,0-0.279,0.109-0.279,0.24v5.022h-0.354V27.74
		c0-0.133-0.126-0.24-0.28-0.24h-2.73c-0.154,0-0.28,0.109-0.28,0.24v2.742h-1.076v0.927h16.423v-0.927H176.768z"/>
</g>
</svg>
