<?xml version="1.0" encoding="utf-8"?>
<!-- Generator: Adobe Illustrator 16.0.0, SVG Export Plug-In . SVG Version: 6.00 Build 0)  -->
<!DOCTYPE svg PUBLIC "-//W3C//DTD SVG 1.1//EN" "http://www.w3.org/Graphics/SVG/1.1/DTD/svg11.dtd">
<svg version="1.1" id="Layer_1" xmlns="http://www.w3.org/2000/svg" xmlns:xlink="http://www.w3.org/1999/xlink" x="0px" y="0px"
	 width="300px" height="300px" viewBox="0 -99.082 300 300" enable-background="new 0 -99.082 300 300" xml:space="preserve">
<g>
	<path opacity="0.5" fill="#771818" enable-background="new    " d="M165.76,169.152L51.413,102.253
		c-3.233-1.892-2.825-5.192,0.906-7.383l77.868-45.534c3.736-2.186,9.385-2.426,12.622-0.531L257.157,115.7
		c3.235,1.889,2.832,5.19-0.903,7.385l-77.869,45.535C174.646,170.811,168.996,171.048,165.76,169.152z"/>
	<path fill="#771818" d="M295.307-26.499L172.421-98.385c-1.428-0.834-2.879-0.964-4.165-0.521l0.008-0.01l-0.226,0.086
		c-0.019,0.008-0.036,0.012-0.062,0.024l-4.438,1.721l3.979,1.977c-0.021,0.077-0.041,0.147-0.061,0.222L145.759,5.159
		c-1.005,4.617,1.002,10.013,4.478,12.047l119.934,70.16l-0.43,5.147l4.853-1.897c1.627-0.773,2.934-2.523,3.473-5.015
		l21.713-100.054C300.786-19.073,298.786-24.47,295.307-26.499z"/>
	<path fill="#A83939" d="M295.307-26.499L172.421-98.385c-1.428-0.834-2.879-0.964-4.165-0.521l0.008-0.01l-0.226,0.086
		c-0.019,0.008-0.036,0.012-0.062,0.024l-4.438,1.721l3.979,1.977c-0.021,0.077-0.041,0.147-0.061,0.222l-14.875,68.574
		l60.129,47.467l86.477-42.687C298.373-23.673,297.018-25.494,295.307-26.499z"/>
	<path fill="#872727" d="M290.671-12.307l9.358-4.032c0.171-3.673-1.328-7.463-3.797-9.495l-14.803,6.309L290.671-12.307z"/>
	<path fill="#E96B56" d="M265.475,92.032L142.588,20.139c-3.477-2.032-5.484-7.427-4.482-12.05l21.712-100.055
		c1.007-4.618,4.632-6.72,8.104-4.682l122.892,71.887c3.479,2.032,5.484,7.427,4.478,12.05L273.585,87.343
		C272.576,91.971,268.952,94.063,265.475,92.032z"/>
	<path fill="#FFFFFF" d="M291.997-25.192L169.111-97.084c-1.688-0.986-3.4-0.986-4.844-0.217c1.153-0.255,2.412-0.073,3.652,0.649
		l122.891,71.888c3.479,2.029,5.486,7.426,4.479,12.046L273.576,87.337c-0.514,2.381-1.735,4.08-3.266,4.902
		c2.078-0.468,3.812-2.365,4.453-5.337l21.713-100.059C297.479-17.766,295.471-23.158,291.997-25.192z"/>
	<path fill="#FFFFFF" d="M262.813,85.157L147.236,17.583c-3.181-1.863-5.014-6.798-4.102-11.029l20.013-92.215
		c0.916-4.225,4.236-6.149,7.42-4.283l115.576,67.585c3.186,1.862,5.019,6.793,4.104,11.029L270.23,80.876
		C269.316,85.102,265.986,87.021,262.813,85.157z"/>
	<path fill="#771818" d="M262.813,85.157L147.236,17.583c-3.181-1.863-5.014-6.798-4.102-11.029l20.013-92.215
		c0.916-4.225,4.236-6.149,7.42-4.283l115.576,67.585c3.186,1.862,5.019,6.793,4.104,11.029L270.23,80.876
		C269.316,85.102,265.986,87.021,262.813,85.157z"/>
	<path fill="#CC5858" d="M263.818,84.745l-115.57-67.576c-3.181-1.862-5.019-6.796-4.102-11.023l20.013-92.214
		c0.46-2.142,1.546-3.679,2.909-4.45c-1.832,0.479-3.346,2.219-3.922,4.864L143.134,6.56c-0.912,4.226,0.918,9.164,4.102,11.026
		l115.573,67.579c1.568,0.916,3.174,0.91,4.508,0.166C266.225,85.609,265.006,85.439,263.818,84.745z"/>
	<path fill="#771818" d="M267.171,95.161l-16.799-2.244L141.94,29.481c-3.477-2.032-9.549-1.783-13.566,0.57L51.547,74.98
		l-10.155-1.362v5.838h0.01c-0.069,1.351,0.695,2.647,2.332,3.606l122.886,71.89c3.476,2.034,9.546,1.778,13.563-0.572
		l83.678-48.935c2.261-1.317,3.39-3.022,3.32-4.62l0,0v-5.664H267.171L267.171,95.161z"/>
	<path fill="#A83939" d="M185.695,55.077l-7.698-4.504H93.299L51.543,74.98l-10.154-1.362v5.838h0.009
		c-0.067,1.351,0.696,2.647,2.332,3.606l122.888,71.89c1.84,1.075,4.401,1.51,6.993,1.332L185.695,55.077z"/>
	<path fill="#CC5858" d="M45.893,74.229l-4.509-0.604v5.836h0.009c-0.064,1.346,0.696,2.65,2.332,3.605l2.166,1.27V74.229H45.893z"
		/>
	<path fill="#872727" d="M167.857,155.538c3.293,1.271,8.006,0.998,11.521-0.726V141.79h-11.521V155.538z"/>
	<path fill="#E96B56" d="M166.613,149.124L43.734,77.236c-3.476-2.034-3.043-5.586,0.974-7.936l83.68-48.933
		c4.009-2.347,10.085-2.604,13.564-0.572l122.885,71.89c3.479,2.031,3.04,5.588-0.976,7.935l-83.678,48.935
		C176.16,150.902,170.09,151.154,166.613,149.124z"/>
	<path fill="#FFFFFF" d="M263.852,97.486l-83.679,48.935c-4.013,2.347-10.089,2.604-13.565,0.567L43.734,75.1
		c-1.14-0.662-1.854-1.5-2.162-2.39c-0.542,1.662,0.146,3.351,2.162,4.526l122.886,71.888c3.476,2.03,9.546,1.778,13.563-0.569
		l83.678-48.935c2.695-1.576,3.77-3.701,3.141-5.541C266.596,95.298,265.547,96.497,263.852,97.486z"/>
	<g>
		<path fill="#5793CE" d="M95.993,53.438l-5.557-3.253c-0.447-0.26-0.389-0.715,0.124-1.016l6.563-3.842
			c0.515-0.305,1.296-0.334,1.744-0.078l5.559,3.248c0.447,0.264,0.388,0.725-0.125,1.023l-6.56,3.844
			C97.222,53.665,96.443,53.704,95.993,53.438z"/>
		<path fill="#CC5858" d="M104.581,58.46l-5.558-3.252c-0.447-0.265-0.387-0.722,0.125-1.021l6.56-3.838
			c0.515-0.309,1.297-0.338,1.744-0.082l5.558,3.256c0.447,0.264,0.387,0.719-0.125,1.02l-6.562,3.84
			C105.807,58.693,105.028,58.721,104.581,58.46z"/>
		<path fill="#CC5858" d="M113.168,63.484l-5.559-3.254c-0.446-0.264-0.387-0.719,0.123-1.021l6.564-3.84
			c0.512-0.308,1.297-0.33,1.744-0.076l5.559,3.256c0.447,0.259,0.387,0.72-0.125,1.017l-6.564,3.844
			C114.393,63.712,113.614,63.749,113.168,63.484z"/>
		<path fill="#CC5858" d="M125.044,59.333l-5.558-3.25c-0.447-0.26-0.389-0.719,0.124-1.021l5.508-3.225
			c0.512-0.303,1.298-0.332,1.744-0.07l5.559,3.248c0.447,0.264,0.388,0.726-0.125,1.021l-5.505,3.223
			C126.27,59.563,125.491,59.6,125.044,59.333z"/>
		<path fill="#CC5858" d="M133.628,64.361l-5.559-3.252c-0.446-0.266-0.387-0.723,0.125-1.022l5.506-3.226
			c0.515-0.301,1.296-0.332,1.744-0.073l5.558,3.258c0.447,0.261,0.388,0.715-0.124,1.021l-5.508,3.223
			C134.86,64.589,134.076,64.618,133.628,64.361z"/>
		<path fill="#CC5858" d="M142.215,69.38l-5.558-3.246c-0.447-0.266-0.388-0.727,0.124-1.024l5.509-3.224
			c0.513-0.307,1.297-0.334,1.745-0.073l5.558,3.248c0.447,0.264,0.387,0.721-0.125,1.021l-5.504,3.226
			C143.441,69.611,142.663,69.645,142.215,69.38z"/>
		<path fill="#5793CE" d="M150.807,74.411l-5.559-3.257c-0.447-0.264-0.387-0.715,0.124-1.022l5.505-3.221
			c0.516-0.304,1.298-0.334,1.745-0.076l5.555,3.258c0.449,0.263,0.392,0.716-0.12,1.021l-5.51,3.221
			C152.029,74.636,151.249,74.663,150.807,74.411z"/>
		<path fill="#5793CE" d="M159.387,79.427l-5.559-3.247c-0.446-0.265-0.393-0.722,0.124-1.021l5.51-3.228
			c0.509-0.301,1.297-0.332,1.739-0.072l5.558,3.252c0.449,0.265,0.392,0.724-0.12,1.021l-5.51,3.224
			C160.613,79.659,159.838,79.688,159.387,79.427z"/>
		<path fill="#5793CE" d="M167.973,84.45l-5.559-3.257c-0.445-0.26-0.389-0.713,0.127-1.016l5.503-3.225
			c0.513-0.305,1.298-0.338,1.746-0.072l5.56,3.25c0.447,0.266,0.387,0.719-0.129,1.02l-5.503,3.226
			C169.202,84.684,168.42,84.712,167.973,84.45z"/>
		<path fill="#5793CE" d="M176.561,89.475l-5.559-3.248c-0.441-0.265-0.389-0.728,0.127-1.023l5.505-3.223
			c0.515-0.301,1.296-0.336,1.745-0.074l5.559,3.252c0.449,0.266,0.392,0.719-0.125,1.021l-5.506,3.221
			C177.785,89.706,177.009,89.734,176.561,89.475z"/>
		<path fill="#5793CE" d="M185.148,94.495l-5.56-3.252c-0.444-0.263-0.389-0.718,0.127-1.019l5.505-3.223
			c0.516-0.307,1.299-0.332,1.744-0.074l5.561,3.25c0.445,0.264,0.389,0.719-0.127,1.021l-5.5,3.227
			C186.373,94.729,185.596,94.759,185.148,94.495z"/>
		<path fill="#5793CE" d="M193.732,99.521l-5.562-3.252c-0.446-0.264-0.388-0.721,0.125-1.021l5.509-3.224
			c0.516-0.301,1.297-0.334,1.743-0.077l5.562,3.256c0.439,0.267,0.387,0.719-0.129,1.021l-5.504,3.217
			C194.963,99.751,194.188,99.782,193.732,99.521z"/>
		<path fill="#5793CE" d="M202.32,104.542l-5.559-3.252c-0.447-0.265-0.39-0.717,0.119-1.019l5.512-3.225
			c0.517-0.307,1.299-0.332,1.741-0.076l5.56,3.252c0.445,0.264,0.393,0.726-0.123,1.023l-5.504,3.225
			C203.552,104.77,202.764,104.807,202.32,104.542z"/>
		<path fill="#CC5858" d="M137.697,56.958l-5.559-3.25c-0.447-0.265-0.388-0.724,0.125-1.021l5.505-3.224
			c0.516-0.307,1.297-0.334,1.745-0.076l5.558,3.25c0.447,0.262,0.387,0.723-0.124,1.021l-5.505,3.223
			C138.922,57.188,138.145,57.223,137.697,56.958z"/>
		<path fill="#CC5858" d="M128.979,51.857l-5.558-3.249c-0.447-0.264-0.388-0.721,0.125-1.023l5.505-3.221
			c0.515-0.305,1.297-0.332,1.744-0.076l5.558,3.252c0.447,0.268,0.389,0.717-0.124,1.021l-5.505,3.223
			C130.208,52.091,129.426,52.116,128.979,51.857z"/>
		<path fill="#CC5858" d="M120.25,46.756l-11.972-7.006c-0.447-0.266-0.389-0.721,0.124-1.021l5.508-3.224
			c0.515-0.301,1.297-0.334,1.744-0.073l11.973,7.006c0.446,0.262,0.388,0.717-0.125,1.021l-5.505,3.219
			C121.479,46.981,120.697,47.016,120.25,46.756z"/>
		<path fill="#CC5858" d="M126.353,40.543l-9.715-5.688c-0.447-0.263-0.389-0.719,0.125-1.021l5.504-3.219
			c0.515-0.307,1.298-0.335,1.744-0.075l9.718,5.687c0.445,0.263,0.388,0.718-0.125,1.021l-5.506,3.219
			C127.579,40.77,126.8,40.805,126.353,40.543z"/>
		<path fill="#CC5858" d="M146.278,61.98l-5.558-3.256c-0.447-0.264-0.387-0.715,0.124-1.021l5.508-3.222
			c0.512-0.305,1.297-0.334,1.744-0.071l5.562,3.252c0.445,0.262,0.388,0.719-0.127,1.021l-5.506,3.223
			C147.51,62.206,146.731,62.245,146.278,61.98z"/>
		<path fill="#5793CE" d="M154.868,67.005l-5.559-3.25c-0.445-0.264-0.389-0.726,0.124-1.021l5.506-3.226
			c0.517-0.307,1.297-0.329,1.746-0.075l5.555,3.256c0.445,0.258,0.392,0.719-0.124,1.016l-5.505,3.225
			C156.098,67.229,155.311,67.268,154.868,67.005z"/>
		<path fill="#5793CE" d="M163.456,72.025l-5.558-3.254c-0.453-0.262-0.396-0.717,0.121-1.016l5.506-3.225
			c0.512-0.307,1.298-0.336,1.742-0.076l5.559,3.252c0.449,0.264,0.395,0.719-0.121,1.02l-5.507,3.229
			C164.682,72.253,163.898,72.29,163.456,72.025z"/>
		<path fill="#5793CE" d="M172.041,77.055l-5.555-3.253c-0.447-0.264-0.391-0.725,0.121-1.021l5.51-3.225
			c0.51-0.302,1.298-0.332,1.738-0.076l5.56,3.256c0.448,0.262,0.392,0.719-0.121,1.021l-5.509,3.218
			C173.264,77.282,172.486,77.309,172.041,77.055z"/>
		<path fill="#5793CE" d="M180.628,82.073l-5.56-3.253c-0.447-0.264-0.396-0.719,0.121-1.02l5.508-3.223
			c0.513-0.309,1.3-0.332,1.742-0.076l5.56,3.252c0.451,0.264,0.394,0.719-0.122,1.021L182.37,82
			C181.855,82.298,181.076,82.335,180.628,82.073z"/>
		<path fill="#5793CE" d="M189.211,87.1l-5.557-3.252c-0.445-0.263-0.391-0.722,0.125-1.021l5.504-3.223
			c0.515-0.304,1.297-0.332,1.744-0.076l5.56,3.254c0.449,0.264,0.39,0.721-0.124,1.023l-5.507,3.217
			C190.436,87.329,189.659,87.355,189.211,87.1z"/>
		<path fill="#5793CE" d="M197.8,92.12l-5.559-3.256c-0.442-0.257-0.39-0.718,0.128-1.021l5.503-3.217
			c0.517-0.312,1.301-0.336,1.746-0.076l5.56,3.25c0.446,0.265,0.387,0.72-0.123,1.021l-5.507,3.224
			C199.023,92.346,198.248,92.382,197.8,92.12z"/>
		<path fill="#5793CE" d="M206.389,97.141l-5.559-3.252c-0.448-0.265-0.389-0.722,0.121-1.021l5.507-3.223
			c0.515-0.304,1.297-0.334,1.749-0.076l5.559,3.258c0.441,0.264,0.389,0.715-0.129,1.02l-5.503,3.223
			C207.613,97.374,206.833,97.402,206.389,97.141z"/>
		<path fill="#5793CE" d="M214.971,102.165l-5.558-3.254c-0.448-0.259-0.39-0.72,0.123-1.017l5.508-3.223
			c0.515-0.309,1.297-0.336,1.745-0.076l5.559,3.248c0.442,0.264,0.389,0.723-0.127,1.023l-5.504,3.223
			C216.201,102.396,215.419,102.43,214.971,102.165z"/>
		<path fill="#5793CE" d="M230.238,111.104l-12.127-7.101c-0.449-0.265-0.396-0.721,0.121-1.021l5.506-3.226
			c0.513-0.307,1.301-0.332,1.742-0.073l12.136,7.098c0.44,0.264,0.389,0.723-0.13,1.021l-5.502,3.222
			C231.463,111.327,230.684,111.359,230.238,111.104z"/>
		<path fill="#5793CE" d="M246.949,101.313l-10.236-5.988c-0.447-0.262-0.393-0.719,0.122-1.018l5.508-3.226
			c0.511-0.304,1.298-0.336,1.744-0.074l10.24,5.988c0.446,0.262,0.388,0.726-0.123,1.021l-5.505,3.223
			C248.18,101.548,247.398,101.575,246.949,101.313z"/>
		<path fill="#5793CE" d="M161.316,60.999l-5.561-3.252c-0.447-0.265-0.389-0.724,0.123-1.021l5.51-3.226
			c0.516-0.299,1.297-0.33,1.743-0.074l5.558,3.257c0.443,0.262,0.392,0.717-0.125,1.021l-5.504,3.217
			C162.547,61.229,161.759,61.261,161.316,60.999z"/>
		<path fill="#CC5858" d="M152.518,55.85l-5.557-3.25c-0.447-0.265-0.388-0.722,0.124-1.021l5.505-3.223
			c0.514-0.305,1.297-0.334,1.744-0.072l5.555,3.25c0.452,0.262,0.395,0.723-0.121,1.02l-5.506,3.225
			C153.745,56.075,152.964,56.109,152.518,55.85z"/>
		<path fill="#CC5858" d="M143.718,50.7l-5.559-3.252c-0.447-0.264-0.388-0.717,0.125-1.02l5.505-3.221
			c0.516-0.307,1.297-0.334,1.744-0.076l5.559,3.25c0.446,0.264,0.387,0.721-0.125,1.021l-5.509,3.221
			C144.944,50.925,144.165,50.962,143.718,50.7z"/>
		<path fill="#CC5858" d="M134.919,45.551l-5.559-3.254c-0.446-0.262-0.388-0.717,0.125-1.021l5.505-3.219
			c0.516-0.305,1.297-0.334,1.744-0.076l5.558,3.25c0.447,0.264,0.388,0.721-0.124,1.021l-5.505,3.223
			C136.146,45.786,135.367,45.815,134.919,45.551z"/>
		<path fill="#5793CE" d="M169.904,66.02l-5.559-3.25c-0.451-0.265-0.396-0.72,0.12-1.021l5.509-3.226
			c0.512-0.307,1.297-0.33,1.739-0.073l5.562,3.252c0.449,0.264,0.395,0.717-0.121,1.021l-5.506,3.223
			C171.129,66.251,170.348,66.284,169.904,66.02z"/>
		<path fill="#5793CE" d="M178.491,71.046l-5.556-3.252c-0.449-0.265-0.393-0.721,0.121-1.021l5.51-3.226
			c0.51-0.301,1.297-0.33,1.74-0.075l5.559,3.258c0.447,0.262,0.39,0.717-0.122,1.021l-5.509,3.217
			C179.719,71.273,178.938,71.307,178.491,71.046z"/>
		<path fill="#5793CE" d="M187.084,76.064l-5.559-3.256c-0.449-0.256-0.396-0.717,0.121-1.021l5.506-3.218
			c0.513-0.311,1.301-0.336,1.742-0.075l5.559,3.248c0.451,0.264,0.395,0.723-0.121,1.021l-5.507,3.226
			C188.305,76.292,187.525,76.327,187.084,76.064z"/>
		<path fill="#5793CE" d="M195.66,81.093l-5.557-3.252c-0.444-0.264-0.394-0.723,0.125-1.022l5.504-3.223
			c0.512-0.302,1.297-0.332,1.746-0.076l5.558,3.26c0.444,0.26,0.388,0.715-0.124,1.018l-5.508,3.225
			C196.891,81.318,196.109,81.354,195.66,81.093z"/>
		<path fill="#5793CE" d="M204.248,86.111l-5.559-3.256c-0.441-0.256-0.39-0.717,0.127-1.016l5.504-3.225
			c0.516-0.307,1.298-0.334,1.746-0.074l5.559,3.248c0.448,0.264,0.389,0.725-0.125,1.021l-5.506,3.225
			C205.473,86.343,204.697,86.374,204.248,86.111z"/>
		<path fill="#5793CE" d="M212.838,91.143l-5.559-3.257c-0.449-0.262-0.389-0.715,0.121-1.021l5.507-3.219
			c0.516-0.306,1.297-0.338,1.749-0.08l5.558,3.258c0.442,0.264,0.39,0.719-0.127,1.02l-5.504,3.225
			C214.063,91.366,213.282,91.396,212.838,91.143z"/>
		<path fill="#5793CE" d="M221.426,96.157l-5.558-3.248c-0.449-0.265-0.388-0.724,0.124-1.021l5.507-3.226
			c0.515-0.308,1.297-0.336,1.745-0.074l5.555,3.248c0.446,0.265,0.393,0.726-0.123,1.021l-5.503,3.226
			C222.65,96.391,221.875,96.421,221.426,96.157z"/>
		<path fill="#5793CE" d="M230.009,101.188l-5.559-3.256c-0.447-0.264-0.388-0.715,0.122-1.021l5.511-3.218
			c0.511-0.309,1.296-0.336,1.744-0.082l5.56,3.257c0.444,0.264,0.387,0.719-0.129,1.021l-5.503,3.229
			C231.238,101.413,230.451,101.443,230.009,101.188z"/>
		<path fill="#5793CE" d="M238.6,106.204l-5.562-3.248c-0.447-0.265-0.39-0.724,0.123-1.022l5.51-3.224
			c0.509-0.301,1.297-0.332,1.742-0.074l5.555,3.255c0.45,0.258,0.392,0.717-0.12,1.02l-5.51,3.219
			C239.822,106.438,239.039,106.468,238.6,106.204z"/>
		<path fill="#CC5858" d="M156.794,48.575l-5.558-3.25c-0.447-0.264-0.389-0.721,0.125-1.023l5.506-3.223
			c0.516-0.301,1.301-0.334,1.744-0.074l5.56,3.252c0.448,0.266,0.39,0.721-0.124,1.021l-5.506,3.219
			C158.02,48.805,157.243,48.831,156.794,48.575z"/>
		<path fill="#CC5858" d="M148.251,43.577l-5.559-3.252c-0.447-0.264-0.387-0.719,0.125-1.021l5.505-3.22
			c0.516-0.306,1.298-0.335,1.745-0.074l5.558,3.253c0.449,0.262,0.391,0.719-0.124,1.02l-5.506,3.223
			C149.478,43.805,148.698,43.833,148.251,43.577z"/>
		<path fill="#CC5858" d="M139.711,38.575l-5.558-3.252c-0.447-0.263-0.389-0.72,0.125-1.022l5.504-3.22
			c0.515-0.305,1.297-0.332,1.744-0.077l5.558,3.252c0.447,0.265,0.388,0.72-0.124,1.021l-5.508,3.224
			C140.937,38.803,140.157,38.838,139.711,38.575z"/>
		<path fill="#CC5858" d="M131.167,33.578l-5.559-3.253c-0.447-0.263-0.387-0.718,0.125-1.021l5.508-3.224
			c0.516-0.302,1.297-0.334,1.744-0.073l5.558,3.252c0.447,0.263,0.388,0.719-0.124,1.021l-5.504,3.221
			C132.394,33.806,131.615,33.843,131.167,33.578z"/>
		<path fill="#CC5858" d="M139.954,28.44l-5.558-3.253c-0.447-0.263-0.388-0.719,0.124-1.021l1.821-1.069
			c0.516-0.304,1.297-0.334,1.744-0.076l5.558,3.253c0.447,0.263,0.388,0.719-0.124,1.021l-1.821,1.063
			C141.179,28.67,140.4,28.701,139.954,28.44z"/>
		<path fill="#CC5858" d="M151.104,34.963l-5.559-3.254c-0.447-0.263-0.388-0.72,0.124-1.021l1.821-1.063
			c0.516-0.306,1.298-0.334,1.744-0.076l5.561,3.25c0.445,0.264,0.389,0.721-0.128,1.024l-1.819,1.067
			C152.326,35.188,151.548,35.227,151.104,34.963z"/>
		<path fill="#CC5858" d="M159.607,39.938l-5.562-3.252c-0.446-0.263-0.388-0.719,0.125-1.02l1.82-1.063
			c0.516-0.305,1.298-0.335,1.743-0.077l5.561,3.252c0.446,0.264,0.391,0.721-0.126,1.021l-1.815,1.07
			C160.837,40.168,160.057,40.198,159.607,39.938z"/>
		<path fill="#CC5858" d="M168.117,44.915l-5.559-3.252c-0.451-0.262-0.396-0.719,0.121-1.02l1.821-1.07
			c0.513-0.305,1.298-0.334,1.743-0.076l5.561,3.252c0.443,0.264,0.391,0.719-0.123,1.021l-1.826,1.063
			C169.346,45.143,168.561,45.174,168.117,44.915z"/>
		<path fill="#CC5858" d="M176.628,49.895l-5.56-3.252c-0.447-0.264-0.396-0.721,0.121-1.021l1.824-1.063
			c0.516-0.305,1.297-0.334,1.74-0.078l5.561,3.254c0.451,0.264,0.393,0.719-0.121,1.02l-1.823,1.072
			C177.85,50.122,177.068,50.159,176.628,49.895z"/>
		<path fill="#5793CE" d="M224.124,77.686l-5.56-3.256c-0.447-0.265-0.391-0.72,0.125-1.021l1.818-1.061
			c0.518-0.302,1.299-0.337,1.745-0.074l5.562,3.252c0.442,0.258,0.388,0.719-0.127,1.021l-1.818,1.068
			C225.354,77.909,224.572,77.945,224.124,77.686z"/>
		<path fill="#5793CE" d="M232.634,82.654l-5.559-3.254c-0.452-0.256-0.394-0.717,0.12-1.02l1.826-1.063
			c0.508-0.301,1.295-0.332,1.742-0.074l5.557,3.254c0.447,0.264,0.393,0.717-0.122,1.021l-1.824,1.065
			C233.857,82.889,233.077,82.919,232.634,82.654z"/>
		<path fill="#5793CE" d="M241.145,87.636l-5.56-3.256c-0.448-0.256-0.394-0.715,0.121-1.014l1.823-1.074
			c0.517-0.301,1.3-0.33,1.744-0.076l5.559,3.261c0.451,0.264,0.391,0.715-0.122,1.02l-1.823,1.059
			C242.365,87.864,241.586,87.898,241.145,87.636z"/>
		<path fill="#5793CE" d="M249.646,92.614l-5.56-3.248c-0.442-0.265-0.388-0.722,0.126-1.021l1.824-1.066
			c0.51-0.303,1.299-0.332,1.742-0.072l5.561,3.254c0.45,0.26,0.391,0.719-0.123,1.023l-1.824,1.065
			C250.871,92.846,250.098,92.872,249.646,92.614z"/>
		<path fill="#CC5858" d="M165.384,53.598l-5.558-3.257c-0.449-0.262-0.389-0.719,0.126-1.021l5.501-3.217
			c0.516-0.307,1.297-0.336,1.749-0.08l5.558,3.252c0.443,0.264,0.389,0.723-0.127,1.021l-5.504,3.226
			C166.607,53.823,165.832,53.857,165.384,53.598z"/>
		<path fill="#CC5858" d="M173.973,58.622l-5.559-3.252c-0.449-0.265-0.389-0.72,0.124-1.021l5.508-3.226
			c0.515-0.299,1.296-0.332,1.744-0.074l5.56,3.255c0.442,0.264,0.387,0.719-0.127,1.022l-5.504,3.223
			C175.195,58.852,174.421,58.88,173.973,58.622z"/>
		<path fill="#CC5858" d="M182.557,63.643l-5.56-3.254c-0.448-0.259-0.388-0.72,0.128-1.017l5.502-3.226
			c0.518-0.307,1.298-0.334,1.747-0.073l5.56,3.247c0.443,0.265,0.387,0.726-0.129,1.021l-5.504,3.225
			C183.785,63.874,183.001,63.904,182.557,63.643z"/>
		<path fill="#CC5858" d="M191.145,68.665l-5.559-3.254c-0.449-0.265-0.391-0.716,0.121-1.021l5.51-3.222
			c0.51-0.305,1.297-0.336,1.743-0.078l5.558,3.257c0.445,0.264,0.394,0.721-0.123,1.02l-5.512,3.225
			C192.369,68.896,191.587,68.925,191.145,68.665z"/>
		<path fill="#CC5858" d="M199.729,73.688l-5.558-3.248c-0.444-0.264-0.392-0.725,0.125-1.021l5.509-3.226
			c0.51-0.307,1.299-0.334,1.739-0.073l5.558,3.248c0.449,0.264,0.395,0.725-0.121,1.021l-5.508,3.226
			C200.951,73.921,200.175,73.952,199.729,73.688z"/>
		<path fill="#CC5858" d="M208.314,78.712l-5.561-3.254c-0.441-0.265-0.388-0.717,0.128-1.021l5.507-3.22
			c0.512-0.307,1.297-0.334,1.742-0.082l5.561,3.259c0.449,0.264,0.389,0.719-0.127,1.02l-5.504,3.227
			C209.543,78.943,208.766,78.977,208.314,78.712z"/>
		<path fill="#5793CE" d="M216.898,83.734l-5.562-3.248c-0.44-0.264-0.387-0.727,0.127-1.021l5.507-3.225
			c0.516-0.308,1.297-0.332,1.743-0.076l5.562,3.256c0.447,0.256,0.388,0.72-0.125,1.017l-5.506,3.223
			C218.129,83.96,217.348,83.999,216.898,83.734z"/>
		<path fill="#5793CE" d="M225.486,88.759l-5.557-3.254c-0.443-0.262-0.392-0.717,0.127-1.019l5.502-3.223
			c0.517-0.309,1.299-0.336,1.746-0.076l5.559,3.252c0.449,0.265,0.389,0.718-0.127,1.021l-5.502,3.225
			C226.711,88.982,225.938,89.021,225.486,88.759z"/>
		<path fill="#5793CE" d="M234.076,93.782l-5.559-3.25c-0.449-0.263-0.391-0.722,0.125-1.021l5.506-3.223
			c0.516-0.304,1.297-0.334,1.746-0.076l5.559,3.254c0.441,0.265,0.388,0.72-0.128,1.023l-5.503,3.217
			C235.301,94.014,234.521,94.038,234.076,93.782z"/>
		<path fill="#CC5858" d="M116.296,54.218l-16.374-9.581c-0.447-0.266-0.388-0.721,0.125-1.021l5.505-3.221
			c0.515-0.305,1.297-0.334,1.744-0.072l16.373,9.578c0.447,0.266,0.389,0.717-0.124,1.024l-5.508,3.218
			C117.52,54.448,116.741,54.479,116.296,54.218z"/>
		<path fill="#CC5858" d="M221.777,115.925l-16.371-9.571c-0.449-0.265-0.389-0.726,0.123-1.021l5.508-3.225
			c0.516-0.306,1.297-0.336,1.746-0.072l16.371,9.574c0.449,0.262,0.391,0.723-0.121,1.021l-5.51,3.224
			C223.005,116.152,222.227,116.188,221.777,115.925z"/>
		<path fill="#5793CE" d="M187.439,106.938l-5.561-3.252c-0.445-0.267-0.387-0.718,0.124-1.023l6.563-3.838
			c0.516-0.307,1.297-0.332,1.744-0.076l5.561,3.256c0.443,0.264,0.388,0.721-0.127,1.02l-6.561,3.84
			C188.665,107.163,187.883,107.198,187.439,106.938z"/>
		<path fill="#CC5858" d="M125.085,70.452l-8.892-5.197c-0.447-0.264-0.389-0.723,0.125-1.022l6.561-3.838
			c0.516-0.308,1.297-0.336,1.744-0.076l8.89,5.199c0.447,0.264,0.389,0.723-0.124,1.022l-6.56,3.838
			C126.311,70.686,125.532,70.716,125.085,70.452z"/>
		<path fill="#5793CE" d="M179.166,102.098l-8.891-5.201c-0.442-0.263-0.392-0.72,0.127-1.021l6.559-3.842
			c0.516-0.304,1.299-0.334,1.745-0.072l8.892,5.199c0.452,0.26,0.389,0.721-0.121,1.021l-6.563,3.84
			C180.393,102.323,179.615,102.354,179.166,102.098z"/>
		<path fill="#CC5858" d="M137.478,77.71l-8.892-5.207c-0.447-0.264-0.389-0.715,0.125-1.021l6.559-3.838
			c0.515-0.31,1.297-0.332,1.744-0.072l8.892,5.199c0.447,0.264,0.388,0.717-0.124,1.02l-6.562,3.84
			C138.699,77.936,137.92,77.96,137.478,77.71z"/>
		<path fill="#5793CE" d="M137.07,67.604l38.661,22.621c0.479,0.277,0.479,0.734,0,1.012l-6.69,3.918
			c-0.479,0.281-1.255,0.281-1.739,0l-38.66-22.612L137.07,67.604z"/>
		<path fill="#CC5858" d="M211.438,116.044l6.194,3.625c0.369,0.218,0.321,0.593-0.1,0.832l-2.687,1.576
			c-0.423,0.243-1.063,0.271-1.429,0.059l-6.192-3.627c-0.371-0.217-0.322-0.59,0.101-0.834l2.688-1.571
			C210.434,115.854,211.074,115.827,211.438,116.044z"/>
		<path fill="#CC5858" d="M202.782,110.977l6.194,3.625c0.369,0.217,0.318,0.594-0.104,0.838l-2.688,1.569
			c-0.424,0.246-1.061,0.271-1.426,0.062l-6.195-3.625c-0.369-0.217-0.319-0.594,0.102-0.838l2.688-1.57
			C201.777,110.788,202.418,110.768,202.782,110.977z"/>
		<path fill="#5793CE" d="M194.193,105.952l6.199,3.629c0.361,0.217,0.319,0.594-0.104,0.836l-2.687,1.567
			c-0.425,0.246-1.063,0.277-1.432,0.058l-6.189-3.625c-0.365-0.209-0.323-0.59,0.101-0.834l2.687-1.565
			C193.188,105.766,193.829,105.738,194.193,105.952z"/>
		<path fill="#CC5858" d="M207.521,108.206l6.192,3.623c0.369,0.213,0.324,0.59-0.098,0.834l-2.687,1.565
			c-0.426,0.246-1.062,0.277-1.429,0.064l-6.194-3.629c-0.369-0.215-0.324-0.588,0.103-0.834l2.688-1.57
			C206.516,108.016,207.152,107.982,207.521,108.206z"/>
	</g>
	<g>
		<polygon fill="#E96B56" points="241.439,10.184 195.188,-16.866 195.787,-19.914 242.041,7.145 		"/>
		<polygon fill="#E96B56" points="224.875,15.327 192.593,-3.554 193.188,-6.605 225.469,12.282 		"/>
		<polygon fill="#FFFFFF" points="221.82,6.131 193.891,-10.21 194.484,-13.257 222.414,3.079 		"/>
		<polygon fill="#CC5858" points="240.145,16.848 226.178,8.673 226.771,5.626 240.738,13.8 		"/>
		<polygon fill="#E96B56" points="190.264,-43.452 176.297,-51.62 176.895,-54.667 190.859,-46.493 		"/>
		<polygon fill="#FFFFFF" points="188.75,-36.372 174.784,-44.537 175.378,-47.584 189.344,-39.419 		"/>
		<polygon fill="#D4ECFF" points="257.298,61.841 243.33,53.665 243.923,50.624 257.889,58.794 		"/>
		<polygon fill="#E96B56" points="185.719,-22.209 171.753,-30.38 172.348,-33.425 186.313,-25.257 		"/>
	</g>
	<g>
		<path fill="#CC5858" d="M215.893-20.012c-0.449,0.978-1.567,1.336-2.516,0.782c-0.939-0.549-1.34-1.793-0.895-2.78
			c0.443-0.986,1.564-1.339,2.513-0.784C215.936-22.246,216.335-21.002,215.893-20.012z"/>
		<path fill="#FFFFFF" d="M221.904-16.5c-0.448,0.989-1.568,1.338-2.512,0.784c-0.945-0.549-1.349-1.792-0.896-2.776
			c0.439-0.983,1.563-1.341,2.509-0.784C221.95-18.722,222.352-17.479,221.904-16.5z"/>
		<path fill="#FFD7D7" d="M227.917-12.978c-0.44,0.98-1.565,1.336-2.509,0.78c-0.939-0.55-1.346-1.792-0.896-2.778
			c0.448-0.983,1.569-1.339,2.51-0.784C227.966-15.203,228.367-13.962,227.917-12.978z"/>
		<path fill="#FFFFFF" d="M233.941-9.458c-0.447,0.978-1.569,1.338-2.517,0.782c-0.94-0.549-1.342-1.791-0.896-2.78
			c0.451-0.985,1.57-1.335,2.517-0.784C233.98-11.69,234.38-10.438,233.941-9.458z"/>
	</g>
</g>
<g>
	<g>
		<path fill="#771818" d="M132.307-25.307l-30.118-17.612c-0.601-0.35-1.199-0.362-1.711-0.129l0.006-0.015l-3.587,1.712
			c0,0,1.351,0.478,2.138,0.756l-4.344,22.218c-0.358,1.812,0.447,3.906,1.783,4.688l28.789,16.838l-0.509,2.61l3.628-1.725
			l-0.016-0.006c0.614-0.308,1.105-0.987,1.298-1.955l4.44-22.685C134.449-22.423,133.649-24.528,132.307-25.307z"/>
		<path fill="#CC5858" d="M122.938,5.661L92.816-11.951c-1.338-0.782-2.138-2.883-1.785-4.688l4.442-22.685
			c0.352-1.81,1.724-2.638,3.062-1.854l30.121,17.611c1.338,0.783,2.138,2.884,1.786,4.688L126,3.805
			C125.643,5.615,124.271,6.443,122.938,5.661z"/>
		<path fill="#FFFFFF" d="M129.34-23.843L99.219-41.455c-0.702-0.408-1.414-0.369-1.975,0.016c0.413-0.071,0.849,0,1.291,0.256
			l30.121,17.613c1.338,0.782,2.138,2.883,1.786,4.694L126,3.809c-0.168,0.857-0.571,1.485-1.09,1.838
			c0.835-0.141,1.537-0.897,1.772-2.111l4.441-22.684C131.479-20.959,130.677-23.06,129.34-23.843z"/>
	</g>
	<g>
		<path fill="#FFFFFF" d="M105.629-19.769c-0.257,1.313-1.374,1.846-2.498,1.191c-1.124-0.655-1.822-2.254-1.57-3.566
			c0.261-1.314,1.377-1.844,2.501-1.191C105.189-22.681,105.891-21.082,105.629-19.769z"/>
		<path fill="#FFFFFF" d="M111.787-16.173c-0.262,1.313-1.378,1.844-2.502,1.191c-1.123-0.652-1.821-2.255-1.566-3.566
			c0.257-1.314,1.374-1.844,2.499-1.191C111.346-19.078,112.044-17.479,111.787-16.173z"/>
		<path fill="#FFFFFF" d="M117.946-12.57c-0.26,1.313-1.377,1.847-2.5,1.191c-1.125-0.655-1.822-2.254-1.568-3.568
			c0.257-1.313,1.378-1.845,2.501-1.19C117.504-15.484,118.201-13.884,117.946-12.57z"/>
	</g>
</g>
<g>
	<g>
		<path fill="#CC5858" d="M118.788-53.833l-30.12-17.614c-0.601-0.35-1.199-0.364-1.711-0.129l0.003-0.016l-3.587,1.711
			c0,0,1.35,0.477,2.138,0.758l-4.345,22.219c-0.354,1.807,0.445,3.904,1.784,4.688l28.787,16.837l-0.508,2.611l3.628-1.722
			l-0.016-0.006c0.615-0.309,1.104-0.986,1.297-1.957l4.441-22.685C120.927-50.949,120.125-53.048,118.788-53.833z"/>
		<path fill="#E96B56" d="M109.409-22.865l-30.122-17.61c-1.337-0.784-2.138-2.883-1.783-4.688l4.44-22.685
			c0.357-1.808,1.725-2.64,3.063-1.856l30.121,17.612c1.338,0.784,2.138,2.883,1.781,4.687l-4.44,22.684
			C112.125-22.908,110.753-22.081,109.409-22.865z"/>
		<path fill="#FFFFFF" d="M115.814-52.368L85.697-69.979c-0.7-0.408-1.412-0.37-1.978,0.016c0.413-0.07,0.851,0,1.295,0.257
			l30.122,17.611c1.338,0.784,2.138,2.882,1.782,4.694l-4.442,22.683c-0.171,0.858-0.57,1.491-1.089,1.841
			c0.835-0.138,1.537-0.9,1.772-2.113l4.441-22.684C117.955-49.481,117.155-51.584,115.814-52.368z"/>
	</g>
	<g>
		<path fill="#FFFFFF" d="M92.112-48.297c-0.258,1.314-1.374,1.843-2.499,1.191c-1.123-0.651-1.822-2.253-1.566-3.567
			c0.257-1.312,1.374-1.845,2.498-1.19C91.665-51.207,92.366-49.611,92.112-48.297z"/>
		<path fill="#FFFFFF" d="M98.266-44.694c-0.261,1.312-1.378,1.845-2.502,1.192c-1.123-0.656-1.821-2.256-1.567-3.569
			c0.257-1.312,1.377-1.846,2.502-1.191C97.821-47.604,98.52-46.011,98.266-44.694z"/>
		<path fill="#FFFFFF" d="M104.422-41.095c-0.257,1.313-1.374,1.846-2.497,1.191c-1.125-0.655-1.823-2.253-1.569-3.566
			c0.259-1.315,1.376-1.847,2.5-1.192C103.975-44.001,104.683-42.405,104.422-41.095z"/>
	</g>
</g>
<path fill="#FFFFFF" d="M134.724,118.271L98.449,97.057c-1.055-0.619-0.925-1.697,0.293-2.414l21.893-12.808
	c1.219-0.715,3.063-0.787,4.119-0.176l36.275,21.221c1.055,0.615,0.925,1.693-0.293,2.408l-21.896,12.805
	C137.623,118.813,135.775,118.893,134.724,118.271z"/>
<g>
	<g>
		<polygon opacity="0.5" fill="#771818" enable-background="new    " points="94.147,181.477 82.153,174.456 94.147,167.436 
			106.151,174.456 		"/>
		<polygon fill="#771818" points="106.151,165.54 94.147,172.561 94.147,158.523 106.151,151.501 		"/>
		<polygon fill="#E96B56" points="94.147,158.523 82.153,151.501 94.147,144.48 106.151,151.501 		"/>
		<polygon fill="#CC5858" points="94.147,172.561 82.153,165.54 82.153,151.501 94.147,158.523 		"/>
	</g>
	<polygon fill="#FFFFFF" points="89.823,164.979 86.473,163.014 86.473,159.085 89.823,161.052 	"/>
</g>
<path opacity="0.5" fill="#771818" enable-background="new    " d="M174.494,134.337l-52.32-30.608
	c-1.173-0.691-1.173-2.402,0-3.097l49.751-29.103l55.66,32.566c1.177,0.691,1.177,2.406,0,3.096l-46.405,27.146
	C179.111,135.544,176.561,135.544,174.494,134.337z"/>
<g>
	<g>
		<path fill="#911D1D" d="M172.918,52.225c0.006-3.371-2.337-4.742-5.213-3.056l-48.942,28.565c-0.791,0.463-1.434,1.59-1.434,2.512
			c0,0.924,0.641,1.301,1.434,0.84l48.942-28.568c1.297-0.754,2.352-0.139,2.352,1.381l-0.006,5.552
			c0.945-0.063,1.903-0.063,2.867-0.052V52.225L172.918,52.225z"/>
		<path fill="#771818" d="M118.751,91.061l48.937-18.066c2.879-1.682,5.229-5.781,5.229-9.152l0.006-4.441
			c-0.967-0.014-1.916-0.014-2.87,0.056l-0.006,6.063c0,1.518-1.063,3.366-2.355,4.127l-48.938,18.067
			c-0.791,0.463-1.434,1.584-1.434,2.509C117.317,91.143,117.955,91.523,118.751,91.061z"/>
	</g>
	<polygon fill="#911D1D" points="117.689,91.128 177.216,126.034 227.613,95.573 231.609,89.527 231.195,91.671 230.121,86.063 
		136.567,89.673 120.084,88.602 	"/>
	<polygon fill="#E85858" points="119.657,80.6 119.648,88.021 177.18,121.747 178.736,114.671 	"/>
	<polygon fill="#CC5858" points="230.869,83.673 171.438,48.831 117.851,80.411 117.738,81.188 177.264,116.068 	"/>
	<g>
		<path fill="#FFFFFF" d="M211.922,101.563l13.979-8.396c1.184-0.844,2.104-2.533,2.104-3.942l0.013-1.117
			c0-0.9-0.371-1.488-0.943-1.648l-27.506,15.504l-22.401,12.277l0.026,7.508L211.922,101.563z"/>
	</g>
	<path fill="#771818" d="M179.163,114.919L120.11,80.305l-1.255-0.732l-1.144-0.672c-0.231,0.434-0.38,0.91-0.38,1.35
		c0,0.455,0.158,0.777,0.406,0.928l0,0l0.009,0.006h0.006l59.51,34.887L179.163,114.919z"/>
	<polygon fill="#FFFFFF" points="176.471,125.596 177.216,126.034 177.352,125.792 176.889,125.419 	"/>
	<polygon fill="#FFFFFF" points="176.488,115.622 177.252,116.068 177.057,115.646 	"/>
	<g>
		<path fill="#771818" d="M178.288,112.626l48.94-28.563c2.881-1.688,5.219-0.314,5.213,3.053l-0.012,1.115
			c-0.009,3.369-2.347,7.477-5.229,9.16l-48.938,28.567c-0.787,0.463-1.43,0.086-1.43-0.842c0-0.931,0.643-2.05,1.43-2.515
			L227.2,94.038c1.297-0.759,2.354-2.606,2.36-4.129l0.013-1.113c0-1.519-1.056-2.139-2.353-1.381l-48.941,28.567
			c-0.787,0.463-1.432,0.086-1.432-0.842C176.857,114.214,177.5,113.091,178.288,112.626z"/>
	</g>
	<g>
		<path fill="#FFFFFF" d="M176.834,125.116c0-0.931,0.643-2.05,1.43-2.515l48.938-28.563c1.297-0.759,2.354-2.606,2.36-4.129
			l0.013-1.113c0-0.996-0.452-1.604-1.124-1.688c0.215,0.295,0.342,0.709,0.342,1.229l-0.012,1.119c0,1.517-1.063,3.364-2.36,4.125
			l-48.938,28.567c-0.789,0.459-1.434,1.586-1.434,2.509c0,0.702,0.365,1.084,0.891,1.024
			C176.876,125.532,176.834,125.337,176.834,125.116z"/>
		<path fill="#FFFFFF" d="M176.857,115.143c0-0.929,0.643-2.047,1.431-2.511l48.94-28.563c1.237-0.728,2.377-0.881,3.271-0.56
			c-0.961-0.827-2.422-0.864-4.061,0.097l-48.938,28.569c-0.794,0.457-1.438,1.586-1.438,2.505c0,0.704,0.369,1.088,0.893,1.028
			C176.895,115.561,176.857,115.366,176.857,115.143z"/>
	</g>
	<polygon fill="#FFFFFF" points="154.225,84.361 181.223,68.6 204.641,82.325 177.639,98.085 	"/>
</g>
<g>
	<g>
		<path opacity="0.5" fill="#771818" enable-background="new    " d="M251.297,200.466l-36.496-21.348
			c-1.339-0.781-1.17-2.147,0.37-3.054l38.688-22.688c1.545-0.9,3.879-1.006,5.221-0.217l36.493,21.346
			c1.341,0.779,1.171,2.146-0.369,3.053l-38.688,22.687C254.971,201.146,252.635,201.245,251.297,200.466z"/>
		<g>
			
				<linearGradient id="SVGID_1_" gradientUnits="userSpaceOnUse" x1="8573.4258" y1="-3212.7192" x2="8573.4258" y2="-2725.0586" gradientTransform="matrix(0.1575 0.0909 0 -0.2099 -1073.4237 -1305.1134)">
				<stop  offset="0" style="stop-color:#2D0979"/>
				<stop  offset="1" style="stop-color:#5B04F7"/>
			</linearGradient>
			<path fill="url(#SVGID_1_)" d="M296.404,160.307l-39.022-22.833c-1.521-0.882-2.751-3.269-2.751-5.314V37.53
				c0-2.048,1.227-2.996,2.751-2.105l39.022,22.83c1.516,0.886,2.746,3.271,2.746,5.318v94.622
				C299.15,160.249,297.92,161.191,296.404,160.307z"/>
			<path fill="#A83939" d="M296.404,58.255l-39.022-22.83c-0.678-0.397-1.3-0.427-1.776-0.157l0,0l-44.557,26.041l2.102,7.866
				l40.623,117.229l44.371-25.93c0.006-0.012,0.021-0.012,0.024-0.018l0.075-0.043v-0.004c0.555-0.359,0.908-1.133,0.908-2.225
				V63.581C299.15,61.521,297.92,59.141,296.404,58.255z"/>
			<path fill="#E96B56" d="M296.404,58.255l-39.022-22.83c-0.678-0.397-1.3-0.427-1.776-0.157l0,0l-44.557,26.041l2.102,7.866
				l11.176,32.238l2.107,1.231l71.957-42.096C297.883,59.563,297.182,58.71,296.404,58.255z"/>
			<path fill="#CC5858" d="M251.885,186.323l-39.023-22.826c-1.521-0.888-2.752-3.269-2.752-5.315V63.555
				c0-2.05,1.23-2.996,2.752-2.107l39.023,22.834c1.514,0.885,2.746,3.268,2.746,5.318v94.623
				C254.631,186.273,253.4,187.212,251.885,186.323z"/>
			
				<linearGradient id="SVGID_2_" gradientUnits="userSpaceOnUse" x1="8159.1807" y1="-3245.3931" x2="8400.9346" y2="-3190.6113" gradientTransform="matrix(0.1575 0.0909 0 -0.2099 -1073.4237 -1305.1134)">
				<stop  offset="0" style="stop-color:#3919BB"/>
				<stop  offset="1" style="stop-color:#6507FA"/>
			</linearGradient>
			<path fill="url(#SVGID_2_)" d="M249.43,180.626l-34.111-19.959c-1.326-0.774-2.405-2.856-2.405-4.651v-87.87
				c0-1.795,1.079-2.613,2.405-1.838l34.111,19.957c1.328,0.774,2.401,2.862,2.401,4.649v87.877
				C251.834,180.579,250.758,181.402,249.43,180.626z"/>
			
				<linearGradient id="SVGID_3_" gradientUnits="userSpaceOnUse" x1="8159.1807" y1="-3245.3931" x2="8400.9346" y2="-3190.6113" gradientTransform="matrix(0.1575 0.0909 0 -0.2099 -1073.4237 -1305.1134)">
				<stop  offset="0" style="stop-color:#3919BB"/>
				<stop  offset="1" style="stop-color:#6507FA"/>
			</linearGradient>
			<path fill="url(#SVGID_3_)" d="M249.43,180.626l-34.111-19.959c-1.326-0.774-2.405-2.856-2.405-4.651v-87.87
				c0-1.795,1.079-2.613,2.405-1.838l34.111,19.957c1.328,0.774,2.401,2.862,2.401,4.649v87.877
				C251.834,180.579,250.758,181.402,249.43,180.626z"/>
			<path fill="#771818" d="M249.43,180.626l-34.111-19.959c-1.326-0.774-2.405-2.856-2.405-4.651v-87.87
				c0-1.795,1.079-2.613,2.405-1.838l34.111,19.957c1.328,0.774,2.401,2.862,2.401,4.649v87.877
				C251.834,180.579,250.758,181.402,249.43,180.626z"/>
			<path fill="#A83939" d="M250.541,179.966l-34.115-19.959c-1.326-0.774-2.4-2.862-2.4-4.649V67.479
				c0-0.61,0.134-1.104,0.343-1.467c-0.854-0.006-1.464,0.797-1.464,2.133v87.875c0,1.795,1.078,3.877,2.406,4.656l34.113,19.955
				c0.869,0.516,1.633,0.33,2.061-0.373C251.191,180.255,250.877,180.159,250.541,179.966z"/>
		</g>
	</g>
</g>
<g>
	<g>
		<path fill="#771818" d="M249.43,140.279l-12.68-7.42l-20.225,11.834l35.306,20.657v-20.417
			C251.834,143.143,250.758,141.061,249.43,140.279z"/>
		<path fill="#771818" d="M249.43,122.275l-12.68-7.418l-20.225,11.834l35.306,20.656v-20.416
			C251.834,125.132,250.758,123.055,249.43,122.275z"/>
		<path fill="#771818" d="M249.43,104.268l-12.68-7.418l-20.225,11.832l35.306,20.657v-20.418
			C251.834,107.128,250.758,105.044,249.43,104.268z"/>
		<path fill="#771818" d="M249.43,86.259l-12.68-7.426l-20.225,11.838l35.306,20.656V90.909
			C251.834,89.12,250.758,87.032,249.43,86.259z"/>
		<path fill="#771818" d="M249.43,86.259l-28.068-16.42l-4.836,2.822l35.309,20.655v-2.407
			C251.834,89.12,250.758,87.032,249.43,86.259z"/>
	</g>
	<polygon fill="#CC5858" points="251.834,93.323 216.529,72.667 216.529,84.046 251.834,104.698 	"/>
	<polygon fill="#CC5858" points="251.834,111.327 216.529,90.671 216.529,102.057 251.834,122.71 	"/>
	<polygon fill="#CC5858" points="251.834,129.331 216.529,108.682 216.529,120.063 251.834,140.712 	"/>
	<polygon fill="#CC5858" points="251.834,147.346 216.529,126.691 216.529,138.066 251.834,158.725 	"/>
	<polygon fill="#CC5858" points="251.834,165.352 216.529,144.693 216.529,156.077 251.834,176.736 	"/>
</g>
<g>
	<path fill="#771818" d="M248.721,100.643l-26.597-15.56c-0.746-0.438-1.358-1.615-1.358-2.627v-3.047
		c0-1.019,0.606-1.488,1.358-1.039l26.597,15.56c0.75,0.436,1.357,1.614,1.357,2.631v3.049
		C250.078,100.62,249.471,101.087,248.721,100.643z"/>
	<path opacity="0.3" fill="#3D0404" enable-background="new    " d="M223.469,84.507c-0.751-0.438-1.359-1.618-1.359-2.635v-3.043
		c0-0.168,0.021-0.306,0.054-0.438l-0.036-0.017c-0.746-0.438-1.355,0.026-1.355,1.035v3.047c0,1.017,0.604,2.196,1.355,2.631
		l26.598,15.562c0.631,0.369,1.153,0.092,1.312-0.605L223.469,84.507z"/>
	<path fill="#FFFFFF" d="M240.375,92.288l-16-9.361c-0.27-0.149-0.479-0.569-0.479-0.93l0,0c0-0.356,0.209-0.521,0.479-0.369
		l16,9.367c0.268,0.147,0.477,0.565,0.477,0.926l0,0C240.852,92.282,240.643,92.443,240.375,92.288z"/>
</g>
<g>
	<path fill="#771818" d="M248.721,118.54l-26.597-15.558c-0.746-0.436-1.358-1.621-1.358-2.633v-3.045
		c0-1.014,0.606-1.486,1.358-1.041l26.597,15.562c0.75,0.438,1.357,1.618,1.357,2.631v3.049
		C250.078,118.516,249.471,118.979,248.721,118.54z"/>
	<path opacity="0.3" fill="#3D0404" enable-background="new    " d="M223.469,102.402c-0.751-0.44-1.359-1.616-1.359-2.633v-3.047
		c0-0.164,0.021-0.309,0.054-0.438l-0.036-0.021c-0.746-0.438-1.355,0.035-1.355,1.041v3.045c0,1.012,0.604,2.197,1.355,2.633
		l26.598,15.558c0.631,0.371,1.153,0.092,1.312-0.604L223.469,102.402z"/>
	<path fill="#FFFFFF" d="M240.375,110.188l-16-9.361c-0.27-0.152-0.479-0.564-0.479-0.93l0,0c0-0.357,0.209-0.521,0.479-0.367
		l16,9.363c0.268,0.151,0.477,0.565,0.477,0.928l0,0C240.852,110.175,240.643,110.341,240.375,110.188z"/>
</g>
<g>
	<path fill="#771818" d="M248.721,136.602l-26.597-15.554c-0.746-0.438-1.358-1.618-1.358-2.635v-3.047
		c0-1.015,0.606-1.482,1.358-1.041l26.597,15.563c0.75,0.438,1.357,1.616,1.357,2.631v3.047
		C250.078,136.581,249.471,137.046,248.721,136.602z"/>
	<path opacity="0.3" fill="#3D0404" enable-background="new    " d="M223.469,120.464c-0.751-0.438-1.359-1.616-1.359-2.629v-3.049
		c0-0.164,0.021-0.306,0.054-0.44l-0.036-0.021c-0.746-0.433-1.355,0.032-1.355,1.041v3.047c0,1.017,0.604,2.194,1.355,2.635
		l26.598,15.554c0.631,0.369,1.153,0.098,1.312-0.599L223.469,120.464z"/>
	<path fill="#FFD7D7" d="M240.375,128.247l-16-9.363c-0.27-0.149-0.479-0.563-0.479-0.928l0,0c0-0.354,0.209-0.519,0.479-0.367
		l16,9.367c0.268,0.149,0.477,0.563,0.477,0.928l0,0C240.852,128.234,240.643,128.407,240.375,128.247z"/>
</g>
<g>
	<path fill="#771818" d="M248.721,154.839l-26.597-15.562c-0.746-0.438-1.358-1.618-1.358-2.635v-3.049
		c0-1.012,0.606-1.479,1.358-1.031l26.597,15.554c0.75,0.44,1.357,1.616,1.357,2.635v3.045
		C250.078,154.807,249.471,155.268,248.721,154.839z"/>
	<path opacity="0.3" fill="#06033E" enable-background="new    " d="M223.469,138.693c-0.751-0.438-1.359-1.616-1.359-2.633v-3.049
		c0-0.162,0.021-0.301,0.054-0.438l-0.036-0.017c-0.746-0.436-1.355,0.027-1.355,1.037v3.049c0,1.017,0.604,2.195,1.355,2.631
		l26.598,15.564c0.631,0.36,1.153,0.088,1.312-0.606L223.469,138.693z"/>
	<path fill="#CC5858" d="M240.375,146.482l-16-9.364c-0.27-0.154-0.479-0.568-0.479-0.929l0,0c0-0.354,0.209-0.521,0.479-0.366
		l16,9.36c0.268,0.15,0.477,0.564,0.477,0.928l0,0C240.852,146.473,240.643,146.634,240.375,146.482z"/>
</g>
<g>
	<path fill="#771818" d="M248.721,172.702l-26.597-15.56c-0.746-0.438-1.358-1.617-1.358-2.629v-3.047
		c0-1.016,0.606-1.488,1.358-1.041l26.597,15.561c0.75,0.439,1.357,1.621,1.357,2.634v3.045
		C250.078,172.68,249.471,173.143,248.721,172.702z"/>
	<path opacity="0.3" fill="#06033E" enable-background="new    " d="M223.469,156.563c-0.751-0.438-1.359-1.613-1.359-2.629v-3.047
		c0-0.164,0.021-0.31,0.054-0.438l-0.036-0.018c-0.746-0.439-1.355,0.03-1.355,1.042v3.045c0,1.012,0.604,2.195,1.355,2.629
		l26.598,15.56c0.631,0.371,1.153,0.094,1.312-0.603L223.469,156.563z"/>
	<path fill="#FFD7D7" d="M240.375,164.35l-16-9.359c-0.27-0.148-0.479-0.564-0.479-0.932l0,0c0-0.354,0.209-0.519,0.479-0.365
		l16,9.365c0.268,0.151,0.477,0.567,0.477,0.932l0,0C240.852,164.337,240.643,164.499,240.375,164.35z"/>
</g>
<polygon opacity="0.5" fill="#771818" enable-background="new    " points="216.529,72.667 219.305,74.29 219.305,85.673 
	216.529,84.046 "/>
<polygon opacity="0.5" fill="#771818" enable-background="new    " points="216.529,90.671 219.305,92.302 219.305,103.677 
	216.529,102.057 "/>
<polygon opacity="0.5" fill="#771818" enable-background="new    " points="216.529,108.682 219.305,110.307 219.305,121.688 
	216.529,120.063 "/>
<polygon opacity="0.5" fill="#771818" enable-background="new    " points="216.529,126.691 219.305,128.314 219.305,139.698 
	216.529,138.066 "/>
<polygon opacity="0.5" fill="#771818" enable-background="new    " points="216.529,144.693 219.305,146.318 219.305,157.702 
	216.529,156.077 "/>
<path fill="#FFD7D7" d="M243.525,93.419c0,0.356-0.254,0.511-0.563,0.324c-0.313-0.183-0.567-0.625-0.567-0.984
	c0-0.362,0.256-0.514,0.567-0.327C243.273,92.607,243.525,93.055,243.525,93.419z"/>
<path fill="#CC5858" d="M245.914,94.811c0,0.362-0.255,0.514-0.564,0.325c-0.309-0.178-0.563-0.62-0.563-0.983
	c0-0.367,0.255-0.514,0.563-0.324C245.659,94.007,245.914,94.45,245.914,94.811z"/>
<path fill="#FFD7D7" d="M248.303,96.208c0,0.36-0.255,0.513-0.564,0.326c-0.313-0.183-0.564-0.623-0.564-0.988
	c0-0.36,0.252-0.51,0.564-0.328C248.048,95.398,248.303,95.846,248.303,96.208z"/>
<path fill="#CC5858" d="M243.525,111.415c0,0.356-0.254,0.508-0.563,0.328c-0.313-0.185-0.567-0.632-0.567-0.988
	c0-0.362,0.256-0.514,0.567-0.33C243.273,110.605,243.525,111.052,243.525,111.415z"/>
<path fill="#FFD7D7" d="M245.914,112.807c0,0.366-0.255,0.516-0.564,0.33c-0.309-0.177-0.563-0.619-0.563-0.986
	c0-0.365,0.255-0.517,0.563-0.326C245.659,112.005,245.914,112.45,245.914,112.807z"/>
<path fill="#FFFFFF" d="M248.303,114.206c0,0.356-0.255,0.508-0.564,0.326c-0.313-0.183-0.564-0.628-0.564-0.99
	c0-0.36,0.252-0.513,0.564-0.33C248.048,113.396,248.303,113.843,248.303,114.206z"/>
<path fill="#FFFFFF" d="M243.525,129.546c0,0.361-0.254,0.513-0.563,0.33c-0.313-0.181-0.567-0.623-0.567-0.989
	c0-0.361,0.256-0.515,0.567-0.324C243.273,128.743,243.525,129.182,243.525,129.546z"/>
<path fill="#CC5858" d="M245.914,130.938c0,0.362-0.255,0.514-0.564,0.332c-0.309-0.181-0.563-0.625-0.563-0.986
	c0-0.365,0.255-0.514,0.563-0.33C245.659,130.134,245.914,130.579,245.914,130.938z"/>
<path fill="#FFFFFF" d="M248.303,132.343c0,0.363-0.255,0.515-0.564,0.324c-0.313-0.183-0.564-0.619-0.564-0.983
	c0-0.361,0.252-0.515,0.564-0.326C248.048,131.529,248.303,131.973,248.303,132.343z"/>
<path fill="#FFFFFF" d="M243.525,147.417c0,0.356-0.254,0.51-0.563,0.326c-0.313-0.183-0.567-0.627-0.567-0.986
	c0-0.364,0.256-0.516,0.567-0.329C243.273,146.607,243.525,147.057,243.525,147.417z"/>
<path fill="#FFD7D7" d="M245.914,148.814c0,0.365-0.255,0.517-0.564,0.328c-0.309-0.184-0.563-0.623-0.563-0.983
	c0-0.367,0.255-0.517,0.563-0.328C245.659,148.007,245.914,148.445,245.914,148.814z"/>
<path fill="#FFD7D7" d="M248.303,150.21c0,0.363-0.255,0.513-0.564,0.33c-0.313-0.183-0.564-0.627-0.564-0.99
	c0-0.36,0.252-0.512,0.564-0.325C248.048,149.407,248.303,149.846,248.303,150.21z"/>
<path fill="#FFFFFF" d="M243.525,165.527c0,0.363-0.254,0.515-0.563,0.326c-0.313-0.174-0.567-0.619-0.567-0.983
	c0-0.363,0.256-0.515,0.567-0.326C243.273,164.727,243.525,165.163,243.525,165.527z"/>
<path fill="#CC5858" d="M245.914,166.927c0,0.357-0.255,0.517-0.564,0.326c-0.309-0.183-0.563-0.625-0.563-0.985
	c0-0.365,0.255-0.515,0.563-0.33C245.659,166.118,245.914,166.563,245.914,166.927z"/>
<path fill="#FFD7D7" d="M248.303,168.325c0,0.362-0.255,0.514-0.564,0.325c-0.313-0.176-0.564-0.616-0.564-0.983
	c0-0.362,0.252-0.515,0.564-0.326C248.048,167.521,248.303,167.964,248.303,168.325z"/>
<g>
	<path fill="#771818" d="M260.509,173.532V92.96l0.165-0.094l33.233-19.441v80.578l-0.164,0.093L260.509,173.532z M261.164,93.343
		v79.033l32.089-18.771V74.585L261.164,93.343z"/>
</g>
<path fill="#771818" d="M285.273,109.68l-14.901,8.717c-0.994,0.582-1.808-0.037-1.808-1.394v-8.369c0-1.354,0.813-2.926,1.808-3.51
	l14.901-8.715c1.002-0.589,1.813,0.036,1.813,1.391v8.373C287.087,107.521,286.275,109.089,285.273,109.68z"/>
<path fill="#CC5858" d="M285.639,96.245c0.08,0.235,0.135,0.516,0.135,0.842v8.371c0,1.354-0.813,2.926-1.813,3.513l-14.902,8.717
	c-0.121,0.069-0.242,0.125-0.357,0.162c0.273,0.741,0.921,0.998,1.675,0.549l14.901-8.717c1-0.584,1.813-2.15,1.813-3.509v-8.366
	C287.087,96.616,286.461,95.989,285.639,96.245z"/>
<g>
	<g>
		<path fill="#FFFFFF" d="M282.548,104.637c0.279-0.162,0.497-0.029,0.497,0.295v1.905c0,0.322-0.225,0.713-0.497,0.875
			c-0.272,0.168-0.493,0.029-0.493-0.291v-1.914C282.055,105.188,282.275,104.8,282.548,104.637z"/>
		<path fill="#FFD7D7" d="M280.411,106.122c0.276-0.162,0.497-0.024,0.497,0.295v1.67c0,0.326-0.227,0.718-0.497,0.877
			c-0.274,0.162-0.495,0.031-0.495-0.295v-1.67C279.916,106.682,280.136,106.286,280.411,106.122z"/>
		<path fill="#CC5858" d="M278.275,105.507c0.271-0.161,0.498-0.024,0.498,0.298v3.528c0,0.326-0.231,0.713-0.498,0.879
			c-0.279,0.164-0.5,0.029-0.5-0.295v-3.533C277.775,106.064,278.002,105.675,278.275,105.507z"/>
		<path fill="#FFD7D7" d="M276.143,104.73c0.275-0.164,0.498-0.032,0.498,0.287v5.563c0,0.328-0.229,0.715-0.498,0.873
			c-0.277,0.17-0.498,0.037-0.498-0.289v-5.563C275.639,105.284,275.861,104.895,276.143,104.73z"/>
		<path fill="#FFD7D7" d="M274.003,106.563c0.278-0.162,0.497-0.023,0.497,0.295v4.983c0,0.32-0.225,0.707-0.497,0.867
			c-0.28,0.168-0.498,0.03-0.498-0.289v-4.979C273.499,107.113,273.729,106.727,274.003,106.563z"/>
		<path fill="#FFFFFF" d="M271.863,110.089c0.277-0.166,0.496-0.026,0.496,0.291v2.703c0,0.319-0.227,0.717-0.496,0.875
			c-0.274,0.166-0.498,0.028-0.498-0.293v-2.701C271.365,110.645,271.589,110.253,271.863,110.089z"/>
	</g>
	<path fill="#CC5858" d="M282.061,103.671c0,0.315,0.224,0.442,0.487,0.289c0.272-0.155,0.491-0.547,0.491-0.858
		c0-0.316-0.219-0.445-0.491-0.289C282.281,102.968,282.061,103.355,282.061,103.671z"/>
	<path fill="#FFFFFF" d="M282.061,101.876c0,0.319,0.224,0.447,0.487,0.289c0.272-0.156,0.491-0.545,0.491-0.86
		c0-0.313-0.219-0.441-0.491-0.283C282.281,101.182,282.061,101.563,282.061,101.876z"/>
</g>
<g>
	<path opacity="0.5" fill="#771818" enable-background="new    " d="M22.217,79.766L0.841,67.261
		c-1.307-0.764-1.146-2.106,0.366-2.991l20.641-12.08c1.51-0.883,3.808-0.979,5.117-0.213L48.339,64.48
		c1.309,0.769,1.144,2.109-0.367,2.998l-20.64,12.073C25.816,80.438,23.526,80.529,22.217,79.766z"/>
	<path fill="#A83939" d="M49.216,52.493L49.216,52.493v-7.471l-16.537-0.014l-5.717-3.346c-1.31-0.764-3.607-0.672-5.117,0.215
		l-5.331,3.121L-0.037,44.99v7.684c-0.041,0.52,0.248,1.021,0.878,1.389l21.376,12.506c1.306,0.767,3.606,0.673,5.118-0.215
		l20.64-12.074C48.844,53.771,49.266,53.111,49.216,52.493z"/>
	<path fill="#A83939" d="M24.592,41.157c-0.959,0.021-1.959,0.266-2.741,0.727l-5.331,3.119l-16.553-0.012v7.684
		c-0.041,0.521,0.247,1.021,0.877,1.39L22.22,66.57c0.633,0.365,1.489,0.535,2.374,0.516V41.157H24.592z"/>
	<path fill="#CC5858" d="M1.837,44.999h-1.875v7.683c-0.041,0.521,0.248,1.022,0.878,1.389l0.993,0.586V45L1.837,44.999
		L1.837,44.999z"/>
	<path fill="#CC5858" d="M22.546,66.736c1.132,0.492,2.771,0.462,4.09-0.047v-8.731h-4.09V66.736z"/>
	<path fill="#E96B56" d="M22.217,58.913L0.841,46.409c-1.307-0.764-1.146-2.107,0.366-2.994L21.848,31.34
		c1.51-0.887,3.808-0.979,5.117-0.216l21.374,12.507c1.309,0.766,1.144,2.107-0.367,2.996L27.332,58.7
		C25.816,59.585,23.526,59.68,22.217,58.913z"/>
	<path fill="#FFFFFF" d="M47.969,45.157L27.329,57.23c-1.512,0.888-3.808,0.98-5.117,0.215L0.841,44.938
		c-0.291-0.17-0.51-0.375-0.652-0.592c-0.453,0.736-0.249,1.531,0.652,2.063l21.376,12.504c1.306,0.767,3.606,0.672,5.118-0.213
		l20.64-12.073c1.179-0.691,1.536-1.654,1.021-2.404C48.789,44.553,48.449,44.881,47.969,45.157z"/>
	<g>
		<path fill="#D4ECFF" d="M41.356,54.466c0,0.562-0.385,1.236-0.864,1.521c-0.477,0.281-0.863,0.053-0.863-0.508
			c0-0.56,0.386-1.236,0.863-1.519C40.974,53.686,41.356,53.902,41.356,54.466z"/>
		<path fill="#D4ECFF" d="M44.134,52.843c0,0.56-0.385,1.236-0.863,1.521c-0.472,0.279-0.863,0.049-0.863-0.504
			c0-0.558,0.384-1.234,0.863-1.517C43.749,52.055,44.134,52.282,44.134,52.843z"/>
		<path fill="#D4ECFF" d="M46.915,51.214c0,0.562-0.385,1.238-0.864,1.519c-0.474,0.281-0.862,0.057-0.862-0.504
			c0-0.558,0.386-1.234,0.862-1.517C46.526,50.432,46.915,50.661,46.915,51.214z"/>
	</g>
	<g>
		<path fill="#CC5858" d="M23.48,51.163l-10.005-5.85c-0.615-0.361-0.538-0.984,0.168-1.402l9.661-5.652
			c0.71-0.412,1.783-0.461,2.393-0.1l10.004,5.852c0.616,0.361,0.538,0.988-0.17,1.4l-9.659,5.653
			C25.168,51.479,24.098,51.523,23.48,51.163z"/>
		<path fill="#FFD7D7" d="M24.439,46.264l-1.384-0.813c-0.085-0.051-0.072-0.135,0.021-0.191l1.339-0.783
			c0.095-0.063,0.248-0.064,0.332-0.014l1.384,0.813c0.085,0.051,0.071,0.135-0.021,0.193l-1.338,0.783
			C24.672,46.303,24.526,46.309,24.439,46.264z"/>
		<path fill="#A83939" d="M13.479,45.309l0.027,0.018c0.047-0.035,0.089-0.066,0.14-0.1l9.661-5.648
			c0.71-0.418,1.783-0.465,2.393-0.102l9.974,5.83c0.565-0.406,0.599-0.969,0.027-1.299l-9.999-5.852
			c-0.615-0.361-1.688-0.314-2.392,0.1l-9.661,5.65C12.94,44.325,12.866,44.952,13.479,45.309z"/>
	</g>
</g>
<g>
	<polygon fill="#CC5858" points="291.482,-60.754 291.076,-62.347 295.714,-63.53 296.119,-61.939 	"/>
	<polygon fill="#CC5858" points="289.119,-58.456 288.707,-60.049 293.343,-61.232 293.755,-59.641 	"/>
	<polygon fill="#CC5858" points="286.748,-56.155 286.343,-57.749 290.979,-58.935 291.386,-57.338 	"/>
	<polygon fill="#CC5858" points="284.385,-53.86 283.975,-55.451 288.609,-56.636 289.021,-55.04 	"/>
</g>
<g>
	<path fill="#CC5858" d="M52.567-89.259l0.959-1.621c0,0,0.8,0.44,1.661,0.171c0.682-0.216,1.282-0.827,1.766-1.835
		c1.709-3.523,4.863-3.793,6.297-3.443l-0.453,1.82l0.227-0.912l-0.221,0.912c-0.276-0.064-2.719-0.527-4.152,2.435
		c-0.727,1.499-1.716,2.453-2.932,2.819C54.086-88.416,52.721-89.173,52.567-89.259z"/>
</g>
<path fill="#FFD7D7" d="M28.253-33.54c-4.764,0-8.641-3.86-8.641-8.599c0-4.739,3.876-8.599,8.641-8.599s8.64,3.86,8.64,8.599
	C36.887-37.396,33.018-33.54,28.253-33.54z M28.253-48.866c-3.723,0-6.752,3.02-6.752,6.728c0,3.707,3.028,6.727,6.752,6.727
	c3.725,0,6.754-3.02,6.754-6.727C35.004-45.843,31.975-48.866,28.253-48.866z"/>
<path fill="#CC5858" d="M17.465,147.436l-4.159-8.42l8.455-4.142l4.158,8.42L17.465,147.436z M15.831,139.866l2.496,5.055
	l5.073-2.481l-2.495-5.053L15.831,139.866z"/>
<polygon fill="#CC5858" points="237.018,-95.117 233.132,-93.213 231.221,-97.084 235.105,-98.989 "/>
<g>
	<polygon fill="#FFD7D7" points="132.104,-64.729 130.773,-66.057 137.104,-72.362 138.436,-71.036 	"/>
	<polygon fill="#FFD7D7" points="137.104,-64.729 130.773,-71.036 132.104,-72.362 138.436,-66.057 	"/>
</g>
<path fill="#FFD7D7" d="M45.837,11.237c0,2.447-1.993,4.424-4.448,4.424c-2.455,0-4.446-1.981-4.446-4.424
	c0-2.444,1.991-4.423,4.446-4.423C43.844,6.814,45.837,8.79,45.837,11.237z"/>
<path fill="#FFD7D7" d="M127.479,176.751c0,1.42-1.158,2.574-2.586,2.574c-1.428,0-2.585-1.147-2.585-2.574
	c0-1.428,1.158-2.574,2.585-2.574C126.32,174.177,127.479,175.329,127.479,176.751z"/>
<g>
	<polygon fill="#FFD7D7" points="173.294,188.63 171.967,187.305 178.294,180.999 179.628,182.325 	"/>
	<polygon fill="#FFD7D7" points="178.294,188.63 171.967,182.325 173.294,180.999 179.628,187.305 	"/>
</g>
<g>
	<g>
		<path fill="#CC5858" d="M75.713,126.229c0,0-2.861-1.492-4.614,0.735c-1.753,2.224-4.268,7.463-4.345,11.017
			c-0.079,3.543,2.716,3.301,4.366,2.471c1.661-0.84,6.502-8.107,6.793-9.533c0.292-1.422-0.345-3.354-0.813-3.725
			C76.631,126.802,75.713,126.229,75.713,126.229z"/>
		<path fill="#FFD7D7" d="M76.334,125.52l0.13,3.063c0.028,0.656-0.289,1.27-0.834,1.598c-0.503,0.287-1.227,0.519-2.207,0.353
			c-2.158-0.353-2.347-0.994-2.502-4.063C70.766,123.4,76.334,125.52,76.334,125.52z"/>
		<g>
			<path fill="#CC5858" d="M65.239,120.333c0,0-2.861-1.494-4.615,0.733c-1.753,2.226-4.267,7.461-4.344,11.015
				c-0.079,3.547,2.716,3.305,4.365,2.476c1.661-0.843,6.502-8.107,6.793-9.531c0.292-1.428-0.343-3.355-0.811-3.726
				C66.167,120.902,65.239,120.333,65.239,120.333z"/>
			<path fill="#FFD7D7" d="M65.869,119.622l0.13,3.063c0.027,0.654-0.29,1.271-0.835,1.594c-0.503,0.294-1.226,0.519-2.206,0.355
				c-2.154-0.355-2.346-1-2.5-4.066C60.299,117.512,65.869,119.622,65.869,119.622z"/>
			<path fill="#771818" d="M91.389,63.32c-0.848-14.246-14.922,2.097-14.922,2.097l-9.633,9.769l-8.671,9.86
				c-1.691,1.925-2.483,4.521-2.157,7.104l3.511,27.639c0.172,1.367,1.304,2.369,2.633,2.361c0.379-0.008,0.809-0.049,1.297-0.121
				c3.132-0.498,2.902-3.58,2.902-3.58l-0.646-25.854l18.214-11.358C83.921,81.239,92.235,77.577,91.389,63.32z"/>
		</g>
		<path fill="#771818" d="M101.863,68.757c-0.847-14.258-14.921,2.099-14.921,2.099l-9.633,9.764l-8.671,9.857
			c-1.691,1.932-2.483,4.526-2.154,7.104l3.511,27.642c0.173,1.364,1.304,2.364,2.634,2.354c0.378,0,0.808-0.035,1.299-0.107
			c3.131-0.504,2.9-3.588,2.9-3.588l-0.645-25.854l18.214-11.355C94.396,86.673,102.707,83.007,101.863,68.757z"/>
		<path fill="#CC5858" d="M93.539,22.999c10.67,4.577,10.456,11.103,10.456,11.103s-2.087,23.921-1.376,39.896
			c0.298,6.678-34.294,7.186-29.137-10.637c6.083-21.006,3.805-38.011,6.654-40.575C82.976,20.227,90.777,21.82,93.539,22.999z"/>
		<path fill="#FFC2B0" d="M96.968,28.784c-0.56,2.243-3.396,3.42-6.337,2.641c-2.946-0.784-4.875-3.235-4.317-5.479
			c0.559-2.245,3.398-3.419,6.336-2.641C95.591,24.087,97.527,26.545,96.968,28.784z"/>
		<path fill="#FFFFFF" d="M92.435,32.194c-0.627,0-1.276-0.08-1.931-0.258c-3.212-0.849-5.31-3.601-4.682-6.115
			c0.626-2.519,3.747-3.879,6.963-3.018c1.53,0.407,2.855,1.249,3.743,2.368c0.918,1.167,1.261,2.499,0.944,3.753
			C96.965,30.925,94.884,32.194,92.435,32.194z M90.824,23.597c-1.98,0-3.637,0.949-4.015,2.484
			c-0.485,1.956,1.288,4.13,3.953,4.834c2.663,0.709,5.232-0.304,5.716-2.259c0.228-0.918-0.04-1.919-0.75-2.819
			c-0.751-0.942-1.884-1.663-3.207-2.013C91.947,23.666,91.369,23.597,90.824,23.597z"/>
		<path fill="#FFC2B0" d="M89.263,22.503c0,0,0.089,0.445-0.091,3.94c-0.056,1.099,3.663,2.125,4.628,1.133
			c0.965-0.991,0.575-2.03,0.806-5.771C94.831,18.061,89.263,22.503,89.263,22.503z"/>
		<path fill="#EA9C92" d="M94.597,21.805c0,0-0.913,3.469-5.431,4.801l0.065-3.152L94.597,21.805z"/>
		<path fill="#FFC2B0" d="M97.459,12.987c1.135,4.544-1.507,9.176-5.898,10.352c-4.392,1.175-8.869-1.558-10.004-6.099
			c-1.134-4.545,1.505-9.178,5.896-10.354C91.845,5.714,96.325,8.444,97.459,12.987z"/>
		<path fill="#EA9C92" d="M91.401,15.428c0,0-4.522,2.004-7.65,2.026c-3.131,0.021-2.445-2.69-2.445-2.69l9.294-1.391L91.401,15.428
			z"/>
		<path fill="#771818" d="M82.813,15.953c0,0,3.939-1.726,7.393-1.008c0.813,0.171,1.561,0.618,2.087,1.286
			c0.169,0.215,0.387,0.413,0.631,0.472c0.615,0.147,1.614-2.487,2.807-2.543c1.19-0.059,1.985,0.812,1.011,2.427
			c-0.978,1.618-0.648,3.426-0.198,3.688c0.453,0.258,5.213-3.512,1.012-12.13C93.353-0.472,82.671,4.171,81.01,5.913
			c0,0-1.747,1.577-3.171,0.178C77.839,6.082,76.244,18.446,82.813,15.953z"/>
		<path fill="#FFC2B0" d="M98.008,51.583v6.459c0,0.74-0.298,1.447-0.829,1.942L84.344,72.093l1.455,2.31l16.947-12.719
			c0.793-0.599,1.304-1.504,1.406-2.504l1.146-11.283L98.008,51.583z"/>
		<path fill="#CC5858" d="M103.092,30.868c0,0,3.894,6.058,5.343,22.004c0,0-6.653,2.224-10.427,0.961
			C94.232,52.575,103.092,30.868,103.092,30.868z"/>
		<path fill="#A83939" d="M97.294,38.53c0,0-1.524,8.439-1.608,12.408c-0.021,1.092,0.621,2.073,1.608,2.446l0,0V38.53z"/>
	</g>
	<g>
		<path fill="#CC5858" d="M93.968,80.499l-2.84-0.383L72.817,69.175c-0.586-0.348-1.614-0.309-2.29,0.104l-12.979,7.746
			l-1.714-0.234v1.768l0,0c-0.01,0.236,0.117,0.455,0.393,0.625l20.753,12.39c0.586,0.348,1.613,0.313,2.289-0.095L93.4,83.04
			c0.385-0.229,0.571-0.521,0.558-0.799l0,0v-1.742H93.968z"/>
		<path fill="#396CAA" d="M80.21,73.589l-1.303-0.774H64.603l-7.054,4.215l-1.714-0.236v1.77l0,0
			c-0.01,0.234,0.117,0.459,0.393,0.623L76.98,91.581c0.311,0.185,0.744,0.256,1.179,0.226L80.21,73.589z"/>
		<path fill="#5793CE" d="M56.597,76.886l-0.763-0.102v1.768l0,0c-0.01,0.236,0.117,0.455,0.393,0.625l0.366,0.22v-2.511H56.597z"/>
		<path fill="#FFFFFF" d="M77.19,91.671c0.56,0.218,1.356,0.166,1.945-0.123v-3.006H77.19V91.671z"/>
		<path fill="#FFFFFF" d="M76.983,89.813l-20.753-12.4c-0.586-0.349-0.515-0.959,0.164-1.367l14.131-8.435
			c0.676-0.399,1.704-0.448,2.29-0.1L93.57,79.908c0.586,0.348,0.516,0.959-0.164,1.367l-14.13,8.434
			C78.596,90.111,77.569,90.157,76.983,89.813z"/>
		<path fill="#E96B56" d="M76.631,87.932L59.378,77.62c-0.491-0.295-0.429-0.804,0.136-1.142l7.572-4.408
			c0.565-0.336,1.417-0.366,1.908-0.077l17.255,10.309c0.491,0.3,0.429,0.804-0.133,1.14l-7.572,4.408
			C77.975,88.186,77.122,88.221,76.631,87.932z"/>
	</g>
	<path fill="#FFC2B0" d="M71.328,67.198l-0.213,1.485c-0.184,1.26-0.151,2.539,0.096,3.801l0.253,1.306
		c0.147,0.735,0.708,1.31,1.421,1.44l0,0c0.559,0.107,1.084-0.305,1.146-0.885l0.346-3.164c0,0,0.782,1.062,1.164,1.062
		c0.377,0-0.423-3.164-1.281-4.968C73.403,65.48,71.328,67.198,71.328,67.198z"/>
	<path fill="#FFC2B0" d="M78.363,43.655l-2.228,4.561c-0.524,1.078-0.835,2.249-0.915,3.459l-0.965,15.597l-2.93-0.066L69.994,49.69
		c-0.041-0.545-0.015-1.088,0.075-1.617l1.517-8.879L78.363,43.655z"/>
	<g>
		<path fill="#771818" d="M76.284,90.997l-1.738-2.353L56.249,77.686c-0.587-0.351-1.061-1.289-1.061-2.099l0.015-15.504
			l-1.048-1.414l0.986-0.596l0,0c0.191-0.13,0.441-0.121,0.716,0.045l20.738,12.42c0.586,0.348,1.06,1.287,1.06,2.101L77.64,89.518
			c0,0.459-0.152,0.771-0.388,0.896l0,0L76.284,90.997z"/>
		<path fill="#A83939" d="M63.625,82.104l-1.297-0.772L55.19,68.507l0.003-8.426l-1.048-1.418l0.987-0.59l0,0
			c0.192-0.13,0.441-0.121,0.717,0.045l20.737,12.42c0.31,0.185,0.587,0.535,0.782,0.942L63.625,82.104z"/>
		<path fill="#5793CE" d="M54.617,59.294l-0.469-0.631l0.987-0.59l0,0c0.191-0.13,0.44-0.121,0.716,0.045l0.367,0.219L54.617,59.294
			z"/>
		<path fill="#274F89" d="M76.781,70.673c0.462,0.39,0.819,1.127,0.869,1.81l-2.025,1.207l-0.972-1.742L76.781,70.673z"/>
		<path fill="#CC5858" d="M75.608,71.122L54.871,58.704c-0.586-0.349-1.062,0.017-1.065,0.83l-0.018,16.877
			c0,0.813,0.474,1.75,1.063,2.1l20.735,12.425c0.586,0.352,1.062-0.021,1.065-0.828l0.018-16.883
			C76.668,72.421,76.195,71.475,75.608,71.122z"/>
	</g>
	<path fill="#FFC2B0" d="M85.802,74.402l-0.332,0.709c-0.385,0.822-0.981,1.519-1.735,1.988l-2.06,1.31
		c-0.644,0.411-1.449,0.446-2.104,0.059c-0.021-0.014-0.044-0.032-0.066-0.051c-0.654-0.429-0.717-1.394-0.177-1.963l2.15-2.289
		c0,0-1.206,0.953-1.545,0.569c-0.247-0.28,1.174-1.664,2.263-1.709c1.089-0.047,2.151-0.934,2.151-0.934L85.802,74.402z"/>
	<path fill="#CC5858" d="M80.34,22.754c0,0-7.894,8.885-11.077,17.038c0,0,2.697,5.031,9.308,7.006
		C85.176,48.768,80.34,22.754,80.34,22.754z"/>
	<path fill="#A83939" d="M77.084,46.264l1.283-12.787l-3.013,11.974C75.89,45.75,76.471,46.02,77.084,46.264z"/>
	<path fill="#FFFFFF" d="M86.252,20.961l-2.123-0.602c0,0,1.013,1.646,2.49,2.067c1.48,0.422,1.709-0.873,1.709-0.873L86.252,20.961
		z"/>
</g>
</svg>
