<?xml version="1.0" encoding="utf-8"?>
<!-- Generator: Adobe Illustrator 16.0.0, SVG Export Plug-In . SVG Version: 6.00 Build 0)  -->
<!DOCTYPE svg PUBLIC "-//W3C//DTD SVG 1.1//EN" "http://www.w3.org/Graphics/SVG/1.1/DTD/svg11.dtd">
<svg version="1.1" id="Layer_1" xmlns="http://www.w3.org/2000/svg" xmlns:xlink="http://www.w3.org/1999/xlink" x="0px" y="0px"
	 width="300px" height="100px" viewBox="0 0 300 100" enable-background="new 0 0 300 100" xml:space="preserve">
<path fill="#EFEFEF" d="M270.496,202.396l-92.743-46.799c-3.222-1.621-2.822-4.468,0.902-6.348l0,0
	c3.723-1.871,9.351-2.081,12.58-0.451l92.737,46.799c3.221,1.622,2.82,4.468-0.899,6.343l0,0
	C279.351,203.818,273.718,204.022,270.496,202.396z"/>
<path fill="#CC5858" d="M287.285-45.517L187.364-95.95c-3.286-1.661-6.265-1.697-8.52-0.453l-0.008-0.02l-12.541,6.345l8.407,1.371
	c-0.028,0.376-0.051,0.759-0.051,1.156v205.991c0,8.177,5.687,17.677,12.704,21.221l98.521,49.719
	c-0.896,2.46-2.805,7.634-2.805,7.634l12.26-6.216l0,0c2.85-1.282,4.661-4.489,4.661-9.109V-24.302
	C299.994-32.477,294.302-41.978,287.285-45.517z"/>
<path fill="#771818" d="M174.654,118.436c0,8.176,5.692,17.677,12.71,21.217l98.52,49.725c-0.894,2.458-2.809,7.636-2.809,7.636
	l12.264-6.218l0,0c2.85-1.281,4.661-4.489,4.661-9.111V-24.302c0-4.266-1.555-8.88-4.037-12.837L174.652,24.072v94.363H174.654z"/>
<path fill="#E96B56" d="M274.688,196.464l-99.936-50.426c-7.014-3.539-12.703-13.039-12.703-21.217V-81.175
	c0-8.176,5.686-11.938,12.703-8.396l99.93,50.433c7.008,3.54,12.7,13.041,12.7,21.222V188.07
	C287.389,196.256,281.697,200.009,274.688,196.464z"/>
<path fill="#FFFFFF" d="M275.988-39.867l-99.931-50.43c-3.614-1.826-6.871-1.697-9.188-0.04c2.168-0.912,4.902-0.739,7.89,0.767
	l99.928,50.433c7.01,3.54,12.701,13.041,12.701,21.222V188.07c0,3.96-1.343,6.872-3.514,8.432c2.932-1.231,4.813-4.466,4.813-9.167
	V-18.648C288.688-26.826,282.995-36.324,275.988-39.867z"/>
<path fill="#FFFFFF" d="M272.821,189.648l-96.022-48.46c-5.217-2.633-9.438-9.695-9.438-15.776v-203.06
	c0-6.079,4.221-8.874,9.438-6.239l96.022,48.462c5.211,2.63,9.438,9.693,9.438,15.772v203.06
	C282.265,189.486,278.04,192.284,272.821,189.648z"/>
<path fill="#CC5858" d="M273.608,189.36l-96.013-48.462c-5.216-2.629-9.446-9.693-9.446-15.771V-77.93
	c0-3.41,1.333-5.785,3.426-6.747c-2.535,0.689-4.214,3.21-4.214,7.032v203.062c0,6.081,4.224,13.145,9.438,15.778l96.022,48.459
	c2.287,1.154,4.391,1.262,6.021,0.512C277.34,190.57,275.547,190.341,273.608,189.36z"/>
<path fill="#EFEFEF" d="M233.537,127.277l-47.128-23.779V3.364l22.211,11.207c15.415,7.777,24.915,22.166,24.915,37.732v74.974
	H233.537z"/>
<g>
	<path fill="#E96B56" d="M169.559-6.323l0.008,0.008c-4.758-2.477-11.368-2.176-18.669,1.513
		C136.45,2.49,124.689,20.286,124.689,34.87v10.526l0,0l0,0l0,0l0.495,0.256l47.219,24.274l0.716-12.593l0.589-4.889l2.505-7.597
		l0.288-1.16l5.374-9.455l4.224-4.614l3.437-3.571l8.352-5.748l0.733-0.477l4.106-1.544l5.524-1.256h4.306l4.816,0.739
		L169.559-6.323z"/>
	<path fill="#D4ECFF" d="M175.583,91.013l1.531-0.774v-47.95c-0.793,0.946-1.165,2.163-1.531,3.396V91.013z"/>
	<polygon fill="#E96B56" points="223.292,115.039 175.583,91.013 176.072,45.617 177.896,41.036 183.415,32.735 189.95,25.957 
		195.841,21.842 202.212,18.467 213.769,17.308 219.875,20.329 223.292,24.9 224.37,31.911 224.004,107.789 	"/>
	<path fill="#CC5858" d="M169.566-6.315c-3.976-2.074-9.258-2.185-15.153-0.016l48.62,24.531l5.212-1.186h4.305l4.815,0.739
		L169.559-6.318L169.566-6.315z"/>
	<g>
		<path fill="#E96B56" d="M155.558-6.726c-1.516,0.487-3.072,1.122-4.66,1.923c-1.059,0.537-2.109,1.137-3.14,1.781l48.464,24.454
			l1.659-1.145l0.733-0.472l4.106-1.548l1.639-0.368L155.558-6.726z"/>
		<path fill="#FFFFFF" d="M189.937,25.756l6.59-4.535L148.082-3.225c-2.194,1.346-4.303,2.923-6.309,4.682L189.937,25.756z"/>
		<path fill="#CC5858" d="M224.826,114.269l-1.534,0.771V33.215c0-13.733-11.071-19.317-24.678-12.453
			c-13.611,6.867-24.681,23.628-24.681,37.354v11.028l-1.532,0.774V58.89c0-14.587,11.748-32.381,26.205-39.674
			c14.451-7.289,26.212-1.36,26.212,13.223v81.83H224.826z"/>
	</g>
</g>
<polygon fill="#EAADAD" points="139.165,27.045 136.481,36.648 137.821,52.143 134.415,50.396 130.064,41.968 133.872,31.32 "/>
<g>
	<path opacity="0.4" fill="#FFFFFF" enable-background="new    " d="M217.228,88.457c-0.286,0-0.588-0.079-0.892-0.229
		l-34.697-17.511c-1.023-0.517-1.821-1.834-1.821-3.004v-23.86c0-0.702,0.296-1.255,0.813-1.511
		c0.455-0.229,1.016-0.207,1.565,0.072l34.708,17.51c1.022,0.517,1.818,1.83,1.818,3.001V86.79c0,0.695-0.295,1.25-0.81,1.51
		C217.697,88.408,217.469,88.457,217.228,88.457z M181.306,43.166c-0.043,0-0.082,0.004-0.117,0.022
		c-0.109,0.062-0.255,0.269-0.255,0.666v23.86c0,0.824,0.581,1.813,1.262,2.158l34.7,17.509c0.09,0.045,0.318,0.148,0.449,0.072
		c0.118-0.058,0.256-0.269,0.256-0.664V62.925c0-0.825-0.574-1.81-1.259-2.154l-34.703-17.508
		C181.578,43.227,181.434,43.166,181.306,43.166z"/>
	<g>
		<path fill="#E8B3B3" d="M192.419,71.693l-0.25-0.124c-0.904-0.455-1.631-1.683-1.631-2.734v-11.37c0-1.051,0.732-1.54,1.631-1.08
			l0.25,0.121c0.905,0.455,1.633,1.683,1.633,2.734v11.369C194.052,71.663,193.318,72.145,192.419,71.693z"/>
		<path fill="#E8B3B3" d="M199.395,75.213l-0.245-0.126c-0.909-0.449-1.635-1.679-1.635-2.732V65.7c0-1.054,0.732-1.54,1.635-1.084
			l0.245,0.126c0.905,0.453,1.633,1.68,1.633,2.733v6.653C201.027,75.184,200.293,75.67,199.395,75.213z"/>
		<path fill="#A83939" d="M206.371,78.733l-0.241-0.121c-0.913-0.457-1.639-1.683-1.639-2.739V60.035
			c0-1.052,0.731-1.541,1.639-1.087l0.241,0.126c0.907,0.451,1.632,1.684,1.632,2.735V77.65
			C208.003,78.702,207.27,79.195,206.371,78.733z"/>
	</g>
</g>
<path fill="#EFEFEF" d="M87.792,144.323c13.657,0,24.729,5.585,24.729,12.478c0,6.895-11.072,12.479-24.729,12.479
	c-13.657,0-24.728-5.584-24.728-12.479C63.065,149.908,74.136,144.323,87.792,144.323z"/>
<g>
	<path fill="#EFEFEF" d="M129.379,196.521c11.658,5.883,30.562,5.883,42.219,0c11.659-5.879,11.659-15.416,0-21.301
		c-11.657-5.88-30.562-5.88-42.219,0C117.724,181.104,117.724,190.642,129.379,196.521z"/>
	<g>
		<path fill="#771818" d="M132.201,177.884c-2.079,0.783-3.384,2.801-3.217,4.983c0.084,1.021,0.226,1.978,0.47,2.433
			c0.666,1.219,2.833,2.88,6.295,1.687c3.463-1.192,11.146-7.507,11.436-11.636C147.724,167.668,137.678,175.838,132.201,177.884z"
			/>
		<path fill="#771818" d="M152.543,190.583c0,0-0.831,4.426-0.429,5.237c0.407,0.813,2.813,2.542,6.375,2.167
			c3.56-0.374,13.802-3.459,16.076-9.358c3.533-9.148-19.763,0.688-19.763,0.688L152.543,190.583z"/>
		<path fill="#E96B56" d="M162.54,119.829l0.797,69.091c-0.081,2.398-1.889,4.432-4.309,4.789c-0.304,0.047-0.614,0.077-0.962,0.108
			c-2.45,0.184-3.885-0.732-4.697-1.699c-0.668-0.787-1.009-1.772-1.062-2.789l-1.007-29.495l-5.043-26.372l-6.968,46.673
			c-0.111,1.264-0.807,2.431-1.918,3.077c-0.767,0.444-1.811,0.792-3.179,0.748c-1.998-0.05-3.382-0.985-4.232-1.821
			c-0.669-0.654-1.023-1.566-1.008-2.497l2.761-28.085l1.03-35.816L162.54,119.829z"/>
		<path fill="#FFC2B0" d="M152.308,57.98l-1.251,6.297c0,0-0.045,2.145,2.703,2.748c2.734,0.587,3.588-0.957,3.588-0.957l1.244-7.09
			L152.308,57.98z"/>
		<path fill="#FFC2B0" d="M167.437,54.54c-1.949,5.389-7.977,8.524-13.466,6.989c-5.493-1.537-8.363-7.148-6.414-12.543
			c1.942-5.394,7.973-8.523,13.47-6.987C166.511,43.523,169.38,49.143,167.437,54.54z"/>
		<path fill="#CC5858" d="M152.639,64.395c-0.193-0.065-11.646-6.512-15.882,0.229c-6.898,10.993-1.854,23.609-4.318,50.986
			c-0.412,4.585,7.054,7.37,10.582,9.14c3.14,1.566,6.656,2.525,10.275,2.552c3.576,0.023,10.435-2.756,10.185-6.845
			c-1.147-18.807,0.761-34.66,2.518-50.039C166.004,70.417,163.814,68.348,152.639,64.395z"/>
		<path fill="#A83939" d="M146.271,133.462l-6.972,46.673c-0.111,1.264-0.804,2.431-1.918,3.077
			c-0.182,0.107-0.379,0.202-0.591,0.292c1.446-0.95,5.67-40.125,6.457-44.481C144.026,134.659,146.271,133.462,146.271,133.462z"/>
	</g>
	<polygon fill="#FFC2B0" points="189.769,70.092 199.359,53.456 196.349,51.798 186.409,64.467 	"/>
	<polygon fill="#FFC2B0" points="126.523,52.43 131.192,33.883 134.902,33.918 133.507,49.3 	"/>
	<path fill="#CC5858" d="M166.004,70.417c0,0,10.725,3.693,19.942-6.467c0.814-0.896,2.481-0.796,2.961,0.171
		c0.834,1.663,1.866,4.178,0.61,6.542c-5.565,10.446-24.57,10.08-29.151,15.938C155.785,92.457,166.004,70.417,166.004,70.417z"/>
	<path fill="#CC5858" d="M145.37,62.081c0,0-8.857,0.593-10.131-6.104c-0.659-3.45-0.858-5.515-0.888-6.698
		c-0.026-0.802-0.826-1.411-1.74-1.311c-2.12,0.229-5.405,0.784-5.851,2.028c-0.665,1.854-1.917,10.951,6.829,24.907
		C139.324,84.049,145.37,62.081,145.37,62.081z"/>
	<path fill="#FFC2B0" d="M131.172,33.931l0.085-2.115c0.03-0.746,0.275-1.478,0.722-2.114l2.452-3.525l0.636-0.705
		c0.592-0.651,1.648-0.809,2.456-0.367l0.565,0.31c0.722,0.396,1.134,1.103,1.08,1.843l-1.267,3.009l1.604-0.273
		c0.308-0.054,0.612,0.127,0.669,0.401l0,0c0.044,0.229-0.097,0.461-0.347,0.548l-2.622,0.925l-2.378,2.948L131.172,33.931z"/>
	<path fill="#FFC2B0" d="M199.434,53.563l1.117-1.88c0.399-0.657,0.592-1.402,0.565-2.149l-0.139-4.124l-0.165-0.888
		c-0.145-0.827-0.967-1.412-1.922-1.379l-0.666,0.029c-0.849,0.033-1.608,0.47-1.982,1.135l-0.601,3.165l-1.245-0.931
		c-0.236-0.18-0.603-0.15-0.81,0.063l0,0c-0.178,0.179-0.178,0.442-0.007,0.628l1.752,1.931l0.46,4.036L199.434,53.563z"/>
	<path fill="#A83939" d="M159.007,84.509c-0.932,3.712,4.683,31.736-1.556,41.985c3.126-1.101,6.211-3.272,6.037-6.031
		c-0.813-13.451-0.072-25.385,1.057-36.722c5.34-2.367,13.684-3.774,19.582-7.55C177.802,78.224,159.844,81.193,159.007,84.509z"/>
	<path fill="#FFFFFF" d="M148.519,62.613l1.59-1.429c0,0,2.613,2.338,4.714,2.742c0,0,2.532,0.624,3.765,0.679l1.024,2.462
		C159.616,67.079,151.285,66.555,148.519,62.613z"/>
	<path fill="#771818" d="M159.963,54.701c0.435-0.007,0.85-0.179,1.096-0.493c0.438-0.553,0.162-3.081,1.5-3.498
		c2.098-0.652,7.063,1.637,7.596-4.969c0.276-3.432-1.639-4.345-1.633-6.223c0,0,0.174,0.943-9.936,0.359
		c-10.108-0.589-13.388,7.254-13.629,10.99c-0.238,3.736,1.829,9.874,8.733,10.722c1.147,0.138,5.96-3.241,5.836-3.687
		c-0.123-0.447-1.943-0.421-1.684-1.713C158.059,55.12,158.806,54.72,159.963,54.701z"/>
</g>
<g>
	<g>
		<path fill="#EFEFEF" d="M221.91,150.737l-30.529-15.403c-1.354-0.688-2.458-2.522-2.458-4.102v-19.841
			c0-1.575,1.104-2.304,2.458-1.625l30.529,15.403c1.361,0.688,2.46,2.521,2.46,4.104v19.837
			C224.37,150.701,223.262,151.419,221.91,150.737z"/>
		<path fill="#771818" d="M218.891,119.263l-30.531-15.403c-0.602-0.306-1.15-0.316-1.576-0.115v-0.012l-2.96,1.489
			c0,0,1.314,0.426,2.082,0.67v19.433c0,1.579,1.103,3.416,2.454,4.1l29.18,14.726v2.275l2.994-1.501l-0.021-0.007
			c0.513-0.269,0.83-0.862,0.83-1.717v-19.835C221.348,121.783,220.25,119.948,218.891,119.263z"/>
		<path fill="#CC5858" d="M215.88,146.345l-30.535-15.404c-1.355-0.686-2.455-2.521-2.455-4.098v-19.84
			c0-1.58,1.1-2.307,2.455-1.621l30.535,15.402c1.355,0.683,2.454,2.518,2.454,4.099v19.838
			C218.331,146.309,217.228,147.036,215.88,146.345z"/>
		<path fill="#FFFFFF" d="M215.88,120.784l-30.535-15.402c-0.768-0.392-1.446-0.313-1.894,0.105c0.328-0.019,0.69,0.052,1.077,0.242
			l30.533,15.404c1.356,0.685,2.456,2.521,2.456,4.102v19.841c0,0.683-0.214,1.188-0.554,1.508c0.81-0.056,1.372-0.74,1.372-1.863
			v-19.838C218.331,123.302,217.228,121.466,215.88,120.784z"/>
	</g>
	<g>
		<path fill="#FFFFFF" d="M195.612,124.106c0,1.142-0.919,1.608-2.057,1.04c-1.137-0.57-2.057-1.973-2.057-3.122
			c0-1.151,0.92-1.614,2.057-1.04C194.688,121.562,195.612,122.956,195.612,124.106z"/>
		<path fill="#FFFFFF" d="M201.857,127.252c0,1.146-0.927,1.613-2.062,1.042c-1.138-0.572-2.061-1.974-2.061-3.124
			c0-1.147,0.923-1.611,2.061-1.04C200.931,124.707,201.857,126.103,201.857,127.252z"/>
		<path fill="#FFFFFF" d="M208.097,130.404c0,1.15-0.922,1.613-2.061,1.042c-1.137-0.569-2.061-1.974-2.061-3.12
			c0-1.15,0.924-1.615,2.061-1.044C207.167,127.855,208.097,129.257,208.097,130.404z"/>
	</g>
</g>
<g>
	<g>
		<g>
			<path fill="#EFEFEF" d="M272.544,176.289l-30.527-15.4c-1.355-0.688-2.456-2.521-2.456-4.104v-44.652
				c0-1.577,1.101-2.308,2.456-1.626l30.527,15.404c1.36,0.688,2.462,2.521,2.462,4.105v44.65
				C275.006,176.247,273.904,176.975,272.544,176.289z"/>
			<path fill="#771818" d="M269.529,120.002l-30.527-15.403c-0.609-0.3-1.157-0.312-1.576-0.107v-0.019l-2.961,1.493
				c0,0,1.308,0.421,2.073,0.667v44.241c0,1.583,1.104,3.418,2.464,4.105l29.173,14.722v2.28l3-1.51l-0.021-0.006
				c0.505-0.265,0.828-0.859,0.828-1.713v-44.646C271.981,122.523,270.893,120.688,269.529,120.002z"/>
			<path fill="#CC5858" d="M266.51,171.897l-30.529-15.403c-1.357-0.686-2.459-2.521-2.459-4.103v-44.655
				c0-1.579,1.102-2.308,2.459-1.625l30.529,15.404c1.358,0.682,2.46,2.519,2.46,4.1v44.651
				C268.97,171.861,267.868,172.58,266.51,171.897z"/>
			<path fill="#FFFFFF" d="M266.51,121.521l-30.529-15.403c-0.776-0.388-1.444-0.309-1.899,0.112
				c0.329-0.023,0.695,0.048,1.08,0.241l30.53,15.404c1.362,0.684,2.461,2.519,2.461,4.1v44.653c0,0.681-0.215,1.191-0.554,1.512
				c0.81-0.064,1.371-0.742,1.371-1.866v-44.651C268.97,124.04,267.868,122.204,266.51,121.521z"/>
		</g>
	</g>
	<g>
		<path fill="#FFFFFF" d="M255.699,127.572c0,2.479-1.991,3.488-4.451,2.247c-2.464-1.243-4.458-4.265-4.458-6.743
			c0-2.482,1.994-3.492,4.458-2.246C253.708,122.071,255.699,125.087,255.699,127.572z"/>
		<path fill="#FFFFFF" d="M257.556,134.587c-0.008-0.036-0.01-0.077-0.018-0.118c-0.193-1.046-1.32-1.965-2.072-1.729
			c-1.155,0.354-2.621,0.186-4.225-0.621c-1.599-0.811-3.07-2.11-4.22-3.639c-0.747-0.98-1.876-1.21-2.075-0.356
			c-0.005,0.035-0.013,0.062-0.019,0.097l-2.108,11.723l16.843,8.502L257.556,134.587z"/>
	</g>
	<g>
		<polygon fill="#FFFFFF" points="260.865,157.367 240.407,147.046 240.407,145.759 260.865,156.079 		"/>
		<polygon fill="#FFFFFF" points="254.684,159.882 240.407,152.673 240.407,151.386 254.684,158.595 		"/>
		<polygon fill="#FFFFFF" points="252.761,156.096 240.407,149.865 240.407,148.576 252.761,154.809 		"/>
		<polygon fill="#FFFFFF" points="260.865,160.189 254.684,157.067 254.684,155.78 260.865,158.896 		"/>
	</g>
</g>
<g>
	<g>
		<g>
			<path fill="#EFEFEF" d="M272.544,113.137l-30.527-15.404c-1.355-0.685-2.456-2.521-2.456-4.099V48.979
				c0-1.579,1.101-2.312,2.456-1.623l30.527,15.401c1.36,0.689,2.462,2.521,2.462,4.103v44.652
				C275.006,113.088,273.904,113.819,272.544,113.137z"/>
			<path fill="#CC5858" d="M269.529,56.843l-30.527-15.4c-0.609-0.306-1.157-0.315-1.576-0.115v-0.016l-2.961,1.494
				c0,0,1.308,0.418,2.073,0.664v44.244c0,1.58,1.104,3.413,2.464,4.103l29.173,14.721v2.279l3-1.503l-0.021-0.006
				c0.505-0.272,0.828-0.867,0.828-1.714v-44.65C271.981,59.364,270.893,57.536,269.529,56.843z"/>
			<path fill="#E96B56" d="M266.51,108.744L235.98,93.342c-1.357-0.686-2.459-2.521-2.459-4.103V44.591
				c0-1.582,1.102-2.309,2.459-1.627l30.529,15.404c1.358,0.683,2.46,2.518,2.46,4.101v44.65
				C268.97,108.702,267.868,109.428,266.51,108.744z"/>
			<path fill="#FFFFFF" d="M266.51,58.368L235.98,42.964c-0.776-0.384-1.444-0.306-1.899,0.111c0.329-0.021,0.695,0.046,1.08,0.243
				l30.53,15.401c1.362,0.684,2.461,2.521,2.461,4.102v44.653c0,0.681-0.215,1.192-0.554,1.511c0.81-0.058,1.371-0.74,1.371-1.866
				v-44.65C268.97,60.886,267.868,59.051,266.51,58.368z"/>
		</g>
	</g>
	<g>
		<polygon fill="#CC5858" points="260.908,68.448 240.46,58.124 240.46,56.837 260.908,67.161 		"/>
		<polygon fill="#CC5858" points="254.74,70.965 240.46,63.756 240.46,62.469 254.74,69.677 		"/>
		<polygon fill="#CC5858" points="252.806,67.18 240.46,60.943 240.46,59.655 252.806,65.89 		"/>
		<polygon fill="#CC5858" points="260.908,71.26 254.74,68.147 254.74,66.86 260.908,69.973 		"/>
	</g>
	<g>
		<polygon fill="#CC5858" points="260.908,79.321 240.46,68.996 240.46,67.709 260.908,78.033 		"/>
		<polygon fill="#CC5858" points="254.74,81.837 240.46,74.631 240.46,73.342 254.74,80.55 		"/>
		<polygon fill="#CC5858" points="252.806,78.045 240.46,71.815 240.46,70.528 252.806,76.764 		"/>
		<polygon fill="#CC5858" points="260.908,82.133 254.74,79.018 254.74,77.73 260.908,80.845 		"/>
	</g>
	<g>
		<polygon fill="#CC5858" points="260.908,90.194 240.46,79.871 240.46,78.582 260.908,88.907 		"/>
		<polygon fill="#CC5858" points="254.74,92.71 240.46,85.503 240.46,84.208 254.74,91.423 		"/>
		<polygon fill="#CC5858" points="252.806,88.921 240.46,82.685 240.46,81.397 252.806,87.634 		"/>
		<polygon fill="#CC5858" points="260.908,93.005 254.74,89.892 254.74,88.604 260.908,91.715 		"/>
	</g>
</g>
<g>
	<polygon fill="#FFFFFF" points="196.455,87.234 181.868,79.871 181.868,78.685 196.455,86.043 	"/>
	<polygon fill="#FFFFFF" points="205.502,91.796 199.271,88.654 199.271,87.46 205.502,90.61 	"/>
	<polygon fill="#FFFFFF" points="196.961,90.081 190.732,86.933 190.732,85.746 196.961,88.89 	"/>
	<polygon fill="#FFFFFF" points="210.451,96.886 199.271,91.247 199.271,90.054 210.451,95.701 	"/>
	<polygon fill="#FFFFFF" points="218.113,103.341 201.567,94.989 201.567,93.805 218.113,102.15 	"/>
	<polygon fill="#FFFFFF" points="214.406,96.289 208.184,93.149 208.184,91.958 214.406,95.104 	"/>
	<polygon fill="#FFFFFF" points="188.097,85.61 181.868,82.463 181.868,81.271 188.097,84.419 	"/>
	<polygon fill="#FFFFFF" points="198.896,93.648 181.84,85.039 181.84,83.848 198.896,92.457 	"/>
	<polygon fill="#FFFFFF" points="192.327,92.925 182.039,87.733 182.039,86.542 192.327,91.733 	"/>
</g>
<g>
	<path fill="#EFEFEF" d="M268.614,30.81L188.782-9.474c-5.174-2.608-9.364-9.604-9.364-15.634l0,0c0-6.025,4.19-8.792,9.364-6.184
		l79.832,40.287c5.168,2.608,9.356,9.605,9.356,15.631l0,0C277.978,30.646,273.788,33.419,268.614,30.81z"/>
	<path fill="#771818" d="M276.012,20.667c0-6.027-4.191-13.025-9.359-15.635l-79.835-40.28c-2.408-1.218-4.592-1.252-6.255-0.35
		l0.008-0.021l-3.932,2.004l1.812,0.18c-0.635,1.149-0.995,2.615-0.995,4.368l0,0c0,6.026,4.19,13.022,9.362,15.633l79.839,40.284
		c1.007,0.509,1.979,0.808,2.892,0.924l-0.483,1.403l3.881-1.979h-0.037C274.811,26.163,276.012,23.882,276.012,20.667z"/>
	<path fill="#CC5858" d="M262.829,28.795l-79.834-40.286c-5.172-2.61-9.366-9.604-9.366-15.632l0,0c0-6.028,4.194-8.792,9.366-6.182
		l79.834,40.282c5.167,2.608,9.361,9.605,9.361,15.635l0,0C272.198,28.635,267.996,31.404,262.829,28.795z"/>
	<path fill="#FFFFFF" d="M263.622,6.527L183.79-33.755c-2.633-1.328-5-1.253-6.709-0.076c1.611-0.719,3.673-0.602,5.914,0.529
		l79.834,40.286c5.167,2.609,9.361,9.604,9.361,15.635c0,2.955-1.016,5.127-2.661,6.261c2.109-0.941,3.449-3.306,3.449-6.719
		C272.984,16.133,268.796,9.136,263.622,6.527z"/>
</g>
<g>
	<path fill="#EFEFEF" d="M238.639-17.521l-49.47-24.934c-5.166-2.607-9.358-9.604-9.358-15.633l0,0c0-6.027,4.192-8.792,9.358-6.182
		l49.47,24.931c5.168,2.613,9.357,9.606,9.357,15.635l0,0C248.002-17.687,243.814-14.92,238.639-17.521z"/>
	<path fill="#CC5858" d="M245.646-27.688c0-6.029-4.198-13.025-9.362-15.635l-49.467-24.932c-2.408-1.218-4.592-1.247-6.255-0.349
		l0.008-0.021l-3.932,2.005l1.812,0.18c-0.635,1.149-0.995,2.614-0.995,4.368l0,0c0,6.026,4.19,13.022,9.362,15.63l49.469,24.932
		c1.009,0.513,1.982,0.808,2.894,0.924l-0.483,1.402l3.872-1.978h-0.027C244.437-22.196,245.646-24.472,245.646-27.688z"/>
	<path fill="#E96B56" d="M232.461-19.563L182.995-44.49c-5.172-2.613-9.366-9.606-9.366-15.635l0,0c0-6.028,4.194-8.792,9.366-6.183
		l49.466,24.931c5.168,2.61,9.362,9.606,9.362,15.635l0,0C241.823-19.72,237.629-16.95,232.461-19.563z"/>
	<path fill="#FFFFFF" d="M233.254-41.827l-49.471-24.93c-2.632-1.329-5-1.255-6.71-0.077c1.612-0.72,3.674-0.599,5.914,0.532
		l49.466,24.931c5.17,2.61,9.362,9.606,9.362,15.632c0,2.958-1.017,5.127-2.662,6.264c2.11-0.938,3.451-3.306,3.451-6.716
		C242.61-32.22,238.42-39.217,233.254-41.827z"/>
</g>
<g>
	<polygon fill="#CC5858" points="210.119,-42.42 189.66,-52.744 189.66,-54.032 210.119,-43.707 	"/>
	<polygon fill="#CC5858" points="226.368,-34.226 212.095,-41.435 212.095,-42.722 226.368,-35.513 	"/>
	<polygon fill="#CC5858" points="202.015,-43.693 189.66,-49.925 189.66,-51.213 202.015,-44.98 	"/>
	<polygon fill="#CC5858" points="210.119,-39.601 203.938,-42.722 203.938,-44.01 210.119,-40.89 	"/>
</g>
<g>
	<polygon fill="#FFFFFF" points="258.195,15.288 237.743,4.966 237.743,3.679 258.195,14.001 	"/>
	<polygon fill="#FFFFFF" points="235.836,4 221.563,-3.201 221.563,-4.488 235.836,2.713 	"/>
	<polygon fill="#FFFFFF" points="250.093,14.016 237.743,7.782 237.743,6.495 250.093,12.724 	"/>
	<polygon fill="#FFFFFF" points="258.195,18.104 252.02,14.986 252.02,13.699 258.195,16.815 	"/>
	<polygon fill="#FFFFFF" points="235.836,6.806 229.66,3.684 229.66,2.393 235.836,5.511 	"/>
</g>
<g>
	<polygon fill="#CC5858" points="137.27,19.472 134.128,17.889 134.648,17.055 137.794,18.644 	"/>
	<path fill="#CC5858" d="M131.352,16.487l0.521-0.827l-1.196-0.604c-0.16,0.282-0.3,0.569-0.464,0.854L131.352,16.487z"/>
	<polygon fill="#CC5858" points="143.194,22.465 140.046,20.87 140.566,20.043 143.718,21.631 	"/>
	<polygon fill="#CC5858" points="149.117,25.448 145.967,23.865 146.493,23.031 149.64,24.62 	"/>
	<polygon fill="#CC5858" points="155.038,28.439 151.894,26.851 152.41,26.022 155.558,27.604 	"/>
	<polygon fill="#CC5858" points="160.957,31.426 157.812,29.843 158.338,29.007 161.484,30.598 	"/>
	<polygon fill="#CC5858" points="166.883,34.417 163.734,32.827 164.257,31.998 167.402,33.581 	"/>
	<polygon fill="#CC5858" points="172.802,37.403 169.657,35.815 170.173,34.98 173.328,36.574 	"/>
	<polygon fill="#CC5858" points="178.728,40.394 175.583,38.804 176.099,37.976 179.247,39.559 	"/>
</g>
<g>
	<polygon fill="#CC5858" points="194.133,26.541 190.932,24.922 191.584,24.145 194.133,25.427 	"/>
	<polygon fill="#CC5858" points="200.154,29.577 196.955,27.967 196.955,26.853 200.154,28.467 	"/>
	<polygon fill="#CC5858" points="206.18,32.618 202.977,31.007 202.977,29.893 206.18,31.512 	"/>
	<polygon fill="#CC5858" points="212.2,35.662 209.007,34.041 209.007,32.932 212.2,34.547 	"/>
	<polygon fill="#CC5858" points="218.229,38.695 215.021,37.086 215.021,35.969 218.229,37.587 	"/>
	<polygon fill="#CC5858" points="224.246,41.736 221.045,40.12 221.045,39.01 224.246,40.625 	"/>
</g>
<polygon fill="#FFFFFF" points="219.668,-4.147 208.147,-9.951 208.147,-11.243 219.668,-5.435 "/>
<g>
	<g>
		<path fill="#4C0202" d="M73.766,25.677c0,0,0.588,9.915,1.506,16.573c0.92,6.662,20.508-5.112,20.508-5.112v-7.587L73.766,25.677z
			"/>
		<g>
			<path fill="#771818" d="M84.203,149.004c0.295,0.606,5.372,5.667,10.446,6.931c2.21,0.548,3.689,0.62,4.661,0.529
				c0.977-0.096,1.578-0.921,1.25-1.679c-0.879-2.008-3.381-6.206-9.742-8.788C82.213,142.494,84.203,149.004,84.203,149.004z"/>
			<path fill="#771818" d="M82.511,150.946c0,0,1.912,3.678,2.503,6.751c0.362,1.877-0.893,4.309-1.929,5.922
				c-0.645,1.004-2.267,1.228-3.29,0.464c-1.66-1.23-3.77-3.371-4.121-6.444c-0.588-5.186,0-6.087,0-6.087L82.511,150.946z"/>
			<path fill="#E96B56" d="M70.287,88.328c0,0-0.666,6.535,0,13.763c0.662,7.231,3.03,41.04,3.473,49.174
				c0,0-0.22,2.462,5.601,1.922c5.82-0.55,5.35-3.279,5.35-3.279s8.175-0.091,8.432-4.037c0.258-3.942,8.377-47.125,8.377-62.643
				L70.287,88.328z"/>
			<g>
				<path fill="#FFC2B0" d="M104.534,54.54l4.005,5.077l13.766,13.615c0,0-0.476,1.269-2.186,1.596
					c-1.338,0.259-12.918-8.783-17.914-12.758c-1.328-1.052-1.551-2.734-0.528-3.994L104.534,54.54z"/>
				<path fill="#8C2A2A" d="M96.723,33.684c0,0,6.357-0.131,8.569,7.395c2.213,7.524,3.947,16.957,2.021,17.745
					c-5.78,2.352-9.441-0.397-9.441-0.397L96.723,33.684z"/>
				<path fill="#A83939" d="M98.625,34.005c-1.089-0.371-2.304-0.424-3.429-0.159c-5.42,1.279-25.798,6.175-29.157,8.528
					c-3.88,2.72,5.82,17.977,5.677,22.982c-0.14,5.007-0.828,10.908-1.369,16.35c-0.541,5.438-1.267,8.423,4.163,10.732
					c5.431,2.316,14.71,2.42,21.656-1.911c6.942-4.337,5.683-7.297,5.391-10.448c-0.29-3.146-2.651-16.752-2.445-20.619
					c0,0,2.445-1.479,4.263-4.012c1.814-2.528-1.392-7.183-2.715-10.209c-1.325-3.024,0.75-6.485,0.34-8.956
					C100.774,35.021,99.784,34.402,98.625,34.005z"/>
				<path fill="#FFFFFF" d="M92.112,39.208c0.432,2.751-2.651,5.338-6.872,5.778c-4.232,0.444-8.009-1.422-8.432-4.172
					c-0.433-2.751,2.65-5.337,6.871-5.777C87.903,34.592,91.68,36.456,92.112,39.208z"/>
				<path fill="#FFC2B0" d="M89.924,39.436c0.309,1.966-1.89,3.814-4.917,4.134c-3.023,0.321-5.722-1.02-6.034-2.986
					c-0.306-1.965,1.896-3.813,4.919-4.133C86.919,36.136,89.619,37.471,89.924,39.436z"/>
				<path fill="#FFC2B0" d="M86.926,32.986c0,0-3.674-2.479-4.404-1.222c-0.73,1.257-1.321,6.641-1.321,6.641l7.304,1.608
					l-1.108-5.456C87.4,34.552,88.862,33.54,86.926,32.986z"/>
				<path fill="#FFC2B0" d="M98.335,27.084c-0.352,4.926-5.514,8.682-11.533,8.394c-6.011-0.295-10.6-4.521-10.249-9.44
					c0.354-4.926,5.52-8.685,11.534-8.394C94.109,17.924,98.697,22.156,98.335,27.084z"/>
				<path fill="#EA9C92" d="M82.012,33.323c-0.064,0.279-0.128,0.582-0.187,0.89c0.736,3.108,6.408,4.472,6.408,4.472L87.4,34.554
					c0,0,0.687-0.474,0.495-0.958C85.65,33.015,82.819,32.5,82.012,33.323z"/>
				<path fill="#FFC2B0" d="M98.335,27.084c-0.352,4.926-5.514,8.682-11.533,8.394c-6.011-0.295-10.6-4.521-10.249-9.44
					c0.354-4.926,5.52-8.685,11.534-8.394C94.109,17.924,98.697,22.156,98.335,27.084z"/>
				<polygon fill="#FFC2B0" points="60.579,64.371 61.797,88.278 66.063,88.637 68.843,67.119 				"/>
				<path fill="#8C2A2A" d="M74.599,62.372c-1.41-5.103-4.201-16.382-4.201-16.382l-1.192,11.222
					c1.378,3.327,2.557,6.378,2.51,8.151c-0.081,2.936-0.353,6.184-0.676,9.465v0.011C71.037,74.834,76.015,67.481,74.599,62.372z"
					/>
				<path fill="#A83939" d="M66.849,41.884c0,0-3.409,1.069-5.341,9.653c-1.933,8.589-3.375,17.186,0.064,18.29
					c3.445,1.107,6.319,1.943,7.33-0.354c1.014-2.29,1.644-13.359,1.764-17.331C70.8,48.157,70.988,42.667,66.849,41.884z"/>
				<path fill="#FFC2B0" d="M121.284,72.234c0,0,1.848,0.559,3.187,1.75c1.094,0.98,1.699,1.809,2.176,2.391
					c1.063,1.299,1.958,4.103,1.313,4.447c-0.651,0.35-4.358-4.696-4.949-3.521c-0.598,1.177,0.007,2.262-0.761,2.279
					c-0.765,0.019-3.432-5.074-5.523-6.653C114.614,71.349,121.284,72.234,121.284,72.234z"/>
			</g>
			<path fill="#F79A9A" d="M84.707,149.907c0,0,1.008-0.014,2.335-0.194l0,0l1.604-52.557L84.707,149.907z"/>
		</g>
		<g>
			<path fill="#A83939" d="M78.533,121.521l-2.274-2.427l-23.882-11.317c-0.764-0.361-1.383-1.336-1.383-2.172l0.017-16.013
				l-1.371-1.467l1.29-0.606l0,0c0.244-0.127,0.573-0.127,0.933,0.041l27.062,12.835c0.765,0.365,1.384,1.335,1.384,2.172
				l-0.024,17.436c0,0.469-0.199,0.794-0.509,0.932l0,0L78.533,121.521z"/>
			<path fill="#F27C7C" d="M62.02,112.336l-1.699-0.805l-9.313-13.247l0.013-8.697l-1.372-1.472l1.287-0.607l0,0
				c0.245-0.13,0.574-0.13,0.935,0.046l27.061,12.834c0.408,0.191,0.766,0.553,1.021,0.97L62.02,112.336z"/>
			<path fill="#CC5858" d="M50.257,88.768l-0.614-0.647l1.29-0.608l0,0c0.243-0.13,0.572-0.13,0.933,0.042l0.477,0.229
				L50.257,88.768z"/>
			<path fill="#872727" d="M79.185,100.525c0.598,0.403,1.068,1.169,1.131,1.862l-2.644,1.252l-1.271-1.802L79.185,100.525z"/>
			<path fill="#CC5858" d="M77.644,101.001L50.582,88.166c-0.764-0.366-1.392,0.024-1.392,0.854l-0.024,17.438
				c0,0.836,0.619,1.811,1.385,2.172l27.059,12.835c0.765,0.357,1.392-0.025,1.392-0.858l0.026-17.435
				C79.035,102.33,78.408,101.356,77.644,101.001z"/>
		</g>
		<path fill="#FFC2B0" d="M61.832,88.077c0,0-1.125,5.576-0.959,7.364c0.168,1.786,1.34,4.734,2.229,4.675
			c0.888-0.063,0.031-7.191,1.582-6.479c1.559,0.709,1.717,1.928,2.429,1.497c0.708-0.435-1.229-6.522-0.716-9.16
			C66.912,83.336,61.832,88.077,61.832,88.077z"/>
		<path fill="#EA9C92" d="M91.646,27.337c5.469,1.594,6.538,0.623,6.59,0.573c0.051-0.268,0.09-0.542,0.111-0.822
			c0.071-0.992-0.063-1.95-0.368-2.857l-14.194-1.566C83.775,22.659,86.023,25.7,91.646,27.337z"/>
		<path fill="#750404" d="M98.729,18.185c-1.285-0.907-5.94-5.383-14.278-4.323c-5.206,0.66-9.6,3.572-10.573,10.211
			c-0.656,4.476,1.351,8.877,5.041,12.137c0.199-0.075,0.407-0.145,0.591-0.245c2.085-1.129,2.308-1.74,2.308-1.747l0.465-3.39
			c-0.012-0.479-0.456-0.904-1.041-0.938c-0.45-0.022-1.006-0.199-1.526-0.765c-1.197-1.282-0.645-3.279,1.753-3.355
			c1.249-0.037,1.736-0.594,1.911-1.114c0.156-0.452,0.741-0.707,1.275-0.541c2.722,0.805,9.438,2.545,13.751,1.543
			C103.942,24.368,100.024,19.088,98.729,18.185z"/>
		<path fill="#FFFFFF" d="M92.521,31.371l3.334-0.754c0,0-1.591,2.051-3.919,2.576c-2.323,0.521-2.685-1.087-2.685-1.087
			L92.521,31.371z"/>
		<polygon fill="#295C8E" points="67.503,94.966 64.661,93.634 65.726,95.062 67.165,95.495 		"/>
	</g>
</g>
<path fill="#E96B56" d="M19.056,22.943c-5.392,0-9.777-4.147-9.777-9.244c0-5.1,4.382-9.25,9.777-9.25
	c5.397,0,9.779,4.15,9.779,9.25C28.83,18.796,24.453,22.943,19.056,22.943z M19.056,6.467c-4.216,0-7.646,3.243-7.646,7.232
	c0,3.986,3.429,7.23,7.646,7.23c4.218,0,7.647-3.244,7.647-7.23C26.703,9.71,23.274,6.467,19.056,6.467z"/>
<path fill="#CC5858" d="M283.724-73.542l-4.711-9.051l9.579-4.45l4.702,9.051L283.724-73.542z M281.867-81.675l2.825,5.435
	l5.748-2.671l-2.823-5.433L281.867-81.675z"/>
<g>
	<polygon fill="#E96B56" points="118.112,-78.801 115.87,-80.911 126.498,-90.959 128.733,-88.842 	"/>
	<polygon fill="#E96B56" points="126.498,-78.801 115.87,-88.842 118.112,-90.959 128.733,-80.911 	"/>
</g>
<polygon fill="#CC5858" points="116.231,-25.43 110.11,-22.588 107.104,-28.373 113.226,-31.216 "/>
<g>
	<polygon fill="#CC5858" points="8.593,103.916 8.124,102.204 13.386,100.936 13.848,102.644 	"/>
	<polygon fill="#CC5858" points="5.911,106.394 5.448,104.678 10.702,103.409 11.167,105.118 	"/>
	<polygon fill="#CC5858" points="3.235,108.858 2.771,107.154 8.025,105.874 8.486,107.589 	"/>
	<polygon fill="#CC5858" points="0.552,111.332 0.087,109.624 5.346,108.353 5.81,110.062 	"/>
</g>
<path fill="#CC5858" d="M211.979,200.593l-4.71-9.05l9.573-4.457l4.706,9.055L211.979,200.593z M210.127,192.457l2.827,5.436
	l5.747-2.672l-2.821-5.434L210.127,192.457z"/>
<g>
	<path fill="#CC5858" d="M6.967-66.184l1.082-1.735c0,0,0.908,0.468,1.875,0.186c0.778-0.232,1.446-0.897,1.996-1.972
		c1.936-3.792,5.507-4.085,7.128-3.703l-0.507,1.958l0.257-0.979l-0.244,0.979c-0.308-0.067-3.084-0.567-4.706,2.621
		c-0.824,1.616-1.942,2.636-3.32,3.033C8.68-65.278,7.137-66.092,6.967-66.184z"/>
</g>
<path fill="#E96B56" d="M46.985,185.87c0,4.813-4.128,8.717-9.219,8.717c-5.091,0-9.218-3.908-9.218-8.717
	c0-4.808,4.127-8.715,9.218-8.715C42.857,177.155,46.985,181.058,46.985,185.87z"/>
</svg>
