<?xml version="1.0" encoding="utf-8"?>
<!-- Generator: Adobe Illustrator 16.0.0, SVG Export Plug-In . SVG Version: 6.00 Build 0)  -->
<!DOCTYPE svg PUBLIC "-//W3C//DTD SVG 1.1//EN" "http://www.w3.org/Graphics/SVG/1.1/DTD/svg11.dtd">
<svg version="1.1" id="Layer_1" xmlns="http://www.w3.org/2000/svg" xmlns:xlink="http://www.w3.org/1999/xlink" x="0px" y="0px"
	 width="300px" height="300.039px" viewBox="0 -103.537 300 300.039" enable-background="new 0 -103.537 300 300.039"
	 xml:space="preserve">
<g>
	<g>
		<g>
			<path fill="#E8B3B3" d="M93.347,19.888L76.822,9.819c-1.395-0.842-1.22-2.315,0.393-3.293l15.751-9.615
				c1.613-0.973,4.043-1.081,5.439-0.232L114.933,6.75c1.398,0.842,1.22,2.315-0.395,3.292l-15.75,9.612
				C97.183,20.632,94.745,20.734,93.347,19.888z"/>
			<g>
				<path fill="#771818" d="M121.282-12.399L121.282-12.399v-4.408l-22.343-0.009l0.157-0.008c-1.773-1.07-4.873-0.938-6.916,0.303
					l0.661-0.293l-22.367-0.01v4.705c-0.049,0.725,0.338,1.426,1.186,1.941l21,12.799c1.775,1.07,4.87,0.938,6.915-0.302
					l20.018-12.217C120.779-10.614,121.348-11.542,121.282-12.399z"/>
				<path fill="#A83939" d="M95.886-17.544c-1.295,0.037-2.642,0.375-3.707,1.023l0.661-0.293l-22.366-0.01v4.705
					c-0.05,0.725,0.338,1.426,1.185,1.941L92.661,2.621c0.855,0.513,2.011,0.747,3.208,0.721L95.886-17.544z"/>
				<path fill="#E8B3B3" d="M73.005-16.822h-2.531v4.704c-0.05,0.723,0.338,1.424,1.185,1.94l1.347,0.814L73.005-16.822
					L73.005-16.822z"/>
				<path fill="#872727" d="M93.111,2.851c1.531,0.685,3.739,0.647,5.53-0.067v-6.162h-5.53V2.851z"/>
				<path fill="#E96B56" d="M92.667-2.049L71.665-14.848c-1.772-1.072-1.551-2.946,0.5-4.186L92.179-31.25
					c2.043-1.239,5.143-1.373,6.916-0.303l21.002,12.798c1.773,1.073,1.55,2.948-0.5,4.186L99.583-2.35
					C97.531-1.112,94.442-0.973,92.667-2.049z"/>
				<g>
					<path fill="#FFFFFF" d="M96.74-19.228l-6.179-3.766c-0.826-0.497-0.826-1.313,0-1.807c0.827-0.498,2.167-0.498,2.985,0
						l6.178,3.76c0.827,0.495,0.827,1.312,0,1.81C98.901-18.732,97.561-18.732,96.74-19.228z"/>
				</g>
				<g>
					<path fill="#FFFFFF" d="M105.715-13.729l-3.751-2.319c-0.825-0.496-0.825-1.31,0-1.808c0.827-0.493,2.166-0.493,2.986,0
						l3.75,2.317c0.826,0.496,0.826,1.31,0,1.81C107.881-13.23,106.541-13.23,105.715-13.729z"/>
				</g>
				<g>
					<path fill="#FFFFFF" d="M88.08-16.917l-3.75-2.315c-0.826-0.498-0.826-1.314,0-1.81c0.824-0.498,2.167-0.498,2.987,0
						l3.75,2.316c0.825,0.495,0.825,1.31,0,1.808C90.242-16.423,88.907-16.423,88.08-16.917z"/>
				</g>
			</g>
		</g>
	</g>
	<path fill="#E8B3B3" d="M263.383,116.882L146.169,45.995c-3.318-2.006-9.106-1.753-12.937,0.562L53.417,94.811
		c-3.829,2.314-4.244,5.816-0.933,7.823l40.299,24.367c-3.195,0.301-6.276,1.185-8.742,2.668c-6.136,3.72-6.136,9.738,0,13.442
		c6.14,3.719,16.096,3.719,22.234,0c2.464-1.484,3.923-3.348,4.409-5.276l9.523,5.751c-1.982,0.477-3.838,1.193-5.438,2.164
		c-6.267,3.786-6.267,9.928,0,13.717c6.265,3.793,16.422,3.793,22.682,0c1.601-0.967,2.786-2.089,3.573-3.29l28.682,17.347
		c3.319,2.004,9.112,1.75,12.938-0.563l79.815-48.255C266.289,122.391,266.704,118.883,263.383,116.882z"/>
	<g>
		<path fill="#771818" d="M295.18-28.918l-122.078-73.829c-1.418-0.859-2.859-0.988-4.139-0.531l0.005-0.009l-0.225,0.088
			c-0.013,0.005-0.034,0.011-0.052,0.021l-4.41,1.771l3.961,2.031c-0.016,0.077-0.038,0.145-0.057,0.222L148.303-4.346
			c-0.999,4.74,0.997,10.282,4.45,12.372L271.895,80.08l-0.429,5.284l4.818-1.96c1.62-0.791,2.919-2.586,3.45-5.144l19.888-94.806
			C300.623-21.292,298.63-26.83,295.18-28.918z"/>
		<path fill="#A83939" d="M295.18-28.918l-122.078-73.829c-1.418-0.859-2.859-0.988-4.139-0.531l0.005-0.009l-0.225,0.088
			c-0.013,0.005-0.034,0.011-0.052,0.021l-4.41,1.771l3.961,2.031c-0.016,0.077-0.038,0.145-0.057,0.222l-13.104,62.488
			l59.73,48.743l84.223-35.894C298.225-26.021,296.877-27.891,295.18-28.918z"/>
		<path fill="#872727" d="M290.578-14.347l9.286-4.145c0.176-3.772-1.316-7.667-3.769-9.75l-14.705,6.483L290.578-14.347z"/>
		<path fill="#E96B56" d="M267.227,84.855l-122.07-73.822c-3.452-2.086-5.448-7.624-4.449-12.374l19.883-94.806
			c0.997-4.744,4.604-6.897,8.059-4.811l122.074,73.83c3.454,2.086,5.448,7.626,4.449,12.374l-19.885,94.806
			C274.292,84.792,270.686,86.948,267.227,84.855z"/>
		<path fill="#FFFFFF" d="M264.587,77.807L149.775,8.407c-3.156-1.914-4.985-6.98-4.073-11.321L163.9-89.67
			c0.908-4.34,4.207-6.311,7.365-4.401l114.813,69.4c3.155,1.913,4.983,6.978,4.067,11.321L271.952,73.4
			C271.043,77.748,267.746,79.719,264.587,77.807z"/>
		<path fill="#FFFFFF" d="M264.587,77.807L149.775,8.407c-3.156-1.914-4.985-6.98-4.073-11.321L163.9-89.67
			c0.908-4.34,4.207-6.311,7.365-4.401l114.813,69.4c3.155,1.913,4.983,6.978,4.067,11.321L271.952,73.4
			C271.043,77.748,267.746,79.719,264.587,77.807z"/>
		<path fill="#B20F0F" d="M268.91,88.077l-16.688-2.315l-107.71-65.138c-3.45-2.084-9.484-1.822-13.474,0.587L54.711,67.354
			l-10.088-1.393v5.997h0.01c-0.067,1.385,0.688,2.717,2.317,3.708l122.079,73.826c3.451,2.087,9.48,1.822,13.475-0.582
			l83.122-50.254c2.245-1.357,3.363-3.106,3.301-4.746l0,0v-5.833H268.91L268.91,88.077z"/>
		<path fill="#A83939" d="M187.98,46.915l-7.646-4.632H96.192L54.712,67.35l-10.087-1.395v5.994h0.01
			c-0.067,1.387,0.688,2.724,2.317,3.705l122.077,73.83c1.822,1.107,4.371,1.552,6.953,1.369L187.98,46.915z"/>
		<path fill="#CC5858" d="M49.098,66.572l-4.475-0.617v5.994h0.01c-0.067,1.387,0.688,2.724,2.317,3.705l2.147,1.304L49.098,66.572
			L49.098,66.572z"/>
		<path fill="#872727" d="M170.254,150.089c3.273,1.294,7.953,1.015,11.451-0.746v-13.375h-11.451V150.089z"/>
		<path fill="#E96B56" d="M169.023,143.495L46.945,69.673c-3.452-2.088-3.021-5.739,0.97-8.146l83.124-50.252
			c3.989-2.412,10.024-2.674,13.474-0.584L266.59,84.52c3.453,2.086,3.021,5.735-0.971,8.146l-83.123,50.25
			C178.507,145.326,172.477,145.588,169.023,143.495z"/>
		<g>
			<path fill="#173D7A" d="M98.866,45.229l-5.523-3.341c-0.443-0.268-0.388-0.738,0.122-1.047l6.521-3.947
				c0.51-0.312,1.287-0.345,1.729-0.071l5.522,3.342c0.442,0.266,0.39,0.737-0.122,1.047l-6.518,3.946
				C100.086,45.464,99.313,45.498,98.866,45.229z"/>
			<path fill="#B20F0F" d="M107.399,50.389l-5.523-3.34c-0.443-0.271-0.387-0.738,0.123-1.047l6.519-3.948
				c0.51-0.311,1.285-0.344,1.729-0.07l5.523,3.34c0.443,0.268,0.386,0.737-0.123,1.049l-6.521,3.939
				C108.613,50.623,107.843,50.654,107.399,50.389z"/>
			<path fill="#B20F0F" d="M115.927,55.545l-5.527-3.344c-0.44-0.268-0.385-0.736,0.123-1.047l6.521-3.943
				c0.512-0.315,1.286-0.348,1.729-0.07l5.522,3.338c0.444,0.27,0.388,0.734-0.122,1.046l-6.521,3.949
				C117.144,55.779,116.368,55.813,115.927,55.545z"/>
			<path fill="#B20F0F" d="M127.727,51.285l-5.523-3.336c-0.444-0.271-0.389-0.736,0.122-1.054l5.474-3.307
				c0.508-0.314,1.285-0.344,1.726-0.072l5.525,3.341c0.444,0.272,0.387,0.736-0.122,1.051l-5.474,3.305
				C128.939,51.521,128.168,51.557,127.727,51.285z"/>
			<path fill="#B20F0F" d="M136.253,56.441l-5.524-3.342c-0.441-0.27-0.388-0.736,0.122-1.05l5.473-3.307
				c0.511-0.317,1.286-0.346,1.728-0.072l5.524,3.338c0.442,0.273,0.387,0.74-0.122,1.052l-5.473,3.309
				C137.471,56.678,136.695,56.708,136.253,56.441z"/>
			<path fill="#173D7A" d="M144.783,61.604l-5.521-3.34c-0.443-0.271-0.389-0.734,0.123-1.053l5.472-3.304
				c0.509-0.313,1.288-0.353,1.728-0.073l5.526,3.336c0.441,0.271,0.388,0.739-0.123,1.051l-5.473,3.311
				C146.003,61.836,145.227,61.871,144.783,61.604z"/>
			<path fill="#771818" d="M153.313,66.764l-5.522-3.349c-0.443-0.271-0.389-0.735,0.12-1.047l5.477-3.308
				c0.508-0.307,1.283-0.348,1.723-0.074l5.525,3.343c0.443,0.269,0.389,0.735-0.119,1.05l-5.475,3.309
				C154.527,66.991,153.753,67.023,153.313,66.764z"/>
			<path fill="#B20F0F" d="M161.844,71.922l-5.525-3.346c-0.439-0.27-0.389-0.739,0.125-1.047l5.472-3.309
				c0.51-0.308,1.287-0.347,1.729-0.07l5.521,3.341c0.442,0.265,0.39,0.735-0.123,1.047l-5.472,3.313
				C163.061,72.152,162.286,72.188,161.844,71.922z"/>
			<path fill="#B20F0F" d="M170.376,77.08l-5.521-3.348c-0.447-0.264-0.392-0.733,0.117-1.041l5.477-3.313
				c0.511-0.314,1.281-0.35,1.725-0.072l5.521,3.342c0.447,0.269,0.392,0.738-0.121,1.054l-5.469,3.308
				C171.598,77.318,170.818,77.346,170.376,77.08z"/>
			<path fill="#B20F0F" d="M178.9,82.232l-5.521-3.338c-0.445-0.267-0.393-0.74,0.122-1.049l5.474-3.313
				c0.506-0.312,1.287-0.339,1.725-0.071l5.523,3.346c0.445,0.267,0.393,0.735-0.117,1.051l-5.475,3.307
				C180.12,82.471,179.343,82.506,178.9,82.232z"/>
			<path fill="#B20F0F" d="M187.432,87.396l-5.522-3.342c-0.438-0.271-0.39-0.736,0.122-1.05l5.475-3.31
				c0.512-0.311,1.285-0.342,1.729-0.074l5.521,3.346c0.443,0.27,0.39,0.737-0.121,1.049l-5.47,3.31
				C188.65,87.627,187.878,87.666,187.432,87.396z"/>
			<path fill="#B20F0F" d="M195.965,92.549l-5.521-3.338c-0.445-0.27-0.389-0.736,0.119-1.053l5.477-3.307
				c0.507-0.313,1.284-0.344,1.727-0.072l5.523,3.343c0.447,0.271,0.391,0.737-0.122,1.051l-5.474,3.308
				C197.182,92.779,196.407,92.82,195.965,92.549z"/>
			<path fill="#B20F0F" d="M204.493,97.705l-5.525-3.334c-0.44-0.27-0.39-0.734,0.121-1.048l5.474-3.31
				c0.51-0.315,1.287-0.352,1.729-0.074l5.522,3.342c0.44,0.266,0.388,0.734-0.119,1.049l-5.475,3.309
				C205.711,97.949,204.934,97.979,204.493,97.705z"/>
			<path fill="#A83939" d="M140.291,48.844l-5.522-3.344c-0.445-0.268-0.389-0.736,0.12-1.045l5.476-3.312
				c0.508-0.312,1.286-0.343,1.729-0.07l5.521,3.342c0.442,0.27,0.391,0.735-0.122,1.049l-5.471,3.31
				C141.509,49.079,140.733,49.111,140.291,48.844z"/>
			<path fill="#A83939" d="M131.63,43.607l-5.521-3.345c-0.444-0.267-0.39-0.734,0.121-1.051l5.474-3.305
				c0.509-0.313,1.284-0.349,1.729-0.072l5.522,3.34c0.443,0.269,0.389,0.734-0.123,1.05l-5.474,3.308
				C132.852,43.84,132.081,43.873,131.63,43.607z"/>
			<path fill="#B20F0F" d="M122.961,38.36l-11.894-7.192c-0.444-0.267-0.389-0.735,0.122-1.047l5.473-3.311
				c0.509-0.311,1.285-0.344,1.729-0.071l11.896,7.19c0.441,0.27,0.387,0.737-0.122,1.051l-5.474,3.307
				C124.18,38.596,123.407,38.635,122.961,38.36z"/>
			<path fill="#B20F0F" d="M129.024,31.982l-9.652-5.835c-0.444-0.267-0.389-0.734,0.121-1.049l5.474-3.307
				c0.51-0.311,1.286-0.347,1.73-0.074l9.655,5.838c0.445,0.267,0.388,0.736-0.119,1.048l-5.476,3.307
				C130.242,32.22,129.466,32.251,129.024,31.982z"/>
			<path fill="#396CAA" d="M148.823,53.998l-5.525-3.344c-0.441-0.266-0.386-0.736,0.123-1.045l5.473-3.31
				c0.509-0.31,1.286-0.343,1.729-0.07l5.523,3.339c0.442,0.271,0.388,0.739-0.121,1.051l-5.473,3.308
				C150.042,54.236,149.269,54.264,148.823,53.998z"/>
			<path fill="#B20F0F" d="M157.35,59.16l-5.524-3.346c-0.44-0.265-0.388-0.735,0.126-1.049l5.47-3.31
				c0.513-0.312,1.285-0.342,1.731-0.065l5.521,3.338c0.443,0.268,0.386,0.735-0.122,1.051l-5.472,3.309
				C158.566,59.395,157.794,59.427,157.35,59.16z"/>
			<path fill="#B20F0F" d="M165.881,64.322l-5.521-3.344c-0.443-0.271-0.385-0.737,0.119-1.049l5.474-3.31
				c0.514-0.313,1.286-0.349,1.731-0.072l5.524,3.345c0.438,0.268,0.386,0.731-0.126,1.047l-5.473,3.308
				C167.102,64.559,166.324,64.586,165.881,64.322z"/>
			<path fill="#B20F0F" d="M174.412,69.475l-5.521-3.341c-0.445-0.267-0.391-0.735,0.121-1.048l5.477-3.311
				c0.506-0.314,1.285-0.348,1.726-0.072l5.524,3.343c0.443,0.269,0.389,0.738-0.12,1.052l-5.476,3.307
				C175.629,69.711,174.857,69.745,174.412,69.475z"/>
			<path fill="#B20F0F" d="M182.938,74.641l-5.521-3.345c-0.441-0.267-0.389-0.737,0.12-1.051l5.474-3.306
				c0.514-0.313,1.285-0.347,1.729-0.075l5.525,3.343c0.442,0.27,0.387,0.738-0.121,1.049l-5.471,3.313
				C184.159,74.869,183.383,74.902,182.938,74.641z"/>
			<path fill="#B20F0F" d="M191.473,79.79l-5.521-3.338c-0.445-0.271-0.389-0.735,0.119-1.05l5.475-3.312
				c0.508-0.313,1.283-0.343,1.73-0.075l5.521,3.344c0.442,0.273,0.388,0.738-0.123,1.053l-5.476,3.307
				C192.691,80.023,191.915,80.059,191.473,79.79z"/>
			<path fill="#B20F0F" d="M199.999,84.952l-5.524-3.341c-0.442-0.271-0.389-0.734,0.125-1.049l5.471-3.313
				c0.508-0.303,1.285-0.348,1.729-0.07l5.521,3.338c0.447,0.273,0.39,0.741-0.115,1.053l-5.477,3.308
				C201.215,85.189,200.449,85.218,199.999,84.952z"/>
			<path fill="#B20F0F" d="M208.529,90.111l-5.521-3.336c-0.445-0.272-0.389-0.736,0.121-1.051l5.471-3.31
				c0.514-0.313,1.285-0.351,1.733-0.069l5.519,3.336c0.441,0.271,0.39,0.733-0.125,1.049l-5.469,3.308
				C209.75,90.346,208.973,90.383,208.529,90.111z"/>
			<path fill="#B20F0F" d="M217.064,95.27l-5.526-3.343c-0.442-0.271-0.386-0.735,0.122-1.048l5.473-3.311
				c0.512-0.312,1.289-0.346,1.729-0.073l5.527,3.344c0.441,0.267,0.385,0.731-0.123,1.047l-5.478,3.31
				C218.281,95.505,217.504,95.527,217.064,95.27z"/>
			<path fill="#B20F0F" d="M232.223,104.439l-12.046-7.287c-0.444-0.27-0.388-0.734,0.124-1.047l5.473-3.313
				c0.506-0.308,1.283-0.347,1.727-0.067l12.051,7.289c0.444,0.266,0.389,0.736-0.119,1.047l-5.477,3.308
				C233.443,104.676,232.668,104.708,232.223,104.439z"/>
			<path fill="#B20F0F" d="M248.827,94.4l-10.17-6.16c-0.441-0.266-0.39-0.736,0.12-1.047l5.475-3.31
				c0.51-0.311,1.282-0.347,1.729-0.071l10.17,6.152c0.447,0.27,0.392,0.737-0.119,1.053l-5.475,3.307
				C250.046,94.634,249.275,94.665,248.827,94.4z"/>
			<path fill="#B20F0F" d="M163.762,52.988l-5.527-3.344c-0.438-0.264-0.385-0.732,0.123-1.045l5.475-3.306
				c0.511-0.315,1.287-0.347,1.729-0.074l5.523,3.337c0.441,0.275,0.387,0.742-0.122,1.053l-5.472,3.306
				C164.979,53.223,164.203,53.264,163.762,52.988z"/>
			<path fill="#B20F0F" d="M155.02,47.705l-5.524-3.339c-0.442-0.272-0.387-0.739,0.121-1.053l5.472-3.308
				c0.51-0.311,1.285-0.344,1.729-0.074l5.523,3.343c0.443,0.273,0.387,0.735-0.119,1.049l-5.476,3.308
				C156.236,47.943,155.458,47.969,155.02,47.705z"/>
			<path fill="#A83939" d="M146.273,42.418l-5.522-3.342c-0.442-0.269-0.387-0.736,0.121-1.049l5.476-3.309
				c0.509-0.311,1.285-0.347,1.727-0.074l5.524,3.344c0.445,0.268,0.387,0.735-0.119,1.047l-5.475,3.308
				C147.494,42.651,146.719,42.684,146.273,42.418z"/>
			<path fill="#B20F0F" d="M137.532,37.134l-5.523-3.344c-0.444-0.268-0.389-0.736,0.123-1.047l5.471-3.309
				c0.508-0.314,1.285-0.348,1.729-0.074l5.522,3.344c0.445,0.265,0.389,0.732-0.122,1.046l-5.473,3.309
				C138.751,37.367,137.978,37.4,137.532,37.134z"/>
			<path fill="#B20F0F" d="M172.292,58.15l-5.522-3.34c-0.442-0.269-0.388-0.736,0.121-1.047l5.473-3.313
				c0.513-0.312,1.287-0.343,1.729-0.071l5.525,3.338c0.438,0.273,0.386,0.741-0.125,1.053l-5.473,3.306
				C173.506,58.382,172.732,58.421,172.292,58.15z"/>
			<path fill="#B20F0F" d="M180.82,63.309l-5.526-3.34c-0.444-0.268-0.387-0.734,0.123-1.046l5.476-3.31
				c0.506-0.313,1.282-0.344,1.727-0.076l5.521,3.343c0.447,0.267,0.392,0.737-0.119,1.05l-5.476,3.307
				C182.037,63.547,181.262,63.579,180.82,63.309z"/>
			<path fill="#B20F0F" d="M189.35,68.464l-5.523-3.343c-0.439-0.268-0.385-0.736,0.124-1.043l5.472-3.313
				c0.514-0.31,1.288-0.348,1.729-0.07l5.524,3.34c0.442,0.268,0.39,0.734-0.122,1.051l-5.47,3.305
				C190.568,68.699,189.794,68.732,189.35,68.464z"/>
			<path fill="#B20F0F" d="M197.876,73.63l-5.521-3.348c-0.444-0.267-0.39-0.734,0.117-1.046l5.473-3.312
				c0.516-0.308,1.285-0.346,1.732-0.067l5.524,3.34c0.438,0.267,0.386,0.732-0.126,1.048l-5.473,3.312
				C199.098,73.863,198.32,73.893,197.876,73.63z"/>
			<path fill="#B20F0F" d="M206.409,78.784l-5.524-3.345c-0.441-0.269-0.388-0.735,0.124-1.051l5.472-3.308
				c0.51-0.312,1.285-0.343,1.728-0.073l5.521,3.342c0.446,0.267,0.395,0.739-0.117,1.053l-5.475,3.311
				C207.627,79.023,206.85,79.057,206.409,78.784z"/>
			<path fill="#B20F0F" d="M214.938,83.941l-5.524-3.344c-0.438-0.265-0.384-0.736,0.126-1.048l5.47-3.311
				c0.513-0.31,1.287-0.341,1.731-0.07l5.523,3.349c0.438,0.265,0.387,0.729-0.123,1.045l-5.473,3.308
				C216.16,84.182,215.387,84.21,214.938,83.941z"/>
			<path fill="#B20F0F" d="M223.469,89.105l-5.523-3.348c-0.445-0.264-0.391-0.73,0.119-1.047l5.476-3.311
				c0.508-0.313,1.285-0.344,1.729-0.069l5.521,3.347c0.444,0.262,0.392,0.732-0.122,1.047l-5.475,3.309
				C224.688,89.337,223.908,89.372,223.469,89.105z"/>
			<path fill="#B20F0F" d="M231.999,94.258l-5.526-3.344c-0.438-0.264-0.385-0.73,0.127-1.05l5.471-3.306
				c0.51-0.313,1.283-0.345,1.729-0.074l5.521,3.346c0.447,0.271,0.389,0.738-0.115,1.049l-5.477,3.311
				C233.217,94.492,232.439,94.525,231.999,94.258z"/>
			<path fill="#B20F0F" d="M240.527,99.418l-5.522-3.341c-0.44-0.269-0.383-0.731,0.124-1.05l5.473-3.305
				c0.514-0.31,1.285-0.346,1.729-0.072l5.529,3.342c0.437,0.269,0.385,0.732-0.127,1.048l-5.471,3.31
				C241.745,99.652,240.973,99.688,240.527,99.418z"/>
			<path fill="#B20F0F" d="M159.268,40.235l-5.525-3.342c-0.438-0.271-0.389-0.736,0.124-1.049l5.473-3.306
				c0.511-0.314,1.286-0.345,1.728-0.074l5.524,3.343c0.441,0.269,0.388,0.734-0.118,1.046l-5.478,3.312
				C160.482,40.47,159.711,40.505,159.268,40.235z"/>
			<path fill="#B20F0F" d="M150.779,35.102l-5.524-3.342c-0.443-0.266-0.389-0.734,0.123-1.049l5.474-3.307
				c0.51-0.312,1.285-0.347,1.729-0.073l5.521,3.344c0.443,0.267,0.389,0.734-0.123,1.047l-5.471,3.309
				C152,35.336,151.221,35.372,150.779,35.102z"/>
			<path fill="#B20F0F" d="M142.293,29.97l-5.525-3.343c-0.445-0.264-0.387-0.735,0.121-1.049l5.472-3.308
				c0.511-0.309,1.288-0.341,1.73-0.071l5.523,3.345c0.444,0.266,0.39,0.734-0.121,1.045l-5.475,3.311
				C143.511,30.204,142.734,30.238,142.293,29.97z"/>
			<path fill="#B20F0F" d="M133.804,24.835l-5.521-3.339c-0.445-0.27-0.391-0.738,0.121-1.049l5.471-3.309
				c0.512-0.312,1.286-0.345,1.729-0.076l5.525,3.345c0.444,0.267,0.387,0.735-0.124,1.05l-5.472,3.309
				C135.022,25.073,134.247,25.104,133.804,24.835z"/>
			<path fill="#B20F0F" d="M142.535,19.553l-5.523-3.343c-0.442-0.268-0.388-0.736,0.122-1.047l1.812-1.094
				c0.51-0.314,1.287-0.347,1.73-0.074l5.522,3.342c0.444,0.268,0.389,0.737-0.122,1.047l-1.811,1.095
				C143.754,19.792,142.978,19.827,142.535,19.553z"/>
			<path fill="#B20F0F" d="M153.607,26.253l-5.521-3.342c-0.443-0.267-0.389-0.735,0.122-1.047l1.811-1.095
				c0.509-0.311,1.285-0.344,1.728-0.072l5.521,3.343c0.447,0.266,0.391,0.736-0.119,1.052l-1.813,1.093
				C154.83,26.488,154.053,26.522,153.607,26.253z"/>
			<path fill="#B20F0F" d="M162.063,31.363l-5.526-3.343c-0.44-0.266-0.388-0.734,0.123-1.047l1.812-1.094
				c0.508-0.314,1.282-0.345,1.729-0.073l5.521,3.345c0.444,0.267,0.387,0.737-0.121,1.047l-1.813,1.094
				C163.277,31.598,162.498,31.63,162.063,31.363z"/>
			<path fill="#B20F0F" d="M170.512,36.473l-5.521-3.342c-0.443-0.266-0.388-0.735,0.12-1.047l1.812-1.092
				c0.513-0.313,1.288-0.345,1.729-0.074l5.522,3.343c0.44,0.269,0.392,0.735-0.122,1.048l-1.811,1.094
				C171.73,36.709,170.959,36.743,170.512,36.473z"/>
			<path fill="#B20F0F" d="M178.968,41.589l-5.524-3.34c-0.443-0.27-0.389-0.739,0.121-1.048l1.813-1.092
				c0.514-0.314,1.284-0.345,1.729-0.073l5.525,3.343c0.439,0.267,0.385,0.734-0.119,1.047l-1.818,1.094
				C180.182,41.825,179.408,41.86,178.968,41.589z"/>
			<path fill="#B20F0F" d="M226.15,70.123l-5.521-3.344c-0.44-0.269-0.389-0.731,0.124-1.049l1.811-1.092
				c0.514-0.313,1.285-0.35,1.727-0.072l5.529,3.344c0.438,0.265,0.385,0.73-0.131,1.044l-1.805,1.095
				C227.372,70.357,226.6,70.393,226.15,70.123z"/>
			<path fill="#B20F0F" d="M234.604,75.238l-5.521-3.348c-0.443-0.264-0.391-0.731,0.115-1.045l1.816-1.096
				c0.506-0.311,1.285-0.343,1.729-0.07l5.52,3.346c0.446,0.268,0.391,0.738-0.117,1.048l-1.813,1.092
				C235.82,75.475,235.046,75.502,234.604,75.238z"/>
			<path fill="#B20F0F" d="M243.059,80.348l-5.525-3.338c-0.441-0.271-0.391-0.738,0.121-1.051l1.811-1.098
				c0.514-0.313,1.287-0.344,1.73-0.07l5.523,3.35c0.439,0.264,0.389,0.732-0.123,1.043l-1.812,1.09
				C244.275,80.583,243.499,80.615,243.059,80.348z"/>
			<path fill="#B20F0F" d="M251.505,85.46l-5.521-3.34c-0.447-0.271-0.389-0.739,0.121-1.05l1.813-1.096
				c0.507-0.313,1.284-0.347,1.729-0.07l5.521,3.339c0.44,0.268,0.392,0.741-0.122,1.053l-1.813,1.093
				C252.727,85.691,251.954,85.73,251.505,85.46z"/>
			<path fill="#B20F0F" d="M167.8,45.393l-5.522-3.345c-0.444-0.268-0.389-0.735,0.121-1.049l5.472-3.309
				c0.515-0.311,1.282-0.344,1.729-0.072l5.525,3.342c0.438,0.27,0.385,0.735-0.126,1.047l-5.474,3.31
				C169.02,45.623,168.241,45.656,167.8,45.393z"/>
			<path fill="#B20F0F" d="M176.326,50.552l-5.521-3.341c-0.445-0.273-0.391-0.734,0.118-1.047l5.476-3.312
				c0.51-0.309,1.285-0.345,1.725-0.074l5.529,3.345c0.438,0.268,0.384,0.734-0.123,1.047l-5.475,3.309
				C177.543,50.783,176.771,50.818,176.326,50.552z"/>
			<path fill="#B20F0F" d="M184.855,55.711l-5.526-3.348c-0.437-0.268-0.386-0.737,0.129-1.045l5.472-3.313
				c0.506-0.313,1.283-0.346,1.728-0.069l5.522,3.337c0.444,0.271,0.389,0.735-0.123,1.053l-5.473,3.309
				C186.076,55.941,185.3,55.975,184.855,55.711z"/>
			<path fill="#B20F0F" d="M193.389,60.869l-5.522-3.342c-0.446-0.271-0.388-0.737,0.12-1.051l5.476-3.307
				c0.515-0.313,1.284-0.354,1.728-0.074l5.521,3.34c0.446,0.271,0.391,0.733-0.121,1.049l-5.472,3.312
				C194.609,61.102,193.834,61.133,193.389,60.869z"/>
			<path fill="#B20F0F" d="M201.912,66.027l-5.521-3.34c-0.442-0.271-0.389-0.738,0.123-1.053l5.478-3.306
				c0.506-0.313,1.286-0.351,1.724-0.073l5.525,3.344c0.441,0.262,0.389,0.735-0.121,1.047l-5.475,3.309
				C203.134,66.266,202.357,66.295,201.912,66.027z"/>
			<path fill="#B20F0F" d="M210.449,71.188l-5.527-3.351c-0.438-0.267-0.385-0.731,0.123-1.046l5.473-3.313
				c0.51-0.304,1.287-0.342,1.732-0.065l5.521,3.341c0.439,0.266,0.388,0.734-0.121,1.053l-5.476,3.305
				C211.666,71.418,210.893,71.451,210.449,71.188z"/>
			<path fill="#B20F0F" d="M218.979,76.342l-5.521-3.343c-0.449-0.263-0.394-0.731,0.115-1.05l5.475-3.305
				c0.513-0.306,1.288-0.349,1.728-0.072l5.524,3.343c0.444,0.265,0.39,0.733-0.122,1.045l-5.472,3.312
				C220.195,76.576,219.421,76.615,218.979,76.342z"/>
			<path fill="#B20F0F" d="M227.506,81.501l-5.527-3.347c-0.438-0.271-0.387-0.735,0.125-1.047l5.477-3.309
				c0.508-0.316,1.285-0.342,1.725-0.07l5.526,3.342c0.438,0.269,0.387,0.734-0.12,1.044l-5.475,3.311
				C228.721,81.732,227.949,81.771,227.506,81.501z"/>
			<path fill="#B20F0F" d="M236.037,86.652l-5.523-3.338c-0.439-0.267-0.388-0.734,0.121-1.047l5.473-3.308
				c0.514-0.317,1.285-0.343,1.729-0.071l5.526,3.34c0.439,0.271,0.385,0.735-0.125,1.047l-5.475,3.309
				C237.256,86.893,236.479,86.93,236.037,86.652z"/>
			<path fill="#B20F0F" d="M119.033,46.029l-16.266-9.837c-0.443-0.27-0.386-0.738,0.124-1.049l5.472-3.309
				c0.511-0.313,1.287-0.347,1.729-0.075l16.266,9.836c0.442,0.271,0.387,0.74-0.121,1.052l-5.473,3.31
				C120.247,46.261,119.476,46.297,119.033,46.029z"/>
			<path fill="#B20F0F" d="M223.82,109.396l-16.269-9.83c-0.438-0.271-0.387-0.736,0.13-1.051l5.469-3.31
				c0.51-0.313,1.285-0.347,1.729-0.076l16.266,9.841c0.444,0.266,0.385,0.732-0.119,1.051l-5.475,3.306
				C225.039,109.635,224.266,109.667,223.82,109.396z"/>
			<path fill="#B20F0F" d="M189.711,100.169l-5.521-3.345c-0.446-0.266-0.39-0.732,0.119-1.049l6.522-3.946
				c0.509-0.31,1.284-0.347,1.726-0.072l5.525,3.349c0.441,0.263,0.391,0.734-0.122,1.047l-6.521,3.945
				C190.928,100.402,190.15,100.434,189.711,100.169z"/>
			<path fill="#B20F0F" d="M127.765,62.71l-8.831-5.345c-0.443-0.272-0.388-0.736,0.123-1.049l6.519-3.944
				c0.509-0.313,1.286-0.353,1.728-0.075l8.833,5.344c0.446,0.27,0.389,0.735-0.124,1.049l-6.519,3.951
				C128.984,62.941,128.207,62.977,127.765,62.71z"/>
			<path fill="#B20F0F" d="M181.493,95.195l-8.831-5.342c-0.439-0.271-0.393-0.742,0.124-1.045l6.519-3.953
				c0.512-0.313,1.285-0.347,1.729-0.072l8.833,5.345c0.438,0.271,0.382,0.733-0.125,1.049l-6.518,3.948
				C182.704,95.427,181.938,95.459,181.493,95.195z"/>
			<path fill="#771818" d="M140.076,70.148l-8.831-5.348c-0.443-0.27-0.388-0.738,0.123-1.052l6.52-3.938
				c0.512-0.315,1.286-0.348,1.729-0.076l8.832,5.344c0.443,0.27,0.387,0.734-0.123,1.051l-6.521,3.944
				C141.289,70.387,140.519,70.416,140.076,70.148z"/>
			<path fill="#B20F0F" d="M139.67,59.775l38.405,23.229c0.479,0.292,0.479,0.752,0,1.043l-6.646,4.025
				c-0.479,0.288-1.252,0.288-1.728,0L131.3,64.843L139.67,59.775z"/>
			<path fill="#B20F0F" d="M213.549,109.52l6.159,3.719c0.362,0.218,0.312,0.603-0.104,0.861l-2.664,1.611
				c-0.42,0.256-1.056,0.275-1.418,0.064l-6.153-3.724c-0.368-0.219-0.315-0.604,0.098-0.858l2.665-1.612
				C212.549,109.327,213.184,109.301,213.549,109.52z"/>
			<path fill="#B20F0F" d="M204.956,104.316l6.149,3.721c0.365,0.223,0.316,0.605-0.102,0.859l-2.662,1.615
				c-0.42,0.252-1.057,0.277-1.422,0.057l-6.15-3.715c-0.369-0.217-0.316-0.605,0.102-0.86l2.662-1.613
				C203.945,104.13,204.582,104.1,204.956,104.316z"/>
			<path fill="#B20F0F" d="M196.418,99.161l6.156,3.724c0.369,0.219,0.316,0.605-0.098,0.862l-2.666,1.61
				c-0.422,0.246-1.056,0.271-1.424,0.062l-6.15-3.722c-0.367-0.223-0.316-0.604,0.1-0.856l2.666-1.614
				C195.422,98.971,196.057,98.938,196.418,99.161z"/>
			<path fill="#B20F0F" d="M209.661,101.471l6.153,3.725c0.371,0.218,0.313,0.597-0.099,0.856l-2.661,1.614
				c-0.425,0.25-1.057,0.285-1.427,0.059l-6.149-3.721c-0.367-0.22-0.32-0.604,0.1-0.857l2.666-1.612
				C208.662,101.277,209.293,101.251,209.661,101.471z"/>
		</g>
	</g>
	<g>
		<path fill="#4C0202" d="M86.863,19.086c0,0,0.409,8.854,1.051,14.805c0.644,5.955,14.328-4.568,14.328-4.568v-6.778L86.863,19.086
			z"/>
		<g>
			<path fill="#771818" d="M94.152,129.27c0.205,0.532,3.752,5.063,7.297,6.184c1.541,0.498,2.578,0.559,3.259,0.471
				c0.681-0.081,1.103-0.822,0.874-1.494c-0.61-1.799-2.359-5.554-6.803-7.863C92.761,123.454,94.152,129.27,94.152,129.27z"/>
			<path fill="#771818" d="M92.967,131.014c0,0,1.336,3.281,1.744,6.024c0.251,1.676-0.626,3.854-1.345,5.295
				c-0.448,0.89-1.584,1.088-2.299,0.417c-1.157-1.102-2.631-3.014-2.876-5.768c-0.41-4.633,0-5.436,0-5.436L92.967,131.014z"/>
			<path fill="#E96B56" d="M84.43,75.061c0,0-0.459,5.842,0,12.293c0.459,6.463,2.116,36.674,2.427,43.938
				c0,0-0.155,2.195,3.911,1.714c4.065-0.483,3.739-2.923,3.739-2.923s5.712-0.085,5.892-3.609c0.175-3.523,5.85-42.099,5.85-55.972
				L84.43,75.061z"/>
			<g>
				<path fill="#FFC2B0" d="M108.357,44.864l2.797,4.545l9.619,12.165c0,0-0.333,1.126-1.529,1.425
					c-0.937,0.229-9.026-7.853-12.514-11.401c-0.933-0.941-1.081-2.44-0.373-3.566L108.357,44.864z"/>
				<path fill="#8C2A2A" d="M102.895,26.237c0,0,4.443-0.124,5.989,6.607c1.545,6.727,2.758,15.15,1.413,15.848
					c-4.039,2.103-6.593-0.354-6.593-0.354L102.895,26.237z"/>
				<path fill="#A83939" d="M104.229,26.522c-0.76-0.328-1.608-0.375-2.399-0.139C98.047,27.519,83.808,31.898,81.465,34
					c-2.71,2.426,4.066,16.061,3.967,20.536c-0.101,4.472-0.577,9.743-0.958,14.601c-0.375,4.858-0.885,7.525,2.909,9.59
					c3.795,2.066,10.277,2.168,15.125-1.709c4.853-3.867,3.973-6.521,3.768-9.334c-0.201-2.808-1.856-14.963-1.713-18.417
					c0,0,1.713-1.315,2.975-3.578c1.271-2.261-0.969-6.422-1.899-9.123c-0.929-2.706,0.527-5.796,0.238-7.998
					C105.73,27.436,105.039,26.88,104.229,26.522z"/>
				<path fill="#FFFFFF" d="M99.674,31.175c0.301,2.454-1.849,4.769-4.801,5.165c-2.954,0.398-5.593-1.272-5.896-3.73
					c-0.298-2.454,1.851-4.771,4.804-5.167C96.74,27.044,99.376,28.714,99.674,31.175z"/>
				<path fill="#FFC2B0" d="M98.152,31.375c0.216,1.756-1.322,3.411-3.434,3.694c-2.112,0.285-3.994-0.908-4.211-2.668
					c-0.214-1.754,1.325-3.407,3.435-3.691C96.053,28.431,97.936,29.624,98.152,31.375z"/>
				<path fill="#FFC2B0" d="M96.053,25.612c0,0-2.572-2.216-3.074-1.092c-0.504,1.118-0.922,5.927-0.922,5.927l5.106,1.437
					l-0.777-4.879C96.385,27.013,97.411,26.108,96.053,25.612z"/>
				<path fill="#FFC2B0" d="M104.031,20.34c-0.249,4.401-3.855,7.757-8.055,7.501c-4.199-0.264-7.408-4.04-7.159-8.44
					c0.251-4.4,3.856-7.751,8.056-7.497C101.073,12.159,104.273,15.939,104.031,20.34z"/>
				<path fill="#EA9C92" d="M92.623,25.913c-0.043,0.252-0.088,0.52-0.125,0.797c0.514,2.779,4.48,3.996,4.48,3.996l-0.588-3.689
					c0,0,0.483-0.43,0.346-0.852C95.16,25.638,93.189,25.182,92.623,25.913z"/>
				<path fill="#FFC2B0" d="M104.031,20.34c-0.249,4.401-3.855,7.757-8.055,7.501c-4.199-0.264-7.408-4.04-7.159-8.44
					c0.251-4.4,3.856-7.751,8.056-7.497C101.073,12.159,104.273,15.939,104.031,20.34z"/>
				<polygon fill="#FFC2B0" points="77.648,53.654 78.502,75.02 81.481,75.336 83.42,56.105 				"/>
				<path fill="#8C2A2A" d="M87.443,51.865c-0.986-4.555-2.937-14.636-2.937-14.636l-0.83,10.019
					c0.958,2.975,1.785,5.703,1.748,7.279c-0.053,2.623-0.249,5.527-0.468,8.463v0.009C84.957,63.004,88.431,56.432,87.443,51.865z"
					/>
				<path fill="#A83939" d="M82.031,33.563c0,0-2.381,0.955-3.735,8.626c-1.353,7.671-2.36,15.354,0.044,16.338
					c2.404,0.988,4.414,1.738,5.119-0.315c0.708-2.051,1.146-11.934,1.236-15.487C84.79,39.165,84.918,34.266,82.031,33.563z"/>
				<path fill="#FFC2B0" d="M120.059,60.684c0,0,1.289,0.496,2.222,1.563c0.764,0.878,1.185,1.611,1.517,2.135
					c0.745,1.165,1.371,3.67,0.916,3.98c-0.457,0.313-3.042-4.198-3.458-3.151c-0.415,1.048,0.006,2.019-0.532,2.039
					c-0.539,0.015-2.394-4.538-3.861-5.955C115.399,59.895,120.059,60.684,120.059,60.684z"/>
			</g>
			<path fill="#F79A9A" d="M94.507,130.082c0,0,0.71-0.016,1.628-0.18l0,0l1.119-46.959L94.507,130.082z"/>
		</g>
		<g>
			<path fill="#A83939" d="M90.193,104.719l-1.586-2.172l-16.68-10.115c-0.539-0.326-0.971-1.195-0.965-1.942l0.016-14.308
				l-0.957-1.313l0.903-0.549l0,0c0.172-0.114,0.406-0.107,0.654,0.041L90.48,85.828c0.536,0.322,0.97,1.195,0.964,1.941
				l-0.017,15.578c0,0.416-0.139,0.715-0.354,0.828l0,0L90.193,104.719z"/>
			<path fill="#F27C7C" d="M78.656,96.514l-1.188-0.72l-6.503-11.831l0.005-7.773l-0.957-1.313l0.901-0.545l0,0
				c0.173-0.118,0.405-0.115,0.655,0.039l18.904,11.465c0.28,0.172,0.536,0.496,0.715,0.87L78.656,96.514z"/>
			<path fill="#CC5858" d="M70.44,75.454l-0.426-0.578l0.901-0.545l0,0c0.173-0.118,0.405-0.115,0.655,0.039l0.332,0.198
				L70.44,75.454z"/>
			<path fill="#872727" d="M90.645,85.956c0.422,0.362,0.749,1.035,0.792,1.665l-1.845,1.118l-0.886-1.611L90.645,85.956z"/>
			<path fill="#CC5858" d="M89.571,86.377L70.667,74.912c-0.538-0.325-0.97,0.016-0.97,0.762l-0.014,15.579
				c0,0.745,0.43,1.614,0.962,1.938l18.905,11.466c0.537,0.325,0.967-0.015,0.967-0.759l0.019-15.58
				C90.541,87.568,90.108,86.702,89.571,86.377z"/>
		</g>
		<path fill="#FFC2B0" d="M78.524,74.837c0,0-0.788,4.985-0.67,6.583c0.115,1.598,0.935,4.237,1.551,4.178
			c0.621-0.06,0.022-6.427,1.107-5.787c1.085,0.633,1.201,1.726,1.696,1.336c0.493-0.387-0.857-5.826-0.499-8.187
			C82.074,70.598,78.524,74.837,78.524,74.837z"/>
		<path fill="#EA9C92" d="M99.35,20.569c3.823,1.422,4.564,0.55,4.604,0.511c0.032-0.244,0.061-0.488,0.077-0.74
			c0.049-0.879-0.044-1.74-0.253-2.549l-9.918-1.398C93.86,16.39,95.423,19.108,99.35,20.569z"/>
		<path fill="#750404" d="M104.303,12.39c-0.904-0.809-4.15-4.812-9.973-3.866c-3.639,0.592-6.708,3.19-7.384,9.122
			c-0.461,3.995,0.94,7.932,3.523,10.844c0.139-0.064,0.282-0.128,0.416-0.214c1.455-1.006,1.617-1.56,1.617-1.565l0.321-3.03
			c-0.013-0.43-0.316-0.812-0.726-0.836c-0.317-0.022-0.705-0.175-1.07-0.681c-0.834-1.142-0.45-2.933,1.225-3.001
			c0.875-0.032,1.211-0.529,1.333-0.99c0.106-0.407,0.517-0.632,0.893-0.486c1.907,0.72,6.594,2.277,9.612,1.378
			C107.943,17.92,105.205,13.2,104.303,12.39z"/>
		<path fill="#FFFFFF" d="M99.958,24.173l2.333-0.67c0,0-1.114,1.834-2.736,2.299c-1.623,0.47-1.88-0.969-1.88-0.969L99.958,24.173z
			"/>
		<polygon fill="#8C2A2A" points="82.491,80.995 80.502,79.797 81.251,81.073 82.252,81.458 		"/>
	</g>
	<g>
		<g>
			<path fill="#771818" d="M135.919,146.645c0,0-2.505-1.328-4.045,0.646c-1.541,1.968-3.738,6.618-3.806,9.768
				c-0.067,3.143,2.377,2.928,3.828,2.18c1.453-0.731,5.697-7.184,5.952-8.443c0.254-1.259-0.305-2.964-0.711-3.305
				C136.729,147.148,135.919,146.645,135.919,146.645z"/>
			<path fill="#FFD7D7" d="M136.468,146.014l0.117,2.713c0.021,0.582-0.256,1.129-0.731,1.418c-0.438,0.266-1.075,0.455-1.936,0.311
				c-1.888-0.316-2.053-0.879-2.187-3.592C131.599,144.145,136.468,146.014,136.468,146.014z"/>
			<g>
				<path fill="#771818" d="M126.751,141.413c0,0-2.503-1.321-4.044,0.646c-1.54,1.977-3.74,6.623-3.806,9.771
					c-0.067,3.146,2.376,2.933,3.829,2.19c1.45-0.742,5.693-7.191,5.948-8.445c0.256-1.27-0.305-2.973-0.708-3.303
					C127.561,141.924,126.751,141.413,126.751,141.413z"/>
				<path fill="#FFD7D7" d="M127.294,140.783l0.116,2.716c0.023,0.579-0.252,1.128-0.732,1.418c-0.437,0.263-1.073,0.458-1.93,0.313
					c-1.891-0.316-2.058-0.879-2.19-3.599C122.42,138.908,127.294,140.783,127.294,140.783z"/>
				<path fill="#F49898" d="M149.654,90.857c-0.743-12.631-13.069,1.859-13.069,1.859l-8.438,8.661l-7.595,8.743
					c-1.485,1.704-2.171,4.01-1.891,6.303l3.077,24.508c0.149,1.207,1.141,2.102,2.304,2.086c0.329,0,0.708-0.027,1.134-0.104
					c2.744-0.441,2.539-3.173,2.539-3.173l-0.56-22.927l15.949-10.074C143.112,106.752,150.39,103.503,149.654,90.857z"/>
			</g>
			<path fill="#F49898" d="M158.824,95.682c-0.744-12.636-13.07,1.858-13.07,1.858l-8.437,8.657l-7.596,8.742
				c-1.484,1.709-5.219,4.01-4.936,6.303l6.122,24.508c0.147,1.211,1.141,2.105,2.304,2.092c0.327,0,0.708-0.033,1.136-0.105
				c2.741-0.446,2.536-3.182,2.536-3.182l-0.559-22.925l15.953-10.071C152.286,111.568,159.566,108.32,158.824,95.682z"/>
			<path fill="#A83939" d="M151.532,55.111c9.344,4.059,9.159,9.836,9.159,9.836s-1.828,21.209-1.207,35.382
				c0.259,5.917-30.041,6.37-25.521-9.423c5.329-18.631,3.33-33.713,5.825-35.989C142.281,52.648,149.117,54.061,151.532,55.111z"/>
			<path fill="#FFC2B0" d="M154.536,60.239c-0.489,1.985-2.978,3.032-5.552,2.334c-2.578-0.697-4.271-2.865-3.783-4.855
				c0.486-1.989,2.974-3.04,5.551-2.342C153.332,56.076,155.027,58.251,154.536,60.239z"/>
			<path fill="#FFFFFF" d="M150.563,63.262c-0.549,0-1.111-0.072-1.69-0.232c-2.81-0.76-4.651-3.188-4.104-5.426
				c0.27-1.108,1.076-1.989,2.259-2.49c1.138-0.483,2.501-0.545,3.841-0.187c2.807,0.761,4.653,3.191,4.106,5.429l0,0
				C154.527,62.133,152.707,63.262,150.563,63.262z M149.161,55.635c-0.636,0-1.252,0.119-1.794,0.344
				c-0.917,0.388-1.53,1.045-1.73,1.858c-0.426,1.739,1.126,3.663,3.463,4.291c2.332,0.629,4.582-0.271,5.009-2.004
				c0.427-1.733-1.125-3.653-3.465-4.28C150.149,55.701,149.643,55.635,149.161,55.635z"/>
			<path fill="#FFC2B0" d="M147.79,54.67c0,0,0.079,0.387-0.083,3.491c-0.051,0.978,3.205,1.888,4.047,1.009
				c0.848-0.886,0.508-1.805,0.71-5.129C152.663,50.727,147.79,54.67,147.79,54.67z"/>
			<path fill="#EA9C92" d="M152.463,54.041c0,0-0.806,3.078-4.757,4.26l0.061-2.797L152.463,54.041z"/>
			<path fill="#FFC2B0" d="M154.967,46.229c0.995,4.023-1.316,8.137-5.163,9.175c-3.846,1.044-7.766-1.377-8.765-5.404
				c-0.992-4.028,1.316-8.139,5.165-9.177C150.054,39.778,153.977,42.197,154.967,46.229z"/>
			<path fill="#EA9C92" d="M149.66,48.393c0,0-3.96,1.772-6.701,1.799c-2.745,0.018-2.141-2.389-2.141-2.389l8.138-1.229
				L149.66,48.393z"/>
			<path fill="#750404" d="M142.136,48.861c0,0,3.45-1.537,6.477-0.895c0.708,0.15,1.368,0.549,1.827,1.139
				c0.151,0.197,0.339,0.371,0.553,0.42c0.539,0.129,1.415-2.201,2.462-2.26c1.042-0.055,1.736,0.717,0.888,2.154
				c-0.853,1.437-0.565,3.043-0.173,3.271c0.395,0.225,4.564-3.123,0.889-10.758c-3.687-7.638-13.036-3.528-14.488-1.977
				c0,0-1.535,1.404-2.783,0.156C137.782,40.107,136.385,51.068,142.136,48.861z"/>
			<path fill="#FFC2B0" d="M155.441,80.453v5.729c0,0.657-0.262,1.283-0.726,1.723l-11.239,10.734l1.279,2.045l14.781-10.632
				c0.691-0.524,1.143-1.336,1.232-2.225l1.063-10.63L155.441,80.453z"/>
			<path fill="#A83939" d="M159.896,62.09c0,0,3.414,5.376,4.682,19.514c0,0-5.819,1.975-9.131,0.851
				C152.139,81.332,159.896,62.09,159.896,62.09z"/>
			<path fill="#8C2A2A" d="M154.824,68.88c0,0-1.336,7.479-1.415,10.999c-0.019,0.961,0.546,1.839,1.415,2.17l0,0V68.88z"/>
		</g>
		<g>
			<path fill="#771818" d="M151.908,106.093l-2.48-0.349l-16.041-9.693c-0.516-0.313-1.411-0.273-2.004,0.09l-11.362,6.866
				l-1.503-0.212v1.572l0,0c-0.012,0.203,0.1,0.41,0.344,0.555l18.178,10.99c0.515,0.313,1.412,0.271,2.004-0.089l12.376-7.482
				c0.333-0.202,0.501-0.464,0.493-0.706l0,0v-1.542H151.908L151.908,106.093z"/>
			<path fill="#A83939" d="M139.857,99.965l-1.14-0.689H126.19l-6.177,3.731l-1.501-0.212v1.566l0,0
				c-0.013,0.209,0.1,0.416,0.344,0.561l18.177,10.99c0.272,0.165,0.649,0.23,1.035,0.201L139.857,99.965z"/>
			<path fill="#5793CE" d="M119.177,102.895l-0.664-0.1v1.566l0,0c-0.013,0.209,0.1,0.416,0.344,0.561l0.32,0.193V102.895z"/>
			<path fill="#872727" d="M137.217,116.003c0.488,0.19,1.186,0.146,1.706-0.116v-2.662h-1.706V116.003z"/>
			<path fill="#FFFFFF" d="M137.034,114.344l-18.177-10.99c-0.516-0.313-0.451-0.857,0.145-1.211l12.376-7.483
				c0.594-0.354,1.491-0.396,2.006-0.089l18.177,10.994c0.516,0.311,0.451,0.852-0.143,1.207l-12.378,7.486
				C138.446,114.617,137.547,114.654,137.034,114.344z"/>
			<path fill="#E96B56" d="M136.729,112.682l-15.113-9.141c-0.427-0.258-0.373-0.705,0.123-1.005l6.63-3.91
				c0.494-0.301,1.242-0.331,1.667-0.071l15.113,9.139c0.426,0.259,0.373,0.709-0.121,1.013l-6.631,3.905
				C137.903,112.907,137.156,112.939,136.729,112.682z"/>
		</g>
		<path fill="#FFC2B0" d="M132.081,94.3l-0.189,1.31c-0.16,1.117-0.132,2.26,0.085,3.373l0.221,1.15
			c0.127,0.651,0.621,1.161,1.248,1.279l0,0c0.487,0.097,0.953-0.271,1.001-0.785l0.298-2.805c0,0,0.688,0.943,1.021,0.943
			c0.332,0-0.371-2.813-1.121-4.404C133.897,92.766,132.081,94.3,132.081,94.3z"/>
		<path fill="#FFC2B0" d="M138.24,73.417l-1.949,4.046c-0.458,0.956-0.732,1.996-0.798,3.072l-0.849,13.826l-2.564-0.057
			l-1.164-15.535c-0.033-0.479-0.01-0.963,0.067-1.432l1.326-7.884L138.24,73.417z"/>
		<g>
			<path fill="#771818" d="M136.42,115.404l-1.524-2.078l-16.028-9.727c-0.515-0.316-0.931-1.146-0.931-1.865l0.01-13.739
				l-0.917-1.265l0.864-0.524l0,0c0.166-0.11,0.387-0.11,0.625,0.039l18.161,11.019c0.517,0.311,0.931,1.143,0.931,1.86
				l-0.015,14.969c0,0.403-0.132,0.685-0.34,0.802l0,0L136.42,115.404z"/>
			<path fill="#A83939" d="M125.336,107.52l-1.139-0.691l-6.25-11.368l0.007-7.468l-0.919-1.266L117.9,86.2l0,0
				c0.166-0.111,0.386-0.111,0.624,0.043l18.161,11.014c0.273,0.169,0.518,0.474,0.688,0.839L125.336,107.52z"/>
			<path fill="#CC5858" d="M117.444,87.29l-0.411-0.562l0.865-0.522l0,0c0.166-0.113,0.387-0.113,0.624,0.039l0.323,0.196
				L117.444,87.29z"/>
			<path fill="#872727" d="M136.857,97.384c0.403,0.345,0.715,0.997,0.758,1.601l-1.773,1.066l-0.849-1.542L136.857,97.384z"/>
			<path fill="#FFFFFF" d="M135.826,97.785l-18.161-11.01c-0.515-0.313-0.931,0.013-0.931,0.729l-0.018,14.971
				c0,0.719,0.416,1.555,0.931,1.863l18.161,11.016c0.515,0.312,0.931-0.016,0.931-0.735l0.018-14.964
				C136.757,98.93,136.343,98.096,135.826,97.785z"/>
		</g>
		<path fill="#FFC2B0" d="M144.758,100.684l-0.296,0.635c-0.329,0.727-0.864,1.34-1.517,1.762l-1.806,1.168
			c-0.56,0.355-1.273,0.391-1.842,0.04c-0.021-0.013-0.037-0.03-0.06-0.034c-0.57-0.377-0.624-1.24-0.155-1.747l1.886-2.032
			c0,0-1.059,0.853-1.359,0.51c-0.217-0.25,1.025-1.478,1.983-1.521c0.959-0.036,1.878-0.821,1.878-0.821L144.758,100.684z"/>
		<path fill="#A83939" d="M139.975,54.891c0,0-6.908,7.881-9.7,15.099c0,0,2.364,4.463,8.149,6.218
			C144.208,77.955,139.975,54.891,139.975,54.891z"/>
		<path fill="#8C2A2A" d="M137.124,75.734l1.116-11.336l-2.638,10.617C136.075,75.277,136.585,75.52,137.124,75.734z"/>
		<path fill="#FFFFFF" d="M145.15,53.299l-1.854-0.531c0,0,0.884,1.461,2.182,1.834c1.296,0.373,1.496-0.772,1.496-0.772
			L145.15,53.299z"/>
	</g>
	<g>
		<g>
			<path fill="#E8B3B3" d="M23.154,155.948L6.407,145.736c-1.412-0.852-1.235-2.342,0.393-3.332l15.962-9.743
				c1.634-0.988,4.1-1.095,5.513-0.238l16.749,10.205c1.413,0.854,1.236,2.347-0.396,3.335l-15.959,9.747
				C27.038,156.693,24.567,156.797,23.154,155.948z"/>
			<path fill="#771818" d="M51.121,123.505L51.121,123.505V119.1l-22.345-0.012l0.158-0.007c-1.772-1.074-4.871-0.942-6.916,0.301
				l0.66-0.288l-22.365-0.019v4.702c-0.048,0.726,0.337,1.433,1.187,1.943l21.002,12.797c1.772,1.074,4.869,0.938,6.914-0.297
				l20.018-12.228C50.618,125.293,51.188,124.361,51.121,123.505z"/>
			<path fill="#A83939" d="M25.722,118.361c-1.298,0.031-2.646,0.373-3.708,1.021l0.66-0.288l-22.361-0.019v4.702
				c-0.048,0.726,0.337,1.433,1.187,1.943l21.002,12.797c0.854,0.517,2.01,0.748,3.207,0.724L25.722,118.361z"/>
			<path fill="#E8B3B3" d="M2.847,119.075H0.312v4.702c-0.048,0.726,0.337,1.433,1.187,1.943l1.347,0.813L2.847,119.075
				L2.847,119.075z"/>
			<path fill="#872727" d="M22.95,138.743c1.528,0.688,3.738,0.653,5.529-0.062v-6.162H22.95V138.743z"/>
			<path fill="#E96B56" d="M22.501,133.857L1.499,121.059c-1.774-1.074-1.553-2.949,0.497-4.188l20.018-12.216
				c2.045-1.236,5.141-1.37,6.915-0.305l21.002,12.799c1.772,1.076,1.551,2.944-0.498,4.188L29.415,133.55
				C27.37,134.79,24.273,134.923,22.501,133.857z"/>
		</g>
		<g>
			<path fill="#FFFFFF" d="M26.573,116.678l-6.177-3.764c-0.826-0.494-0.826-1.314,0-1.807c0.826-0.502,2.167-0.502,2.986,0
				l6.176,3.764c0.828,0.495,0.828,1.305,0,1.807C28.738,117.167,27.399,117.167,26.573,116.678z"/>
		</g>
		<g>
			<path fill="#FFFFFF" d="M35.554,122.169l-3.75-2.313c-0.828-0.5-0.828-1.315,0-1.809c0.826-0.492,2.166-0.492,2.986,0
				l3.748,2.314c0.827,0.502,0.827,1.318,0,1.808C37.714,122.664,36.379,122.664,35.554,122.169z"/>
		</g>
		<g>
			<path fill="#FFFFFF" d="M17.918,118.988l-3.751-2.316c-0.826-0.496-0.826-1.313,0-1.807c0.827-0.502,2.167-0.502,2.987,0
				l3.751,2.313c0.826,0.495,0.826,1.309,0,1.811C20.08,119.482,18.741,119.482,17.918,118.988z"/>
		</g>
	</g>
	<g>
		<path fill="#E96B56" d="M198.461-52.287l-7.415-4.489c-0.687-0.42-1.09-1.445-0.901-2.297l0,0
			c0.188-0.854,0.896-1.213,1.584-0.794l7.412,4.486c0.688,0.418,1.092,1.445,0.901,2.297l0,0
			C199.852-52.228,199.145-51.87,198.461-52.287z"/>
		<path fill="#E96B56" d="M216.119-41.605l-10.934-6.611c-0.688-0.418-1.092-1.445-0.903-2.297l0,0
			c0.188-0.854,0.896-1.211,1.581-0.793l10.938,6.611c0.688,0.417,1.091,1.445,0.904,2.299l0,0
			C217.521-41.546,216.807-41.188,216.119-41.605z"/>
		<path fill="#E96B56" d="M185.532-16.028l-7.415-4.485c-0.684-0.417-1.09-1.445-0.902-2.301l0,0
			c0.189-0.854,0.899-1.21,1.588-0.791l7.41,4.484c0.688,0.418,1.094,1.443,0.904,2.299l0,0
			C186.93-15.97,186.215-15.62,185.532-16.028z"/>
		<path fill="#E96B56" d="M201.277-6.511l-10.937-6.612c-0.688-0.419-1.092-1.446-0.905-2.3l0,0c0.191-0.854,0.899-1.213,1.59-0.79
			l10.933,6.608c0.69,0.418,1.093,1.446,0.903,2.3l0,0C202.674-6.451,201.964-6.097,201.277-6.511z"/>
		<path fill="#E96B56" d="M176.586-58.17l-4.634-2.8c-0.687-0.419-1.089-1.445-0.9-2.297l0,0c0.188-0.857,0.896-1.21,1.585-0.794
			l4.631,2.799c0.69,0.42,1.094,1.447,0.908,2.301l0,0C177.98-58.108,177.273-57.756,176.586-58.17z"/>
		<path fill="#E96B56" d="M190.863-42.188l-14.155-8.562c-0.688-0.42-1.093-1.445-0.907-2.298l0,0
			c0.192-0.853,0.9-1.211,1.588-0.793l14.156,8.561c0.688,0.417,1.088,1.444,0.903,2.298l0,0
			C192.259-42.131,191.552-41.777,190.863-42.188z"/>
		<path fill="#E96B56" d="M178.48-34.986l-4.629-2.804c-0.69-0.419-1.1-1.444-0.904-2.296l0,0c0.187-0.854,0.896-1.213,1.582-0.792
			l4.631,2.799c0.688,0.417,1.097,1.445,0.904,2.299l0,0C179.881-34.927,179.172-34.57,178.48-34.986z"/>
		<path fill="#E96B56" d="M203.661,9.622l-12.373-7.48c-0.683-0.419-1.091-1.445-0.901-2.299l0,0
			c0.188-0.854,0.896-1.213,1.588-0.791l12.366,7.479c0.691,0.42,1.095,1.445,0.905,2.3l0,0
			C205.057,9.685,204.346,10.042,203.661,9.622z"/>
		<path fill="#E96B56" d="M173.965-23.028l-2.979-1.796c-0.685-0.418-1.086-1.446-0.899-2.298l0,0
			c0.188-0.854,0.894-1.212,1.586-0.793l2.974,1.798c0.688,0.418,1.092,1.445,0.904,2.299l0,0
			C175.368-22.966,174.656-22.607,173.965-23.028z"/>
		<path fill="#E96B56" d="M171.835-9.627l-3.698-2.231c-0.688-0.418-1.091-1.444-0.902-2.296l0,0
			c0.191-0.854,0.896-1.21,1.582-0.793l3.697,2.23c0.689,0.42,1.094,1.445,0.901,2.3l0,0C173.225-9.568,172.518-9.212,171.835-9.627
			z"/>
		<path fill="#E96B56" d="M186.193-0.938l-9.737-5.884c-0.683-0.419-1.088-1.447-0.903-2.301l0,0
			c0.189-0.854,0.899-1.213,1.586-0.792l9.732,5.885c0.688,0.417,1.095,1.445,0.908,2.296l0,0
			C187.594-0.878,186.887-0.524,186.193-0.938z"/>
		<path fill="#E96B56" d="M173.708-1.146l-6.994-4.234c-0.688-0.418-1.095-1.443-0.903-2.297l0,0
			c0.188-0.854,0.899-1.211,1.584-0.792l6.996,4.232c0.687,0.42,1.094,1.446,0.903,2.299l0,0
			C175.107-1.084,174.396-0.732,173.708-1.146z"/>
		<path fill="#E96B56" d="M214.275,16.07l-4.493-2.716c-0.687-0.417-1.093-1.445-0.9-2.3l0,0c0.188-0.851,0.896-1.212,1.581-0.791
			l4.494,2.716c0.688,0.419,1.09,1.445,0.906,2.298l0,0C215.68,16.134,214.961,16.493,214.275,16.07z"/>
		<path fill="#E96B56" d="M195.717-24.568l-12.373-7.48c-0.686-0.419-1.089-1.445-0.902-2.301l0,0
			c0.188-0.85,0.896-1.208,1.586-0.789l12.371,7.482c0.687,0.417,1.093,1.443,0.901,2.294l0,0
			C197.111-24.505,196.398-24.146,195.717-24.568z"/>
		<path fill="#E96B56" d="M196.842-31.231l-21.563-13.038c-0.69-0.417-1.096-1.443-0.904-2.297l0,0
			c0.189-0.854,0.896-1.213,1.581-0.792l21.567,13.037c0.685,0.418,1.09,1.445,0.899,2.3l0,0
			C198.244-31.167,197.525-30.815,196.842-31.231z"/>
		<path fill="#E96B56" d="M184.794-23.824l-12.371-7.482c-0.687-0.42-1.093-1.445-0.899-2.299l0,0
			c0.186-0.852,0.896-1.211,1.582-0.792l12.371,7.481c0.688,0.42,1.094,1.447,0.901,2.299l0,0
			C186.193-23.765,185.482-23.407,184.794-23.824z"/>
		<path fill="#E96B56" d="M205.094-18.891l-4.492-2.719c-0.686-0.417-1.091-1.444-0.902-2.298l0,0
			c0.188-0.854,0.896-1.212,1.587-0.792l4.489,2.715c0.689,0.42,1.094,1.446,0.899,2.302l0,0
			C206.496-18.83,205.786-18.473,205.094-18.891z"/>
		<path fill="#E96B56" d="M249.473-21.438l-26.621-16.1c-0.688-0.42-1.092-1.445-0.9-2.299l0,0c0.188-0.855,0.896-1.21,1.581-0.792
			l26.622,16.101c0.688,0.419,1.094,1.446,0.904,2.3l0,0C250.866-21.375,250.16-21.023,249.473-21.438z"/>
		<path fill="#E96B56" d="M184.438-9.346l-14.871-8.994c-0.688-0.419-1.088-1.447-0.905-2.297l0,0
			c0.19-0.857,0.897-1.213,1.585-0.793l14.873,8.994c0.688,0.418,1.09,1.444,0.904,2.297l0,0
			C185.839-9.286,185.13-8.933,184.438-9.346z"/>
		<path fill="#E96B56" d="M184.313-60.843l-10.934-6.609c-0.688-0.419-1.094-1.445-0.902-2.3l0,0
			c0.188-0.853,0.896-1.21,1.584-0.792l10.934,6.61c0.688,0.419,1.096,1.445,0.902,2.301l0,0
			C185.71-60.782,185.001-60.423,184.313-60.843z"/>
		<path fill="#E96B56" d="M171.762,5.022l-12.67-7.664c-0.688-0.417-1.088-1.445-0.9-2.297l0,0c0.188-0.856,0.898-1.211,1.582-0.792
			l12.668,7.66c0.688,0.415,1.093,1.443,0.904,2.299l0,0C173.156,5.081,172.445,5.438,171.762,5.022z"/>
	</g>
	<g>
		<path fill="#E96B56" d="M256.77,54.702l-7.414-4.487c-0.687-0.417-1.092-1.441-0.903-2.295l0,0c0.19-0.855,0.897-1.212,1.59-0.79
			l7.409,4.478c0.688,0.422,1.093,1.447,0.902,2.306l0,0C258.167,54.764,257.463,55.117,256.77,54.702z"/>
		<path fill="#E96B56" d="M262.1,28.542l-14.158-8.558c-0.687-0.42-1.094-1.445-0.896-2.299l0,0
			c0.186-0.855,0.895-1.211,1.577-0.793l14.157,8.559c0.688,0.418,1.095,1.445,0.898,2.297l0,0
			C263.498,28.604,262.783,28.96,262.1,28.542z"/>
		<path fill="#E96B56" d="M249.723,35.749l-4.635-2.801c-0.686-0.417-1.088-1.445-0.904-2.296l0,0
			c0.191-0.855,0.897-1.211,1.59-0.794l4.633,2.802c0.684,0.419,1.088,1.444,0.9,2.298l0,0
			C251.12,35.807,250.411,36.161,249.723,35.749z"/>
		<path fill="#E96B56" d="M245.208,47.705l-2.976-1.797c-0.688-0.416-1.092-1.446-0.904-2.301l0,0
			c0.191-0.85,0.898-1.209,1.582-0.792l2.977,1.799c0.688,0.418,1.096,1.444,0.905,2.301l0,0
			C246.6,47.77,245.893,48.125,245.208,47.705z"/>
		<path fill="#E96B56" d="M266.95,46.169l-12.37-7.487c-0.688-0.42-1.091-1.445-0.902-2.295l0,0c0.188-0.854,0.896-1.21,1.58-0.795
			l12.379,7.482c0.684,0.417,1.09,1.447,0.901,2.299l0,0C268.346,46.229,267.639,46.584,266.95,46.169z"/>
		<path fill="#E96B56" d="M268.081,39.505l-21.563-13.037c-0.685-0.42-1.09-1.444-0.899-2.301l0,0
			c0.185-0.853,0.899-1.211,1.587-0.791l21.563,13.039c0.686,0.419,1.088,1.442,0.902,2.298l0,0
			C269.477,39.567,268.77,39.921,268.081,39.505z"/>
		<path fill="#E96B56" d="M256.031,46.91l-12.374-7.482c-0.687-0.421-1.085-1.448-0.902-2.301l0,0
			c0.192-0.854,0.897-1.211,1.591-0.793l12.366,7.482c0.688,0.419,1.095,1.447,0.904,2.299l0,0
			C257.428,46.969,256.721,47.321,256.031,46.91z"/>
		<path fill="#E96B56" d="M255.676,61.386l-14.871-8.993c-0.685-0.418-1.091-1.447-0.896-2.301l0,0
			c0.187-0.854,0.896-1.211,1.579-0.789l14.873,8.992c0.684,0.419,1.09,1.443,0.9,2.298l0,0
			C257.073,61.447,256.365,61.798,255.676,61.386z"/>
	</g>
	<g>
		<g>
			<path fill="#E8B3B3" d="M226.471,195.9l-17.419-10.608c-1.469-0.89-1.284-2.451,0.409-3.479l16.604-10.127
				c1.691-1.025,4.265-1.142,5.735-0.25l17.421,10.617c1.467,0.885,1.283,2.447-0.412,3.469l-16.605,10.131
				C230.504,196.682,227.936,196.79,226.471,195.9z"/>
			<path fill="#771818" d="M254.537,162.993L254.537,162.993v-4.413l-22.348-0.008l0.156-0.01c-1.773-1.07-4.867-0.938-6.918,0.303
				l0.662-0.291l-22.363-0.012v4.705c-0.051,0.728,0.338,1.43,1.186,1.938l21.002,12.799c1.773,1.074,4.869,0.941,6.913-0.3
				l20.019-12.22C254.032,164.771,254.604,163.854,254.537,162.993z"/>
			<path fill="#A83939" d="M229.143,157.85c-1.301,0.026-2.646,0.366-3.711,1.019l0.66-0.292l-22.363-0.014v4.709
				c-0.049,0.725,0.338,1.426,1.186,1.935l21.002,12.799c0.855,0.521,2.014,0.755,3.208,0.724L229.143,157.85z"/>
			<path fill="#D34C4C" d="M206.262,158.563h-2.533v4.709c-0.052,0.725,0.338,1.427,1.185,1.935l1.351,0.819v-7.463H206.262
				L206.262,158.563z"/>
			<path fill="#872727" d="M226.365,178.234c1.529,0.688,3.734,0.646,5.527-0.066v-6.16h-5.527V178.234z"/>
			<path fill="#E96B56" d="M225.92,173.344l-21.002-12.797c-1.773-1.074-1.552-2.945,0.5-4.188l20.014-12.217
				c2.051-1.233,5.142-1.371,6.916-0.302l21.002,12.798c1.772,1.069,1.553,2.944-0.492,4.188l-20.021,12.215
				C230.783,174.281,227.689,174.414,225.92,173.344z"/>
		</g>
		<g>
			<path fill="#A83939" d="M229.833,156.827l-6.181-3.757c-0.822-0.5-0.822-1.311,0-1.81c0.826-0.495,2.168-0.495,2.986,0
				l6.178,3.763c0.826,0.498,0.826,1.309,0,1.804C231.993,157.325,230.657,157.325,229.833,156.827z"/>
		</g>
		<g>
			<path fill="#A83939" d="M238.813,162.324l-3.758-2.314c-0.822-0.5-0.822-1.313,0-1.806c0.826-0.495,2.164-0.495,2.986,0
				l3.749,2.31c0.83,0.5,0.83,1.315,0,1.812C240.973,162.825,239.631,162.825,238.813,162.324z"/>
		</g>
		<g>
			<path fill="#A83939" d="M221.173,159.141l-3.751-2.317c-0.824-0.497-0.824-1.313,0-1.808c0.826-0.496,2.164-0.496,2.985,0
				l3.75,2.316c0.827,0.494,0.827,1.311,0,1.809C223.338,159.641,221.998,159.641,221.173,159.141z"/>
		</g>
	</g>
</g>
<path fill="#E96B56" d="M278.398,102.721c0,2.521-1.908,4.555-4.26,4.555c-2.351,0-4.254-2.033-4.254-4.555
	c0-2.515,1.903-4.558,4.254-4.558C276.49,98.163,278.398,100.206,278.398,102.721z"/>
<path fill="#CC5858" d="M270.139,179.48c-3.188,0-5.779-2.771-5.779-6.189c0-3.406,2.592-6.188,5.779-6.188
	c3.188,0,5.78,2.773,5.78,6.188C275.925,176.711,273.327,179.48,270.139,179.48z M270.139,169.012c-2.209,0-4.002,1.926-4.002,4.279
	c0,2.359,1.793,4.293,4.002,4.293c2.204,0,4-1.924,4-4.293C274.139,170.93,272.35,169.012,270.139,169.012z"/>
<path fill="#CC5858" d="M138.198,189.204l-3.923-8.543l7.979-4.207l3.924,8.541L138.198,189.204z M136.653,181.527l2.354,5.125
	l4.794-2.523l-2.357-5.121L136.653,181.527z"/>
<path fill="#E96B56" d="M49.538,184.736c-4.496,0-8.15-3.918-8.15-8.729s3.655-8.729,8.15-8.729c4.497,0,8.153,3.918,8.153,8.729
	C57.69,180.818,54.032,184.736,49.538,184.736z M49.538,169.184c-3.516,0-6.375,3.062-6.375,6.824c0,3.762,2.859,6.825,6.375,6.825
	c3.515,0,6.378-3.063,6.378-6.825C55.909,172.244,53.053,169.184,49.538,169.184z"/>
<g>
	<path fill="#CC5858" d="M22.556,47.994l0.902-1.637c0,0,0.754,0.441,1.562,0.174c0.647-0.215,1.206-0.845,1.663-1.86
		c1.616-3.579,4.593-3.855,5.947-3.496l-0.424,1.854l0.215-0.927l-0.205,0.927c-0.259-0.066-2.572-0.54-3.923,2.471
		c-0.688,1.523-1.62,2.486-2.77,2.861C23.984,48.852,22.694,48.079,22.556,47.994z"/>
</g>
<g>
	<polygon fill="#E96B56" points="122.244,-21.779 120.982,-23.121 126.961,-29.52 128.216,-28.176 	"/>
	<polygon fill="#E96B56" points="126.961,-21.779 120.982,-28.176 122.244,-29.52 128.216,-23.121 	"/>
</g>
<path fill="#E96B56" d="M39.059-29.52c0,3.804-2.878,6.885-6.429,6.885c-3.552,0-6.43-3.081-6.43-6.885
	c0-3.797,2.877-6.88,6.43-6.88C36.181-36.4,39.059-33.317,39.059-29.52z"/>
<polygon fill="#CC5858" points="266.241,-64.046 255.145,-58.203 249.686,-70.083 260.779,-75.925 "/>
<g>
	<polygon fill="#CC5858" points="94.241,-72.896 93.855,-74.512 98.233,-75.712 98.62,-74.1 	"/>
	<polygon fill="#CC5858" points="92.009,-70.564 91.624,-72.175 96.002,-73.381 96.387,-71.766 	"/>
	<polygon fill="#CC5858" points="89.772,-68.233 89.384,-69.844 93.771,-71.045 94.154,-69.433 	"/>
	<polygon fill="#CC5858" points="87.538,-65.895 87.153,-67.512 91.531,-68.714 91.919,-67.102 	"/>
</g>
</svg>
