<?xml version="1.0" encoding="utf-8"?>
<!-- Generator: Adobe Illustrator 16.0.0, SVG Export Plug-In . SVG Version: 6.00 Build 0)  -->
<!DOCTYPE svg PUBLIC "-//W3C//DTD SVG 1.1//EN" "http://www.w3.org/Graphics/SVG/1.1/DTD/svg11.dtd">
<svg version="1.1" id="Layer_1" xmlns="http://www.w3.org/2000/svg" xmlns:xlink="http://www.w3.org/1999/xlink" x="0px" y="0px"
	 width="300px" height="100px" viewBox="0 0 300 100" enable-background="new 0 0 300 100" xml:space="preserve">
<path fill="#EFEFEF" d="M185.826,98.928l-26.197-15.191c-0.91-0.527-0.797-1.451,0.255-2.061l0,0
	c1.051-0.608,2.642-0.676,3.553-0.146l26.196,15.191c0.91,0.526,0.797,1.45-0.254,2.059l0,0
	C188.327,99.389,186.736,99.455,185.826,98.928z"/>
<path fill="#CC5858" d="M190.569,18.453L162.344,2.082c-0.928-0.539-1.77-0.551-2.407-0.147l-0.002-0.007l-3.542,2.06l2.375,0.445
	c-0.008,0.122-0.015,0.246-0.015,0.375v66.866c0,2.654,1.606,5.738,3.589,6.888l27.829,16.14c-0.253,0.798-0.792,2.478-0.792,2.478
	l3.463-2.018l0,0c0.804-0.416,1.316-1.457,1.316-2.957V25.34C194.158,22.686,192.551,19.602,190.569,18.453z"/>
<path fill="#771818" d="M158.754,71.673c0,2.654,1.607,5.738,3.59,6.888l27.829,16.14c-0.253,0.798-0.793,2.478-0.793,2.478
	l3.464-2.018l0,0c0.804-0.416,1.316-1.457,1.316-2.957V25.34c0-1.385-0.439-2.883-1.141-4.167l-34.266,19.869V71.673z"/>
<path fill="#E96B56" d="M187.01,97.002l-28.229-16.369c-1.981-1.149-3.588-4.232-3.588-6.887V6.878c0-2.654,1.606-3.875,3.588-2.725
	l28.227,16.371c1.981,1.149,3.588,4.233,3.588,6.888v66.865C190.598,96.933,188.99,98.152,187.01,97.002z"/>
<path fill="#FFFFFF" d="M187.377,20.287L159.15,3.917c-1.021-0.593-1.941-0.551-2.596-0.013c0.613-0.296,1.385-0.24,2.229,0.249
	l28.227,16.371c1.98,1.149,3.588,4.233,3.588,6.888v66.865c0,1.286-0.379,2.231-0.992,2.736c0.827-0.399,1.359-1.449,1.359-2.975
	V27.175C190.965,24.52,189.358,21.437,187.377,20.287z"/>
<path fill="#FFFFFF" d="M186.482,94.789l-27.123-15.73c-1.473-0.855-2.666-3.147-2.666-5.121V8.023c0-1.973,1.193-2.88,2.666-2.025
	l27.123,15.731c1.473,0.854,2.666,3.147,2.666,5.12v65.915C189.15,94.736,187.957,95.644,186.482,94.789z"/>
<path fill="#CC5858" d="M186.705,94.696l-27.121-15.731c-1.473-0.854-2.668-3.146-2.668-5.119V7.931c0-1.107,0.377-1.878,0.968-2.19
	c-0.716,0.224-1.19,1.042-1.19,2.283v65.916c0,1.973,1.193,4.266,2.666,5.121l27.123,15.73c0.646,0.375,1.239,0.41,1.701,0.166
	C187.76,95.088,187.253,95.013,186.705,94.696z"/>
<path fill="#EFEFEF" d="M175.387,74.543l-13.313-7.719V34.32l6.273,3.638c4.355,2.525,7.039,7.195,7.039,12.248V74.543z"/>
<g>
	<path fill="#E96B56" d="M157.314,31.176l0.002,0.002c-1.344-0.804-3.211-0.706-5.273,0.491c-4.081,2.367-7.403,8.144-7.403,12.878
		v3.417l0,0l0,0l0,0l0.14,0.083l13.338,7.88l0.202-4.088l0.167-1.587l0.707-2.466l0.082-0.376l1.517-3.069l1.194-1.498l0.97-1.16
		l2.359-1.865l0.207-0.155l1.16-0.502l1.561-0.407h1.216l1.36,0.24L157.314,31.176z"/>
	<path fill="#D4ECFF" d="M159.015,62.771l0.433-0.252V46.955c-0.224,0.307-0.329,0.702-0.433,1.102V62.771z"/>
	<polygon fill="#E96B56" points="172.492,70.57 159.015,62.771 159.154,48.036 159.669,46.549 161.229,43.854 163.074,41.654 
		164.738,40.318 166.538,39.222 169.802,38.846 171.527,39.827 172.492,41.311 172.797,43.587 172.693,68.217 	"/>
	<path fill="#CC5858" d="M157.316,31.178c-1.123-0.673-2.615-0.709-4.28-0.005l13.733,7.963l1.473-0.385h1.216l1.36,0.24
		l-13.504-7.814L157.316,31.178z"/>
	<g>
		<path fill="#E96B56" d="M153.359,31.045c-0.427,0.158-0.867,0.364-1.316,0.624c-0.299,0.175-0.596,0.369-0.887,0.578l13.689,7.938
			l0.469-0.371l0.207-0.154l1.16-0.502l0.464-0.12L153.359,31.045z"/>
		<path fill="#FFFFFF" d="M163.07,41.589l1.862-1.473l-13.684-7.935c-0.62,0.437-1.216,0.949-1.782,1.52L163.07,41.589z"/>
		<path fill="#CC5858" d="M172.926,70.32l-0.434,0.25v-26.56c0-4.458-3.127-6.271-6.971-4.042s-6.971,7.669-6.971,12.125v3.58
			l-0.433,0.251v-3.58c0-4.735,3.319-10.511,7.403-12.878c4.082-2.367,7.404-0.442,7.404,4.292V70.32z"/>
	</g>
</g>
<polygon fill="#EAADAD" points="148.729,42.007 147.971,45.124 148.349,50.154 147.387,49.587 146.158,46.851 147.234,43.395 "/>
<g>
	<path opacity="0.4" fill="#FFFFFF" enable-background="new    " d="M170.779,61.941c-0.081,0-0.166-0.025-0.252-0.074l-9.801-5.684
		c-0.289-0.167-0.514-0.595-0.514-0.975v-7.745c0-0.228,0.084-0.408,0.229-0.491c0.129-0.074,0.287-0.067,0.443,0.024l9.803,5.683
		c0.289,0.168,0.514,0.595,0.514,0.975V61.4c0,0.227-0.083,0.406-0.229,0.49C170.912,61.926,170.848,61.941,170.779,61.941z
		 M160.633,47.24c-0.013,0-0.023,0.001-0.033,0.007c-0.032,0.02-0.072,0.087-0.072,0.217v7.745c0,0.268,0.164,0.588,0.356,0.7
		l9.802,5.684c0.025,0.015,0.089,0.048,0.127,0.023c0.033-0.019,0.072-0.087,0.072-0.216v-7.746c0-0.268-0.163-0.587-0.355-0.699
		l-9.803-5.684C160.709,47.26,160.669,47.24,160.633,47.24z"/>
	<g>
		<path fill="#E8B3B3" d="M163.771,56.5l-0.07-0.04c-0.256-0.147-0.461-0.546-0.461-0.888v-3.69c0-0.342,0.207-0.5,0.461-0.351
			l0.07,0.039c0.256,0.148,0.461,0.546,0.461,0.888v3.69C164.232,56.49,164.025,56.647,163.771,56.5z"/>
		<path fill="#E8B3B3" d="M165.742,57.642l-0.069-0.04c-0.257-0.146-0.462-0.545-0.462-0.887v-2.16c0-0.342,0.207-0.5,0.462-0.352
			l0.069,0.041c0.256,0.146,0.461,0.545,0.461,0.887v2.16C166.203,57.633,165.996,57.791,165.742,57.642z"/>
		<path fill="#A83939" d="M167.713,58.785l-0.069-0.039c-0.257-0.148-0.462-0.546-0.462-0.888v-5.142c0-0.342,0.207-0.5,0.462-0.352
			l0.069,0.04c0.256,0.147,0.461,0.546,0.461,0.888v5.142C168.174,58.776,167.967,58.935,167.713,58.785z"/>
	</g>
</g>
<ellipse fill="#EFEFEF" cx="134.218" cy="84.127" rx="6.985" ry="4.051"/>
<g>
	<path fill="#EFEFEF" d="M145.965,97.02c3.293,1.91,8.632,1.91,11.925,0c3.293-1.908,3.293-5.005,0-6.914s-8.632-1.909-11.925,0
		C142.673,92.015,142.673,95.111,145.965,97.02z"/>
	<g>
		<path fill="#771818" d="M146.762,90.971c-0.587,0.253-0.956,0.909-0.909,1.617c0.024,0.332,0.064,0.643,0.133,0.79
			c0.188,0.396,0.8,0.935,1.778,0.548c0.978-0.388,3.148-2.438,3.23-3.778C151.146,87.654,148.309,90.307,146.762,90.971z"/>
		<path fill="#771818" d="M152.508,95.093c0,0-0.234,1.437-0.121,1.7c0.115,0.264,0.795,0.825,1.801,0.703
			c1.006-0.121,3.898-1.123,4.541-3.038c0.998-2.969-5.583,0.224-5.583,0.224L152.508,95.093z"/>
		<path fill="#E96B56" d="M155.332,72.125l0.225,22.428c-0.023,0.779-0.533,1.438-1.217,1.555c-0.086,0.015-0.174,0.025-0.272,0.034
			c-0.692,0.06-1.097-0.237-1.327-0.551c-0.188-0.255-0.285-0.576-0.299-0.905l-0.285-9.574l-1.424-8.561l-1.969,15.15
			c-0.031,0.41-0.228,0.789-0.542,0.999c-0.216,0.144-0.511,0.257-0.898,0.243c-0.564-0.016-0.955-0.32-1.195-0.591
			c-0.189-0.214-0.289-0.509-0.285-0.811l0.78-9.116l0.291-11.627L155.332,72.125z"/>
		<path fill="#FFC2B0" d="M152.441,52.049l-0.353,2.044c0,0-0.013,0.696,0.763,0.891c0.773,0.192,1.014-0.31,1.014-0.31l0.352-2.301
			L152.441,52.049z"/>
		<path fill="#FFC2B0" d="M156.715,50.931c-0.551,1.751-2.253,2.768-3.804,2.27c-1.552-0.499-2.362-2.32-1.812-4.071
			s2.253-2.767,3.805-2.269C156.453,47.356,157.264,49.18,156.715,50.931z"/>
		<path fill="#CC5858" d="M152.535,54.131c-0.055-0.021-3.29-2.114-4.486,0.074c-1.949,3.569-0.524,7.664-1.22,16.551
			c-0.116,1.488,1.993,2.393,2.989,2.966c0.887,0.509,1.88,0.82,2.902,0.829c1.01,0.008,2.948-0.895,2.877-2.222
			c-0.323-6.105,0.215-11.251,0.711-16.243C156.311,56.086,155.691,55.414,152.535,54.131z"/>
		<path fill="#A83939" d="M150.736,76.551l-1.969,15.15c-0.031,0.41-0.227,0.789-0.542,0.999c-0.051,0.034-0.107,0.065-0.167,0.095
			c0.409-0.308,1.602-13.025,1.824-14.44C150.102,76.939,150.736,76.551,150.736,76.551z"/>
	</g>
	<polygon fill="#FFC2B0" points="163.023,55.98 165.732,50.58 164.882,50.042 162.074,54.154 	"/>
	<polygon fill="#FFC2B0" points="145.158,50.247 146.477,44.227 147.525,44.238 147.131,49.231 	"/>
	<path fill="#CC5858" d="M156.311,56.086c0,0,3.029,1.199,5.633-2.099c0.229-0.291,0.7-0.259,0.836,0.055
		c0.235,0.54,0.527,1.356,0.172,2.124c-1.572,3.391-6.94,3.271-8.234,5.174C153.424,63.24,156.311,56.086,156.311,56.086z"/>
	<path fill="#CC5858" d="M150.482,53.38c0,0-2.502,0.192-2.862-1.981c-0.186-1.12-0.242-1.79-0.251-2.175
		c-0.007-0.26-0.233-0.458-0.491-0.425c-0.599,0.074-1.527,0.254-1.653,0.658c-0.188,0.602-0.542,3.554,1.929,8.085
		C148.774,60.511,150.482,53.38,150.482,53.38z"/>
	<path fill="#FFC2B0" d="M146.471,44.242l0.024-0.687c0.009-0.242,0.078-0.479,0.204-0.686l0.693-1.144l0.18-0.229
		c0.167-0.211,0.465-0.262,0.693-0.119l0.16,0.1c0.204,0.129,0.32,0.358,0.305,0.598l-0.358,0.977l0.453-0.089
		c0.087-0.017,0.173,0.042,0.189,0.131l0,0c0.013,0.074-0.027,0.149-0.098,0.178l-0.74,0.3l-0.672,0.957L146.471,44.242z"/>
	<path fill="#FFC2B0" d="M165.753,50.615l0.316-0.61c0.112-0.214,0.167-0.455,0.159-0.698l-0.039-1.338l-0.046-0.289
		c-0.042-0.268-0.274-0.458-0.544-0.447l-0.188,0.009c-0.239,0.011-0.454,0.153-0.56,0.369l-0.169,1.027l-0.352-0.302
		c-0.066-0.058-0.17-0.049-0.229,0.02l0,0c-0.049,0.058-0.049,0.144-0.002,0.204l0.496,0.627l0.129,1.309L165.753,50.615z"/>
	<path fill="#A83939" d="M154.334,60.66c-0.264,1.205,1.322,10.302-0.439,13.629c0.882-0.358,1.754-1.063,1.705-1.958
		c-0.23-4.366-0.021-8.24,0.299-11.92c1.507-0.768,3.865-1.226,5.531-2.451C159.642,58.62,154.57,59.584,154.334,60.66z"/>
	<path fill="#FFFFFF" d="M151.371,53.553l0.449-0.464c0,0,0.738,0.759,1.332,0.89c0,0,0.715,0.203,1.064,0.22l0.289,0.8
		C154.506,55.002,152.152,54.832,151.371,53.553z"/>
	<path fill="#771818" d="M154.604,50.985c0.123-0.002,0.24-0.058,0.309-0.161c0.124-0.179,0.046-1,0.424-1.135
		c0.592-0.212,1.995,0.531,2.146-1.613c0.078-1.114-0.463-1.411-0.461-2.02c0,0,0.048,0.306-2.807,0.117
		c-2.855-0.191-3.782,2.354-3.85,3.567c-0.067,1.213,0.517,3.205,2.467,3.48c0.324,0.045,1.683-1.052,1.648-1.197
		c-0.035-0.144-0.548-0.137-0.475-0.555C154.067,51.12,154.278,50.99,154.604,50.985z"/>
</g>
<g>
	<g>
		<path fill="#EFEFEF" d="M172.102,82.158l-8.623-5c-0.384-0.222-0.695-0.818-0.695-1.331v-6.44c0-0.512,0.312-0.748,0.695-0.527
			l8.623,5c0.384,0.223,0.695,0.818,0.695,1.332v6.439C172.797,82.146,172.485,82.38,172.102,82.158z"/>
		<path fill="#771818" d="M171.249,71.941l-8.624-5c-0.17-0.098-0.325-0.102-0.445-0.036V66.9l-0.836,0.484
			c0,0,0.371,0.137,0.587,0.217v6.308c0,0.513,0.312,1.108,0.694,1.331l8.242,4.779v0.74l0.846-0.488l-0.006-0.002
			c0.145-0.088,0.234-0.28,0.234-0.557v-6.439C171.943,72.76,171.633,72.164,171.249,71.941z"/>
		<path fill="#CC5858" d="M170.398,80.732l-8.624-5c-0.384-0.222-0.694-0.818-0.694-1.33v-6.44c0-0.513,0.311-0.749,0.694-0.527
			l8.624,5c0.383,0.222,0.694,0.818,0.694,1.331v6.439C171.091,80.721,170.779,80.957,170.398,80.732z"/>
		<path fill="#FFFFFF" d="M170.398,72.435l-8.624-5c-0.218-0.126-0.409-0.101-0.536,0.036c0.093-0.007,0.196,0.015,0.305,0.078
			l8.625,5c0.383,0.223,0.693,0.818,0.693,1.331v6.44c0,0.222-0.06,0.387-0.156,0.49c0.229-0.018,0.388-0.24,0.388-0.605v-6.439
			C171.091,73.253,170.779,72.656,170.398,72.435z"/>
	</g>
	<g>
		<path fill="#FFFFFF" d="M164.674,73.513c0,0.372-0.26,0.523-0.581,0.339c-0.321-0.186-0.582-0.641-0.582-1.014
			s0.261-0.523,0.582-0.338C164.412,72.688,164.674,73.141,164.674,73.513z"/>
		<path fill="#FFFFFF" d="M166.437,74.535c0,0.372-0.261,0.523-0.582,0.338s-0.581-0.641-0.581-1.014
			c0-0.372,0.26-0.523,0.581-0.338C166.176,73.709,166.437,74.162,166.437,74.535z"/>
		<path fill="#FFFFFF" d="M168.2,75.559c0,0.372-0.261,0.523-0.582,0.338s-0.582-0.641-0.582-1.013c0-0.373,0.261-0.524,0.582-0.339
			C167.938,74.73,168.2,75.186,168.2,75.559z"/>
	</g>
</g>
<g>
	<g>
		<g>
			<path fill="#EFEFEF" d="M186.405,90.453l-8.624-5c-0.383-0.223-0.693-0.818-0.693-1.331V69.627c0-0.512,0.311-0.749,0.693-0.527
				l8.624,5c0.384,0.223,0.694,0.818,0.694,1.331v14.495C187.1,90.439,186.789,90.675,186.405,90.453z"/>
			<path fill="#771818" d="M185.553,72.182l-8.623-5c-0.172-0.098-0.326-0.102-0.446-0.036v-0.005l-0.836,0.484
				c0,0,0.37,0.137,0.587,0.217v14.361c0,0.514,0.311,1.109,0.695,1.332l8.241,4.779v0.74l0.846-0.489l-0.006-0.002
				c0.144-0.087,0.235-0.28,0.235-0.556V73.513C186.246,73,185.937,72.404,185.553,72.182z"/>
			<path fill="#CC5858" d="M184.7,89.027l-8.624-5c-0.383-0.222-0.694-0.818-0.694-1.331V68.2c0-0.513,0.312-0.749,0.694-0.527
				l8.624,5c0.384,0.222,0.694,0.817,0.694,1.331v14.494C185.395,89.015,185.084,89.249,184.7,89.027z"/>
			<path fill="#FFFFFF" d="M184.7,72.675l-8.624-5c-0.218-0.126-0.408-0.101-0.536,0.036c0.093-0.008,0.196,0.015,0.306,0.078
				l8.623,5c0.384,0.222,0.695,0.818,0.695,1.331v14.495c0,0.221-0.061,0.387-0.156,0.49c0.229-0.02,0.387-0.24,0.387-0.605V74.006
				C185.395,73.492,185.084,72.896,184.7,72.675z"/>
		</g>
	</g>
	<g>
		<path fill="#FFFFFF" d="M181.647,74.639c0,0.805-0.563,1.133-1.259,0.729c-0.694-0.403-1.258-1.384-1.258-2.189
			c0-0.805,0.563-1.133,1.258-0.729C181.084,72.853,181.647,73.832,181.647,74.639z"/>
		<path fill="#FFFFFF" d="M182.171,76.916c-0.002-0.012-0.003-0.025-0.005-0.038c-0.055-0.34-0.373-0.638-0.586-0.562
			c-0.326,0.116-0.74,0.061-1.193-0.201c-0.452-0.263-0.867-0.686-1.192-1.181c-0.211-0.319-0.53-0.393-0.585-0.116
			c-0.002,0.011-0.004,0.02-0.006,0.031l-0.596,3.805l4.758,2.76L182.171,76.916z"/>
	</g>
	<g>
		<polygon fill="#FFFFFF" points="183.105,84.311 177.327,80.96 177.327,80.542 183.105,83.893 		"/>
		<polygon fill="#FFFFFF" points="181.359,85.127 177.327,82.787 177.327,82.369 181.359,84.709 		"/>
		<polygon fill="#FFFFFF" points="180.816,83.898 177.327,81.875 177.327,81.457 180.816,83.48 		"/>
		<polygon fill="#FFFFFF" points="183.105,85.226 181.359,84.213 181.359,83.795 183.105,84.807 		"/>
	</g>
</g>
<g>
	<g>
		<g>
			<path fill="#EFEFEF" d="M186.405,69.953l-8.624-5c-0.383-0.223-0.693-0.818-0.693-1.331V49.127c0-0.513,0.311-0.75,0.693-0.527
				l8.624,5c0.384,0.223,0.694,0.818,0.694,1.331v14.495C187.1,69.938,186.789,70.175,186.405,69.953z"/>
			<path fill="#CC5858" d="M185.553,51.68l-8.623-5c-0.172-0.098-0.326-0.102-0.446-0.037v-0.005l-0.836,0.485
				c0,0,0.37,0.136,0.587,0.216v14.361c0,0.514,0.311,1.109,0.695,1.332l8.241,4.779v0.74l0.846-0.489l-0.006-0.001
				c0.144-0.088,0.235-0.281,0.235-0.557V53.011C186.246,52.498,185.937,51.904,185.553,51.68z"/>
			<path fill="#E96B56" d="M184.7,68.527l-8.624-5c-0.383-0.222-0.694-0.818-0.694-1.331V47.702c0-0.513,0.312-0.749,0.694-0.527
				l8.624,5c0.384,0.222,0.694,0.817,0.694,1.331V68C185.395,68.513,185.084,68.749,184.7,68.527z"/>
			<path fill="#FFFFFF" d="M184.7,52.175l-8.624-5c-0.218-0.125-0.408-0.1-0.536,0.036c0.093-0.007,0.196,0.015,0.306,0.078l8.623,5
				c0.384,0.222,0.695,0.818,0.695,1.331v14.495c0,0.221-0.061,0.387-0.156,0.49c0.229-0.018,0.387-0.24,0.387-0.605V53.506
				C185.395,52.992,185.084,52.396,184.7,52.175z"/>
		</g>
	</g>
	<g>
		<polygon fill="#CC5858" points="183.118,55.447 177.342,52.096 177.342,51.678 183.118,55.029 		"/>
		<polygon fill="#CC5858" points="181.375,56.264 177.342,53.924 177.342,53.506 181.375,55.846 		"/>
		<polygon fill="#CC5858" points="180.829,55.035 177.342,53.011 177.342,52.593 180.829,54.616 		"/>
		<polygon fill="#CC5858" points="183.118,56.359 181.375,55.35 181.375,54.931 183.118,55.941 		"/>
	</g>
	<g>
		<polygon fill="#CC5858" points="183.118,58.977 177.342,55.625 177.342,55.207 183.118,58.559 		"/>
		<polygon fill="#CC5858" points="181.375,59.793 177.342,57.453 177.342,57.035 181.375,59.375 		"/>
		<polygon fill="#CC5858" points="180.829,58.563 177.342,56.54 177.342,56.122 180.829,58.146 		"/>
		<polygon fill="#CC5858" points="183.118,59.889 181.375,58.878 181.375,58.46 183.118,59.471 		"/>
	</g>
	<g>
		<polygon fill="#CC5858" points="183.118,62.506 177.342,59.154 177.342,58.736 183.118,62.088 		"/>
		<polygon fill="#CC5858" points="181.375,63.322 177.342,60.982 177.342,60.563 181.375,62.904 		"/>
		<polygon fill="#CC5858" points="180.829,62.093 177.342,60.069 177.342,59.65 180.829,61.675 		"/>
		<polygon fill="#CC5858" points="183.118,63.418 181.375,62.407 181.375,61.989 183.118,63 		"/>
	</g>
</g>
<g>
	<polygon fill="#FFFFFF" points="164.912,61.545 160.791,59.154 160.791,58.77 164.912,61.158 	"/>
	<polygon fill="#FFFFFF" points="167.467,63.025 165.707,62.006 165.707,61.618 167.467,62.641 	"/>
	<polygon fill="#FFFFFF" points="165.055,62.469 163.295,61.447 163.295,61.063 165.055,62.082 	"/>
	<polygon fill="#FFFFFF" points="168.865,64.678 165.707,62.848 165.707,62.46 168.865,64.293 	"/>
	<polygon fill="#FFFFFF" points="171.029,66.774 166.356,64.063 166.356,63.678 171.029,66.387 	"/>
	<polygon fill="#FFFFFF" points="169.983,64.485 168.224,63.465 168.224,63.078 169.983,64.1 	"/>
	<polygon fill="#FFFFFF" points="162.551,61.017 160.791,59.996 160.791,59.609 162.551,60.631 	"/>
	<polygon fill="#FFFFFF" points="165.602,63.627 160.783,60.832 160.783,60.445 165.602,63.24 	"/>
	<polygon fill="#FFFFFF" points="163.746,63.393 160.84,61.707 160.84,61.32 163.746,63.006 	"/>
</g>
<g>
	<path fill="#EFEFEF" d="M185.295,43.229l-22.551-13.076c-1.461-0.847-2.645-3.118-2.645-5.075l0,0c0-1.956,1.184-2.854,2.645-2.007
		l22.551,13.077c1.459,0.847,2.643,3.118,2.643,5.074l0,0C187.939,43.176,186.756,44.076,185.295,43.229z"/>
	<path fill="#771818" d="M187.384,39.937c0-1.957-1.184-4.228-2.644-5.075l-22.551-13.076c-0.68-0.395-1.297-0.406-1.766-0.113
		l0.002-0.007l-1.111,0.651l0.512,0.058c-0.179,0.373-0.281,0.849-0.281,1.418l0,0c0,1.956,1.184,4.227,2.645,5.074l22.551,13.077
		c0.285,0.165,0.56,0.262,0.818,0.3l-0.137,0.455l1.095-0.642h-0.009C187.045,41.72,187.384,40.98,187.384,39.937z"/>
	<path fill="#CC5858" d="M183.66,42.575l-22.551-13.077c-1.461-0.847-2.645-3.118-2.645-5.074l0,0c0-1.957,1.184-2.854,2.645-2.007
		l22.551,13.076c1.46,0.847,2.644,3.118,2.644,5.075l0,0C186.306,42.523,185.12,43.422,183.66,42.575z"/>
	<path fill="#FFFFFF" d="M183.885,35.347l-22.551-13.076c-0.743-0.431-1.412-0.407-1.895-0.025c0.455-0.233,1.037-0.195,1.67,0.172
		l22.551,13.077c1.46,0.847,2.644,3.118,2.644,5.075c0,0.96-0.287,1.664-0.751,2.032c0.595-0.305,0.975-1.072,0.975-2.18
		C186.529,38.465,185.346,36.194,183.885,35.347z"/>
</g>
<g>
	<path fill="#EFEFEF" d="M176.827,27.54l-13.973-8.093c-1.46-0.847-2.644-3.118-2.644-5.075l0,0c0-1.956,1.184-2.854,2.644-2.007
		l13.973,8.093c1.46,0.848,2.644,3.118,2.644,5.075l0,0C179.473,27.487,178.289,28.385,176.827,27.54z"/>
	<path fill="#CC5858" d="M178.806,24.24c0-1.957-1.185-4.228-2.644-5.075l-13.973-8.093c-0.68-0.395-1.297-0.405-1.766-0.113
		l0.002-0.007l-1.111,0.651l0.512,0.058c-0.179,0.373-0.281,0.849-0.281,1.418l0,0c0,1.956,1.184,4.227,2.645,5.074l13.973,8.093
		c0.285,0.166,0.56,0.262,0.818,0.3l-0.137,0.455l1.094-0.642h-0.008C178.465,26.023,178.806,25.284,178.806,24.24z"/>
	<path fill="#E96B56" d="M175.082,26.878l-13.973-8.092c-1.461-0.848-2.645-3.118-2.645-5.075l0,0c0-1.957,1.184-2.854,2.645-2.007
		l13.973,8.093c1.46,0.847,2.644,3.118,2.644,5.075l0,0C177.726,26.827,176.542,27.726,175.082,26.878z"/>
	<path fill="#FFFFFF" d="M175.306,19.651l-13.974-8.093c-0.743-0.431-1.412-0.407-1.895-0.025c0.455-0.233,1.037-0.194,1.67,0.173
		l13.973,8.093c1.46,0.847,2.644,3.118,2.644,5.074c0,0.96-0.287,1.664-0.751,2.033c0.595-0.305,0.975-1.073,0.975-2.18
		C177.949,22.769,176.766,20.498,175.306,19.651z"/>
</g>
<g>
	<polygon fill="#CC5858" points="168.771,19.458 162.992,16.107 162.992,15.689 168.771,19.04 	"/>
	<polygon fill="#CC5858" points="173.361,22.118 169.329,19.778 169.329,19.36 173.361,21.7 	"/>
	<polygon fill="#CC5858" points="166.482,19.045 162.992,17.022 162.992,16.604 166.482,18.627 	"/>
	<polygon fill="#CC5858" points="168.771,20.373 167.025,19.36 167.025,18.942 168.771,19.955 	"/>
</g>
<g>
	<polygon fill="#FFFFFF" points="182.352,38.191 176.574,34.84 176.574,34.422 182.352,37.773 	"/>
	<polygon fill="#FFFFFF" points="176.036,34.527 172.004,32.189 172.004,31.771 176.036,34.109 	"/>
	<polygon fill="#FFFFFF" points="180.063,37.778 176.574,35.754 176.574,35.336 180.063,37.358 	"/>
	<polygon fill="#FFFFFF" points="182.352,39.104 180.607,38.093 180.607,37.675 182.352,38.686 	"/>
	<polygon fill="#FFFFFF" points="176.036,35.437 174.291,34.424 174.291,34.005 176.036,35.017 	"/>
</g>
<g>
	<polygon fill="#CC5858" points="148.194,39.549 147.306,39.035 147.453,38.764 148.342,39.28 	"/>
	<path fill="#CC5858" d="M146.522,38.58l0.147-0.269l-0.338-0.196c-0.045,0.092-0.085,0.185-0.131,0.278L146.522,38.58z"/>
	<polygon fill="#CC5858" points="149.867,40.52 148.978,40.003 149.125,39.734 150.015,40.249 	"/>
	<polygon fill="#CC5858" points="151.54,41.489 150.65,40.975 150.799,40.704 151.688,41.22 	"/>
	<polygon fill="#CC5858" points="153.213,42.46 152.324,41.944 152.471,41.675 153.359,42.189 	"/>
	<polygon fill="#CC5858" points="154.885,43.429 153.996,42.915 154.144,42.644 155.033,43.16 	"/>
	<polygon fill="#CC5858" points="156.559,44.4 155.669,43.884 155.816,43.615 156.705,44.129 	"/>
	<polygon fill="#CC5858" points="158.23,45.369 157.342,44.854 157.489,44.583 158.379,45.1 	"/>
	<polygon fill="#CC5858" points="159.904,46.34 159.015,45.824 159.162,45.555 160.051,46.069 	"/>
</g>
<g>
	<polygon fill="#CC5858" points="164.256,41.844 163.352,41.318 163.536,41.065 164.256,41.482 	"/>
	<polygon fill="#CC5858" points="165.957,42.829 165.053,42.306 165.053,41.945 165.957,42.469 	"/>
	<polygon fill="#CC5858" points="167.658,43.816 166.754,43.293 166.754,42.931 167.658,43.457 	"/>
	<polygon fill="#CC5858" points="169.359,44.804 168.457,44.278 168.457,43.918 169.359,44.442 	"/>
	<polygon fill="#CC5858" points="171.063,45.789 170.156,45.266 170.156,44.904 171.063,45.429 	"/>
	<polygon fill="#CC5858" points="172.762,46.776 171.858,46.251 171.858,45.891 172.762,46.415 	"/>
</g>
<polygon fill="#FFFFFF" points="171.469,31.882 168.215,29.998 168.215,29.578 171.469,31.464 "/>
<g>
	<g>
		<path fill="#4C0202" d="M130.256,41.563c0,0,0.166,3.218,0.425,5.38c0.26,2.162,5.793-1.66,5.793-1.66v-2.462L130.256,41.563z"/>
		<g>
			<path fill="#771818" d="M133.204,81.596c0.083,0.197,1.517,1.839,2.951,2.25c0.624,0.178,1.042,0.201,1.316,0.171
				c0.276-0.031,0.446-0.298,0.353-0.544c-0.248-0.652-0.955-2.015-2.751-2.853C132.642,79.483,133.204,81.596,133.204,81.596z"/>
			<path fill="#771818" d="M132.726,82.227c0,0,0.54,1.193,0.707,2.191c0.102,0.609-0.252,1.398-0.545,1.922
				c-0.182,0.326-0.64,0.398-0.929,0.15c-0.469-0.399-1.065-1.094-1.164-2.092c-0.166-1.682,0-1.975,0-1.975L132.726,82.227z"/>
			<path fill="#E96B56" d="M129.273,61.9c0,0-0.188,2.121,0,4.467c0.187,2.348,0.856,13.322,0.981,15.962c0,0-0.062,0.8,1.582,0.624
				c1.644-0.177,1.511-1.064,1.511-1.064s2.309-0.029,2.382-1.311c0.073-1.279,2.366-15.297,2.366-20.334L129.273,61.9z"/>
			<g>
				<path fill="#FFC2B0" d="M138.947,50.931l1.131,1.649l3.889,4.42c0,0-0.135,0.411-0.618,0.518
					c-0.378,0.084-3.649-2.852-5.06-4.141c-0.375-0.342-0.438-0.888-0.149-1.297L138.947,50.931z"/>
				<path fill="#8C2A2A" d="M136.74,44.162c0,0,1.796-0.043,2.421,2.4c0.625,2.443,1.115,5.505,0.571,5.76
					c-1.633,0.764-2.667-0.129-2.667-0.129L136.74,44.162z"/>
				<path fill="#A83939" d="M137.278,44.266c-0.308-0.12-0.651-0.137-0.969-0.051c-1.531,0.415-7.287,2.004-8.236,2.768
					c-1.096,0.882,1.644,5.836,1.604,7.461c-0.04,1.624-0.234,3.54-0.387,5.306s-0.358,2.734,1.176,3.485s4.155,0.785,6.117-0.621
					c1.961-1.408,1.605-2.369,1.523-3.392c-0.082-1.021-0.749-5.438-0.691-6.692c0,0,0.691-0.48,1.204-1.303
					c0.513-0.821-0.393-2.332-0.767-3.314s0.212-2.105,0.096-2.907C137.885,44.596,137.605,44.395,137.278,44.266z"/>
				<path fill="#FFFFFF" d="M135.438,45.955c0.122,0.893-0.749,1.733-1.941,1.876c-1.195,0.144-2.262-0.462-2.382-1.354
					c-0.122-0.893,0.749-1.733,1.941-1.876C134.249,44.457,135.316,45.062,135.438,45.955z"/>
				<path fill="#FFC2B0" d="M134.82,46.029c0.087,0.638-0.534,1.238-1.389,1.342c-0.854,0.104-1.616-0.331-1.704-0.969
					c-0.087-0.638,0.535-1.238,1.389-1.342C133.971,44.958,134.734,45.391,134.82,46.029z"/>
				<path fill="#FFC2B0" d="M133.973,43.935c0,0-1.038-0.804-1.244-0.396s-0.373,2.156-0.373,2.156l2.063,0.522l-0.313-1.771
					C134.107,44.444,134.52,44.115,133.973,43.935z"/>
				<path fill="#FFC2B0" d="M137.196,42.02c-0.1,1.598-1.558,2.818-3.258,2.724c-1.698-0.095-2.994-1.467-2.895-3.065
					c0.1-1.598,1.559-2.818,3.258-2.724C136.002,39.047,137.298,40.42,137.196,42.02z"/>
				<path fill="#EA9C92" d="M132.585,44.045c-0.018,0.091-0.036,0.189-0.053,0.289c0.208,1.009,1.811,1.451,1.811,1.451l-0.236-1.34
					c0,0,0.194-0.154,0.14-0.311C133.613,43.945,132.813,43.778,132.585,44.045z"/>
				<path fill="#FFC2B0" d="M137.196,42.02c-0.1,1.598-1.558,2.818-3.258,2.724c-1.698-0.095-2.994-1.467-2.895-3.065
					c0.1-1.598,1.559-2.818,3.258-2.724C136.002,39.047,137.298,40.42,137.196,42.02z"/>
				<polygon fill="#FFC2B0" points="126.531,54.123 126.875,61.884 128.08,62 128.865,55.015 				"/>
				<path fill="#8C2A2A" d="M130.491,53.475c-0.398-1.656-1.187-5.318-1.187-5.318l-0.336,3.643c0.389,1.079,0.722,2.07,0.709,2.645
					c-0.023,0.953-0.1,2.008-0.191,3.073v0.003C129.485,57.52,130.891,55.133,130.491,53.475z"/>
				<path fill="#A83939" d="M128.302,46.824c0,0-0.963,0.347-1.509,3.133c-0.546,2.788-0.953,5.579,0.018,5.938
					c0.973,0.359,1.785,0.631,2.071-0.115c0.286-0.744,0.464-4.336,0.498-5.626C129.418,48.86,129.471,47.078,128.302,46.824z"/>
				<path fill="#FFC2B0" d="M143.678,56.676c0,0,0.522,0.181,0.9,0.568c0.309,0.318,0.48,0.587,0.615,0.775
					c0.3,0.422,0.553,1.333,0.371,1.445c-0.184,0.113-1.231-1.525-1.398-1.143c-0.169,0.381,0.002,0.734-0.215,0.74
					c-0.216,0.005-0.969-1.648-1.56-2.16C141.794,56.389,143.678,56.676,143.678,56.676z"/>
			</g>
			<path fill="#F79A9A" d="M133.346,81.889c0,0,0.285-0.004,0.66-0.063l0,0l0.453-17.061L133.346,81.889z"/>
		</g>
		<g>
			<path fill="#A83939" d="M131.602,72.675l-0.642-0.788l-6.746-3.674c-0.216-0.118-0.391-0.434-0.391-0.705l0.005-5.197
				l-0.387-0.477l0.364-0.197l0,0c0.069-0.042,0.162-0.042,0.264,0.014l7.644,4.166c0.216,0.118,0.391,0.433,0.391,0.705
				l-0.007,5.66c0,0.152-0.056,0.258-0.144,0.302l0,0L131.602,72.675z"/>
			<path fill="#F27C7C" d="M126.938,69.694l-0.48-0.262l-2.631-4.3l0.004-2.824l-0.387-0.477l0.363-0.197l0,0
				c0.069-0.042,0.162-0.042,0.264,0.014l7.644,4.166c0.115,0.063,0.216,0.18,0.288,0.316L126.938,69.694z"/>
			<path fill="#CC5858" d="M123.615,62.043l-0.173-0.211l0.364-0.197l0,0c0.069-0.042,0.162-0.042,0.264,0.014l0.134,0.073
				L123.615,62.043z"/>
			<path fill="#872727" d="M131.786,65.859c0.169,0.131,0.302,0.379,0.32,0.605l-0.747,0.406L131,66.285L131.786,65.859z"/>
			<path fill="#CC5858" d="M131.351,66.013l-7.644-4.165c-0.216-0.119-0.393,0.007-0.393,0.277l-0.007,5.66
				c0,0.271,0.175,0.588,0.391,0.705l7.644,4.166c0.216,0.118,0.393-0.008,0.393-0.278l0.007-5.659
				C131.744,66.445,131.567,66.129,131.351,66.013z"/>
		</g>
		<path fill="#FFC2B0" d="M126.885,61.818c0,0-0.318,1.811-0.271,2.391c0.047,0.58,0.378,1.537,0.629,1.517s0.009-2.333,0.447-2.103
			c0.44,0.231,0.485,0.626,0.686,0.486c0.2-0.141-0.347-2.117-0.202-2.973C128.32,60.279,126.885,61.818,126.885,61.818z"/>
		<path fill="#EA9C92" d="M135.306,42.102c1.545,0.517,1.847,0.202,1.862,0.186c0.014-0.087,0.025-0.176,0.031-0.267
			c0.02-0.322-0.018-0.633-0.104-0.927l-4.009-0.509C133.083,40.583,133.718,41.571,135.306,42.102z"/>
		<path fill="#750404" d="M137.307,39.131c-0.363-0.294-1.678-1.747-4.033-1.404c-1.471,0.215-2.712,1.16-2.987,3.315
			c-0.185,1.453,0.382,2.882,1.424,3.94c0.056-0.025,0.115-0.047,0.167-0.08c0.589-0.366,0.652-0.565,0.652-0.567l0.131-1.1
			c-0.003-0.156-0.129-0.294-0.294-0.305c-0.127-0.007-0.284-0.065-0.431-0.248c-0.338-0.416-0.182-1.065,0.495-1.089
			c0.353-0.013,0.491-0.193,0.54-0.362c0.044-0.147,0.209-0.229,0.36-0.176c0.769,0.262,2.666,0.827,3.885,0.501
			C138.78,41.138,137.673,39.424,137.307,39.131z"/>
		<path fill="#FFFFFF" d="M135.553,43.411l0.942-0.244c0,0-0.449,0.665-1.107,0.836c-0.656,0.169-0.758-0.353-0.758-0.353
			L135.553,43.411z"/>
		<polygon fill="#295C8E" points="128.487,64.055 127.684,63.622 127.985,64.086 128.391,64.226 		"/>
	</g>
</g>
<path fill="#E96B56" d="M114.802,40.676c-1.523,0-2.762-1.347-2.762-3.001c0-1.655,1.238-3.002,2.762-3.002
	c1.524,0,2.762,1.347,2.762,3.002C117.563,39.329,116.326,40.676,114.802,40.676z M114.802,35.327c-1.191,0-2.16,1.053-2.16,2.348
	c0,1.294,0.969,2.347,2.16,2.347s2.16-1.053,2.16-2.347C116.962,36.38,115.993,35.327,114.802,35.327z"/>
<path fill="#CC5858" d="M189.563,9.356l-1.33-2.938l2.704-1.445l1.329,2.938L189.563,9.356z M189.038,6.716l0.798,1.764l1.624-0.867
	l-0.798-1.764L189.038,6.716z"/>
<g>
	<polygon fill="#E96B56" points="142.782,7.649 142.149,6.964 145.151,3.702 145.782,4.389 	"/>
	<polygon fill="#E96B56" points="145.151,7.649 142.149,4.389 142.782,3.702 145.782,6.964 	"/>
</g>
<polygon fill="#CC5858" points="142.251,24.973 140.522,25.896 139.673,24.018 141.402,23.095 "/>
<g>
	<polygon fill="#CC5858" points="111.846,66.96 111.714,66.405 113.2,65.992 113.331,66.547 	"/>
	<polygon fill="#CC5858" points="111.089,67.764 110.958,67.207 112.442,66.795 112.573,67.35 	"/>
	<polygon fill="#CC5858" points="110.333,68.565 110.202,68.011 111.686,67.596 111.816,68.152 	"/>
	<polygon fill="#CC5858" points="109.575,69.367 109.444,68.813 110.929,68.4 111.06,68.955 	"/>
</g>
<path fill="#CC5858" d="M169.297,98.342l-1.33-2.938l2.704-1.446L172,96.896L169.297,98.342z M168.774,95.701l0.798,1.764
	l1.624-0.867l-0.798-1.764L168.774,95.701z"/>
<g>
	<path fill="#CC5858" d="M111.387,11.744l0.306-0.563c0,0,0.256,0.152,0.529,0.06c0.22-0.075,0.409-0.291,0.564-0.64
		c0.547-1.231,1.556-1.326,2.014-1.202l-0.144,0.636l0.073-0.318l-0.069,0.318c-0.087-0.022-0.871-0.184-1.329,0.851
		c-0.233,0.524-0.549,0.855-0.938,0.984C111.871,12.038,111.435,11.774,111.387,11.744z"/>
</g>
<path fill="#E96B56" d="M122.691,93.563c0,1.562-1.166,2.829-2.604,2.829c-1.438,0-2.604-1.268-2.604-2.829s1.166-2.829,2.604-2.829
	C121.525,90.734,122.691,92,122.691,93.563z"/>
</svg>
