<?xml version="1.0" encoding="utf-8"?>
<!-- Generator: Adobe Illustrator 16.0.0, SVG Export Plug-In . SVG Version: 6.00 Build 0)  -->
<!DOCTYPE svg PUBLIC "-//W3C//DTD SVG 1.1//EN" "http://www.w3.org/Graphics/SVG/1.1/DTD/svg11.dtd">
<svg version="1.1" id="Layer_1" xmlns="http://www.w3.org/2000/svg" xmlns:xlink="http://www.w3.org/1999/xlink" x="0px" y="0px"
	 width="300px" height="100px" viewBox="0 0 300 100" enable-background="new 0 0 300 100" xml:space="preserve">
<g>
	<g>
		<path fill="#771818" d="M159.352,85.15h-38.374c-1.214,0-2.2-0.984-2.2-2.199V27.427c0-1.214,0.985-2.2,2.2-2.2h38.372
			c1.214,0,2.199,0.986,2.199,2.2v55.524C161.549,84.166,160.565,85.15,159.352,85.15z"/>
		<rect x="121.242" y="27.691" fill="#E96B56" width="37.844" height="52.803"/>
		<g>
			<path fill="#A87979" d="M140.164,83.967c-0.62,0-1.124-0.503-1.124-1.123s0.503-1.123,1.124-1.123s1.124,0.503,1.124,1.123
				S140.784,83.967,140.164,83.967z M140.164,81.969c-0.482,0-0.875,0.393-0.875,0.875c0,0.481,0.393,0.875,0.875,0.875
				s0.875-0.394,0.875-0.875C141.04,82.361,140.647,81.969,140.164,81.969z"/>
		</g>
	</g>
	<g>
		<path fill="#F9E4E4" d="M161.549,30.666h-22.338c-0.453,0-0.822,0.367-0.822,0.822v29.062c0,0.453,0.367,0.822,0.822,0.822h22.338
			V30.666z"/>
		<path fill="#FFD7D7" d="M170.104,60.595h-30.338c-0.331,0-0.6-0.27-0.6-0.601V30.491c0-0.331,0.269-0.6,0.6-0.6h30.34
			c0.331,0,0.6,0.269,0.6,0.6v29.503C170.703,60.326,170.437,60.595,170.104,60.595z"/>
		<rect x="141.902" y="32.627" fill="#771818" width="26.065" height="15.105"/>
		<rect x="141.902" y="48.973" fill="#FFFEFF" width="7.62" height="0.764"/>
		<rect x="160.893" y="49.354" opacity="0.4" fill="#E96B56" enable-background="new    " width="7.074" height="4.135"/>
		<rect x="160.893" y="54.428" opacity="0.4" fill="#E96B56" enable-background="new    " width="7.074" height="4.135"/>
		<rect x="141.902" y="58.036" fill="#FFFEFF" width="16.387" height="0.511"/>
		<g>
			<rect x="143.236" y="56.896" opacity="0.4" fill="#E96B56" enable-background="new    " width="2.135" height="1.142"/>
			<rect x="147.096" y="54.158" opacity="0.4" fill="#E96B56" enable-background="new    " width="2.135" height="3.878"/>
			<rect x="150.958" y="54.98" opacity="0.4" fill="#E96B56" enable-background="new    " width="2.135" height="3.056"/>
			<rect x="154.82" y="51.422" opacity="0.4" fill="#E96B56" enable-background="new    " width="2.135" height="6.616"/>
		</g>
		<polygon fill="#FFFEFF" points="152.744,37.509 152.744,42.851 157.127,40.18 		"/>
	</g>
	<g>
		<path fill="#E96B56" d="M138.947,37.485h-15.393c-0.533,0-0.964,0.431-0.964,0.964v8.485c0,0.533,0.431,0.964,0.964,0.964h1.034
			v1.343l1.344-1.343h13.015c0.533,0,0.964-0.431,0.964-0.964v-8.485C139.911,37.917,139.48,37.485,138.947,37.485z"/>
		<path fill="#FFFEFF" d="M139.254,36.925h-15.393c-0.533,0-0.964,0.431-0.964,0.964v8.485c0,0.533,0.431,0.964,0.964,0.964h1.035
			v1.343l1.344-1.343h13.014c0.533,0,0.964-0.431,0.964-0.964v-8.485C140.218,37.356,139.787,36.925,139.254,36.925z"/>
		<g>
			<path fill="#771818" d="M138.018,40.471h-13.04c-0.289,0-0.523-0.234-0.523-0.523l0,0c0-0.289,0.234-0.523,0.523-0.523h13.04
				c0.289,0,0.524,0.234,0.524,0.523l0,0C138.542,40.238,138.307,40.471,138.018,40.471z"/>
			<path fill="#771818" d="M132.284,42.678h-7.306c-0.289,0-0.523-0.234-0.523-0.524l0,0c0-0.289,0.234-0.523,0.523-0.523h7.306
				c0.289,0,0.523,0.234,0.523,0.523l0,0C132.806,42.444,132.573,42.678,132.284,42.678z"/>
			<path fill="#771818" d="M138.018,42.678h-3.447c-0.289,0-0.523-0.234-0.523-0.524l0,0c0-0.289,0.234-0.523,0.523-0.523h3.447
				c0.289,0,0.524,0.234,0.524,0.523l0,0C138.542,42.444,138.307,42.678,138.018,42.678z"/>
			<path fill="#771818" d="M127.76,44.884h-2.782c-0.289,0-0.523-0.235-0.523-0.524l0,0c0-0.289,0.234-0.523,0.523-0.523h2.782
				c0.29,0,0.524,0.234,0.524,0.523l0,0C128.282,44.649,128.049,44.884,127.76,44.884z"/>
		</g>
	</g>
	<g>
		<path fill="#FFD7D7" d="M161.549,66.287h-9.025c-0.453,0-0.822,0.367-0.822,0.822v7.234c0,0.453,0.368,0.822,0.822,0.822h9.025
			V66.287z"/>
		<path fill="#771818" d="M153.293,65.584h13.125c0.453,0,0.822,0.367,0.822,0.821v7.235c0,0.452-0.367,0.821-0.822,0.821h-0.883
			v1.146l-1.146-1.146h-11.096c-0.453,0-0.822-0.367-0.822-0.821v-7.235C152.471,65.953,152.84,65.584,153.293,65.584z"/>
		<g>
			<path fill="#FFFEFF" d="M162.987,70.389h2.165c0.199,0,0.358-0.16,0.358-0.357l0,0c0-0.199-0.159-0.358-0.358-0.358h-2.165
				c-0.198,0-0.358,0.159-0.358,0.358l0,0C162.629,70.229,162.789,70.389,162.987,70.389z"/>
			<path fill="#FFFEFF" d="M154.557,70.389h7.038c0.198,0,0.358-0.16,0.358-0.357l0,0c0-0.199-0.16-0.358-0.358-0.358h-7.038
				c-0.198,0-0.358,0.159-0.358,0.358l0,0C154.198,70.229,154.359,70.389,154.557,70.389z"/>
			<path fill="#FFFEFF" d="M154.557,72.445h2.926c0.197,0,0.357-0.16,0.357-0.357l0,0c0-0.199-0.16-0.359-0.357-0.359h-2.926
				c-0.198,0-0.358,0.16-0.358,0.359l0,0C154.198,72.285,154.359,72.445,154.557,72.445z"/>
			<path fill="#FFFEFF" d="M156.724,68.331h-2.165c-0.199,0-0.358-0.16-0.358-0.358l0,0c0-0.198,0.159-0.357,0.358-0.357h2.165
				c0.198,0,0.358,0.159,0.358,0.357l0,0C157.082,68.171,156.92,68.331,156.724,68.331z"/>
			<path fill="#FFFEFF" d="M165.154,68.331h-7.038c-0.198,0-0.358-0.16-0.358-0.358l0,0c0-0.198,0.16-0.357,0.358-0.357h7.038
				c0.198,0,0.358,0.159,0.358,0.357l0,0C165.511,68.171,165.352,68.331,165.154,68.331z"/>
		</g>
	</g>
	<g>
		<path fill="#E96B56" d="M121.791,25.227c-1.664,0-3.011,1.348-3.011,3.011v7.438h9.135c0.453,0,0.822-0.367,0.822-0.822v-9.627
			H121.791z"/>
		<path fill="#771818" d="M108.791,35.056h18.724c0.331,0,0.6-0.269,0.6-0.6v-14.76c0-0.331-0.269-0.6-0.6-0.6h-18.724
			c-0.331,0-0.6,0.269-0.6,0.6v14.76C108.191,34.787,108.46,35.056,108.791,35.056z"/>
		<path fill="#915656" d="M111.24,20.251L111.24,20.251c-0.191,0-0.344-0.155-0.344-0.344v-1.618c0-0.191,0.154-0.344,0.344-0.344
			l0,0c0.19,0,0.343,0.155,0.343,0.344v1.618C111.583,20.096,111.431,20.251,111.24,20.251z"/>
		<path fill="#915656" d="M112.816,20.251L112.816,20.251c-0.191,0-0.344-0.155-0.344-0.344v-1.618c0-0.191,0.155-0.344,0.344-0.344
			l0,0c0.191,0,0.344,0.155,0.344,0.344v1.618C113.162,20.096,113.007,20.251,112.816,20.251z"/>
		<path fill="#915656" d="M125.065,20.251L125.065,20.251c0.191,0,0.344-0.155,0.344-0.344v-1.618c0-0.191-0.155-0.344-0.344-0.344
			l0,0c-0.191,0-0.344,0.155-0.344,0.344v1.618C124.722,20.096,124.876,20.251,125.065,20.251z"/>
		<path fill="#915656" d="M123.489,20.251L123.489,20.251c0.191,0,0.343-0.155,0.343-0.344v-1.618c0-0.191-0.154-0.344-0.343-0.344
			l0,0c-0.191,0-0.344,0.155-0.344,0.344v1.618C123.146,20.096,123.298,20.251,123.489,20.251z"/>
		<g>
			<rect x="110.107" y="31.2" fill="#E96B56" width="1.829" height="1.94"/>
			<rect x="112.483" y="31.2" fill="#E96B56" width="1.829" height="1.94"/>
			<rect x="114.862" y="26.226" fill="#E96B56" width="1.829" height="1.94"/>
			<rect x="117.238" y="26.226" fill="#E96B56" width="1.829" height="1.94"/>
			<rect x="114.862" y="28.713" fill="#E96B56" width="1.829" height="1.94"/>
			<rect x="117.238" y="28.713" fill="#E96B56" width="1.829" height="1.94"/>
			<rect x="119.615" y="28.713" fill="#E96B56" width="1.829" height="1.94"/>
			<rect x="119.615" y="26.226" fill="#E96B56" width="1.829" height="1.94"/>
			<rect x="119.615" y="23.738" fill="#E96B56" width="1.829" height="1.94"/>
			<rect x="117.238" y="23.738" fill="#E96B56" width="1.829" height="1.94"/>
			<rect x="114.862" y="23.738" fill="#E96B56" width="1.829" height="1.94"/>
			<rect x="112.483" y="26.226" fill="#E96B56" width="1.829" height="1.94"/>
			<rect x="112.483" y="28.713" fill="#E96B56" width="1.829" height="1.94"/>
			<rect x="114.862" y="31.2" fill="#E96B56" width="1.829" height="1.94"/>
			<rect x="117.238" y="31.2" fill="#E96B56" width="1.829" height="1.94"/>
			<rect x="121.993" y="28.713" fill="#E96B56" width="1.829" height="1.94"/>
			<rect x="121.993" y="26.226" fill="#E96B56" width="1.829" height="1.94"/>
			<rect x="121.993" y="23.738" fill="#E96B56" width="1.829" height="1.94"/>
			<rect x="110.107" y="26.226" fill="#E96B56" width="1.829" height="1.94"/>
			<rect x="110.107" y="28.713" fill="#E96B56" width="1.829" height="1.94"/>
			<rect x="124.369" y="28.713" fill="#E96B56" width="1.829" height="1.94"/>
			<rect x="124.369" y="26.226" fill="#E96B56" width="1.829" height="1.94"/>
			<rect x="124.369" y="23.738" fill="#E96B56" width="1.829" height="1.94"/>
		</g>
		<rect x="110.107" y="21.369" fill="#FFFEFF" width="16.091" height="1.164"/>
	</g>
</g>
<g>
	<ellipse fill="#A83939" cx="183.314" cy="77.152" rx="7.82" ry="4.449"/>
	<g>
		<path fill="#5B1313" d="M187.057,31.611c0,0-0.172,3.458-0.438,5.784c-0.267,2.324-5.947-1.786-5.947-1.786v-2.647L187.057,31.611
			z"/>
		<g>
			<path fill="#771818" d="M184.031,74.644c-0.086,0.211-1.557,1.977-3.029,2.419c-0.641,0.191-1.071,0.216-1.354,0.184
				c-0.283-0.033-0.457-0.32-0.361-0.586c0.253-0.702,0.98-2.166,2.824-3.067C184.607,72.373,184.031,74.644,184.031,74.644z"/>
			<path fill="#771818" d="M184.521,75.322c0,0-0.555,1.281-0.725,2.354c-0.104,0.655,0.26,1.504,0.56,2.068
				c0.186,0.349,0.658,0.427,0.954,0.163c0.482-0.431,1.094-1.179,1.195-2.251c0.17-1.807,0-2.123,0-2.123L184.521,75.322z"/>
			<path fill="#FFD7D7" d="M188.067,53.471c0,0,0.192,2.28,0,4.804c-0.192,2.522-0.88,14.32-1.007,17.158
				c0,0,0.063,0.86-1.624,0.671c-1.688-0.189-1.552-1.144-1.552-1.144s-2.37-0.03-2.445-1.409
				c-0.074-1.376-2.427-16.441-2.427-21.857L188.067,53.471z"/>
			<g>
				<path fill="#FFC2B0" d="M178.137,41.68l-1.162,1.772l-3.991,4.751c0,0,0.137,0.442,0.635,0.556
					c0.39,0.091,3.745-3.067,5.194-4.451c0.386-0.367,0.449-0.955,0.152-1.395L178.137,41.68z"/>
				<path fill="#E96B56" d="M180.402,34.404c0,0-1.846-0.047-2.488,2.58c-0.641,2.627-1.143,5.918-0.585,6.191
					c1.677,0.82,2.738-0.14,2.738-0.14L180.402,34.404z"/>
				<path fill="#E96B56" d="M179.85,34.517c0.314-0.129,0.667-0.147,0.996-0.055c1.57,0.445,7.48,2.154,8.454,2.975
					c1.126,0.947-1.687,6.274-1.647,8.02c0.041,1.745,0.24,3.805,0.396,5.704s0.369,2.939-1.207,3.745
					c-1.576,0.808-4.266,0.844-6.278-0.667c-2.013-1.513-1.649-2.547-1.563-3.644c0.084-1.098,0.77-5.846,0.711-7.193
					c0,0-0.709-0.515-1.234-1.398c-0.525-0.883,0.402-2.507,0.787-3.563c0.385-1.056-0.219-2.264-0.098-3.124
					C179.226,34.871,179.513,34.654,179.85,34.517z"/>
				<path fill="#FFFFFF" d="M184.365,38.104l-0.671,0.758c-0.087,0.098-0.127,0.229-0.106,0.358l0.586,4.042
					c0.018,0.113-0.012,0.229-0.079,0.322l-1.437,1.96c-0.063,0.087-0.2,0.067-0.236-0.034l-0.88-2.493
					c-0.032-0.095-0.032-0.197,0-0.291l1.325-3.72c0.029-0.082,0.033-0.169,0.013-0.252l-0.236-0.971L184.365,38.104z"/>
				<path fill="#FFFFFF" d="M181.738,36.331c-0.125,0.96,0.77,1.862,1.994,2.016c1.226,0.155,2.322-0.498,2.445-1.456
					c0.126-0.96-0.769-1.862-1.994-2.017C182.958,34.72,181.861,35.373,181.738,36.331z"/>
				<path fill="#FFC2B0" d="M182.371,36.411c-0.09,0.685,0.549,1.331,1.426,1.441c0.876,0.111,1.658-0.356,1.746-1.042
					c0.09-0.686-0.549-1.331-1.425-1.442C183.244,35.26,182.46,35.726,182.371,36.411z"/>
				<path fill="#FFC2B0" d="M183.242,34.16c0,0,1.066-0.866,1.275-0.427c0.209,0.438,0.383,2.316,0.383,2.316l-2.119,0.56
					l0.322-1.903C183.104,34.707,182.68,34.353,183.242,34.16z"/>
				<ellipse fill="#FFC2B0" cx="183.089" cy="31.918" rx="3.164" ry="3.116"/>
				<path fill="#EA9C92" d="M184.666,34.278c0.018,0.098,0.035,0.204,0.055,0.311c-0.213,1.084-1.861,1.56-1.861,1.56l0.244-1.44
					c0,0-0.199-0.167-0.144-0.334C183.611,34.171,184.431,33.993,184.666,34.278z"/>
				<ellipse fill="#FFC2B0" cx="183.089" cy="31.918" rx="3.164" ry="3.116"/>
				<polygon fill="#FFC2B0" points="190.882,45.113 190.527,53.455 189.291,53.58 188.485,46.071 				"/>
				<path fill="#E96B56" d="M186.814,44.415c0.067-0.291,0.609-0.529,0.691-0.907c0.425-1.944,0.527-4.809,0.527-4.809l0.346,3.915
					c-0.398,1.16-0.742,2.227-0.729,2.844c0.023,1.025,0.104,2.158,0.195,3.302v0.003C187.848,48.762,186.405,46.196,186.814,44.415
					z"/>
				<path fill="#E96B56" d="M189.063,37.266c0,0,0.988,0.373,1.549,3.367c0.56,2.995,0.978,5.996-0.021,6.382
					c-0.998,0.387-1.833,0.678-2.126-0.124c-0.292-0.802-0.475-4.662-0.512-6.049C187.918,39.453,187.863,37.54,189.063,37.266z"/>
				<path fill="#FFC2B0" d="M173.278,47.856c0,0-0.536,0.194-0.924,0.609c-0.318,0.342-0.493,0.631-0.631,0.834
					c-0.31,0.453-0.567,1.433-0.38,1.555s1.264-1.64,1.436-1.231c0.174,0.409-0.001,0.789,0.221,0.794
					c0.222,0.006,0.994-1.771,1.602-2.322C175.211,47.547,173.278,47.856,173.278,47.856z"/>
			</g>
			<path fill="#E96B56" d="M183.885,74.958c0,0-0.294-0.003-0.676-0.069l0,0l-0.463-18.338L183.885,74.958z"/>
		</g>
		<g>
			<path fill="#A83939" d="M185.676,65.053l0.658-0.848l6.924-3.951c0.223-0.127,0.402-0.465,0.402-0.758l-0.006-5.587l0.398-0.513
				l-0.375-0.213l0,0c-0.07-0.045-0.167-0.043-0.271,0.015l-7.847,4.478c-0.223,0.128-0.402,0.466-0.402,0.759l0.008,6.083
				c0,0.164,0.058,0.279,0.146,0.324l0,0L185.676,65.053z"/>
			<path fill="#A83939" d="M190.464,61.85l0.493-0.28l2.699-4.622l-0.004-3.036l0.398-0.513l-0.375-0.213l0,0
				c-0.07-0.045-0.166-0.044-0.271,0.015l-7.847,4.478c-0.119,0.068-0.223,0.193-0.297,0.34L190.464,61.85z"/>
			<path fill="#396CAA" d="M193.875,53.625l0.176-0.227l-0.375-0.213l0,0c-0.07-0.045-0.166-0.044-0.271,0.015l-0.138,0.078
				L193.875,53.625z"/>
			<path fill="#A83939" d="M185.487,57.727c-0.175,0.141-0.31,0.406-0.327,0.651l0.768,0.437l0.367-0.629L185.487,57.727z"/>
			<path fill="#FFD7D7" d="M185.933,57.891l7.847-4.479c0.223-0.127,0.402,0.008,0.402,0.301l0.008,6.084
				c0,0.292-0.18,0.631-0.402,0.758l-7.848,4.479c-0.221,0.127-0.401-0.008-0.401-0.301l-0.007-6.084
				C185.531,58.358,185.711,58.018,185.933,57.891z"/>
			<path fill="#FFFFFF" d="M185.814,57.822l7.848-4.479c0.131-0.074,0.245-0.057,0.32,0.029c-0.061-0.012-0.128,0-0.203,0.041
				l-7.847,4.479c-0.222,0.127-0.401,0.466-0.401,0.758l0.007,6.084c0,0.12,0.031,0.211,0.084,0.271
				c-0.12-0.023-0.202-0.146-0.202-0.34l-0.008-6.084C185.412,58.287,185.593,57.947,185.814,57.822z"/>
		</g>
		<polygon fill="#FFFFFF" points="187.543,62.254 187.918,62.042 187.918,58.878 187.543,59.091 		"/>
		<polygon fill="#FFFFFF" points="188.418,61.758 188.791,61.545 188.791,58.382 188.418,58.595 		"/>
		<polygon fill="#FFFFFF" points="189.291,61.262 189.664,61.049 189.664,57.885 189.291,58.096 		"/>
		<path fill="#FFC2B0" d="M190.518,53.384c0,0,0.328,1.947,0.279,2.571c-0.05,0.623-0.388,1.652-0.646,1.631
			c-0.256-0.022-0.009-2.508-0.459-2.26c-0.451,0.246-0.498,0.672-0.704,0.521c-0.204-0.151,0.356-2.275,0.207-3.197
			S190.518,53.384,190.518,53.384z"/>
		<path fill="#EA9C92" d="M181.875,32.189c-1.588,0.555-1.896,0.216-1.911,0.198c-0.015-0.094-0.026-0.189-0.033-0.287
			c-0.02-0.346,0.019-0.68,0.105-0.997l4.116-0.547C184.152,30.558,183.504,31.62,181.875,32.189z"/>
		<path fill="#771818" d="M179.818,28.997c0.375-0.316,1.724-1.878,4.14-1.509c1.511,0.231,2.784,1.246,3.067,3.563
			c0.191,1.562-0.391,3.098-1.462,4.235c-0.058-0.027-0.118-0.051-0.171-0.085c-0.605-0.393-0.671-0.609-0.671-0.611l-0.134-1.182
			c0.003-0.167,0.131-0.316,0.301-0.327c0.131-0.007,0.291-0.071,0.443-0.266c0.348-0.447,0.188-1.146-0.506-1.171
			c-0.364-0.015-0.504-0.207-0.555-0.389c-0.046-0.158-0.215-0.245-0.371-0.191c-0.789,0.282-2.736,0.889-3.989,0.54
			C178.307,31.154,179.443,29.311,179.818,28.997z"/>
		<path fill="#FFFFFF" d="M181.62,33.598l-0.968-0.262c0,0,0.463,0.716,1.137,0.898c0.675,0.182,0.78-0.38,0.78-0.38L181.62,33.598z
			"/>
		<polygon fill="#A83939" points="188.873,55.787 189.696,55.322 189.387,55.82 188.971,55.971 		"/>
	</g>
	<path fill="#FFFFFF" d="M184.937,32.889c0,0.178,0.147,0.324,0.327,0.324c0.182,0,0.327-0.146,0.327-0.324
		s-0.147-0.324-0.327-0.324C185.082,32.567,184.937,32.711,184.937,32.889z"/>
</g>
<g>
	<polygon fill="#FFD7D7" points="107.391,54.721 106.965,54.258 108.991,52.059 109.417,52.521 	"/>
	<polygon fill="#FFD7D7" points="108.991,54.721 106.965,52.521 107.391,52.059 109.417,54.258 	"/>
</g>
<path fill="#FFD7D7" d="M149.587,93.289c0,0.853-0.637,1.545-1.422,1.545c-0.786,0-1.422-0.69-1.422-1.545
	c0-0.853,0.636-1.545,1.422-1.545C148.951,91.744,149.587,92.437,149.587,93.289z"/>
<g>
	<path fill="#CC5858" d="M110.766,91.822l0.305-0.564c0,0,0.256,0.153,0.529,0.061c0.22-0.074,0.409-0.291,0.563-0.641
		c0.547-1.23,1.557-1.325,2.015-1.201l-0.144,0.637l0.073-0.318l-0.069,0.318c-0.087-0.022-0.871-0.184-1.329,0.851
		c-0.232,0.523-0.549,0.854-0.938,0.983C111.249,92.116,110.813,91.852,110.766,91.822z"/>
</g>
<g>
	<polygon fill="#CC5858" points="191.654,92.971 191.523,92.414 193.008,92.002 193.139,92.559 	"/>
	<polygon fill="#CC5858" points="190.898,93.773 190.768,93.219 192.251,92.806 192.382,93.359 	"/>
	<polygon fill="#CC5858" points="190.142,94.574 190.011,94.02 191.494,93.607 191.625,94.162 	"/>
	<polygon fill="#CC5858" points="189.384,95.378 189.253,94.822 190.736,94.409 190.867,94.964 	"/>
</g>
<path fill="#FFD7D7" d="M159.285,20.251c-1.523,0-2.762-1.347-2.762-3.002c0-1.654,1.238-3.002,2.762-3.002s2.762,1.348,2.762,3.002
	C162.049,18.904,160.809,20.251,159.285,20.251z M159.285,14.902c-1.19,0-2.16,1.053-2.16,2.347s0.97,2.347,2.16,2.347
	c1.191,0,2.16-1.053,2.16-2.347S160.477,14.902,159.285,14.902z"/>
<polygon fill="#CC5858" points="120.398,8.398 117.387,10.005 115.907,6.734 118.918,5.127 "/>
<path fill="#FFD7D7" d="M189.77,8.464c0,0.496-0.369,0.898-0.826,0.898c-0.456,0-0.825-0.402-0.825-0.898
	c0-0.497,0.369-0.898,0.825-0.898C189.4,7.565,189.77,7.967,189.77,8.464z"/>
</svg>
