<?xml version="1.0" encoding="utf-8"?>
<!-- Generator: Adobe Illustrator 16.0.0, SVG Export Plug-In . SVG Version: 6.00 Build 0)  -->
<!DOCTYPE svg PUBLIC "-//W3C//DTD SVG 1.1//EN" "http://www.w3.org/Graphics/SVG/1.1/DTD/svg11.dtd">
<svg version="1.1" id="Layer_1" xmlns="http://www.w3.org/2000/svg" xmlns:xlink="http://www.w3.org/1999/xlink" x="0px" y="0px"
	 width="300px" height="300px" viewBox="7.846 0 300 300" enable-background="new 7.846 0 300 300" xml:space="preserve">
<g>
	<g>
		<path fill="#E96B56" d="M175.125,262.148l-117.75-65.584c-3.332-1.853-2.912-5.09,0.934-7.231l80.182-44.644
			c3.846-2.143,9.662-2.377,12.993-0.521l117.754,65.579c3.332,1.856,2.916,5.093-0.934,7.229l-80.185,44.643
			C184.275,263.768,178.461,263.999,175.125,262.148z"/>
		<g>
			<path fill="#771818" d="M273.596,80.755L153.896,14.146c-1.541-0.857-2.955-0.992-4.101-0.531l0.007-0.015l-0.197,0.092
				c-0.017,0.003-0.03,0.014-0.048,0.02l-3.898,1.77l4.225,2.032c0,0.073-0.009,0.148-0.009,0.228l0.036,94.829
				c0,4.746,3.044,10.284,6.802,12.377l116.509,64.829l0.66,5.285l4.25-1.959c1.403-0.791,2.289-2.582,2.289-5.146l-0.039-94.83
				C280.396,88.381,277.355,82.843,273.596,80.755z"/>
			<path fill="#A83939" d="M273.596,80.755L153.896,14.146c-1.541-0.857-2.955-0.992-4.101-0.531l0.007-0.015l-0.197,0.092
				c-0.017,0.003-0.03,0.014-0.048,0.02l-3.898,1.77l4.225,2.032c0,0.073-0.009,0.148-0.009,0.228L149.9,80.24l54.473,41.519
				l73.961-35.902C277.118,83.652,275.451,81.785,273.596,80.755z"/>
			<path fill="#872727" d="M275.598,82.245l-11.727,4.761l8.854,6.583l7.396-3.039C279.475,87.435,277.773,84.297,275.598,82.245z"
				/>
			<path fill="#E96B56" d="M269.695,194.561l-119.694-66.605c-3.757-2.087-6.802-7.629-6.802-12.379l-0.035-94.83
				c0-4.744,3.042-6.9,6.793-4.807l119.7,66.601c3.759,2.086,6.801,7.629,6.801,12.373l0.037,94.831
				C276.493,194.491,273.457,196.646,269.695,194.561z"/>
			<path fill="#FFFFFF" d="M265.719,187.506l-111.793-62.173c-3.43-1.917-6.224-6.984-6.224-11.326l-0.034-86.779
				c0-4.341,2.781-6.314,6.219-4.399L265.68,85.006c3.434,1.911,6.223,6.982,6.223,11.324l0.033,86.775
				C271.936,187.448,269.154,189.415,265.719,187.506z"/>
			<path fill="#FFFFFF" d="M265.719,187.506l-111.793-62.173c-3.43-1.917-6.224-6.984-6.224-11.326l-0.034-86.779
				c0-4.341,2.781-6.314,6.219-4.399L265.68,85.006c3.434,1.911,6.223,6.982,6.223,11.324l0.033,86.775
				C271.936,187.448,269.154,189.415,265.719,187.506z"/>
		</g>
		<path fill="#771818" d="M271.49,197.507l-16.094-2.052l-103.91-57.863c-3.332-1.852-9.147-1.619-12.994,0.521l-73.629,40.991
			l-9.731-1.242v5.328h0.01c-0.066,1.229,0.662,2.414,2.232,3.293l117.75,65.572c3.336,1.854,9.149,1.625,12.997-0.521
			l80.184-44.644c2.161-1.201,3.246-2.757,3.18-4.213l0,0v-5.173L271.49,197.507L271.49,197.507z"/>
		<path fill="#A83939" d="M193.421,160.945l-7.383-4.116h-81.159l-40.012,22.274l-9.734-1.244v5.33h0.013
			c-0.065,1.229,0.662,2.414,2.232,3.291l117.748,65.57c1.765,0.98,4.218,1.371,6.71,1.215L193.421,160.945z"/>
		<path fill="#CC5858" d="M59.448,178.406l-4.315-0.553v5.328h0.01c-0.066,1.229,0.662,2.416,2.232,3.293l2.074,1.153
			L59.448,178.406L59.448,178.406z"/>
		<path fill="#872727" d="M176.314,252.582c3.158,1.156,7.677,0.902,11.043-0.659v-11.886h-11.043V252.582z"/>
		<path fill="#E96B56" d="M175.125,246.734l-117.75-65.577c-3.332-1.856-2.912-5.095,0.934-7.238l80.185-44.638
			c3.847-2.144,9.664-2.377,12.994-0.518l117.754,65.575c3.334,1.857,2.916,5.1-0.934,7.238l-80.186,44.641
			C184.275,248.357,178.461,248.586,175.125,246.734z"/>
		<path fill="#FFFFFF" d="M268.305,199.628l-80.183,44.646c-3.847,2.142-9.661,2.371-12.997,0.521l-117.75-65.581
			c-1.094-0.609-1.773-1.369-2.072-2.186c-0.518,1.521,0.142,3.061,2.072,4.132l117.75,65.575c3.336,1.855,9.15,1.623,12.997-0.519
			l80.183-44.642c2.588-1.442,3.617-3.379,3.006-5.051C270.936,197.631,269.93,198.729,268.305,199.628z"/>
		<g>
			<path fill="#173D7A" d="M107.454,159.443l-5.328-2.967c-0.429-0.24-0.377-0.658,0.119-0.933l6.289-3.504
				c0.497-0.272,1.242-0.306,1.666-0.063l5.328,2.972c0.431,0.235,0.378,0.651-0.117,0.924l-6.29,3.503
				C108.63,159.654,107.885,159.684,107.454,159.443z"/>
			<path fill="#173D7A" d="M115.683,164.027l-5.328-2.967c-0.431-0.24-0.379-0.656,0.117-0.932l6.29-3.503
				c0.498-0.276,1.241-0.31,1.666-0.065l5.327,2.971c0.431,0.238,0.375,0.652-0.12,0.927l-6.29,3.501
				C116.862,164.232,116.112,164.268,115.683,164.027z"/>
			<path fill="#771818" d="M123.913,168.605l-5.328-2.971c-0.429-0.236-0.378-0.65,0.12-0.926l6.29-3.504
				c0.495-0.275,1.24-0.309,1.664-0.066l5.328,2.967c0.431,0.24,0.374,0.658-0.121,0.93l-6.29,3.504
				C125.089,168.816,124.342,168.85,123.913,168.605z"/>
			<path fill="#173D7A" d="M135.294,164.825l-5.328-2.97c-0.431-0.237-0.374-0.652,0.122-0.926l5.278-2.943
				c0.495-0.273,1.242-0.311,1.667-0.07l5.326,2.971c0.431,0.238,0.375,0.657-0.121,0.926l-5.28,2.949
				C136.463,165.035,135.718,165.063,135.294,164.825z"/>
			<path fill="#173D7A" d="M143.519,169.408l-5.327-2.967c-0.432-0.24-0.377-0.655,0.118-0.928l5.279-2.945
				c0.497-0.271,1.24-0.309,1.665-0.066l5.327,2.973c0.433,0.239,0.378,0.651-0.117,0.928l-5.278,2.938
				C144.693,169.616,143.95,169.646,143.519,169.408z"/>
			<path fill="#771818" d="M151.747,173.99l-5.327-2.971c-0.433-0.237-0.379-0.651,0.117-0.932l5.279-2.941
				c0.496-0.274,1.24-0.306,1.664-0.063l5.328,2.972c0.434,0.237,0.379,0.65-0.117,0.926l-5.277,2.938
				C152.926,174.197,152.177,174.227,151.747,173.99z"/>
			<path fill="#771818" d="M159.979,178.57l-5.328-2.973c-0.43-0.238-0.379-0.654,0.117-0.929l5.28-2.94
				c0.493-0.274,1.241-0.308,1.664-0.064l5.327,2.966c0.43,0.239,0.375,0.655-0.122,0.929l-5.278,2.944
				C161.154,178.783,160.407,178.811,159.979,178.57z"/>
			<path fill="#771818" d="M168.204,183.154l-5.325-2.965c-0.431-0.24-0.376-0.655,0.122-0.933l5.272-2.942
				c0.494-0.273,1.242-0.309,1.666-0.065l5.328,2.969c0.435,0.239,0.375,0.653-0.117,0.925l-5.278,2.944
				C169.377,183.359,168.627,183.395,168.204,183.154z"/>
			<path fill="#771818" d="M176.427,187.732l-5.323-2.967c-0.43-0.238-0.379-0.654,0.115-0.931l5.279-2.942
				c0.494-0.271,1.242-0.306,1.669-0.065l5.324,2.972c0.43,0.238,0.374,0.653-0.117,0.926l-5.276,2.941
				C177.607,187.945,176.857,187.973,176.427,187.732z"/>
			<path fill="#771818" d="M184.658,192.318l-5.325-2.971c-0.429-0.236-0.378-0.649,0.115-0.928l5.276-2.938
				c0.496-0.284,1.248-0.31,1.672-0.07l5.324,2.968c0.43,0.24,0.377,0.655-0.115,0.933l-5.279,2.938
				C185.839,192.529,185.088,192.557,184.658,192.318z"/>
			<path fill="#771818" d="M192.889,196.902l-5.328-2.971c-0.429-0.238-0.375-0.652,0.119-0.928l5.279-2.941
				c0.491-0.276,1.244-0.312,1.669-0.068l5.324,2.97c0.429,0.24,0.375,0.657-0.123,0.927l-5.274,2.946
				C194.063,197.107,193.316,197.141,192.889,196.902z"/>
			<path fill="#771818" d="M201.118,201.479l-5.33-2.967c-0.431-0.238-0.371-0.654,0.123-0.928l5.276-2.943
				c0.494-0.271,1.237-0.311,1.664-0.07l5.33,2.976c0.43,0.239,0.373,0.649-0.123,0.933l-5.277,2.938
				C202.293,201.693,201.542,201.721,201.118,201.479z"/>
			<path fill="#771818" d="M209.346,206.066l-5.326-2.969c-0.431-0.24-0.371-0.656,0.121-0.932l5.272-2.941
				c0.502-0.272,1.245-0.307,1.668-0.064l5.331,2.969c0.431,0.239,0.373,0.653-0.122,0.926l-5.279,2.941
				C210.518,206.275,209.77,206.303,209.346,206.066z"/>
			<path fill="#396CAA" d="M147.417,162.654l-5.328-2.969c-0.429-0.238-0.373-0.658,0.123-0.929l5.278-2.944
				c0.497-0.272,1.241-0.307,1.666-0.065l5.326,2.97c0.433,0.238,0.375,0.652-0.121,0.926l-5.277,2.943
				C148.586,162.861,147.84,162.893,147.417,162.654z"/>
			<path fill="#396CAA" d="M139.062,158.008l-5.328-2.969c-0.431-0.239-0.377-0.652,0.118-0.928l5.279-2.942
				c0.495-0.278,1.24-0.308,1.664-0.065l5.328,2.967c0.433,0.24,0.379,0.654-0.117,0.93l-5.279,2.939
				C140.241,158.214,139.491,158.247,139.062,158.008z"/>
			<path fill="#771818" d="M130.703,153.348l-11.48-6.387c-0.429-0.238-0.374-0.654,0.121-0.93l5.279-2.942
				c0.496-0.272,1.242-0.304,1.666-0.063l11.479,6.385c0.431,0.238,0.379,0.652-0.118,0.93l-5.279,2.943
				C131.871,153.555,131.126,153.586,130.703,153.348z"/>
			<path fill="#771818" d="M136.548,147.686l-9.312-5.184c-0.43-0.238-0.374-0.654,0.123-0.926l5.277-2.94
				c0.496-0.274,1.241-0.306,1.666-0.069l9.31,5.188c0.429,0.239,0.374,0.652-0.123,0.926l-5.276,2.943
				C137.719,147.893,136.974,147.917,136.548,147.686z"/>
			<path fill="#A83939" d="M155.641,167.234l-5.327-2.969c-0.431-0.238-0.379-0.648,0.118-0.931l5.277-2.938
				c0.499-0.275,1.244-0.307,1.667-0.064l5.328,2.969c0.433,0.239,0.377,0.65-0.119,0.926l-5.278,2.944
				C156.818,167.45,156.073,167.475,155.641,167.234z"/>
			<path fill="#771818" d="M163.87,171.822l-5.327-2.973c-0.432-0.238-0.379-0.651,0.118-0.927l5.282-2.938
				c0.49-0.278,1.238-0.312,1.66-0.069l5.332,2.967c0.431,0.239,0.371,0.655-0.121,0.929l-5.28,2.946
				C165.048,172.029,164.301,172.059,163.87,171.822z"/>
			<path fill="#771818" d="M172.1,176.402l-5.326-2.971c-0.432-0.236-0.379-0.656,0.119-0.928l5.276-2.941
				c0.496-0.276,1.244-0.31,1.668-0.069l5.323,2.967c0.438,0.239,0.378,0.655-0.115,0.929l-5.279,2.946
				C173.277,176.613,172.529,176.641,172.1,176.402z"/>
			<path fill="#771818" d="M180.328,180.984l-5.324-2.965c-0.43-0.24-0.379-0.656,0.118-0.932l5.276-2.939
				c0.494-0.275,1.244-0.307,1.668-0.069l5.324,2.972c0.434,0.239,0.379,0.655-0.117,0.932l-5.277,2.938
				C181.501,181.193,180.752,181.225,180.328,180.984z"/>
			<path fill="#771818" d="M188.559,185.566l-5.324-2.969c-0.433-0.24-0.379-0.649,0.115-0.933l5.279-2.938
				c0.494-0.277,1.245-0.309,1.668-0.066l5.325,2.968c0.43,0.239,0.379,0.655-0.119,0.931l-5.276,2.94
				C189.729,185.773,188.982,185.807,188.559,185.566z"/>
			<path fill="#771818" d="M196.783,190.148l-5.325-2.977c-0.429-0.23-0.378-0.65,0.115-0.921l5.28-2.942
				c0.492-0.279,1.238-0.311,1.668-0.068l5.324,2.967c0.43,0.238,0.379,0.658-0.119,0.93l-5.275,2.941
				C197.956,190.357,197.212,190.387,196.783,190.148z"/>
			<path fill="#771818" d="M205.014,194.73l-5.33-2.967c-0.432-0.24-0.373-0.658,0.121-0.928l5.278-2.947
				c0.494-0.272,1.242-0.307,1.666-0.063l5.327,2.969c0.431,0.233,0.375,0.649-0.121,0.927l-5.279,2.941
				C206.188,194.943,205.438,194.971,205.014,194.73z"/>
			<path fill="#771818" d="M213.236,199.314l-5.323-2.975c-0.431-0.236-0.379-0.65,0.121-0.926l5.272-2.939
				c0.492-0.275,1.239-0.309,1.67-0.065l5.324,2.969c0.436,0.237,0.372,0.649-0.115,0.927l-5.279,2.938
				C214.418,199.521,213.667,199.55,213.236,199.314z"/>
			<path fill="#771818" d="M221.468,203.9l-5.325-2.976c-0.429-0.237-0.377-0.649,0.115-0.927l5.277-2.938
				c0.496-0.278,1.248-0.31,1.671-0.068l5.325,2.966c0.429,0.24,0.373,0.655-0.115,0.931l-5.279,2.943
				C222.643,204.105,221.893,204.132,221.468,203.9z"/>
			<path fill="#771818" d="M236.094,212.04l-11.631-6.474c-0.43-0.236-0.371-0.651,0.123-0.924l5.277-2.947
				c0.488-0.271,1.242-0.311,1.666-0.068l11.625,6.475c0.434,0.24,0.378,0.651-0.119,0.933l-5.271,2.94
				C237.27,212.254,236.523,212.279,236.094,212.04z"/>
			<path fill="#771818" d="M252.113,203.12l-9.809-5.466c-0.435-0.24-0.379-0.656,0.118-0.93l5.28-2.941
				c0.488-0.274,1.236-0.309,1.658-0.066l9.816,5.465c0.43,0.238,0.373,0.651-0.123,0.926l-5.281,2.945
				C253.286,203.33,252.543,203.359,252.113,203.12z"/>
			<path fill="#771818" d="M170.052,166.339l-5.325-2.967c-0.43-0.24-0.379-0.658,0.115-0.929l5.28-2.943
				c0.493-0.271,1.244-0.307,1.668-0.066l5.325,2.973c0.429,0.24,0.378,0.652-0.117,0.926l-5.279,2.939
				C171.227,166.55,170.48,166.579,170.052,166.339z"/>
			<path fill="#771818" d="M161.62,161.645l-5.328-2.97c-0.431-0.237-0.378-0.653,0.119-0.928l5.278-2.94
				c0.496-0.277,1.24-0.306,1.662-0.063l5.328,2.969c0.432,0.233,0.377,0.647-0.121,0.925l-5.274,2.938
				C162.795,161.855,162.05,161.881,161.62,161.645z"/>
			<path fill="#A83939" d="M153.188,156.949l-5.327-2.971c-0.431-0.24-0.375-0.649,0.123-0.924l5.278-2.943
				c0.495-0.279,1.24-0.307,1.664-0.071l5.328,2.975c0.432,0.237,0.374,0.646-0.12,0.928l-5.278,2.938
				C154.363,157.16,153.619,157.188,153.188,156.949z"/>
			<path fill="#173D7A" d="M144.753,152.256l-5.328-2.973c-0.43-0.239-0.374-0.65,0.121-0.926l5.278-2.939
				c0.499-0.279,1.244-0.309,1.667-0.068l5.327,2.967c0.43,0.238,0.377,0.656-0.123,0.929l-5.275,2.943
				C145.931,152.461,145.184,152.492,144.753,152.256z"/>
			<path fill="#771818" d="M178.281,170.924l-5.327-2.97c-0.431-0.238-0.376-0.652,0.118-0.927l5.279-2.943
				c0.488-0.277,1.244-0.307,1.668-0.068l5.322,2.977c0.432,0.232,0.381,0.646-0.117,0.927l-5.275,2.938
				C179.456,171.135,178.711,171.162,178.281,170.924z"/>
			<path fill="#771818" d="M186.512,175.508l-5.33-2.971c-0.43-0.238-0.373-0.65,0.12-0.93l5.28-2.94
				c0.494-0.278,1.242-0.308,1.665-0.067l5.328,2.971c0.43,0.24,0.372,0.652-0.122,0.928l-5.279,2.941
				C187.688,175.711,186.936,175.746,186.512,175.508z"/>
			<path fill="#771818" d="M194.742,180.091l-5.331-2.973c-0.429-0.231-0.372-0.652,0.123-0.923l5.274-2.943
				c0.498-0.271,1.24-0.309,1.666-0.068l5.33,2.967c0.43,0.24,0.37,0.658-0.121,0.932l-5.279,2.941
				C195.911,180.297,195.159,180.325,194.742,180.091z"/>
			<path fill="#771818" d="M202.961,184.67l-5.324-2.967c-0.431-0.239-0.375-0.654,0.122-0.928l5.275-2.943
				c0.498-0.277,1.241-0.307,1.665-0.07l5.326,2.973c0.432,0.238,0.377,0.65-0.116,0.93l-5.28,2.939
				C204.141,184.88,203.391,184.909,202.961,184.67z"/>
			<path fill="#771818" d="M211.189,189.253l-5.323-2.974c-0.431-0.238-0.378-0.647,0.114-0.926l5.274-2.938
				c0.497-0.278,1.245-0.308,1.675-0.067l5.318,2.969c0.436,0.238,0.378,0.651-0.109,0.93l-5.279,2.941
				C212.368,189.465,211.621,189.492,211.189,189.253z"/>
			<path fill="#771818" d="M219.421,193.838l-5.328-2.968c-0.432-0.24-0.374-0.654,0.119-0.931l5.279-2.94
				c0.489-0.278,1.245-0.308,1.668-0.067l5.325,2.969c0.429,0.24,0.375,0.652-0.121,0.93l-5.277,2.939
				C220.596,194.043,219.854,194.077,219.421,193.838z"/>
			<path fill="#771818" d="M227.65,198.416l-5.33-2.966c-0.428-0.24-0.371-0.657,0.121-0.929l5.281-2.943
				c0.488-0.271,1.234-0.309,1.658-0.069l5.331,2.974c0.433,0.232,0.372,0.651-0.121,0.926l-5.274,2.939
				C228.82,198.622,228.075,198.654,227.65,198.416z"/>
			<path fill="#771818" d="M235.879,202.995l-5.326-2.97c-0.431-0.238-0.373-0.651,0.121-0.926l5.279-2.943
				c0.49-0.276,1.236-0.305,1.66-0.069l5.33,2.974c0.433,0.236,0.373,0.648-0.12,0.926l-5.279,2.939
				C237.05,203.213,236.305,203.232,235.879,202.995z"/>
			<path fill="#771818" d="M244.1,207.585l-5.324-2.974c-0.43-0.235-0.379-0.648,0.119-0.922l5.276-2.944
				c0.498-0.278,1.244-0.31,1.667-0.067l5.325,2.971c0.433,0.24,0.379,0.649-0.115,0.927l-5.28,2.94
				C245.279,207.79,244.531,207.824,244.1,207.585z"/>
			<path fill="#771818" d="M165.721,155.008l-5.324-2.972c-0.433-0.236-0.379-0.656,0.119-0.925l5.276-2.946
				c0.493-0.274,1.243-0.304,1.666-0.065l5.328,2.966c0.431,0.24,0.376,0.656-0.117,0.93l-5.28,2.943
				C166.893,155.219,166.145,155.246,165.721,155.008z"/>
			<path fill="#771818" d="M157.533,150.445l-5.328-2.967c-0.43-0.24-0.377-0.655,0.119-0.929l5.277-2.944
				c0.496-0.272,1.24-0.306,1.666-0.067l5.325,2.973c0.435,0.239,0.38,0.652-0.116,0.925l-5.276,2.942
				C158.709,150.659,157.957,150.686,157.533,150.445z"/>
			<path fill="#771818" d="M149.345,145.891l-5.326-2.973c-0.431-0.238-0.378-0.654,0.117-0.93l5.278-2.939
				c0.497-0.273,1.243-0.307,1.667-0.068l5.328,2.969c0.429,0.24,0.377,0.654-0.12,0.931l-5.277,2.94
				C150.525,146.102,149.775,146.129,149.345,145.891z"/>
			<path fill="#771818" d="M141.161,141.328l-5.328-2.969c-0.429-0.237-0.378-0.652,0.119-0.928l5.278-2.941
				c0.495-0.273,1.242-0.305,1.666-0.065l5.327,2.97c0.43,0.238,0.379,0.651-0.119,0.924l-5.278,2.943
				C142.336,141.533,141.587,141.566,141.161,141.328z"/>
			<path fill="#771818" d="M149.583,136.646l-5.329-2.972c-0.431-0.237-0.374-0.651,0.122-0.927l1.743-0.971
				c0.498-0.274,1.242-0.306,1.667-0.066l5.327,2.967c0.431,0.238,0.378,0.654-0.117,0.93l-1.747,0.97
				C150.751,136.852,150.001,136.884,149.583,136.646z"/>
			<path fill="#771818" d="M160.264,142.594l-5.328-2.971c-0.431-0.238-0.377-0.652,0.119-0.926l1.742-0.971
				c0.498-0.276,1.244-0.309,1.667-0.068l5.326,2.968c0.431,0.239,0.376,0.651-0.115,0.929l-1.747,0.971
				C161.432,142.8,160.688,142.833,160.264,142.594z"/>
			<path fill="#771818" d="M168.414,147.134l-5.327-2.969c-0.43-0.239-0.372-0.651,0.12-0.929l1.744-0.969
				c0.492-0.279,1.244-0.308,1.668-0.066l5.324,2.967c0.43,0.238,0.377,0.652-0.119,0.928l-1.741,0.971
				C169.589,147.342,168.846,147.371,168.414,147.134z"/>
			<path fill="#771818" d="M176.568,151.671l-5.33-2.968c-0.43-0.239-0.373-0.654,0.119-0.928l1.748-0.969
				c0.49-0.279,1.233-0.31,1.66-0.068l5.33,2.969c0.43,0.241,0.37,0.652-0.121,0.928l-1.742,0.967
				C177.743,151.881,176.998,151.911,176.568,151.671z"/>
			<path fill="#771818" d="M184.717,156.214l-5.324-2.966c-0.432-0.239-0.379-0.656,0.117-0.93l1.744-0.967
				c0.499-0.278,1.242-0.311,1.666-0.068l5.327,2.973c0.43,0.239,0.376,0.648-0.118,0.924l-1.746,0.971
				C185.896,156.421,185.152,156.453,184.717,156.214z"/>
			<path fill="#771818" d="M230.236,181.563l-5.328-2.974c-0.432-0.239-0.373-0.649,0.119-0.927l1.746-0.971
				c0.49-0.271,1.234-0.311,1.662-0.067l5.33,2.974c0.43,0.235,0.368,0.652-0.123,0.924l-1.742,0.974
				C231.411,181.771,230.668,181.801,230.236,181.563z"/>
			<path fill="#771818" d="M238.391,186.1l-5.33-2.971c-0.43-0.234-0.373-0.65,0.123-0.924l1.74-0.971
				c0.497-0.276,1.24-0.309,1.664-0.066l5.327,2.969c0.435,0.238,0.376,0.651-0.118,0.926l-1.744,0.976
				C239.564,186.311,238.82,186.346,238.391,186.1z"/>
			<path fill="#771818" d="M246.545,190.641l-5.324-2.968c-0.43-0.241-0.38-0.657,0.114-0.931l1.744-0.969
				c0.496-0.277,1.245-0.309,1.67-0.066l5.323,2.967c0.43,0.239,0.379,0.654-0.118,0.928l-1.741,0.969
				C247.712,190.855,246.968,190.877,246.545,190.641z"/>
			<path fill="#771818" d="M254.699,195.184l-5.333-2.969c-0.431-0.238-0.371-0.654,0.122-0.928l1.742-0.969
				c0.494-0.279,1.242-0.307,1.664-0.067l5.332,2.97c0.43,0.238,0.373,0.651-0.123,0.928l-1.744,0.967
				C255.872,195.391,255.128,195.42,254.699,195.184z"/>
			<path fill="#771818" d="M173.952,159.591l-5.331-2.968c-0.432-0.236-0.372-0.652,0.121-0.928l5.277-2.943
				c0.496-0.273,1.242-0.309,1.668-0.068l5.32,2.977c0.434,0.234,0.381,0.65-0.115,0.921l-5.272,2.944
				C175.122,159.8,174.374,159.831,173.952,159.591z"/>
			<path fill="#771818" d="M182.177,164.173l-5.333-2.97c-0.43-0.239-0.371-0.654,0.123-0.93l5.276-2.942
				c0.491-0.274,1.239-0.306,1.672-0.065l5.319,2.971c0.435,0.238,0.379,0.65-0.117,0.928l-5.277,2.938
				C183.35,164.38,182.604,164.409,182.177,164.173z"/>
			<path fill="#771818" d="M190.398,168.759l-5.322-2.973c-0.432-0.239-0.376-0.649,0.119-0.927l5.277-2.939
				c0.492-0.277,1.239-0.307,1.661-0.066l5.333,2.965c0.432,0.24,0.371,0.656-0.121,0.932l-5.279,2.939
				C191.579,168.964,190.833,168.988,190.398,168.759z"/>
			<path fill="#771818" d="M198.634,173.337l-5.327-2.966c-0.43-0.238-0.379-0.653,0.12-0.93l5.274-2.941
				c0.496-0.273,1.244-0.309,1.668-0.07l5.331,2.969c0.429,0.242,0.368,0.66-0.123,0.931l-5.28,2.944
				C199.813,173.543,199.063,173.579,198.634,173.337z"/>
			<path fill="#771818" d="M206.861,177.916l-5.325-2.969c-0.431-0.238-0.379-0.652,0.118-0.926l5.277-2.942
				c0.49-0.274,1.241-0.304,1.668-0.07l5.321,2.972c0.433,0.242,0.379,0.654-0.112,0.932l-5.279,2.938
				C208.034,178.128,207.284,178.156,206.861,177.916z"/>
			<path fill="#771818" d="M215.085,182.503l-5.323-2.969c-0.431-0.239-0.38-0.652,0.114-0.929l5.278-2.944
				c0.494-0.272,1.246-0.306,1.67-0.065l5.322,2.969c0.432,0.24,0.381,0.653-0.115,0.932l-5.277,2.941
				C216.258,182.711,215.516,182.742,215.085,182.503z"/>
			<path fill="#771818" d="M223.314,187.085l-5.324-2.974c-0.432-0.238-0.379-0.65,0.115-0.93l5.277-2.938
				c0.494-0.278,1.245-0.308,1.668-0.067l5.325,2.969c0.433,0.237,0.379,0.653-0.12,0.93l-5.273,2.941
				C224.488,187.287,223.745,187.322,223.314,187.085z"/>
			<path fill="#771818" d="M231.547,191.662l-5.332-2.967c-0.429-0.237-0.372-0.654,0.121-0.928l5.28-2.944
				c0.493-0.272,1.241-0.308,1.665-0.068l5.328,2.974c0.429,0.235,0.371,0.653-0.123,0.922l-5.278,2.947
				C232.721,191.874,231.975,191.9,231.547,191.662z"/>
			<path fill="#771818" d="M239.777,196.247l-5.332-2.968c-0.43-0.238-0.371-0.655,0.123-0.928l5.271-2.942
				c0.499-0.274,1.242-0.306,1.667-0.065l5.329,2.969c0.432,0.237,0.373,0.651-0.12,0.924l-5.278,2.943
				C240.95,196.458,240.193,196.484,239.777,196.247z"/>
			<path fill="#771818" d="M126.906,160.154l-15.694-8.733c-0.43-0.239-0.373-0.655,0.123-0.93l5.278-2.944
				c0.495-0.273,1.24-0.309,1.664-0.068l15.694,8.735c0.431,0.239,0.377,0.655-0.118,0.929l-5.278,2.944
				C128.082,160.365,127.336,160.395,126.906,160.154z"/>
			<path fill="#771818" d="M227.991,216.453l-15.696-8.736c-0.432-0.24-0.369-0.654,0.121-0.928l5.279-2.946
				c0.494-0.274,1.242-0.306,1.668-0.065l15.691,8.74c0.43,0.235,0.379,0.653-0.119,0.922l-5.274,2.945
				C229.165,216.654,228.422,216.689,227.991,216.453z"/>
			<path fill="#771818" d="M195.087,208.244l-5.328-2.965c-0.432-0.238-0.372-0.658,0.121-0.932l6.286-3.502
				c0.494-0.277,1.242-0.307,1.669-0.074l5.324,2.977c0.43,0.236,0.379,0.65-0.117,0.926l-6.292,3.51
				C196.262,208.45,195.516,208.482,195.087,208.244z"/>
			<path fill="#173D7A" d="M135.33,174.973l-8.523-4.746c-0.429-0.24-0.374-0.65,0.122-0.929l6.292-3.505
				c0.495-0.273,1.24-0.307,1.663-0.064l8.521,4.744c0.431,0.238,0.377,0.652-0.118,0.924l-6.29,3.508
				C136.509,175.178,135.761,175.209,135.33,174.973z"/>
			<path fill="#173D7A" d="M187.154,203.832l-8.521-4.741c-0.431-0.239-0.379-0.657,0.115-0.93l6.293-3.505
				c0.49-0.276,1.236-0.305,1.661-0.064l8.524,4.742c0.431,0.24,0.373,0.654-0.121,0.926l-6.287,3.506
				C188.328,204.042,187.583,204.07,187.154,203.832z"/>
			<path fill="#173D7A" d="M147.204,181.584l-8.522-4.75c-0.433-0.234-0.378-0.648,0.117-0.923l6.29-3.504
				c0.495-0.276,1.241-0.308,1.667-0.069l8.521,4.747c0.43,0.235,0.379,0.655-0.12,0.925l-6.291,3.506
				C148.379,181.787,147.633,181.823,147.204,181.584z"/>
			<path fill="#771818" d="M146.821,172.369l37.042,20.633c0.462,0.255,0.462,0.671,0,0.925l-6.411,3.573
				c-0.459,0.256-1.203,0.256-1.665,0l-37.047-20.631L146.821,172.369z"/>
			<path fill="#771818" d="M218.081,216.555l5.94,3.303c0.349,0.193,0.301,0.539-0.101,0.765l-2.569,1.431
				c-0.406,0.229-1.021,0.249-1.365,0.059l-5.941-3.303c-0.35-0.197-0.3-0.537,0.096-0.767l2.574-1.437
				C217.115,216.382,217.734,216.359,218.081,216.555z"/>
			<path fill="#771818" d="M209.786,211.936l5.935,3.307c0.354,0.189,0.305,0.535-0.094,0.763l-2.576,1.431
				c-0.406,0.229-1.017,0.252-1.365,0.057l-5.938-3.303c-0.352-0.197-0.307-0.535,0.093-0.765l2.573-1.435
				C208.824,211.766,209.436,211.736,209.786,211.936z"/>
			<path fill="#771818" d="M201.559,207.352l5.938,3.303c0.354,0.195,0.306,0.539-0.095,0.768l-2.569,1.432
				c-0.407,0.227-1.019,0.25-1.371,0.053l-5.938-3.301c-0.352-0.192-0.303-0.541,0.098-0.771l2.572-1.426
				C200.594,207.182,201.202,207.157,201.559,207.352z"/>
			<path fill="#771818" d="M214.328,209.402l5.934,3.303c0.354,0.191,0.307,0.537-0.096,0.766l-2.573,1.426
				c-0.403,0.229-1.013,0.25-1.366,0.059l-5.937-3.305c-0.351-0.193-0.306-0.532,0.093-0.764l2.58-1.432
				C213.365,209.23,213.982,209.208,214.328,209.402z"/>
		</g>
	</g>
</g>
<g>
	<path opacity="0.4" fill="#E96B56" enable-background="new    " d="M202.195,101.994l-39.059-21.756
		c-0.965-0.536-1.74-1.963-1.74-3.2V47.395c0-1.237,0.772-1.802,1.74-1.269l39.059,21.756c0.964,0.537,1.74,1.965,1.74,3.202v29.643
		C203.938,101.966,203.159,102.53,202.195,101.994z"/>
	<g>
		<path fill="#E8B3B3" d="M174.948,81.98l-0.275-0.156c-1.019-0.568-1.845-2.088-1.845-3.399V64.296c0-1.311,0.82-1.914,1.845-1.344
			l0.275,0.151c1.018,0.568,1.845,2.089,1.845,3.399v14.129C176.793,81.94,175.973,82.544,174.948,81.98z"/>
		<path fill="#E8B3B3" d="M182.809,86.352l-0.271-0.154c-1.021-0.57-1.851-2.088-1.851-3.399V74.53c0-1.309,0.824-1.912,1.851-1.348
			l0.271,0.155c1.02,0.568,1.844,2.087,1.844,3.4v8.269C184.645,86.314,183.825,86.917,182.809,86.352z"/>
		<path fill="#A83939" d="M190.656,90.726l-0.27-0.154c-1.021-0.569-1.854-2.087-1.854-3.401V67.489
			c0-1.309,0.822-1.913,1.854-1.347l0.27,0.155c1.02,0.568,1.848,2.087,1.848,3.4V89.38
			C192.504,90.693,191.684,91.292,190.656,90.726z"/>
	</g>
</g>
<g>
	<path fill="#E96B56" d="M239.438,94.025L215.169,80.51c-0.901-0.502-1.631-1.846-1.631-3.001l0,0c0-1.154,0.729-1.691,1.631-1.186
		l24.269,13.517c0.904,0.505,1.631,1.847,1.631,3l0,0C241.068,93.998,240.342,94.525,239.438,94.025z"/>
	<path fill="#E96B56" d="M223.829,93.566l-8.66-4.817c-0.901-0.504-1.631-1.845-1.631-3l0,0c0-1.155,0.729-1.691,1.631-1.187
		l8.66,4.82c0.897,0.504,1.629,1.846,1.629,3l0,0C225.458,93.533,224.727,94.067,223.829,93.566z"/>
	<path fill="#A83939" d="M238.359,101.656l-8.661-4.82c-0.897-0.504-1.63-1.845-1.63-3l0,0c0-1.154,0.729-1.691,1.63-1.187
		l8.661,4.821c0.896,0.504,1.629,1.845,1.629,3l0,0C239.988,101.624,239.257,102.156,238.359,101.656z"/>
	<path fill="#E96B56" d="M256.609,111.855l-12.385-6.927c-0.9-0.502-1.629-1.847-1.629-3.001l0,0c0-1.154,0.729-1.691,1.629-1.187
		l12.385,6.929c0.899,0.502,1.637,1.843,1.637,2.999l0,0C258.246,111.824,257.516,112.354,256.609,111.855z"/>
	<path fill="#E96B56" d="M245.493,113.864L215.178,96.98c-0.9-0.504-1.629-1.846-1.629-3.001l0,0c0-1.154,0.729-1.689,1.629-1.185
		l30.315,16.884c0.903,0.5,1.629,1.842,1.629,2.999l0,0C247.122,113.831,246.396,114.362,245.493,113.864z"/>
	<path fill="#A83939" d="M258.246,129.101l-43.068-23.89c-0.9-0.506-1.629-1.846-1.629-3l0,0c0-1.155,0.729-1.691,1.629-1.188
		l43.068,23.892c0.896,0.502,1.629,1.844,1.629,2.999l0,0C259.875,129.068,259.145,129.605,258.246,129.101z"/>
	<path fill="#E96B56" d="M261.887,106.49l-15.746-8.731c-0.904-0.506-1.629-1.846-1.629-3.001l0,0c0-1.155,0.725-1.69,1.629-1.186
		l15.746,8.731c0.899,0.506,1.633,1.848,1.633,3.001l0,0C263.52,106.458,262.786,106.99,261.887,106.49z"/>
</g>
<g>
	<polygon fill="#A83939" points="168.961,107.123 161.295,102.854 161.295,111.389 168.961,115.657 	"/>
	<polygon fill="#E96B56" points="181.066,106.814 173.398,102.545 173.398,118.126 181.066,122.395 	"/>
	<polygon fill="#E96B56" points="193.168,118.005 185.505,113.74 185.505,124.869 193.168,129.135 	"/>
	<polygon fill="#E96B56" points="205.275,121.533 197.609,117.264 197.609,131.607 205.275,135.874 	"/>
	<polygon fill="#A83939" points="217.371,129.135 209.71,124.869 209.71,138.352 217.371,142.615 	"/>
	<polygon fill="#771818" points="229.477,132.482 221.814,128.214 221.814,145.088 229.477,149.355 	"/>
	<polygon fill="#E96B56" points="241.579,137.422 233.92,133.154 233.92,151.83 241.579,156.102 	"/>
	<polygon fill="#A83939" points="253.688,139.605 246.025,135.342 246.025,158.568 253.688,162.838 	"/>
</g>
<g>
	<polygon fill="#CC5858" points="302.534,105.41 302.105,103.793 306.98,102.584 307.41,104.208 	"/>
	<polygon fill="#CC5858" points="300.047,107.747 299.615,106.131 304.491,104.928 304.921,106.543 	"/>
	<polygon fill="#CC5858" points="297.563,110.092 297.134,108.47 302.007,107.263 302.438,108.882 	"/>
	<polygon fill="#CC5858" points="295.075,112.427 294.65,110.813 299.52,109.603 299.951,111.225 	"/>
</g>
<polygon fill="#872727" points="204.904,202.191 189.459,193.596 174.021,202.191 189.459,210.79 "/>
<polygon fill="#872727" points="156.232,203.689 140.794,195.091 125.353,203.689 140.794,212.289 "/>
<polygon fill="#872727" points="123.562,185.639 108.119,177.04 92.68,185.639 108.119,194.234 "/>
<g>
	<g>
		<g>
			<polygon fill="#C13D1A" points="140.794,203.689 140.794,157.831 156.232,149.232 156.232,195.091 			"/>
			<polygon fill="#EF602E" points="156.232,149.232 140.794,140.634 125.353,149.232 140.794,157.831 			"/>
			<polygon fill="#CC5858" points="140.794,157.831 125.353,149.232 125.353,195.091 140.794,203.689 			"/>
			<polygon fill="#A83939" points="140.794,203.689 140.794,157.831 156.232,149.232 156.232,195.091 			"/>
			<polygon fill="#E96B56" points="156.232,149.232 140.794,140.634 125.353,149.232 140.794,157.831 			"/>
		</g>
		<g>
			<polygon fill="#771818" points="173.561,222.186 173.561,196.393 189.008,187.795 189.008,213.586 			"/>
			<polygon fill="#A83939" points="173.561,196.393 158.125,187.795 158.125,213.586 173.561,222.186 			"/>
			<polygon fill="#E96B56" points="189.008,187.795 173.561,179.191 158.125,187.795 173.561,196.393 			"/>
		</g>
		<g>
			<polygon fill="#E96B56" points="108.119,185.639 108.119,122.584 123.562,113.988 123.562,177.04 			"/>
			<polygon fill="#A83939" points="108.119,122.584 92.68,113.988 92.68,177.04 108.119,185.639 			"/>
			<polygon fill="#CC5858" points="123.562,113.988 108.119,105.388 92.68,113.988 108.119,122.584 			"/>
		</g>
	</g>
</g>
<g>
	<g>
		<path fill="#CC5858" d="M98.922,149.631c0,0-2.55-1.24-4.116,0.604c-1.564,1.847-3.803,6.21-3.875,9.152
			c-0.073,2.95,2.417,2.743,3.895,2.051c1.475-0.701,5.792-6.734,6.053-7.922c0.263-1.18-0.309-2.777-0.722-3.092
			C99.746,150.107,98.922,149.631,98.922,149.631z"/>
		<path fill="#FFD7D7" d="M99.477,149.039l0.119,2.553c0.026,0.539-0.254,1.055-0.746,1.32c-0.447,0.245-1.094,0.431-1.964,0.298
			c-1.921-0.298-2.09-0.825-2.228-3.371C94.52,147.284,99.477,149.039,99.477,149.039z"/>
		<g>
			<path fill="#CC5858" d="M89.593,144.732c0,0-2.549-1.241-4.116,0.605c-1.566,1.846-3.805,6.205-3.876,9.149
				c-0.069,2.943,2.422,2.744,3.896,2.051c1.475-0.701,5.794-6.738,6.058-7.92c0.262-1.185-0.313-2.782-0.724-3.101
				C90.411,145.212,89.593,144.732,89.593,144.732z"/>
			<path fill="#FFD7D7" d="M90.148,144.141l0.118,2.547c0.022,0.541-0.257,1.063-0.746,1.326c-0.446,0.246-1.094,0.43-1.965,0.297
				c-1.921-0.297-2.086-0.824-2.225-3.371C85.186,142.383,90.148,144.141,90.148,144.141z"/>
			<path fill="#771818" d="M112.894,97.368c-0.752-11.844-13.293,1.744-13.293,1.744l-8.578,8.116l-7.732,8.187
				c-1.511,1.602-2.209,3.758-1.918,5.903l3.13,22.965c0.154,1.135,1.159,1.972,2.349,1.96c0.335,0,0.717-0.03,1.16-0.099
				c2.789-0.416,2.588-2.974,2.588-2.974l-0.576-21.479l16.233-9.438C106.244,112.251,113.646,109.21,112.894,97.368z"/>
		</g>
		<path fill="#771818" d="M122.229,101.877c-0.753-11.842-13.294,1.744-13.294,1.744l-8.583,8.117l-7.727,8.19
			c-1.513,1.6-2.208,3.758-1.915,5.904l3.128,22.966c0.156,1.136,1.16,1.972,2.35,1.961c0.335,0,0.716-0.034,1.16-0.096
			c2.787-0.418,2.584-2.979,2.584-2.979l-0.572-21.479l16.231-9.433C115.571,116.767,122.979,113.721,122.229,101.877z"/>
		<path fill="#CC5858" d="M114.806,63.866c9.508,3.8,9.314,9.223,9.314,9.223s-1.861,19.874-1.225,33.147
			c0.27,5.552-30.563,5.975-25.965-8.83c5.423-17.458,3.393-31.586,5.926-33.714C105.391,61.558,112.345,62.878,114.806,63.866z"/>
		<path fill="#FFC2B0" d="M117.863,68.673c-0.495,1.859-3.028,2.843-5.649,2.189c-2.622-0.653-4.35-2.688-3.845-4.555
			c0.495-1.86,3.028-2.842,5.647-2.188C116.638,64.772,118.366,66.807,117.863,68.673z"/>
		<path fill="#FFFFFF" d="M113.819,71.498c-0.553,0-1.131-0.067-1.717-0.213c-2.861-0.711-4.736-2.988-4.175-5.084
			c0.561-2.096,3.341-3.22,6.205-2.508c1.364,0.338,2.542,1.038,3.334,1.964c0.819,0.971,1.122,2.08,0.841,3.116
			C117.855,70.449,116.003,71.498,113.819,71.498z M112.388,64.357c-1.766,0-3.241,0.796-3.584,2.068
			c-0.435,1.627,1.147,3.423,3.525,4.017c2.372,0.59,4.665-0.247,5.094-1.877c0.204-0.764-0.037-1.595-0.669-2.344
			c-0.671-0.791-1.678-1.383-2.855-1.676C113.39,64.416,112.876,64.357,112.388,64.357z"/>
		<path fill="#FFC2B0" d="M110.996,63.454c0,0,0.081,0.365-0.083,3.276c-0.052,0.914,3.27,1.764,4.119,0.938
			c0.86-0.827,0.516-1.683,0.723-4.798C115.958,59.763,110.996,63.454,110.996,63.454z"/>
		<path fill="#EA9C92" d="M115.755,62.867c0,0-0.817,2.884-4.845,3.987l0.06-2.619L115.755,62.867z"/>
		<path fill="#FFC2B0" d="M118.308,55.543c1.008,3.773-1.338,7.626-5.256,8.604c-3.911,0.976-7.906-1.292-8.914-5.067
			c-1.011-3.775,1.336-7.631,5.256-8.604C113.301,49.499,117.292,51.769,118.308,55.543z"/>
		<path fill="#EA9C92" d="M112.9,57.567c0,0-4.03,1.664-6.819,1.686c-2.789,0.019-2.174-2.237-2.174-2.237l8.282-1.155L112.9,57.567
			z"/>
		<path fill="#771818" d="M105.25,58.006c0,0,3.512-1.437,6.585-0.836c0.724,0.145,1.4,0.514,1.862,1.064
			c0.156,0.182,0.345,0.346,0.563,0.394c0.545,0.117,1.438-2.067,2.501-2.115c1.065-0.047,1.768,0.672,0.9,2.02
			c-0.869,1.348-0.572,2.848-0.173,3.064c0.4,0.218,4.646-2.919,0.903-10.083c-3.745-7.158-13.264-3.303-14.745-1.851
			c0,0-1.561,1.308-2.826,0.143C100.819,49.806,99.399,60.08,105.25,58.006z"/>
		<path fill="#FFC2B0" d="M118.789,87.61v5.37c0,0.615-0.269,1.204-0.742,1.619l-11.437,10.054l1.3,1.919l15.104-10.566
			c0.702-0.493,1.16-1.251,1.248-2.088l1.022-9.365L118.789,87.61z"/>
		<path fill="#CC5858" d="M123.322,70.401c0,0,3.469,5.039,4.76,18.283c0,0-5.929,1.854-9.292,0.8
			C115.427,88.434,123.322,70.401,123.322,70.401z"/>
		<path fill="#A83939" d="M118.156,76.766c0,0-1.357,7.014-1.435,10.312c-0.025,0.908,0.548,1.724,1.435,2.029l0,0V76.766z"/>
	</g>
	<g>
		<path fill="#CC5858" d="M115.187,111.637l-2.527-0.325l-16.32-9.085c-0.525-0.292-1.438-0.253-2.042,0.081l-11.562,6.434
			l-1.526-0.196v1.467l0,0c-0.014,0.191,0.101,0.383,0.35,0.514l18.495,10.3c0.526,0.292,1.439,0.254,2.043-0.078l12.592-7.006
			c0.343-0.189,0.509-0.434,0.503-0.664l0,0v-1.444h-0.006V111.637z"/>
		<path fill="#396CAA" d="M102.929,105.9l-1.16-0.648H89.025l-6.284,3.499l-1.529-0.195v1.47l0,0
			c-0.011,0.189,0.101,0.38,0.352,0.511l18.494,10.302c0.272,0.153,0.664,0.217,1.05,0.188L102.929,105.9z"/>
		<path fill="#5793CE" d="M81.889,108.64l-0.68-0.084v1.47l0,0c-0.015,0.189,0.101,0.38,0.35,0.511l0.33,0.181V108.64z"/>
		<path fill="#FFFFFF" d="M100.242,120.92c0.496,0.18,1.204,0.143,1.73-0.106v-2.496h-1.73V120.92z"/>
		<path fill="#FFFFFF" d="M100.054,119.369l-18.495-10.3c-0.525-0.292-0.459-0.799,0.148-1.135l12.596-7.009
			c0.604-0.335,1.514-0.37,2.043-0.08l18.494,10.303c0.526,0.29,0.461,0.797-0.147,1.132l-12.592,7.01
			C101.493,119.624,100.581,119.656,100.054,119.369z"/>
		<path fill="#E96B56" d="M99.746,117.809l-15.379-8.562c-0.432-0.242-0.381-0.667,0.123-0.946l6.749-3.656
			c0.5-0.279,1.259-0.312,1.696-0.069l15.377,8.563c0.434,0.246,0.38,0.667-0.121,0.945l-6.75,3.657
			C100.939,118.021,100.183,118.054,99.746,117.809z"/>
	</g>
	<path fill="#FFC2B0" d="M95.015,100.586l-0.189,1.228c-0.162,1.05-0.138,2.116,0.082,3.156l0.226,1.087
		c0.132,0.609,0.634,1.087,1.27,1.198l0,0c0.495,0.084,0.964-0.247,1.021-0.732l0.305-2.628c0,0,0.699,0.878,1.031,0.878
		c0.335,0-0.374-2.632-1.139-4.125C96.865,99.156,95.015,100.586,95.015,100.586z"/>
	<path fill="#FFC2B0" d="M101.286,81.023l-1.984,3.792c-0.473,0.894-0.745,1.875-0.811,2.871l-0.86,12.957l-2.611-0.059
		l-1.183-14.551c-0.036-0.45-0.009-0.9,0.066-1.348l1.357-7.379L101.286,81.023z"/>
	<g>
		<path fill="#771818" d="M99.428,120.36l-1.555-1.951l-16.307-9.106c-0.526-0.293-0.944-1.078-0.944-1.75l0.011-12.878
			l-0.935-1.181L80.58,93l0,0c0.168-0.104,0.395-0.102,0.638,0.039L99.7,103.36c0.527,0.291,0.943,1.076,0.943,1.749l-0.017,14.027
			c0,0.376-0.139,0.64-0.345,0.746l0,0L99.428,120.36z"/>
		<path fill="#A83939" d="M88.151,112.974l-1.159-0.647l-6.362-10.654l0.006-6.997l-0.938-1.184L80.581,93l0,0
			c0.167-0.104,0.393-0.102,0.64,0.039l18.482,10.321c0.272,0.154,0.527,0.445,0.696,0.784L88.151,112.974z"/>
		<path fill="#CC5858" d="M80.121,94.018l-0.417-0.525L80.588,93l0,0c0.166-0.104,0.392-0.102,0.638,0.039l0.33,0.182L80.121,94.018
			z"/>
		<path fill="#872727" d="M99.876,103.477c0.41,0.322,0.729,0.937,0.771,1.502l-1.805,1.005l-0.866-1.447L99.876,103.477z"/>
		<path fill="#CC5858" d="M98.823,103.852L80.341,93.53c-0.527-0.292-0.95,0.018-0.95,0.692l-0.016,14.026
			c0,0.675,0.423,1.456,0.943,1.75L98.8,120.319c0.524,0.292,0.948-0.014,0.948-0.687l0.017-14.027
			C99.769,104.923,99.352,104.144,98.823,103.852z"/>
	</g>
	<path fill="#FFC2B0" d="M107.915,106.572l-0.299,0.595c-0.341,0.682-0.879,1.255-1.547,1.653l-1.833,1.093
		c-0.572,0.341-1.299,0.365-1.876,0.042c-0.024-0.008-0.043-0.025-0.058-0.036c-0.586-0.351-0.64-1.161-0.154-1.639l1.915-1.905
		c0,0-1.074,0.794-1.379,0.478c-0.222-0.231,1.044-1.383,2.015-1.419c0.973-0.037,1.912-0.775,1.912-0.775L107.915,106.572z"/>
	<path fill="#CC5858" d="M103.046,63.664c0,0-7.035,7.38-9.87,14.151c0,0,2.404,4.179,8.287,5.82
		C107.36,85.271,103.046,63.664,103.046,63.664z"/>
	<path fill="#A83939" d="M100.143,83.193l1.143-10.62L98.6,82.526C99.076,82.764,99.593,82.985,100.143,83.193z"/>
	<path fill="#FFFFFF" d="M108.316,62.174l-1.887-0.498c0,0,0.899,1.366,2.221,1.718c1.32,0.35,1.521-0.73,1.521-0.73L108.316,62.174
		z"/>
</g>
<g>
	<path fill="#E96B56" d="M91.731,249.867c-12.708-7.081-33.318-7.081-46.032,0c-12.708,7.072-12.708,18.551,0,25.629
		c12.707,7.074,33.318,7.074,46.024,0C104.442,268.418,104.442,256.939,91.731,249.867z M79.297,268.572
		c-5.841,3.253-15.32,3.253-21.159,0c-5.841-3.258-5.841-8.528,0-11.786c5.839-3.253,15.318-3.253,21.159,0
		C85.142,260.044,85.142,265.314,79.297,268.572z"/>
	<g>
		<g>
			<path fill="#771818" d="M40.903,245.67l11.61,0.176c0.861-1.074,2.077-2.09,3.667-2.974c6.381-3.56,16.422-3.831,23.38-0.826
				l6.896-6.262l10.624,0.163c-0.526-0.329-1.065-0.659-1.63-0.975c-14.764-8.227-38.698-8.227-53.458,0
				c-2.72,1.51-4.927,3.19-6.641,4.987L40.903,245.67z"/>
			<polygon fill="#CC5858" points="97.083,219.68 97.083,235.943 86.456,235.784 86.456,219.521 			"/>
			<polygon fill="#771818" points="79.56,225.781 79.56,242.041 86.456,235.784 86.456,219.521 			"/>
			<path fill="#771818" d="M52.514,229.584v16.262l15.271-12.004l11.769,8.201v-16.259l-10.84-5.073c0,0-14.925,4.406-15.699,4.602
				C52.245,225.488,52.514,229.584,52.514,229.584z"/>
			<polygon fill="#771818" points="40.903,229.406 40.903,245.67 52.514,245.846 52.514,229.584 			"/>
			<polygon fill="#CC5858" points="35.342,223.697 35.342,239.962 40.903,245.67 40.903,229.406 			"/>
			<path fill="#E96B56" d="M40.903,229.406l11.61,0.178c0.861-1.077,2.077-2.091,3.667-2.973c6.381-3.563,16.422-3.83,23.38-0.83
				l6.896-6.262l10.624,0.162c-0.526-0.33-1.065-0.656-1.63-0.977c-14.764-8.225-38.698-8.225-53.458,0
				c-2.72,1.516-4.927,3.193-6.641,4.992L40.903,229.406z"/>
		</g>
		<g>
			<path fill="#CC5858" d="M83.062,227.777v14.949l10.05-2.318c0,0-0.592-8.746-0.809-8.98
				C92.087,231.193,83.062,227.777,83.062,227.777z"/>
			<g>
				<path fill="#771818" d="M75.451,242.727v16.266l1.085,1.113l7.082-3.938c0,0-1.096-12.416-1.232-12.665
					C82.265,243.255,75.451,242.727,75.451,242.727z"/>
				<path fill="#A83939" d="M89.134,238.527l-6.072,5.52c5.064,3.859,4.46,9.305-1.799,12.794c-1.71,0.953-3.694,1.677-5.802,2.154
					l6.284,6.45l-5.566,5.048c7.065-0.787,13.809-2.704,19.284-5.751c12.69-7.068,14.458-17.91,5.334-26.036L89.134,238.527z"/>
				<polygon fill="#A83939" points="76.166,254.234 76.166,270.493 89.944,265.357 106.516,250.111 106.453,232.848 88.923,246.25 
									"/>
				<path fill="#E96B56" d="M89.134,222.266l-6.072,5.521c5.064,3.859,4.46,9.304-1.799,12.796c-1.71,0.951-3.694,1.675-5.802,2.149
					l6.284,6.451l-5.566,5.045c7.065-0.787,13.809-2.705,19.284-5.752c12.69-7.063,14.458-17.908,5.334-26.035L89.134,222.266z"/>
			</g>
		</g>
		<g>
			<path fill="#A83939" d="M76.12,265.357l-5.538-5.688c-5.134,0.303-10.468-0.646-14.402-2.838
				c-4.067-2.268-5.745-5.359-5.036-8.309l-13.18-0.194l-5.071-5.205c-4.432,7.337-1.41,15.769,9.089,21.614
				c7.716,4.293,17.936,6.334,28.038,6.144L76.12,265.357z"/>
			<polygon fill="#A83939" points="70.027,254.621 70.027,270.893 30.925,249.986 30.925,233.716 36.633,235.943 			"/>
			<polygon fill="#771818" points="76.12,249.102 76.12,265.357 70.027,270.893 70.027,254.621 			"/>
			<path fill="#CC5858" d="M76.12,249.102l-5.538-5.688c-5.134,0.304-10.468-0.645-14.402-2.838
				c-4.067-2.264-5.745-5.359-5.036-8.307l-13.18-0.194l-5.071-5.209c-4.432,7.341-1.41,15.767,9.089,21.612
				c7.716,4.299,17.936,6.342,28.038,6.146L76.12,249.102z"/>
		</g>
	</g>
</g>
<g>
	<path fill="#CC5858" d="M98.961,73.884l1.005-1.644c0,0,0.841,0.446,1.737,0.174c0.723-0.216,1.343-0.848,1.852-1.866
		c1.799-3.589,5.111-3.867,6.616-3.505l-0.473,1.855l0.239-0.928l-0.227,0.928c-0.286-0.061-2.86-0.536-4.365,2.481
		c-0.765,1.528-1.804,2.488-3.081,2.869C100.549,74.743,99.118,73.974,98.961,73.884z"/>
</g>
<path fill="#E96B56" d="M67.485,91.525c-5.005,0-9.071-3.929-9.071-8.753c0-4.824,4.066-8.749,9.071-8.749
	c5.002,0,9.073,3.925,9.073,8.749C76.558,87.597,72.487,91.525,67.485,91.525z M67.485,75.929c-3.911,0-7.095,3.071-7.095,6.843
	s3.184,6.843,7.095,6.843c3.912,0,7.096-3.071,7.096-6.843S71.396,75.929,67.485,75.929z"/>
<path fill="#CC5858" d="M14.246,212.438c-3.547,0-6.431-2.785-6.431-6.215c0-3.416,2.884-6.205,6.431-6.205s6.431,2.782,6.431,6.205
	C20.677,209.65,17.793,212.438,14.246,212.438z M14.246,201.93c-2.457,0-4.454,1.93-4.454,4.293c0,2.37,2,4.301,4.454,4.301
	s4.453-1.922,4.453-4.301C18.699,203.855,16.7,201.93,14.246,201.93z"/>
<path fill="#CC5858" d="M54.2,142.729l-4.366-8.563l8.881-4.212l4.366,8.567L54.2,142.729z M52.484,135.031l2.622,5.144l5.333-2.528
	l-2.621-5.143L52.484,135.031z"/>
<polygon fill="#CC5858" points="275.037,52.796 270.954,54.73 268.945,50.79 273.032,48.859 "/>
<g>
	<polygon fill="#E96B56" points="188.449,51.322 187.048,49.97 193.7,43.555 195.096,44.908 	"/>
	<polygon fill="#E96B56" points="193.7,51.322 187.048,44.908 188.449,43.555 195.096,49.97 	"/>
</g>
<path fill="#E96B56" d="M261.857,50.648c0,2.488-2.092,4.505-4.672,4.505c-2.576,0-4.668-2.015-4.668-4.505
	c0-2.486,2.092-4.503,4.668-4.503C259.766,46.145,261.857,48.157,261.857,50.648z"/>
<path fill="#FFD7D7" d="M136.163,257.98c0,1.443-1.213,2.619-2.715,2.619c-1.5,0-2.709-1.176-2.709-2.619
	c0-1.447,1.212-2.619,2.709-2.619C134.946,255.361,136.163,256.533,136.163,257.98z"/>
<path fill="#E96B56" d="M240.482,252.305c3.072,0,5.565,2.402,5.565,5.369s-2.493,5.369-5.565,5.369
	c-3.075,0-5.569-2.402-5.569-5.369S237.407,252.305,240.482,252.305z"/>
<g>
	<g>
		<path fill="#771818" d="M46.267,155.547l-19.874-11.068c-0.396-0.217-0.746-0.229-1.029-0.08v-0.01l-1.929,1.075
			c0,0,0.854,0.302,1.356,0.478V159.9c0,1.132,0.716,2.453,1.601,2.949l18.996,10.571v1.644l1.949-1.084l-0.01-0.004
			c0.327-0.197,0.537-0.621,0.537-1.231v-14.257C47.859,157.354,47.151,156.042,46.267,155.547z"/>
		<path fill="#CC5858" d="M44.302,175.002l-19.874-11.068c-0.884-0.492-1.599-1.813-1.599-2.943v-14.254
			c0-1.139,0.715-1.666,1.599-1.168l19.874,11.069c0.884,0.49,1.601,1.813,1.601,2.943v14.26
			C45.903,174.973,45.187,175.496,44.302,175.002z"/>
	</g>
	<g>
		<path fill="#FFFFFF" d="M31.11,159.021c0,0.83-0.604,1.162-1.344,0.75c-0.739-0.414-1.343-1.416-1.343-2.242
			c0-0.829,0.604-1.162,1.343-0.746C30.514,157.193,31.11,158.195,31.11,159.021z"/>
		<path fill="#FFFFFF" d="M35.179,161.287c0,0.826-0.604,1.162-1.344,0.748c-0.741-0.411-1.343-1.41-1.343-2.241
			c0-0.832,0.605-1.16,1.343-0.75C34.574,159.46,35.179,160.464,35.179,161.287z"/>
		<path fill="#FFFFFF" d="M39.238,163.546c0,0.829-0.603,1.16-1.342,0.749c-0.743-0.416-1.344-1.418-1.344-2.244
			c0-0.83,0.604-1.162,1.344-0.744C38.635,161.717,39.238,162.725,39.238,163.546z"/>
	</g>
</g>
<g>
	<g>
		<path fill="#CC5858" d="M236.846,24.605l-19.875-11.068c-0.391-0.218-0.744-0.227-1.025-0.077v-0.011l-1.932,1.075
			c0,0,0.854,0.303,1.356,0.478v13.959c0,1.135,0.716,2.455,1.597,2.949l18.999,10.574v1.64l1.947-1.082l-0.015-0.005
			c0.328-0.197,0.537-0.622,0.537-1.232V27.557C238.441,26.414,237.73,25.098,236.846,24.605z"/>
		<path fill="#E96B56" d="M234.882,44.062l-19.875-11.068c-0.889-0.493-1.599-1.812-1.599-2.947V15.795
			c0-1.133,0.715-1.659,1.599-1.166l19.875,11.067c0.886,0.491,1.597,1.813,1.597,2.948v14.248
			C236.486,44.026,235.768,44.555,234.882,44.062z"/>
	</g>
	<g>
		<path fill="#FFFFFF" d="M221.691,28.082c0,0.828-0.605,1.161-1.346,0.749c-0.738-0.414-1.344-1.417-1.344-2.244
			c0-0.826,0.604-1.162,1.344-0.747C221.092,26.253,221.691,27.256,221.691,28.082z"/>
		<path fill="#FFFFFF" d="M225.756,30.347c0,0.827-0.605,1.16-1.344,0.749c-0.737-0.414-1.342-1.417-1.342-2.245
			c0-0.824,0.604-1.161,1.342-0.746C225.148,28.519,225.756,29.519,225.756,30.347z"/>
		<path fill="#FFFFFF" d="M229.814,32.606c0,0.829-0.604,1.16-1.342,0.748c-0.738-0.415-1.344-1.415-1.344-2.244
			c0-0.827,0.604-1.161,1.344-0.745C229.218,30.782,229.814,31.784,229.814,32.606z"/>
	</g>
</g>
<polygon fill="#E96B56" points="235.094,264.27 246.756,257.775 258.426,264.27 246.756,270.768 "/>
<polygon fill="#E96B56" points="259.85,250.293 271.52,243.798 283.188,250.293 271.52,256.792 "/>
<polygon fill="#E96B56" points="284.54,236.648 296.208,230.154 307.876,236.648 296.208,243.148 "/>
<g>
	<g>
		<g>
			<polygon fill="#C13D1A" points="271.52,250.293 271.52,215.637 259.85,209.146 259.85,243.798 			"/>
			<polygon fill="#771818" points="271.52,215.637 283.188,209.146 283.188,243.798 271.52,250.293 			"/>
			<polygon fill="#CC5858" points="271.52,250.293 271.52,215.637 259.85,209.146 259.85,243.798 			"/>
		</g>
		<g>
			<polygon fill="#CC5858" points="246.756,264.27 246.756,244.775 235.094,238.282 235.094,257.775 			"/>
			<polygon fill="#771818" points="246.756,244.775 258.426,238.282 258.426,257.775 246.756,264.27 			"/>
			<polygon fill="#E96B56" points="235.094,238.282 246.756,231.779 258.426,238.282 246.756,244.775 			"/>
		</g>
		<g>
			<polygon fill="#CC5858" points="296.208,236.648 296.208,189.004 284.54,182.51 284.54,230.154 			"/>
			<polygon fill="#771818" points="296.208,189.004 307.876,182.51 307.876,230.154 296.208,236.648 			"/>
			<polygon fill="#E96B56" points="284.54,182.51 296.208,176.009 307.876,182.51 296.208,189.004 			"/>
		</g>
	</g>
	<polygon fill="#E96B56" points="259.85,209.146 271.52,202.646 283.188,209.146 271.52,215.637 	"/>
</g>
</svg>
