<?xml version="1.0" encoding="utf-8"?>
<!-- Generator: Adobe Illustrator 16.0.0, SVG Export Plug-In . SVG Version: 6.00 Build 0)  -->
<!DOCTYPE svg PUBLIC "-//W3C//DTD SVG 1.1//EN" "http://www.w3.org/Graphics/SVG/1.1/DTD/svg11.dtd">
<svg version="1.1" id="Layer_1" xmlns="http://www.w3.org/2000/svg" xmlns:xlink="http://www.w3.org/1999/xlink" x="0px" y="0px"
	 width="300px" height="100px" viewBox="0 0 300 100" enable-background="new 0 0 300 100" xml:space="preserve">
<g>
	<path opacity="0.5" fill="#771818" enable-background="new    " d="M165.76,169.153l-114.347-66.9
		c-3.233-1.891-2.825-5.193,0.906-7.383l77.868-45.534c3.736-2.186,9.385-2.426,12.622-0.531L257.157,115.7
		c3.236,1.889,2.832,5.191-0.903,7.385l-77.869,45.535C174.646,170.81,168.996,171.048,165.76,169.153z"/>
	<path fill="#771818" d="M295.307-26.499L172.421-98.385c-1.428-0.834-2.879-0.964-4.165-0.521l0.007-0.01l-0.225,0.086
		c-0.018,0.008-0.036,0.012-0.061,0.024l-4.437,1.721l3.979,1.977c-0.019,0.077-0.04,0.147-0.059,0.222L145.759,5.159
		c-1.005,4.617,1.002,10.013,4.478,12.047l119.934,70.16l-0.43,5.148l4.853-1.898c1.627-0.773,2.933-2.523,3.472-5.014
		l21.714-100.054C300.786-19.073,298.786-24.47,295.307-26.499z"/>
	<path fill="#A83939" d="M295.307-26.499L172.421-98.385c-1.428-0.834-2.879-0.964-4.165-0.521l0.007-0.01l-0.225,0.086
		c-0.018,0.008-0.036,0.012-0.061,0.024l-4.437,1.721l3.979,1.977c-0.019,0.077-0.04,0.147-0.059,0.222l-14.875,68.574
		l60.129,47.467l86.476-42.687C298.373-23.673,297.017-25.494,295.307-26.499z"/>
	<path fill="#872727" d="M290.671-12.307l9.358-4.032c0.171-3.673-1.328-7.463-3.796-9.495l-14.804,6.309L290.671-12.307z"/>
	<path fill="#E96B56" d="M265.474,92.032L142.588,20.139c-3.477-2.032-5.484-7.427-4.482-12.05l21.713-100.055
		c1.006-4.618,4.631-6.72,8.106-4.682l122.89,71.887c3.479,2.032,5.486,7.427,4.477,12.05L273.585,87.343
		C272.576,91.97,268.952,94.063,265.474,92.032z"/>
	<path fill="#FFFFFF" d="M291.997-25.192L169.111-97.084c-1.686-0.986-3.4-0.986-4.843-0.217c1.155-0.255,2.412-0.073,3.654,0.649
		L290.81-24.764c3.479,2.029,5.489,7.426,4.482,12.046L273.576,87.337c-0.514,2.381-1.735,4.08-3.265,4.902
		c2.078-0.467,3.811-2.365,4.453-5.336l21.712-100.059C297.479-17.766,295.471-23.158,291.997-25.192z"/>
	<path fill="#FFFFFF" d="M262.813,85.157L147.236,17.583c-3.181-1.863-5.014-6.798-4.102-11.029l20.012-92.215
		c0.916-4.225,4.237-6.149,7.42-4.283l115.576,67.585c3.184,1.862,5.017,6.793,4.102,11.029l-20.013,92.206
		C269.316,85.101,265.987,87.021,262.813,85.157z"/>
	<path fill="#771818" d="M262.813,85.157L147.236,17.583c-3.181-1.863-5.014-6.798-4.102-11.029l20.012-92.215
		c0.916-4.225,4.237-6.149,7.42-4.283l115.576,67.585c3.184,1.862,5.017,6.793,4.102,11.029l-20.013,92.206
		C269.316,85.101,265.987,87.021,262.813,85.157z"/>
	<path fill="#CC5858" d="M263.818,84.745l-115.57-67.576c-3.181-1.862-5.019-6.796-4.102-11.023l20.013-92.214
		c0.46-2.142,1.546-3.679,2.909-4.45c-1.831,0.479-3.346,2.219-3.922,4.864L143.134,6.56c-0.912,4.226,0.918,9.164,4.102,11.026
		l115.572,67.579c1.569,0.916,3.174,0.91,4.508,0.166C266.225,85.61,265.006,85.44,263.818,84.745z"/>
	<path fill="#771818" d="M267.171,95.161l-16.799-2.244L141.94,29.481c-3.477-2.032-9.549-1.783-13.566,0.57l-76.827,44.93
		l-10.155-1.363v5.838h0.01c-0.069,1.35,0.695,2.648,2.332,3.607l122.886,71.889c3.476,2.035,9.546,1.779,13.564-0.572
		l83.677-48.934c2.261-1.318,3.39-3.023,3.321-4.621l0,0v-5.664H267.171z"/>
	<path fill="#A83939" d="M185.695,55.077l-7.698-4.504H93.299L51.543,74.981l-10.154-1.363v5.838h0.009
		c-0.067,1.35,0.696,2.648,2.332,3.607l122.888,71.889c1.84,1.076,4.401,1.51,6.994,1.332L185.695,55.077z"/>
	<path fill="#CC5858" d="M45.893,74.229l-4.509-0.604v5.836h0.009c-0.064,1.346,0.696,2.65,2.332,3.605l2.166,1.27V74.229H45.893z"
		/>
	<path fill="#872727" d="M167.857,155.538c3.293,1.271,8.006,0.998,11.521-0.725V141.79h-11.521V155.538z"/>
	<path fill="#E96B56" d="M166.614,149.124L43.734,77.237c-3.476-2.035-3.043-5.586,0.974-7.936l83.68-48.933
		c4.009-2.347,10.085-2.604,13.564-0.572l122.885,71.89c3.479,2.031,3.04,5.588-0.976,7.934l-83.677,48.934
		C176.16,150.903,170.09,151.155,166.614,149.124z"/>
	<path fill="#FFFFFF" d="M263.851,97.487l-83.678,48.934c-4.013,2.346-10.089,2.605-13.565,0.568L43.734,75.099
		c-1.14-0.662-1.854-1.5-2.162-2.389c-0.542,1.662,0.146,3.35,2.162,4.527l122.886,71.887c3.476,2.031,9.546,1.779,13.564-0.57
		l83.677-48.934c2.696-1.576,3.77-3.701,3.141-5.541C266.595,95.298,265.547,96.497,263.851,97.487z"/>
	<g>
		<path fill="#5793CE" d="M95.993,53.438l-5.557-3.254c-0.447-0.26-0.389-0.715,0.124-1.016l6.563-3.842
			c0.515-0.305,1.296-0.334,1.744-0.078l5.559,3.248c0.447,0.264,0.388,0.725-0.125,1.023l-6.56,3.844
			C97.222,53.665,96.443,53.704,95.993,53.438z"/>
		<path fill="#CC5858" d="M104.581,58.46l-5.558-3.252c-0.447-0.264-0.387-0.721,0.125-1.021l6.56-3.838
			c0.515-0.309,1.297-0.338,1.744-0.082l5.558,3.256c0.447,0.264,0.387,0.719-0.125,1.02l-6.562,3.84
			C105.807,58.694,105.028,58.72,104.581,58.46z"/>
		<path fill="#CC5858" d="M113.168,63.485l-5.559-3.254c-0.446-0.264-0.387-0.719,0.123-1.021l6.564-3.84
			c0.512-0.307,1.297-0.33,1.744-0.076l5.559,3.256c0.447,0.258,0.387,0.719-0.125,1.016l-6.564,3.844
			C114.393,63.712,113.614,63.749,113.168,63.485z"/>
		<path fill="#CC5858" d="M125.044,59.333l-5.558-3.25c-0.447-0.26-0.389-0.719,0.124-1.02l5.508-3.225
			c0.512-0.303,1.298-0.332,1.744-0.07l5.559,3.248c0.447,0.264,0.388,0.725-0.125,1.021l-5.505,3.223
			C126.27,59.562,125.491,59.599,125.044,59.333z"/>
		<path fill="#CC5858" d="M133.628,64.362l-5.559-3.252c-0.446-0.266-0.387-0.723,0.125-1.023l5.506-3.225
			c0.515-0.301,1.296-0.332,1.744-0.074l5.558,3.258c0.447,0.26,0.388,0.715-0.124,1.02l-5.508,3.223
			C134.86,64.589,134.076,64.618,133.628,64.362z"/>
		<path fill="#CC5858" d="M142.215,69.38l-5.558-3.246c-0.447-0.266-0.388-0.727,0.124-1.025l5.509-3.223
			c0.513-0.307,1.297-0.334,1.745-0.074l5.558,3.248c0.447,0.264,0.387,0.721-0.125,1.021l-5.504,3.225
			C143.441,69.612,142.663,69.644,142.215,69.38z"/>
		<path fill="#5793CE" d="M150.807,74.411l-5.559-3.256c-0.447-0.264-0.387-0.715,0.124-1.023l5.505-3.221
			c0.516-0.303,1.298-0.334,1.745-0.076l5.555,3.258c0.449,0.262,0.391,0.715-0.121,1.02l-5.509,3.221
			C152.029,74.636,151.249,74.663,150.807,74.411z"/>
		<path fill="#5793CE" d="M159.386,79.427l-5.558-3.248c-0.446-0.264-0.392-0.721,0.124-1.02l5.51-3.227
			c0.508-0.301,1.297-0.332,1.739-0.072l5.558,3.252c0.449,0.264,0.392,0.723-0.12,1.02l-5.51,3.223
			C160.613,79.659,159.838,79.688,159.386,79.427z"/>
		<path fill="#5793CE" d="M167.972,84.45l-5.558-3.256c-0.445-0.26-0.389-0.713,0.127-1.016l5.503-3.225
			c0.513-0.305,1.298-0.338,1.746-0.072l5.559,3.25c0.448,0.266,0.388,0.719-0.128,1.02l-5.503,3.225
			C169.202,84.683,168.42,84.712,167.972,84.45z"/>
		<path fill="#5793CE" d="M176.561,89.474l-5.559-3.248c-0.442-0.264-0.388-0.727,0.127-1.023l5.505-3.223
			c0.515-0.301,1.296-0.336,1.745-0.074l5.559,3.252c0.448,0.266,0.389,0.719-0.125,1.021l-5.507,3.221
			C177.785,89.706,177.009,89.735,176.561,89.474z"/>
		<path fill="#5793CE" d="M185.149,94.495l-5.558-3.252c-0.446-0.262-0.389-0.717,0.127-1.018l5.503-3.223
			c0.516-0.307,1.298-0.332,1.746-0.074l5.559,3.25c0.445,0.264,0.388,0.719-0.128,1.02l-5.5,3.227
			C186.373,94.728,185.595,94.759,185.149,94.495z"/>
		<path fill="#5793CE" d="M193.732,99.522l-5.559-3.252c-0.448-0.264-0.388-0.721,0.125-1.021l5.506-3.223
			c0.516-0.301,1.298-0.334,1.746-0.078l5.559,3.256c0.442,0.266,0.387,0.719-0.128,1.021l-5.504,3.217
			C194.963,99.751,194.188,99.782,193.732,99.522z"/>
		<path fill="#5793CE" d="M202.321,104.542l-5.559-3.252c-0.448-0.264-0.388-0.717,0.121-1.018l5.51-3.225
			c0.516-0.307,1.298-0.332,1.743-0.076l5.558,3.252c0.445,0.264,0.392,0.725-0.124,1.023l-5.504,3.225
			C203.552,104.769,202.764,104.806,202.321,104.542z"/>
		<path fill="#CC5858" d="M137.697,56.958l-5.559-3.25c-0.447-0.264-0.388-0.723,0.125-1.021l5.505-3.223
			c0.516-0.307,1.297-0.334,1.745-0.076l5.558,3.25c0.447,0.262,0.387,0.723-0.124,1.021l-5.505,3.223
			C138.922,57.188,138.145,57.222,137.697,56.958z"/>
		<path fill="#CC5858" d="M128.979,51.858l-5.558-3.249c-0.447-0.264-0.388-0.721,0.125-1.023l5.505-3.221
			c0.515-0.305,1.297-0.332,1.744-0.076l5.558,3.252c0.447,0.268,0.389,0.717-0.124,1.021l-5.505,3.223
			C130.208,52.091,129.426,52.116,128.979,51.858z"/>
		<path fill="#CC5858" d="M120.25,46.756l-11.972-7.006c-0.447-0.266-0.389-0.721,0.124-1.021l5.508-3.224
			c0.515-0.301,1.297-0.334,1.744-0.073l11.973,7.006c0.446,0.262,0.388,0.717-0.125,1.021l-5.505,3.219
			C121.479,46.981,120.697,47.016,120.25,46.756z"/>
		<path fill="#CC5858" d="M126.353,40.543l-9.715-5.688c-0.447-0.263-0.389-0.719,0.125-1.021l5.504-3.219
			c0.515-0.307,1.298-0.335,1.744-0.075l9.718,5.687c0.445,0.263,0.388,0.718-0.125,1.021l-5.506,3.219
			C127.579,40.77,126.8,40.805,126.353,40.543z"/>
		<path fill="#CC5858" d="M146.278,61.981l-5.558-3.256c-0.447-0.264-0.387-0.715,0.124-1.021l5.508-3.221
			c0.512-0.305,1.297-0.334,1.744-0.072l5.562,3.252c0.445,0.262,0.388,0.719-0.127,1.02l-5.506,3.223
			C147.51,62.206,146.731,62.245,146.278,61.981z"/>
		<path fill="#5793CE" d="M154.868,67.005l-5.559-3.25c-0.445-0.264-0.389-0.725,0.124-1.021l5.506-3.225
			c0.517-0.307,1.298-0.33,1.747-0.076l5.554,3.256c0.445,0.258,0.392,0.719-0.124,1.016l-5.504,3.225
			C156.098,67.229,155.31,67.267,154.868,67.005z"/>
		<path fill="#5793CE" d="M163.456,72.026l-5.558-3.254c-0.452-0.262-0.395-0.717,0.121-1.016l5.507-3.225
			c0.511-0.307,1.297-0.336,1.742-0.076l5.558,3.252c0.449,0.264,0.395,0.719-0.121,1.02l-5.507,3.229
			C164.681,72.253,163.898,72.29,163.456,72.026z"/>
		<path fill="#5793CE" d="M172.041,77.054l-5.554-3.252c-0.448-0.264-0.392-0.725,0.12-1.021l5.51-3.225
			c0.51-0.301,1.298-0.332,1.739-0.076l5.559,3.256c0.448,0.262,0.392,0.719-0.121,1.021l-5.509,3.217
			C173.263,77.282,172.487,77.308,172.041,77.054z"/>
		<path fill="#5793CE" d="M180.628,82.073l-5.559-3.252c-0.448-0.264-0.394-0.719,0.121-1.02l5.507-3.223
			c0.513-0.309,1.3-0.332,1.743-0.076l5.559,3.252c0.451,0.264,0.393,0.719-0.122,1.021l-5.507,3.225
			C181.855,82.298,181.076,82.335,180.628,82.073z"/>
		<path fill="#5793CE" d="M189.211,87.099l-5.556-3.252c-0.446-0.262-0.391-0.721,0.124-1.021l5.504-3.223
			c0.515-0.303,1.297-0.332,1.745-0.076l5.559,3.254c0.449,0.264,0.389,0.721-0.124,1.023l-5.507,3.217
			C190.435,87.329,189.659,87.356,189.211,87.099z"/>
		<path fill="#5793CE" d="M197.8,92.12l-5.559-3.256c-0.442-0.256-0.389-0.717,0.128-1.021l5.503-3.217
			c0.516-0.311,1.301-0.336,1.746-0.076l5.559,3.25c0.447,0.264,0.387,0.719-0.122,1.021l-5.507,3.223
			C199.023,92.345,198.248,92.382,197.8,92.12z"/>
		<path fill="#5793CE" d="M206.388,97.14l-5.558-3.252c-0.448-0.264-0.388-0.721,0.121-1.021l5.507-3.223
			c0.515-0.303,1.297-0.334,1.749-0.076l5.558,3.258c0.442,0.264,0.389,0.715-0.128,1.02l-5.503,3.223
			C207.613,97.374,206.833,97.403,206.388,97.14z"/>
		<path fill="#5793CE" d="M214.971,102.165l-5.558-3.254c-0.448-0.258-0.389-0.719,0.123-1.016l5.508-3.223
			c0.515-0.309,1.297-0.336,1.745-0.076l5.558,3.248c0.443,0.264,0.389,0.723-0.127,1.023l-5.503,3.223
			C216.201,102.397,215.419,102.429,214.971,102.165z"/>
		<path fill="#5793CE" d="M230.238,111.103l-12.127-7.1c-0.449-0.264-0.395-0.721,0.121-1.021l5.506-3.225
			c0.513-0.307,1.301-0.332,1.743-0.074l12.135,7.098c0.441,0.264,0.389,0.723-0.129,1.021l-5.502,3.221
			C231.463,111.327,230.683,111.36,230.238,111.103z"/>
		<path fill="#5793CE" d="M246.949,101.312l-10.236-5.988c-0.448-0.262-0.392-0.719,0.122-1.018l5.508-3.225
			c0.511-0.303,1.297-0.336,1.744-0.074l10.24,5.988c0.447,0.262,0.388,0.725-0.123,1.02l-5.505,3.223
			C248.18,101.548,247.399,101.575,246.949,101.312z"/>
		<path fill="#5793CE" d="M161.316,60.999l-5.558-3.252c-0.449-0.264-0.389-0.723,0.123-1.021l5.508-3.225
			c0.515-0.299,1.296-0.33,1.745-0.074l5.555,3.256c0.446,0.262,0.392,0.717-0.124,1.021l-5.504,3.217
			C162.547,61.228,161.759,61.261,161.316,60.999z"/>
		<path fill="#CC5858" d="M152.518,55.849l-5.557-3.25c-0.447-0.264-0.388-0.721,0.124-1.021l5.505-3.223
			c0.514-0.305,1.296-0.334,1.744-0.072l5.555,3.25c0.452,0.262,0.392,0.723-0.121,1.02l-5.506,3.225
			C153.745,56.075,152.964,56.11,152.518,55.849z"/>
		<path fill="#CC5858" d="M143.718,50.7l-5.559-3.252c-0.447-0.264-0.388-0.717,0.125-1.02l5.505-3.221
			c0.516-0.307,1.297-0.334,1.744-0.076l5.559,3.25c0.446,0.264,0.387,0.721-0.125,1.021l-5.509,3.221
			C144.944,50.925,144.165,50.962,143.718,50.7z"/>
		<path fill="#CC5858" d="M134.919,45.551l-5.559-3.254c-0.446-0.262-0.388-0.717,0.125-1.021l5.505-3.219
			c0.516-0.305,1.297-0.334,1.744-0.076l5.558,3.25c0.447,0.264,0.388,0.721-0.124,1.021l-5.505,3.223
			C136.146,45.786,135.367,45.815,134.919,45.551z"/>
		<path fill="#5793CE" d="M169.904,66.019l-5.558-3.25c-0.451-0.264-0.394-0.719,0.122-1.02l5.506-3.225
			c0.513-0.307,1.298-0.33,1.742-0.074l5.559,3.252c0.449,0.264,0.395,0.717-0.121,1.021l-5.506,3.223
			C171.129,66.251,170.348,66.284,169.904,66.019z"/>
		<path fill="#5793CE" d="M178.491,71.046l-5.556-3.252c-0.448-0.264-0.39-0.721,0.121-1.021l5.51-3.225
			c0.51-0.301,1.297-0.33,1.74-0.076l5.559,3.258c0.448,0.262,0.39,0.717-0.122,1.021l-5.509,3.217
			C179.719,71.274,178.937,71.306,178.491,71.046z"/>
		<path fill="#5793CE" d="M187.084,76.065l-5.559-3.256c-0.449-0.256-0.395-0.717,0.121-1.021l5.506-3.217
			c0.513-0.311,1.301-0.336,1.743-0.076l5.558,3.248c0.452,0.264,0.395,0.723-0.121,1.021l-5.507,3.225
			C188.305,76.292,187.525,76.327,187.084,76.065z"/>
		<path fill="#5793CE" d="M195.66,81.093l-5.556-3.252c-0.445-0.264-0.392-0.723,0.125-1.023l5.503-3.223
			c0.512-0.301,1.298-0.332,1.746-0.076l5.558,3.26c0.445,0.26,0.388,0.715-0.124,1.018l-5.507,3.225
			C196.891,81.319,196.109,81.354,195.66,81.093z"/>
		<path fill="#5793CE" d="M204.248,86.112l-5.558-3.256c-0.442-0.256-0.388-0.717,0.127-1.016l5.504-3.225
			c0.515-0.307,1.297-0.334,1.745-0.074l5.559,3.248c0.448,0.264,0.389,0.725-0.125,1.021l-5.506,3.225
			C205.473,86.343,204.697,86.374,204.248,86.112z"/>
		<path fill="#5793CE" d="M212.838,91.142l-5.559-3.256c-0.449-0.262-0.388-0.715,0.121-1.021l5.507-3.219
			c0.516-0.305,1.297-0.338,1.749-0.08l5.558,3.258c0.442,0.264,0.389,0.719-0.127,1.02l-5.504,3.225
			C214.062,91.366,213.282,91.396,212.838,91.142z"/>
		<path fill="#5793CE" d="M221.426,96.157l-5.558-3.248c-0.449-0.264-0.388-0.723,0.124-1.021l5.507-3.225
			c0.515-0.307,1.297-0.336,1.745-0.074l5.555,3.248c0.446,0.264,0.393,0.725-0.123,1.021l-5.503,3.225
			C222.65,96.39,221.875,96.421,221.426,96.157z"/>
		<path fill="#5793CE" d="M230.009,101.188l-5.559-3.256c-0.447-0.264-0.388-0.715,0.122-1.021l5.511-3.217
			c0.511-0.309,1.296-0.336,1.744-0.082l5.559,3.256c0.445,0.264,0.388,0.719-0.128,1.02l-5.503,3.229
			C231.239,101.413,230.451,101.444,230.009,101.188z"/>
		<path fill="#5793CE" d="M238.599,106.204l-5.561-3.248c-0.447-0.264-0.39-0.723,0.123-1.023l5.51-3.223
			c0.509-0.301,1.297-0.332,1.742-0.074l5.555,3.254c0.45,0.258,0.391,0.717-0.12,1.02l-5.51,3.219
			C239.822,106.437,239.039,106.468,238.599,106.204z"/>
		<path fill="#CC5858" d="M156.794,48.575l-5.558-3.25c-0.447-0.264-0.388-0.721,0.125-1.023l5.506-3.223
			c0.516-0.301,1.301-0.334,1.745-0.074l5.559,3.252c0.448,0.266,0.389,0.721-0.124,1.021l-5.506,3.219
			C158.02,48.805,157.243,48.831,156.794,48.575z"/>
		<path fill="#CC5858" d="M148.251,43.577l-5.559-3.252c-0.447-0.264-0.387-0.719,0.125-1.021l5.505-3.22
			c0.516-0.306,1.298-0.335,1.745-0.074l5.558,3.253c0.449,0.262,0.391,0.719-0.124,1.02l-5.506,3.223
			C149.478,43.805,148.698,43.833,148.251,43.577z"/>
		<path fill="#CC5858" d="M139.711,38.575l-5.558-3.252c-0.447-0.263-0.389-0.72,0.125-1.022l5.504-3.22
			c0.515-0.305,1.297-0.332,1.744-0.077l5.558,3.252c0.447,0.265,0.388,0.72-0.124,1.021l-5.508,3.224
			C140.937,38.803,140.157,38.838,139.711,38.575z"/>
		<path fill="#CC5858" d="M131.167,33.578l-5.559-3.253c-0.447-0.263-0.387-0.718,0.125-1.021l5.508-3.224
			c0.516-0.302,1.297-0.334,1.744-0.073l5.558,3.252c0.447,0.263,0.388,0.719-0.124,1.021l-5.504,3.221
			C132.394,33.806,131.615,33.843,131.167,33.578z"/>
		<path fill="#CC5858" d="M139.954,28.44l-5.558-3.253c-0.447-0.263-0.388-0.719,0.124-1.021l1.821-1.069
			c0.516-0.304,1.297-0.334,1.744-0.076l5.558,3.253c0.447,0.263,0.388,0.719-0.124,1.021l-1.821,1.063
			C141.179,28.67,140.4,28.701,139.954,28.44z"/>
		<path fill="#CC5858" d="M151.104,34.963l-5.559-3.254c-0.447-0.263-0.388-0.72,0.124-1.021l1.821-1.063
			c0.516-0.306,1.298-0.334,1.744-0.076l5.561,3.25c0.445,0.264,0.388,0.721-0.128,1.024l-1.82,1.067
			C152.326,35.188,151.548,35.227,151.104,34.963z"/>
		<path fill="#CC5858" d="M159.607,39.938l-5.559-3.252c-0.448-0.263-0.388-0.719,0.125-1.02l1.82-1.063
			c0.516-0.305,1.298-0.335,1.746-0.077l5.558,3.252c0.446,0.264,0.389,0.721-0.126,1.021l-1.818,1.07
			C160.837,40.168,160.056,40.198,159.607,39.938z"/>
		<path fill="#CC5858" d="M168.117,44.915l-5.558-3.252c-0.452-0.262-0.395-0.719,0.12-1.02l1.824-1.07
			c0.51-0.305,1.298-0.334,1.743-0.076l5.559,3.252c0.445,0.264,0.391,0.719-0.124,1.021l-1.825,1.063
			C169.345,45.143,168.56,45.174,168.117,44.915z"/>
		<path fill="#CC5858" d="M176.628,49.895l-5.559-3.252c-0.448-0.264-0.395-0.721,0.121-1.021l1.824-1.063
			c0.515-0.305,1.297-0.334,1.742-0.078l5.559,3.254c0.451,0.264,0.392,0.719-0.121,1.02l-1.824,1.072
			C177.849,50.122,177.069,50.159,176.628,49.895z"/>
		<path fill="#5793CE" d="M224.124,77.685l-5.559-3.256c-0.448-0.264-0.389-0.719,0.124-1.021l1.821-1.061
			c0.515-0.301,1.297-0.336,1.745-0.074l5.559,3.252c0.445,0.258,0.388,0.719-0.127,1.021l-1.818,1.068
			C225.354,77.909,224.572,77.946,224.124,77.685z"/>
		<path fill="#5793CE" d="M232.634,82.655l-5.559-3.254c-0.452-0.256-0.394-0.717,0.121-1.02l1.825-1.063
			c0.509-0.301,1.295-0.332,1.742-0.074l5.558,3.254c0.447,0.264,0.392,0.717-0.123,1.021l-1.824,1.066
			C233.857,82.888,233.077,82.919,232.634,82.655z"/>
		<path fill="#5793CE" d="M241.144,87.636l-5.559-3.256c-0.448-0.256-0.393-0.715,0.121-1.014l1.824-1.074
			c0.516-0.301,1.299-0.33,1.743-0.076l5.559,3.26c0.451,0.264,0.391,0.715-0.122,1.02l-1.823,1.059
			C242.365,87.864,241.586,87.899,241.144,87.636z"/>
		<path fill="#5793CE" d="M249.647,92.614l-5.558-3.248c-0.444-0.264-0.388-0.721,0.126-1.021l1.824-1.066
			c0.51-0.303,1.299-0.332,1.743-0.072l5.56,3.254c0.45,0.26,0.388,0.719-0.123,1.023l-1.827,1.066
			C250.871,92.845,250.097,92.872,249.647,92.614z"/>
		<path fill="#CC5858" d="M165.384,53.597l-5.558-3.256c-0.449-0.262-0.389-0.719,0.126-1.021l5.501-3.217
			c0.516-0.307,1.297-0.336,1.749-0.08l5.558,3.252c0.443,0.264,0.389,0.723-0.127,1.021l-5.504,3.225
			C166.607,53.823,165.832,53.858,165.384,53.597z"/>
		<path fill="#CC5858" d="M173.972,58.622l-5.558-3.252c-0.449-0.264-0.388-0.719,0.124-1.021l5.508-3.225
			c0.515-0.299,1.296-0.332,1.744-0.074l5.559,3.254c0.443,0.264,0.388,0.719-0.127,1.023l-5.503,3.223
			C175.196,58.851,174.421,58.88,173.972,58.622z"/>
		<path fill="#CC5858" d="M182.556,63.642l-5.559-3.254c-0.448-0.258-0.388-0.719,0.128-1.016l5.502-3.225
			c0.517-0.307,1.298-0.334,1.747-0.074l5.559,3.248c0.444,0.264,0.387,0.725-0.128,1.021l-5.504,3.225
			C183.785,63.874,183.001,63.905,182.556,63.642z"/>
		<path fill="#CC5858" d="M191.145,68.665l-5.559-3.254c-0.449-0.264-0.391-0.715,0.121-1.021l5.51-3.221
			c0.51-0.305,1.297-0.336,1.743-0.078l5.558,3.256c0.445,0.264,0.391,0.721-0.124,1.02l-5.511,3.225
			C192.369,68.897,191.587,68.925,191.145,68.665z"/>
		<path fill="#CC5858" d="M199.729,73.688l-5.558-3.248c-0.445-0.264-0.392-0.725,0.125-1.021l5.509-3.225
			c0.509-0.307,1.298-0.334,1.739-0.074l5.558,3.248c0.449,0.264,0.392,0.725-0.121,1.021l-5.509,3.225
			C200.951,73.921,200.175,73.952,199.729,73.688z"/>
		<path fill="#CC5858" d="M208.315,78.712l-5.559-3.254c-0.444-0.264-0.388-0.717,0.128-1.021l5.504-3.219
			c0.512-0.307,1.297-0.334,1.745-0.082l5.559,3.258c0.448,0.264,0.388,0.719-0.128,1.02l-5.503,3.227
			C209.543,78.944,208.765,78.976,208.315,78.712z"/>
		<path fill="#5793CE" d="M216.898,83.735l-5.559-3.248c-0.442-0.264-0.387-0.727,0.127-1.021l5.505-3.225
			c0.515-0.307,1.296-0.332,1.745-0.076l5.559,3.256c0.448,0.256,0.388,0.719-0.125,1.016l-5.506,3.223
			C218.129,83.96,217.347,83.999,216.898,83.735z"/>
		<path fill="#5793CE" d="M225.487,88.759l-5.558-3.254c-0.443-0.262-0.389-0.717,0.127-1.018l5.503-3.223
			c0.516-0.309,1.298-0.336,1.746-0.076l5.558,3.252c0.449,0.264,0.389,0.717-0.127,1.021l-5.501,3.225
			C226.711,88.983,225.937,89.022,225.487,88.759z"/>
		<path fill="#5793CE" d="M234.076,93.782l-5.559-3.25c-0.448-0.262-0.388-0.721,0.125-1.021l5.506-3.223
			c0.516-0.303,1.298-0.334,1.746-0.076l5.559,3.254c0.442,0.264,0.388,0.719-0.128,1.023l-5.503,3.217
			C235.301,94.013,234.521,94.038,234.076,93.782z"/>
		<path fill="#CC5858" d="M116.296,54.218l-16.374-9.581c-0.447-0.266-0.388-0.721,0.125-1.021l5.505-3.221
			c0.515-0.305,1.297-0.334,1.744-0.072l16.373,9.578c0.447,0.266,0.389,0.717-0.124,1.024l-5.508,3.217
			C117.52,54.448,116.741,54.478,116.296,54.218z"/>
		<path fill="#CC5858" d="M221.777,115.925l-16.371-9.572c-0.449-0.264-0.388-0.725,0.124-1.021l5.507-3.225
			c0.516-0.305,1.297-0.336,1.746-0.072l16.371,9.574c0.449,0.262,0.391,0.723-0.121,1.021l-5.51,3.223
			C223.005,116.153,222.226,116.188,221.777,115.925z"/>
		<path fill="#5793CE" d="M187.44,106.937l-5.559-3.252c-0.448-0.266-0.387-0.717,0.124-1.023l6.563-3.838
			c0.515-0.307,1.297-0.332,1.745-0.076l5.559,3.256c0.445,0.264,0.388,0.721-0.127,1.02l-6.559,3.84
			C188.665,107.163,187.883,107.198,187.44,106.937z"/>
		<path fill="#CC5858" d="M125.085,70.452l-8.892-5.197c-0.447-0.264-0.389-0.723,0.125-1.023l6.561-3.838
			c0.516-0.307,1.297-0.336,1.744-0.076l8.89,5.199c0.447,0.264,0.389,0.723-0.124,1.023l-6.56,3.838
			C126.311,70.685,125.532,70.716,125.085,70.452z"/>
		<path fill="#5793CE" d="M179.166,102.097l-8.891-5.201c-0.442-0.262-0.389-0.719,0.127-1.02l6.559-3.842
			c0.515-0.303,1.299-0.334,1.745-0.072l8.892,5.199c0.452,0.26,0.389,0.721-0.121,1.02l-6.563,3.84
			C180.392,102.323,179.615,102.354,179.166,102.097z"/>
		<path fill="#CC5858" d="M137.478,77.71l-8.892-5.207c-0.447-0.264-0.389-0.715,0.125-1.021l6.559-3.838
			c0.515-0.309,1.297-0.332,1.744-0.072l8.892,5.199c0.447,0.264,0.388,0.717-0.124,1.02l-6.562,3.84
			C138.699,77.935,137.92,77.96,137.478,77.71z"/>
		<path fill="#5793CE" d="M137.07,67.604l38.66,22.621c0.479,0.277,0.479,0.734,0,1.012l-6.692,3.918
			c-0.479,0.281-1.255,0.281-1.739,0l-38.66-22.613L137.07,67.604z"/>
		<path fill="#CC5858" d="M211.438,116.044l6.194,3.625c0.369,0.217,0.321,0.592-0.1,0.832l-2.687,1.576
			c-0.42,0.244-1.06,0.27-1.426,0.059l-6.195-3.627c-0.37-0.217-0.321-0.59,0.101-0.834l2.688-1.572
			C210.434,115.854,211.074,115.827,211.438,116.044z"/>
		<path fill="#CC5858" d="M202.782,110.976l6.194,3.625c0.369,0.217,0.321,0.594-0.101,0.838l-2.686,1.57
			c-0.424,0.246-1.06,0.27-1.426,0.061l-6.195-3.625c-0.37-0.217-0.321-0.594,0.1-0.838l2.688-1.57
			C201.778,110.788,202.418,110.767,202.782,110.976z"/>
		<path fill="#5793CE" d="M194.193,105.952l6.2,3.629c0.363,0.217,0.321,0.594-0.104,0.836l-2.685,1.568
			c-0.424,0.246-1.062,0.277-1.431,0.057l-6.191-3.625c-0.366-0.209-0.324-0.59,0.1-0.834l2.686-1.566
			C193.187,105.765,193.829,105.739,194.193,105.952z"/>
		<path fill="#CC5858" d="M207.521,108.206l6.195,3.623c0.369,0.213,0.324,0.59-0.098,0.834l-2.685,1.566
			c-0.425,0.246-1.061,0.277-1.428,0.064l-6.195-3.629c-0.369-0.215-0.323-0.588,0.101-0.834l2.686-1.57
			C206.515,108.015,207.152,107.983,207.521,108.206z"/>
	</g>
	<g>
		<polygon fill="#E96B56" points="241.439,10.184 195.187,-16.866 195.787,-19.914 242.041,7.145 		"/>
		<polygon fill="#E96B56" points="224.875,15.327 192.593,-3.554 193.187,-6.605 225.469,12.282 		"/>
		<polygon fill="#FFFFFF" points="221.82,6.131 193.891,-10.21 194.484,-13.257 222.414,3.079 		"/>
		<polygon fill="#CC5858" points="240.145,16.848 226.178,8.673 226.772,5.626 240.738,13.8 		"/>
		<polygon fill="#E96B56" points="190.263,-43.452 176.297,-51.62 176.894,-54.667 190.859,-46.493 		"/>
		<polygon fill="#FFFFFF" points="188.75,-36.372 174.784,-44.537 175.378,-47.584 189.344,-39.419 		"/>
		<polygon fill="#D4ECFF" points="257.298,61.841 243.33,53.665 243.923,50.624 257.889,58.794 		"/>
		<polygon fill="#E96B56" points="185.719,-22.209 171.753,-30.38 172.348,-33.425 186.313,-25.257 		"/>
	</g>
	<g>
		<path fill="#CC5858" d="M215.893-20.012c-0.449,0.978-1.57,1.336-2.516,0.782c-0.939-0.549-1.34-1.793-0.895-2.78
			c0.446-0.986,1.567-1.339,2.513-0.784C215.936-22.246,216.335-21.002,215.893-20.012z"/>
		<path fill="#FFFFFF" d="M221.905-16.5c-0.449,0.989-1.569,1.338-2.512,0.784c-0.946-0.549-1.347-1.792-0.895-2.776
			c0.442-0.983,1.563-1.341,2.509-0.784C221.95-18.722,222.351-17.479,221.905-16.5z"/>
		<path fill="#FFD7D7" d="M227.917-12.978c-0.441,0.98-1.565,1.336-2.509,0.78c-0.939-0.55-1.346-1.792-0.897-2.778
			c0.449-0.983,1.57-1.339,2.51-0.784C227.966-15.203,228.367-13.962,227.917-12.978z"/>
		<path fill="#FFFFFF" d="M233.941-9.458c-0.447,0.978-1.569,1.338-2.514,0.782c-0.942-0.549-1.342-1.791-0.897-2.78
			c0.45-0.985,1.569-1.335,2.516-0.784C233.98-11.69,234.38-10.438,233.941-9.458z"/>
	</g>
</g>
<g>
	<g>
		<path fill="#771818" d="M132.307-25.307l-30.118-17.612c-0.601-0.35-1.199-0.362-1.711-0.129l0.006-0.015l-3.587,1.712
			c0,0,1.351,0.478,2.138,0.756l-4.344,22.218c-0.358,1.812,0.447,3.906,1.783,4.688l28.789,16.838l-0.509,2.61l3.628-1.725
			l-0.016-0.006c0.614-0.308,1.105-0.987,1.298-1.955l4.44-22.685C134.449-22.423,133.649-24.528,132.307-25.307z"/>
		<path fill="#CC5858" d="M122.938,5.661L92.816-11.951c-1.338-0.782-2.138-2.883-1.785-4.688l4.442-22.685
			c0.352-1.81,1.724-2.638,3.062-1.854l30.121,17.611c1.338,0.783,2.138,2.884,1.786,4.688L126,3.805
			C125.643,5.615,124.271,6.443,122.938,5.661z"/>
		<path fill="#FFFFFF" d="M129.34-23.843L99.219-41.455c-0.702-0.408-1.414-0.369-1.975,0.016c0.413-0.071,0.849,0,1.291,0.256
			l30.121,17.613c1.338,0.782,2.138,2.883,1.786,4.694L126,3.809c-0.168,0.857-0.571,1.485-1.09,1.838
			c0.835-0.141,1.537-0.897,1.772-2.111l4.441-22.684C131.479-20.959,130.677-23.06,129.34-23.843z"/>
	</g>
	<g>
		<path fill="#FFFFFF" d="M105.629-19.769c-0.257,1.313-1.374,1.846-2.498,1.191c-1.124-0.655-1.822-2.254-1.57-3.566
			c0.261-1.314,1.377-1.844,2.501-1.191C105.189-22.681,105.891-21.082,105.629-19.769z"/>
		<path fill="#FFFFFF" d="M111.787-16.173c-0.262,1.313-1.378,1.844-2.502,1.191c-1.123-0.652-1.821-2.255-1.566-3.566
			c0.257-1.314,1.374-1.844,2.499-1.191C111.346-19.078,112.044-17.479,111.787-16.173z"/>
		<path fill="#FFFFFF" d="M117.946-12.57c-0.26,1.313-1.377,1.847-2.5,1.191c-1.125-0.655-1.822-2.254-1.568-3.568
			c0.257-1.313,1.378-1.845,2.501-1.19C117.504-15.484,118.201-13.884,117.946-12.57z"/>
	</g>
</g>
<g>
	<g>
		<path fill="#CC5858" d="M118.788-53.833l-30.12-17.614c-0.601-0.35-1.199-0.364-1.711-0.129l0.003-0.016l-3.587,1.711
			c0,0,1.35,0.477,2.138,0.758l-4.345,22.219c-0.354,1.807,0.445,3.904,1.784,4.688l28.787,16.837l-0.508,2.611l3.628-1.722
			l-0.016-0.006c0.615-0.309,1.104-0.986,1.297-1.957l4.441-22.685C120.927-50.949,120.125-53.048,118.788-53.833z"/>
		<path fill="#E96B56" d="M109.409-22.865l-30.122-17.61c-1.337-0.784-2.138-2.883-1.783-4.688l4.44-22.685
			c0.357-1.808,1.725-2.64,3.063-1.856l30.121,17.612c1.338,0.784,2.138,2.883,1.781,4.687l-4.44,22.684
			C112.125-22.908,110.753-22.081,109.409-22.865z"/>
		<path fill="#FFFFFF" d="M115.814-52.368L85.697-69.979c-0.7-0.408-1.412-0.37-1.978,0.016c0.413-0.07,0.851,0,1.295,0.257
			l30.122,17.611c1.338,0.784,2.138,2.882,1.782,4.694l-4.442,22.683c-0.171,0.858-0.57,1.491-1.089,1.841
			c0.835-0.138,1.537-0.9,1.772-2.113l4.441-22.684C117.955-49.481,117.155-51.584,115.814-52.368z"/>
	</g>
	<g>
		<path fill="#FFFFFF" d="M92.112-48.297c-0.258,1.314-1.374,1.843-2.499,1.191c-1.123-0.651-1.822-2.253-1.566-3.567
			c0.257-1.312,1.374-1.845,2.498-1.19C91.665-51.207,92.366-49.611,92.112-48.297z"/>
		<path fill="#FFFFFF" d="M98.266-44.694c-0.261,1.312-1.378,1.845-2.502,1.192c-1.123-0.656-1.821-2.256-1.567-3.569
			c0.257-1.312,1.377-1.846,2.502-1.191C97.821-47.604,98.52-46.011,98.266-44.694z"/>
		<path fill="#FFFFFF" d="M104.422-41.095c-0.257,1.313-1.374,1.846-2.497,1.191c-1.125-0.655-1.823-2.253-1.569-3.566
			c0.259-1.315,1.376-1.847,2.5-1.192C103.975-44.001,104.683-42.405,104.422-41.095z"/>
	</g>
</g>
<path fill="#FFFFFF" d="M134.724,118.272L98.449,97.056c-1.055-0.619-0.925-1.697,0.293-2.414l21.893-12.807
	c1.219-0.715,3.063-0.787,4.119-0.176l36.275,21.221c1.055,0.615,0.925,1.693-0.293,2.408l-21.896,12.805
	C137.623,118.813,135.775,118.892,134.724,118.272z"/>
<g>
	<g>
		<polygon opacity="0.5" fill="#771818" enable-background="new    " points="94.147,181.476 82.153,174.456 94.147,167.435 
			106.151,174.456 		"/>
		<polygon fill="#771818" points="106.151,165.54 94.147,172.56 94.147,158.524 106.151,151.501 		"/>
		<polygon fill="#E96B56" points="94.147,158.524 82.153,151.501 94.147,144.481 106.151,151.501 		"/>
		<polygon fill="#CC5858" points="94.147,172.56 82.153,165.54 82.153,151.501 94.147,158.524 		"/>
	</g>
	<polygon fill="#FFFFFF" points="89.823,164.978 86.473,163.013 86.473,159.085 89.823,161.052 	"/>
</g>
<path opacity="0.5" fill="#771818" enable-background="new    " d="M174.494,134.337l-52.32-30.609
	c-1.173-0.691-1.173-2.402,0-3.096l49.751-29.102l55.66,32.566c1.176,0.691,1.176,2.406,0,3.096l-46.405,27.146
	C179.112,135.544,176.561,135.544,174.494,134.337z"/>
<g>
	<g>
		<path fill="#911D1D" d="M172.918,52.224c0.006-3.37-2.337-4.741-5.213-3.055l-48.942,28.565c-0.791,0.463-1.434,1.59-1.434,2.512
			c0,0.924,0.641,1.301,1.434,0.84l48.942-28.568c1.297-0.754,2.352-0.139,2.352,1.381l-0.006,5.551
			c0.945-0.063,1.903-0.063,2.867-0.051V52.224z"/>
		<path fill="#771818" d="M118.751,91.06l48.936-18.066c2.879-1.682,5.228-5.781,5.228-9.152l0.006-4.441
			c-0.967-0.014-1.916-0.014-2.87,0.055l-0.006,6.063c0,1.518-1.062,3.367-2.357,4.127l-48.936,18.068
			c-0.791,0.463-1.434,1.584-1.434,2.508C117.317,91.142,117.955,91.524,118.751,91.06z"/>
	</g>
	<polygon fill="#911D1D" points="117.689,91.128 177.216,126.034 227.614,95.573 231.609,89.528 231.196,91.671 230.121,86.062 
		136.567,89.673 120.084,88.601 	"/>
	<polygon fill="#E85858" points="119.657,80.599 119.648,88.021 177.179,121.747 178.737,114.671 	"/>
	<polygon fill="#CC5858" points="230.869,83.673 171.438,48.831 117.851,80.411 117.738,81.187 177.264,116.069 	"/>
	<g>
		<path fill="#FFFFFF" d="M211.922,101.563l13.979-8.396c1.181-0.844,2.102-2.533,2.102-3.943l0.01-1.117
			c0-0.9-0.37-1.488-0.942-1.648l-27.507,15.504l-22.401,12.277l0.026,7.508L211.922,101.563z"/>
	</g>
	<path fill="#771818" d="M179.163,114.919L120.11,80.304l-1.255-0.732l-1.144-0.672c-0.231,0.434-0.38,0.91-0.38,1.35
		c0,0.455,0.158,0.777,0.406,0.928l0,0l0.009,0.006h0.006l59.51,34.887L179.163,114.919z"/>
	<polygon fill="#FFFFFF" points="176.47,125.595 177.216,126.034 177.351,125.792 176.888,125.419 	"/>
	<polygon fill="#FFFFFF" points="176.488,115.622 177.252,116.069 177.057,115.647 	"/>
	<g>
		<path fill="#771818" d="M178.288,112.626l48.941-28.564c2.88-1.688,5.218-0.314,5.212,3.053l-0.012,1.115
			c-0.006,3.369-2.344,7.477-5.228,9.16l-48.939,28.568c-0.787,0.463-1.429,0.086-1.429-0.842c0-0.93,0.642-2.049,1.429-2.514
			l48.939-28.564c1.297-0.758,2.355-2.607,2.361-4.129l0.012-1.113c0-1.518-1.055-2.139-2.352-1.381l-48.941,28.568
			c-0.788,0.463-1.431,0.086-1.431-0.842C176.857,114.214,177.5,113.091,178.288,112.626z"/>
	</g>
	<g>
		<path fill="#FFFFFF" d="M176.834,125.116c0-0.93,0.642-2.049,1.429-2.514l48.939-28.564c1.297-0.758,2.355-2.607,2.361-4.129
			l0.012-1.113c0-0.996-0.452-1.605-1.124-1.688c0.215,0.295,0.342,0.709,0.342,1.229l-0.012,1.119c0,1.516-1.063,3.365-2.36,4.125
			l-48.939,28.568c-0.788,0.459-1.433,1.586-1.433,2.508c0,0.703,0.365,1.084,0.891,1.025
			C176.876,125.532,176.834,125.337,176.834,125.116z"/>
		<path fill="#FFFFFF" d="M176.857,115.142c0-0.928,0.643-2.047,1.431-2.51l48.941-28.564c1.239-0.727,2.377-0.881,3.273-0.559
			c-0.961-0.828-2.422-0.865-4.058,0.096l-48.939,28.57c-0.794,0.457-1.437,1.586-1.437,2.504c0,0.705,0.369,1.088,0.892,1.029
			C176.894,115.56,176.857,115.366,176.857,115.142z"/>
	</g>
	<polygon fill="#FFFFFF" points="154.225,84.362 181.222,68.599 204.64,82.325 177.639,98.085 	"/>
</g>
<g>
	<g>
		<path opacity="0.5" fill="#771818" enable-background="new    " d="M251.297,200.466l-36.496-21.348
			c-1.339-0.781-1.17-2.148,0.37-3.053l38.688-22.686c1.546-0.902,3.88-1.006,5.221-0.217l36.493,21.346
			c1.341,0.779,1.171,2.146-0.369,3.051l-38.689,22.686C254.97,201.147,252.635,201.245,251.297,200.466z"/>
		<g>
			
				<linearGradient id="SVGID_1_" gradientUnits="userSpaceOnUse" x1="3895.7266" y1="2639.4102" x2="3895.7266" y2="2151.7559" gradientTransform="matrix(0.1575 0.0909 0 0.2099 -336.6864 -759.572)">
				<stop  offset="0" style="stop-color:#2D0979"/>
				<stop  offset="1" style="stop-color:#5B04F7"/>
			</linearGradient>
			<path fill="url(#SVGID_1_)" d="M296.405,160.306l-39.023-22.834c-1.521-0.881-2.751-3.268-2.751-5.314V37.53
				c0-2.048,1.226-2.996,2.751-2.105l39.023,22.83c1.515,0.885,2.745,3.271,2.745,5.318v94.623
				C299.15,160.249,297.92,161.192,296.405,160.306z"/>
			<path fill="#A83939" d="M296.405,58.255l-39.023-22.83c-0.678-0.397-1.3-0.427-1.776-0.157l0,0l-44.557,26.04l2.101,7.867
				l40.623,117.23l44.372-25.93c0.006-0.01,0.019-0.01,0.024-0.016l0.075-0.043v-0.004c0.555-0.359,0.909-1.131,0.909-2.223V63.581
				C299.15,61.522,297.92,59.14,296.405,58.255z"/>
			<path fill="#E96B56" d="M296.405,58.255l-39.023-22.83c-0.678-0.397-1.3-0.427-1.776-0.157l0,0l-44.557,26.04l2.101,7.867
				l11.174,32.238l2.109,1.232l71.958-42.096C297.883,59.562,297.181,58.71,296.405,58.255z"/>
			<path fill="#CC5858" d="M251.885,186.323l-39.023-22.826c-1.521-0.887-2.752-3.268-2.752-5.316V63.554
				c0-2.049,1.23-2.996,2.752-2.107l39.023,22.834c1.513,0.885,2.746,3.268,2.746,5.318v94.623
				C254.631,186.274,253.4,187.212,251.885,186.323z"/>
			
				<linearGradient id="SVGID_2_" gradientUnits="userSpaceOnUse" x1="3481.4873" y1="2672.0771" x2="3723.2393" y2="2617.2959" gradientTransform="matrix(0.1575 0.0909 0 0.2099 -336.6864 -759.572)">
				<stop  offset="0" style="stop-color:#3919BB"/>
				<stop  offset="1" style="stop-color:#6507FA"/>
			</linearGradient>
			<path fill="url(#SVGID_2_)" d="M249.43,180.626l-34.112-19.959c-1.328-0.775-2.407-2.857-2.407-4.652V68.146
				c0-1.795,1.079-2.613,2.407-1.838l34.112,19.957c1.328,0.775,2.401,2.863,2.401,4.65v87.877
				C251.834,180.579,250.758,181.403,249.43,180.626z"/>
			
				<linearGradient id="SVGID_3_" gradientUnits="userSpaceOnUse" x1="3481.4873" y1="2672.0771" x2="3723.2393" y2="2617.2959" gradientTransform="matrix(0.1575 0.0909 0 0.2099 -336.6864 -759.572)">
				<stop  offset="0" style="stop-color:#3919BB"/>
				<stop  offset="1" style="stop-color:#6507FA"/>
			</linearGradient>
			<path fill="url(#SVGID_3_)" d="M249.43,180.626l-34.112-19.959c-1.328-0.775-2.407-2.857-2.407-4.652V68.146
				c0-1.795,1.079-2.613,2.407-1.838l34.112,19.957c1.328,0.775,2.401,2.863,2.401,4.65v87.877
				C251.834,180.579,250.758,181.403,249.43,180.626z"/>
			<path fill="#771818" d="M249.43,180.626l-34.112-19.959c-1.328-0.775-2.407-2.857-2.407-4.652V68.146
				c0-1.795,1.079-2.613,2.407-1.838l34.112,19.957c1.328,0.775,2.401,2.863,2.401,4.65v87.877
				C251.834,180.579,250.758,181.403,249.43,180.626z"/>
			<path fill="#A83939" d="M250.541,179.966l-34.115-19.959c-1.327-0.775-2.4-2.863-2.4-4.65V67.479c0-0.611,0.131-1.104,0.34-1.467
				c-0.852-0.006-1.461,0.797-1.461,2.133v87.875c0,1.795,1.078,3.877,2.406,4.656l34.113,19.955c0.869,0.516,1.633,0.33,2.06-0.373
				C251.192,180.255,250.877,180.159,250.541,179.966z"/>
		</g>
	</g>
</g>
<g>
	<g>
		<path fill="#771818" d="M249.43,140.28l-12.68-7.42l-20.225,11.834l35.306,20.656v-20.416
			C251.834,143.142,250.758,141.06,249.43,140.28z"/>
		<path fill="#771818" d="M249.43,122.276l-12.68-7.418l-20.225,11.834l35.306,20.656v-20.416
			C251.834,125.132,250.758,123.054,249.43,122.276z"/>
		<path fill="#771818" d="M249.43,104.267l-12.68-7.418l-20.225,11.832l35.306,20.658v-20.418
			C251.834,107.128,250.758,105.044,249.43,104.267z"/>
		<path fill="#771818" d="M249.43,86.259l-12.68-7.426l-20.225,11.838l35.306,20.656V90.909
			C251.834,89.12,250.758,87.032,249.43,86.259z"/>
		<path fill="#771818" d="M249.43,86.259l-28.069-16.42l-4.835,2.822l35.306,20.656v-2.408
			C251.834,89.12,250.758,87.032,249.43,86.259z"/>
	</g>
	<polygon fill="#CC5858" points="251.834,93.323 216.529,72.667 216.529,84.046 251.834,104.698 	"/>
	<polygon fill="#CC5858" points="251.834,111.327 216.529,90.671 216.529,102.056 251.834,122.71 	"/>
	<polygon fill="#CC5858" points="251.834,129.331 216.529,108.681 216.529,120.063 251.834,140.712 	"/>
	<polygon fill="#CC5858" points="251.834,147.345 216.529,126.692 216.529,138.067 251.834,158.724 	"/>
	<polygon fill="#CC5858" points="251.834,165.351 216.529,144.694 216.529,156.077 251.834,176.737 	"/>
</g>
<g>
	<path fill="#771818" d="M248.72,100.642l-26.596-15.559c-0.746-0.438-1.358-1.615-1.358-2.627v-3.047
		c0-1.018,0.606-1.488,1.358-1.039l26.596,15.559c0.75,0.436,1.358,1.615,1.358,2.631v3.049
		C250.078,100.62,249.47,101.087,248.72,100.642z"/>
	<path opacity="0.3" fill="#3D0404" enable-background="new    " d="M223.469,84.507c-0.751-0.439-1.36-1.619-1.36-2.635v-3.043
		c0-0.168,0.021-0.305,0.052-0.439l-0.036-0.016c-0.746-0.439-1.358,0.027-1.358,1.035v3.047c0,1.016,0.606,2.197,1.358,2.631
		l26.596,15.561c0.63,0.369,1.155,0.092,1.311-0.605L223.469,84.507z"/>
	<path fill="#FFFFFF" d="M240.375,92.288l-16-9.361c-0.27-0.15-0.479-0.57-0.479-0.93l0,0c0-0.357,0.21-0.52,0.479-0.369l16,9.367
		c0.267,0.148,0.477,0.566,0.477,0.926l0,0C240.852,92.282,240.642,92.444,240.375,92.288z"/>
</g>
<g>
	<path fill="#771818" d="M248.72,118.54l-26.596-15.557c-0.746-0.436-1.358-1.621-1.358-2.633v-3.045
		c0-1.014,0.606-1.486,1.358-1.041l26.596,15.561c0.75,0.439,1.358,1.619,1.358,2.631v3.049
		C250.078,118.515,249.47,118.978,248.72,118.54z"/>
	<path opacity="0.3" fill="#3D0404" enable-background="new    " d="M223.469,102.403c-0.751-0.441-1.36-1.617-1.36-2.633v-3.047
		c0-0.164,0.021-0.309,0.052-0.439l-0.036-0.02c-0.746-0.439-1.358,0.035-1.358,1.041v3.045c0,1.012,0.606,2.197,1.358,2.633
		l26.596,15.557c0.63,0.371,1.155,0.092,1.311-0.604L223.469,102.403z"/>
	<path fill="#FFFFFF" d="M240.375,110.187l-16-9.361c-0.27-0.152-0.479-0.564-0.479-0.93l0,0c0-0.357,0.21-0.52,0.479-0.367
		l16,9.363c0.267,0.152,0.477,0.566,0.477,0.928l0,0C240.852,110.175,240.642,110.341,240.375,110.187z"/>
</g>
<g>
	<path fill="#771818" d="M248.72,136.601l-26.596-15.553c-0.746-0.439-1.358-1.619-1.358-2.635v-3.047
		c0-1.014,0.606-1.482,1.358-1.041l26.596,15.563c0.75,0.439,1.358,1.617,1.358,2.631v3.047
		C250.078,136.581,249.47,137.046,248.72,136.601z"/>
	<path opacity="0.3" fill="#3D0404" enable-background="new    " d="M223.469,120.464c-0.751-0.438-1.36-1.617-1.36-2.629v-3.049
		c0-0.164,0.021-0.305,0.052-0.441l-0.036-0.02c-0.746-0.432-1.358,0.033-1.358,1.041v3.047c0,1.016,0.606,2.195,1.358,2.635
		l26.596,15.553c0.63,0.369,1.155,0.098,1.311-0.598L223.469,120.464z"/>
	<path fill="#FFD7D7" d="M240.375,128.247l-16-9.363c-0.27-0.15-0.479-0.564-0.479-0.928l0,0c0-0.354,0.21-0.518,0.479-0.367
		l16,9.367c0.267,0.15,0.477,0.563,0.477,0.928l0,0C240.852,128.235,240.642,128.407,240.375,128.247z"/>
</g>
<g>
	<path fill="#771818" d="M248.72,154.839l-26.596-15.561c-0.746-0.439-1.358-1.619-1.358-2.635v-3.049
		c0-1.012,0.606-1.479,1.358-1.031l26.596,15.553c0.75,0.441,1.358,1.617,1.358,2.635v3.045
		C250.078,154.806,249.47,155.267,248.72,154.839z"/>
	<path opacity="0.3" fill="#06033E" enable-background="new    " d="M223.469,138.694c-0.751-0.438-1.36-1.617-1.36-2.633v-3.049
		c0-0.162,0.021-0.301,0.052-0.439l-0.036-0.016c-0.746-0.436-1.358,0.027-1.358,1.037v3.049c0,1.016,0.606,2.195,1.358,2.631
		l26.596,15.564c0.63,0.361,1.155,0.088,1.311-0.607L223.469,138.694z"/>
	<path fill="#CC5858" d="M240.375,146.483l-16-9.365c-0.27-0.154-0.479-0.568-0.479-0.928l0,0c0-0.355,0.21-0.521,0.479-0.367
		l16,9.361c0.267,0.15,0.477,0.564,0.477,0.928l0,0C240.852,146.472,240.642,146.634,240.375,146.483z"/>
</g>
<g>
	<path fill="#771818" d="M248.72,172.702l-26.596-15.559c-0.746-0.438-1.358-1.617-1.358-2.629v-3.045
		c0-1.016,0.606-1.488,1.358-1.041l26.596,15.559c0.75,0.441,1.358,1.621,1.358,2.633v3.045
		C250.078,172.679,249.47,173.142,248.72,172.702z"/>
	<path opacity="0.3" fill="#06033E" enable-background="new    " d="M223.469,156.562c-0.751-0.438-1.36-1.615-1.36-2.629v-3.047
		c0-0.164,0.021-0.309,0.052-0.439l-0.036-0.018c-0.746-0.439-1.358,0.031-1.358,1.041v3.045c0,1.012,0.606,2.197,1.358,2.629
		l26.596,15.559c0.63,0.371,1.155,0.094,1.311-0.602L223.469,156.562z"/>
	<path fill="#FFD7D7" d="M240.375,164.349l-16-9.361c-0.27-0.148-0.479-0.564-0.479-0.93l0,0c0-0.354,0.21-0.518,0.479-0.365
		l16,9.365c0.267,0.152,0.477,0.568,0.477,0.93l0,0C240.852,164.337,240.642,164.499,240.375,164.349z"/>
</g>
<polygon opacity="0.5" fill="#771818" enable-background="new    " points="216.529,72.667 219.305,74.29 219.305,85.673 
	216.529,84.046 "/>
<polygon opacity="0.5" fill="#771818" enable-background="new    " points="216.529,90.671 219.305,92.302 219.305,103.677 
	216.529,102.056 "/>
<polygon opacity="0.5" fill="#771818" enable-background="new    " points="216.529,108.681 219.305,110.306 219.305,121.688 
	216.529,120.063 "/>
<polygon opacity="0.5" fill="#771818" enable-background="new    " points="216.529,126.692 219.305,128.315 219.305,139.698 
	216.529,138.067 "/>
<polygon opacity="0.5" fill="#771818" enable-background="new    " points="216.529,144.694 219.305,146.319 219.305,157.702 
	216.529,156.077 "/>
<path fill="#FFD7D7" d="M243.526,93.419c0,0.357-0.255,0.51-0.564,0.324c-0.313-0.182-0.567-0.625-0.567-0.984
	c0-0.363,0.255-0.514,0.567-0.328C243.274,92.608,243.526,93.054,243.526,93.419z"/>
<path fill="#CC5858" d="M245.914,94.81c0,0.363-0.255,0.514-0.564,0.326c-0.309-0.178-0.563-0.621-0.563-0.984
	c0-0.367,0.255-0.514,0.563-0.324C245.659,94.007,245.914,94.45,245.914,94.81z"/>
<path fill="#FFD7D7" d="M248.303,96.208c0,0.361-0.255,0.512-0.564,0.326c-0.315-0.182-0.567-0.623-0.567-0.988
	c0-0.361,0.252-0.51,0.567-0.328C248.048,95.399,248.303,95.845,248.303,96.208z"/>
<path fill="#CC5858" d="M243.526,111.415c0,0.357-0.255,0.508-0.564,0.328c-0.313-0.184-0.567-0.631-0.567-0.988
	c0-0.363,0.255-0.514,0.567-0.33C243.274,110.606,243.526,111.052,243.526,111.415z"/>
<path fill="#FFD7D7" d="M245.914,112.806c0,0.367-0.255,0.516-0.564,0.33c-0.309-0.176-0.563-0.619-0.563-0.986
	c0-0.365,0.255-0.516,0.563-0.326C245.659,112.005,245.914,112.45,245.914,112.806z"/>
<path fill="#FFFFFF" d="M248.303,114.206c0,0.357-0.255,0.508-0.564,0.326c-0.315-0.182-0.567-0.627-0.567-0.99
	c0-0.361,0.252-0.512,0.567-0.33C248.048,113.397,248.303,113.843,248.303,114.206z"/>
<path fill="#FFFFFF" d="M243.526,129.546c0,0.361-0.255,0.512-0.564,0.33c-0.313-0.18-0.567-0.623-0.567-0.99
	c0-0.361,0.255-0.514,0.567-0.324C243.274,128.743,243.526,129.181,243.526,129.546z"/>
<path fill="#CC5858" d="M245.914,130.937c0,0.363-0.255,0.514-0.564,0.332c-0.309-0.18-0.563-0.625-0.563-0.986
	c0-0.365,0.255-0.514,0.563-0.33C245.659,130.134,245.914,130.579,245.914,130.937z"/>
<path fill="#FFFFFF" d="M248.303,132.343c0,0.363-0.255,0.514-0.564,0.324c-0.315-0.182-0.567-0.619-0.567-0.984
	c0-0.361,0.252-0.514,0.567-0.326C248.048,131.53,248.303,131.972,248.303,132.343z"/>
<path fill="#FFFFFF" d="M243.526,147.417c0,0.357-0.255,0.51-0.564,0.326c-0.313-0.182-0.567-0.627-0.567-0.986
	c0-0.365,0.255-0.516,0.567-0.33C243.274,146.608,243.526,147.056,243.526,147.417z"/>
<path fill="#FFD7D7" d="M245.914,148.815c0,0.365-0.255,0.516-0.564,0.328c-0.309-0.184-0.563-0.623-0.563-0.984
	c0-0.367,0.255-0.516,0.563-0.328C245.659,148.007,245.914,148.446,245.914,148.815z"/>
<path fill="#FFD7D7" d="M248.303,150.21c0,0.363-0.255,0.512-0.564,0.33c-0.315-0.182-0.567-0.627-0.567-0.99
	c0-0.361,0.252-0.512,0.567-0.326C248.048,149.407,248.303,149.845,248.303,150.21z"/>
<path fill="#FFFFFF" d="M243.526,165.528c0,0.363-0.255,0.514-0.564,0.326c-0.313-0.174-0.567-0.619-0.567-0.984
	c0-0.363,0.255-0.514,0.567-0.326C243.274,164.726,243.526,165.163,243.526,165.528z"/>
<path fill="#CC5858" d="M245.914,166.927c0,0.357-0.255,0.516-0.564,0.326c-0.309-0.182-0.563-0.625-0.563-0.986
	c0-0.365,0.255-0.514,0.563-0.33C245.659,166.118,245.914,166.563,245.914,166.927z"/>
<path fill="#FFD7D7" d="M248.303,168.325c0,0.363-0.255,0.514-0.564,0.326c-0.315-0.176-0.567-0.617-0.567-0.984
	c0-0.363,0.252-0.514,0.567-0.326C248.048,167.521,248.303,167.964,248.303,168.325z"/>
<g>
	<path fill="#771818" d="M260.509,173.532V92.96l0.165-0.094l33.233-19.441v80.578l-0.164,0.092L260.509,173.532z M261.164,93.343
		v79.033l32.089-18.771v-79.02L261.164,93.343z"/>
</g>
<path fill="#771818" d="M285.274,109.679l-14.902,8.717c-0.994,0.582-1.807-0.037-1.807-1.393v-8.369
	c0-1.354,0.813-2.926,1.807-3.51l14.902-8.715c1.001-0.588,1.813,0.037,1.813,1.391v8.373
	C287.087,107.521,286.275,109.089,285.274,109.679z"/>
<path fill="#CC5858" d="M285.639,96.245c0.08,0.236,0.134,0.516,0.134,0.842v8.371c0,1.355-0.812,2.926-1.813,3.512l-14.903,8.717
	c-0.122,0.07-0.242,0.125-0.359,0.162c0.274,0.742,0.921,0.998,1.675,0.549l14.902-8.717c1.001-0.584,1.813-2.15,1.813-3.508v-8.367
	C287.087,96.616,286.461,95.989,285.639,96.245z"/>
<g>
	<g>
		<path fill="#FFFFFF" d="M282.548,104.636c0.279-0.162,0.497-0.029,0.497,0.295v1.906c0,0.322-0.224,0.713-0.497,0.875
			c-0.272,0.168-0.493,0.029-0.493-0.291v-1.914C282.055,105.188,282.275,104.8,282.548,104.636z"/>
		<path fill="#FFD7D7" d="M280.411,106.122c0.276-0.162,0.497-0.025,0.497,0.295v1.67c0,0.326-0.227,0.717-0.497,0.877
			c-0.275,0.162-0.495,0.031-0.495-0.295v-1.67C279.916,106.681,280.136,106.286,280.411,106.122z"/>
		<path fill="#CC5858" d="M278.275,105.507c0.272-0.162,0.498-0.025,0.498,0.297v3.529c0,0.326-0.231,0.713-0.498,0.879
			c-0.279,0.164-0.499,0.029-0.499-0.295v-3.533C277.776,106.065,278.002,105.675,278.275,105.507z"/>
		<path fill="#FFD7D7" d="M276.143,104.731c0.275-0.164,0.497-0.033,0.497,0.287v5.563c0,0.328-0.229,0.715-0.497,0.873
			c-0.28,0.17-0.498,0.037-0.498-0.289v-5.563C275.639,105.284,275.862,104.894,276.143,104.731z"/>
		<path fill="#FFD7D7" d="M274.003,106.562c0.278-0.162,0.497-0.023,0.497,0.295v4.984c0,0.32-0.225,0.707-0.497,0.867
			c-0.28,0.168-0.498,0.031-0.498-0.289v-4.979C273.499,107.114,273.729,106.726,274.003,106.562z"/>
		<path fill="#FFFFFF" d="M271.863,110.089c0.278-0.166,0.496-0.027,0.496,0.291v2.703c0,0.32-0.224,0.717-0.496,0.875
			c-0.274,0.166-0.498,0.029-0.498-0.293v-2.701C271.365,110.644,271.589,110.253,271.863,110.089z"/>
	</g>
	<path fill="#CC5858" d="M282.061,103.671c0,0.316,0.221,0.443,0.487,0.289c0.273-0.156,0.491-0.547,0.491-0.859
		c0-0.316-0.218-0.445-0.491-0.289C282.281,102.968,282.061,103.356,282.061,103.671z"/>
	<path fill="#FFFFFF" d="M282.061,101.876c0,0.32,0.221,0.447,0.487,0.289c0.273-0.156,0.491-0.545,0.491-0.861
		c0-0.313-0.218-0.441-0.491-0.283C282.281,101.181,282.061,101.563,282.061,101.876z"/>
</g>
<g>
	<path opacity="0.5" fill="#771818" enable-background="new    " d="M22.217,79.765L0.841,67.261
		c-1.307-0.764-1.146-2.107,0.366-2.992L21.848,52.19c1.51-0.883,3.808-0.98,5.117-0.213l21.374,12.504
		c1.309,0.768,1.144,2.109-0.367,2.998L27.332,79.552C25.816,80.437,23.526,80.53,22.217,79.765z"/>
	<path fill="#A83939" d="M49.216,52.493L49.216,52.493v-7.471l-16.537-0.014l-5.717-3.346c-1.31-0.764-3.607-0.672-5.117,0.215
		l-5.331,3.121l-16.551-0.008v7.684c-0.041,0.52,0.248,1.021,0.878,1.389l21.376,12.506c1.306,0.766,3.606,0.672,5.118-0.215
		l20.64-12.074C48.844,53.771,49.266,53.112,49.216,52.493z"/>
	<path fill="#A83939" d="M24.592,41.157c-0.959,0.021-1.959,0.266-2.741,0.727l-5.331,3.119l-16.553-0.012v7.684
		c-0.041,0.52,0.247,1.021,0.877,1.389l21.376,12.506c0.633,0.365,1.489,0.535,2.374,0.516V41.157H24.592z"/>
	<path fill="#CC5858" d="M1.837,44.999h-1.875v7.682c-0.041,0.521,0.248,1.023,0.878,1.389l0.993,0.586v-9.657H1.837z"/>
	<path fill="#CC5858" d="M22.546,66.737c1.132,0.492,2.771,0.461,4.09-0.047v-8.732h-4.09V66.737z"/>
	<path fill="#E96B56" d="M22.217,58.913L0.841,46.409c-1.307-0.764-1.146-2.107,0.366-2.994L21.848,31.34
		c1.51-0.887,3.808-0.979,5.117-0.216l21.374,12.507c1.309,0.766,1.144,2.107-0.367,2.996L27.332,58.7
		C25.816,59.585,23.526,59.679,22.217,58.913z"/>
	<path fill="#FFFFFF" d="M47.969,45.157L27.329,57.231c-1.512,0.887-3.808,0.98-5.117,0.215L0.841,44.938
		c-0.291-0.17-0.51-0.375-0.652-0.592c-0.453,0.736-0.249,1.531,0.652,2.063l21.376,12.504c1.306,0.766,3.606,0.672,5.118-0.213
		l20.64-12.073c1.179-0.691,1.536-1.654,1.021-2.404C48.789,44.553,48.449,44.881,47.969,45.157z"/>
	<g>
		<path fill="#D4ECFF" d="M41.356,54.466c0,0.561-0.385,1.236-0.864,1.52c-0.477,0.281-0.863,0.053-0.863-0.508
			c0-0.559,0.386-1.236,0.863-1.518C40.974,53.685,41.356,53.903,41.356,54.466z"/>
		<path fill="#D4ECFF" d="M44.134,52.843c0,0.559-0.385,1.236-0.863,1.52c-0.472,0.279-0.863,0.049-0.863-0.504
			c0-0.557,0.384-1.234,0.863-1.516C43.749,52.054,44.134,52.282,44.134,52.843z"/>
		<path fill="#D4ECFF" d="M46.915,51.214c0,0.561-0.385,1.238-0.864,1.518c-0.474,0.281-0.862,0.057-0.862-0.504
			c0-0.557,0.386-1.234,0.862-1.516C46.526,50.432,46.915,50.661,46.915,51.214z"/>
	</g>
	<g>
		<path fill="#CC5858" d="M23.48,51.163l-10.005-5.85c-0.615-0.361-0.538-0.984,0.168-1.402l9.661-5.652
			c0.71-0.412,1.783-0.461,2.393-0.1l10.004,5.852c0.616,0.361,0.538,0.988-0.17,1.4l-9.659,5.653
			C25.168,51.478,24.098,51.524,23.48,51.163z"/>
		<path fill="#FFD7D7" d="M24.439,46.264l-1.384-0.813c-0.085-0.051-0.072-0.135,0.021-0.191l1.339-0.783
			c0.095-0.063,0.248-0.064,0.332-0.014l1.384,0.813c0.085,0.051,0.071,0.135-0.021,0.193l-1.338,0.783
			C24.672,46.303,24.526,46.309,24.439,46.264z"/>
		<path fill="#A83939" d="M13.479,45.309l0.027,0.018c0.047-0.035,0.089-0.066,0.14-0.1l9.661-5.648
			c0.71-0.418,1.783-0.465,2.393-0.102l9.974,5.83c0.565-0.406,0.599-0.969,0.027-1.299l-9.999-5.852
			c-0.615-0.361-1.688-0.314-2.392,0.1l-9.661,5.65C12.94,44.325,12.866,44.952,13.479,45.309z"/>
	</g>
</g>
<g>
	<polygon fill="#CC5858" points="291.483,-60.754 291.076,-62.347 295.714,-63.53 296.119,-61.939 	"/>
	<polygon fill="#CC5858" points="289.119,-58.456 288.707,-60.049 293.343,-61.232 293.755,-59.641 	"/>
	<polygon fill="#CC5858" points="286.748,-56.155 286.343,-57.749 290.979,-58.935 291.386,-57.338 	"/>
	<polygon fill="#CC5858" points="284.385,-53.86 283.974,-55.451 288.609,-56.636 289.022,-55.04 	"/>
</g>
<g>
	<path fill="#CC5858" d="M52.567-89.259l0.959-1.621c0,0,0.8,0.44,1.661,0.171c0.682-0.216,1.282-0.827,1.766-1.835
		c1.709-3.523,4.863-3.793,6.297-3.443l-0.453,1.82l0.227-0.912l-0.221,0.912c-0.276-0.064-2.719-0.527-4.152,2.435
		c-0.727,1.499-1.716,2.453-2.932,2.819C54.086-88.416,52.721-89.173,52.567-89.259z"/>
</g>
<path fill="#FFD7D7" d="M28.253-33.54c-4.764,0-8.641-3.86-8.641-8.599c0-4.739,3.876-8.599,8.641-8.599
	c4.765,0,8.64,3.86,8.64,8.599C36.887-37.396,33.018-33.54,28.253-33.54z M28.253-48.866c-3.723,0-6.752,3.02-6.752,6.728
	c0,3.707,3.028,6.727,6.752,6.727c3.725,0,6.754-3.02,6.754-6.727C35.004-45.843,31.975-48.866,28.253-48.866z"/>
<path fill="#CC5858" d="M17.465,147.435l-4.159-8.42l8.455-4.141l4.158,8.42L17.465,147.435z M15.831,139.866l2.496,5.055
	l5.073-2.482l-2.495-5.053L15.831,139.866z"/>
<polygon fill="#CC5858" points="237.017,-95.117 233.132,-93.213 231.22,-97.084 235.106,-98.989 "/>
<g>
	<polygon fill="#FFD7D7" points="132.104,-64.729 130.773,-66.057 137.104,-72.362 138.436,-71.036 	"/>
	<polygon fill="#FFD7D7" points="137.104,-64.729 130.773,-71.036 132.104,-72.362 138.436,-66.057 	"/>
</g>
<path fill="#FFD7D7" d="M45.837,11.237c0,2.447-1.993,4.424-4.448,4.424s-4.446-1.981-4.446-4.424c0-2.444,1.991-4.423,4.446-4.423
	S45.837,8.79,45.837,11.237z"/>
<path fill="#FFD7D7" d="M127.479,176.751c0,1.42-1.158,2.574-2.586,2.574s-2.585-1.148-2.585-2.574c0-1.428,1.158-2.574,2.585-2.574
	S127.479,175.329,127.479,176.751z"/>
<g>
	<polygon fill="#FFD7D7" points="173.294,188.63 171.967,187.304 178.294,180.999 179.628,182.325 	"/>
	<polygon fill="#FFD7D7" points="178.294,188.63 171.967,182.325 173.294,180.999 179.628,187.304 	"/>
</g>
<g>
	<g>
		<path fill="#CC5858" d="M75.713,126.228c0,0-2.861-1.492-4.614,0.736c-1.753,2.223-4.268,7.463-4.345,11.016
			c-0.079,3.543,2.716,3.301,4.366,2.471c1.661-0.84,6.502-8.107,6.793-9.533c0.292-1.422-0.345-3.354-0.813-3.725
			C76.631,126.802,75.713,126.228,75.713,126.228z"/>
		<path fill="#FFD7D7" d="M76.334,125.519l0.13,3.063c0.028,0.656-0.289,1.27-0.834,1.598c-0.503,0.287-1.227,0.518-2.207,0.352
			c-2.158-0.352-2.347-0.994-2.502-4.063S76.334,125.519,76.334,125.519z"/>
		<g>
			<path fill="#CC5858" d="M65.239,120.333c0,0-2.861-1.494-4.615,0.734c-1.753,2.225-4.267,7.461-4.344,11.014
				c-0.079,3.547,2.716,3.305,4.365,2.475c1.661-0.842,6.502-8.107,6.793-9.531c0.292-1.428-0.343-3.355-0.811-3.725
				C66.167,120.903,65.239,120.333,65.239,120.333z"/>
			<path fill="#FFD7D7" d="M65.869,119.622l0.13,3.064c0.027,0.654-0.29,1.27-0.835,1.594c-0.503,0.293-1.226,0.518-2.206,0.355
				c-2.154-0.355-2.346-1-2.5-4.066C60.299,117.511,65.869,119.622,65.869,119.622z"/>
			<path fill="#771818" d="M91.389,63.321c-0.848-14.247-14.922,2.096-14.922,2.096l-9.633,9.768l-8.671,9.861
				c-1.691,1.924-2.483,4.521-2.157,7.104l3.511,27.639c0.172,1.367,1.304,2.369,2.633,2.361c0.379-0.008,0.809-0.049,1.297-0.121
				c3.132-0.498,2.902-3.58,2.902-3.58l-0.646-25.854l18.214-11.359C83.921,81.239,92.235,77.577,91.389,63.321z"/>
		</g>
		<path fill="#771818" d="M101.863,68.757c-0.847-14.258-14.921,2.098-14.921,2.098l-9.633,9.764l-8.671,9.857
			c-1.691,1.932-2.483,4.527-2.154,7.105l3.511,27.641c0.173,1.365,1.304,2.365,2.634,2.354c0.378,0,0.808-0.035,1.299-0.107
			c3.131-0.504,2.9-3.588,2.9-3.588l-0.645-25.854l18.214-11.355C94.396,86.673,102.707,83.007,101.863,68.757z"/>
		<path fill="#CC5858" d="M93.539,22.999c10.67,4.577,10.456,11.103,10.456,11.103s-2.087,23.921-1.376,39.896
			c0.298,6.678-34.294,7.186-29.137-10.637c6.083-21.006,3.805-38.011,6.654-40.575C82.976,20.227,90.777,21.82,93.539,22.999z"/>
		<path fill="#FFC2B0" d="M96.968,28.784c-0.56,2.243-3.396,3.42-6.337,2.641c-2.946-0.784-4.875-3.235-4.317-5.479
			c0.559-2.245,3.398-3.419,6.336-2.641C95.591,24.087,97.527,26.545,96.968,28.784z"/>
		<path fill="#FFFFFF" d="M92.435,32.194c-0.627,0-1.276-0.08-1.931-0.258c-3.212-0.849-5.31-3.601-4.682-6.115
			c0.626-2.519,3.747-3.879,6.963-3.018c1.53,0.407,2.855,1.249,3.743,2.368c0.918,1.167,1.261,2.499,0.944,3.753
			C96.965,30.925,94.884,32.194,92.435,32.194z M90.824,23.597c-1.98,0-3.637,0.949-4.015,2.484
			c-0.485,1.956,1.288,4.13,3.953,4.834c2.663,0.709,5.232-0.304,5.716-2.259c0.228-0.918-0.04-1.919-0.75-2.819
			c-0.751-0.942-1.884-1.663-3.207-2.013C91.947,23.666,91.369,23.597,90.824,23.597z"/>
		<path fill="#FFC2B0" d="M89.263,22.503c0,0,0.089,0.445-0.091,3.94c-0.056,1.099,3.663,2.125,4.628,1.133
			c0.965-0.991,0.575-2.03,0.806-5.771C94.831,18.061,89.263,22.503,89.263,22.503z"/>
		<path fill="#EA9C92" d="M94.597,21.805c0,0-0.913,3.469-5.431,4.801l0.065-3.152L94.597,21.805z"/>
		<path fill="#FFC2B0" d="M97.459,12.987c1.135,4.544-1.507,9.176-5.898,10.352c-4.392,1.175-8.869-1.558-10.004-6.099
			c-1.134-4.545,1.505-9.178,5.896-10.354C91.845,5.714,96.325,8.444,97.459,12.987z"/>
		<path fill="#EA9C92" d="M91.401,15.428c0,0-4.522,2.004-7.65,2.026c-3.131,0.021-2.445-2.69-2.445-2.69l9.294-1.391L91.401,15.428
			z"/>
		<path fill="#771818" d="M82.813,15.953c0,0,3.939-1.726,7.393-1.008c0.813,0.171,1.561,0.618,2.087,1.286
			c0.169,0.215,0.387,0.413,0.631,0.472c0.615,0.147,1.614-2.487,2.807-2.543c1.19-0.059,1.985,0.812,1.011,2.427
			c-0.978,1.618-0.648,3.426-0.198,3.688c0.453,0.258,5.213-3.512,1.012-12.13C93.353-0.472,82.671,4.171,81.01,5.913
			c0,0-1.747,1.577-3.171,0.178C77.839,6.082,76.244,18.446,82.813,15.953z"/>
		<path fill="#FFC2B0" d="M98.008,51.583v6.459c0,0.74-0.298,1.447-0.829,1.943L84.344,72.093l1.455,2.309l16.947-12.719
			c0.793-0.598,1.304-1.504,1.406-2.504l1.146-11.282L98.008,51.583z"/>
		<path fill="#CC5858" d="M103.092,30.868c0,0,3.894,6.058,5.343,22.004c0,0-6.653,2.223-10.427,0.961
			C94.232,52.575,103.092,30.868,103.092,30.868z"/>
		<path fill="#A83939" d="M97.294,38.53c0,0-1.524,8.439-1.608,12.407c-0.021,1.092,0.621,2.074,1.608,2.447l0,0V38.53z"/>
	</g>
	<g>
		<path fill="#CC5858" d="M93.968,80.499l-2.84-0.383L72.817,69.175c-0.586-0.348-1.614-0.309-2.29,0.104l-12.979,7.746
			l-1.714-0.234v1.768l0,0c-0.01,0.236,0.117,0.455,0.393,0.625L76.98,91.573c0.586,0.348,1.613,0.314,2.289-0.094L93.4,83.04
			c0.385-0.229,0.571-0.52,0.558-0.799l0,0v-1.742H93.968z"/>
		<path fill="#396CAA" d="M80.21,73.589l-1.303-0.775H64.603l-7.054,4.215l-1.714-0.236v1.77l0,0
			c-0.01,0.234,0.117,0.459,0.393,0.623L76.98,91.581c0.311,0.184,0.744,0.256,1.179,0.225L80.21,73.589z"/>
		<path fill="#5793CE" d="M56.597,76.886l-0.763-0.102v1.768l0,0c-0.01,0.236,0.117,0.455,0.393,0.625l0.366,0.219v-2.51H56.597z"/>
		<path fill="#FFFFFF" d="M77.19,91.671c0.56,0.217,1.356,0.166,1.945-0.123v-3.006H77.19V91.671z"/>
		<path fill="#FFFFFF" d="M76.983,89.812L56.23,77.413c-0.586-0.348-0.515-0.959,0.164-1.367l14.131-8.434
			c0.676-0.4,1.704-0.449,2.29-0.1l20.755,12.396c0.586,0.348,0.516,0.959-0.164,1.367l-14.13,8.434
			C78.596,90.112,77.569,90.157,76.983,89.812z"/>
		<path fill="#E96B56" d="M76.631,87.931L59.378,77.62c-0.491-0.295-0.429-0.803,0.136-1.141l7.572-4.408
			c0.565-0.336,1.417-0.367,1.908-0.078l17.255,10.309c0.491,0.299,0.429,0.803-0.133,1.139l-7.572,4.408
			C77.975,88.185,77.122,88.22,76.631,87.931z"/>
	</g>
	<path fill="#FFC2B0" d="M71.328,67.198l-0.213,1.486c-0.184,1.26-0.151,2.539,0.096,3.801l0.253,1.305
		c0.147,0.736,0.708,1.309,1.421,1.441l0,0c0.559,0.107,1.084-0.305,1.146-0.885l0.346-3.164c0,0,0.782,1.061,1.164,1.061
		c0.377,0-0.423-3.164-1.281-4.967C73.403,65.481,71.328,67.198,71.328,67.198z"/>
	<path fill="#FFC2B0" d="M78.363,43.655l-2.228,4.561c-0.524,1.078-0.835,2.249-0.915,3.459l-0.965,15.596l-2.93-0.066
		l-1.331-17.516c-0.041-0.545-0.015-1.088,0.075-1.617l1.517-8.879L78.363,43.655z"/>
	<g>
		<path fill="#771818" d="M76.284,90.997l-1.738-2.352L56.249,77.685c-0.587-0.35-1.061-1.289-1.061-2.098l0.015-15.504
			l-1.048-1.414l0.986-0.596l0,0c0.191-0.129,0.441-0.121,0.716,0.045l20.738,12.42c0.586,0.348,1.06,1.287,1.06,2.1l-0.015,16.879
			c0,0.459-0.152,0.771-0.388,0.896l0,0L76.284,90.997z"/>
		<path fill="#A83939" d="M63.625,82.104l-1.297-0.773L55.19,68.507l0.003-8.426l-1.048-1.418l0.987-0.59l0,0
			c0.192-0.129,0.441-0.121,0.717,0.045l20.737,12.42c0.31,0.184,0.587,0.535,0.782,0.943L63.625,82.104z"/>
		<path fill="#5793CE" d="M54.617,59.294l-0.469-0.631l0.987-0.59l0,0c0.191-0.129,0.44-0.121,0.716,0.045l0.367,0.219
			L54.617,59.294z"/>
		<path fill="#274F89" d="M76.781,70.673c0.462,0.389,0.819,1.127,0.869,1.809l-2.025,1.207l-0.972-1.742L76.781,70.673z"/>
		<path fill="#CC5858" d="M75.608,71.122L54.871,58.704c-0.586-0.348-1.062,0.016-1.065,0.83l-0.018,16.877
			c0,0.813,0.474,1.75,1.063,2.1l20.735,12.424c0.586,0.352,1.062-0.02,1.065-0.828l0.018-16.883
			C76.668,72.421,76.195,71.474,75.608,71.122z"/>
	</g>
	<path fill="#FFC2B0" d="M85.802,74.403l-0.332,0.709c-0.385,0.822-0.981,1.518-1.735,1.988l-2.06,1.309
		c-0.644,0.412-1.449,0.447-2.104,0.059c-0.021-0.014-0.044-0.033-0.066-0.051c-0.654-0.428-0.717-1.393-0.177-1.963l2.15-2.289
		c0,0-1.206,0.953-1.545,0.57c-0.247-0.281,1.174-1.664,2.263-1.709c1.089-0.047,2.151-0.934,2.151-0.934L85.802,74.403z"/>
	<path fill="#CC5858" d="M80.34,22.754c0,0-7.894,8.885-11.077,17.038c0,0,2.697,5.031,9.308,7.006
		C85.176,48.768,80.34,22.754,80.34,22.754z"/>
	<path fill="#A83939" d="M77.084,46.264l1.283-12.787l-3.013,11.974C75.89,45.75,76.471,46.02,77.084,46.264z"/>
	<path fill="#FFFFFF" d="M86.252,20.961l-2.123-0.602c0,0,1.013,1.646,2.49,2.067c1.48,0.422,1.709-0.873,1.709-0.873L86.252,20.961
		z"/>
</g>
</svg>
