<?xml version="1.0" encoding="utf-8"?>
<!-- Generator: Adobe Illustrator 16.0.0, SVG Export Plug-In . SVG Version: 6.00 Build 0)  -->
<!DOCTYPE svg PUBLIC "-//W3C//DTD SVG 1.1//EN" "http://www.w3.org/Graphics/SVG/1.1/DTD/svg11.dtd">
<svg version="1.1" id="Layer_1" xmlns="http://www.w3.org/2000/svg" xmlns:xlink="http://www.w3.org/1999/xlink" x="0px" y="0px"
	 width="100%" height="200%" viewBox="0 0 300 100" enable-background="new 0 0 300 100" xml:space="preserve">
<g>
	<g>
		<path fill="#E96B56" d="M154.254,92.146l-35.85-22.493c-1.015-0.636-0.887-1.747,0.284-2.481L143.1,51.859
			c1.171-0.734,2.942-0.814,3.956-0.178l35.851,22.493c1.015,0.636,0.888,1.747-0.284,2.481l-24.412,15.311
			C157.04,92.701,155.27,92.781,154.254,92.146z"/>
		<g>
			<path fill="#771818" d="M184.234,29.931L147.791,7.085c-0.469-0.294-0.9-0.34-1.248-0.182l0.002-0.005l-0.06,0.031
				c-0.005,0.001-0.009,0.005-0.015,0.007l-1.187,0.607l1.287,0.697c0,0.025-0.003,0.051-0.003,0.078l0.011,32.525
				c0,1.627,0.927,3.527,2.071,4.245l35.471,22.235l0.202,1.814l1.294-0.672c0.427-0.272,0.696-0.887,0.696-1.766l-0.011-32.525
				C186.304,32.547,185.379,30.647,184.234,29.931z"/>
			<path fill="#A83939" d="M184.234,29.931L147.791,7.085c-0.469-0.294-0.9-0.34-1.248-0.182l0.002-0.005l-0.06,0.031
				c-0.005,0.001-0.009,0.005-0.015,0.007l-1.187,0.607l1.287,0.697c0,0.025-0.003,0.051-0.003,0.078l0.007,21.436l16.585,14.24
				l22.518-12.314C185.307,30.925,184.799,30.284,184.234,29.931z"/>
			<path fill="#872727" d="M184.844,30.442l-3.57,1.633l2.695,2.258l2.252-1.042C186.023,32.222,185.506,31.146,184.844,30.442z"/>
			<path fill="#E96B56" d="M183.047,68.964L146.605,46.12c-1.144-0.716-2.071-2.617-2.071-4.246l-0.011-32.525
				c0-1.627,0.926-2.367,2.069-1.649l36.443,22.843c1.144,0.716,2.071,2.617,2.071,4.244l0.011,32.525
				C185.116,68.941,184.191,69.68,183.047,68.964z"/>
			<path fill="#FFFFFF" d="M181.836,66.545L147.8,45.22c-1.045-0.657-1.895-2.395-1.895-3.884l-0.011-29.764
				c0-1.489,0.847-2.166,1.893-1.509l34.037,21.326c1.045,0.656,1.895,2.395,1.895,3.884l0.01,29.763
				C183.729,66.525,182.882,67.2,181.836,66.545z"/>
			<path fill="#FFFFFF" d="M181.836,66.545L147.8,45.22c-1.045-0.657-1.895-2.395-1.895-3.884l-0.011-29.764
				c0-1.489,0.847-2.166,1.893-1.509l34.037,21.326c1.045,0.656,1.895,2.395,1.895,3.884l0.01,29.763
				C183.729,66.525,182.882,67.2,181.836,66.545z"/>
		</g>
		<path fill="#771818" d="M183.593,69.975l-4.899-0.703l-31.637-19.846c-1.014-0.636-2.785-0.556-3.956,0.178l-22.417,14.059
			l-2.963-0.426v1.827h0.003c-0.02,0.422,0.202,0.829,0.68,1.13l35.85,22.49c1.016,0.637,2.786,0.557,3.957-0.178l24.412-15.312
			c0.658-0.413,0.988-0.945,0.968-1.445l0,0v-1.774H183.593z"/>
		<path fill="#A83939" d="M159.824,57.435l-2.248-1.411h-24.709l-12.182,7.639l-2.964-0.426v1.827h0.004
			c-0.02,0.422,0.202,0.829,0.68,1.13l35.849,22.49c0.537,0.336,1.284,0.471,2.043,0.416L159.824,57.435z"/>
		<path fill="#CC5858" d="M119.035,63.424l-1.314-0.189v1.828h0.003c-0.02,0.421,0.202,0.828,0.68,1.129l0.631,0.396V63.424z"/>
		<path fill="#872727" d="M154.616,88.865c0.962,0.396,2.337,0.31,3.362-0.227v-4.075h-3.362V88.865z"/>
		<path fill="#E96B56" d="M154.254,86.859l-35.85-22.492c-1.015-0.637-0.887-1.747,0.284-2.482l24.413-15.31
			c1.171-0.735,2.942-0.815,3.956-0.178l35.851,22.492c1.015,0.637,0.888,1.748-0.284,2.482l-24.412,15.311
			C157.04,87.416,155.27,87.494,154.254,86.859z"/>
		<path fill="#FFFFFF" d="M182.623,70.703l-24.412,15.312c-1.171,0.734-2.941,0.814-3.957,0.179L118.404,63.7
			c-0.333-0.21-0.54-0.47-0.631-0.749c-0.158,0.521,0.043,1.049,0.631,1.416l35.85,22.492c1.016,0.637,2.786,0.557,3.957-0.178
			l24.412-15.311c0.788-0.494,1.101-1.158,0.915-1.732C183.424,70.017,183.118,70.395,182.623,70.703z"/>
		<g>
			<path fill="#173D7A" d="M133.651,56.92l-1.622-1.018c-0.131-0.082-0.115-0.225,0.036-0.318l1.915-1.202
				c0.151-0.095,0.378-0.105,0.507-0.023l1.622,1.019c0.131,0.081,0.115,0.223-0.036,0.317l-1.915,1.202
				C134.009,56.992,133.782,57.002,133.651,56.92z"/>
			<path fill="#173D7A" d="M136.156,58.492l-1.622-1.018c-0.131-0.082-0.115-0.224,0.036-0.318l1.915-1.201
				c0.151-0.096,0.378-0.105,0.507-0.024l1.622,1.019c0.131,0.082,0.114,0.224-0.037,0.318l-1.915,1.201
				C136.515,58.563,136.287,58.574,136.156,58.492z"/>
			<path fill="#771818" d="M138.662,60.063l-1.622-1.019c-0.131-0.081-0.115-0.223,0.036-0.318l1.915-1.201
				c0.151-0.095,0.378-0.105,0.507-0.023l1.622,1.018c0.131,0.082,0.114,0.225-0.037,0.318l-1.915,1.202
				C139.02,60.135,138.793,60.146,138.662,60.063z"/>
			<path fill="#173D7A" d="M142.127,58.766l-1.622-1.019c-0.131-0.081-0.114-0.224,0.037-0.317l1.607-1.01
				c0.151-0.094,0.378-0.105,0.507-0.023l1.622,1.018c0.131,0.082,0.114,0.225-0.037,0.318l-1.607,1.01
				C142.483,58.838,142.256,58.848,142.127,58.766z"/>
			<path fill="#173D7A" d="M144.631,60.338l-1.622-1.018c-0.131-0.082-0.115-0.225,0.036-0.318l1.607-1.01
				c0.151-0.094,0.378-0.105,0.507-0.023l1.622,1.019c0.131,0.082,0.115,0.224-0.036,0.318l-1.607,1.009
				C144.989,60.409,144.762,60.42,144.631,60.338z"/>
			<path fill="#771818" d="M147.136,61.909l-1.622-1.019c-0.131-0.082-0.115-0.223,0.036-0.318l1.607-1.009
				c0.151-0.095,0.378-0.105,0.507-0.023l1.622,1.019c0.131,0.082,0.115,0.223-0.036,0.318l-1.607,1.008
				C147.495,61.98,147.267,61.99,147.136,61.909z"/>
			<path fill="#771818" d="M149.642,63.48l-1.622-1.019c-0.131-0.082-0.115-0.224,0.036-0.318l1.607-1.009
				c0.151-0.095,0.378-0.105,0.507-0.023l1.622,1.018c0.131,0.082,0.114,0.224-0.037,0.318l-1.607,1.01
				C150,63.553,149.773,63.563,149.642,63.48z"/>
			<path fill="#771818" d="M152.147,65.053l-1.622-1.018c-0.131-0.082-0.114-0.225,0.037-0.318l1.606-1.01
				c0.151-0.094,0.378-0.105,0.507-0.023l1.623,1.018c0.131,0.082,0.113,0.225-0.037,0.318l-1.607,1.01
				C152.504,65.123,152.276,65.135,152.147,65.053z"/>
			<path fill="#771818" d="M154.65,66.623l-1.621-1.018c-0.131-0.082-0.115-0.224,0.036-0.318l1.607-1.009
				c0.151-0.095,0.378-0.105,0.507-0.024l1.622,1.02c0.131,0.081,0.114,0.223-0.036,0.317l-1.607,1.009
				C155.01,66.696,154.781,66.705,154.65,66.623z"/>
			<path fill="#771818" d="M157.156,68.196l-1.621-1.019c-0.131-0.082-0.115-0.223,0.035-0.318l1.607-1.008
				c0.151-0.096,0.379-0.105,0.508-0.024l1.621,1.019c0.131,0.082,0.115,0.224-0.035,0.318l-1.607,1.009
				C157.515,68.268,157.287,68.278,157.156,68.196z"/>
			<path fill="#771818" d="M159.662,69.768l-1.622-1.019c-0.131-0.081-0.114-0.224,0.036-0.318l1.607-1.009
				c0.15-0.095,0.379-0.105,0.508-0.023l1.621,1.018c0.131,0.082,0.115,0.225-0.036,0.318l-1.607,1.01
				C160.02,69.838,159.793,69.85,159.662,69.768z"/>
			<path fill="#771818" d="M162.168,71.338l-1.623-1.018c-0.131-0.082-0.114-0.225,0.037-0.318l1.607-1.01
				c0.15-0.094,0.378-0.105,0.507-0.023l1.622,1.019c0.131,0.082,0.114,0.224-0.037,0.318l-1.607,1.009
				C162.525,71.411,162.297,71.42,162.168,71.338z"/>
			<path fill="#771818" d="M164.673,72.911l-1.622-1.019c-0.131-0.082-0.114-0.224,0.037-0.318l1.606-1.009
				c0.151-0.095,0.378-0.105,0.507-0.023l1.623,1.019c0.131,0.081,0.113,0.223-0.037,0.317l-1.607,1.009
				C165.029,72.982,164.802,72.992,164.673,72.911z"/>
			<path fill="#396CAA" d="M145.818,58.021l-1.622-1.018c-0.131-0.082-0.114-0.225,0.037-0.318l1.607-1.01
				c0.151-0.094,0.378-0.105,0.507-0.023l1.622,1.019c0.131,0.082,0.114,0.224-0.037,0.318l-1.607,1.009
				C146.174,58.093,145.947,58.104,145.818,58.021z"/>
			<path fill="#396CAA" d="M143.274,56.428l-1.622-1.019c-0.131-0.082-0.115-0.224,0.036-0.318l1.607-1.009
				c0.151-0.095,0.378-0.105,0.507-0.023l1.622,1.018c0.131,0.082,0.115,0.224-0.036,0.318l-1.607,1.01
				C143.633,56.498,143.405,56.51,143.274,56.428z"/>
			<path fill="#771818" d="M140.729,54.829l-3.495-2.19c-0.131-0.082-0.114-0.225,0.037-0.318l1.607-1.01
				c0.151-0.094,0.378-0.105,0.507-0.023l3.495,2.191c0.131,0.082,0.115,0.223-0.036,0.318l-1.607,1.009
				C141.085,54.9,140.858,54.911,140.729,54.829z"/>
			<path fill="#771818" d="M142.509,52.887l-2.835-1.777c-0.131-0.082-0.114-0.225,0.037-0.318l1.607-1.009
				c0.151-0.094,0.378-0.105,0.507-0.023l2.834,1.778c0.131,0.082,0.114,0.224-0.037,0.318l-1.607,1.009
				C142.865,52.958,142.638,52.967,142.509,52.887z"/>
			<path fill="#A83939" d="M148.322,59.593l-1.622-1.019c-0.131-0.082-0.115-0.223,0.036-0.318l1.607-1.009
				c0.151-0.095,0.378-0.105,0.507-0.023l1.622,1.019c0.131,0.082,0.115,0.223-0.036,0.318l-1.607,1.009
				C148.68,59.666,148.453,59.675,148.322,59.593z"/>
			<path fill="#771818" d="M150.827,61.166l-1.622-1.019c-0.131-0.082-0.115-0.224,0.036-0.318l1.608-1.009
				c0.15-0.095,0.377-0.105,0.507-0.023l1.622,1.018c0.131,0.082,0.114,0.224-0.037,0.318l-1.607,1.009
				C151.186,61.236,150.958,61.247,150.827,61.166z"/>
			<path fill="#771818" d="M153.332,62.736l-1.621-1.018c-0.131-0.082-0.115-0.225,0.036-0.318l1.607-1.01
				c0.151-0.094,0.378-0.105,0.507-0.023l1.622,1.018c0.132,0.082,0.114,0.225-0.036,0.318l-1.607,1.01
				C153.691,62.809,153.464,62.818,153.332,62.736z"/>
			<path fill="#771818" d="M155.838,64.309l-1.621-1.018c-0.131-0.082-0.115-0.224,0.036-0.318l1.606-1.009
				c0.151-0.095,0.379-0.105,0.508-0.024l1.622,1.019c0.131,0.082,0.114,0.224-0.036,0.318l-1.607,1.009
				C156.196,64.38,155.967,64.391,155.838,64.309z"/>
			<path fill="#771818" d="M158.344,65.88l-1.622-1.019c-0.131-0.082-0.114-0.223,0.036-0.318l1.607-1.008
				c0.151-0.096,0.379-0.105,0.508-0.024l1.621,1.019c0.131,0.082,0.115,0.224-0.036,0.318l-1.606,1.009
				C158.7,65.951,158.473,65.962,158.344,65.88z"/>
			<path fill="#771818" d="M160.848,67.451l-1.622-1.019c-0.131-0.081-0.114-0.224,0.036-0.317l1.607-1.01
				c0.15-0.095,0.378-0.105,0.508-0.023l1.621,1.018c0.131,0.082,0.115,0.225-0.036,0.318l-1.607,1.01
				C161.205,67.523,160.979,67.533,160.848,67.451z"/>
			<path fill="#771818" d="M163.353,69.023l-1.622-1.018c-0.131-0.082-0.114-0.225,0.037-0.318l1.607-1.01
				c0.15-0.094,0.378-0.105,0.507-0.023l1.622,1.019c0.131,0.081,0.114,0.224-0.037,0.317L163.859,69
				C163.711,69.095,163.483,69.105,163.353,69.023z"/>
			<path fill="#771818" d="M165.858,70.595l-1.622-1.019c-0.131-0.082-0.115-0.224,0.037-0.318l1.606-1.009
				c0.151-0.095,0.378-0.105,0.507-0.023l1.623,1.019c0.131,0.081,0.113,0.223-0.037,0.318l-1.607,1.008
				C166.217,70.666,165.989,70.676,165.858,70.595z"/>
			<path fill="#771818" d="M168.363,72.168l-1.621-1.02c-0.131-0.081-0.115-0.223,0.036-0.317l1.606-1.009
				c0.151-0.095,0.379-0.105,0.508-0.023l1.622,1.018c0.131,0.082,0.114,0.224-0.036,0.318l-1.607,1.009
				C168.721,72.238,168.492,72.247,168.363,72.168z"/>
			<path fill="#771818" d="M172.816,74.96l-3.54-2.22c-0.131-0.082-0.114-0.224,0.036-0.318l1.607-1.01
				c0.15-0.094,0.379-0.105,0.508-0.023l3.539,2.221c0.131,0.082,0.115,0.223-0.036,0.318l-1.606,1.009
				C173.174,75.033,172.947,75.042,172.816,74.96z"/>
			<path fill="#771818" d="M177.694,71.9l-2.987-1.875c-0.131-0.082-0.114-0.224,0.037-0.318l1.607-1.009
				c0.15-0.095,0.377-0.105,0.507-0.023l2.987,1.874c0.131,0.082,0.114,0.225-0.037,0.318l-1.607,1.01
				C178.051,71.973,177.824,71.982,177.694,71.9z"/>
			<path fill="#771818" d="M152.709,59.285l-1.621-1.018c-0.131-0.082-0.115-0.225,0.035-0.318l1.607-1.01
				c0.151-0.094,0.379-0.105,0.508-0.023l1.621,1.019c0.131,0.082,0.115,0.224-0.035,0.318l-1.607,1.009
				C153.067,59.358,152.84,59.367,152.709,59.285z"/>
			<path fill="#771818" d="M150.142,57.675l-1.622-1.019c-0.131-0.082-0.115-0.224,0.036-0.318l1.607-1.009
				c0.151-0.095,0.378-0.105,0.507-0.023l1.622,1.019c0.131,0.081,0.114,0.223-0.037,0.317l-1.607,1.009
				C150.5,57.747,150.273,57.756,150.142,57.675z"/>
			<path fill="#A83939" d="M147.575,56.065l-1.622-1.019c-0.131-0.082-0.114-0.223,0.037-0.318l1.607-1.008
				c0.151-0.096,0.378-0.105,0.507-0.024l1.622,1.019c0.131,0.082,0.114,0.223-0.037,0.318l-1.607,1.009
				C147.933,56.137,147.706,56.147,147.575,56.065z"/>
			<path fill="#173D7A" d="M145.007,54.455l-1.622-1.019c-0.131-0.082-0.114-0.224,0.037-0.318l1.607-1.009
				c0.151-0.095,0.378-0.105,0.507-0.023l1.622,1.018c0.131,0.082,0.115,0.224-0.037,0.318l-1.607,1.009
				C145.365,54.525,145.138,54.536,145.007,54.455z"/>
			<path fill="#771818" d="M155.215,60.858l-1.622-1.019c-0.131-0.082-0.114-0.224,0.036-0.318l1.607-1.009
				c0.15-0.095,0.379-0.105,0.508-0.023l1.621,1.019c0.131,0.081,0.115,0.223-0.036,0.318l-1.607,1.008
				C155.572,60.93,155.346,60.939,155.215,60.858z"/>
			<path fill="#771818" d="M157.721,62.43l-1.623-1.019c-0.131-0.082-0.114-0.224,0.037-0.318l1.607-1.009
				c0.15-0.095,0.378-0.105,0.507-0.023l1.622,1.018c0.131,0.082,0.114,0.224-0.037,0.318l-1.607,1.009
				C158.078,62.5,157.85,62.511,157.721,62.43z"/>
			<path fill="#771818" d="M160.226,64.002l-1.622-1.019c-0.131-0.081-0.114-0.224,0.037-0.317l1.606-1.01
				c0.151-0.094,0.378-0.105,0.507-0.023l1.623,1.018c0.131,0.082,0.113,0.225-0.037,0.318l-1.607,1.01
				C160.582,64.072,160.354,64.082,160.226,64.002z"/>
			<path fill="#771818" d="M162.729,65.572l-1.621-1.018c-0.131-0.082-0.115-0.224,0.036-0.318l1.607-1.01
				c0.151-0.094,0.378-0.104,0.507-0.023l1.622,1.019c0.131,0.082,0.114,0.224-0.036,0.318l-1.607,1.009
				C163.088,65.644,162.859,65.654,162.729,65.572z"/>
			<path fill="#771818" d="M165.234,67.144l-1.621-1.019c-0.131-0.082-0.115-0.223,0.035-0.318l1.607-1.008
				c0.151-0.096,0.379-0.105,0.508-0.024l1.621,1.019c0.132,0.082,0.115,0.224-0.035,0.318l-1.607,1.009
				C165.593,67.217,165.365,67.226,165.234,67.144z"/>
			<path fill="#771818" d="M167.74,68.717l-1.622-1.019c-0.131-0.082-0.114-0.224,0.036-0.318l1.607-1.009
				c0.15-0.095,0.379-0.105,0.508-0.023l1.621,1.018c0.131,0.082,0.115,0.224-0.036,0.318l-1.607,1.01
				C168.098,68.787,167.871,68.799,167.74,68.717z"/>
			<path fill="#771818" d="M170.246,70.287l-1.623-1.018c-0.131-0.082-0.113-0.225,0.037-0.318l1.607-1.01
				c0.15-0.094,0.378-0.105,0.507-0.023l1.622,1.019c0.131,0.081,0.114,0.224-0.037,0.317l-1.606,1.01
				C170.602,70.358,170.375,70.369,170.246,70.287z"/>
			<path fill="#771818" d="M172.751,71.858l-1.622-1.019c-0.131-0.082-0.114-0.224,0.037-0.318l1.607-1.009
				c0.15-0.095,0.377-0.105,0.506-0.023l1.623,1.019c0.131,0.081,0.114,0.223-0.037,0.317l-1.607,1.009
				C173.107,71.931,172.88,71.939,172.751,71.858z"/>
			<path fill="#771818" d="M175.254,73.431l-1.621-1.019c-0.131-0.081-0.115-0.223,0.036-0.317l1.607-1.009
				c0.151-0.096,0.378-0.105,0.507-0.023l1.622,1.018c0.131,0.082,0.114,0.224-0.036,0.318l-1.607,1.009
				C175.613,73.502,175.385,73.513,175.254,73.431z"/>
			<path fill="#771818" d="M151.391,55.398l-1.622-1.019c-0.131-0.081-0.115-0.224,0.037-0.317l1.606-1.01
				c0.151-0.095,0.379-0.105,0.508-0.023l1.622,1.018c0.131,0.082,0.114,0.225-0.036,0.318l-1.607,1.01
				C151.747,55.471,151.52,55.48,151.391,55.398z"/>
			<path fill="#771818" d="M148.898,53.834l-1.622-1.018c-0.131-0.082-0.115-0.224,0.036-0.318l1.607-1.009
				c0.151-0.095,0.378-0.105,0.507-0.024l1.622,1.019c0.131,0.082,0.115,0.224-0.036,0.318l-1.607,1.009
				C149.256,53.907,149.027,53.916,148.898,53.834z"/>
			<path fill="#771818" d="M146.405,52.271l-1.622-1.019c-0.131-0.082-0.115-0.224,0.036-0.318l1.607-1.009
				c0.151-0.094,0.378-0.105,0.507-0.023l1.622,1.018c0.131,0.082,0.115,0.224-0.036,0.318l-1.607,1.009
				C146.764,52.344,146.536,52.353,146.405,52.271z"/>
			<path fill="#771818" d="M143.913,50.707l-1.622-1.018c-0.131-0.082-0.115-0.224,0.036-0.318l1.607-1.009
				c0.151-0.095,0.378-0.105,0.507-0.023l1.622,1.018c0.131,0.082,0.115,0.224-0.036,0.318l-1.607,1.009
				C144.271,50.778,144.043,50.789,143.913,50.707z"/>
			<path fill="#771818" d="M146.477,49.1l-1.622-1.018c-0.131-0.082-0.114-0.224,0.037-0.318l0.531-0.333
				c0.151-0.094,0.378-0.105,0.507-0.023l1.622,1.018c0.131,0.082,0.115,0.224-0.036,0.318l-0.531,0.333
				C146.833,49.171,146.605,49.182,146.477,49.1z"/>
			<path fill="#771818" d="M149.729,51.141l-1.622-1.019c-0.131-0.082-0.115-0.224,0.036-0.318l0.531-0.333
				c0.151-0.094,0.378-0.105,0.507-0.023l1.622,1.018c0.131,0.082,0.114,0.224-0.036,0.318l-0.531,0.333
				C150.085,51.211,149.858,51.222,149.729,51.141z"/>
			<path fill="#771818" d="M152.211,52.698l-1.622-1.019c-0.131-0.082-0.114-0.223,0.036-0.318l0.531-0.332
				c0.15-0.095,0.379-0.105,0.508-0.023l1.621,1.018c0.131,0.082,0.115,0.224-0.036,0.318l-0.53,0.333
				C152.569,52.77,152.342,52.779,152.211,52.698z"/>
			<path fill="#771818" d="M154.693,54.254l-1.623-1.018c-0.131-0.082-0.113-0.224,0.037-0.318l0.531-0.332
				c0.15-0.096,0.378-0.105,0.507-0.023l1.622,1.018c0.131,0.082,0.114,0.224-0.037,0.318l-0.53,0.332
				C155.051,54.326,154.824,54.336,154.693,54.254z"/>
			<path fill="#771818" d="M157.174,55.813l-1.621-1.018c-0.131-0.082-0.115-0.225,0.036-0.318l0.531-0.333
				c0.151-0.095,0.378-0.105,0.507-0.023l1.622,1.019c0.131,0.082,0.114,0.223-0.036,0.318l-0.531,0.332
				C157.533,55.884,157.306,55.895,157.174,55.813z"/>
			<path fill="#771818" d="M171.033,64.506l-1.622-1.019c-0.132-0.082-0.114-0.224,0.036-0.318l0.531-0.333
				c0.15-0.094,0.378-0.105,0.507-0.023l1.622,1.019c0.131,0.081,0.114,0.224-0.037,0.317l-0.53,0.334
				C171.391,64.578,171.164,64.588,171.033,64.506z"/>
			<path fill="#771818" d="M173.515,66.063l-1.622-1.019c-0.131-0.081-0.114-0.223,0.037-0.318l0.53-0.332
				c0.151-0.095,0.378-0.105,0.507-0.023l1.622,1.018c0.132,0.082,0.114,0.225-0.036,0.318l-0.531,0.333
				C173.873,66.135,173.646,66.146,173.515,66.063z"/>
			<path fill="#771818" d="M175.998,67.62l-1.621-1.019c-0.131-0.082-0.115-0.224,0.035-0.318l0.531-0.332
				c0.151-0.095,0.379-0.105,0.508-0.023l1.621,1.018c0.131,0.082,0.115,0.224-0.036,0.318l-0.53,0.332
				C176.354,67.693,176.127,67.701,175.998,67.62z"/>
			<path fill="#771818" d="M178.48,69.178l-1.622-1.018c-0.132-0.082-0.114-0.224,0.036-0.318l0.531-0.332
				c0.15-0.096,0.378-0.105,0.507-0.024l1.622,1.019c0.131,0.082,0.114,0.224-0.037,0.318l-0.53,0.332
				C178.838,69.249,178.611,69.26,178.48,69.178z"/>
			<path fill="#771818" d="M153.896,56.971l-1.622-1.018c-0.131-0.082-0.114-0.225,0.036-0.318l1.607-1.01
				c0.151-0.094,0.379-0.105,0.508-0.023l1.621,1.019c0.131,0.081,0.115,0.224-0.036,0.317l-1.606,1.01
				C154.253,57.042,154.025,57.053,153.896,56.971z"/>
			<path fill="#771818" d="M156.4,58.542l-1.622-1.019c-0.131-0.082-0.114-0.224,0.036-0.318l1.607-1.009
				c0.15-0.095,0.378-0.105,0.508-0.023l1.621,1.019c0.131,0.082,0.115,0.223-0.036,0.318l-1.607,1.008
				C156.758,58.613,156.531,58.623,156.4,58.542z"/>
			<path fill="#771818" d="M158.905,60.115l-1.622-1.02c-0.131-0.081-0.114-0.223,0.037-0.317l1.607-1.009
				c0.15-0.095,0.378-0.105,0.507-0.023l1.622,1.018c0.131,0.082,0.114,0.224-0.037,0.318l-1.607,1.009
				C159.264,60.186,159.036,60.194,158.905,60.115z"/>
			<path fill="#771818" d="M161.411,61.686l-1.622-1.018c-0.131-0.082-0.115-0.225,0.037-0.318l1.606-1.01
				c0.151-0.094,0.378-0.105,0.507-0.023l1.623,1.018c0.131,0.082,0.113,0.225-0.037,0.318l-1.607,1.01
				C161.77,61.756,161.542,61.768,161.411,61.686z"/>
			<path fill="#771818" d="M163.916,63.256l-1.621-1.018c-0.131-0.082-0.115-0.224,0.036-0.318l1.606-1.009
				c0.151-0.095,0.379-0.105,0.508-0.024l1.622,1.019c0.131,0.082,0.114,0.224-0.036,0.318l-1.607,1.009
				C164.273,63.329,164.045,63.338,163.916,63.256z"/>
			<path fill="#771818" d="M166.42,64.829l-1.621-1.019c-0.131-0.082-0.115-0.223,0.035-0.318l1.607-1.009
				c0.151-0.095,0.379-0.105,0.508-0.023l1.621,1.019c0.131,0.082,0.115,0.223-0.035,0.318l-1.607,1.009
				C166.778,64.9,166.551,64.911,166.42,64.829z"/>
			<path fill="#771818" d="M168.926,66.4l-1.622-1.019c-0.131-0.082-0.114-0.224,0.036-0.318l1.607-1.009
				c0.15-0.095,0.379-0.105,0.508-0.023l1.621,1.018c0.131,0.082,0.115,0.225-0.036,0.318l-1.607,1.01
				C169.283,66.471,169.057,66.482,168.926,66.4z"/>
			<path fill="#771818" d="M171.431,67.971l-1.622-1.018c-0.131-0.082-0.114-0.225,0.037-0.318l1.607-1.01
				c0.15-0.094,0.378-0.105,0.507-0.023l1.622,1.019c0.131,0.081,0.114,0.224-0.037,0.317l-1.607,1.01
				C171.789,68.043,171.563,68.053,171.431,67.971z"/>
			<path fill="#771818" d="M173.937,69.543l-1.622-1.018c-0.131-0.082-0.114-0.224,0.037-0.318l1.606-1.009
				c0.151-0.095,0.378-0.105,0.507-0.023l1.623,1.019c0.131,0.081,0.113,0.223-0.037,0.317l-1.607,1.009
				C174.295,69.615,174.065,69.625,173.937,69.543z"/>
			<path fill="#771818" d="M139.573,57.164l-4.778-2.996c-0.131-0.082-0.114-0.225,0.037-0.318l1.607-1.01
				c0.151-0.094,0.378-0.105,0.507-0.023l4.778,2.996c0.131,0.082,0.115,0.224-0.036,0.318l-1.607,1.01
				C139.931,57.236,139.704,57.246,139.573,57.164z"/>
			<path fill="#771818" d="M170.35,76.473l-4.779-2.996c-0.131-0.082-0.113-0.224,0.037-0.318l1.607-1.01
				c0.15-0.094,0.378-0.105,0.507-0.023l4.778,2.997c0.131,0.081,0.115,0.224-0.036,0.317l-1.607,1.01
				C170.707,76.543,170.48,76.555,170.35,76.473z"/>
			<path fill="#771818" d="M160.331,73.658l-1.622-1.018c-0.131-0.082-0.114-0.225,0.037-0.318l1.914-1.202
				c0.15-0.095,0.378-0.105,0.508-0.024l1.621,1.02c0.131,0.081,0.115,0.223-0.036,0.317l-1.915,1.204
				C160.689,73.729,160.462,73.74,160.331,73.658z"/>
			<path fill="#173D7A" d="M142.138,62.246l-2.595-1.628c-0.131-0.082-0.114-0.224,0.037-0.318l1.915-1.202
				c0.151-0.094,0.378-0.105,0.507-0.023l2.594,1.627c0.131,0.082,0.115,0.225-0.036,0.318l-1.915,1.202
				C142.497,62.316,142.269,62.327,142.138,62.246z"/>
			<path fill="#173D7A" d="M157.916,72.144l-2.594-1.627c-0.131-0.082-0.115-0.224,0.036-0.318l1.915-1.202
				c0.15-0.094,0.377-0.105,0.506-0.023l2.596,1.627c0.131,0.082,0.114,0.225-0.037,0.318l-1.914,1.202
				C158.274,72.217,158.047,72.226,157.916,72.144z"/>
			<path fill="#173D7A" d="M145.753,64.513l-2.595-1.628c-0.131-0.081-0.115-0.223,0.036-0.317l1.915-1.202
				c0.151-0.094,0.378-0.105,0.507-0.023l2.595,1.627c0.131,0.082,0.115,0.225-0.037,0.318l-1.915,1.202
				C146.111,64.584,145.884,64.595,145.753,64.513z"/>
			<path fill="#771818" d="M145.636,61.353l11.278,7.077c0.141,0.087,0.141,0.23,0,0.317l-1.952,1.226
				c-0.14,0.088-0.367,0.088-0.507,0l-11.279-7.076L145.636,61.353z"/>
			<path fill="#771818" d="M167.332,76.508l1.809,1.133c0.106,0.066,0.092,0.184-0.029,0.262l-0.784,0.49
				c-0.124,0.078-0.31,0.086-0.416,0.019l-1.808-1.133c-0.107-0.067-0.093-0.184,0.029-0.262l0.783-0.491
				C167.038,76.449,167.226,76.441,167.332,76.508z"/>
			<path fill="#771818" d="M164.806,74.924l1.808,1.133c0.107,0.066,0.092,0.184-0.029,0.262l-0.784,0.49
				c-0.124,0.078-0.31,0.086-0.416,0.019l-1.808-1.133c-0.107-0.067-0.093-0.184,0.029-0.262l0.783-0.491
				C164.513,74.865,164.7,74.856,164.806,74.924z"/>
			<path fill="#771818" d="M162.302,73.352l1.808,1.132c0.107,0.067,0.092,0.185-0.029,0.263l-0.783,0.49
				c-0.124,0.078-0.31,0.086-0.417,0.018l-1.808-1.132c-0.107-0.067-0.092-0.185,0.029-0.263l0.783-0.49
				C162.008,73.293,162.194,73.285,162.302,73.352z"/>
			<path fill="#771818" d="M166.189,74.055l1.807,1.133c0.107,0.066,0.093,0.184-0.029,0.262l-0.783,0.49
				c-0.123,0.078-0.309,0.086-0.416,0.019l-1.808-1.133c-0.107-0.067-0.093-0.184,0.029-0.262l0.784-0.491
				C165.896,73.996,166.084,73.989,166.189,74.055z"/>
		</g>
	</g>
</g>
<g>
	<path opacity="0.4" fill="#E96B56" enable-background="new    " d="M162.496,37.216l-11.893-7.462
		c-0.292-0.184-0.529-0.674-0.529-1.098V18.489c0-0.424,0.236-0.618,0.529-0.435l11.893,7.462c0.293,0.184,0.529,0.674,0.529,1.098
		v10.167C163.025,37.206,162.789,37.4,162.496,37.216z"/>
	<g>
		<path fill="#E8B3B3" d="M154.2,30.351l-0.084-0.053c-0.31-0.195-0.562-0.716-0.562-1.166v-4.846c0-0.449,0.251-0.656,0.562-0.461
			l0.084,0.052c0.31,0.195,0.562,0.717,0.562,1.166v4.846C154.762,30.338,154.511,30.545,154.2,30.351z"/>
		<path fill="#E8B3B3" d="M156.593,31.851l-0.083-0.053c-0.31-0.195-0.563-0.716-0.563-1.166v-2.836
			c0-0.449,0.251-0.656,0.563-0.462l0.083,0.053c0.31,0.195,0.562,0.716,0.562,1.166v2.836
			C157.152,31.838,156.902,32.045,156.593,31.851z"/>
		<path fill="#A83939" d="M158.983,33.351l-0.083-0.053c-0.31-0.195-0.563-0.716-0.563-1.166v-6.751
			c0-0.449,0.251-0.656,0.563-0.462l0.083,0.053c0.31,0.195,0.562,0.716,0.562,1.166v6.751
			C159.545,33.34,159.295,33.545,158.983,33.351z"/>
	</g>
</g>
<g>
	<path fill="#E96B56" d="M173.834,34.483l-7.389-4.636c-0.274-0.172-0.496-0.633-0.496-1.029l0,0c0-0.396,0.222-0.58,0.496-0.407
		l7.389,4.636c0.275,0.173,0.497,0.633,0.497,1.029l0,0C174.331,34.473,174.109,34.654,173.834,34.483z"/>
	<path fill="#E96B56" d="M169.082,34.325l-2.637-1.652c-0.274-0.173-0.496-0.633-0.496-1.029l0,0c0-0.396,0.222-0.58,0.496-0.407
		l2.637,1.653c0.274,0.173,0.496,0.633,0.496,1.029l0,0C169.578,34.314,169.356,34.497,169.082,34.325z"/>
	<path fill="#A83939" d="M173.506,37.1l-2.637-1.653c-0.274-0.173-0.496-0.633-0.496-1.029l0,0c0-0.396,0.222-0.58,0.496-0.407
		l2.637,1.653c0.273,0.173,0.496,0.633,0.496,1.029l0,0C174.002,37.089,173.779,37.271,173.506,37.1z"/>
	<path fill="#E96B56" d="M179.063,40.598l-3.771-2.376c-0.275-0.172-0.496-0.633-0.496-1.029l0,0c0-0.396,0.221-0.58,0.496-0.407
		l3.771,2.376c0.274,0.173,0.497,0.633,0.497,1.029l0,0C179.561,40.587,179.338,40.769,179.063,40.598z"/>
	<path fill="#E96B56" d="M175.678,41.287l-9.23-5.791c-0.274-0.173-0.496-0.633-0.496-1.029l0,0c0-0.396,0.222-0.58,0.496-0.407
		l9.23,5.791c0.275,0.172,0.496,0.632,0.496,1.029l0,0C176.174,41.276,175.953,41.458,175.678,41.287z"/>
	<path fill="#A83939" d="M179.561,46.513l-13.113-8.194c-0.274-0.173-0.496-0.633-0.496-1.029l0,0c0-0.396,0.222-0.58,0.496-0.407
		l13.113,8.194c0.273,0.173,0.496,0.633,0.496,1.029l0,0C180.057,46.502,179.834,46.686,179.561,46.513z"/>
	<path fill="#E96B56" d="M180.669,38.758l-4.794-2.995c-0.275-0.173-0.496-0.633-0.496-1.029l0,0c0-0.396,0.221-0.58,0.496-0.407
		l4.794,2.995c0.274,0.173,0.497,0.633,0.497,1.029l0,0C181.166,38.747,180.943,38.929,180.669,38.758z"/>
</g>
<g>
	<polygon fill="#A83939" points="152.377,38.975 150.043,37.511 150.043,40.438 152.377,41.902 	"/>
	<polygon fill="#E96B56" points="156.063,38.869 153.729,37.405 153.729,42.749 156.063,44.213 	"/>
	<polygon fill="#E96B56" points="159.747,42.707 157.414,41.244 157.414,45.062 159.747,46.525 	"/>
	<polygon fill="#E96B56" points="163.433,43.917 161.1,42.453 161.1,47.373 163.433,48.836 	"/>
	<polygon fill="#A83939" points="167.116,46.525 164.783,45.062 164.783,49.686 167.116,51.148 	"/>
	<polygon fill="#771818" points="170.802,47.673 168.469,46.209 168.469,51.996 170.802,53.46 	"/>
	<polygon fill="#E96B56" points="174.487,49.367 172.154,47.904 172.154,54.309 174.487,55.773 	"/>
	<polygon fill="#A83939" points="178.173,50.116 175.84,48.654 175.84,56.62 178.173,58.084 	"/>
</g>
<g>
	<polygon fill="#CC5858" points="193.045,38.387 192.914,37.833 194.398,37.418 194.529,37.975 	"/>
	<polygon fill="#CC5858" points="192.287,39.189 192.156,38.635 193.641,38.222 193.771,38.776 	"/>
	<polygon fill="#CC5858" points="191.531,39.993 191.4,39.437 192.884,39.023 193.015,39.578 	"/>
	<polygon fill="#CC5858" points="190.774,40.794 190.644,40.24 192.127,39.825 192.258,40.382 	"/>
</g>
<polygon fill="#872727" points="163.32,71.582 158.618,68.633 153.918,71.582 158.618,74.531 "/>
<polygon fill="#872727" points="148.502,72.096 143.802,69.147 139.1,72.096 143.802,75.045 "/>
<polygon fill="#872727" points="138.555,65.904 133.853,62.955 129.153,65.904 133.853,68.853 "/>
<g>
	<g>
		<g>
			<polygon fill="#C13D1A" points="143.802,72.096 143.802,56.367 148.502,53.418 148.502,69.147 			"/>
			<polygon fill="#EF602E" points="148.502,53.418 143.802,50.469 139.1,53.418 143.802,56.367 			"/>
			<polygon fill="#CC5858" points="143.802,56.367 139.1,53.418 139.1,69.147 143.802,72.096 			"/>
			<polygon fill="#A83939" points="143.802,72.096 143.802,56.367 148.502,53.418 148.502,69.147 			"/>
			<polygon fill="#E96B56" points="148.502,53.418 143.802,50.469 139.1,53.418 143.802,56.367 			"/>
		</g>
		<g>
			<polygon fill="#771818" points="153.778,78.439 153.778,69.593 158.48,66.644 158.48,75.49 			"/>
			<polygon fill="#A83939" points="153.778,69.593 149.078,66.644 149.078,75.49 153.778,78.439 			"/>
			<polygon fill="#E96B56" points="158.48,66.644 153.778,63.694 149.078,66.644 153.778,69.593 			"/>
		</g>
		<g>
			<polygon fill="#E96B56" points="133.853,65.904 133.853,44.278 138.555,41.329 138.555,62.955 			"/>
			<polygon fill="#A83939" points="133.853,44.278 129.153,41.329 129.153,62.955 133.853,65.904 			"/>
			<polygon fill="#CC5858" points="138.555,41.329 133.853,38.38 129.153,41.329 133.853,44.278 			"/>
		</g>
	</g>
</g>
<g>
	<g>
		<path fill="#CC5858" d="M131.053,53.555c0,0-0.776-0.426-1.253,0.207c-0.476,0.633-1.158,2.129-1.18,3.139
			c-0.022,1.011,0.736,0.941,1.186,0.703c0.449-0.24,1.764-2.311,1.843-2.717c0.08-0.404-0.094-0.954-0.22-1.061
			C131.304,53.719,131.053,53.555,131.053,53.555z"/>
		<path fill="#FFD7D7" d="M131.222,53.352l0.037,0.874c0.007,0.186-0.078,0.363-0.228,0.454c-0.136,0.084-0.333,0.147-0.598,0.102
			c-0.585-0.102-0.636-0.283-0.678-1.156C129.713,52.749,131.222,53.352,131.222,53.352z"/>
		<g>
			<path fill="#CC5858" d="M128.213,51.875c0,0-0.776-0.426-1.253,0.207s-1.158,2.129-1.18,3.139
				c-0.021,1.01,0.737,0.941,1.186,0.703c0.449-0.24,1.764-2.311,1.844-2.717c0.08-0.405-0.095-0.954-0.22-1.062
				C128.462,52.038,128.213,51.875,128.213,51.875z"/>
			<path fill="#FFD7D7" d="M128.382,51.671l0.036,0.874c0.007,0.186-0.078,0.364-0.227,0.455c-0.136,0.084-0.333,0.147-0.598,0.102
				c-0.585-0.102-0.636-0.283-0.678-1.156C126.871,51.069,128.382,51.671,128.382,51.671z"/>
			<path fill="#771818" d="M135.307,35.629c-0.229-4.062-4.047,0.598-4.047,0.598l-2.612,2.784l-2.354,2.808
				c-0.46,0.549-0.673,1.289-0.584,2.025l0.953,7.877c0.047,0.389,0.353,0.676,0.715,0.672c0.102,0,0.218-0.011,0.353-0.033
				c0.849-0.143,0.788-1.021,0.788-1.021l-0.175-7.367l4.942-3.236C133.282,40.734,135.536,39.691,135.307,35.629z"/>
		</g>
		<path fill="#771818" d="M138.149,37.176c-0.229-4.062-4.047,0.598-4.047,0.598l-2.613,2.784l-2.353,2.809
			c-0.46,0.549-0.672,1.289-0.583,2.025l0.953,7.877c0.047,0.389,0.353,0.676,0.715,0.672c0.102,0,0.218-0.011,0.353-0.032
			c0.849-0.144,0.787-1.022,0.787-1.022l-0.174-7.367l4.942-3.236C136.122,42.282,138.378,41.238,138.149,37.176z"/>
		<path fill="#CC5858" d="M135.889,24.138c2.895,1.304,2.836,3.164,2.836,3.164s-0.567,6.816-0.373,11.369
			c0.082,1.904-9.305,2.049-7.905-3.029c1.651-5.987,1.033-10.833,1.804-11.563C133.023,23.347,135.14,23.8,135.889,24.138z"/>
		<path fill="#FFC2B0" d="M136.82,25.787c-0.151,0.638-0.922,0.975-1.72,0.751c-0.798-0.224-1.324-0.922-1.171-1.562
			c0.151-0.638,0.922-0.975,1.72-0.751C136.447,24.449,136.973,25.147,136.82,25.787z"/>
		<path fill="#FFFFFF" d="M135.589,26.756c-0.169,0-0.345-0.023-0.523-0.073c-0.871-0.244-1.442-1.025-1.271-1.744
			s1.017-1.104,1.889-0.86c0.415,0.116,0.774,0.356,1.015,0.674c0.249,0.333,0.342,0.713,0.256,1.069
			C136.818,26.396,136.254,26.756,135.589,26.756z M135.153,24.307c-0.538,0-0.987,0.273-1.091,0.709
			c-0.133,0.558,0.349,1.174,1.073,1.378c0.722,0.202,1.42-0.085,1.551-0.644c0.062-0.262-0.011-0.547-0.204-0.804
			c-0.204-0.271-0.511-0.475-0.869-0.575C135.458,24.327,135.302,24.307,135.153,24.307z"/>
		<path fill="#FFC2B0" d="M134.729,23.997c0,0,0.025,0.125-0.025,1.124c-0.016,0.313,0.995,0.605,1.254,0.322
			c0.262-0.284,0.157-0.578,0.22-1.646C136.24,22.731,134.729,23.997,134.729,23.997z"/>
		<path fill="#EA9C92" d="M136.178,23.796c0,0-0.249,0.989-1.475,1.367l0.018-0.898L136.178,23.796z"/>
		<path fill="#FFC2B0" d="M136.955,21.284c0.307,1.294-0.407,2.616-1.6,2.951c-1.191,0.335-2.407-0.443-2.714-1.738
			c-0.308-1.295,0.407-2.617,1.6-2.951C135.431,19.211,136.646,19.989,136.955,21.284z"/>
		<path fill="#EA9C92" d="M135.309,21.978c0,0-1.227,0.571-2.076,0.578c-0.849,0.007-0.662-0.767-0.662-0.767l2.522-0.396
			L135.309,21.978z"/>
		<path fill="#771818" d="M132.98,22.129c0,0,1.069-0.493,2.005-0.287c0.22,0.049,0.426,0.176,0.567,0.365
			c0.047,0.062,0.105,0.118,0.171,0.135c0.166,0.04,0.438-0.709,0.762-0.726c0.324-0.016,0.538,0.231,0.274,0.693
			c-0.265,0.462-0.174,0.977-0.053,1.051c0.122,0.075,1.415-1.001,0.275-3.458c-1.14-2.455-4.038-1.133-4.489-0.635
			c0,0-0.475,0.449-0.86,0.049C131.631,19.316,131.198,22.84,132.98,22.129z"/>
		<path fill="#FFC2B0" d="M137.102,32.282v1.842c0,0.211-0.082,0.413-0.226,0.555l-3.482,3.449l0.396,0.658l4.598-3.624
			c0.214-0.169,0.353-0.429,0.38-0.716l0.311-3.212L137.102,32.282z"/>
		<path fill="#CC5858" d="M138.482,26.38c0,0,1.056,1.728,1.449,6.271c0,0-1.805,0.635-2.829,0.274
			C136.078,32.565,138.482,26.38,138.482,26.38z"/>
		<path fill="#A83939" d="M136.909,28.563c0,0-0.413,2.406-0.437,3.537c-0.007,0.311,0.167,0.591,0.437,0.696l0,0V28.563z"/>
	</g>
	<g>
		<path fill="#CC5858" d="M136.005,40.523l-0.769-0.111l-4.969-3.116c-0.16-0.1-0.438-0.087-0.622,0.027l-3.52,2.207l-0.465-0.067
			v0.503l0,0c-0.004,0.065,0.031,0.131,0.107,0.176l5.631,3.533c0.16,0.1,0.438,0.087,0.622-0.027l3.834-2.403
			c0.104-0.065,0.155-0.149,0.153-0.228l0,0v-0.495H136.005z"/>
		<path fill="#396CAA" d="M132.273,38.555l-0.353-0.222h-3.88l-1.913,1.2l-0.466-0.067v0.504l0,0
			c-0.003,0.065,0.031,0.131,0.107,0.176l5.631,3.533c0.083,0.053,0.202,0.075,0.32,0.065L132.273,38.555z"/>
		<path fill="#5793CE" d="M125.867,39.495l-0.207-0.029v0.504l0,0c-0.004,0.065,0.031,0.131,0.107,0.176l0.1,0.062V39.495z"/>
		<path fill="#FFFFFF" d="M131.455,43.707c0.151,0.062,0.367,0.049,0.527-0.036v-0.856h-0.527V43.707z"/>
		<path fill="#FFFFFF" d="M131.398,43.175l-5.631-3.533c-0.16-0.1-0.14-0.274,0.045-0.389l3.835-2.404
			c0.184-0.115,0.461-0.127,0.622-0.027l5.631,3.533c0.16,0.1,0.14,0.274-0.045,0.389l-3.834,2.404
			C131.836,43.262,131.558,43.274,131.398,43.175z"/>
		<path fill="#E96B56" d="M131.304,42.64l-4.682-2.937c-0.132-0.083-0.116-0.229,0.037-0.324l2.055-1.254
			c0.152-0.096,0.383-0.107,0.516-0.024l4.682,2.937c0.132,0.084,0.116,0.229-0.037,0.324l-2.055,1.254
			C131.667,42.713,131.437,42.724,131.304,42.64z"/>
	</g>
	<path fill="#FFC2B0" d="M129.864,36.733l-0.058,0.421c-0.049,0.36-0.042,0.726,0.025,1.082l0.069,0.373
		c0.04,0.209,0.193,0.373,0.386,0.411l0,0c0.151,0.029,0.294-0.085,0.311-0.251l0.093-0.902c0,0,0.213,0.302,0.314,0.302
		c0.102,0-0.114-0.903-0.347-1.415C130.427,36.242,129.864,36.733,129.864,36.733z"/>
	<path fill="#FFC2B0" d="M131.773,30.023l-0.604,1.3c-0.144,0.307-0.227,0.644-0.247,0.985l-0.262,4.444l-0.795-0.02l-0.36-4.991
		c-0.011-0.154-0.003-0.309,0.02-0.462l0.413-2.531L131.773,30.023z"/>
	<g>
		<path fill="#771818" d="M131.207,43.515l-0.473-0.669l-4.965-3.124c-0.16-0.1-0.287-0.369-0.287-0.6l0.003-4.417L125.2,34.3
			l0.269-0.169l0,0c0.051-0.036,0.12-0.035,0.194,0.013l5.627,3.54c0.16,0.1,0.287,0.369,0.287,0.6l-0.005,4.811
			c0,0.129-0.042,0.22-0.105,0.256l0,0L131.207,43.515z"/>
		<path fill="#A83939" d="M127.774,40.982l-0.353-0.222l-1.937-3.654l0.002-2.4l-0.286-0.406l0.269-0.169l0,0
			c0.051-0.036,0.12-0.035,0.195,0.013l5.627,3.54c0.083,0.053,0.16,0.153,0.212,0.269L127.774,40.982z"/>
		<path fill="#CC5858" d="M125.329,34.48l-0.127-0.18l0.269-0.169l0,0c0.051-0.036,0.12-0.035,0.195,0.013l0.1,0.062L125.329,34.48z
			"/>
		<path fill="#872727" d="M131.344,37.724c0.125,0.111,0.222,0.322,0.234,0.515l-0.549,0.345l-0.264-0.496L131.344,37.724z"/>
		<path fill="#CC5858" d="M131.023,37.853l-5.627-3.54c-0.16-0.1-0.289,0.006-0.289,0.237l-0.005,4.811
			c0,0.231,0.129,0.499,0.287,0.6l5.627,3.54c0.16,0.1,0.289-0.005,0.289-0.236l0.005-4.811
			C131.311,38.22,131.184,37.953,131.023,37.853z"/>
	</g>
	<path fill="#FFC2B0" d="M133.791,38.786l-0.091,0.204c-0.104,0.234-0.268,0.431-0.471,0.567l-0.558,0.375
		c-0.174,0.117-0.395,0.125-0.571,0.015c-0.007-0.003-0.013-0.009-0.018-0.013c-0.178-0.12-0.195-0.398-0.047-0.562l0.583-0.653
		c0,0-0.327,0.272-0.42,0.164c-0.067-0.08,0.318-0.475,0.614-0.487c0.296-0.013,0.582-0.266,0.582-0.266L133.791,38.786z"/>
	<path fill="#CC5858" d="M132.309,24.069c0,0-2.142,2.531-3.005,4.854c0,0,0.732,1.433,2.523,1.996
		C133.622,31.48,132.309,24.069,132.309,24.069z"/>
	<path fill="#A83939" d="M131.425,30.767l0.348-3.642l-0.818,3.413C131.1,30.62,131.258,30.696,131.425,30.767z"/>
	<path fill="#FFFFFF" d="M133.913,23.558l-0.574-0.171c0,0,0.274,0.469,0.676,0.589c0.402,0.12,0.463-0.25,0.463-0.25
		L133.913,23.558z"/>
</g>
<g>
	<path fill="#E96B56" d="M128.864,87.933c-3.869-2.427-10.144-2.427-14.015,0c-3.869,2.427-3.869,6.364,0,8.791
		s10.144,2.427,14.013,0C132.734,94.297,132.734,90.359,128.864,87.933z M125.078,94.35c-1.778,1.115-4.664,1.115-6.442,0
		c-1.778-1.117-1.778-2.926,0-4.043c1.778-1.115,4.664-1.115,6.442,0C126.858,91.424,126.858,93.232,125.078,94.35z"/>
	<g>
		<g>
			<path fill="#771818" d="M113.389,86.494l3.535,0.061c0.262-0.369,0.632-0.717,1.116-1.02c1.943-1.221,5-1.314,7.118-0.284
				l2.1-2.147l3.234,0.055c-0.16-0.113-0.324-0.226-0.496-0.334c-4.495-2.82-11.782-2.82-16.276,0
				c-0.828,0.518-1.5,1.096-2.022,1.712L113.389,86.494z"/>
			<polygon fill="#CC5858" points="130.493,77.58 130.493,83.158 127.258,83.104 127.258,77.525 			"/>
			<polygon fill="#771818" points="125.158,79.673 125.158,85.249 127.258,83.104 127.258,77.525 			"/>
			<path fill="#771818" d="M116.924,80.977v5.578l4.649-4.118l3.583,2.813v-5.576l-3.3-1.74c0,0-4.544,1.511-4.78,1.577
				C116.842,79.572,116.924,80.977,116.924,80.977z"/>
			<polygon fill="#771818" points="113.389,80.916 113.389,86.494 116.924,86.555 116.924,80.977 			"/>
			<polygon fill="#CC5858" points="111.696,78.958 111.696,84.536 113.389,86.494 113.389,80.916 			"/>
			<path fill="#E96B56" d="M113.389,80.916l3.535,0.061c0.262-0.369,0.632-0.717,1.116-1.02c1.943-1.221,5-1.313,7.118-0.284
				l2.1-2.147l3.234,0.055c-0.16-0.113-0.324-0.226-0.496-0.334c-4.495-2.82-11.782-2.82-16.276,0
				c-0.828,0.518-1.5,1.096-2.022,1.712L113.389,80.916z"/>
		</g>
		<g>
			<path fill="#CC5858" d="M126.224,80.358v5.127l3.06-0.796c0,0-0.18-3-0.246-3.08S126.224,80.358,126.224,80.358z"/>
			<g>
				<path fill="#771818" d="M123.907,85.485v5.578l0.331,0.382l2.156-1.351c0,0-0.334-4.259-0.375-4.344
					C125.982,85.666,123.907,85.485,123.907,85.485z"/>
				<path fill="#A83939" d="M128.073,84.045l-1.849,1.892c1.542,1.325,1.358,3.192-0.547,4.389
					c-0.521,0.327-1.125,0.575-1.767,0.738l1.913,2.213l-1.694,1.731c2.151-0.27,4.204-0.928,5.871-1.973
					c3.864-2.424,4.402-6.143,1.624-8.93L128.073,84.045z"/>
				<polygon fill="#A83939" points="124.125,89.431 124.125,95.008 128.32,93.247 133.365,88.018 133.346,82.095 128.009,86.693 
									"/>
				<path fill="#E96B56" d="M128.073,78.467l-1.849,1.892c1.542,1.325,1.358,3.192-0.547,4.389
					c-0.521,0.327-1.125,0.575-1.767,0.738l1.913,2.213l-1.694,1.731c2.151-0.27,4.204-0.928,5.871-1.973
					c3.864-2.424,4.402-6.143,1.624-8.93L128.073,78.467z"/>
			</g>
		</g>
		<g>
			<path fill="#A83939" d="M124.111,93.247l-1.686-1.95c-1.563,0.104-3.187-0.221-4.385-0.973c-1.238-0.777-1.749-1.839-1.533-2.85
				l-4.013-0.067l-1.544-1.785c-1.349,2.517-0.429,5.407,2.768,7.413c2.349,1.473,5.46,2.174,8.536,2.108L124.111,93.247z"/>
			<polygon fill="#A83939" points="122.256,89.565 122.256,95.144 110.351,87.975 110.351,82.395 112.089,83.158 			"/>
			<polygon fill="#771818" points="124.111,87.671 124.111,93.247 122.256,95.144 122.256,89.565 			"/>
			<path fill="#CC5858" d="M124.111,87.671l-1.686-1.95c-1.563,0.104-3.187-0.221-4.385-0.974c-1.238-0.776-1.749-1.838-1.533-2.849
				l-4.013-0.067l-1.544-1.786c-1.349,2.518-0.429,5.408,2.768,7.413c2.349,1.473,5.46,2.175,8.536,2.109L124.111,87.671z"/>
		</g>
	</g>
</g>
<g>
	<path fill="#CC5858" d="M131.065,12.14l0.306-0.564c0,0,0.256,0.153,0.529,0.06c0.22-0.074,0.409-0.291,0.564-0.64
		c0.547-1.231,1.556-1.326,2.014-1.202l-0.144,0.636l0.073-0.318l-0.069,0.318c-0.087-0.021-0.871-0.184-1.329,0.851
		c-0.233,0.524-0.549,0.854-0.938,0.984C131.549,12.435,131.113,12.171,131.065,12.14z"/>
</g>
<path fill="#E96B56" d="M121.482,33.625c-1.524,0-2.762-1.347-2.762-3.002c0-1.654,1.238-3.001,2.762-3.001
	c1.523,0,2.762,1.347,2.762,3.001C124.244,32.278,123.005,33.625,121.482,33.625z M121.482,28.276c-1.191,0-2.16,1.053-2.16,2.347
	s0.969,2.347,2.16,2.347s2.16-1.053,2.16-2.347S122.673,28.276,121.482,28.276z"/>
<path fill="#CC5858" d="M105.273,75.095c-1.08,0-1.958-0.954-1.958-2.13c0-1.172,0.878-2.129,1.958-2.129
	c1.08,0,1.958,0.955,1.958,2.129C107.231,74.141,106.353,75.095,105.273,75.095z M105.273,71.492c-0.748,0-1.356,0.662-1.356,1.473
	c0,0.812,0.609,1.475,1.356,1.475c0.747,0,1.356-0.661,1.356-1.475C106.629,72.152,106.02,71.492,105.273,71.492z"/>
<path fill="#CC5858" d="M117.437,51.188l-1.329-2.938l2.704-1.445l1.329,2.938L117.437,51.188z M116.915,48.547l0.798,1.764
	l1.624-0.867l-0.798-1.764L116.915,48.547z"/>
<polygon fill="#CC5858" points="184.673,20.342 183.43,21.005 182.818,19.654 184.063,18.991 "/>
<g>
	<polygon fill="#E96B56" points="158.311,4.402 157.884,3.938 159.909,1.738 160.334,2.202 	"/>
	<polygon fill="#E96B56" points="159.909,4.402 157.884,2.202 158.311,1.738 160.334,3.938 	"/>
</g>
<path fill="#E96B56" d="M180.66,4.171c0,0.853-0.637,1.545-1.422,1.545s-1.422-0.691-1.422-1.545c0-0.853,0.637-1.545,1.422-1.545
	S180.66,3.316,180.66,4.171z"/>
<path fill="#FFD7D7" d="M142.391,90.717c0,0.496-0.369,0.898-0.826,0.898s-0.825-0.402-0.825-0.898s0.369-0.898,0.825-0.898
	S142.391,90.221,142.391,90.717z"/>
<ellipse fill="#E96B56" cx="174.152" cy="90.611" rx="1.695" ry="1.842"/>
<g>
	<g>
		<path fill="#771818" d="M115.022,55.584l-6.051-3.797c-0.12-0.074-0.227-0.078-0.313-0.027v-0.004l-0.587,0.369
			c0,0,0.26,0.104,0.413,0.164v4.787c0,0.389,0.218,0.842,0.487,1.012l5.784,3.627v0.562l0.593-0.371l-0.003-0.001
			c0.1-0.068,0.164-0.213,0.164-0.422v-4.89C115.507,56.203,115.291,55.753,115.022,55.584z"/>
		<path fill="#CC5858" d="M114.424,62.256l-6.051-3.796c-0.269-0.169-0.487-0.622-0.487-1.011v-4.889c0-0.39,0.218-0.57,0.487-0.4
			l6.051,3.797c0.269,0.168,0.487,0.621,0.487,1.01v4.89C114.911,62.246,114.693,62.426,114.424,62.256z"/>
	</g>
	<g>
		<path fill="#FFFFFF" d="M110.407,56.776c0,0.284-0.184,0.398-0.409,0.257c-0.225-0.143-0.409-0.486-0.409-0.77
			s0.184-0.398,0.409-0.256C110.226,56.148,110.407,56.492,110.407,56.776z"/>
		<path fill="#FFFFFF" d="M111.646,57.553c0,0.283-0.184,0.398-0.409,0.256c-0.226-0.141-0.409-0.484-0.409-0.769
			s0.184-0.398,0.409-0.257C111.462,56.926,111.646,57.27,111.646,57.553z"/>
		<path fill="#FFFFFF" d="M112.882,58.327c0,0.284-0.184,0.398-0.409,0.257c-0.226-0.143-0.409-0.486-0.409-0.77
			s0.184-0.398,0.409-0.256S112.882,58.045,112.882,58.327z"/>
	</g>
</g>
<g>
	<g>
		<path fill="#CC5858" d="M173.045,10.673l-6.051-3.796c-0.119-0.075-0.227-0.078-0.313-0.027V6.846l-0.587,0.369
			c0,0,0.26,0.104,0.413,0.164v4.788c0,0.389,0.218,0.842,0.486,1.011l5.784,3.627v0.562l0.593-0.371l-0.004-0.002
			c0.1-0.067,0.164-0.213,0.164-0.422v-4.887C173.531,11.293,173.314,10.842,173.045,10.673z"/>
		<path fill="#E96B56" d="M172.447,17.346l-6.051-3.796c-0.27-0.169-0.487-0.622-0.487-1.011V7.651c0-0.389,0.218-0.569,0.487-0.4
			l6.051,3.796c0.27,0.169,0.487,0.622,0.487,1.011v4.887C172.935,17.334,172.717,17.515,172.447,17.346z"/>
	</g>
	<g>
		<path fill="#FFFFFF" d="M168.431,11.865c0,0.284-0.184,0.398-0.409,0.257c-0.225-0.142-0.408-0.486-0.408-0.77
			c0-0.283,0.184-0.398,0.408-0.256C168.249,11.238,168.431,11.582,168.431,11.865z"/>
		<path fill="#FFFFFF" d="M169.669,12.642c0,0.284-0.184,0.398-0.409,0.257c-0.225-0.142-0.408-0.486-0.408-0.77
			c0-0.283,0.184-0.398,0.408-0.256C169.485,12.015,169.669,12.358,169.669,12.642z"/>
		<path fill="#FFFFFF" d="M170.905,13.417c0,0.284-0.184,0.398-0.409,0.256c-0.225-0.142-0.408-0.485-0.408-0.769
			s0.184-0.398,0.408-0.256C170.722,12.791,170.905,13.135,170.905,13.417z"/>
	</g>
</g>
<polygon fill="#E96B56" points="172.511,92.873 176.063,90.646 179.615,92.873 176.063,95.102 "/>
<polygon fill="#E96B56" points="180.049,88.08 183.602,85.852 187.154,88.08 183.602,90.309 "/>
<polygon fill="#E96B56" points="187.567,83.4 191.118,81.173 194.671,83.4 191.118,85.629 "/>
<g>
	<g>
		<g>
			<polygon fill="#C13D1A" points="183.602,88.08 183.602,76.194 180.049,73.967 180.049,85.852 			"/>
			<polygon fill="#771818" points="183.602,76.194 187.154,73.967 187.154,85.852 183.602,88.08 			"/>
			<polygon fill="#CC5858" points="183.602,88.08 183.602,76.194 180.049,73.967 180.049,85.852 			"/>
		</g>
		<g>
			<polygon fill="#CC5858" points="176.063,92.873 176.063,86.188 172.511,83.96 172.511,90.646 			"/>
			<polygon fill="#771818" points="176.063,86.188 179.615,83.96 179.615,90.646 176.063,92.873 			"/>
			<polygon fill="#E96B56" points="172.511,83.96 176.063,81.73 179.615,83.96 176.063,86.188 			"/>
		</g>
		<g>
			<polygon fill="#CC5858" points="191.118,83.4 191.118,67.059 187.567,64.831 187.567,81.173 			"/>
			<polygon fill="#771818" points="191.118,67.059 194.671,64.831 194.671,81.173 191.118,83.4 			"/>
			<polygon fill="#E96B56" points="187.567,64.831 191.118,62.602 194.671,64.831 191.118,67.059 			"/>
		</g>
	</g>
	<polygon fill="#E96B56" points="180.049,73.967 183.602,71.738 187.154,73.967 183.602,76.194 	"/>
</g>
</svg>
