<?xml version="1.0" encoding="utf-8"?>
<!-- Generator: Adobe Illustrator 16.0.0, SVG Export Plug-In . SVG Version: 6.00 Build 0)  -->
<!DOCTYPE svg PUBLIC "-//W3C//DTD SVG 1.1//EN" "http://www.w3.org/Graphics/SVG/1.1/DTD/svg11.dtd">
<svg version="1.1" id="Layer_1" xmlns="http://www.w3.org/2000/svg" xmlns:xlink="http://www.w3.org/1999/xlink" x="0px" y="0px"
	 width="300px" height="300px" viewBox="0 -92.262 300 300" enable-background="new 0 -92.262 300 300" xml:space="preserve">
<g>
	<polygon fill="#E96B56" points="1.132,99.331 -0.23,97.866 6.232,90.927 7.592,92.387 	"/>
	<polygon fill="#E96B56" points="6.232,99.331 -0.23,92.387 1.132,90.927 7.592,97.866 	"/>
</g>
<path fill="#E96B56" d="M300.146,22.335c0,2.693-2.033,4.875-4.537,4.875c-2.506,0-4.539-2.18-4.539-4.875
	c0-2.691,2.033-4.875,4.539-4.875C298.12,17.46,300.146,19.64,300.146,22.335z"/>
<g>
	<path fill="#CC5858" d="M239.65,207.336l0.973-1.779c0,0,0.818,0.48,1.689,0.19c0.703-0.233,1.303-0.918,1.797-2.019
		c1.746-3.889,4.966-4.184,6.431-3.793l-0.462,2.008l0.23-1l-0.222,1c-0.272-0.063-2.776-0.577-4.237,2.688
		c-0.74,1.65-1.752,2.692-2.996,3.1C241.193,208.273,239.801,207.438,239.65,207.336z"/>
</g>
<g>
	<polygon fill="#CC5858" points="282.37,-72.016 281.953,-73.768 286.689,-75.074 287.107,-73.315 	"/>
	<polygon fill="#CC5858" points="279.953,-69.486 279.534,-71.236 284.275,-72.536 284.695,-70.789 	"/>
	<polygon fill="#CC5858" points="277.541,-66.954 277.122,-68.706 281.854,-70.009 282.271,-68.257 	"/>
	<polygon fill="#CC5858" points="275.129,-64.421 274.704,-66.174 279.439,-67.478 279.859,-65.727 	"/>
</g>
<path fill="#E96B56" d="M51.079,175.887c-4.86,0-8.814-4.252-8.814-9.473s3.951-9.475,8.814-9.475c4.863,0,8.813,4.254,8.813,9.475
	S55.942,175.887,51.079,175.887z M51.079,159.006c-3.801,0-6.893,3.321-6.893,7.408c0,4.085,3.092,7.408,6.893,7.408
	c3.8,0,6.892-3.323,6.892-7.408C57.971,162.327,54.879,159.006,51.079,159.006z"/>
<polygon fill="#CC5858" points="11.5,-77.541 5.571,-74.408 2.654,-80.776 8.584,-83.915 "/>
<path fill="#E96B56" d="M167.227-89.602c0,1.568-1.179,2.833-2.635,2.833c-1.455,0-2.634-1.265-2.634-2.833
	c0-1.569,1.179-2.833,2.634-2.833C166.048-92.436,167.227-91.167,167.227-89.602z"/>
<g>
	<g>
		<rect x="129.812" y="68.646" fill="#8C8C8C" width="28.327" height="85.084"/>
	</g>
	<g>
		<path fill="#F0F0F0" d="M57.254,109.632h173.443c19.652,0,35.587-15.759,35.587-35.188V-25.813
			C266.284-45.244,250.35-61,230.697-61H57.254c-19.652,0-35.587,15.756-35.587,35.188V74.445
			C21.674,93.88,37.602,109.632,57.254,109.632z"/>
	</g>
	<g>
		<rect x="31.248" y="-79.16" fill="#FFFFFF" width="225.451" height="162.053"/>
	</g>
	<g>
		<rect x="31.248" y="-79.157" fill="#771818" width="225.451" height="19.572"/>
	</g>
	<g>
		<path fill="#CCCCCC" d="M229.268,95.131c0,4.309,4.15,7.803,9.273,7.803s9.277-3.492,9.277-7.803c0-4.309-4.154-7.804-9.277-7.804
			S229.268,90.814,229.268,95.131z"/>
	</g>
	<rect x="80.252" y="150.52" fill="#CCCCCC" width="127.438" height="6.422"/>
	<path fill="#F5F7FF" d="M69.934-65.676H43.557c-1.596,0-2.888-1.277-2.888-2.855v-1.683c0-1.578,1.292-2.854,2.888-2.854h26.377
		c1.596,0,2.889,1.276,2.889,2.854v1.683C72.826-66.954,71.53-65.676,69.934-65.676z"/>
	<rect x="47.766" y="8.611" fill="#E6E6E6" width="118.032" height="4.011"/>
	<rect x="47.766" y="15.835" fill="#E6E6E6" width="87.551" height="4.011"/>
	<rect x="47.766" y="31.541" fill="#E6E6E6" width="55.511" height="4.011"/>
	<rect x="47.766" y="38.763" fill="#E6E6E6" width="99.729" height="4.011"/>
	<rect x="47.766" y="56.029" fill="#E6E6E6" width="93.426" height="4.011"/>
	<rect x="47.766" y="63.254" fill="#E6E6E6" width="114.082" height="4.01"/>
	<rect x="42.008" y="8.611" fill="#771818" width="2.966" height="11.24"/>
	<rect x="42.008" y="31.541" fill="#771818" width="2.966" height="11.24"/>
	<rect x="42.008" y="56.029" fill="#771818" width="2.966" height="11.244"/>
	<g>
		<g>
			<path fill="#E96B56" d="M202.13,72.326h-3.696c-3.472,0-6.274-2.785-6.274-6.212v-3.655c0-3.426,2.813-6.204,6.274-6.204h3.696
				c3.466,0,6.274,2.783,6.274,6.204v3.655C208.412,69.547,205.596,72.326,202.13,72.326z"/>
		</g>
	</g>
	<g>
		<g>
			<g>
				<path fill="#E6573F" d="M204.709,47.845h-8.859c-2.041,0-3.699-1.641-3.699-3.667v-8.765c0-2.021,1.662-3.667,3.699-3.667h8.867
					c2.041,0,3.701,1.647,3.701,3.667v8.765C208.418,46.204,206.752,47.845,204.709,47.845z M195.85,32.772
					c-1.475,0-2.677,1.186-2.677,2.644v8.765c0,1.455,1.202,2.644,2.677,2.644h8.867c1.471,0,2.674-1.188,2.674-2.644v-8.765
					c0-1.458-1.203-2.644-2.674-2.644H195.85z"/>
			</g>
		</g>
	</g>
	<g>
		<g>
			<g>
				<path fill="#E6573F" d="M229.189,72.339h-8.867c-2.045,0-3.709-1.646-3.709-3.667v-8.768c0-2.02,1.664-3.665,3.709-3.665h8.867
					c2.041,0,3.699,1.645,3.699,3.665v8.768C232.895,70.691,231.23,72.339,229.189,72.339z M220.328,57.264
					c-1.475,0-2.674,1.187-2.674,2.643v8.77c0,1.454,1.199,2.645,2.674,2.645h8.863c1.479,0,2.678-1.189,2.678-2.645v-8.77
					c0-1.456-1.199-2.643-2.678-2.643H220.328z"/>
			</g>
		</g>
	</g>
	<g>
		<g>
			<path fill="#E96B56" d="M226.605,47.839h-3.696c-3.466,0-6.276-2.785-6.276-6.208v-3.654c0-3.43,2.816-6.208,6.276-6.208h3.696
				c3.472,0,6.283,2.785,6.283,6.208v3.654C232.883,45.054,230.077,47.839,226.605,47.839z"/>
		</g>
	</g>
	<g>
		<g>
			<g>
				<path fill="#E6573F" d="M229.189,23.351h-8.867c-2.045,0-3.709-1.641-3.709-3.665v-8.767c0-2.02,1.664-3.667,3.709-3.667h8.867
					c2.041,0,3.699,1.64,3.699,3.667v8.767C232.895,21.71,231.23,23.351,229.189,23.351z M220.328,8.277
					c-1.475,0-2.674,1.187-2.674,2.644v8.768c0,1.458,1.199,2.644,2.674,2.644h8.863c1.479,0,2.678-1.187,2.678-2.644v-8.768
					c0-1.458-1.199-2.644-2.678-2.644H220.328z"/>
			</g>
		</g>
	</g>
	<g>
		<g>
			<path fill="#E96B56" d="M202.13,23.344h-3.696c-3.472,0-6.274-2.783-6.274-6.206v-3.654c0-3.43,2.813-6.207,6.274-6.207h3.696
				c3.466,0,6.274,2.779,6.274,6.207v3.654C208.412,20.562,205.596,23.344,202.13,23.344z"/>
		</g>
	</g>
	<g>
		<g>
			<g>
				<g>
					<path fill="#EEA886" d="M126.157,110.229c0,0,0.594,0.957,0.661,1.736c0.061,0.62,0.587,1.538,0.813,2.049
						c0.229,0.508,0.959,2.817,0.987,3.416c0.009,0.245-0.546,1.793-0.466,2.291c0.079,0.502,0.365,1.475-0.086,1.547
						c-0.447,0.063-0.958-0.744-0.958-0.744s0.042,0.455-0.335,0.635c-0.737,0.34-1.129,0.037-1.129,0.037s-0.271,0.498-0.616,0.574
						c-0.753,0.146-1.127-0.155-1.127-0.155s-0.333,0.284-0.852,0.271c-0.666-0.013-0.944-0.586-0.944-0.586
						s-0.849,0.168-1.091-0.215c-0.244-0.395-0.202-0.809-0.304-1.159c-0.104-0.354-0.022-3.551,1.071-5.843
						c1.099-2.297-0.276-4.536-0.276-4.536L126.157,110.229z"/>
				</g>
			</g>
		</g>
		<g>
			<g>
				<path fill="#DB9C7C" d="M127.233,120.223c0,0,0.073-2.863-0.686-3.472c-0.761-0.61-0.846,0.426-0.846,0.426
					s0.105-1.022-0.732-1.157c-0.828-0.145-0.871,1.07-0.871,1.07s-0.137-0.789-1.008-0.629c-0.875,0.16-0.667,1.164-0.667,1.164
					s-0.837-0.984-1.376-0.035c-0.916,1.594-0.034,3.48-0.034,3.48s0.254,0.432,1.091,0.218c0,0,0.558,1.108,1.802,0.313
					c0,0,1.276,0.69,1.739-0.422C125.644,121.188,127.048,121.854,127.233,120.223z"/>
			</g>
		</g>
		<path fill="#771818" d="M135.983,68.992c0,0-4.956,16.333-6.632,22.359c-0.53,1.89-1.796,19.932-2.019,20.66
			c-0.229,0.727-6.51,1.719-6.51,1.719s0.758-22.566,0.834-23.801c0.071-1.234,6.936-26.441,8.931-27.342
			c1.496-0.672,2.284-0.111,4.169,1.27C137.396,65.796,135.983,68.992,135.983,68.992z"/>
		<g>
			<polygon fill="#EF5050" points="196.215,39.616 184.878,46.955 184.322,46.119 195.662,38.781 			"/>
		</g>
		<path fill="#EFAA88" d="M197.411,42.988c0,0-0.111,0.639-0.293,0.891c0,0-0.368,0.434-0.614,0.763
			c-0.07,0.104-0.146,0.195-0.178,0.259c-0.156,0.268-0.396,0.902-0.941,1.441c-0.542,0.54-2.645,2.266-2.645,2.266l-1.807-1.514
			l-1.875-0.833c0,0,1.053-4.503,1.496-5.065c0.043-0.061,0.084-0.112,0.131-0.156c0.424-0.441,0.922-0.59,1.172-0.796
			c0.094-0.075,1.053-0.762,1.396-0.671c0.478,0.12,0.755,0.395,0.867,0.713c0,0,0.922,0.28,1.284,0.814c0,0,0.854,0.23,1.113,1.022
			C196.525,42.13,197.374,42.461,197.411,42.988z"/>
		<g>
			<g>
				<path fill="#424773" d="M131.962,180.497c0,0-0.455,3.099-0.511,3.567c-0.056,0.465-5.026-0.271-5.026-0.271l-0.399-3.691
					C126.023,180.104,131.34,180.063,131.962,180.497z"/>
			</g>
		</g>
		<g>
			<g>
				<path fill="#442828" d="M131.502,183.671c0,0,1.574,1.871,3.1,2.685c1.52,0.816,3.916,1.14,4.815,1.981
					c0.651,0.604,2.369,3.229-3.957,3.17c-6.325-0.052-9.372,0.367-10.049-0.637c-0.678-1.005,0.981-7.412,0.981-7.412
					S127.886,183.998,131.502,183.671z"/>
			</g>
		</g>
		<g>
			<g>
				<path fill="#424773" d="M167.557,180.497c0,0-0.449,3.099-0.512,3.567c-0.057,0.465-5.023-0.271-5.023-0.271l-0.397-3.691
					C161.621,180.104,166.938,180.063,167.557,180.497z"/>
			</g>
		</g>
		<g>
			<g>
				<path fill="#442828" d="M167.107,183.671c0,0,1.567,1.871,3.098,2.685c1.52,0.816,7.123,1.488,8.021,2.319
					c0.651,0.608,1.729,3.063-7.162,2.83c-6.323-0.159-9.373,0.366-10.051-0.639c-0.679-1.001,0.979-7.412,0.979-7.412
					S163.404,184.031,167.107,183.671z"/>
			</g>
		</g>
		<g>
			<g>
				<path fill="#E96B56" d="M136.075,100.838c0,0-4.671,7.327-4.321,13.959c0.347,6.639-1.693,13.87-2.397,20.799
					c-0.785,7.719-3.982,25.998-4.097,30.13c-0.117,4.133,0.497,17.32,0.497,17.32l6.405,0.146c0,0,5.38-31.959,6.771-35.216
					c1.395-3.26,8.305-26.506,8.538-29.119C147.704,116.245,136.075,100.838,136.075,100.838z"/>
			</g>
		</g>
		<g>
			<g>
				<path fill="#E96B56" d="M160.656,101.826c0,0,3.516,18.174,3.977,22.234c0.469,4.056,0.771,19.635,1.004,22.174
					c0.229,2.533,2.168,33.108,2.786,36.956h-8.185c0,0-6.289-22.285-6.289-32.822c0-10.546-4.854-22.923-7.987-29.874
					c-3.133-6.955-10.31-7.122-12.235-20.03C133.727,100.462,158.041,97.738,160.656,101.826z"/>
			</g>
		</g>
		<g>
			<g>
				<path fill="#EEA886" d="M143.865,39.17c0,0,6.268-2.309,9.156,2.406c2.893,4.715,2.609,14.158-0.543,15.318
					s-7.9,0.556-9.521-2.397c-1.62-2.951-3.077-7.218-3.006-10.07C140.013,41.572,142.219,39.994,143.865,39.17z"/>
			</g>
		</g>
		<g>
			<g>
				<path fill="#EEA886" d="M151.793,57.109c0,0-0.262,1.677,0.169,2.496c0.433,0.826-8.116,0.844-8.116,0.844
					s-0.695-4.479-2.007-8.27C140.518,48.393,151.793,57.109,151.793,57.109z"/>
			</g>
		</g>
		<g>
			<g>
				<path fill="#771818" d="M141.836,52.182c0,0,0.594,0.965,3,0.594c2.409-0.375,5.351-3.542,6.354-3.892
					c1.002-0.351,1.019-0.927,1.019-0.927l0.631,0.91l1.07,0.071c0,0-0.979-2.835,0.489-3.996c1.466-1.153-1.524-9.174-9.25-6.507
					c0,0-5.938,1.618-5.716,4.952C139.644,46.722,140.509,50.518,141.836,52.182z"/>
			</g>
		</g>
		<g>
			<g>
				<path fill="#E2D2CA" d="M152.473,59.507c0,0-0.029-1.571-0.75-1.725c-0.719-0.148-7.965-0.841-8.854-0.492v1.835
					C142.869,59.118,144.574,60.154,152.473,59.507z"/>
			</g>
		</g>
		<g>
			<g>
				<path fill="#EEA886" d="M152.04,46.737c-0.133-0.562-1.572-2.159-2.125-0.449c-0.551,1.711,0.831,4.018,1.61,3.822
					C152.29,49.908,152.385,48.155,152.04,46.737z"/>
			</g>
		</g>
		<g>
			<g>
				<path fill="#771818" d="M164.452,61.893c-4.968-0.653-11.979-2.391-11.979-2.391l-9.604-0.384c0,0-8.813,1.918-12.281,3.465
					c-0.333,0.146-0.333,7.776-1.236,9.781l2.878,5.995c0,0,1.666,11.893,2.008,17.178c0.156,2.428-3.427,22.768-3.427,22.768
					s3.843,1.118,10.396,1.829c6.552,0.716,22.928-0.259,23.034-1.022c0.099-0.758-3.173-28.491-3.322-29.93
					c-0.218-2.205,0.763-13.92,0.763-13.92c1.521-1.16,14.801-7.259,18.422-10.441c0.969-0.848,5.067-4.787,6.229-6.146
					c4.12-4.82,7.499-8.95,7.91-9.847c0.467-0.504-4.591-3.204-5.03-3.344c-0.396-0.133-5.854,7.039-8.001,9.34
					c-0.959,1.022-4.935,3.884-4.935,3.884S167.563,62.064,164.452,61.893z"/>
			</g>
		</g>
		<g>
			<g>
				<path fill="#771818" d="M142.082,39.726c0,0-7.991,0.622-0.246,12.456L142.082,39.726z"/>
			</g>
		</g>
		<polygon fill="#DFE1E8" points="196.201,39.606 196.855,38.618 195.652,38.773 		"/>
	</g>
	<g>
		<g>
			<path fill="#5C544D" d="M267.889,179.782c0,0,0.452,3.124,0.512,3.6c0.058,0.472,5.025-0.278,5.025-0.278l0.399-3.726
				C273.825,179.378,268.509,179.338,267.889,179.782z"/>
		</g>
		<g>
			<path fill="#443C3C" d="M268.341,182.98c0,0-1.571,1.892-3.098,2.707c-1.521,0.824-3.914,1.148-4.815,1.998
				c-0.65,0.612-2.367,3.256,3.955,3.207c6.322-0.053,9.374,0.377,10.047-0.643c0.68-1.018-0.984-7.479-0.984-7.479
				S271.961,183.307,268.341,182.98z"/>
		</g>
		<g>
			<path fill="#5C544D" d="M232.293,179.782c0,0,0.451,3.124,0.508,3.6c0.063,0.468,5.027-0.278,5.027-0.278l0.4-3.726
				C238.229,179.378,232.914,179.338,232.293,179.782z"/>
		</g>
		<g>
			<path fill="#443C3C" d="M232.75,182.98c0,0-1.57,1.892-3.098,2.707c-1.522,0.824-7.123,1.498-8.026,2.347
				c-0.651,0.616-1.729,3.089,7.164,2.858c6.317-0.168,9.371,0.371,10.051-0.643c0.673-1.02-0.983-7.479-0.983-7.479
				S236.454,183.346,232.75,182.98z"/>
		</g>
		<g>
			<path fill="#563030" d="M266.122,98.989c0,0,2.647,7.765,2.299,14.459c-0.349,6.686,1.372,14.014,2.063,21.004
				c0.785,7.79,3.979,26.243,4.101,30.415c0.113,4.166-0.498,17.479-0.498,17.479l-6.405,0.147c0,0-5.383-32.255-6.771-35.548
				c-1.396-3.293-8.31-26.756-8.542-29.387C252.146,114.921,266.122,98.989,266.122,98.989z"/>
		</g>
		<g>
			<path fill="#563030" d="M239.203,100.369c0,0-3.518,18.342-3.98,22.439c-0.466,4.098-0.77,19.82-1,22.379
				c-0.232,2.563-1.55,33.502-2.783,37.306h8.184c0,0,6.281-22.488,6.281-33.132c0-10.646,4.857-23.131,7.988-30.161
				c3.135-7.021,10.313-7.183,12.241-20.205C266.122,98.989,241.813,96.232,239.203,100.369z"/>
		</g>
		<g>
			<path fill="#EEA886" d="M255.843,37.678c0,0-6.446-2.38-9.43,2.474c-2.974,4.859-2.687,14.584,0.567,15.778
				c3.256,1.192,8.14,0.568,9.804-2.469c1.665-3.042,3.168-7.435,3.098-10.372C259.809,40.158,257.538,38.526,255.843,37.678z"/>
		</g>
		<g>
			<path fill="#EEA886" d="M248.061,55.635c0,0,0.254,1.678-0.17,2.501c-0.431,0.826,8.116,0.841,8.116,0.841
				s0.697-4.479,2.007-8.268C259.328,46.92,248.061,55.635,248.061,55.635z"/>
		</g>
		<g>
			<path fill="#771818" d="M258.014,50.706c0,0-0.596,0.967-2.998,0.595c-2.41-0.373-5.346-3.541-6.352-3.893
				c-1.004-0.348-1.018-0.926-1.018-0.926l-0.627,0.905l-1.064,0.07c0,0,0.977-2.834-0.488-3.99c-1.475-1.15,1.52-9.172,9.242-6.507
				c0,0,5.93,1.62,5.716,4.953C260.207,45.244,259.34,49.043,258.014,50.706z"/>
		</g>
		<g>
			<path fill="#E2D2CA" d="M247.387,58.034c0,0,0.024-1.575,0.747-1.728c0.718-0.147,7.962-0.84,8.851-0.494v1.836
				C256.98,57.645,255.275,58.682,247.387,58.034z"/>
		</g>
		<g>
			<path fill="#EEA886" d="M247.811,45.264c0.131-0.563,1.57-2.159,2.121-0.449c0.553,1.711-0.832,4.017-1.602,3.815
				C247.561,48.436,247.467,46.677,247.811,45.264z"/>
		</g>
		<g>
			<path fill="#CC5858" d="M247.387,58.034c0,0-3.972,1.411-8.574,3.346c0,0-5.289,1.954-5.867,7.733
				c-0.303,3.07-3.607,19.349-4.221,20.723c-0.623,1.375-7.945,23.507-8.201,23.963c-0.252,0.462,5.979,3.02,6.394,2.816
				c0.411-0.206,7.089-20.184,7.765-21.66c0,0,3.846-11.979,3.943-13.764c0,0,0.111,5.092,0.316,6.519
				c0.211,1.424-3.416,29.158-3.312,29.929c0.104,0.764,16.472,1.739,23.03,1.022c6.552-0.714,11.844-2.207,11.844-2.207
				s-5.158-21.886-4.996-24.313c0.34-5.287,2.128-15.248,2.128-15.248l5.345,9.961l-6.84,17.392l1.563,5.295
				c0,0,12.706-18.995,13.116-20.724c0.416-1.731-0.618-3.938-1.293-5.369c-0.672-1.426-5.072-12.299-6.107-13.832
				c-1.031-1.529-2.773-7.658-6.988-9.366c-3.523-1.426-9.438-2.591-9.438-2.591L247.387,58.034z"/>
		</g>
		<g>
			<polygon fill="#D6D6D6" points="238.673,123.861 208.736,116.271 214.09,95.617 244.025,103.211 			"/>
		</g>
		<g>
			<path fill="#C98462" d="M217.916,118.311c0,0-0.854,1.369-1.165,1.76c-0.317,0.389,0.765,0.633,1.228,0.238
				C218.438,119.912,217.916,118.311,217.916,118.311z"/>
		</g>
		<g>
			<path fill="#DE9D7D" d="M224.146,122.98c0,0,0.5-0.522,0.611-0.854c0,0,0.149-0.624,0.286-1.06
				c0.037-0.137,0.082-0.262,0.113-0.332c0.143-0.313,0.555-0.957,0.688-1.797c0.131-0.84,0.504-4.631,0.504-4.631l-2.322-0.582
				l-1.863-0.389c0,0-4.025,3.973-4.24,4.745c-0.021,0.073-0.042,0.151-0.048,0.222c-0.115,0.674,0.079,1.227,0.058,1.577
				c-0.004,0.138,0.017,1.449,0.326,1.696c0.434,0.343,0.869,0.404,1.234,0.29c0,0,0.865,0.631,1.602,0.596
				c0,0,0.782,0.611,1.678,0.31C222.773,122.766,223.637,123.302,224.146,122.98z"/>
		</g>
		<g>
			<path fill="#CC5858" d="M233.2,99.025c0,0-5.316,15.914-6.296,17.576c0,0-3.896-0.811-6.389-2.811l5.834-17.17L233.2,99.025z"/>
		</g>
	</g>
	<g>
		<g>
			<rect x="43.561" y="-46.253" fill="#E0E0E0" width="0.43" height="40.023"/>
		</g>
		<g>
			<rect x="74.06" y="-46.253" fill="#E0E0E0" width="0.432" height="40.023"/>
		</g>
		<g>
			<rect x="104.556" y="-46.253" fill="#E0E0E0" width="0.429" height="40.023"/>
		</g>
		<g>
			<rect x="135.062" y="-46.253" fill="#E0E0E0" width="0.429" height="40.023"/>
		</g>
		<g>
			<rect x="165.561" y="-46.253" fill="#E0E0E0" width="0.434" height="40.023"/>
		</g>
		<rect x="43.773" y="-3.863" fill="#B8B8B8" width="4.851" height="1.389"/>
		<rect x="43.773" y="-51.19" fill="#D9D9D9" width="7.305" height="1.044"/>
		<rect x="43.773" y="-49.261" fill="#D9D9D9" width="10.363" height="1.044"/>
		<rect x="73.947" y="-51.19" fill="#D9D9D9" width="8.575" height="1.044"/>
		<rect x="73.947" y="-49.261" fill="#D9D9D9" width="5.481" height="1.044"/>
		<rect x="104.988" y="-51.19" fill="#D9D9D9" width="5.316" height="1.044"/>
		<rect x="104.988" y="-49.261" fill="#D9D9D9" width="6.197" height="1.044"/>
		<rect x="135.487" y="-51.19" fill="#D9D9D9" width="7.741" height="1.044"/>
		<rect x="135.487" y="-49.261" fill="#D9D9D9" width="6.196" height="1.044"/>
		<rect x="165.775" y="-51.19" fill="#D9D9D9" width="4.623" height="1.044"/>
		<rect x="165.775" y="-49.261" fill="#D9D9D9" width="3.703" height="1.044"/>
		<rect x="74.275" y="-3.863" fill="#B8B8B8" width="4.851" height="1.389"/>
		<rect x="104.988" y="-3.863" fill="#B8B8B8" width="4.851" height="1.389"/>
		<rect x="135.487" y="-3.863" fill="#B8B8B8" width="4.851" height="1.389"/>
		<rect x="165.984" y="-3.863" fill="#B8B8B8" width="4.851" height="1.389"/>
		<g>
			<path fill="#E96B56" d="M155.202-18.126c-9.512,0-17.781-3.653-26.401-7.468c-10.64-4.706-21.65-9.577-36.311-8.24
				c-9.366,0.849-15.242,4.239-20.424,7.233c-4.693,2.709-9.132,5.091-15.141,5.295c-9.716,0.329-13.084-3.354-13.142-3.577v-2.367
				l0,0l0,0c0.009,0.04,2.134,4.178,13.128,4.131c5.419-0.023,9.418-2.33,14.042-5.003c5.378-3.102,11.475-6.62,21.33-7.513
				c15.254-1.389,26.529,3.598,37.429,8.422c11.405,5.043,22.297,9.776,36.062,5.675v1.946
				C161.848-18.434,158.711-18.126,155.202-18.126z"/>
		</g>
		<g>
			<path fill="#E96B56" d="M98.101-18.576c-7.022,0-12.59-4.201-18.043-8.316c-4.137-3.114-8.425-6.305-13.376-7.877
				c-15.106-4.796-22.841,3.965-22.906,4.041v-2.668c0.08-0.091,1.462-1.681,5.451-3.203c3.63-1.382,9.723-2.488,18.133,0.111
				c5.326,1.645,9.748,4.98,14.026,8.205c8.673,6.541,16.168,12.192,29.178,3.345c9.859-6.703,19.147-13.092,28.288-15.422
				c8.941-2.285,18.267-0.611,26.989,7.151l-0.067,2.421c-18.53-16.558-34.313-6.066-53.975,7.298
				C106.602-19.948,102.115-18.576,98.101-18.576z"/>
		</g>
	</g>
</g>
<g id="XMLID_769_">
	<polygon id="XMLID_771_" fill="#E96B56" points="232.982,-45.455 227.167,-43.862 228.84,-42.452 216.714,-32.426 206.375,-34.474 
		191.846,-20.117 193.318,-19.111 207.007,-32.965 217.247,-30.741 229.697,-41.715 231.195,-40.447 	"/>
	<path id="XMLID_770_" fill="#E96B56" d="M236.709-5.393v-30.426c0-0.419-0.398-0.757-0.893-0.757h-8.715
		c-0.49,0-0.893,0.344-0.893,0.757v30.426h-1.134v-21.905c0-0.418-0.399-0.758-0.894-0.758h-8.713c-0.488,0-0.892,0.345-0.892,0.758
		v21.905h-1.128V-21.24c0-0.419-0.398-0.757-0.896-0.757h-8.716c-0.493,0-0.892,0.344-0.892,0.757v15.847h-1.129v-8.651
		c0-0.42-0.401-0.758-0.893-0.758h-8.715c-0.491,0-0.896,0.343-0.896,0.758v8.651h-3.432v2.926H240.3v-2.926H236.709z"/>
</g>
</svg>
