<?xml version="1.0" encoding="utf-8"?>
<!-- Generator: Adobe Illustrator 16.0.0, SVG Export Plug-In . SVG Version: 6.00 Build 0)  -->
<!DOCTYPE svg PUBLIC "-//W3C//DTD SVG 1.1//EN" "http://www.w3.org/Graphics/SVG/1.1/DTD/svg11.dtd">
<svg version="1.1" id="Layer_1" xmlns="http://www.w3.org/2000/svg" xmlns:xlink="http://www.w3.org/1999/xlink" x="0px" y="0px"
	 width="300px" height="100px" viewBox="0 0 300 100" enable-background="new 0 0 300 100" xml:space="preserve">
<g>
	<path opacity="0.5" fill="#771818" enable-background="new    " d="M154.644,88.307l-36.845-20.836
		c-1.042-0.589-0.911-1.618,0.292-2.3l25.091-14.182c1.204-0.68,3.024-0.755,4.067-0.165l36.847,20.834
		c1.043,0.589,0.912,1.618-0.292,2.3l-25.091,14.183C157.508,88.822,155.688,88.896,154.644,88.307z"/>
	<path fill="#771818" d="M196.389,27.371L156.791,4.982c-0.46-0.26-0.928-0.3-1.342-0.162l0.002-0.003l-0.072,0.027
		c-0.006,0.002-0.012,0.003-0.02,0.007l-1.43,0.536l1.283,0.616c-0.006,0.024-0.013,0.046-0.019,0.069L148.2,37.231
		c-0.324,1.438,0.323,3.118,1.443,3.752l38.646,21.851l-0.139,1.604l1.564-0.592c0.525-0.24,0.945-0.785,1.119-1.561l6.997-31.162
		C198.154,29.684,197.51,28.003,196.389,27.371z"/>
	<path fill="#A83939" d="M196.389,27.371L156.791,4.982c-0.46-0.26-0.928-0.3-1.342-0.162l0.002-0.003l-0.072,0.027
		c-0.006,0.002-0.012,0.003-0.02,0.007l-1.43,0.536l1.283,0.616c-0.006,0.024-0.013,0.046-0.019,0.069L150.4,27.429l19.375,14.784
		l27.866-13.295C197.377,28.251,196.939,27.684,196.389,27.371z"/>
	<path fill="#872727" d="M194.895,31.791l3.015-1.256c0.055-1.144-0.427-2.324-1.222-2.957l-4.771,1.965L194.895,31.791z"/>
	<path fill="#E96B56" d="M186.776,64.287l-39.598-22.391c-1.12-0.633-1.767-2.313-1.444-3.753l6.996-31.162
		c0.324-1.438,1.493-2.093,2.613-1.458l39.598,22.389c1.121,0.633,1.768,2.313,1.443,3.753l-6.996,31.162
		C189.065,64.268,187.896,64.92,186.776,64.287z"/>
	<path fill="#FFFFFF" d="M195.322,27.778L155.724,5.387c-0.542-0.307-1.095-0.307-1.56-0.067c0.372-0.08,0.777-0.023,1.178,0.202
		l39.598,22.389c1.121,0.632,1.768,2.313,1.444,3.752l-6.997,31.162c-0.166,0.742-0.56,1.27-1.053,1.526
		c0.67-0.145,1.229-0.736,1.436-1.662l6.996-31.162C197.088,30.091,196.441,28.411,195.322,27.778z"/>
	<path fill="#FFFFFF" d="M185.918,62.147L148.676,41.1c-1.025-0.58-1.616-2.117-1.322-3.435l6.449-28.72
		c0.294-1.316,1.365-1.915,2.391-1.334l37.242,21.049c1.025,0.58,1.616,2.116,1.321,3.435l-6.449,28.718
		C188.013,62.129,186.941,62.727,185.918,62.147z"/>
	<path fill="#771818" d="M185.918,62.147L148.676,41.1c-1.025-0.58-1.616-2.117-1.322-3.435l6.449-28.72
		c0.294-1.316,1.365-1.915,2.391-1.334l37.242,21.049c1.025,0.58,1.616,2.116,1.321,3.435l-6.449,28.718
		C188.013,62.129,186.941,62.727,185.918,62.147z"/>
	<path fill="#CC5858" d="M186.242,62.018l-37.24-21.047c-1.025-0.58-1.617-2.116-1.322-3.433l6.449-28.72
		c0.149-0.667,0.498-1.146,0.938-1.386c-0.591,0.149-1.078,0.691-1.264,1.515l-6.449,28.72c-0.294,1.316,0.296,2.854,1.322,3.434
		l37.24,21.047c0.506,0.286,1.023,0.284,1.453,0.052C187.017,62.287,186.625,62.234,186.242,62.018z"/>
	<path fill="#771818" d="M187.322,65.262l-5.413-0.699l-34.94-19.757c-1.12-0.633-3.077-0.555-4.371,0.178l-24.756,13.993
		l-3.272-0.424v1.818h0.003c-0.022,0.42,0.224,0.825,0.751,1.123l39.598,22.39c1.12,0.633,3.076,0.554,4.371-0.179l26.963-15.24
		c0.728-0.41,1.092-0.941,1.07-1.439l0,0v-1.764H187.322z"/>
	<path fill="#A83939" d="M161.069,52.778l-2.481-1.403h-27.292l-13.455,7.602l-3.272-0.424v1.818h0.003
		c-0.022,0.42,0.224,0.825,0.751,1.123l39.598,22.39c0.593,0.335,1.418,0.469,2.254,0.415L161.069,52.778z"/>
	<path fill="#CC5858" d="M116.02,58.742l-1.453-0.188v1.818h0.003c-0.021,0.42,0.224,0.825,0.751,1.123l0.698,0.395V58.742z"/>
	<path fill="#872727" d="M155.32,84.067c1.062,0.395,2.58,0.31,3.713-0.226v-4.057h-3.713V84.067z"/>
	<path fill="#E96B56" d="M154.92,82.069l-39.596-22.39c-1.12-0.633-0.98-1.74,0.314-2.471l26.964-15.24
		c1.292-0.731,3.25-0.811,4.371-0.178L186.57,64.18c1.121,0.633,0.98,1.74-0.314,2.471l-26.963,15.24
		C157.996,82.623,156.04,82.701,154.92,82.069z"/>
	<path fill="#FFFFFF" d="M186.253,65.987l-26.964,15.239c-1.293,0.731-3.251,0.812-4.371,0.179l-39.594-22.391
		c-0.367-0.208-0.597-0.468-0.696-0.745c-0.175,0.518,0.047,1.043,0.696,1.41l39.598,22.39c1.12,0.632,3.076,0.554,4.371-0.179
		l26.963-15.24c0.869-0.49,1.215-1.152,1.012-1.725C187.137,65.304,186.799,65.678,186.253,65.987z"/>
	<g>
		<path fill="#5793CE" d="M132.164,52.268l-1.791-1.014c-0.144-0.081-0.125-0.223,0.04-0.317l2.115-1.196
			c0.166-0.095,0.418-0.104,0.562-0.024l1.791,1.012c0.144,0.082,0.125,0.225-0.04,0.318l-2.114,1.197
			C132.56,52.338,132.309,52.35,132.164,52.268z"/>
		<path fill="#CC5858" d="M134.931,53.831l-1.791-1.013c-0.144-0.082-0.125-0.224,0.04-0.318l2.114-1.196
			c0.166-0.095,0.418-0.104,0.562-0.024l1.791,1.014c0.144,0.082,0.125,0.224-0.04,0.318l-2.115,1.195
			C135.326,53.904,135.075,53.912,134.931,53.831z"/>
		<path fill="#CC5858" d="M137.698,55.396l-1.791-1.013c-0.144-0.082-0.125-0.224,0.04-0.318l2.115-1.196
			c0.165-0.095,0.418-0.104,0.562-0.023l1.791,1.013c0.144,0.081,0.125,0.224-0.04,0.317l-2.115,1.197
			C138.093,55.467,137.842,55.479,137.698,55.396z"/>
		<path fill="#CC5858" d="M141.525,54.104l-1.791-1.013c-0.144-0.081-0.125-0.224,0.04-0.317l1.775-1.004
			c0.165-0.095,0.418-0.104,0.562-0.023l1.791,1.012c0.144,0.082,0.125,0.225-0.04,0.318l-1.774,1.004
			C141.92,54.175,141.669,54.186,141.525,54.104z"/>
		<path fill="#CC5858" d="M144.291,55.669l-1.791-1.013c-0.144-0.082-0.125-0.224,0.04-0.318l1.774-1.004
			c0.166-0.094,0.418-0.104,0.562-0.023l1.791,1.014c0.144,0.081,0.125,0.223-0.04,0.317l-1.775,1.004
			C144.688,55.74,144.435,55.749,144.291,55.669z"/>
		<path fill="#CC5858" d="M147.058,57.232l-1.791-1.012c-0.144-0.082-0.125-0.225,0.04-0.318l1.775-1.004
			c0.165-0.095,0.418-0.104,0.562-0.023l1.791,1.012c0.144,0.082,0.125,0.225-0.04,0.318l-1.774,1.004
			C147.453,57.304,147.202,57.314,147.058,57.232z"/>
		<path fill="#5793CE" d="M149.826,58.799l-1.791-1.014c-0.144-0.082-0.125-0.223,0.04-0.318l1.774-1.003
			c0.166-0.095,0.418-0.104,0.562-0.024l1.79,1.014c0.145,0.082,0.126,0.223-0.039,0.318l-1.775,1.003
			C150.22,58.869,149.969,58.878,149.826,58.799z"/>
		<path fill="#5793CE" d="M152.591,60.361L150.8,59.35c-0.144-0.082-0.126-0.225,0.04-0.318l1.775-1.004
			c0.164-0.095,0.418-0.104,0.561-0.023l1.791,1.013c0.145,0.081,0.126,0.224-0.039,0.317l-1.775,1.004
			C152.987,60.433,152.736,60.443,152.591,60.361z"/>
		<path fill="#5793CE" d="M155.358,61.926l-1.791-1.014c-0.144-0.081-0.126-0.223,0.04-0.317l1.774-1.004
			c0.165-0.095,0.418-0.104,0.562-0.023l1.791,1.013c0.145,0.082,0.125,0.224-0.04,0.318l-1.774,1.004
			C155.754,61.998,155.502,62.008,155.358,61.926z"/>
		<path fill="#5793CE" d="M158.125,63.49l-1.791-1.012c-0.143-0.082-0.125-0.225,0.041-0.318l1.773-1.004
			c0.166-0.094,0.419-0.104,0.563-0.023l1.791,1.013c0.144,0.082,0.125,0.224-0.04,0.318l-1.774,1.003
			C158.52,63.563,158.27,63.572,158.125,63.49z"/>
		<path fill="#5793CE" d="M160.893,65.055l-1.791-1.013c-0.144-0.082-0.125-0.224,0.04-0.318l1.774-1.003
			c0.166-0.096,0.418-0.104,0.563-0.024l1.791,1.013c0.143,0.082,0.125,0.224-0.041,0.318l-1.773,1.004
			C161.287,65.127,161.036,65.137,160.893,65.055z"/>
		<path fill="#5793CE" d="M163.658,66.62l-1.791-1.013c-0.144-0.082-0.125-0.224,0.04-0.318l1.774-1.004
			c0.166-0.094,0.418-0.104,0.563-0.023l1.791,1.013c0.143,0.082,0.125,0.224-0.041,0.318l-1.773,1.003
			C164.055,66.691,163.804,66.701,163.658,66.62z"/>
		<path fill="#5793CE" d="M166.426,68.184l-1.791-1.013c-0.145-0.082-0.125-0.224,0.039-0.318l1.775-1.003
			c0.166-0.096,0.418-0.104,0.562-0.024l1.791,1.013c0.144,0.082,0.126,0.225-0.04,0.318l-1.774,1.004
			C166.822,68.254,166.569,68.266,166.426,68.184z"/>
		<path fill="#CC5858" d="M145.602,53.363l-1.791-1.012c-0.144-0.082-0.125-0.225,0.04-0.318l1.774-1.004
			c0.166-0.095,0.418-0.104,0.562-0.023l1.791,1.012c0.144,0.082,0.125,0.225-0.04,0.318l-1.774,1.004
			C145.997,53.435,145.746,53.445,145.602,53.363z"/>
		<path fill="#CC5858" d="M142.793,51.776l-1.791-1.013c-0.144-0.082-0.125-0.224,0.04-0.318l1.774-1.003
			c0.166-0.095,0.418-0.104,0.562-0.024l1.791,1.013c0.144,0.082,0.125,0.224-0.04,0.318l-1.774,1.004
			C143.189,51.848,142.937,51.856,142.793,51.776z"/>
		<path fill="#CC5858" d="M139.98,50.186l-3.858-2.182c-0.144-0.082-0.125-0.224,0.04-0.318l1.775-1.004
			c0.166-0.094,0.418-0.104,0.562-0.023l3.858,2.182c0.144,0.082,0.125,0.224-0.04,0.318l-1.774,1.003
			C140.376,50.256,140.124,50.267,139.98,50.186z"/>
		<path fill="#CC5858" d="M141.947,48.251l-3.131-1.771c-0.144-0.082-0.125-0.224,0.04-0.318l1.774-1.003
			c0.166-0.095,0.418-0.104,0.562-0.023l3.131,1.771c0.144,0.082,0.125,0.224-0.04,0.318l-1.774,1.003
			C142.342,48.322,142.091,48.333,141.947,48.251z"/>
		<path fill="#CC5858" d="M148.367,54.928l-1.791-1.014c-0.144-0.082-0.125-0.223,0.04-0.318l1.775-1.003
			c0.165-0.095,0.418-0.104,0.562-0.023l1.792,1.013c0.143,0.082,0.125,0.224-0.041,0.318l-1.774,1.004
			C148.764,54.998,148.513,55.01,148.367,54.928z"/>
		<path fill="#5793CE" d="M151.135,56.492l-1.791-1.012c-0.144-0.082-0.125-0.225,0.04-0.318l1.774-1.004
			c0.166-0.095,0.418-0.104,0.563-0.023l1.79,1.013c0.144,0.081,0.126,0.224-0.04,0.317l-1.774,1.004
			C151.531,56.563,151.278,56.574,151.135,56.492z"/>
		<path fill="#5793CE" d="M153.902,58.057l-1.791-1.014c-0.145-0.081-0.126-0.223,0.039-0.317l1.775-1.004
			c0.165-0.095,0.418-0.104,0.562-0.023l1.791,1.013c0.144,0.082,0.126,0.224-0.04,0.318l-1.774,1.004
			C154.297,58.127,154.045,58.139,153.902,58.057z"/>
		<path fill="#5793CE" d="M156.669,59.622l-1.79-1.013c-0.145-0.082-0.126-0.225,0.039-0.318l1.775-1.004
			c0.165-0.094,0.418-0.104,0.561-0.023l1.791,1.013c0.145,0.082,0.126,0.224-0.039,0.318l-1.775,1.003
			C157.063,59.693,156.813,59.701,156.669,59.622z"/>
		<path fill="#5793CE" d="M159.435,61.186l-1.791-1.013c-0.144-0.082-0.126-0.224,0.04-0.318l1.774-1.003
			c0.165-0.096,0.419-0.104,0.562-0.024l1.791,1.013c0.145,0.082,0.126,0.224-0.039,0.318l-1.775,1.004
			C159.831,61.256,159.58,61.268,159.435,61.186z"/>
		<path fill="#5793CE" d="M162.201,62.751l-1.79-1.013c-0.144-0.082-0.126-0.224,0.04-0.318l1.774-1.004
			c0.165-0.094,0.418-0.104,0.562-0.023l1.791,1.013c0.144,0.082,0.125,0.224-0.04,0.318l-1.774,1.003
			C162.596,62.822,162.346,62.831,162.201,62.751z"/>
		<path fill="#5793CE" d="M164.969,64.314l-1.791-1.013c-0.143-0.081-0.125-0.224,0.041-0.318l1.773-1.003
			c0.166-0.096,0.419-0.104,0.563-0.023l1.791,1.012c0.144,0.082,0.125,0.225-0.04,0.318l-1.774,1.004
			C165.363,64.385,165.113,64.396,164.969,64.314z"/>
		<path fill="#5793CE" d="M167.736,65.878l-1.791-1.013c-0.144-0.082-0.125-0.224,0.04-0.318l1.774-1.004
			c0.166-0.094,0.418-0.104,0.563-0.023l1.791,1.014c0.143,0.082,0.125,0.223-0.041,0.318l-1.773,1.003
			C168.131,65.951,167.88,65.96,167.736,65.878z"/>
		<path fill="#5793CE" d="M170.502,67.443l-1.791-1.013c-0.144-0.081-0.125-0.224,0.04-0.317l1.774-1.004
			c0.166-0.095,0.418-0.104,0.563-0.023l1.791,1.012c0.143,0.082,0.125,0.225-0.041,0.318l-1.774,1.004
			C170.898,67.515,170.647,67.525,170.502,67.443z"/>
		<path fill="#5793CE" d="M175.422,70.226l-3.909-2.211c-0.144-0.082-0.126-0.224,0.04-0.318l1.774-1.003
			c0.165-0.096,0.419-0.104,0.562-0.024l3.91,2.211c0.143,0.082,0.125,0.224-0.041,0.318l-1.774,1.003
			C175.816,70.297,175.565,70.306,175.422,70.226z"/>
		<path fill="#5793CE" d="M180.807,67.178l-3.299-1.865c-0.145-0.082-0.126-0.224,0.039-0.318l1.775-1.004
			c0.165-0.094,0.418-0.104,0.562-0.023l3.3,1.865c0.144,0.082,0.125,0.225-0.04,0.318l-1.774,1.004
			C181.203,67.251,180.951,67.26,180.807,67.178z"/>
		<path fill="#5793CE" d="M153.213,54.622l-1.791-1.013c-0.144-0.082-0.125-0.225,0.04-0.318l1.774-1.004
			c0.166-0.094,0.418-0.104,0.563-0.023l1.79,1.013c0.144,0.082,0.126,0.224-0.04,0.318l-1.774,1.003
			C153.609,54.693,153.356,54.703,153.213,54.622z"/>
		<path fill="#CC5858" d="M150.378,53.018l-1.791-1.012c-0.144-0.082-0.125-0.225,0.04-0.318l1.774-1.004
			c0.166-0.095,0.418-0.104,0.562-0.023l1.79,1.013c0.145,0.081,0.126,0.224-0.039,0.317l-1.775,1.004
			C150.773,53.089,150.521,53.1,150.378,53.018z"/>
		<path fill="#CC5858" d="M147.542,51.414l-1.791-1.012c-0.144-0.082-0.125-0.224,0.04-0.318l1.774-1.003
			c0.166-0.095,0.418-0.104,0.562-0.024l1.791,1.013c0.144,0.082,0.125,0.224-0.04,0.318l-1.775,1.003
			C147.937,51.485,147.686,51.496,147.542,51.414z"/>
		<path fill="#CC5858" d="M144.707,49.811l-1.791-1.013c-0.144-0.082-0.125-0.224,0.04-0.318l1.774-1.003
			c0.166-0.095,0.418-0.104,0.562-0.024l1.791,1.013c0.144,0.082,0.125,0.224-0.04,0.318l-1.774,1.003
			C145.102,49.884,144.851,49.893,144.707,49.811z"/>
		<path fill="#5793CE" d="M155.98,56.186l-1.791-1.013c-0.145-0.082-0.126-0.224,0.039-0.318l1.775-1.003
			c0.165-0.096,0.418-0.104,0.562-0.024l1.791,1.013c0.144,0.082,0.126,0.224-0.04,0.318l-1.774,1.004
			C156.375,56.258,156.123,56.268,155.98,56.186z"/>
		<path fill="#5793CE" d="M158.747,57.751l-1.79-1.013c-0.145-0.082-0.126-0.224,0.039-0.318l1.775-1.004
			c0.165-0.094,0.418-0.104,0.561-0.023l1.791,1.013c0.145,0.082,0.126,0.224-0.039,0.318l-1.775,1.003
			C159.142,57.822,158.891,57.832,158.747,57.751z"/>
		<path fill="#5793CE" d="M161.515,59.314l-1.791-1.013c-0.144-0.081-0.126-0.224,0.04-0.318l1.774-1.003
			c0.165-0.096,0.419-0.104,0.562-0.023l1.791,1.012c0.145,0.082,0.126,0.225-0.039,0.318l-1.775,1.004
			C161.909,59.385,161.658,59.396,161.515,59.314z"/>
		<path fill="#5793CE" d="M164.279,60.88l-1.79-1.013c-0.144-0.082-0.126-0.224,0.04-0.318l1.774-1.004
			c0.165-0.094,0.418-0.104,0.562-0.023l1.791,1.014c0.144,0.081,0.125,0.223-0.04,0.317l-1.774,1.004
			C164.676,60.951,164.424,60.962,164.279,60.88z"/>
		<path fill="#5793CE" d="M167.047,62.443l-1.791-1.013c-0.143-0.081-0.125-0.224,0.041-0.317l1.773-1.004
			c0.166-0.095,0.419-0.104,0.563-0.023l1.791,1.012c0.144,0.082,0.125,0.225-0.04,0.318l-1.774,1.004
			C167.441,62.515,167.191,62.525,167.047,62.443z"/>
		<path fill="#5793CE" d="M169.814,64.01l-1.791-1.014c-0.144-0.082-0.125-0.223,0.04-0.318l1.774-1.003
			c0.166-0.095,0.418-0.104,0.563-0.024l1.791,1.014c0.143,0.082,0.125,0.223-0.041,0.318l-1.773,1.003
			C170.209,64.08,169.958,64.089,169.814,64.01z"/>
		<path fill="#5793CE" d="M172.582,65.572l-1.791-1.012c-0.144-0.082-0.125-0.225,0.04-0.318l1.774-1.004
			c0.166-0.095,0.418-0.104,0.563-0.023l1.79,1.012c0.144,0.082,0.126,0.225-0.04,0.318l-1.774,1.004
			C172.977,65.644,172.726,65.654,172.582,65.572z"/>
		<path fill="#5793CE" d="M175.348,67.139l-1.791-1.014c-0.145-0.082-0.126-0.223,0.039-0.318l1.775-1.003
			c0.165-0.095,0.418-0.104,0.562-0.024l1.791,1.014c0.144,0.082,0.126,0.224-0.04,0.318l-1.774,1.004
			C175.744,67.209,175.49,67.219,175.348,67.139z"/>
		<path fill="#5793CE" d="M178.115,68.701l-1.791-1.012c-0.145-0.082-0.126-0.225,0.039-0.318l1.775-1.004
			c0.165-0.094,0.418-0.104,0.562-0.023l1.79,1.013c0.145,0.081,0.126,0.224-0.039,0.318l-1.775,1.003
			C178.51,68.773,178.258,68.783,178.115,68.701z"/>
		<path fill="#CC5858" d="M151.756,50.753l-1.791-1.013c-0.144-0.082-0.125-0.224,0.04-0.318l1.774-1.004
			c0.166-0.094,0.419-0.104,0.563-0.023l1.791,1.013c0.144,0.082,0.125,0.224-0.04,0.318l-1.774,1.003
			C152.15,50.824,151.9,50.832,151.756,50.753z"/>
		<path fill="#CC5858" d="M149.003,49.196l-1.791-1.013c-0.144-0.082-0.125-0.224,0.04-0.318l1.774-1.003
			c0.166-0.095,0.418-0.104,0.562-0.023l1.791,1.013c0.144,0.082,0.126,0.224-0.04,0.318l-1.774,1.004
			C149.398,49.267,149.147,49.276,149.003,49.196z"/>
		<path fill="#CC5858" d="M146.251,47.638l-1.791-1.013c-0.144-0.082-0.125-0.224,0.04-0.318l1.774-1.003
			c0.166-0.095,0.418-0.104,0.562-0.024l1.791,1.013c0.144,0.082,0.125,0.224-0.04,0.318l-1.775,1.004
			C146.646,47.709,146.395,47.72,146.251,47.638z"/>
		<path fill="#CC5858" d="M143.498,46.082l-1.791-1.013c-0.144-0.082-0.125-0.224,0.04-0.318l1.775-1.004
			c0.166-0.094,0.418-0.104,0.562-0.023l1.791,1.013c0.144,0.082,0.125,0.224-0.04,0.318l-1.774,1.003
			C143.893,46.153,143.642,46.164,143.498,46.082z"/>
		<path fill="#CC5858" d="M146.329,44.482l-1.791-1.013c-0.144-0.082-0.125-0.224,0.04-0.318l0.587-0.333
			c0.166-0.095,0.418-0.104,0.562-0.024l1.791,1.013c0.144,0.082,0.125,0.224-0.04,0.318l-0.587,0.331
			C146.724,44.553,146.473,44.563,146.329,44.482z"/>
		<path fill="#CC5858" d="M149.922,46.513l-1.791-1.013c-0.144-0.082-0.125-0.224,0.04-0.318l0.587-0.331
			c0.166-0.095,0.418-0.104,0.562-0.024l1.792,1.013c0.143,0.082,0.125,0.224-0.041,0.318l-0.587,0.333
			C150.316,46.583,150.065,46.595,149.922,46.513z"/>
		<path fill="#CC5858" d="M152.662,48.063l-1.791-1.013c-0.145-0.082-0.125-0.224,0.04-0.318l0.587-0.331
			c0.166-0.095,0.418-0.104,0.563-0.024l1.791,1.013c0.143,0.082,0.125,0.224-0.041,0.318l-0.587,0.333
			C153.059,48.135,152.807,48.144,152.662,48.063z"/>
		<path fill="#CC5858" d="M155.404,49.613l-1.791-1.013c-0.145-0.082-0.126-0.224,0.039-0.318l0.588-0.333
			c0.165-0.095,0.418-0.104,0.562-0.024l1.791,1.013c0.144,0.082,0.126,0.224-0.04,0.318l-0.588,0.331
			C155.8,49.684,155.547,49.694,155.404,49.613z"/>
		<path fill="#CC5858" d="M158.146,51.164l-1.791-1.013c-0.144-0.082-0.126-0.224,0.04-0.318l0.588-0.331
			c0.165-0.095,0.418-0.104,0.561-0.024l1.791,1.013c0.145,0.082,0.126,0.224-0.039,0.318l-0.588,0.333
			C158.54,51.234,158.289,51.246,158.146,51.164z"/>
		<path fill="#5793CE" d="M173.451,59.818l-1.791-1.013c-0.144-0.082-0.125-0.224,0.04-0.318l0.587-0.331
			c0.166-0.094,0.418-0.104,0.563-0.023l1.791,1.013c0.143,0.081,0.125,0.224-0.041,0.318l-0.587,0.333
			C173.848,59.889,173.595,59.9,173.451,59.818z"/>
		<path fill="#5793CE" d="M176.193,61.367l-1.791-1.013c-0.145-0.081-0.126-0.224,0.039-0.318l0.588-0.331
			c0.165-0.094,0.418-0.104,0.562-0.023l1.791,1.013c0.144,0.082,0.126,0.224-0.04,0.318l-0.588,0.333
			C176.588,61.439,176.336,61.449,176.193,61.367z"/>
		<path fill="#5793CE" d="M178.935,62.918l-1.791-1.013c-0.144-0.081-0.126-0.224,0.04-0.317l0.588-0.334
			c0.165-0.094,0.418-0.104,0.561-0.023l1.791,1.014c0.145,0.082,0.126,0.223-0.039,0.318l-0.588,0.33
			C179.329,62.989,179.078,63,178.935,62.918z"/>
		<path fill="#5793CE" d="M181.676,64.469l-1.791-1.012c-0.143-0.082-0.125-0.225,0.041-0.318l0.587-0.332
			c0.165-0.094,0.418-0.104,0.562-0.023l1.791,1.014c0.145,0.081,0.125,0.223-0.039,0.318l-0.588,0.332
			C182.07,64.54,181.82,64.549,181.676,64.469z"/>
		<path fill="#CC5858" d="M154.523,52.316l-1.791-1.013c-0.144-0.082-0.125-0.224,0.041-0.318l1.773-1.003
			c0.166-0.095,0.418-0.104,0.563-0.024l1.791,1.013c0.143,0.082,0.125,0.224-0.041,0.318l-1.773,1.004
			C154.918,52.387,154.668,52.398,154.523,52.316z"/>
		<path fill="#CC5858" d="M157.291,53.882l-1.791-1.013c-0.144-0.082-0.125-0.224,0.04-0.318l1.774-1.004
			c0.166-0.094,0.418-0.104,0.563-0.023l1.791,1.013c0.143,0.082,0.125,0.224-0.041,0.318l-1.774,1.004
			C157.686,53.953,157.435,53.962,157.291,53.882z"/>
		<path fill="#CC5858" d="M160.057,55.445l-1.791-1.013c-0.145-0.081-0.125-0.224,0.04-0.317l1.774-1.004
			c0.166-0.095,0.418-0.104,0.562-0.023l1.791,1.012c0.144,0.082,0.126,0.225-0.04,0.318l-1.774,1.004
			C160.453,55.517,160.2,55.527,160.057,55.445z"/>
		<path fill="#CC5858" d="M162.824,57.01l-1.791-1.014c-0.145-0.082-0.126-0.223,0.039-0.318l1.775-1.003
			c0.165-0.095,0.418-0.104,0.562-0.024l1.791,1.014c0.144,0.082,0.126,0.223-0.04,0.318l-1.775,1.003
			C163.219,57.082,162.967,57.091,162.824,57.01z"/>
		<path fill="#CC5858" d="M165.591,58.574l-1.791-1.012c-0.144-0.082-0.126-0.225,0.04-0.318l1.775-1.004
			c0.164-0.095,0.418-0.104,0.561-0.023l1.791,1.012c0.145,0.082,0.126,0.225-0.039,0.318l-1.775,1.004
			C165.985,58.646,165.734,58.656,165.591,58.574z"/>
		<path fill="#CC5858" d="M168.358,60.139l-1.791-1.014c-0.144-0.082-0.126-0.223,0.04-0.318l1.774-1.003
			c0.165-0.095,0.418-0.104,0.562-0.024l1.791,1.014c0.145,0.082,0.125,0.224-0.04,0.318l-1.774,1.004
			C168.753,60.211,168.502,60.221,168.358,60.139z"/>
		<path fill="#5793CE" d="M171.123,61.703l-1.791-1.012c-0.143-0.082-0.125-0.225,0.041-0.318l1.774-1.004
			c0.165-0.095,0.418-0.104,0.562-0.023l1.791,1.013c0.144,0.081,0.125,0.224-0.04,0.317l-1.774,1.004
			C171.52,61.774,171.268,61.785,171.123,61.703z"/>
		<path fill="#5793CE" d="M173.891,63.268l-1.791-1.014c-0.143-0.081-0.125-0.223,0.041-0.317l1.773-1.004
			c0.166-0.095,0.418-0.104,0.563-0.023l1.791,1.013c0.144,0.082,0.125,0.224-0.041,0.318l-1.773,1.004
			C174.285,63.338,174.035,63.35,173.891,63.268z"/>
		<path fill="#5793CE" d="M176.658,64.832l-1.791-1.012c-0.144-0.082-0.125-0.225,0.04-0.318l1.774-1.004
			c0.166-0.094,0.418-0.104,0.563-0.023l1.791,1.013c0.143,0.082,0.125,0.224-0.041,0.318l-1.773,1.003
			C177.053,64.904,176.802,64.912,176.658,64.832z"/>
		<path fill="#CC5858" d="M138.706,52.51l-5.276-2.984c-0.144-0.082-0.125-0.224,0.04-0.318l1.774-1.003
			c0.166-0.095,0.418-0.104,0.562-0.023l5.276,2.984c0.144,0.082,0.125,0.223-0.04,0.318l-1.775,1.003
			C139.1,52.582,138.849,52.591,138.706,52.51z"/>
		<path fill="#CC5858" d="M172.696,71.729l-5.276-2.982c-0.144-0.082-0.125-0.225,0.04-0.318l1.774-1.004
			c0.166-0.095,0.418-0.104,0.563-0.023l5.275,2.983c0.145,0.081,0.126,0.224-0.039,0.317l-1.775,1.004
			C173.091,71.8,172.84,71.811,172.696,71.729z"/>
		<path fill="#5793CE" d="M161.631,68.93l-1.791-1.014c-0.144-0.082-0.125-0.223,0.04-0.318l2.114-1.195
			c0.166-0.096,0.418-0.104,0.563-0.024l1.791,1.013c0.143,0.082,0.125,0.225-0.041,0.318l-2.113,1.196
			C162.025,69,161.774,69.011,161.631,68.93z"/>
		<path fill="#CC5858" d="M141.538,57.567l-2.865-1.62c-0.144-0.082-0.125-0.224,0.04-0.318l2.114-1.196
			c0.166-0.095,0.418-0.104,0.562-0.023l2.865,1.62c0.144,0.082,0.125,0.224-0.04,0.318l-2.114,1.195
			C141.933,57.639,141.682,57.648,141.538,57.567z"/>
		<path fill="#5793CE" d="M158.965,67.422l-2.865-1.62c-0.143-0.081-0.125-0.224,0.041-0.318l2.113-1.196
			c0.166-0.094,0.419-0.104,0.563-0.023l2.865,1.62c0.145,0.081,0.125,0.224-0.04,0.317l-2.114,1.197
			C159.359,67.492,159.109,67.502,158.965,67.422z"/>
		<path fill="#CC5858" d="M145.531,59.826l-2.865-1.621c-0.144-0.082-0.125-0.223,0.04-0.318l2.114-1.195
			c0.166-0.096,0.418-0.104,0.562-0.023l2.865,1.619c0.144,0.082,0.125,0.224-0.04,0.318l-2.114,1.196
			C145.925,59.896,145.674,59.905,145.531,59.826z"/>
		<path fill="#5793CE" d="M145.4,56.68l12.458,7.044c0.154,0.087,0.154,0.229,0,0.316l-2.157,1.22c-0.154,0.088-0.404,0.088-0.56,0
			l-12.458-7.043L145.4,56.68z"/>
		<path fill="#CC5858" d="M169.363,71.766l1.996,1.129c0.119,0.067,0.104,0.184-0.032,0.26l-0.865,0.489
			c-0.136,0.077-0.342,0.085-0.46,0.019l-1.996-1.129c-0.119-0.068-0.104-0.184,0.032-0.26l0.866-0.49
			C169.04,71.707,169.246,71.698,169.363,71.766z"/>
		<path fill="#CC5858" d="M166.574,70.188l1.996,1.129c0.119,0.067,0.104,0.184-0.032,0.26l-0.865,0.489
			c-0.137,0.076-0.342,0.085-0.46,0.019l-1.996-1.129c-0.119-0.068-0.104-0.184,0.032-0.261l0.866-0.489
			C166.251,70.129,166.457,70.122,166.574,70.188z"/>
		<path fill="#5793CE" d="M163.807,68.623l1.997,1.13c0.118,0.067,0.104,0.184-0.032,0.26l-0.866,0.489
			c-0.136,0.076-0.342,0.086-0.46,0.018l-1.996-1.129c-0.118-0.066-0.104-0.184,0.033-0.26l0.865-0.489
			C163.483,68.565,163.689,68.557,163.807,68.623z"/>
		<path fill="#CC5858" d="M168.102,69.324l1.996,1.129c0.119,0.066,0.104,0.184-0.032,0.26l-0.865,0.488
			c-0.137,0.077-0.342,0.086-0.46,0.02l-1.996-1.13c-0.119-0.067-0.104-0.184,0.032-0.26l0.865-0.489
			C167.778,69.266,167.983,69.256,168.102,69.324z"/>
	</g>
	<g>
		<polygon fill="#E96B56" points="179.031,38.796 164.127,30.371 164.32,29.422 179.224,37.849 		"/>
		<polygon fill="#E96B56" points="173.693,40.398 163.291,34.517 163.482,33.567 173.885,39.449 		"/>
		<polygon fill="#FFFFFF" points="172.709,37.533 163.709,32.444 163.9,31.495 172.9,36.583 		"/>
		<polygon fill="#CC5858" points="178.613,40.871 174.113,38.325 174.304,37.376 178.804,39.922 		"/>
		<polygon fill="#E96B56" points="162.54,22.091 158.04,19.547 158.232,18.598 162.732,21.144 		"/>
		<polygon fill="#FFFFFF" points="162.053,24.296 157.553,21.753 157.744,20.804 162.244,23.347 		"/>
		<polygon fill="#D4ECFF" points="184.141,54.884 179.641,52.338 179.831,51.391 184.331,53.935 		"/>
		<polygon fill="#E96B56" points="161.076,28.707 156.576,26.162 156.768,25.214 161.268,27.758 		"/>
	</g>
	<g>
		<path fill="#CC5858" d="M170.799,29.391c-0.145,0.305-0.506,0.416-0.81,0.244c-0.304-0.171-0.433-0.559-0.289-0.866
			s0.505-0.417,0.81-0.244C170.813,28.696,170.941,29.083,170.799,29.391z"/>
		<path fill="#FFFFFF" d="M172.736,30.485c-0.144,0.308-0.506,0.417-0.809,0.244c-0.305-0.171-0.434-0.558-0.289-0.865
			c0.143-0.306,0.505-0.417,0.809-0.244S172.88,30.18,172.736,30.485z"/>
		<path fill="#FFD7D7" d="M174.674,31.582c-0.143,0.305-0.505,0.416-0.809,0.243c-0.303-0.171-0.433-0.558-0.289-0.865
			c0.145-0.306,0.506-0.417,0.809-0.244C174.689,30.889,174.818,31.276,174.674,31.582z"/>
		<path fill="#FFFFFF" d="M176.615,32.678c-0.145,0.305-0.506,0.417-0.81,0.244c-0.304-0.171-0.433-0.558-0.289-0.866
			c0.144-0.307,0.505-0.416,0.81-0.244C176.627,31.983,176.756,32.373,176.615,32.678z"/>
	</g>
</g>
<g>
	<g>
		<path fill="#771818" d="M143.865,27.742l-9.705-5.485c-0.193-0.109-0.386-0.113-0.551-0.04l0.002-0.005l-1.156,0.533
			c0,0,0.435,0.149,0.689,0.236l-1.4,6.92c-0.115,0.564,0.144,1.216,0.575,1.46l9.276,5.244l-0.164,0.813l1.169-0.537l-0.005-0.002
			c0.198-0.096,0.356-0.307,0.418-0.609l1.431-7.065C144.555,28.64,144.298,27.985,143.865,27.742z"/>
		<path fill="#CC5858" d="M140.846,37.387l-9.706-5.485c-0.431-0.244-0.689-0.898-0.575-1.46l1.431-7.065
			c0.114-0.564,0.556-0.822,0.987-0.578l9.706,5.485c0.431,0.244,0.689,0.898,0.575,1.46l-1.431,7.065
			C141.718,37.373,141.276,37.631,140.846,37.387z"/>
		<path fill="#FFFFFF" d="M142.909,28.198l-9.706-5.485c-0.226-0.127-0.455-0.115-0.636,0.005c0.133-0.022,0.274,0,0.416,0.08
			l9.706,5.485c0.431,0.244,0.689,0.898,0.575,1.462l-1.431,7.065c-0.054,0.267-0.184,0.463-0.351,0.573
			c0.269-0.044,0.495-0.28,0.571-0.658l1.431-7.065C143.598,29.096,143.34,28.442,142.909,28.198z"/>
	</g>
	<g>
		<path fill="#FFFFFF" d="M135.269,29.467c-0.083,0.409-0.443,0.575-0.805,0.371s-0.587-0.702-0.506-1.111
			c0.084-0.409,0.444-0.574,0.806-0.371C135.127,28.56,135.353,29.058,135.269,29.467z"/>
		<path fill="#FFFFFF" d="M137.253,30.587c-0.084,0.409-0.444,0.574-0.806,0.371s-0.587-0.702-0.505-1.111
			c0.083-0.409,0.443-0.574,0.805-0.371C137.111,29.682,137.336,30.18,137.253,30.587z"/>
		<path fill="#FFFFFF" d="M139.238,31.709c-0.084,0.409-0.444,0.575-0.806,0.371s-0.587-0.702-0.505-1.111
			c0.083-0.409,0.444-0.575,0.806-0.371S139.32,31.3,139.238,31.709z"/>
	</g>
</g>
<g>
	<g>
		<path fill="#CC5858" d="M139.509,18.858l-9.706-5.486c-0.193-0.109-0.386-0.113-0.551-0.04l0.001-0.005l-1.156,0.533
			c0,0,0.435,0.149,0.689,0.236l-1.4,6.92c-0.114,0.563,0.144,1.216,0.575,1.46l9.276,5.244l-0.164,0.813l1.169-0.536l-0.005-0.002
			c0.198-0.096,0.356-0.307,0.418-0.609l1.431-7.065C140.198,19.756,139.94,19.102,139.509,18.858z"/>
		<path fill="#E96B56" d="M136.487,28.503l-9.706-5.485c-0.431-0.244-0.689-0.898-0.575-1.46l1.431-7.065
			c0.115-0.563,0.556-0.822,0.987-0.578l9.706,5.485c0.431,0.244,0.689,0.898,0.574,1.46l-1.431,7.065
			C137.362,28.489,136.92,28.747,136.487,28.503z"/>
		<path fill="#FFFFFF" d="M138.551,19.314l-9.705-5.485c-0.226-0.127-0.455-0.115-0.637,0.005c0.133-0.022,0.274,0,0.417,0.08
			l9.706,5.485c0.431,0.244,0.689,0.898,0.574,1.462l-1.431,7.065c-0.055,0.267-0.184,0.464-0.351,0.573
			c0.269-0.043,0.495-0.28,0.571-0.658l1.431-7.065C139.24,20.213,138.983,19.558,138.551,19.314z"/>
	</g>
	<g>
		<path fill="#FFFFFF" d="M130.913,20.582c-0.083,0.409-0.443,0.574-0.805,0.371s-0.587-0.702-0.505-1.111
			c0.083-0.409,0.443-0.575,0.805-0.371C130.769,19.676,130.995,20.173,130.913,20.582z"/>
		<path fill="#FFFFFF" d="M132.896,21.704c-0.084,0.409-0.444,0.575-0.806,0.371s-0.587-0.702-0.505-1.111
			c0.083-0.409,0.444-0.575,0.806-0.371C132.753,20.798,132.978,21.294,132.896,21.704z"/>
		<path fill="#FFFFFF" d="M134.88,22.825c-0.083,0.409-0.443,0.575-0.805,0.371s-0.587-0.702-0.505-1.111
			c0.083-0.409,0.443-0.575,0.805-0.371C134.736,21.92,134.964,22.417,134.88,22.825z"/>
	</g>
</g>
<path fill="#FFFFFF" d="M144.644,72.46l-11.689-6.608c-0.34-0.193-0.298-0.529,0.095-0.752l7.054-3.988
	c0.393-0.223,0.987-0.246,1.327-0.055l11.689,6.609c0.34,0.192,0.298,0.528-0.095,0.75l-7.055,3.989
	C145.578,72.629,144.983,72.652,144.644,72.46z"/>
<g>
	<g>
		<polygon opacity="0.5" fill="#771818" enable-background="new    " points="131.569,92.144 127.704,89.958 131.569,87.771 
			135.437,89.958 		"/>
		<polygon fill="#771818" points="135.437,87.182 131.569,89.367 131.569,84.996 135.437,82.809 		"/>
		<polygon fill="#E96B56" points="131.569,84.996 127.704,82.809 131.569,80.623 135.437,82.809 		"/>
		<polygon fill="#CC5858" points="131.569,89.367 127.704,87.182 127.704,82.809 131.569,84.996 		"/>
	</g>
	<polygon fill="#FFFFFF" points="130.176,87.006 129.096,86.395 129.096,85.171 130.176,85.783 	"/>
</g>
<path opacity="0.5" fill="#771818" enable-background="new    " d="M157.459,77.463L140.6,67.93c-0.378-0.215-0.378-0.749,0-0.964
	l16.031-9.063l17.936,10.142c0.379,0.215,0.379,0.749,0,0.964l-14.954,8.455C158.947,77.839,158.125,77.839,157.459,77.463z"/>
<g>
	<g>
		<path fill="#911D1D" d="M156.951,51.889c0.002-1.049-0.753-1.476-1.68-0.952l-15.77,8.897c-0.255,0.145-0.462,0.495-0.462,0.782
			c0,0.289,0.206,0.405,0.462,0.262l15.77-8.897c0.418-0.236,0.758-0.044,0.758,0.429l-0.002,1.728
			c0.305-0.019,0.613-0.019,0.924-0.015V51.889z"/>
		<path fill="#771818" d="M139.497,63.985l15.769-5.627c0.928-0.524,1.684-1.802,1.684-2.851l0.002-1.383
			c-0.311-0.005-0.617-0.005-0.924,0.016l-0.002,1.889c0,0.473-0.342,1.049-0.76,1.285l-15.769,5.627
			c-0.255,0.145-0.462,0.495-0.462,0.782S139.24,64.129,139.497,63.985z"/>
	</g>
	<polygon fill="#911D1D" points="139.155,64.006 158.336,74.877 174.576,65.391 175.863,63.508 175.73,64.175 175.384,62.428 
		145.238,63.553 139.927,63.219 	"/>
	<polygon fill="#E85858" points="139.789,60.726 139.786,63.038 158.324,73.542 158.826,71.338 	"/>
	<polygon fill="#CC5858" points="175.625,61.684 156.475,50.832 139.207,60.668 139.171,60.909 158.352,71.774 	"/>
	<g>
		<path fill="#FFFFFF" d="M169.52,67.256l4.504-2.615c0.381-0.263,0.677-0.789,0.677-1.229l0.003-0.348
			c0-0.28-0.119-0.462-0.303-0.513l-8.864,4.829l-7.218,3.823l0.008,2.339L169.52,67.256z"/>
	</g>
	<path fill="#771818" d="M158.964,71.416l-19.029-10.781l-0.404-0.229l-0.369-0.209c-0.074,0.135-0.122,0.284-0.122,0.42
		c0,0.142,0.051,0.242,0.131,0.289l0,0l0.003,0.002h0.002l19.175,10.866L158.964,71.416z"/>
	<polygon fill="#FFFFFF" points="158.096,74.74 158.336,74.877 158.38,74.802 158.23,74.686 	"/>
	<polygon fill="#FFFFFF" points="158.102,71.635 158.348,71.773 158.285,71.642 	"/>
	<g>
		<path fill="#771818" d="M158.682,70.701l15.77-8.897c0.928-0.524,1.682-0.097,1.68,0.952l-0.004,0.348
			c-0.002,1.049-0.756,2.327-1.684,2.852l-15.77,8.897c-0.254,0.144-0.461,0.027-0.461-0.262s0.207-0.638,0.461-0.782l15.77-8.897
			c0.418-0.236,0.758-0.813,0.76-1.286l0.004-0.347c0-0.473-0.34-0.665-0.758-0.429l-15.77,8.897
			c-0.254,0.144-0.461,0.027-0.461-0.262C158.221,71.196,158.428,70.846,158.682,70.701z"/>
	</g>
	<g>
		<path fill="#FFFFFF" d="M158.213,74.591c0-0.289,0.207-0.638,0.461-0.782l15.77-8.897c0.418-0.236,0.758-0.813,0.76-1.286
			l0.004-0.347c0-0.31-0.145-0.499-0.363-0.525c0.07,0.091,0.111,0.22,0.111,0.382l-0.004,0.348c0,0.473-0.342,1.049-0.76,1.285
			l-15.77,8.898c-0.254,0.143-0.462,0.494-0.462,0.781c0,0.219,0.118,0.338,0.287,0.32C158.226,74.721,158.213,74.66,158.213,74.591
			z"/>
		<path fill="#FFFFFF" d="M158.221,71.485c0-0.289,0.207-0.638,0.461-0.782l15.77-8.897c0.4-0.226,0.766-0.274,1.055-0.173
			c-0.31-0.258-0.78-0.27-1.308,0.029l-15.769,8.898c-0.256,0.143-0.463,0.494-0.463,0.781c0,0.219,0.119,0.338,0.287,0.32
			C158.232,71.615,158.221,71.555,158.221,71.485z"/>
	</g>
	<polygon fill="#FFFFFF" points="150.928,61.898 159.627,56.989 167.173,61.264 158.473,66.173 	"/>
</g>
<g>
	<g>
		<path opacity="0.5" fill="#771818" enable-background="new    " d="M182.207,98.059l-11.76-6.649
			c-0.431-0.243-0.377-0.669,0.12-0.951l12.466-7.065c0.498-0.281,1.25-0.313,1.682-0.068l11.76,6.648
			c0.431,0.244,0.377,0.669-0.12,0.951l-12.466,7.065C183.391,98.271,182.639,98.302,182.207,98.059z"/>
		<g>
			
				<linearGradient id="SVGID_1_" gradientUnits="userSpaceOnUse" x1="1788.2109" y1="-1916.8555" x2="1788.2109" y2="-1764.7588" gradientTransform="matrix(0.1575 0.0909 0 -0.2099 -91.108 -482.9316)">
				<stop  offset="0" style="stop-color:#2D0979"/>
				<stop  offset="1" style="stop-color:#5B04F7"/>
			</linearGradient>
			<path fill="url(#SVGID_1_)" d="M196.742,85.551l-12.574-7.111c-0.49-0.275-0.887-1.018-0.887-1.656V47.313
				c0-0.638,0.396-0.933,0.887-0.656l12.574,7.111c0.488,0.275,0.885,1.018,0.885,1.656v29.471
				C197.627,85.533,197.23,85.827,196.742,85.551z"/>
			<path fill="#A83939" d="M196.742,53.768l-12.574-7.111c-0.219-0.124-0.419-0.133-0.573-0.049l0,0l-14.356,8.111l0.676,2.45
				l13.09,36.511l14.298-8.076c0.002-0.002,0.005-0.002,0.007-0.004l0.025-0.014v-0.002c0.179-0.111,0.293-0.352,0.293-0.691V55.426
				C197.627,54.785,197.23,54.043,196.742,53.768z"/>
			<path fill="#E96B56" d="M196.742,53.768l-12.574-7.111c-0.219-0.124-0.419-0.133-0.573-0.049l0,0l-14.356,8.111l0.676,2.45
				l3.601,10.04l0.679,0.384l23.187-13.11C197.219,54.175,196.992,53.909,196.742,53.768z"/>
			<path fill="#CC5858" d="M182.396,93.654l-12.574-7.109c-0.49-0.275-0.886-1.018-0.886-1.656V55.418
				c0-0.639,0.396-0.933,0.886-0.656l12.574,7.111c0.488,0.275,0.885,1.018,0.885,1.656V93
				C183.281,93.639,182.885,93.931,182.396,93.654z"/>
			
				<linearGradient id="SVGID_2_" gradientUnits="userSpaceOnUse" x1="1654.3828" y1="-1927.9268" x2="1731.7329" y2="-1910.3992" gradientTransform="matrix(0.1575 0.0909 0 -0.2099 -91.108 -482.9316)">
				<stop  offset="0" style="stop-color:#3919BB"/>
				<stop  offset="1" style="stop-color:#6507FA"/>
			</linearGradient>
			<path fill="url(#SVGID_2_)" d="M181.605,91.88l-10.992-6.216c-0.428-0.242-0.775-0.891-0.775-1.449V56.848
				c0-0.559,0.348-0.814,0.775-0.573l10.992,6.216c0.428,0.242,0.774,0.892,0.774,1.449v27.369
				C182.38,91.865,182.033,92.122,181.605,91.88z"/>
			
				<linearGradient id="SVGID_3_" gradientUnits="userSpaceOnUse" x1="1654.3828" y1="-1927.9268" x2="1731.7329" y2="-1910.3992" gradientTransform="matrix(0.1575 0.0909 0 -0.2099 -91.108 -482.9316)">
				<stop  offset="0" style="stop-color:#3919BB"/>
				<stop  offset="1" style="stop-color:#6507FA"/>
			</linearGradient>
			<path fill="url(#SVGID_3_)" d="M181.605,91.88l-10.992-6.216c-0.428-0.242-0.775-0.891-0.775-1.449V56.848
				c0-0.559,0.348-0.814,0.775-0.573l10.992,6.216c0.428,0.242,0.774,0.892,0.774,1.449v27.369
				C182.38,91.865,182.033,92.122,181.605,91.88z"/>
			<path fill="#771818" d="M181.605,91.88l-10.992-6.216c-0.428-0.242-0.775-0.891-0.775-1.449V56.848
				c0-0.559,0.348-0.814,0.775-0.573l10.992,6.216c0.428,0.242,0.774,0.892,0.774,1.449v27.369
				C182.38,91.865,182.033,92.122,181.605,91.88z"/>
			<path fill="#A83939" d="M181.964,91.675l-10.993-6.217c-0.428-0.241-0.774-0.891-0.774-1.448V56.641
				c0-0.191,0.042-0.344,0.11-0.457c-0.275-0.002-0.471,0.247-0.471,0.664v27.369c0,0.558,0.348,1.207,0.775,1.449l10.992,6.216
				c0.281,0.16,0.527,0.102,0.664-0.116C182.174,91.764,182.072,91.734,181.964,91.675z"/>
		</g>
	</g>
</g>
<g>
	<g>
		<path fill="#771818" d="M181.605,79.314l-4.086-2.311l-6.516,3.686l11.376,6.433v-6.358
			C182.38,80.205,182.033,79.557,181.605,79.314z"/>
		<path fill="#771818" d="M181.605,73.707l-4.086-2.311l-6.516,3.686l11.376,6.433v-6.358
			C182.38,74.596,182.033,73.949,181.605,73.707z"/>
		<path fill="#771818" d="M181.605,68.098l-4.086-2.311l-6.516,3.686l11.376,6.433v-6.358
			C182.38,68.989,182.033,68.34,181.605,68.098z"/>
		<path fill="#771818" d="M181.605,62.489l-4.086-2.312l-6.516,3.686l11.376,6.434v-6.359
			C182.38,63.38,182.033,62.73,181.605,62.489z"/>
		<path fill="#771818" d="M181.605,62.489l-9.045-5.114l-1.557,0.879l11.376,6.434v-0.75C182.38,63.38,182.033,62.73,181.605,62.489
			z"/>
	</g>
	<polygon fill="#CC5858" points="182.38,64.689 171.004,58.256 171.004,61.8 182.38,68.232 	"/>
	<polygon fill="#CC5858" points="182.38,70.297 171.004,63.863 171.004,67.409 182.38,73.842 	"/>
	<polygon fill="#CC5858" points="182.38,75.905 171.004,69.473 171.004,73.018 182.38,79.449 	"/>
	<polygon fill="#CC5858" points="182.38,81.513 171.004,75.082 171.004,78.625 182.38,85.059 	"/>
	<polygon fill="#CC5858" points="182.38,87.122 171.004,80.689 171.004,84.234 182.38,90.668 	"/>
</g>
<g>
	<path fill="#771818" d="M181.377,66.969l-8.57-4.846c-0.241-0.136-0.438-0.503-0.438-0.819v-0.949c0-0.316,0.196-0.462,0.438-0.323
		l8.57,4.846c0.241,0.136,0.438,0.503,0.438,0.819v0.949C181.814,66.962,181.618,67.107,181.377,66.969z"/>
	<path opacity="0.3" fill="#3D0404" enable-background="new    " d="M173.24,61.943c-0.242-0.137-0.438-0.504-0.438-0.82v-0.948
		c0-0.052,0.007-0.095,0.017-0.137l-0.012-0.005c-0.241-0.137-0.438,0.009-0.438,0.323v0.949c0,0.316,0.196,0.684,0.438,0.819
		l8.57,4.846c0.203,0.115,0.372,0.029,0.422-0.188L173.24,61.943z"/>
	<path fill="#FFFFFF" d="M178.688,64.367l-5.156-2.916c-0.086-0.047-0.154-0.177-0.154-0.289l0,0c0-0.111,0.068-0.162,0.154-0.115
		l5.156,2.917c0.086,0.047,0.154,0.177,0.154,0.289l0,0C178.842,64.365,178.773,64.416,178.688,64.367z"/>
</g>
<g>
	<path fill="#771818" d="M181.377,72.543l-8.57-4.845c-0.241-0.136-0.438-0.504-0.438-0.82V65.93c0-0.316,0.196-0.463,0.438-0.324
		l8.57,4.846c0.241,0.137,0.438,0.504,0.438,0.82v0.949C181.814,72.535,181.618,72.68,181.377,72.543z"/>
	<path opacity="0.3" fill="#3D0404" enable-background="new    " d="M173.24,67.517c-0.242-0.137-0.438-0.504-0.438-0.82v-0.949
		c0-0.051,0.007-0.095,0.017-0.136l-0.012-0.006c-0.241-0.137-0.438,0.01-0.438,0.324v0.948c0,0.316,0.196,0.685,0.438,0.82
		l8.57,4.845c0.203,0.115,0.372,0.029,0.422-0.187L173.24,67.517z"/>
	<path fill="#FFFFFF" d="M178.688,69.941l-5.156-2.916c-0.086-0.047-0.154-0.176-0.154-0.289l0,0c0-0.111,0.068-0.162,0.154-0.114
		l5.156,2.916c0.086,0.048,0.154,0.177,0.154,0.289l0,0C178.842,69.938,178.773,69.989,178.688,69.941z"/>
</g>
<g>
	<path fill="#771818" d="M181.377,78.169l-8.57-4.845c-0.241-0.137-0.438-0.504-0.438-0.82v-0.949c0-0.316,0.196-0.462,0.438-0.324
		l8.57,4.846c0.241,0.137,0.438,0.504,0.438,0.82v0.949C181.814,78.162,181.618,78.306,181.377,78.169z"/>
	<path opacity="0.3" fill="#3D0404" enable-background="new    " d="M173.24,73.142c-0.242-0.136-0.438-0.503-0.438-0.819v-0.949
		c0-0.051,0.007-0.095,0.017-0.137l-0.012-0.006c-0.241-0.136-0.438,0.01-0.438,0.324v0.949c0,0.316,0.196,0.684,0.438,0.82
		l8.57,4.845c0.203,0.114,0.372,0.029,0.422-0.187L173.24,73.142z"/>
	<path fill="#FFD7D7" d="M178.688,75.567l-5.156-2.917c-0.086-0.047-0.154-0.176-0.154-0.289l0,0c0-0.11,0.068-0.161,0.154-0.114
		l5.156,2.917c0.086,0.047,0.154,0.176,0.154,0.289l0,0C178.842,75.563,178.773,75.616,178.688,75.567z"/>
</g>
<g>
	<path fill="#771818" d="M181.377,83.848l-8.57-4.846c-0.241-0.137-0.438-0.504-0.438-0.82v-0.949c0-0.316,0.196-0.461,0.438-0.323
		l8.57,4.845c0.241,0.137,0.438,0.504,0.438,0.82v0.949C181.814,83.838,181.618,83.983,181.377,83.848z"/>
	<path opacity="0.3" fill="#06033E" enable-background="new    " d="M173.24,78.82c-0.242-0.137-0.438-0.504-0.438-0.82v-0.949
		c0-0.051,0.007-0.094,0.017-0.137l-0.012-0.005c-0.241-0.136-0.438,0.009-0.438,0.323v0.949c0,0.316,0.196,0.684,0.438,0.82
		l8.57,4.846c0.203,0.114,0.372,0.029,0.422-0.188L173.24,78.82z"/>
	<path fill="#CC5858" d="M178.688,81.246l-5.156-2.917c-0.086-0.048-0.154-0.177-0.154-0.289l0,0c0-0.11,0.068-0.162,0.154-0.114
		l5.156,2.916c0.086,0.047,0.154,0.176,0.154,0.289l0,0C178.842,81.242,178.773,81.293,178.688,81.246z"/>
</g>
<g>
	<path fill="#771818" d="M181.377,89.412l-8.57-4.845c-0.241-0.137-0.438-0.504-0.438-0.82v-0.948c0-0.316,0.196-0.463,0.438-0.324
		l8.57,4.846c0.241,0.137,0.438,0.504,0.438,0.82v0.948C181.814,89.404,181.618,89.549,181.377,89.412z"/>
	<path opacity="0.3" fill="#06033E" enable-background="new    " d="M173.24,84.385c-0.242-0.136-0.438-0.503-0.438-0.819v-0.949
		c0-0.051,0.007-0.095,0.017-0.136l-0.012-0.006c-0.241-0.137-0.438,0.009-0.438,0.324v0.948c0,0.316,0.196,0.684,0.438,0.82
		l8.57,4.845c0.203,0.115,0.372,0.029,0.422-0.187L173.24,84.385z"/>
	<path fill="#FFD7D7" d="M178.688,86.811l-5.156-2.916c-0.086-0.047-0.154-0.176-0.154-0.289l0,0c0-0.111,0.068-0.162,0.154-0.115
		l5.156,2.917c0.086,0.048,0.154,0.177,0.154,0.289l0,0C178.842,86.807,178.773,86.858,178.688,86.811z"/>
</g>
<polygon opacity="0.5" fill="#771818" enable-background="new    " points="171.004,58.256 171.898,58.762 171.898,62.307 
	171.004,61.8 "/>
<polygon opacity="0.5" fill="#771818" enable-background="new    " points="171.004,63.863 171.898,64.371 171.898,67.914 
	171.004,67.409 "/>
<polygon opacity="0.5" fill="#771818" enable-background="new    " points="171.004,69.473 171.898,69.979 171.898,73.523 
	171.004,73.018 "/>
<polygon opacity="0.5" fill="#771818" enable-background="new    " points="171.004,75.082 171.898,75.588 171.898,79.133 
	171.004,78.625 "/>
<polygon opacity="0.5" fill="#771818" enable-background="new    " points="171.004,80.689 171.898,81.196 171.898,84.74 
	171.004,84.234 "/>
<path fill="#FFD7D7" d="M179.703,64.719c0,0.112-0.082,0.159-0.182,0.102c-0.1-0.057-0.182-0.195-0.182-0.308
	s0.082-0.16,0.182-0.102C179.622,64.467,179.703,64.605,179.703,64.719z"/>
<path fill="#CC5858" d="M180.473,65.152c0,0.113-0.082,0.16-0.182,0.102c-0.1-0.056-0.182-0.193-0.182-0.307s0.082-0.16,0.182-0.102
	C180.391,64.902,180.473,65.04,180.473,65.152z"/>
<path fill="#FFD7D7" d="M181.242,65.588c0,0.112-0.082,0.159-0.182,0.102c-0.101-0.057-0.182-0.195-0.182-0.308
	s0.081-0.16,0.182-0.103C181.16,65.336,181.242,65.475,181.242,65.588z"/>
<path fill="#CC5858" d="M179.703,70.324c0,0.112-0.082,0.159-0.182,0.102c-0.1-0.057-0.182-0.195-0.182-0.308
	s0.082-0.16,0.182-0.102C179.622,70.072,179.703,70.211,179.703,70.324z"/>
<path fill="#FFD7D7" d="M180.473,70.758c0,0.113-0.082,0.16-0.182,0.102c-0.1-0.056-0.182-0.193-0.182-0.307s0.082-0.16,0.182-0.102
	C180.391,70.508,180.473,70.646,180.473,70.758z"/>
<path fill="#FFFFFF" d="M181.242,71.193c0,0.112-0.082,0.159-0.182,0.102c-0.101-0.057-0.182-0.195-0.182-0.308
	s0.081-0.16,0.182-0.103C181.16,70.941,181.242,71.08,181.242,71.193z"/>
<path fill="#FFFFFF" d="M179.703,75.971c0,0.113-0.082,0.16-0.182,0.102c-0.1-0.056-0.182-0.194-0.182-0.307
	c0-0.113,0.082-0.16,0.182-0.102C179.622,75.721,179.703,75.858,179.703,75.971z"/>
<path fill="#CC5858" d="M180.473,76.405c0,0.112-0.082,0.16-0.182,0.103c-0.1-0.057-0.182-0.195-0.182-0.308s0.082-0.16,0.182-0.103
	C180.391,76.154,180.473,76.293,180.473,76.405z"/>
<path fill="#FFFFFF" d="M181.242,76.842c0,0.113-0.082,0.16-0.182,0.102c-0.101-0.057-0.182-0.194-0.182-0.307
	c0-0.113,0.081-0.16,0.182-0.102C181.16,76.589,181.242,76.727,181.242,76.842z"/>
<path fill="#FFFFFF" d="M179.703,81.536c0,0.112-0.082,0.16-0.182,0.103c-0.1-0.057-0.182-0.195-0.182-0.308s0.082-0.16,0.182-0.103
	C179.622,81.285,179.703,81.424,179.703,81.536z"/>
<path fill="#FFD7D7" d="M180.473,81.973c0,0.113-0.082,0.16-0.182,0.102c-0.1-0.057-0.182-0.194-0.182-0.307
	c0-0.113,0.082-0.16,0.182-0.102C180.391,81.721,180.473,81.858,180.473,81.973z"/>
<path fill="#FFD7D7" d="M181.242,82.407c0,0.112-0.082,0.16-0.182,0.103c-0.101-0.057-0.182-0.195-0.182-0.309
	c0-0.112,0.081-0.159,0.182-0.102C181.16,82.156,181.242,82.293,181.242,82.407z"/>
<path fill="#FFFFFF" d="M179.703,87.178c0,0.113-0.082,0.16-0.182,0.102c-0.1-0.056-0.182-0.193-0.182-0.307s0.082-0.16,0.182-0.102
	C179.622,86.928,179.703,87.065,179.703,87.178z"/>
<path fill="#CC5858" d="M180.473,87.613c0,0.112-0.082,0.16-0.182,0.102c-0.1-0.057-0.182-0.195-0.182-0.308s0.082-0.16,0.182-0.102
	C180.391,87.361,180.473,87.5,180.473,87.613z"/>
<path fill="#FFD7D7" d="M181.242,88.049c0,0.113-0.082,0.16-0.182,0.102c-0.101-0.056-0.182-0.193-0.182-0.307
	s0.081-0.16,0.182-0.102C181.16,87.799,181.242,87.935,181.242,88.049z"/>
<g>
	<path fill="#771818" d="M185.176,89.671V64.576l0.053-0.029l10.709-6.055v25.096l-0.053,0.028L185.176,89.671z M185.387,64.696
		v24.614l10.339-5.846V58.853L185.387,64.696z"/>
</g>
<path fill="#771818" d="M193.156,69.783l-4.802,2.715c-0.321,0.182-0.583-0.011-0.583-0.433v-2.607c0-0.422,0.262-0.911,0.583-1.093
	l4.802-2.715c0.322-0.182,0.584,0.012,0.584,0.434v2.607C193.74,69.111,193.479,69.6,193.156,69.783z"/>
<path fill="#CC5858" d="M193.273,65.6c0.026,0.073,0.043,0.16,0.043,0.262v2.607c0,0.422-0.262,0.911-0.584,1.094l-4.802,2.714
	c-0.04,0.022-0.078,0.04-0.116,0.051c0.088,0.231,0.297,0.31,0.54,0.171l4.802-2.715c0.322-0.182,0.584-0.67,0.584-1.092v-2.607
	C193.74,65.715,193.538,65.52,193.273,65.6z"/>
<g>
	<g>
		<path fill="#FFFFFF" d="M192.278,68.213c0.089-0.051,0.159-0.01,0.159,0.091v0.595c0,0.1-0.072,0.222-0.159,0.272
			c-0.089,0.051-0.16,0.009-0.16-0.091v-0.595C192.118,68.385,192.189,68.264,192.278,68.213z"/>
		<path fill="#FFD7D7" d="M191.589,68.676c0.089-0.051,0.16-0.008,0.16,0.092v0.52c0,0.1-0.073,0.223-0.16,0.273
			c-0.089,0.051-0.159,0.009-0.159-0.092v-0.52C191.43,68.85,191.5,68.727,191.589,68.676z"/>
		<path fill="#CC5858" d="M190.9,68.485c0.089-0.051,0.16-0.009,0.16,0.091v1.1c0,0.101-0.073,0.223-0.16,0.273
			c-0.09,0.051-0.16,0.009-0.16-0.091v-1.101C190.74,68.658,190.813,68.536,190.9,68.485z"/>
		<path fill="#FFD7D7" d="M190.213,68.242c0.089-0.051,0.16-0.01,0.16,0.09v1.733c0,0.101-0.073,0.222-0.16,0.272
			c-0.09,0.051-0.16,0.01-0.16-0.091v-1.732C190.051,68.414,190.123,68.293,190.213,68.242z"/>
		<path fill="#FFD7D7" d="M189.523,68.813c0.09-0.051,0.16-0.009,0.16,0.092v1.551c0,0.1-0.072,0.221-0.16,0.271
			c-0.089,0.052-0.16,0.01-0.16-0.09v-1.551C189.361,68.985,189.435,68.863,189.523,68.813z"/>
		<path fill="#FFFFFF" d="M188.834,69.911c0.09-0.052,0.16-0.009,0.16,0.091v0.842c0,0.1-0.072,0.222-0.16,0.272
			c-0.088,0.052-0.16,0.009-0.16-0.091v-0.842C188.674,70.084,188.746,69.962,188.834,69.911z"/>
	</g>
	<path fill="#CC5858" d="M192.12,67.912c0,0.099,0.071,0.139,0.158,0.09s0.158-0.17,0.158-0.268s-0.071-0.139-0.158-0.089
		C192.191,67.694,192.12,67.814,192.12,67.912z"/>
	<path fill="#FFFFFF" d="M192.12,67.354c0,0.099,0.071,0.138,0.158,0.089s0.158-0.169,0.158-0.268c0-0.098-0.071-0.138-0.158-0.088
		C192.191,67.137,192.12,67.256,192.12,67.354z"/>
</g>
<g>
	<path opacity="0.5" fill="#771818" enable-background="new    " d="M108.391,60.467l-6.888-3.895
		c-0.421-0.238-0.369-0.656,0.118-0.932l6.651-3.761c0.487-0.276,1.227-0.306,1.649-0.067l6.887,3.895
		c0.422,0.238,0.369,0.656-0.118,0.934l-6.651,3.76C109.551,60.676,108.813,60.705,108.391,60.467z"/>
	<path fill="#A83939" d="M117.091,51.973L117.091,51.973v-2.327l-5.329-0.004L109.92,48.6c-0.422-0.238-1.162-0.209-1.649,0.067
		l-1.718,0.971l-5.333-0.002v2.393c-0.013,0.162,0.08,0.318,0.283,0.433l6.888,3.895c0.421,0.238,1.162,0.209,1.649-0.067
		l6.651-3.76C116.971,52.371,117.107,52.166,117.091,51.973z"/>
	<path fill="#A83939" d="M109.156,48.442c-0.309,0.007-0.631,0.083-0.883,0.227l-1.718,0.971l-5.334-0.004v2.393
		c-0.013,0.162,0.08,0.318,0.283,0.433l6.888,3.895c0.204,0.114,0.48,0.167,0.765,0.16V48.442z"/>
	<path fill="#CC5858" d="M101.824,49.638h-0.604v2.393c-0.013,0.162,0.08,0.318,0.283,0.433l0.32,0.182V49.638z"/>
	<path fill="#CC5858" d="M108.497,56.409c0.365,0.153,0.893,0.144,1.318-0.015v-2.719h-1.318V56.409z"/>
	<path fill="#E96B56" d="M108.391,53.973l-6.888-3.895c-0.421-0.238-0.369-0.656,0.118-0.933l6.651-3.76
		c0.487-0.276,1.227-0.305,1.649-0.067l6.887,3.895c0.422,0.238,0.369,0.656-0.118,0.933l-6.651,3.76
		C109.551,54.182,108.813,54.211,108.391,53.973z"/>
	<path fill="#FFFFFF" d="M116.689,49.688l-6.651,3.76c-0.487,0.276-1.227,0.306-1.649,0.067l-6.886-3.895
		c-0.094-0.053-0.164-0.117-0.21-0.184c-0.146,0.229-0.08,0.476,0.21,0.642l6.888,3.895c0.421,0.238,1.162,0.209,1.649-0.067
		l6.651-3.76c0.38-0.215,0.495-0.515,0.329-0.749C116.953,49.5,116.844,49.602,116.689,49.688z"/>
	<g>
		<path fill="#D4ECFF" d="M114.558,52.588c0,0.174-0.124,0.385-0.278,0.473c-0.154,0.087-0.278,0.016-0.278-0.158
			c0-0.175,0.124-0.386,0.278-0.473C114.435,52.344,114.558,52.412,114.558,52.588z"/>
		<path fill="#D4ECFF" d="M115.453,52.082c0,0.174-0.124,0.385-0.278,0.473c-0.152,0.087-0.278,0.016-0.278-0.156
			c0-0.175,0.124-0.386,0.278-0.473C115.329,51.836,115.453,51.907,115.453,52.082z"/>
		<path fill="#D4ECFF" d="M116.349,51.574c0,0.175-0.124,0.386-0.278,0.473c-0.153,0.088-0.278,0.017-0.278-0.156
			c0-0.174,0.124-0.385,0.278-0.473C116.224,51.331,116.349,51.402,116.349,51.574z"/>
	</g>
	<g>
		<path fill="#CC5858" d="M108.798,51.559l-3.224-1.822c-0.198-0.113-0.173-0.307,0.054-0.437l3.113-1.76
			c0.229-0.129,0.575-0.144,0.771-0.031l3.224,1.822c0.198,0.113,0.173,0.307-0.055,0.436l-3.112,1.76
			C109.342,51.656,108.997,51.671,108.798,51.559z"/>
		<path fill="#FFD7D7" d="M109.107,50.033l-0.446-0.253c-0.027-0.016-0.023-0.042,0.007-0.06l0.431-0.244
			c0.031-0.019,0.08-0.02,0.107-0.004l0.446,0.253c0.027,0.016,0.023,0.042-0.007,0.06l-0.431,0.244
			C109.182,50.045,109.135,50.047,109.107,50.033z"/>
		<path fill="#A83939" d="M105.575,49.736l0.009,0.005c0.015-0.011,0.029-0.021,0.045-0.031l3.113-1.76
			c0.229-0.129,0.575-0.144,0.771-0.031l3.214,1.816c0.182-0.127,0.193-0.302,0.009-0.405l-3.222-1.822
			c-0.198-0.113-0.544-0.098-0.771,0.031l-3.113,1.76C105.402,49.429,105.378,49.624,105.575,49.736z"/>
	</g>
</g>
<g>
	<polygon fill="#CC5858" points="195.156,16.702 195.025,16.206 196.52,15.838 196.65,16.333 	"/>
	<polygon fill="#CC5858" points="194.395,17.418 194.262,16.922 195.756,16.553 195.889,17.049 	"/>
	<polygon fill="#CC5858" points="193.631,18.135 193.5,17.638 194.994,17.269 195.125,17.766 	"/>
	<polygon fill="#CC5858" points="192.869,18.849 192.736,18.354 194.23,17.985 194.363,18.482 	"/>
</g>
<g>
	<path fill="#CC5858" d="M118.171,7.824l0.309-0.504c0,0,0.258,0.137,0.535,0.053c0.22-0.067,0.413-0.258,0.569-0.571
		c0.551-1.098,1.567-1.182,2.029-1.073l-0.146,0.567l0.073-0.284l-0.071,0.284c-0.089-0.02-0.876-0.164-1.338,0.758
		c-0.234,0.467-0.553,0.764-0.945,0.878C118.66,8.087,118.22,7.851,118.171,7.824z"/>
</g>
<path fill="#FFD7D7" d="M110.336,25.178c-1.535,0-2.784-1.202-2.784-2.678s1.249-2.678,2.784-2.678s2.784,1.202,2.784,2.678
	C113.118,23.977,111.871,25.178,110.336,25.178z M110.336,20.405c-1.2,0-2.176,0.94-2.176,2.095s0.976,2.095,2.176,2.095
	c1.2,0,2.176-0.94,2.176-2.095C112.511,21.346,111.535,20.405,110.336,20.405z"/>
<path fill="#CC5858" d="M106.86,81.542l-1.34-2.622l2.724-1.289l1.34,2.622L106.86,81.542z M106.333,79.186l0.804,1.574l1.635-0.774
	l-0.804-1.574L106.333,79.186z"/>
<polygon fill="#CC5858" points="177.605,6 176.354,6.593 175.738,5.387 176.99,4.794 "/>
<g>
	<polygon fill="#FFD7D7" points="143.8,15.464 143.371,15.051 145.411,13.087 145.84,13.5 	"/>
	<polygon fill="#FFD7D7" points="145.411,15.464 143.371,13.5 143.8,13.087 145.84,15.051 	"/>
</g>
<path fill="#FFD7D7" d="M116.002,39.124c0,0.762-0.642,1.378-1.433,1.378c-0.791,0-1.433-0.617-1.433-1.378s0.642-1.378,1.433-1.378
	C115.36,37.746,116.002,38.362,116.002,39.124z"/>
<path fill="#FFD7D7" d="M142.309,90.673c0,0.442-0.373,0.802-0.833,0.802s-0.833-0.358-0.833-0.802c0-0.444,0.373-0.802,0.833-0.802
	S142.309,90.23,142.309,90.673z"/>
<g>
	<polygon fill="#FFD7D7" points="157.072,94.373 156.644,93.96 158.684,91.996 159.113,92.409 	"/>
	<polygon fill="#FFD7D7" points="158.684,94.373 156.644,92.409 157.072,91.996 159.113,93.96 	"/>
</g>
<g>
	<g>
		<path fill="#CC5858" d="M125.629,74.938c0,0-0.922-0.465-1.487,0.229c-0.565,0.692-1.375,2.324-1.4,3.43
			c-0.025,1.104,0.875,1.029,1.407,0.77c0.535-0.262,2.095-2.525,2.189-2.969c0.094-0.443-0.111-1.044-0.262-1.16
			C125.925,75.116,125.629,74.938,125.629,74.938z"/>
		<path fill="#FFD7D7" d="M125.829,74.717l0.042,0.954c0.009,0.204-0.093,0.396-0.269,0.497c-0.162,0.09-0.395,0.161-0.711,0.11
			c-0.695-0.11-0.756-0.31-0.806-1.266S125.829,74.717,125.829,74.717z"/>
		<g>
			<path fill="#CC5858" d="M122.254,73.102c0,0-0.922-0.465-1.487,0.228s-1.375,2.325-1.4,3.431
				c-0.025,1.104,0.875,1.029,1.407,0.77c0.535-0.262,2.095-2.525,2.189-2.969c0.094-0.444-0.111-1.044-0.262-1.16
				C122.553,73.279,122.254,73.102,122.254,73.102z"/>
			<path fill="#FFD7D7" d="M122.457,72.88l0.042,0.954c0.009,0.204-0.093,0.396-0.269,0.497c-0.162,0.091-0.395,0.161-0.711,0.11
				c-0.694-0.11-0.756-0.311-0.805-1.266C120.662,72.222,122.457,72.88,122.457,72.88z"/>
			<path fill="#771818" d="M130.68,55.346c-0.273-4.438-4.808,0.652-4.808,0.652l-3.104,3.042l-2.794,3.071
				c-0.545,0.6-0.8,1.408-0.695,2.213l1.131,8.608c0.056,0.426,0.42,0.738,0.849,0.735c0.122-0.002,0.26-0.014,0.418-0.037
				c1.009-0.156,0.935-1.116,0.935-1.116l-0.208-8.051l5.869-3.538C128.274,60.926,130.953,59.785,130.68,55.346z"/>
		</g>
		<path fill="#771818" d="M134.055,57.038c-0.273-4.44-4.808,0.653-4.808,0.653l-3.104,3.041l-2.794,3.071
			c-0.545,0.601-0.8,1.409-0.694,2.213l1.131,8.608c0.056,0.426,0.42,0.738,0.849,0.734c0.122-0.001,0.26-0.012,0.418-0.035
			c1.009-0.156,0.935-1.117,0.935-1.117l-0.208-8.051l5.869-3.538C131.649,62.618,134.327,61.477,134.055,57.038z"/>
		<path fill="#CC5858" d="M131.373,42.787c3.438,1.426,3.369,3.458,3.369,3.458s-0.672,7.451-0.443,12.425
			c0.096,2.08-11.051,2.238-9.389-3.312c1.96-6.543,1.226-11.839,2.144-12.638C127.969,41.924,130.483,42.42,131.373,42.787z"/>
		<path fill="#FFC2B0" d="M132.478,44.589c-0.18,0.698-1.094,1.065-2.042,0.822c-0.949-0.244-1.571-1.007-1.391-1.706
			s1.095-1.065,2.042-0.822S132.658,43.891,132.478,44.589z"/>
		<path fill="#FFFFFF" d="M131.017,45.651c-0.202,0-0.411-0.025-0.622-0.08c-1.035-0.265-1.711-1.122-1.509-1.905
			c0.202-0.784,1.208-1.208,2.244-0.94c0.493,0.127,0.92,0.389,1.206,0.738c0.296,0.363,0.406,0.778,0.304,1.169
			C132.477,45.256,131.806,45.651,131.017,45.651z M130.498,42.973c-0.638,0-1.172,0.296-1.294,0.774
			c-0.156,0.609,0.415,1.286,1.274,1.506c0.858,0.22,1.686-0.095,1.842-0.704c0.073-0.286-0.013-0.598-0.242-0.878
			c-0.242-0.294-0.607-0.518-1.033-0.627C130.86,42.995,130.674,42.973,130.498,42.973z"/>
		<path fill="#FFC2B0" d="M129.995,42.633c0,0,0.029,0.138-0.029,1.227c-0.018,0.342,1.18,0.662,1.491,0.353
			c0.311-0.309,0.185-0.633,0.26-1.798C131.789,41.249,129.995,42.633,129.995,42.633z"/>
		<path fill="#EA9C92" d="M131.714,42.415c0,0-0.294,1.08-1.75,1.495l0.021-0.982L131.714,42.415z"/>
		<path fill="#FFC2B0" d="M132.636,39.669c0.366,1.415-0.485,2.858-1.9,3.224c-1.415,0.366-2.858-0.485-3.224-1.9
			c-0.365-1.415,0.485-2.858,1.9-3.224C130.827,37.404,132.271,38.254,132.636,39.669z"/>
		<path fill="#EA9C92" d="M130.684,40.429c0,0-1.457,0.624-2.465,0.631c-1.009,0.007-0.788-0.838-0.788-0.838l2.995-0.433
			L130.684,40.429z"/>
		<path fill="#771818" d="M127.917,40.593c0,0,1.269-0.538,2.382-0.314c0.262,0.053,0.503,0.192,0.672,0.4
			c0.055,0.067,0.125,0.129,0.204,0.147c0.198,0.046,0.52-0.774,0.904-0.792s0.64,0.253,0.326,0.756
			c-0.315,0.504-0.209,1.067-0.064,1.149c0.146,0.08,1.68-1.094,0.326-3.778s-4.796-1.238-5.331-0.695c0,0-0.563,0.491-1.022,0.055
			C126.314,37.518,125.8,41.369,127.917,40.593z"/>
		<path fill="#FFC2B0" d="M132.813,51.689v2.012c0,0.231-0.096,0.451-0.267,0.605l-4.136,3.771l0.469,0.719l5.461-3.961
			c0.255-0.186,0.42-0.469,0.453-0.781l0.369-3.512L132.813,51.689z"/>
		<path fill="#CC5858" d="M134.451,45.238c0,0,1.255,1.887,1.722,6.853c0,0-2.144,0.692-3.36,0.3
			C131.596,51.998,134.451,45.238,134.451,45.238z"/>
		<path fill="#A83939" d="M132.583,47.624c0,0-0.491,2.629-0.518,3.864c-0.007,0.34,0.2,0.646,0.518,0.762l0,0V47.624z"/>
	</g>
	<g>
		<path fill="#CC5858" d="M131.511,60.696l-0.915-0.12l-5.9-3.407c-0.189-0.108-0.52-0.097-0.738,0.031l-4.182,2.413l-0.553-0.073
			v0.551l0,0c-0.003,0.073,0.038,0.142,0.127,0.194l6.687,3.86c0.189,0.108,0.52,0.097,0.738-0.03l4.553-2.628
			c0.124-0.071,0.184-0.162,0.18-0.249l0,0v-0.542H131.511z"/>
		<path fill="#396CAA" d="M127.078,58.543l-0.42-0.241h-4.609l-2.273,1.312l-0.553-0.073v0.551l0,0
			c-0.003,0.073,0.038,0.142,0.127,0.194l6.687,3.86c0.1,0.058,0.24,0.08,0.38,0.071L127.078,58.543z"/>
		<path fill="#5793CE" d="M119.469,59.57l-0.246-0.032v0.551l0,0c-0.003,0.073,0.038,0.142,0.127,0.194l0.118,0.068V59.57z"/>
		<path fill="#FFFFFF" d="M126.105,64.175c0.18,0.067,0.437,0.052,0.627-0.038V63.2h-0.627V64.175z"/>
		<path fill="#FFFFFF" d="M126.038,63.595l-6.687-3.86c-0.189-0.109-0.166-0.3,0.053-0.426l4.553-2.627
			c0.218-0.125,0.549-0.14,0.738-0.031l6.688,3.86c0.189,0.109,0.166,0.3-0.053,0.426l-4.553,2.627
			C126.558,63.689,126.227,63.703,126.038,63.595z"/>
		<path fill="#E96B56" d="M125.925,63.01l-5.56-3.211c-0.158-0.092-0.138-0.25,0.044-0.355l2.44-1.373
			c0.182-0.105,0.457-0.115,0.615-0.025l5.56,3.211c0.158,0.092,0.138,0.25-0.043,0.355l-2.44,1.372
			C126.358,63.089,126.083,63.1,125.925,63.01z"/>
	</g>
	<path fill="#FFC2B0" d="M124.216,56.553l-0.069,0.462c-0.059,0.393-0.049,0.792,0.031,1.184l0.082,0.407
		c0.047,0.229,0.228,0.407,0.458,0.449l0,0c0.18,0.033,0.349-0.095,0.369-0.275l0.111-0.986c0,0,0.252,0.33,0.375,0.33
		c0.122,0-0.136-0.986-0.413-1.547C124.885,56.017,124.216,56.553,124.216,56.553z"/>
	<path fill="#FFC2B0" d="M126.483,49.22l-0.718,1.42c-0.169,0.336-0.269,0.701-0.295,1.078l-0.311,4.857l-0.944-0.021l-0.429-5.455
		c-0.013-0.169-0.005-0.338,0.024-0.504l0.489-2.765L126.483,49.22z"/>
	<g>
		<path fill="#771818" d="M125.813,63.965l-0.56-0.732l-5.896-3.414c-0.189-0.109-0.342-0.402-0.342-0.654l0.005-4.828l-0.338-0.441
			L119,53.711l0,0c0.062-0.04,0.142-0.038,0.231,0.013l6.682,3.869c0.189,0.108,0.342,0.401,0.342,0.654l-0.005,5.257
			c0,0.142-0.049,0.24-0.125,0.279l0,0L125.813,63.965z"/>
		<path fill="#A83939" d="M121.734,61.196l-0.418-0.241l-2.3-3.995l0.001-2.624l-0.338-0.441l0.318-0.184l0,0
			c0.062-0.04,0.142-0.038,0.231,0.013l6.682,3.869c0.1,0.058,0.189,0.167,0.252,0.294L121.734,61.196z"/>
		<path fill="#5793CE" d="M118.831,54.091l-0.151-0.196l0.318-0.184l0,0c0.062-0.04,0.142-0.038,0.231,0.013l0.118,0.069
			L118.831,54.091z"/>
		<path fill="#274F89" d="M125.973,57.635c0.149,0.121,0.264,0.351,0.28,0.563l-0.653,0.376l-0.313-0.543L125.973,57.635z"/>
		<path fill="#CC5858" d="M125.595,57.776l-6.682-3.869c-0.189-0.108-0.342,0.005-0.343,0.259l-0.006,5.256
			c0,0.253,0.153,0.545,0.342,0.654l6.682,3.869c0.189,0.109,0.342-0.006,0.343-0.258l0.006-5.257
			C125.937,58.18,125.784,57.885,125.595,57.776z"/>
	</g>
	<path fill="#FFC2B0" d="M128.88,58.797l-0.107,0.221c-0.124,0.256-0.316,0.472-0.559,0.619l-0.664,0.408
		c-0.207,0.128-0.467,0.139-0.678,0.018c-0.007-0.004-0.014-0.01-0.021-0.016c-0.211-0.133-0.231-0.434-0.057-0.612l0.693-0.713
		c0,0-0.389,0.298-0.498,0.179c-0.08-0.088,0.378-0.519,0.729-0.533s0.693-0.291,0.693-0.291L128.88,58.797z"/>
	<path fill="#CC5858" d="M127.12,42.711c0,0-2.544,2.767-3.569,5.306c0,0,0.869,1.567,2.999,2.182
		C128.678,50.813,127.12,42.711,127.12,42.711z"/>
	<path fill="#A83939" d="M126.071,50.033l0.413-3.982l-0.971,3.729C125.686,49.873,125.873,49.957,126.071,50.033z"/>
	<path fill="#FFFFFF" d="M129.025,42.153l-0.684-0.188c0,0,0.326,0.513,0.802,0.644c0.477,0.131,0.551-0.272,0.551-0.272
		L129.025,42.153z"/>
</g>
</svg>
