<?xml version="1.0" encoding="utf-8"?>
<!-- Generator: Adobe Illustrator 16.0.0, SVG Export Plug-In . SVG Version: 6.00 Build 0)  -->
<!DOCTYPE svg PUBLIC "-//W3C//DTD SVG 1.1//EN" "http://www.w3.org/Graphics/SVG/1.1/DTD/svg11.dtd">
<svg version="1.1" id="Layer_1" xmlns="http://www.w3.org/2000/svg" xmlns:xlink="http://www.w3.org/1999/xlink" x="0px" y="0px"
	 width="300px" height="300px" viewBox="0 -44 300 300" enable-background="new 0 -44 300 300" xml:space="preserve">
<g>
	<g>
		<path fill="#E96B56" d="M167.125,231.148l-117.75-65.584c-3.332-1.851-2.912-5.09,0.934-7.231l80.182-44.644
			c3.846-2.143,9.662-2.377,12.994-0.521l117.754,65.579c3.331,1.857,2.915,5.093-0.935,7.23l-80.183,44.642
			C176.275,232.768,170.461,232.999,167.125,231.148z"/>
		<g>
			<path fill="#771818" d="M265.596,49.755L145.897-16.854c-1.541-0.857-2.955-0.992-4.1-0.531l0.007-0.015l-0.197,0.092
				c-0.017,0.003-0.03,0.014-0.048,0.02l-3.898,1.77l4.225,2.032c0,0.073-0.009,0.148-0.009,0.228l0.036,94.829
				c0,4.746,3.044,10.284,6.802,12.377l116.508,64.829l0.661,5.285l4.25-1.959c1.403-0.791,2.289-2.582,2.289-5.146l-0.039-94.83
				C272.396,57.381,269.355,51.843,265.596,49.755z"/>
			<path fill="#A83939" d="M265.596,49.755L145.897-16.854c-1.541-0.857-2.955-0.992-4.1-0.531l0.007-0.015l-0.197,0.092
				c-0.017,0.003-0.03,0.014-0.048,0.02l-3.898,1.77l4.225,2.032c0,0.073-0.009,0.148-0.009,0.228l0.024,62.498l54.473,41.519
				l73.961-35.902C269.118,52.652,267.451,50.785,265.596,49.755z"/>
			<path fill="#872727" d="M267.598,51.245l-11.727,4.761l8.854,6.583l7.396-3.039C271.475,56.435,269.773,53.297,267.598,51.245z"
				/>
			<path fill="#E96B56" d="M261.695,163.561L142.001,96.954c-3.757-2.087-6.802-7.629-6.802-12.379l-0.035-94.83
				c0-4.744,3.042-6.9,6.793-4.807l119.7,66.601c3.759,2.086,6.801,7.629,6.801,12.373l0.037,94.831
				C268.493,163.491,265.457,165.646,261.695,163.561z"/>
			<path fill="#FFFFFF" d="M257.719,156.506L145.926,94.333c-3.43-1.917-6.224-6.984-6.224-11.326l-0.034-86.779
				c0-4.341,2.781-6.314,6.218-4.399L257.68,54.006c3.434,1.911,6.223,6.982,6.223,11.324l0.033,86.775
				C263.936,156.448,261.154,158.415,257.719,156.506z"/>
			<path fill="#FFFFFF" d="M257.719,156.506L145.926,94.333c-3.43-1.917-6.224-6.984-6.224-11.326l-0.034-86.779
				c0-4.341,2.781-6.314,6.218-4.399L257.68,54.006c3.434,1.911,6.223,6.982,6.223,11.324l0.033,86.775
				C263.936,156.448,261.154,158.415,257.719,156.506z"/>
		</g>
		<path fill="#771818" d="M263.49,166.507l-16.094-2.052l-103.91-57.863c-3.33-1.852-9.147-1.619-12.994,0.521l-73.629,40.99
			l-9.731-1.242v5.328h0.01c-0.066,1.23,0.662,2.414,2.232,3.293l117.75,65.572c3.336,1.854,9.15,1.625,12.997-0.521l80.183-44.643
			c2.162-1.201,3.247-2.756,3.18-4.213l0,0v-5.172L263.49,166.507L263.49,166.507z"/>
		<path fill="#A83939" d="M185.421,129.945l-7.383-4.116H96.879l-40.012,22.274l-9.734-1.244v5.33h0.013
			c-0.065,1.229,0.662,2.414,2.232,3.291l117.748,65.572c1.765,0.98,4.218,1.371,6.71,1.213L185.421,129.945z"/>
		<path fill="#CC5858" d="M51.448,147.406l-4.315-0.553v5.328h0.01c-0.066,1.231,0.662,2.416,2.232,3.293l2.074,1.155
			L51.448,147.406L51.448,147.406z"/>
		<path fill="#872727" d="M168.314,221.582c3.158,1.156,7.677,0.902,11.043-0.659v-11.886h-11.043V221.582z"/>
		<path fill="#E96B56" d="M167.125,215.734l-117.75-65.577c-3.332-1.856-2.912-5.095,0.934-7.238l80.185-44.638
			c3.847-2.144,9.664-2.377,12.994-0.518l117.754,65.575c3.334,1.857,2.916,5.1-0.934,7.238l-80.184,44.641
			C176.275,217.357,170.461,217.586,167.125,215.734z"/>
		<path fill="#FFFFFF" d="M260.305,168.628l-80.183,44.646c-3.847,2.14-9.661,2.371-12.997,0.519l-117.75-65.581
			c-1.094-0.611-1.773-1.369-2.072-2.184c-0.518,1.521,0.142,3.059,2.072,4.13l117.75,65.577c3.336,1.855,9.15,1.623,12.997-0.519
			l80.183-44.642c2.588-1.442,3.617-3.379,3.006-5.051C262.936,166.631,261.93,167.729,260.305,168.628z"/>
		<g>
			<path fill="#173D7A" d="M99.454,128.443l-5.328-2.967c-0.429-0.24-0.377-0.658,0.119-0.931l6.289-3.504
				c0.497-0.274,1.242-0.304,1.666-0.065l5.328,2.972c0.431,0.235,0.378,0.651-0.117,0.924l-6.29,3.503
				C100.63,128.654,99.885,128.684,99.454,128.443z"/>
			<path fill="#173D7A" d="M107.683,133.027l-5.328-2.967c-0.431-0.24-0.379-0.656,0.117-0.93l6.29-3.503
				c0.498-0.278,1.241-0.308,1.666-0.067l5.327,2.971c0.431,0.238,0.375,0.652-0.12,0.927l-6.29,3.501
				C108.862,133.232,108.112,133.268,107.683,133.027z"/>
			<path fill="#771818" d="M115.913,137.605l-5.328-2.969c-0.429-0.238-0.378-0.652,0.12-0.926l6.29-3.504
				c0.495-0.277,1.24-0.307,1.664-0.068l5.328,2.967c0.431,0.24,0.374,0.658-0.121,0.93l-6.29,3.504
				C117.089,137.816,116.342,137.85,115.913,137.605z"/>
			<path fill="#173D7A" d="M127.294,133.825l-5.328-2.97c-0.431-0.237-0.374-0.652,0.122-0.926l5.278-2.943
				c0.495-0.273,1.242-0.309,1.667-0.07l5.326,2.971c0.431,0.238,0.375,0.657-0.121,0.926l-5.28,2.949
				C128.463,134.035,127.718,134.063,127.294,133.825z"/>
			<path fill="#173D7A" d="M135.519,138.408l-5.327-2.967c-0.432-0.24-0.377-0.655,0.118-0.928l5.279-2.945
				c0.497-0.271,1.24-0.307,1.665-0.066l5.327,2.973c0.432,0.239,0.378,0.651-0.117,0.928l-5.278,2.938
				C136.693,138.616,135.95,138.646,135.519,138.408z"/>
			<path fill="#771818" d="M143.747,142.99l-5.327-2.971c-0.433-0.237-0.379-0.651,0.117-0.93l5.28-2.943
				c0.495-0.274,1.24-0.304,1.664-0.063l5.328,2.972c0.433,0.237,0.379,0.65-0.117,0.926l-5.278,2.938
				C144.926,143.197,144.177,143.227,143.747,142.99z"/>
			<path fill="#771818" d="M151.979,147.57l-5.329-2.973c-0.43-0.238-0.378-0.654,0.118-0.927l5.28-2.942
				c0.493-0.274,1.241-0.306,1.664-0.064l5.327,2.966c0.43,0.239,0.375,0.655-0.122,0.929l-5.278,2.944
				C153.154,147.783,152.407,147.811,151.979,147.57z"/>
			<path fill="#771818" d="M160.204,152.154l-5.325-2.965c-0.431-0.24-0.376-0.655,0.122-0.931l5.272-2.944
				c0.494-0.273,1.242-0.307,1.666-0.065l5.328,2.969c0.435,0.239,0.375,0.653-0.117,0.925l-5.278,2.944
				C161.377,152.359,160.627,152.395,160.204,152.154z"/>
			<path fill="#771818" d="M168.427,156.732l-5.323-2.967c-0.43-0.238-0.379-0.654,0.115-0.929l5.279-2.944
				c0.494-0.271,1.242-0.304,1.669-0.065l5.324,2.972c0.43,0.238,0.374,0.653-0.117,0.926l-5.276,2.941
				C169.607,156.945,168.857,156.973,168.427,156.732z"/>
			<path fill="#771818" d="M176.658,161.318l-5.325-2.971c-0.429-0.236-0.378-0.649,0.115-0.926l5.276-2.938
				c0.496-0.285,1.248-0.309,1.672-0.071l5.324,2.968c0.43,0.24,0.377,0.655-0.115,0.932l-5.279,2.939
				C177.839,161.529,177.088,161.557,176.658,161.318z"/>
			<path fill="#771818" d="M184.889,165.902l-5.328-2.971c-0.429-0.238-0.375-0.652,0.119-0.926l5.279-2.943
				c0.491-0.276,1.244-0.31,1.669-0.068l5.324,2.97c0.429,0.24,0.375,0.657-0.123,0.927l-5.274,2.946
				C186.063,166.107,185.316,166.141,184.889,165.902z"/>
			<path fill="#771818" d="M193.118,170.479l-5.33-2.967c-0.431-0.238-0.371-0.654,0.123-0.928l5.276-2.943
				c0.494-0.272,1.239-0.311,1.664-0.07l5.33,2.974c0.43,0.239,0.373,0.651-0.123,0.931l-5.277,2.938
				C194.293,170.693,193.542,170.721,193.118,170.479z"/>
			<path fill="#771818" d="M201.346,175.066l-5.326-2.969c-0.431-0.24-0.371-0.656,0.121-0.93l5.272-2.943
				c0.502-0.272,1.245-0.305,1.668-0.064l5.331,2.969c0.431,0.239,0.373,0.653-0.122,0.926l-5.279,2.941
				C202.518,175.275,201.77,175.303,201.346,175.066z"/>
			<path fill="#396CAA" d="M139.417,131.654l-5.328-2.969c-0.429-0.238-0.373-0.658,0.123-0.927l5.278-2.946
				c0.497-0.272,1.241-0.305,1.666-0.065l5.326,2.97c0.433,0.238,0.376,0.652-0.12,0.926l-5.278,2.943
				C140.586,131.861,139.84,131.893,139.417,131.654z"/>
			<path fill="#396CAA" d="M131.062,127.008l-5.328-2.969c-0.431-0.239-0.377-0.652,0.118-0.928l5.279-2.942
				c0.495-0.278,1.24-0.308,1.664-0.065l5.328,2.967c0.433,0.24,0.379,0.654-0.117,0.928l-5.279,2.941
				C132.241,127.214,131.491,127.247,131.062,127.008z"/>
			<path fill="#771818" d="M122.703,122.348l-11.48-6.387c-0.429-0.238-0.374-0.654,0.121-0.93l5.279-2.942
				c0.496-0.272,1.242-0.304,1.666-0.063l11.479,6.385c0.431,0.238,0.379,0.652-0.118,0.93l-5.279,2.943
				C123.871,122.555,123.126,122.586,122.703,122.348z"/>
			<path fill="#771818" d="M128.548,116.686l-9.312-5.184c-0.43-0.238-0.374-0.654,0.123-0.926l5.277-2.94
				c0.496-0.274,1.241-0.306,1.666-0.069l9.31,5.188c0.429,0.239,0.374,0.652-0.123,0.926l-5.276,2.943
				C129.719,116.893,128.974,116.917,128.548,116.686z"/>
			<path fill="#A83939" d="M147.64,136.234l-5.326-2.969c-0.431-0.238-0.379-0.648,0.118-0.929l5.277-2.94
				c0.499-0.275,1.244-0.305,1.667-0.064l5.328,2.969c0.433,0.239,0.377,0.65-0.119,0.926l-5.278,2.944
				C148.818,136.45,148.073,136.475,147.64,136.234z"/>
			<path fill="#771818" d="M155.87,140.822l-5.327-2.973c-0.431-0.238-0.379-0.651,0.118-0.925l5.282-2.94
				c0.49-0.278,1.238-0.31,1.66-0.069l5.332,2.967c0.431,0.239,0.371,0.655-0.121,0.929l-5.28,2.946
				C157.048,141.029,156.301,141.059,155.87,140.822z"/>
			<path fill="#771818" d="M164.1,145.402l-5.326-2.971c-0.432-0.236-0.379-0.656,0.119-0.926l5.276-2.943
				c0.496-0.276,1.244-0.308,1.668-0.069l5.323,2.967c0.438,0.239,0.378,0.655-0.115,0.929l-5.279,2.946
				C165.277,145.613,164.529,145.641,164.1,145.402z"/>
			<path fill="#771818" d="M172.328,149.984l-5.324-2.965c-0.43-0.24-0.379-0.656,0.118-0.93l5.276-2.941
				c0.494-0.275,1.244-0.305,1.668-0.069l5.324,2.972c0.434,0.239,0.379,0.655-0.117,0.932l-5.277,2.938
				C173.501,150.193,172.752,150.225,172.328,149.984z"/>
			<path fill="#771818" d="M180.559,154.566l-5.324-2.969c-0.433-0.24-0.379-0.649,0.115-0.931l5.279-2.938
				c0.494-0.278,1.245-0.308,1.668-0.067l5.325,2.968c0.43,0.239,0.379,0.655-0.119,0.93l-5.276,2.941
				C181.729,154.773,180.982,154.807,180.559,154.566z"/>
			<path fill="#771818" d="M188.783,159.148l-5.325-2.975c-0.429-0.232-0.378-0.652,0.115-0.921l5.28-2.944
				c0.492-0.279,1.24-0.309,1.668-0.068l5.324,2.967c0.43,0.238,0.379,0.658-0.119,0.93l-5.275,2.941
				C189.956,159.357,189.212,159.387,188.783,159.148z"/>
			<path fill="#771818" d="M197.014,163.73l-5.33-2.967c-0.432-0.24-0.373-0.658,0.121-0.926l5.278-2.949
				c0.494-0.272,1.242-0.305,1.666-0.063l5.327,2.969c0.431,0.234,0.375,0.65-0.121,0.926l-5.279,2.942
				C198.188,163.943,197.438,163.971,197.014,163.73z"/>
			<path fill="#771818" d="M205.236,168.314l-5.323-2.973c-0.431-0.238-0.379-0.652,0.121-0.926l5.272-2.941
				c0.494-0.275,1.241-0.307,1.67-0.065l5.326,2.969c0.434,0.237,0.372,0.649-0.117,0.927l-5.279,2.938
				C206.418,168.521,205.667,168.55,205.236,168.314z"/>
			<path fill="#771818" d="M213.468,172.9l-5.325-2.974c-0.429-0.239-0.377-0.651,0.115-0.927l5.277-2.939
				c0.496-0.278,1.248-0.308,1.671-0.068l5.325,2.966c0.429,0.24,0.373,0.655-0.115,0.931l-5.279,2.943
				C214.643,173.105,213.893,173.132,213.468,172.9z"/>
			<path fill="#771818" d="M228.094,181.04l-11.631-6.474c-0.43-0.236-0.371-0.651,0.123-0.924l5.277-2.947
				c0.488-0.271,1.242-0.309,1.666-0.068l11.625,6.475c0.434,0.24,0.378,0.651-0.119,0.931l-5.271,2.942
				C229.27,181.254,228.523,181.279,228.094,181.04z"/>
			<path fill="#771818" d="M244.113,172.12l-9.809-5.466c-0.433-0.24-0.377-0.656,0.12-0.93l5.28-2.941
				c0.49-0.274,1.238-0.309,1.66-0.066l9.816,5.465c0.43,0.238,0.373,0.651-0.123,0.926l-5.281,2.945
				C245.286,172.33,244.543,172.359,244.113,172.12z"/>
			<path fill="#771818" d="M162.052,135.339l-5.325-2.967c-0.43-0.24-0.379-0.658,0.115-0.929l5.28-2.943
				c0.493-0.271,1.244-0.307,1.668-0.066l5.325,2.971c0.429,0.242,0.378,0.654-0.117,0.926l-5.279,2.941
				C163.227,135.55,162.48,135.579,162.052,135.339z"/>
			<path fill="#771818" d="M153.62,130.645l-5.328-2.97c-0.431-0.237-0.378-0.653,0.119-0.928l5.278-2.94
				c0.496-0.277,1.24-0.306,1.662-0.065l5.328,2.969c0.432,0.235,0.377,0.649-0.121,0.925l-5.274,2.938
				C154.795,130.855,154.05,130.881,153.62,130.645z"/>
			<path fill="#A83939" d="M145.188,125.949l-5.327-2.971c-0.431-0.24-0.375-0.649,0.123-0.924l5.278-2.941
				c0.495-0.279,1.24-0.307,1.664-0.071l5.328,2.974c0.432,0.238,0.374,0.647-0.12,0.928l-5.279,2.939
				C146.364,126.16,145.619,126.188,145.188,125.949z"/>
			<path fill="#173D7A" d="M136.753,121.256l-5.328-2.973c-0.43-0.239-0.374-0.65,0.121-0.926l5.278-2.939
				c0.499-0.279,1.244-0.309,1.667-0.068l5.328,2.967c0.429,0.238,0.376,0.656-0.123,0.929l-5.276,2.944
				C137.931,121.461,137.184,121.492,136.753,121.256z"/>
			<path fill="#771818" d="M170.281,139.924l-5.327-2.97c-0.431-0.238-0.376-0.652,0.118-0.927l5.279-2.943
				c0.49-0.277,1.244-0.307,1.668-0.068l5.324,2.975c0.43,0.234,0.379,0.648-0.119,0.927l-5.275,2.938
				C171.456,140.135,170.711,140.162,170.281,139.924z"/>
			<path fill="#771818" d="M178.512,144.508l-5.33-2.971c-0.43-0.238-0.373-0.65,0.12-0.93l5.28-2.94
				c0.494-0.278,1.242-0.308,1.665-0.067l5.328,2.971c0.43,0.24,0.372,0.652-0.122,0.926l-5.279,2.943
				C179.688,144.711,178.936,144.746,178.512,144.508z"/>
			<path fill="#771818" d="M186.742,149.091l-5.331-2.973c-0.429-0.231-0.372-0.652,0.123-0.923l5.274-2.943
				c0.498-0.271,1.242-0.309,1.666-0.068l5.33,2.967c0.43,0.24,0.372,0.658-0.121,0.93l-5.279,2.943
				C187.911,149.297,187.159,149.325,186.742,149.091z"/>
			<path fill="#771818" d="M194.961,153.67l-5.324-2.967c-0.431-0.239-0.375-0.654,0.122-0.928l5.275-2.943
				c0.498-0.277,1.241-0.307,1.665-0.07l5.326,2.973c0.432,0.238,0.377,0.65-0.116,0.928l-5.28,2.941
				C196.141,153.88,195.391,153.909,194.961,153.67z"/>
			<path fill="#771818" d="M203.189,158.253l-5.323-2.974c-0.431-0.238-0.378-0.647,0.114-0.926l5.276-2.938
				c0.497-0.278,1.245-0.308,1.673-0.067l5.32,2.969c0.434,0.238,0.378,0.651-0.111,0.928l-5.279,2.943
				C204.368,158.465,203.621,158.492,203.189,158.253z"/>
			<path fill="#771818" d="M211.421,162.838l-5.328-2.968c-0.432-0.24-0.374-0.654,0.119-0.931l5.279-2.94
				c0.489-0.278,1.245-0.308,1.668-0.067l5.325,2.969c0.429,0.24,0.375,0.652-0.121,0.928l-5.277,2.941
				C212.596,163.043,211.854,163.077,211.421,162.838z"/>
			<path fill="#771818" d="M219.65,167.416l-5.33-2.966c-0.428-0.24-0.371-0.657,0.121-0.929l5.281-2.943
				c0.49-0.271,1.236-0.309,1.66-0.069l5.331,2.974c0.431,0.232,0.372,0.651-0.121,0.924l-5.276,2.941
				C220.82,167.622,220.075,167.654,219.65,167.416z"/>
			<path fill="#771818" d="M227.879,171.995l-5.326-2.97c-0.431-0.238-0.373-0.651,0.121-0.926l5.279-2.943
				c0.49-0.276,1.236-0.305,1.66-0.069l5.33,2.974c0.433,0.236,0.373,0.648-0.12,0.926l-5.279,2.939
				C229.05,172.213,228.305,172.232,227.879,171.995z"/>
			<path fill="#771818" d="M236.1,176.585l-5.324-2.974c-0.43-0.235-0.379-0.648,0.119-0.922l5.276-2.944
				c0.498-0.278,1.244-0.31,1.667-0.068l5.325,2.972c0.433,0.24,0.379,0.649-0.115,0.925l-5.28,2.942
				C237.279,176.79,236.531,176.824,236.1,176.585z"/>
			<path fill="#771818" d="M157.721,124.008l-5.324-2.972c-0.433-0.236-0.379-0.656,0.119-0.925l5.276-2.946
				c0.493-0.274,1.243-0.304,1.666-0.065l5.328,2.967c0.431,0.24,0.376,0.656-0.117,0.929l-5.28,2.944
				C158.893,124.219,158.145,124.246,157.721,124.008z"/>
			<path fill="#771818" d="M149.533,119.445l-5.328-2.967c-0.43-0.24-0.377-0.655,0.119-0.929l5.277-2.944
				c0.497-0.272,1.242-0.306,1.667-0.067l5.326,2.973c0.434,0.239,0.379,0.652-0.117,0.925l-5.277,2.942
				C150.709,119.659,149.957,119.686,149.533,119.445z"/>
			<path fill="#771818" d="M141.345,114.891l-5.326-2.973c-0.431-0.238-0.378-0.654,0.117-0.93l5.278-2.939
				c0.497-0.273,1.243-0.307,1.667-0.068l5.328,2.969c0.429,0.24,0.377,0.654-0.12,0.931l-5.277,2.94
				C142.525,115.102,141.775,115.129,141.345,114.891z"/>
			<path fill="#771818" d="M133.161,110.328l-5.328-2.969c-0.429-0.237-0.378-0.652,0.119-0.928l5.278-2.941
				c0.495-0.273,1.242-0.305,1.666-0.065l5.327,2.97c0.43,0.238,0.379,0.651-0.119,0.924l-5.278,2.943
				C134.336,110.533,133.587,110.566,133.161,110.328z"/>
			<path fill="#771818" d="M141.583,105.646l-5.329-2.972c-0.431-0.237-0.374-0.651,0.122-0.927l1.743-0.971
				c0.498-0.274,1.242-0.306,1.667-0.066l5.328,2.967c0.43,0.238,0.377,0.654-0.118,0.93l-1.747,0.97
				C142.751,105.852,142.001,105.884,141.583,105.646z"/>
			<path fill="#771818" d="M152.264,111.594l-5.328-2.971c-0.431-0.238-0.377-0.652,0.118-0.926l1.743-0.971
				c0.498-0.276,1.244-0.309,1.667-0.068l5.326,2.968c0.431,0.239,0.376,0.651-0.115,0.929l-1.747,0.971
				C153.432,111.8,152.688,111.833,152.264,111.594z"/>
			<path fill="#771818" d="M160.414,116.134l-5.327-2.969c-0.43-0.239-0.372-0.651,0.12-0.929l1.744-0.969
				c0.492-0.279,1.244-0.308,1.668-0.066l5.324,2.967c0.43,0.238,0.377,0.652-0.119,0.928l-1.741,0.971
				C161.589,116.342,160.846,116.371,160.414,116.134z"/>
			<path fill="#771818" d="M168.568,120.671l-5.33-2.968c-0.43-0.239-0.373-0.654,0.119-0.928l1.748-0.969
				c0.49-0.279,1.235-0.31,1.66-0.068l5.33,2.969c0.43,0.241,0.372,0.652-0.121,0.928l-1.742,0.967
				C169.743,120.881,168.998,120.911,168.568,120.671z"/>
			<path fill="#771818" d="M176.717,125.214l-5.324-2.966c-0.432-0.239-0.379-0.656,0.117-0.93l1.744-0.967
				c0.499-0.278,1.242-0.309,1.666-0.068l5.327,2.973c0.43,0.239,0.376,0.648-0.118,0.924l-1.746,0.971
				C177.896,125.421,177.152,125.453,176.717,125.214z"/>
			<path fill="#771818" d="M222.236,150.563l-5.328-2.974c-0.432-0.239-0.373-0.649,0.119-0.927l1.746-0.971
				c0.49-0.271,1.236-0.309,1.662-0.067l5.33,2.974c0.43,0.235,0.37,0.652-0.123,0.924l-1.742,0.972
				C223.411,150.771,222.668,150.801,222.236,150.563z"/>
			<path fill="#771818" d="M230.391,155.1l-5.33-2.971c-0.43-0.234-0.373-0.65,0.123-0.924l1.74-0.971
				c0.497-0.276,1.24-0.307,1.664-0.066l5.327,2.969c0.435,0.238,0.376,0.651-0.118,0.926l-1.744,0.974
				C231.564,155.311,230.82,155.346,230.391,155.1z"/>
			<path fill="#771818" d="M238.545,159.641l-5.324-2.968c-0.43-0.241-0.38-0.657,0.114-0.931l1.744-0.969
				c0.496-0.277,1.245-0.307,1.67-0.066l5.323,2.967c0.43,0.239,0.379,0.654-0.118,0.928l-1.741,0.969
				C239.712,159.855,238.968,159.877,238.545,159.641z"/>
			<path fill="#771818" d="M246.699,164.184l-5.333-2.969c-0.431-0.238-0.371-0.654,0.122-0.928l1.742-0.969
				c0.494-0.279,1.242-0.307,1.664-0.067l5.332,2.97c0.43,0.238,0.373,0.651-0.123,0.928l-1.744,0.965
				C247.872,164.391,247.128,164.42,246.699,164.184z"/>
			<path fill="#771818" d="M165.952,128.591l-5.331-2.968c-0.432-0.236-0.372-0.652,0.121-0.928l5.277-2.943
				c0.496-0.273,1.242-0.309,1.668-0.068l5.322,2.975c0.432,0.236,0.379,0.652-0.117,0.921l-5.272,2.946
				C167.122,128.8,166.374,128.831,165.952,128.591z"/>
			<path fill="#771818" d="M174.177,133.173l-5.333-2.97c-0.43-0.239-0.371-0.654,0.123-0.93l5.276-2.942
				c0.491-0.274,1.239-0.306,1.672-0.065l5.319,2.971c0.435,0.238,0.379,0.65-0.117,0.926l-5.277,2.939
				C175.35,133.38,174.604,133.409,174.177,133.173z"/>
			<path fill="#771818" d="M182.398,137.759l-5.322-2.973c-0.432-0.239-0.376-0.649,0.119-0.927l5.277-2.939
				c0.494-0.277,1.241-0.307,1.663-0.066l5.333,2.965c0.43,0.24,0.371,0.656-0.123,0.93l-5.279,2.941
				C183.579,137.964,182.833,137.988,182.398,137.759z"/>
			<path fill="#771818" d="M190.634,142.337l-5.327-2.966c-0.43-0.238-0.379-0.653,0.12-0.93l5.274-2.941
				c0.496-0.273,1.244-0.309,1.668-0.07l5.331,2.969c0.429,0.242,0.368,0.66-0.123,0.929l-5.28,2.946
				C191.813,142.543,191.063,142.579,190.634,142.337z"/>
			<path fill="#771818" d="M198.861,146.916l-5.325-2.969c-0.431-0.238-0.379-0.652,0.118-0.926l5.277-2.942
				c0.492-0.274,1.243-0.304,1.668-0.07l5.323,2.972c0.431,0.242,0.379,0.654-0.114,0.93l-5.279,2.939
				C200.034,147.128,199.284,147.156,198.861,146.916z"/>
			<path fill="#771818" d="M207.085,151.503l-5.323-2.969c-0.431-0.239-0.38-0.652,0.114-0.929l5.278-2.944
				c0.494-0.272,1.246-0.306,1.67-0.065l5.322,2.969c0.432,0.24,0.381,0.653-0.115,0.93l-5.277,2.943
				C208.258,151.711,207.516,151.742,207.085,151.503z"/>
			<path fill="#771818" d="M215.314,156.085l-5.324-2.974c-0.432-0.238-0.379-0.65,0.115-0.93l5.279-2.938
				c0.494-0.278,1.245-0.307,1.668-0.067l5.325,2.968c0.431,0.238,0.379,0.654-0.12,0.929l-5.275,2.942
				C216.488,156.287,215.745,156.322,215.314,156.085z"/>
			<path fill="#771818" d="M223.547,160.662l-5.332-2.967c-0.429-0.237-0.372-0.654,0.121-0.928l5.28-2.944
				c0.493-0.272,1.241-0.308,1.665-0.068l5.328,2.974c0.429,0.235,0.371,0.653-0.123,0.922l-5.278,2.947
				C224.721,160.874,223.975,160.9,223.547,160.662z"/>
			<path fill="#771818" d="M231.777,165.247l-5.332-2.968c-0.43-0.238-0.371-0.655,0.123-0.928l5.273-2.942
				c0.499-0.274,1.242-0.306,1.667-0.065l5.329,2.969c0.43,0.237,0.373,0.651-0.12,0.924l-5.28,2.943
				C232.95,165.458,232.193,165.484,231.777,165.247z"/>
			<path fill="#771818" d="M118.906,129.154l-15.694-8.733c-0.43-0.239-0.373-0.655,0.123-0.93l5.278-2.944
				c0.495-0.273,1.24-0.309,1.664-0.068l15.694,8.735c0.431,0.239,0.377,0.655-0.118,0.929l-5.278,2.944
				C120.082,129.365,119.336,129.395,118.906,129.154z"/>
			<path fill="#771818" d="M219.991,185.453l-15.696-8.736c-0.432-0.24-0.369-0.654,0.121-0.928l5.279-2.946
				c0.494-0.274,1.242-0.306,1.668-0.065l15.691,8.74c0.43,0.235,0.379,0.653-0.119,0.922l-5.274,2.945
				C221.165,185.654,220.422,185.689,219.991,185.453z"/>
			<path fill="#771818" d="M187.087,177.244l-5.328-2.965c-0.432-0.238-0.372-0.658,0.121-0.932l6.286-3.502
				c0.494-0.277,1.242-0.305,1.669-0.074l5.324,2.977c0.43,0.236,0.379,0.65-0.117,0.926l-6.292,3.51
				C188.262,177.45,187.516,177.482,187.087,177.244z"/>
			<path fill="#173D7A" d="M127.33,143.973l-8.523-4.746c-0.429-0.24-0.374-0.652,0.122-0.929l6.292-3.505
				c0.495-0.273,1.24-0.307,1.663-0.064l8.521,4.744c0.431,0.238,0.377,0.652-0.118,0.924l-6.29,3.508
				C128.509,144.178,127.761,144.209,127.33,143.973z"/>
			<path fill="#173D7A" d="M179.154,172.832l-8.521-4.741c-0.431-0.239-0.379-0.657,0.115-0.93l6.293-3.505
				c0.49-0.276,1.237-0.305,1.661-0.064l8.525,4.742c0.43,0.24,0.373,0.654-0.121,0.926l-6.287,3.506
				C180.328,173.042,179.583,173.07,179.154,172.832z"/>
			<path fill="#173D7A" d="M139.204,150.584l-8.522-4.75c-0.433-0.234-0.378-0.648,0.117-0.923l6.29-3.504
				c0.495-0.276,1.241-0.308,1.667-0.069l8.522,4.747c0.429,0.235,0.378,0.655-0.121,0.925l-6.291,3.506
				C140.379,150.787,139.633,150.823,139.204,150.584z"/>
			<path fill="#771818" d="M138.821,141.369l37.042,20.633c0.462,0.255,0.462,0.671,0,0.925l-6.411,3.573
				c-0.459,0.256-1.203,0.256-1.665,0l-37.047-20.631L138.821,141.369z"/>
			<path fill="#771818" d="M210.081,185.555l5.94,3.303c0.349,0.193,0.301,0.539-0.099,0.763l-2.571,1.431
				c-0.406,0.229-1.021,0.249-1.365,0.057l-5.941-3.303c-0.35-0.197-0.3-0.537,0.096-0.765l2.574-1.435
				C209.115,185.382,209.734,185.359,210.081,185.555z"/>
			<path fill="#771818" d="M201.786,180.936l5.935,3.305c0.353,0.191,0.305,0.537-0.094,0.763l-2.576,1.429
				c-0.406,0.229-1.017,0.252-1.365,0.057l-5.938-3.303c-0.352-0.197-0.307-0.535,0.093-0.763l2.573-1.435
				C200.824,180.766,201.436,180.736,201.786,180.936z"/>
			<path fill="#771818" d="M193.559,176.352l5.938,3.303c0.354,0.195,0.306,0.539-0.094,0.766l-2.57,1.43
				c-0.407,0.227-1.018,0.25-1.371,0.053l-5.939-3.301c-0.351-0.192-0.303-0.541,0.097-0.769l2.573-1.426
				C192.594,176.182,193.202,176.157,193.559,176.352z"/>
			<path fill="#771818" d="M206.328,178.402l5.934,3.303c0.354,0.191,0.307,0.537-0.096,0.766l-2.573,1.426
				c-0.403,0.229-1.013,0.25-1.366,0.057l-5.937-3.303c-0.351-0.195-0.306-0.534,0.093-0.765l2.58-1.431
				C205.365,178.23,205.982,178.208,206.328,178.402z"/>
		</g>
	</g>
</g>
<g>
	<path opacity="0.4" fill="#E96B56" enable-background="new    " d="M194.195,70.994l-39.059-21.756
		c-0.963-0.536-1.74-1.963-1.74-3.2V16.395c0-1.237,0.774-1.802,1.74-1.269l39.059,21.756c0.964,0.537,1.74,1.965,1.74,3.202v29.643
		C195.938,70.966,195.159,71.53,194.195,70.994z"/>
	<g>
		<path fill="#E8B3B3" d="M166.948,50.98l-0.275-0.156c-1.019-0.568-1.845-2.088-1.845-3.399V33.296c0-1.311,0.82-1.914,1.845-1.344
			l0.275,0.151c1.018,0.568,1.845,2.089,1.845,3.399v14.129C168.793,50.94,167.973,51.544,166.948,50.98z"/>
		<path fill="#E8B3B3" d="M174.809,55.352l-0.272-0.154c-1.019-0.57-1.849-2.088-1.849-3.399V43.53c0-1.309,0.824-1.912,1.849-1.348
			l0.272,0.155c1.018,0.568,1.844,2.087,1.844,3.4v8.269C176.645,55.314,175.825,55.917,174.809,55.352z"/>
		<path fill="#A83939" d="M182.656,59.726l-0.27-0.154c-1.021-0.569-1.852-2.087-1.852-3.401V36.489
			c0-1.309,0.824-1.913,1.852-1.347l0.27,0.155c1.02,0.568,1.848,2.087,1.848,3.4V58.38
			C184.504,59.693,183.684,60.292,182.656,59.726z"/>
	</g>
</g>
<g>
	<path fill="#E96B56" d="M231.438,63.025L207.169,49.51c-0.901-0.502-1.631-1.846-1.631-3.001l0,0c0-1.154,0.729-1.691,1.631-1.186
		l24.269,13.517c0.904,0.505,1.631,1.847,1.631,3l0,0C233.068,62.998,232.342,63.525,231.438,63.025z"/>
	<path fill="#E96B56" d="M215.829,62.566l-8.66-4.817c-0.901-0.504-1.631-1.845-1.631-3l0,0c0-1.155,0.729-1.691,1.631-1.187
		l8.66,4.82c0.897,0.504,1.629,1.846,1.629,3l0,0C217.458,62.533,216.727,63.067,215.829,62.566z"/>
	<path fill="#A83939" d="M230.359,70.656l-8.661-4.82c-0.897-0.504-1.63-1.845-1.63-3l0,0c0-1.154,0.731-1.691,1.63-1.187
		l8.661,4.821c0.896,0.504,1.629,1.845,1.629,3l0,0C231.988,70.624,231.257,71.156,230.359,70.656z"/>
	<path fill="#E96B56" d="M248.609,80.855l-12.385-6.927c-0.9-0.502-1.629-1.847-1.629-3.001l0,0c0-1.154,0.729-1.691,1.629-1.187
		l12.385,6.929c0.901,0.502,1.637,1.843,1.637,2.999l0,0C250.246,80.824,249.516,81.354,248.609,80.855z"/>
	<path fill="#E96B56" d="M237.493,82.864L207.178,65.98c-0.9-0.504-1.629-1.846-1.629-3.001l0,0c0-1.154,0.729-1.689,1.629-1.185
		l30.315,16.884c0.903,0.5,1.629,1.842,1.629,2.999l0,0C239.122,82.831,238.396,83.362,237.493,82.864z"/>
	<path fill="#A83939" d="M250.246,98.101l-43.068-23.89c-0.9-0.506-1.629-1.846-1.629-3l0,0c0-1.155,0.729-1.691,1.629-1.188
		l43.068,23.892c0.896,0.502,1.629,1.844,1.629,2.999l0,0C251.875,98.068,251.145,98.605,250.246,98.101z"/>
	<path fill="#E96B56" d="M253.887,75.49l-15.746-8.731c-0.904-0.506-1.629-1.846-1.629-3.001l0,0c0-1.155,0.725-1.69,1.629-1.186
		l15.746,8.731c0.899,0.506,1.633,1.848,1.633,3.001l0,0C255.52,75.458,254.786,75.99,253.887,75.49z"/>
</g>
<g>
	<polygon fill="#A83939" points="160.961,76.123 153.295,71.854 153.295,80.389 160.961,84.657 	"/>
	<polygon fill="#E96B56" points="173.066,75.814 165.398,71.545 165.398,87.126 173.066,91.395 	"/>
	<polygon fill="#E96B56" points="185.168,87.005 177.505,82.74 177.505,93.869 185.168,98.135 	"/>
	<polygon fill="#E96B56" points="197.275,90.533 189.609,86.264 189.609,100.607 197.275,104.874 	"/>
	<polygon fill="#A83939" points="209.371,98.135 201.71,93.869 201.71,107.352 209.371,111.615 	"/>
	<polygon fill="#771818" points="221.477,101.482 213.814,97.214 213.814,114.088 221.477,118.355 	"/>
	<polygon fill="#E96B56" points="233.579,106.422 225.92,102.154 225.92,120.83 233.579,125.102 	"/>
	<polygon fill="#A83939" points="245.688,108.605 238.025,104.342 238.025,127.568 245.688,131.838 	"/>
</g>
<g>
	<polygon fill="#CC5858" points="294.534,74.41 294.105,72.793 298.98,71.584 299.41,73.208 	"/>
	<polygon fill="#CC5858" points="292.047,76.747 291.615,75.131 296.491,73.928 296.921,75.543 	"/>
	<polygon fill="#CC5858" points="289.563,79.092 289.134,77.47 294.007,76.263 294.438,77.882 	"/>
	<polygon fill="#CC5858" points="287.075,81.427 286.65,79.813 291.52,78.603 291.951,80.225 	"/>
</g>
<polygon fill="#872727" points="196.904,171.191 181.459,162.596 166.021,171.191 181.459,179.79 "/>
<polygon fill="#872727" points="148.233,172.689 132.794,164.091 117.353,172.689 132.794,181.289 "/>
<polygon fill="#872727" points="115.562,154.639 100.119,146.04 84.68,154.639 100.119,163.234 "/>
<g>
	<g>
		<g>
			<polygon fill="#C13D1A" points="132.794,172.689 132.794,126.831 148.233,118.232 148.233,164.091 			"/>
			<polygon fill="#EF602E" points="148.233,118.232 132.794,109.634 117.353,118.232 132.794,126.831 			"/>
			<polygon fill="#CC5858" points="132.794,126.831 117.353,118.232 117.353,164.091 132.794,172.689 			"/>
			<polygon fill="#A83939" points="132.794,172.689 132.794,126.831 148.233,118.232 148.233,164.091 			"/>
			<polygon fill="#E96B56" points="148.233,118.232 132.794,109.634 117.353,118.232 132.794,126.831 			"/>
		</g>
		<g>
			<polygon fill="#771818" points="165.561,191.186 165.561,165.393 181.008,156.795 181.008,182.586 			"/>
			<polygon fill="#A83939" points="165.561,165.393 150.125,156.795 150.125,182.586 165.561,191.186 			"/>
			<polygon fill="#E96B56" points="181.008,156.795 165.561,148.191 150.125,156.795 165.561,165.393 			"/>
		</g>
		<g>
			<polygon fill="#E96B56" points="100.119,154.639 100.119,91.584 115.562,82.988 115.562,146.04 			"/>
			<polygon fill="#A83939" points="100.119,91.584 84.68,82.988 84.68,146.04 100.119,154.639 			"/>
			<polygon fill="#CC5858" points="115.562,82.988 100.119,74.388 84.68,82.988 100.119,91.584 			"/>
		</g>
	</g>
</g>
<g>
	<g>
		<path fill="#CC5858" d="M90.922,118.631c0,0-2.55-1.24-4.116,0.604c-1.564,1.847-3.803,6.211-3.875,9.152
			c-0.073,2.95,2.417,2.743,3.895,2.051c1.475-0.701,5.792-6.736,6.053-7.922c0.263-1.18-0.309-2.777-0.722-3.092
			C91.746,119.107,90.922,118.631,90.922,118.631z"/>
		<path fill="#FFD7D7" d="M91.477,118.039l0.119,2.553c0.026,0.539-0.254,1.055-0.746,1.32c-0.447,0.245-1.094,0.431-1.964,0.298
			c-1.921-0.298-2.09-0.825-2.228-3.371C86.52,116.284,91.477,118.039,91.477,118.039z"/>
		<g>
			<path fill="#CC5858" d="M81.593,113.732c0,0-2.549-1.241-4.116,0.605c-1.566,1.846-3.805,6.205-3.876,9.15
				c-0.069,2.943,2.422,2.744,3.896,2.05c1.475-0.701,5.794-6.738,6.058-7.92c0.262-1.185-0.313-2.782-0.724-3.101
				C82.411,114.212,81.593,113.732,81.593,113.732z"/>
			<path fill="#FFD7D7" d="M82.148,113.141l0.118,2.547c0.022,0.541-0.257,1.063-0.746,1.326c-0.446,0.246-1.094,0.43-1.965,0.297
				c-1.921-0.297-2.086-0.824-2.225-3.371C77.186,111.383,82.148,113.141,82.148,113.141z"/>
			<path fill="#771818" d="M104.894,66.368c-0.752-11.844-13.293,1.744-13.293,1.744l-8.578,8.116l-7.732,8.187
				c-1.511,1.602-2.209,3.758-1.918,5.903l3.13,22.965c0.154,1.135,1.159,1.972,2.349,1.96c0.335,0,0.717-0.03,1.16-0.099
				c2.789-0.416,2.588-2.974,2.588-2.974l-0.576-21.479l16.233-9.438C98.244,81.251,105.646,78.21,104.894,66.368z"/>
		</g>
		<path fill="#771818" d="M114.229,70.877c-0.753-11.842-13.294,1.744-13.294,1.744l-8.583,8.117l-7.727,8.19
			c-1.513,1.6-2.208,3.758-1.915,5.904l3.128,22.966c0.156,1.136,1.16,1.972,2.35,1.961c0.335,0,0.716-0.034,1.16-0.096
			c2.787-0.418,2.584-2.979,2.584-2.979L91.36,95.205l16.231-9.433C107.571,85.767,114.979,82.721,114.229,70.877z"/>
		<path fill="#CC5858" d="M106.806,32.866c9.508,3.8,9.314,9.223,9.314,9.223s-1.861,19.874-1.225,33.147
			c0.27,5.552-30.563,5.975-25.965-8.83c5.423-17.458,3.393-31.586,5.926-33.714C97.391,30.558,104.345,31.878,106.806,32.866z"/>
		<path fill="#FFC2B0" d="M109.863,37.673c-0.495,1.859-3.028,2.843-5.649,2.189c-2.622-0.653-4.35-2.688-3.845-4.555
			c0.495-1.86,3.028-2.842,5.647-2.188C108.638,33.772,110.366,35.807,109.863,37.673z"/>
		<path fill="#FFFFFF" d="M105.819,40.498c-0.553,0-1.131-0.067-1.717-0.213c-2.861-0.711-4.736-2.988-4.175-5.084
			c0.561-2.096,3.341-3.22,6.205-2.508c1.364,0.338,2.542,1.038,3.334,1.964c0.819,0.971,1.122,2.08,0.841,3.116
			C109.855,39.449,108.003,40.498,105.819,40.498z M104.388,33.357c-1.766,0-3.241,0.796-3.584,2.068
			c-0.435,1.627,1.147,3.423,3.525,4.017c2.372,0.59,4.665-0.247,5.094-1.877c0.204-0.764-0.037-1.595-0.669-2.344
			c-0.671-0.791-1.678-1.383-2.855-1.676C105.39,33.416,104.876,33.357,104.388,33.357z"/>
		<path fill="#FFC2B0" d="M102.996,32.454c0,0,0.081,0.365-0.083,3.276c-0.052,0.914,3.27,1.764,4.119,0.938
			c0.86-0.827,0.516-1.683,0.723-4.798C107.958,28.763,102.996,32.454,102.996,32.454z"/>
		<path fill="#EA9C92" d="M107.755,31.867c0,0-0.817,2.884-4.845,3.987l0.06-2.619L107.755,31.867z"/>
		<path fill="#FFC2B0" d="M110.308,24.543c1.008,3.773-1.338,7.626-5.256,8.604c-3.911,0.976-7.906-1.292-8.914-5.067
			c-1.011-3.775,1.336-7.631,5.256-8.604C105.301,18.499,109.292,20.769,110.308,24.543z"/>
		<path fill="#EA9C92" d="M104.9,26.567c0,0-4.03,1.664-6.819,1.686c-2.789,0.019-2.174-2.237-2.174-2.237l8.282-1.155L104.9,26.567
			z"/>
		<path fill="#771818" d="M97.25,27.006c0,0,3.512-1.437,6.585-0.836c0.724,0.145,1.4,0.514,1.862,1.064
			c0.156,0.182,0.345,0.346,0.563,0.394c0.545,0.117,1.438-2.067,2.501-2.115c1.065-0.047,1.768,0.672,0.9,2.02
			c-0.869,1.348-0.572,2.848-0.173,3.064c0.4,0.218,4.646-2.919,0.903-10.083c-3.745-7.158-13.264-3.303-14.745-1.851
			c0,0-1.561,1.308-2.826,0.143C92.819,18.806,91.399,29.08,97.25,27.006z"/>
		<path fill="#FFC2B0" d="M110.789,56.61v5.37c0,0.615-0.269,1.204-0.742,1.619L98.61,73.653l1.3,1.919l15.104-10.566
			c0.702-0.493,1.16-1.251,1.248-2.088l1.022-9.365L110.789,56.61z"/>
		<path fill="#CC5858" d="M115.322,39.401c0,0,3.469,5.039,4.76,18.283c0,0-5.929,1.854-9.292,0.8
			C107.427,57.434,115.322,39.401,115.322,39.401z"/>
		<path fill="#A83939" d="M110.156,45.766c0,0-1.357,7.014-1.435,10.312c-0.025,0.908,0.548,1.724,1.435,2.029l0,0V45.766z"/>
	</g>
	<g>
		<path fill="#CC5858" d="M107.187,80.637l-2.527-0.325l-16.32-9.085c-0.525-0.292-1.438-0.253-2.042,0.081l-11.562,6.434
			l-1.526-0.196v1.467l0,0c-0.014,0.191,0.101,0.383,0.35,0.514l18.495,10.3c0.526,0.292,1.439,0.254,2.043-0.078l12.592-7.006
			c0.343-0.189,0.509-0.434,0.503-0.664l0,0v-1.444h-0.006V80.637z"/>
		<path fill="#396CAA" d="M94.929,74.9l-1.16-0.648H81.025l-6.284,3.499l-1.529-0.195v1.47l0,0c-0.011,0.189,0.101,0.38,0.352,0.511
			l18.494,10.302c0.272,0.153,0.664,0.217,1.05,0.188L94.929,74.9z"/>
		<path fill="#5793CE" d="M73.889,77.64l-0.68-0.084v1.47l0,0c-0.015,0.189,0.101,0.38,0.35,0.511l0.33,0.181V77.64z"/>
		<path fill="#FFFFFF" d="M92.242,89.92c0.496,0.18,1.204,0.143,1.73-0.106v-2.496h-1.73V89.92z"/>
		<path fill="#FFFFFF" d="M92.054,88.369l-18.495-10.3c-0.525-0.292-0.459-0.799,0.148-1.135l12.596-7.009
			c0.604-0.335,1.514-0.37,2.043-0.08l18.494,10.303c0.526,0.29,0.461,0.797-0.147,1.132l-12.592,7.01
			C93.493,88.624,92.581,88.656,92.054,88.369z"/>
		<path fill="#E96B56" d="M91.746,86.809l-15.379-8.562c-0.432-0.242-0.381-0.667,0.123-0.946l6.749-3.656
			c0.5-0.279,1.259-0.312,1.696-0.069l15.377,8.563c0.434,0.246,0.38,0.667-0.121,0.945l-6.75,3.657
			C92.939,87.021,92.183,87.054,91.746,86.809z"/>
	</g>
	<path fill="#FFC2B0" d="M87.015,69.586l-0.189,1.228c-0.162,1.05-0.138,2.116,0.082,3.156l0.226,1.087
		c0.132,0.609,0.634,1.087,1.27,1.198l0,0c0.495,0.084,0.964-0.247,1.021-0.732l0.305-2.628c0,0,0.699,0.878,1.031,0.878
		c0.335,0-0.374-2.632-1.139-4.125C88.865,68.156,87.015,69.586,87.015,69.586z"/>
	<path fill="#FFC2B0" d="M93.286,50.023l-1.984,3.792c-0.473,0.894-0.745,1.875-0.811,2.871l-0.86,12.957l-2.611-0.059
		l-1.183-14.551c-0.036-0.45-0.009-0.9,0.066-1.348l1.357-7.379L93.286,50.023z"/>
	<g>
		<path fill="#771818" d="M91.428,89.36l-1.555-1.951l-16.307-9.106c-0.526-0.293-0.944-1.078-0.944-1.75l0.011-12.878l-0.935-1.181
			L72.58,62l0,0c0.168-0.104,0.395-0.102,0.638,0.039L91.7,72.36c0.527,0.291,0.943,1.076,0.943,1.749l-0.017,14.027
			c0,0.376-0.139,0.64-0.345,0.746l0,0L91.428,89.36z"/>
		<path fill="#A83939" d="M80.151,81.974l-1.159-0.647L72.63,70.673l0.006-6.997l-0.938-1.184L72.581,62l0,0
			c0.167-0.104,0.393-0.102,0.64,0.039L91.703,72.36c0.272,0.154,0.527,0.445,0.696,0.784L80.151,81.974z"/>
		<path fill="#CC5858" d="M72.121,63.018l-0.417-0.525L72.588,62l0,0c0.166-0.104,0.392-0.102,0.638,0.039l0.33,0.182L72.121,63.018
			z"/>
		<path fill="#872727" d="M91.876,72.477c0.41,0.322,0.729,0.937,0.771,1.502l-1.805,1.005l-0.866-1.447L91.876,72.477z"/>
		<path fill="#CC5858" d="M90.823,72.852L72.341,62.53c-0.527-0.292-0.95,0.018-0.95,0.692l-0.016,14.026
			c0,0.675,0.423,1.456,0.943,1.75L90.8,89.319c0.524,0.292,0.948-0.014,0.948-0.687l0.017-14.027
			C91.769,73.923,91.352,73.144,90.823,72.852z"/>
	</g>
	<path fill="#FFC2B0" d="M99.915,75.572l-0.299,0.595c-0.341,0.682-0.879,1.255-1.547,1.653l-1.833,1.093
		c-0.572,0.341-1.299,0.365-1.876,0.042c-0.024-0.008-0.043-0.025-0.058-0.036c-0.586-0.351-0.64-1.161-0.154-1.639l1.915-1.905
		c0,0-1.074,0.794-1.379,0.478c-0.222-0.231,1.044-1.383,2.015-1.419c0.973-0.037,1.912-0.775,1.912-0.775L99.915,75.572z"/>
	<path fill="#CC5858" d="M95.046,32.664c0,0-7.035,7.38-9.87,14.151c0,0,2.404,4.179,8.287,5.82
		C99.36,54.271,95.046,32.664,95.046,32.664z"/>
	<path fill="#A83939" d="M92.143,52.193l1.143-10.62L90.6,51.526C91.076,51.764,91.593,51.985,92.143,52.193z"/>
	<path fill="#FFFFFF" d="M100.316,31.174l-1.887-0.498c0,0,0.899,1.366,2.221,1.718c1.32,0.35,1.521-0.73,1.521-0.73L100.316,31.174
		z"/>
</g>
<g>
	<path fill="#E96B56" d="M83.731,218.867c-12.708-7.081-33.318-7.081-46.032,0c-12.708,7.072-12.708,18.551,0,25.629
		c12.707,7.074,33.318,7.074,46.024,0C96.442,237.418,96.442,225.939,83.731,218.867z M71.297,237.572
		c-5.841,3.253-15.32,3.253-21.159,0c-5.841-3.258-5.841-8.528,0-11.786c5.839-3.253,15.318-3.253,21.159,0
		C77.142,229.044,77.142,234.314,71.297,237.572z"/>
	<g>
		<g>
			<path fill="#771818" d="M32.903,214.67l11.61,0.176c0.861-1.074,2.077-2.09,3.667-2.974c6.381-3.56,16.422-3.831,23.38-0.826
				l6.896-6.262l10.624,0.163c-0.526-0.329-1.065-0.659-1.63-0.975c-14.764-8.225-38.698-8.225-53.458,0
				c-2.72,1.51-4.927,3.192-6.641,4.989L32.903,214.67z"/>
			<polygon fill="#CC5858" points="89.083,188.68 89.083,204.943 78.456,204.784 78.456,188.521 			"/>
			<polygon fill="#771818" points="71.56,194.781 71.56,211.041 78.456,204.784 78.456,188.521 			"/>
			<path fill="#771818" d="M44.514,198.584v16.262l15.271-12.004l11.769,8.201v-16.259l-10.84-5.073c0,0-14.925,4.406-15.699,4.602
				C44.245,194.488,44.514,198.584,44.514,198.584z"/>
			<polygon fill="#771818" points="32.903,198.406 32.903,214.67 44.514,214.846 44.514,198.584 			"/>
			<polygon fill="#CC5858" points="27.342,192.697 27.342,208.962 32.903,214.67 32.903,198.406 			"/>
			<path fill="#E96B56" d="M32.903,198.406l11.61,0.178c0.861-1.077,2.077-2.091,3.667-2.973c6.381-3.561,16.422-3.83,23.38-0.83
				l6.896-6.262l10.624,0.162c-0.526-0.33-1.065-0.656-1.63-0.975c-14.764-8.223-38.698-8.223-53.458,0
				c-2.72,1.514-4.927,3.195-6.641,4.992L32.903,198.406z"/>
		</g>
		<g>
			<path fill="#CC5858" d="M75.062,196.777v14.949l10.05-2.318c0,0-0.592-8.746-0.809-8.98
				C84.087,200.193,75.062,196.777,75.062,196.777z"/>
			<g>
				<path fill="#771818" d="M67.451,211.727v16.264l1.085,1.115l7.082-3.939c0,0-1.096-12.416-1.232-12.665
					C74.265,212.255,67.451,211.727,67.451,211.727z"/>
				<path fill="#A83939" d="M81.134,207.527l-6.072,5.52c5.064,3.859,4.46,9.305-1.799,12.794c-1.71,0.953-3.694,1.677-5.802,2.154
					l6.284,6.45l-5.566,5.048c7.065-0.787,13.809-2.704,19.284-5.751c12.69-7.068,14.458-17.91,5.334-26.036L81.134,207.527z"/>
				<polygon fill="#A83939" points="68.166,223.234 68.166,239.493 81.944,234.357 98.516,219.111 98.453,201.848 80.923,215.25 
									"/>
				<path fill="#E96B56" d="M81.134,191.266l-6.072,5.52c5.064,3.861,4.46,9.304-1.799,12.796c-1.71,0.951-3.694,1.675-5.802,2.151
					l6.284,6.451l-5.566,5.045c7.065-0.787,13.809-2.705,19.284-5.752c12.69-7.065,14.458-17.908,5.334-26.035L81.134,191.266z"/>
			</g>
		</g>
		<g>
			<path fill="#A83939" d="M68.12,234.357l-5.538-5.686c-5.134,0.301-10.468-0.645-14.402-2.838
				c-4.067-2.266-5.745-5.361-5.036-8.307l-13.18-0.196l-5.071-5.205c-4.432,7.337-1.41,15.767,9.089,21.615
				c7.716,4.292,17.936,6.334,28.038,6.143L68.12,234.357z"/>
			<polygon fill="#A83939" points="62.027,223.621 62.027,239.893 22.925,218.986 22.925,202.716 28.633,204.943 			"/>
			<polygon fill="#771818" points="68.12,218.102 68.12,234.357 62.027,239.893 62.027,223.621 			"/>
			<path fill="#CC5858" d="M68.12,218.102l-5.538-5.688c-5.134,0.304-10.468-0.645-14.402-2.838
				c-4.067-2.264-5.745-5.359-5.036-8.307l-13.18-0.194l-5.071-5.209c-4.432,7.341-1.41,15.767,9.089,21.612
				c7.716,4.299,17.936,6.342,28.038,6.147L68.12,218.102z"/>
		</g>
	</g>
</g>
<g>
	<path fill="#CC5858" d="M90.961-2.116l1.005-1.644c0,0,0.841,0.446,1.737,0.174c0.723-0.216,1.343-0.848,1.852-1.866
		c1.799-3.589,5.111-3.867,6.616-3.505l-0.473,1.855l0.239-0.928l-0.227,0.928c-0.286-0.061-2.86-0.536-4.365,2.481
		c-0.765,1.528-1.804,2.488-3.081,2.869C92.549-1.257,91.118-2.026,90.961-2.116z"/>
</g>
<path fill="#E96B56" d="M59.485,60.525c-5.005,0-9.071-3.929-9.071-8.753c0-4.824,4.066-8.749,9.071-8.749
	c5.002,0,9.073,3.925,9.073,8.749C68.558,56.597,64.487,60.525,59.485,60.525z M59.485,44.929c-3.911,0-7.095,3.071-7.095,6.843
	s3.184,6.843,7.095,6.843c3.912,0,7.096-3.071,7.096-6.843S63.396,44.929,59.485,44.929z"/>
<path fill="#CC5858" d="M6.246,181.438c-3.547,0-6.431-2.785-6.431-6.215c0-3.416,2.884-6.205,6.431-6.205s6.431,2.782,6.431,6.205
	C12.677,178.65,9.793,181.438,6.246,181.438z M6.246,170.93c-2.457,0-4.454,1.93-4.454,4.293c0,2.37,2,4.301,4.454,4.301
	s4.453-1.922,4.453-4.301C10.699,172.855,8.7,170.93,6.246,170.93z"/>
<path fill="#CC5858" d="M46.2,111.729l-4.366-8.563l8.881-4.212l4.366,8.567L46.2,111.729z M44.484,104.031l2.622,5.144l5.333-2.528
	l-2.621-5.143L44.484,104.031z"/>
<polygon fill="#CC5858" points="267.037,21.796 262.954,23.73 260.945,19.79 265.032,17.859 "/>
<g>
	<polygon fill="#E96B56" points="180.449,-24.678 179.048,-26.03 185.7,-32.445 187.096,-31.092 	"/>
	<polygon fill="#E96B56" points="185.7,-24.678 179.048,-31.092 180.449,-32.445 187.096,-26.03 	"/>
</g>
<path fill="#E96B56" d="M253.857-25.352c0,2.488-2.092,4.505-4.672,4.505c-2.576,0-4.668-2.015-4.668-4.505
	c0-2.486,2.092-4.503,4.668-4.503C251.766-29.855,253.857-27.843,253.857-25.352z"/>
<path fill="#FFD7D7" d="M128.163,226.98c0,1.445-1.213,2.619-2.715,2.619c-1.5,0-2.709-1.174-2.709-2.619
	c0-1.447,1.212-2.619,2.709-2.619C126.946,224.361,128.163,225.533,128.163,226.98z"/>
<path fill="#E96B56" d="M232.482,221.305c3.072,0,5.567,2.402,5.567,5.369s-2.495,5.369-5.567,5.369
	c-3.075,0-5.569-2.402-5.569-5.369S229.407,221.305,232.482,221.305z"/>
<g>
	<g>
		<path fill="#771818" d="M38.267,124.547l-19.874-11.068c-0.396-0.217-0.746-0.229-1.029-0.08v-0.01l-1.929,1.075
			c0,0,0.854,0.302,1.356,0.478V128.9c0,1.132,0.716,2.453,1.601,2.949l18.996,10.573v1.642l1.949-1.084l-0.01-0.004
			c0.327-0.197,0.537-0.621,0.537-1.231v-14.257C39.859,126.354,39.151,125.042,38.267,124.547z"/>
		<path fill="#CC5858" d="M36.302,144.002l-19.874-11.068c-0.884-0.492-1.599-1.813-1.599-2.945v-14.254
			c0-1.139,0.715-1.666,1.599-1.168l19.874,11.068c0.884,0.491,1.601,1.813,1.601,2.944v14.26
			C37.903,143.973,37.187,144.496,36.302,144.002z"/>
	</g>
	<g>
		<path fill="#FFFFFF" d="M23.11,128.021c0,0.83-0.604,1.162-1.344,0.75c-0.739-0.414-1.343-1.416-1.343-2.242
			c0-0.829,0.604-1.162,1.343-0.746C22.514,126.193,23.11,127.195,23.11,128.021z"/>
		<path fill="#FFFFFF" d="M27.179,130.287c0,0.826-0.604,1.162-1.344,0.748c-0.741-0.411-1.343-1.41-1.343-2.241
			c0-0.832,0.605-1.16,1.343-0.75C26.574,128.46,27.179,129.464,27.179,130.287z"/>
		<path fill="#FFFFFF" d="M31.238,132.546c0,0.829-0.603,1.16-1.342,0.749c-0.743-0.416-1.344-1.418-1.344-2.244
			c0-0.83,0.604-1.162,1.344-0.744C30.635,130.717,31.238,131.725,31.238,132.546z"/>
	</g>
</g>
<g>
	<g>
		<path fill="#CC5858" d="M228.846-6.395l-19.875-11.068c-0.391-0.218-0.744-0.227-1.025-0.077v-0.011l-1.932,1.075
			c0,0,0.854,0.303,1.356,0.478v13.959c0,1.135,0.716,2.455,1.597,2.949l18.999,10.574v1.64l1.947-1.082l-0.015-0.005
			c0.328-0.197,0.537-0.622,0.537-1.232V-3.443C230.441-4.586,229.73-5.902,228.846-6.395z"/>
		<path fill="#E96B56" d="M226.882,13.062L207.007,1.994c-0.889-0.493-1.599-1.812-1.599-2.947v-14.252
			c0-1.133,0.715-1.659,1.599-1.166l19.875,11.067c0.886,0.491,1.597,1.813,1.597,2.948v14.248
			C228.486,13.026,227.768,13.555,226.882,13.062z"/>
	</g>
	<g>
		<path fill="#FFFFFF" d="M213.691-2.918c0,0.828-0.605,1.161-1.346,0.749c-0.738-0.414-1.342-1.417-1.342-2.244
			c0-0.826,0.605-1.162,1.342-0.747C213.092-4.747,213.691-3.744,213.691-2.918z"/>
		<path fill="#FFFFFF" d="M217.756-0.653c0,0.827-0.605,1.16-1.344,0.749c-0.737-0.414-1.342-1.417-1.342-2.245
			c0-0.824,0.606-1.161,1.342-0.746C217.148-2.481,217.756-1.481,217.756-0.653z"/>
		<path fill="#FFFFFF" d="M221.814,1.606c0,0.829-0.604,1.16-1.342,0.748c-0.738-0.415-1.342-1.415-1.342-2.244
			c0-0.827,0.604-1.161,1.342-0.745C221.218-0.218,221.814,0.784,221.814,1.606z"/>
	</g>
</g>
<polygon fill="#E96B56" points="227.094,233.27 238.756,226.775 250.426,233.27 238.756,239.768 "/>
<polygon fill="#E96B56" points="251.85,219.293 263.52,212.798 275.188,219.293 263.52,225.792 "/>
<polygon fill="#E96B56" points="276.54,205.648 288.208,199.154 299.876,205.648 288.208,212.148 "/>
<g>
	<g>
		<g>
			<polygon fill="#C13D1A" points="263.52,219.293 263.52,184.637 251.85,178.146 251.85,212.798 			"/>
			<polygon fill="#771818" points="263.52,184.637 275.188,178.146 275.188,212.798 263.52,219.293 			"/>
			<polygon fill="#CC5858" points="263.52,219.293 263.52,184.637 251.85,178.146 251.85,212.798 			"/>
		</g>
		<g>
			<polygon fill="#CC5858" points="238.756,233.27 238.756,213.775 227.094,207.282 227.094,226.775 			"/>
			<polygon fill="#771818" points="238.756,213.775 250.426,207.282 250.426,226.775 238.756,233.27 			"/>
			<polygon fill="#E96B56" points="227.094,207.282 238.756,200.779 250.426,207.282 238.756,213.775 			"/>
		</g>
		<g>
			<polygon fill="#CC5858" points="288.208,205.648 288.208,158.004 276.54,151.51 276.54,199.154 			"/>
			<polygon fill="#771818" points="288.208,158.004 299.876,151.51 299.876,199.154 288.208,205.648 			"/>
			<polygon fill="#E96B56" points="276.54,151.51 288.208,145.009 299.876,151.51 288.208,158.004 			"/>
		</g>
	</g>
	<polygon fill="#E96B56" points="251.85,178.146 263.52,171.646 275.188,178.146 263.52,184.637 	"/>
</g>
</svg>
