<?xml version="1.0" encoding="utf-8"?>
<!-- Generator: Adobe Illustrator 16.0.0, SVG Export Plug-In . SVG Version: 6.00 Build 0)  -->
<!DOCTYPE svg PUBLIC "-//W3C//DTD SVG 1.1//EN" "http://www.w3.org/Graphics/SVG/1.1/DTD/svg11.dtd">
<svg version="1.1" id="Layer_1" xmlns="http://www.w3.org/2000/svg" xmlns:xlink="http://www.w3.org/1999/xlink" x="0px" y="0px"
	 width="300px" height="100px" viewBox="0 0 300 100" enable-background="new 0 0 300 100" xml:space="preserve">
<g>
	<g>
		<g>
			<path fill="#E8B3B3" d="M93.485,23.588l-16.55-10.024c-1.398-0.839-1.222-2.306,0.394-3.279l15.774-9.571
				c1.615-0.97,4.05-1.077,5.448-0.233l16.551,10.027c1.4,0.839,1.222,2.305-0.395,3.277l-15.773,9.57
				C97.326,24.33,94.884,24.43,93.485,23.588z"/>
			<g>
				<path fill="#771818" d="M121.461-8.556L121.461-8.556v-4.39l-22.376-0.008l0.157-0.008c-1.776-1.065-4.879-0.934-6.926,0.301
					l0.662-0.291l-22.4-0.01v4.684c-0.049,0.721,0.339,1.419,1.188,1.932L92.798,6.398c1.777,1.066,4.877,0.932,6.925-0.301
					L119.77-6.068C120.957-6.778,121.527-7.702,121.461-8.556z"/>
				<path fill="#A83939" d="M96.028-13.679c-1.298,0.035-2.646,0.373-3.713,1.018l0.662-0.291l-22.4-0.01v4.684
					c-0.049,0.721,0.339,1.419,1.188,1.932L92.798,6.398c0.856,0.508,2.014,0.743,3.212,0.716L96.028-13.679z"/>
				<path fill="#E8B3B3" d="M73.113-12.961h-2.536v4.684c-0.049,0.721,0.339,1.419,1.188,1.932l1.349,0.811V-12.961z"/>
				<path fill="#872727" d="M93.249,6.625c1.532,0.684,3.744,0.646,5.538-0.066V0.425h-5.538V6.625z"/>
				<path fill="#E96B56" d="M92.804,1.748L71.77-10.995c-1.775-1.067-1.553-2.933,0.5-4.167l20.045-12.163
					c2.047-1.235,5.15-1.368,6.926-0.302l21.033,12.742c1.776,1.069,1.552,2.935-0.5,4.167L99.729,1.449
					C97.675,2.68,94.581,2.821,92.804,1.748z"/>
				<g>
					<path fill="#FFFFFF" d="M96.883-15.356l-6.188-3.749c-0.827-0.495-0.827-1.306,0-1.799c0.828-0.496,2.17-0.496,2.99,0
						l6.187,3.744c0.827,0.492,0.827,1.305,0,1.8C99.047-14.861,97.704-14.861,96.883-15.356z"/>
				</g>
				<g>
					<path fill="#FFFFFF" d="M105.871-9.882l-3.757-2.307c-0.826-0.495-0.826-1.306,0-1.8c0.828-0.493,2.169-0.493,2.991,0
						l3.756,2.305c0.827,0.495,0.827,1.305,0,1.801C108.04-9.385,106.698-9.385,105.871-9.882z"/>
				</g>
				<g>
					<path fill="#FFFFFF" d="M88.209-13.055l-3.755-2.305c-0.827-0.495-0.827-1.308,0-1.8c0.825-0.497,2.169-0.497,2.991,0
						l3.755,2.304c0.827,0.494,0.827,1.306,0,1.801C90.375-12.563,89.038-12.563,88.209-13.055z"/>
				</g>
			</g>
		</g>
	</g>
	<path fill="#E8B3B3" d="M263.771,120.157L146.385,49.58c-3.324-1.996-9.121-1.744-12.956,0.559L53.495,98.181
		c-3.835,2.307-4.25,5.793-0.933,7.791l40.358,24.261c-3.2,0.298-6.286,1.177-8.755,2.655c-6.146,3.703-6.146,9.695,0,13.386
		c6.149,3.701,16.119,3.701,22.267,0c2.467-1.478,3.928-3.336,4.415-5.257l9.538,5.729c-1.985,0.471-3.844,1.188-5.447,2.153
		c-6.277,3.771-6.277,9.884,0,13.656c6.274,3.777,16.447,3.777,22.715,0c1.603-0.965,2.79-2.08,3.578-3.277l28.725,17.271
		c3.325,1.995,9.124,1.744,12.955-0.562l79.935-48.042C266.682,125.641,267.097,122.152,263.771,120.157z"/>
	<g>
		<path fill="#771818" d="M295.614-25.002L173.357-98.509c-1.42-0.855-2.865-0.983-4.146-0.529l0.005-0.01l-0.224,0.089
			c-0.013,0.005-0.035,0.01-0.052,0.021l-4.417,1.762l3.966,2.021c-0.014,0.079-0.038,0.145-0.055,0.222L148.522-0.54
			c-1,4.72,0.998,10.237,4.456,12.32l119.317,71.735l-0.429,5.262l4.826-1.951c1.622-0.787,2.923-2.575,3.456-5.118l19.916-94.392
			C301.066-17.41,299.071-22.925,295.614-25.002z"/>
		<path fill="#A83939" d="M295.614-25.002L173.357-98.509c-1.42-0.855-2.865-0.983-4.146-0.529l0.005-0.01l-0.224,0.089
			c-0.013,0.005-0.035,0.01-0.052,0.021l-4.417,1.762l3.966,2.021c-0.014,0.079-0.038,0.145-0.055,0.222l-13.121,62.214
			l59.817,48.529l84.348-35.737C298.664-22.119,297.315-23.981,295.614-25.002z"/>
		<path fill="#872727" d="M291.006-10.497l9.3-4.125c0.176-3.756-1.317-7.634-3.772-9.706l-14.728,6.455L291.006-10.497z"/>
		<path fill="#E96B56" d="M267.62,88.272l-122.25-73.499c-3.457-2.078-5.456-7.592-4.456-12.321l19.913-94.39
			c0.998-4.722,4.61-6.866,8.069-4.789l122.257,73.505c3.457,2.078,5.455,7.594,4.455,12.32l-19.915,94.391
			C274.696,88.209,271.084,90.354,267.62,88.272z"/>
		<path fill="#FFFFFF" d="M264.977,81.253L149.995,12.157c-3.16-1.905-4.992-6.948-4.078-11.271l18.225-86.376
			c0.91-4.32,4.214-6.282,7.378-4.382l114.981,69.096c3.16,1.904,4.991,6.949,4.075,11.271l-18.223,86.372
			C271.444,81.196,268.14,83.154,264.977,81.253z"/>
		<path fill="#FFFFFF" d="M264.977,81.253L149.995,12.157c-3.16-1.905-4.992-6.948-4.078-11.271l18.225-86.376
			c0.91-4.32,4.214-6.282,7.378-4.382l114.981,69.096c3.16,1.904,4.991,6.949,4.075,11.271l-18.223,86.372
			C271.444,81.196,268.14,83.154,264.977,81.253z"/>
		<path fill="#B20F0F" d="M269.307,91.479l-16.711-2.304L144.725,24.322c-3.455-2.077-9.498-1.815-13.493,0.583l-76.44,45.939
			L44.689,69.46v5.969h0.01c-0.067,1.378,0.689,2.706,2.32,3.692l122.26,73.502c3.455,2.079,9.497,1.816,13.495-0.579l83.244-50.032
			c2.248-1.351,3.368-3.093,3.304-4.727l0,0v-5.807H269.307z"/>
		<path fill="#A83939" d="M188.258,50.497l-7.658-4.611H96.333L54.792,70.841l-10.102-1.388v5.969h0.01
			c-0.067,1.38,0.689,2.71,2.32,3.688l122.26,73.508c1.823,1.103,4.374,1.544,6.961,1.362L188.258,50.497z"/>
		<path fill="#CC5858" d="M49.17,70.07l-4.481-0.617v5.969h0.01c-0.067,1.38,0.689,2.71,2.32,3.688l2.151,1.297V70.07z"/>
		<path fill="#872727" d="M170.505,153.219c3.279,1.288,7.966,1.009,11.467-0.743v-13.319h-11.467V153.219z"/>
		<path fill="#E96B56" d="M169.273,146.654l-122.26-73.5c-3.457-2.078-3.024-5.713,0.972-8.109l83.247-50.033
			c3.995-2.401,10.038-2.662,13.493-0.582l122.257,73.505c3.459,2.078,3.027,5.712-0.971,8.111l-83.245,50.029
			C178.771,148.477,172.729,148.737,169.273,146.654z"/>
		<g>
			<path fill="#173D7A" d="M99.012,48.818l-5.532-3.326c-0.443-0.267-0.388-0.736,0.122-1.044l6.532-3.929
				c0.51-0.311,1.288-0.344,1.731-0.071l5.531,3.327c0.443,0.266,0.39,0.735-0.122,1.043l-6.528,3.929
				C100.234,49.054,99.458,49.085,99.012,48.818z"/>
			<path fill="#B20F0F" d="M107.557,53.957l-5.531-3.327c-0.444-0.269-0.388-0.736,0.123-1.044l6.529-3.928
				c0.511-0.311,1.287-0.344,1.731-0.071l5.532,3.327c0.444,0.267,0.387,0.733-0.123,1.044l-6.531,3.923
				C108.773,54.189,108.001,54.222,107.557,53.957z"/>
			<path fill="#B20F0F" d="M116.098,59.088l-5.535-3.326c-0.441-0.269-0.386-0.733,0.123-1.043l6.531-3.928
				c0.512-0.314,1.287-0.345,1.731-0.069l5.531,3.322c0.445,0.269,0.389,0.732-0.122,1.043l-6.53,3.933
				C117.317,59.323,116.54,59.355,116.098,59.088z"/>
			<path fill="#B20F0F" d="M127.915,54.85l-5.531-3.325c-0.445-0.268-0.389-0.733,0.122-1.048l5.482-3.292
				c0.509-0.312,1.287-0.342,1.729-0.072l5.532,3.328c0.445,0.269,0.388,0.733-0.122,1.043l-5.482,3.292
				C129.129,55.082,128.357,55.117,127.915,54.85z"/>
			<path fill="#B20F0F" d="M136.454,59.983l-5.533-3.325c-0.442-0.27-0.389-0.734,0.122-1.047l5.481-3.293
				c0.511-0.313,1.288-0.344,1.731-0.072l5.533,3.323c0.442,0.271,0.387,0.737-0.122,1.048l-5.482,3.292
				C137.673,60.216,136.897,60.249,136.454,59.983z"/>
			<path fill="#173D7A" d="M144.996,65.121l-5.529-3.326c-0.444-0.267-0.39-0.732,0.123-1.046l5.48-3.292
				c0.51-0.31,1.29-0.347,1.731-0.071l5.534,3.323c0.442,0.269,0.387,0.734-0.124,1.045l-5.481,3.296
				C146.218,65.354,145.441,65.387,144.996,65.121z"/>
			<path fill="#771818" d="M153.538,70.258l-5.531-3.332c-0.444-0.269-0.39-0.734,0.12-1.044l5.484-3.291
				c0.508-0.307,1.285-0.348,1.726-0.076l5.534,3.329c0.444,0.268,0.387,0.733-0.122,1.043l-5.482,3.294
				C154.756,70.487,153.979,70.517,153.538,70.258z"/>
			<path fill="#B20F0F" d="M162.081,75.395l-5.532-3.331c-0.441-0.267-0.389-0.735,0.125-1.043l5.479-3.294
				c0.51-0.306,1.288-0.344,1.732-0.071l5.529,3.326c0.444,0.265,0.389,0.732-0.122,1.041l-5.48,3.3
				C163.302,75.625,162.525,75.659,162.081,75.395z"/>
			<path fill="#B20F0F" d="M170.627,80.529l-5.53-3.331c-0.448-0.264-0.39-0.731,0.118-1.039l5.483-3.295
				c0.512-0.312,1.287-0.346,1.73-0.073l5.53,3.33c0.446,0.265,0.39,0.732-0.123,1.046l-5.478,3.292
				C171.849,80.765,171.07,80.797,170.627,80.529z"/>
			<path fill="#B20F0F" d="M179.165,85.66l-5.531-3.323c-0.446-0.267-0.391-0.737,0.123-1.043l5.481-3.3
				c0.506-0.31,1.29-0.34,1.728-0.072l5.531,3.331c0.447,0.266,0.392,0.733-0.118,1.047l-5.483,3.29
				C180.385,85.896,179.607,85.931,179.165,85.66z"/>
			<path fill="#B20F0F" d="M187.708,90.801l-5.531-3.325c-0.44-0.268-0.389-0.736,0.121-1.046l5.483-3.294
				c0.513-0.311,1.287-0.342,1.731-0.076l5.53,3.33c0.443,0.271,0.389,0.735-0.122,1.045l-5.478,3.295
				C188.929,91.031,188.154,91.068,187.708,90.801z"/>
			<path fill="#B20F0F" d="M196.254,95.932l-5.529-3.324c-0.447-0.268-0.39-0.733,0.117-1.047l5.485-3.292
				c0.508-0.312,1.286-0.343,1.728-0.073l5.533,3.325c0.447,0.272,0.39,0.736-0.122,1.047l-5.482,3.292
				C197.47,96.164,196.697,96.2,196.254,95.932z"/>
			<path fill="#B20F0F" d="M204.795,101.067l-5.533-3.32c-0.444-0.271-0.392-0.734,0.121-1.046l5.481-3.295
				c0.51-0.312,1.289-0.348,1.731-0.075l5.531,3.327c0.442,0.269,0.387,0.734-0.12,1.046l-5.482,3.295
				C206.014,101.306,205.236,101.339,204.795,101.067z"/>
			<path fill="#A83939" d="M140.498,52.416l-5.53-3.327c-0.446-0.267-0.39-0.732,0.12-1.042l5.483-3.297
				c0.509-0.311,1.288-0.341,1.732-0.07l5.529,3.329c0.443,0.266,0.391,0.731-0.122,1.045l-5.48,3.292
				C141.718,52.651,140.941,52.684,140.498,52.416z"/>
			<path fill="#A83939" d="M131.824,47.203l-5.529-3.328c-0.445-0.267-0.39-0.734,0.121-1.047l5.483-3.292
				c0.509-0.311,1.286-0.345,1.732-0.071l5.53,3.326c0.444,0.268,0.389,0.73-0.123,1.045l-5.482,3.294
				C133.048,47.436,132.275,47.469,131.824,47.203z"/>
			<path fill="#B20F0F" d="M123.142,41.979l-11.911-7.159c-0.445-0.267-0.39-0.732,0.122-1.043l5.481-3.295
				c0.51-0.311,1.287-0.344,1.731-0.072l11.914,7.159c0.442,0.269,0.387,0.734-0.122,1.046l-5.482,3.292
				C124.363,42.215,123.588,42.253,123.142,41.979z"/>
			<path fill="#B20F0F" d="M129.215,35.631l-9.667-5.811c-0.445-0.266-0.39-0.732,0.121-1.044l5.482-3.293
				c0.51-0.309,1.287-0.344,1.732-0.072l9.669,5.812c0.446,0.266,0.389,0.732-0.12,1.042l-5.483,3.294
				C130.434,35.866,129.656,35.898,129.215,35.631z"/>
			<path fill="#396CAA" d="M149.043,57.552l-5.534-3.33c-0.442-0.265-0.387-0.735,0.123-1.042l5.481-3.295
				c0.51-0.311,1.289-0.342,1.731-0.071l5.533,3.326c0.443,0.267,0.386,0.733-0.123,1.043l-5.481,3.294
				C150.263,57.784,149.489,57.813,149.043,57.552z"/>
			<path fill="#B20F0F" d="M157.581,62.688l-5.533-3.328c-0.44-0.266-0.387-0.734,0.126-1.045l5.479-3.293
				c0.512-0.311,1.287-0.344,1.732-0.07l5.53,3.324c0.445,0.267,0.387,0.734-0.121,1.047l-5.48,3.295
				C158.801,62.921,158.026,62.956,157.581,62.688z"/>
			<path fill="#B20F0F" d="M166.126,67.827l-5.53-3.328c-0.445-0.268-0.386-0.733,0.118-1.045l5.482-3.294
				c0.514-0.311,1.288-0.344,1.733-0.071l5.534,3.33c0.44,0.267,0.387,0.729-0.126,1.043l-5.479,3.292
				C167.347,68.062,166.571,68.092,166.126,67.827z"/>
			<path fill="#B20F0F" d="M174.67,72.959l-5.532-3.327c-0.444-0.265-0.39-0.734,0.123-1.044l5.484-3.297
				c0.507-0.311,1.288-0.343,1.727-0.07l5.533,3.327c0.444,0.266,0.39,0.734-0.12,1.046l-5.483,3.293
				C175.886,73.191,175.115,73.229,174.67,72.959z"/>
			<path fill="#B20F0F" d="M183.209,78.099l-5.532-3.326c-0.442-0.268-0.389-0.736,0.122-1.046l5.48-3.293
				c0.514-0.313,1.288-0.344,1.732-0.076l5.533,3.329c0.445,0.27,0.388,0.734-0.121,1.046l-5.48,3.294
				C184.431,78.329,183.653,78.364,183.209,78.099z"/>
			<path fill="#B20F0F" d="M191.755,83.228l-5.53-3.324c-0.445-0.268-0.391-0.73,0.118-1.043l5.483-3.297
				c0.51-0.311,1.286-0.342,1.732-0.074l5.531,3.328c0.444,0.272,0.39,0.734-0.123,1.046l-5.484,3.291
				C192.976,83.459,192.197,83.496,191.755,83.228z"/>
			<path fill="#B20F0F" d="M200.293,88.368l-5.532-3.327c-0.444-0.267-0.389-0.73,0.124-1.044l5.48-3.296
				c0.508-0.303,1.287-0.344,1.731-0.072l5.529,3.326c0.447,0.27,0.388,0.736-0.116,1.047l-5.485,3.294
				C201.512,88.604,200.744,88.634,200.293,88.368z"/>
			<path fill="#B20F0F" d="M208.838,93.506l-5.531-3.325c-0.445-0.27-0.388-0.733,0.122-1.045l5.479-3.293
				c0.514-0.313,1.288-0.349,1.736-0.072l5.527,3.323c0.443,0.269,0.39,0.731-0.125,1.044l-5.478,3.294
				C210.059,93.738,209.28,93.773,208.838,93.506z"/>
			<path fill="#B20F0F" d="M217.384,98.641l-5.534-3.331c-0.444-0.268-0.385-0.731,0.122-1.043l5.482-3.295
				c0.511-0.31,1.289-0.345,1.729-0.071l5.535,3.327c0.444,0.268,0.386,0.729-0.123,1.041l-5.484,3.297
				C218.603,98.872,217.825,98.901,217.384,98.641z"/>
			<path fill="#B20F0F" d="M232.566,107.769l-12.065-7.256c-0.444-0.265-0.387-0.73,0.125-1.043l5.479-3.295
				c0.509-0.308,1.287-0.343,1.729-0.07l12.068,7.257c0.445,0.265,0.391,0.733-0.118,1.044l-5.484,3.289
				C233.788,108.004,233.011,108.037,232.566,107.769z"/>
			<path fill="#B20F0F" d="M249.196,97.773l-10.186-6.132c-0.443-0.265-0.391-0.731,0.121-1.041l5.48-3.295
				c0.51-0.308,1.286-0.344,1.732-0.072l10.185,6.126c0.448,0.267,0.392,0.735-0.12,1.047l-5.482,3.294
				C250.415,98.007,249.642,98.037,249.196,97.773z"/>
			<path fill="#B20F0F" d="M164.003,56.543l-5.536-3.327c-0.44-0.264-0.386-0.729,0.123-1.042l5.482-3.293
				c0.512-0.312,1.289-0.345,1.731-0.072l5.533,3.323c0.442,0.272,0.386,0.738-0.124,1.049l-5.479,3.292
				C165.22,56.78,164.445,56.818,164.003,56.543z"/>
			<path fill="#B20F0F" d="M155.247,51.283l-5.533-3.324c-0.442-0.27-0.388-0.736,0.122-1.048l5.481-3.293
				c0.509-0.31,1.287-0.344,1.731-0.074l5.531,3.329c0.445,0.27,0.387,0.732-0.119,1.045l-5.483,3.294
				C156.466,51.521,155.688,51.548,155.247,51.283z"/>
			<path fill="#A83939" d="M146.489,46.019l-5.53-3.327c-0.443-0.267-0.388-0.733,0.121-1.044l5.484-3.294
				c0.509-0.311,1.286-0.344,1.729-0.073l5.532,3.329c0.447,0.266,0.388,0.733-0.119,1.042l-5.482,3.295
				C147.711,46.253,146.935,46.284,146.489,46.019z"/>
			<path fill="#B20F0F" d="M137.735,40.759l-5.531-3.328c-0.445-0.268-0.39-0.734,0.122-1.044l5.48-3.293
				c0.509-0.313,1.287-0.346,1.731-0.073l5.531,3.328c0.445,0.265,0.389,0.73-0.122,1.043l-5.481,3.294
				C138.956,40.991,138.18,41.025,137.735,40.759z"/>
			<path fill="#B20F0F" d="M172.546,61.682l-5.531-3.327c-0.443-0.264-0.388-0.73,0.122-1.041l5.479-3.298
				c0.514-0.311,1.288-0.341,1.732-0.069l5.533,3.325c0.439,0.269,0.387,0.735-0.125,1.044l-5.48,3.294
				C173.761,61.916,172.989,61.951,172.546,61.682z"/>
			<path fill="#B20F0F" d="M181.087,66.818l-5.534-3.325c-0.445-0.266-0.387-0.732,0.121-1.041l5.483-3.294
				c0.509-0.313,1.287-0.346,1.729-0.076l5.533,3.326c0.446,0.268,0.389,0.735-0.122,1.046l-5.482,3.293
				C182.304,67.055,181.528,67.087,181.087,66.818z"/>
			<path fill="#B20F0F" d="M189.628,71.953l-5.532-3.329c-0.442-0.267-0.385-0.731,0.124-1.039l5.48-3.295
				c0.514-0.312,1.29-0.348,1.732-0.071l5.532,3.324c0.443,0.266,0.387,0.73-0.122,1.045l-5.479,3.293
				C190.85,72.186,190.074,72.219,189.628,71.953z"/>
			<path fill="#B20F0F" d="M198.168,77.093l-5.529-3.329c-0.445-0.268-0.389-0.734,0.117-1.044l5.483-3.295
				c0.514-0.308,1.287-0.343,1.733-0.068l5.533,3.325c0.441,0.266,0.388,0.731-0.125,1.045l-5.482,3.295
				C199.39,77.328,198.611,77.357,198.168,77.093z"/>
			<path fill="#B20F0F" d="M206.713,82.226l-5.531-3.33c-0.444-0.265-0.39-0.733,0.122-1.045l5.48-3.292
				c0.51-0.311,1.289-0.342,1.729-0.073l5.53,3.326c0.448,0.265,0.394,0.736-0.116,1.049l-5.483,3.295
				C207.934,82.464,207.155,82.495,206.713,82.226z"/>
			<path fill="#B20F0F" d="M215.255,87.362l-5.532-3.33c-0.442-0.263-0.384-0.731,0.124-1.04l5.479-3.297
				c0.514-0.308,1.289-0.341,1.735-0.072l5.532,3.332c0.438,0.264,0.386,0.729-0.125,1.042l-5.479,3.295
				C216.479,87.597,215.702,87.629,215.255,87.362z"/>
			<path fill="#B20F0F" d="M223.799,92.502l-5.533-3.331c-0.446-0.263-0.391-0.729,0.119-1.043l5.484-3.294
				c0.509-0.313,1.287-0.343,1.731-0.071l5.529,3.331c0.445,0.261,0.392,0.73-0.12,1.042l-5.483,3.294
				C225.019,92.733,224.239,92.768,223.799,92.502z"/>
			<path fill="#B20F0F" d="M232.342,97.632l-5.535-3.327c-0.441-0.264-0.386-0.731,0.126-1.046l5.479-3.293
				c0.51-0.312,1.286-0.341,1.73-0.074l5.53,3.331c0.448,0.271,0.39,0.733-0.115,1.044l-5.484,3.297
				C233.561,97.864,232.784,97.9,232.342,97.632z"/>
			<path fill="#B20F0F" d="M240.884,102.769l-5.532-3.326c-0.443-0.267-0.385-0.73,0.124-1.046l5.48-3.29
				c0.514-0.309,1.288-0.343,1.729-0.072l5.537,3.327c0.439,0.268,0.387,0.732-0.125,1.045l-5.479,3.293
				C242.101,103.004,241.328,103.038,240.884,102.769z"/>
			<path fill="#B20F0F" d="M159.502,43.846l-5.534-3.327c-0.441-0.268-0.389-0.733,0.124-1.045l5.481-3.291
				c0.51-0.313,1.288-0.345,1.73-0.075l5.532,3.329c0.443,0.267,0.387,0.732-0.119,1.042l-5.485,3.296
				C160.719,44.08,159.945,44.116,159.502,43.846z"/>
			<path fill="#B20F0F" d="M151.001,38.736l-5.532-3.329c-0.443-0.264-0.389-0.731,0.124-1.043l5.481-3.293
				c0.511-0.311,1.287-0.346,1.731-0.073l5.531,3.329c0.444,0.266,0.388,0.731-0.123,1.042l-5.479,3.294
				C152.222,38.969,151.443,39.005,151.001,38.736z"/>
			<path fill="#B20F0F" d="M142.503,33.627l-5.534-3.329c-0.445-0.264-0.387-0.732,0.122-1.044l5.48-3.294
				c0.512-0.309,1.289-0.341,1.732-0.071l5.532,3.329c0.444,0.267,0.389,0.732-0.122,1.042l-5.482,3.295
				C143.722,33.859,142.945,33.893,142.503,33.627z"/>
			<path fill="#B20F0F" d="M134.001,28.515l-5.53-3.325c-0.446-0.269-0.391-0.736,0.122-1.045l5.479-3.294
				c0.512-0.312,1.287-0.345,1.73-0.075l5.534,3.329c0.444,0.266,0.387,0.733-0.124,1.046l-5.48,3.293
				C135.221,28.75,134.444,28.782,134.001,28.515z"/>
			<path fill="#B20F0F" d="M142.745,23.255l-5.531-3.329c-0.443-0.267-0.389-0.732,0.123-1.042l1.814-1.088
				c0.51-0.313,1.288-0.346,1.732-0.074l5.531,3.328c0.445,0.267,0.389,0.733-0.122,1.044l-1.814,1.09
				C143.966,23.494,143.188,23.527,142.745,23.255z"/>
			<path fill="#B20F0F" d="M153.835,29.927l-5.529-3.328c-0.444-0.265-0.389-0.733,0.122-1.043l1.813-1.09
				c0.511-0.31,1.287-0.344,1.729-0.072l5.532,3.328c0.448,0.266,0.39,0.733-0.119,1.046l-1.816,1.088
				C155.058,30.16,154.28,30.194,153.835,29.927z"/>
			<path fill="#B20F0F" d="M162.3,35.014l-5.535-3.328c-0.441-0.264-0.386-0.732,0.124-1.043l1.814-1.089
				c0.509-0.312,1.286-0.344,1.73-0.071l5.531,3.328c0.444,0.266,0.387,0.733-0.121,1.043l-1.816,1.089
				C163.52,35.247,162.739,35.28,162.3,35.014z"/>
			<path fill="#B20F0F" d="M170.763,40.102l-5.529-3.327c-0.443-0.266-0.389-0.734,0.121-1.045l1.814-1.087
				c0.513-0.312,1.289-0.343,1.732-0.073l5.531,3.327c0.441,0.268,0.39,0.733-0.124,1.043l-1.812,1.09
				C171.985,40.336,171.21,40.371,170.763,40.102z"/>
			<path fill="#B20F0F" d="M179.232,45.196l-5.533-3.326c-0.444-0.269-0.388-0.735,0.121-1.044l1.815-1.088
				c0.511-0.313,1.286-0.345,1.731-0.073l5.532,3.328c0.442,0.265,0.386,0.731-0.118,1.042l-1.821,1.09
				C180.447,45.43,179.673,45.465,179.232,45.196z"/>
			<path fill="#B20F0F" d="M226.485,73.604l-5.53-3.328c-0.441-0.267-0.389-0.731,0.125-1.044l1.81-1.09
				c0.516-0.311,1.29-0.346,1.731-0.071l5.536,3.327c0.438,0.266,0.387,0.731-0.129,1.043l-1.808,1.09
				C227.707,73.838,226.933,73.873,226.485,73.604z"/>
			<path fill="#B20F0F" d="M234.948,78.697l-5.529-3.332c-0.445-0.263-0.389-0.729,0.116-1.04l1.818-1.09
				c0.509-0.31,1.287-0.342,1.73-0.07l5.529,3.328c0.447,0.265,0.391,0.733-0.118,1.044l-1.814,1.087
				C236.17,78.933,235.393,78.96,234.948,78.697z"/>
			<path fill="#B20F0F" d="M243.416,83.784l-5.534-3.325c-0.442-0.27-0.39-0.735,0.122-1.045l1.815-1.09
				c0.512-0.313,1.286-0.345,1.732-0.074l5.532,3.335c0.441,0.263,0.387,0.729-0.124,1.039l-1.814,1.085
				C244.635,84.017,243.858,84.05,243.416,83.784z"/>
			<path fill="#B20F0F" d="M251.875,88.872l-5.53-3.324c-0.446-0.268-0.388-0.736,0.123-1.045l1.814-1.089
				c0.508-0.312,1.286-0.346,1.731-0.072l5.529,3.325c0.442,0.266,0.392,0.738-0.121,1.047l-1.816,1.086
				C253.1,89.106,252.324,89.143,251.875,88.872z"/>
			<path fill="#B20F0F" d="M168.047,48.98l-5.532-3.328c-0.445-0.268-0.388-0.732,0.122-1.044l5.48-3.295
				c0.514-0.311,1.285-0.344,1.73-0.073l5.535,3.328c0.441,0.267,0.386,0.732-0.125,1.043l-5.482,3.295
				C169.269,49.212,168.489,49.245,168.047,48.98z"/>
			<path fill="#B20F0F" d="M176.586,54.119l-5.529-3.328c-0.448-0.271-0.392-0.731,0.117-1.044l5.484-3.295
				c0.51-0.308,1.288-0.343,1.727-0.073l5.537,3.33c0.44,0.266,0.385,0.732-0.123,1.042l-5.483,3.294
				C177.804,54.35,177.032,54.385,176.586,54.119z"/>
			<path fill="#B20F0F" d="M185.129,59.252l-5.535-3.328c-0.438-0.27-0.386-0.736,0.128-1.042l5.48-3.298
				c0.508-0.31,1.286-0.346,1.73-0.071l5.531,3.326c0.445,0.268,0.389,0.73-0.122,1.046l-5.482,3.293
				C186.349,59.484,185.573,59.517,185.129,59.252z"/>
			<path fill="#B20F0F" d="M193.674,64.389l-5.531-3.326c-0.447-0.27-0.388-0.734,0.121-1.048l5.482-3.291
				c0.515-0.312,1.287-0.348,1.73-0.074l5.529,3.327c0.446,0.268,0.391,0.732-0.121,1.045l-5.479,3.294
				C194.897,64.621,194.119,64.653,193.674,64.389z"/>
			<path fill="#B20F0F" d="M202.211,69.526l-5.531-3.327c-0.443-0.267-0.39-0.734,0.123-1.047l5.485-3.289
				c0.507-0.314,1.288-0.351,1.726-0.075l5.533,3.329c0.444,0.263,0.39,0.733-0.12,1.042l-5.482,3.294
				C203.433,69.762,202.657,69.792,202.211,69.526z"/>
			<path fill="#B20F0F" d="M210.759,74.661l-5.535-3.333c-0.439-0.265-0.386-0.729,0.123-1.041l5.481-3.296
				c0.511-0.306,1.287-0.343,1.734-0.069l5.531,3.327c0.44,0.267,0.388,0.732-0.123,1.046l-5.482,3.292
				C211.978,74.893,211.203,74.925,210.759,74.661z"/>
			<path fill="#B20F0F" d="M219.303,79.795l-5.529-3.328c-0.449-0.262-0.393-0.729,0.115-1.045l5.483-3.292
				c0.514-0.304,1.289-0.344,1.729-0.072l5.534,3.329c0.445,0.266,0.391,0.734-0.123,1.043l-5.479,3.294
				C220.519,80.03,219.743,80.067,219.303,79.795z"/>
			<path fill="#B20F0F" d="M227.842,84.931l-5.537-3.331c-0.438-0.268-0.386-0.731,0.127-1.042l5.482-3.295
				c0.508-0.313,1.287-0.341,1.729-0.07l5.533,3.328c0.44,0.267,0.387,0.732-0.12,1.04l-5.482,3.297
				C229.059,85.163,228.286,85.2,227.842,84.931z"/>
			<path fill="#B20F0F" d="M236.385,90.063l-5.533-3.324c-0.44-0.266-0.387-0.732,0.123-1.043l5.48-3.293
				c0.514-0.313,1.287-0.345,1.733-0.072l5.534,3.325c0.441,0.27,0.386,0.733-0.125,1.041l-5.482,3.295
				C237.605,90.298,236.828,90.336,236.385,90.063z"/>
			<path fill="#B20F0F" d="M119.208,49.614l-16.29-9.793c-0.444-0.269-0.387-0.736,0.123-1.044l5.481-3.294
				c0.511-0.312,1.289-0.345,1.731-0.075l16.29,9.794c0.443,0.269,0.388,0.735-0.121,1.045l-5.481,3.295
				C120.424,49.846,119.652,49.88,119.208,49.614z"/>
			<path fill="#B20F0F" d="M224.15,112.707l-16.291-9.79c-0.441-0.268-0.387-0.733,0.127-1.044l5.479-3.296
				c0.51-0.311,1.287-0.346,1.732-0.073l16.288,9.794c0.444,0.265,0.385,0.73-0.12,1.047l-5.482,3.291
				C225.37,112.944,224.596,112.975,224.15,112.707z"/>
			<path fill="#B20F0F" d="M189.991,103.517l-5.532-3.332c-0.445-0.263-0.389-0.728,0.12-1.041l6.533-3.929
				c0.509-0.309,1.287-0.343,1.728-0.073l5.535,3.334c0.442,0.261,0.388,0.729-0.124,1.043l-6.53,3.927
				C191.21,103.748,190.432,103.779,189.991,103.517z"/>
			<path fill="#B20F0F" d="M127.953,66.223l-8.843-5.323c-0.444-0.269-0.389-0.734,0.123-1.043l6.528-3.926
				c0.51-0.313,1.288-0.349,1.731-0.075l8.846,5.322c0.446,0.266,0.389,0.732-0.124,1.042l-6.529,3.932
				C129.174,66.454,128.396,66.489,127.953,66.223z"/>
			<path fill="#B20F0F" d="M181.76,98.565l-8.843-5.319c-0.442-0.268-0.391-0.736,0.124-1.04l6.528-3.934
				c0.511-0.311,1.286-0.344,1.732-0.072l8.845,5.32c0.44,0.269,0.384,0.732-0.124,1.045l-6.527,3.931
				C182.974,98.799,182.206,98.827,181.76,98.565z"/>
			<path fill="#771818" d="M140.282,73.629l-8.844-5.324c-0.443-0.268-0.389-0.734,0.123-1.045l6.529-3.924
				c0.513-0.315,1.288-0.348,1.732-0.074l8.845,5.319c0.443,0.267,0.387,0.73-0.123,1.045l-6.531,3.928
				C141.497,73.868,140.726,73.896,140.282,73.629z"/>
			<path fill="#B20F0F" d="M139.876,63.303l38.462,23.127c0.478,0.289,0.478,0.75,0,1.039l-6.657,4.006
				c-0.479,0.286-1.251,0.286-1.727,0l-38.461-23.129L139.876,63.303z"/>
			<path fill="#B20F0F" d="M213.864,112.827l6.167,3.701c0.363,0.218,0.313,0.6-0.103,0.859l-2.67,1.604
				c-0.419,0.253-1.057,0.277-1.419,0.063l-6.162-3.704c-0.37-0.217-0.318-0.605,0.097-0.857l2.669-1.605
				C212.864,112.636,213.497,112.609,213.864,112.827z"/>
			<path fill="#B20F0F" d="M205.258,107.646l6.159,3.707c0.366,0.217,0.318,0.603-0.1,0.855l-2.667,1.606
				c-0.421,0.252-1.058,0.278-1.424,0.058l-6.162-3.7c-0.367-0.217-0.316-0.6,0.104-0.856l2.665-1.604
				C204.246,107.461,204.884,107.432,205.258,107.646z"/>
			<path fill="#B20F0F" d="M196.708,102.515l6.165,3.706c0.369,0.218,0.319,0.601-0.098,0.858l-2.669,1.604
				c-0.424,0.246-1.057,0.272-1.424,0.061l-6.163-3.706c-0.366-0.217-0.317-0.601,0.1-0.852l2.67-1.608
				C195.71,102.322,196.346,102.29,196.708,102.515z"/>
			<path fill="#B20F0F" d="M209.97,104.815l6.164,3.707c0.37,0.214,0.313,0.595-0.099,0.853l-2.666,1.607
				c-0.425,0.248-1.058,0.281-1.427,0.058l-6.161-3.704c-0.367-0.218-0.32-0.598,0.101-0.855l2.669-1.604
				C208.969,104.621,209.602,104.593,209.97,104.815z"/>
		</g>
	</g>
	<g>
		<path fill="#4C0202" d="M86.99,22.79c0,0,0.41,8.815,1.053,14.741c0.644,5.928,14.349-4.549,14.349-4.549v-6.75L86.99,22.79z"/>
		<g>
			<path fill="#771818" d="M94.291,132.491c0.205,0.531,3.757,5.039,7.308,6.157c1.542,0.492,2.581,0.555,3.264,0.466
				c0.682-0.081,1.104-0.816,0.875-1.49c-0.611-1.79-2.363-5.528-6.813-7.827C92.898,126.7,94.291,132.491,94.291,132.491z"/>
			<path fill="#771818" d="M93.104,134.226c0,0,1.338,3.266,1.747,6.001c0.251,1.667-0.627,3.835-1.347,5.27
				c-0.449,0.887-1.587,1.083-2.303,0.413c-1.159-1.096-2.635-2.997-2.88-5.74c-0.41-4.612,0-5.41,0-5.41L93.104,134.226z"/>
			<path fill="#E96B56" d="M84.554,78.52c0,0-0.46,5.815,0,12.239c0.46,6.434,2.119,36.509,2.43,43.742c0,0-0.155,2.188,3.917,1.709
				c4.071-0.482,3.744-2.912,3.744-2.912s5.721-0.083,5.9-3.593c0.176-3.508,5.859-41.915,5.859-55.727L84.554,78.52z"/>
			<g>
				<path fill="#FFC2B0" d="M108.517,48.455l2.802,4.525l9.632,12.113c0,0-0.333,1.123-1.531,1.417
					c-0.938,0.227-9.039-7.818-12.533-11.35c-0.934-0.939-1.083-2.432-0.373-3.554L108.517,48.455z"/>
				<path fill="#8C2A2A" d="M103.046,29.911c0,0,4.45-0.123,5.999,6.577c1.547,6.697,2.762,15.086,1.415,15.78
					c-4.045,2.092-6.603-0.354-6.603-0.354L103.046,29.911z"/>
				<path fill="#A83939" d="M104.383,30.194c-0.761-0.328-1.61-0.375-2.402-0.139c-3.79,1.131-18.05,5.492-20.396,7.582
					c-2.714,2.416,4.073,15.992,3.973,20.447c-0.101,4.452-0.578,9.699-0.96,14.535c-0.376,4.839-0.887,7.494,2.913,9.548
					c3.8,2.058,10.292,2.159,15.148-1.702c4.86-3.851,3.978-6.49,3.773-9.29c-0.201-2.797-1.859-14.9-1.715-18.338
					c0,0,1.715-1.311,2.979-3.563c1.272-2.251-0.971-6.394-1.903-9.083c-0.93-2.694,0.528-5.771,0.238-7.964
					C105.886,31.104,105.194,30.548,104.383,30.194z"/>
				<path fill="#FFFFFF" d="M99.821,34.826c0.302,2.444-1.851,4.748-4.809,5.143c-2.958,0.395-5.6-1.267-5.904-3.716
					c-0.299-2.443,1.854-4.748,4.812-5.143C96.883,30.714,99.522,32.377,99.821,34.826z"/>
				<path fill="#FFC2B0" d="M98.296,35.025c0.217,1.75-1.324,3.396-3.438,3.678c-2.116,0.284-4.001-0.905-4.218-2.656
					c-0.215-1.747,1.326-3.393,3.439-3.677C96.194,32.093,98.08,33.282,98.296,35.025z"/>
				<path fill="#FFC2B0" d="M96.194,29.288c0,0-2.575-2.206-3.078-1.088c-0.505,1.113-0.924,5.903-0.924,5.903l5.113,1.428
					l-0.778-4.855C96.527,30.682,97.554,29.781,96.194,29.288z"/>
				<path fill="#FFC2B0" d="M104.184,24.038c-0.249,4.384-3.861,7.722-8.067,7.468c-4.205-0.262-7.418-4.022-7.169-8.402
					c0.251-4.382,3.862-7.718,8.067-7.464C101.221,15.893,104.427,19.656,104.184,24.038z"/>
				<path fill="#EA9C92" d="M92.76,29.588c-0.044,0.25-0.089,0.517-0.126,0.794c0.515,2.765,4.487,3.977,4.487,3.977l-0.59-3.672
					c0,0,0.484-0.429,0.347-0.85C95.3,29.313,93.326,28.859,92.76,29.588z"/>
				<path fill="#FFC2B0" d="M104.184,24.038c-0.249,4.384-3.861,7.722-8.067,7.468c-4.205-0.262-7.418-4.022-7.169-8.402
					c0.251-4.382,3.862-7.718,8.067-7.464C101.221,15.893,104.427,19.656,104.184,24.038z"/>
				<polygon fill="#FFC2B0" points="77.762,57.206 78.617,78.476 81.601,78.791 83.543,59.648 				"/>
				<path fill="#8C2A2A" d="M87.572,55.426c-0.988-4.536-2.941-14.573-2.941-14.573L83.8,50.828c0.959,2.962,1.787,5.68,1.751,7.248
					c-0.054,2.614-0.249,5.503-0.469,8.424v0.011C85.082,66.515,88.561,59.973,87.572,55.426z"/>
				<path fill="#A83939" d="M82.152,37.204c0,0-2.385,0.95-3.741,8.587c-1.354,7.637-2.363,15.286,0.045,16.268
					c2.408,0.983,4.42,1.728,5.126-0.316c0.71-2.043,1.148-11.879,1.238-15.419C84.915,42.781,85.043,37.903,82.152,37.204z"/>
				<path fill="#FFC2B0" d="M120.236,64.205c0,0,1.291,0.495,2.225,1.555c0.766,0.874,1.187,1.606,1.519,2.127
					c0.746,1.158,1.373,3.652,0.917,3.961c-0.457,0.311-3.047-4.18-3.463-3.138c-0.415,1.044,0.006,2.011-0.532,2.03
					c-0.54,0.016-2.398-4.518-3.867-5.927C115.569,63.419,120.236,64.205,120.236,64.205z"/>
			</g>
			<path fill="#F79A9A" d="M94.646,133.298c0,0,0.711-0.014,1.631-0.179l0,0l1.121-46.751L94.646,133.298z"/>
		</g>
		<g>
			<path fill="#A83939" d="M90.325,108.046l-1.588-2.162l-16.705-10.07c-0.539-0.325-0.972-1.188-0.966-1.935l0.016-14.243
				l-0.959-1.307l0.904-0.546l0,0c0.173-0.114,0.406-0.109,0.655,0.04L90.612,89.24c0.537,0.322,0.972,1.188,0.966,1.932
				l-0.017,15.51c0,0.415-0.139,0.713-0.354,0.826l0,0L90.325,108.046z"/>
			<path fill="#F27C7C" d="M78.772,99.877l-1.189-0.715l-6.512-11.78l0.005-7.74l-0.959-1.307l0.903-0.541l0,0
				c0.174-0.12,0.406-0.116,0.656,0.037l18.932,11.414c0.281,0.171,0.537,0.494,0.716,0.868L78.772,99.877z"/>
			<path fill="#CC5858" d="M70.544,78.911l-0.428-0.576l0.903-0.541l0,0c0.174-0.12,0.406-0.116,0.656,0.037l0.333,0.2
				L70.544,78.911z"/>
			<path fill="#872727" d="M90.779,89.366c0.422,0.363,0.75,1.033,0.793,1.66l-1.848,1.113l-0.887-1.607L90.779,89.366z"/>
			<path fill="#CC5858" d="M89.703,89.784L70.772,78.371c-0.539-0.322-0.972,0.015-0.972,0.758l-0.015,15.509
				c0,0.746,0.432,1.609,0.964,1.932l18.933,11.415c0.538,0.323,0.969-0.014,0.969-0.754l0.018-15.512
				C90.674,90.972,90.24,90.108,89.703,89.784z"/>
		</g>
		<path fill="#FFC2B0" d="M78.64,78.298c0,0-0.789,4.963-0.671,6.553c0.115,1.59,0.936,4.217,1.553,4.158
			c0.622-0.058,0.022-6.397,1.109-5.762c1.087,0.631,1.203,1.718,1.698,1.332c0.494-0.384-0.858-5.801-0.499-8.149
			C82.195,74.074,78.64,78.298,78.64,78.298z"/>
		<path fill="#EA9C92" d="M99.497,24.266c3.828,1.416,4.571,0.549,4.61,0.509c0.032-0.241,0.061-0.486,0.077-0.737
			c0.05-0.875-0.045-1.733-0.254-2.537l-9.932-1.394C93.998,20.106,95.563,22.812,99.497,24.266z"/>
		<path fill="#750404" d="M104.457,16.125c-0.905-0.806-4.156-4.791-9.988-3.851c-3.645,0.589-6.718,3.175-7.395,9.083
			c-0.462,3.976,0.942,7.896,3.528,10.796c0.139-0.064,0.283-0.127,0.417-0.215c1.457-1,1.619-1.55,1.619-1.556l0.321-3.017
			c-0.012-0.427-0.316-0.809-0.726-0.834c-0.317-0.022-0.705-0.175-1.072-0.676c-0.836-1.139-0.45-2.922,1.227-2.989
			c0.876-0.032,1.213-0.527,1.335-0.987c0.107-0.405,0.518-0.628,0.895-0.482c1.909,0.715,6.603,2.265,9.626,1.37
			C108.102,21.629,105.36,16.929,104.457,16.125z"/>
		<path fill="#FFFFFF" d="M100.105,27.854l2.336-0.667c0,0-1.115,1.827-2.74,2.29c-1.625,0.467-1.882-0.965-1.882-0.965
			L100.105,27.854z"/>
		<polygon fill="#8C2A2A" points="82.612,84.427 80.621,83.233 81.37,84.507 82.373,84.888 		"/>
	</g>
	<g>
		<g>
			<path fill="#771818" d="M136.12,149.788c0,0-2.509-1.32-4.051,0.645c-1.543,1.96-3.744,6.591-3.811,9.723
				c-0.068,3.13,2.38,2.916,3.833,2.174c1.455-0.733,5.705-7.154,5.96-8.408c0.255-1.256-0.305-2.953-0.711-3.289
				C136.93,150.293,136.12,149.788,136.12,149.788z"/>
			<path fill="#FFD7D7" d="M136.669,149.161l0.117,2.703c0.022,0.578-0.256,1.123-0.732,1.412c-0.439,0.261-1.076,0.45-1.938,0.309
				c-1.891-0.318-2.057-0.877-2.19-3.577C131.793,147.3,136.669,149.161,136.669,149.161z"/>
			<g>
				<path fill="#771818" d="M126.938,144.581c0,0-2.508-1.315-4.05,0.642c-1.543,1.968-3.746,6.594-3.812,9.729
					c-0.067,3.128,2.38,2.918,3.834,2.18c1.453-0.74,5.703-7.161,5.958-8.411c0.256-1.261-0.306-2.957-0.71-3.288
					C127.749,145.091,126.938,144.581,126.938,144.581z"/>
				<path fill="#FFD7D7" d="M127.482,143.952l0.115,2.706c0.024,0.578-0.253,1.121-0.733,1.411
					c-0.438,0.263-1.075,0.457-1.933,0.312c-1.894-0.314-2.061-0.878-2.194-3.581C122.6,142.089,127.482,143.952,127.482,143.952z"
					/>
				<path fill="#F49898" d="M149.874,94.25c-0.744-12.579-13.088,1.849-13.088,1.849l-8.45,8.621l-7.606,8.706
					c-1.488,1.698-2.175,3.993-1.894,6.275l3.081,24.399c0.15,1.203,1.143,2.093,2.308,2.079c0.329,0,0.71-0.028,1.136-0.104
					c2.748-0.441,2.543-3.16,2.543-3.16l-0.561-22.824l15.973-10.033C143.323,110.07,150.612,106.837,149.874,94.25z"/>
			</g>
			<path fill="#F49898" d="M159.058,99.049c-0.745-12.58-13.089,1.851-13.089,1.851l-8.45,8.618l-7.607,8.707
				c-1.486,1.701-5.226,3.989-4.943,6.273l6.131,24.4c0.148,1.205,1.143,2.097,2.307,2.082c0.328,0,0.709-0.032,1.138-0.104
				c2.745-0.444,2.539-3.17,2.539-3.17l-0.56-22.823l15.977-10.025C152.51,114.866,159.803,111.634,159.058,99.049z"/>
			<path fill="#A83939" d="M151.755,58.657c9.358,4.04,9.174,9.794,9.174,9.794s-1.832,21.117-1.209,35.227
				c0.258,5.891-30.085,6.342-25.558-9.382c5.337-18.549,3.334-33.563,5.833-35.83C142.49,56.207,149.336,57.612,151.755,58.657z"/>
			<path fill="#FFC2B0" d="M154.763,63.762c-0.489,1.977-2.98,3.021-5.559,2.327c-2.582-0.697-4.277-2.856-3.789-4.837
				c0.487-1.982,2.978-3.025,5.559-2.331C153.559,59.618,155.256,61.783,154.763,63.762z"/>
			<path fill="#FFFFFF" d="M150.784,66.771c-0.551,0-1.113-0.07-1.693-0.228c-2.813-0.758-4.658-3.177-4.11-5.404
				c0.271-1.104,1.078-1.98,2.263-2.481c1.139-0.479,2.504-0.541,3.847-0.186c2.812,0.758,4.658,3.178,4.112,5.405l0,0
				C154.756,65.649,152.931,66.771,150.784,66.771z M149.381,59.178c-0.637,0-1.254,0.118-1.797,0.343
				c-0.917,0.385-1.532,1.039-1.733,1.85c-0.426,1.732,1.128,3.646,3.469,4.273c2.335,0.625,4.588-0.27,5.017-1.993
				c0.426-1.729-1.126-3.64-3.469-4.265C150.37,59.245,149.863,59.178,149.381,59.178z"/>
			<path fill="#FFC2B0" d="M148.007,58.218c0,0,0.08,0.386-0.083,3.477c-0.052,0.972,3.21,1.879,4.053,1.003
				c0.848-0.883,0.507-1.798,0.71-5.104C152.889,54.293,148.007,58.218,148.007,58.218z"/>
			<path fill="#EA9C92" d="M152.687,57.594c0,0-0.806,3.062-4.763,4.24l0.061-2.785L152.687,57.594z"/>
			<path fill="#FFC2B0" d="M155.195,49.813c0.996,4.007-1.32,8.102-5.17,9.137c-3.851,1.037-7.778-1.373-8.778-5.383
				c-0.993-4.01,1.319-8.102,5.173-9.137C150.275,43.391,154.202,45.801,155.195,49.813z"/>
			<path fill="#EA9C92" d="M149.88,51.968c0,0-3.966,1.765-6.711,1.79c-2.748,0.019-2.144-2.376-2.144-2.376l8.15-1.224
				L149.88,51.968z"/>
			<path fill="#750404" d="M142.345,52.434c0,0,3.456-1.53,6.487-0.889c0.71,0.151,1.37,0.544,1.83,1.131
				c0.151,0.198,0.339,0.371,0.555,0.419c0.538,0.129,1.416-2.191,2.464-2.249c1.044-0.055,1.74,0.716,0.889,2.146
				c-0.854,1.431-0.566,3.027-0.173,3.255c0.394,0.226,4.571-3.106,0.889-10.711c-3.69-7.604-13.055-3.511-14.509-1.967
				c0,0-1.537,1.396-2.787,0.155C137.985,43.72,136.586,54.633,142.345,52.434z"/>
			<path fill="#FFC2B0" d="M155.671,83.887v5.703c0,0.657-0.263,1.277-0.726,1.715l-11.255,10.689l1.28,2.037l14.803-10.586
				c0.694-0.522,1.144-1.331,1.233-2.217l1.067-10.584L155.671,83.887z"/>
			<path fill="#A83939" d="M160.133,65.604c0,0,3.419,5.352,4.688,19.429c0,0-5.829,1.966-9.144,0.847
				C152.364,84.763,160.133,65.604,160.133,65.604z"/>
			<path fill="#8C2A2A" d="M155.053,72.367c0,0-1.338,7.446-1.417,10.952c-0.02,0.956,0.545,1.83,1.417,2.157l0,0V72.367z"/>
		</g>
		<g>
			<path fill="#771818" d="M152.132,109.414l-2.484-0.345l-16.063-9.651c-0.517-0.312-1.414-0.274-2.008,0.089l-11.379,6.837
				l-1.505-0.211v1.562l0,0c-0.012,0.205,0.1,0.411,0.344,0.555l18.205,10.942c0.516,0.309,1.414,0.271,2.007-0.091l12.394-7.447
				c0.334-0.203,0.501-0.461,0.494-0.703l0,0v-1.536H152.132z"/>
			<path fill="#A83939" d="M140.064,103.314l-1.142-0.688h-12.545l-6.187,3.717l-1.503-0.211v1.562l0,0
				c-0.013,0.205,0.1,0.411,0.344,0.555l18.204,10.942c0.272,0.163,0.65,0.229,1.036,0.199L140.064,103.314z"/>
			<path fill="#5793CE" d="M119.353,106.23l-0.665-0.098v1.562l0,0c-0.013,0.205,0.1,0.411,0.344,0.555l0.321,0.194V106.23z"/>
			<path fill="#872727" d="M137.419,119.283c0.488,0.191,1.188,0.145,1.708-0.116v-2.653h-1.708V119.283z"/>
			<path fill="#FFFFFF" d="M137.236,117.63l-18.204-10.942c-0.517-0.314-0.451-0.853,0.145-1.205l12.394-7.454
				c0.595-0.351,1.493-0.39,2.009-0.085l18.203,10.945c0.517,0.309,0.451,0.848-0.143,1.202l-12.395,7.451
				C138.65,117.902,137.75,117.94,137.236,117.63z"/>
			<path fill="#E96B56" d="M136.93,115.975l-15.135-9.1c-0.428-0.257-0.372-0.704,0.123-1.002l6.64-3.89
				c0.495-0.301,1.244-0.33,1.67-0.073l15.136,9.099c0.427,0.257,0.373,0.705-0.122,1.006l-6.64,3.89
				C138.107,116.198,137.358,116.23,136.93,115.975z"/>
		</g>
		<path fill="#FFC2B0" d="M132.275,97.672l-0.189,1.306c-0.16,1.114-0.132,2.25,0.085,3.357l0.221,1.145
			c0.127,0.648,0.622,1.157,1.249,1.275l0,0c0.489,0.095,0.955-0.268,1.004-0.781l0.299-2.792c0,0,0.689,0.94,1.022,0.94
			c0.332,0-0.372-2.803-1.122-4.385C134.094,96.147,132.275,97.672,132.275,97.672z"/>
		<path fill="#FFC2B0" d="M138.444,76.883l-1.952,4.027c-0.459,0.954-0.732,1.989-0.799,3.06l-0.85,13.768l-2.569-0.06
			l-1.165-15.464c-0.033-0.479-0.01-0.959,0.067-1.427l1.329-7.847L138.444,76.883z"/>
		<g>
			<path fill="#771818" d="M136.621,118.685l-1.526-2.07l-16.052-9.682c-0.515-0.314-0.932-1.14-0.932-1.857l0.01-13.677
				l-0.919-1.261l0.865-0.522l0,0c0.167-0.11,0.387-0.11,0.626,0.039l18.188,10.969c0.517,0.308,0.932,1.138,0.932,1.852
				l-0.016,14.905c0,0.4-0.132,0.682-0.34,0.795l0,0L136.621,118.685z"/>
			<path fill="#A83939" d="M125.521,110.835l-1.141-0.688l-6.259-11.321l0.007-7.436l-0.921-1.257l0.866-0.521l0,0
				c0.167-0.113,0.387-0.113,0.625,0.041l18.188,10.963c0.273,0.168,0.518,0.473,0.689,0.836L125.521,110.835z"/>
			<path fill="#CC5858" d="M117.617,90.695l-0.411-0.558l0.866-0.522l0,0c0.167-0.11,0.387-0.11,0.625,0.039l0.324,0.197
				L117.617,90.695z"/>
			<path fill="#872727" d="M137.059,100.745c0.404,0.343,0.716,0.994,0.76,1.593l-1.776,1.063l-0.85-1.538L137.059,100.745z"/>
			<path fill="#FFFFFF" d="M136.026,101.144l-18.187-10.963c-0.516-0.311-0.932,0.012-0.932,0.729l-0.018,14.901
				c0,0.718,0.416,1.548,0.932,1.856l18.188,10.967c0.515,0.311,0.932-0.015,0.932-0.732l0.017-14.9
				C136.958,102.283,136.544,101.452,136.026,101.144z"/>
		</g>
		<path fill="#FFC2B0" d="M144.971,104.031l-0.296,0.629c-0.33,0.723-0.865,1.332-1.519,1.757l-1.809,1.16
			c-0.561,0.359-1.274,0.388-1.844,0.042c-0.021-0.011-0.037-0.029-0.06-0.036c-0.572-0.376-0.625-1.233-0.156-1.741l1.889-2.022
			c0,0-1.061,0.849-1.361,0.508c-0.218-0.25,1.026-1.468,1.986-1.512c0.96-0.038,1.881-0.821,1.881-0.821L144.971,104.031z"/>
		<path fill="#A83939" d="M140.181,58.438c0,0-6.919,7.844-9.714,15.033c0,0,2.368,4.443,8.161,6.189
			C144.421,81.4,140.181,58.438,140.181,58.438z"/>
		<path fill="#8C2A2A" d="M137.326,79.191l1.118-11.287l-2.642,10.571C136.275,78.733,136.786,78.976,137.326,79.191z"/>
		<path fill="#FFFFFF" d="M145.364,56.853l-1.857-0.529c0,0,0.885,1.455,2.186,1.826c1.297,0.372,1.498-0.771,1.498-0.771
			L145.364,56.853z"/>
	</g>
	<g>
		<g>
			<path fill="#E8B3B3" d="M23.188,159.051L6.416,148.887c-1.414-0.85-1.237-2.333,0.393-3.32l15.986-9.699
				c1.637-0.982,4.106-1.091,5.521-0.238l16.774,10.161c1.414,0.85,1.237,2.336-0.396,3.321l-15.983,9.704
				C27.077,159.796,24.603,159.898,23.188,159.051z"/>
			<path fill="#771818" d="M51.197,126.751L51.197,126.751v-4.388l-22.378-0.011l0.157-0.007c-1.775-1.067-4.878-0.937-6.925,0.299
				l0.66-0.286l-22.398-0.018v4.68c-0.048,0.722,0.338,1.429,1.188,1.938l21.033,12.739c1.775,1.071,4.876,0.934,6.924-0.294
				l20.048-12.173C50.692,128.53,51.263,127.604,51.197,126.751z"/>
			<path fill="#A83939" d="M25.759,121.629c-1.3,0.032-2.65,0.375-3.712,1.016l0.66-0.286l-22.394-0.018v4.68
				c-0.048,0.722,0.338,1.429,1.188,1.938l21.033,12.739c0.855,0.515,2.014,0.746,3.211,0.718L25.759,121.629z"/>
			<path fill="#E8B3B3" d="M2.85,122.341H0.312v4.68c-0.048,0.722,0.338,1.429,1.188,1.938l1.349,0.81V122.341z"/>
			<path fill="#872727" d="M22.983,141.924c1.531,0.685,3.744,0.648,5.538-0.063v-6.133h-5.538V141.924z"/>
			<path fill="#E96B56" d="M22.534,137.058L1.5,124.313c-1.777-1.068-1.555-2.932,0.498-4.169l20.048-12.162
				c2.048-1.231,5.148-1.363,6.924-0.302l21.033,12.745c1.775,1.066,1.554,2.93-0.498,4.166l-20.048,12.16
				C27.41,137.986,24.309,138.12,22.534,137.058z"/>
		</g>
		<g>
			<path fill="#FFFFFF" d="M26.612,119.953l-6.186-3.747c-0.828-0.493-0.828-1.309,0-1.798c0.827-0.498,2.169-0.498,2.99,0
				l6.185,3.744c0.829,0.497,0.829,1.304,0,1.801C28.78,120.441,27.439,120.441,26.612,119.953z"/>
		</g>
		<g>
			<path fill="#FFFFFF" d="M35.606,125.423l-3.756-2.308c-0.829-0.496-0.829-1.308,0-1.798c0.828-0.491,2.169-0.491,2.99,0
				l3.754,2.307c0.828,0.497,0.828,1.308,0,1.799C37.769,125.914,36.432,125.914,35.606,125.423z"/>
		</g>
		<g>
			<path fill="#FFFFFF" d="M17.945,122.255l-3.757-2.31c-0.827-0.489-0.827-1.303,0-1.798c0.828-0.497,2.17-0.497,2.991,0
				l3.757,2.304c0.827,0.494,0.827,1.302,0,1.804C20.109,122.748,18.768,122.748,17.945,122.255z"/>
		</g>
	</g>
	<g>
		<path fill="#E96B56" d="M198.753-48.271l-7.426-4.468c-0.686-0.418-1.091-1.438-0.903-2.286l0,0
			c0.188-0.852,0.896-1.208,1.588-0.792l7.422,4.467c0.689,0.416,1.091,1.438,0.903,2.288l0,0
			C200.147-48.211,199.437-47.855,198.753-48.271z"/>
		<path fill="#E96B56" d="M216.438-37.636l-10.949-6.581c-0.69-0.417-1.094-1.438-0.907-2.288l0,0
			c0.191-0.85,0.899-1.206,1.586-0.79l10.954,6.583c0.688,0.415,1.091,1.438,0.906,2.289l0,0
			C217.842-37.575,217.127-37.218,216.438-37.636z"/>
		<path fill="#E96B56" d="M185.806-12.171l-7.426-4.466c-0.685-0.416-1.092-1.438-0.903-2.289l0,0
			c0.19-0.851,0.899-1.205,1.589-0.787l7.423,4.464c0.688,0.416,1.094,1.438,0.903,2.289l0,0
			C187.204-12.112,186.49-11.763,185.806-12.171z"/>
		<path fill="#E96B56" d="M201.574-2.696l-10.952-6.582c-0.688-0.417-1.093-1.44-0.907-2.289l0,0
			c0.192-0.851,0.901-1.208,1.592-0.788l10.949,6.58c0.691,0.416,1.095,1.439,0.906,2.29l0,0
			C202.973-2.635,202.262-2.281,201.574-2.696z"/>
		<path fill="#E96B56" d="M176.845-54.127l-4.639-2.788c-0.687-0.418-1.09-1.438-0.902-2.288l0,0
			c0.188-0.851,0.897-1.205,1.586-0.79l4.637,2.787c0.693,0.417,1.096,1.439,0.91,2.29l0,0
			C178.243-54.066,177.534-53.716,176.845-54.127z"/>
		<path fill="#E96B56" d="M191.144-38.217l-14.175-8.523c-0.689-0.417-1.096-1.438-0.908-2.288l0,0
			c0.191-0.848,0.901-1.206,1.59-0.789l14.176,8.522c0.689,0.415,1.091,1.437,0.905,2.289l0,0
			C192.542-38.158,191.834-37.807,191.144-38.217z"/>
		<path fill="#E96B56" d="M178.745-31.046l-4.637-2.791c-0.693-0.417-1.099-1.438-0.907-2.287l0,0
			c0.187-0.85,0.898-1.207,1.586-0.788l4.637,2.787c0.69,0.415,1.099,1.438,0.906,2.288l0,0
			C180.147-30.986,179.435-30.63,178.745-31.046z"/>
		<path fill="#E96B56" d="M203.962,13.368L191.571,5.92c-0.685-0.417-1.092-1.439-0.904-2.29l0,0
			c0.188-0.849,0.898-1.207,1.59-0.788l12.385,7.448c0.692,0.417,1.095,1.438,0.906,2.289l0,0
			C205.36,13.43,204.647,13.785,203.962,13.368z"/>
		<path fill="#E96B56" d="M174.22-19.139l-2.98-1.788c-0.685-0.416-1.09-1.439-0.902-2.289l0,0c0.187-0.849,0.895-1.206,1.588-0.789
			l2.979,1.79c0.688,0.417,1.093,1.439,0.905,2.289l0,0C175.627-19.077,174.914-18.722,174.22-19.139z"/>
		<path fill="#E96B56" d="M172.088-5.797l-3.704-2.222c-0.688-0.416-1.092-1.438-0.904-2.286l0,0c0.192-0.85,0.899-1.206,1.584-0.79
			l3.703,2.221c0.69,0.418,1.097,1.439,0.903,2.289l0,0C173.48-5.739,172.771-5.385,172.088-5.797z"/>
		<path fill="#E96B56" d="M186.468,2.854l-9.751-5.86c-0.684-0.417-1.09-1.44-0.905-2.289l0,0c0.19-0.851,0.901-1.207,1.588-0.789
			l9.747,5.86c0.688,0.414,1.097,1.439,0.909,2.286l0,0C187.869,2.913,187.161,3.265,186.468,2.854z"/>
		<path fill="#E96B56" d="M173.964,2.647l-7.004-4.216c-0.69-0.416-1.096-1.438-0.906-2.288l0,0c0.188-0.85,0.902-1.205,1.587-0.789
			l7.008,4.215c0.686,0.418,1.094,1.439,0.904,2.289l0,0C175.365,2.708,174.655,3.058,173.964,2.647z"/>
		<path fill="#E96B56" d="M214.592,19.788l-4.5-2.704c-0.688-0.416-1.094-1.438-0.903-2.289l0,0
			c0.188-0.849,0.897-1.206,1.585-0.788l4.5,2.704c0.689,0.417,1.092,1.438,0.907,2.288l0,0
			C215.995,19.85,215.278,20.208,214.592,19.788z"/>
		<path fill="#E96B56" d="M196.005-20.672l-12.392-7.449c-0.686-0.415-1.09-1.438-0.904-2.289l0,0
			c0.19-0.848,0.899-1.204,1.59-0.787l12.388,7.449c0.688,0.417,1.094,1.437,0.903,2.286l0,0
			C197.403-20.61,196.69-20.253,196.005-20.672z"/>
		<path fill="#E96B56" d="M197.132-27.306l-21.594-12.98c-0.692-0.416-1.096-1.438-0.906-2.289l0,0
			c0.19-0.849,0.898-1.206,1.584-0.788l21.599,12.981c0.685,0.416,1.092,1.439,0.901,2.29l0,0
			C198.535-27.242,197.816-26.893,197.132-27.306z"/>
		<path fill="#E96B56" d="M185.067-19.932l-12.389-7.449c-0.687-0.417-1.095-1.438-0.903-2.29l0,0
			c0.186-0.849,0.899-1.205,1.586-0.787l12.389,7.448c0.688,0.417,1.096,1.439,0.903,2.289l0,0
			C186.468-19.872,185.756-19.516,185.067-19.932z"/>
		<path fill="#E96B56" d="M205.397-15.021l-4.498-2.706c-0.688-0.417-1.095-1.438-0.907-2.289l0,0
			c0.19-0.85,0.898-1.206,1.589-0.789l4.498,2.704c0.69,0.417,1.094,1.44,0.902,2.29l0,0
			C206.801-14.961,206.09-14.604,205.397-15.021z"/>
		<path fill="#E96B56" d="M249.839-17.556L223.18-33.585c-0.689-0.417-1.093-1.438-0.902-2.289l0,0
			c0.188-0.851,0.898-1.205,1.584-0.789l26.661,16.03c0.688,0.417,1.094,1.439,0.907,2.29l0,0
			C251.237-17.494,250.529-17.143,249.839-17.556z"/>
		<path fill="#E96B56" d="M184.708-5.518l-14.893-8.954c-0.688-0.416-1.09-1.439-0.906-2.288l0,0
			c0.19-0.852,0.898-1.207,1.587-0.789l14.895,8.955c0.687,0.417,1.093,1.438,0.906,2.287l0,0
			C186.111-5.457,185.402-5.107,184.708-5.518z"/>
		<path fill="#E96B56" d="M184.584-56.789l-10.95-6.58c-0.688-0.417-1.095-1.439-0.904-2.29l0,0
			c0.188-0.849,0.898-1.205,1.586-0.789l10.95,6.581c0.69,0.419,1.097,1.439,0.904,2.291l0,0
			C185.985-56.728,185.274-56.37,184.584-56.789z"/>
		<path fill="#E96B56" d="M172.015,8.787l-12.688-7.629c-0.688-0.416-1.091-1.439-0.903-2.288l0,0
			c0.189-0.851,0.901-1.205,1.586-0.788l12.685,7.627c0.688,0.413,1.095,1.437,0.906,2.289l0,0
			C173.41,8.846,172.7,9.202,172.015,8.787z"/>
	</g>
	<g>
		<path fill="#E96B56" d="M257.148,58.249l-7.425-4.468c-0.688-0.412-1.094-1.436-0.907-2.285l0,0
			c0.193-0.851,0.902-1.206,1.593-0.786l7.42,4.46c0.688,0.42,1.096,1.44,0.906,2.294l0,0
			C258.549,58.31,257.842,58.663,257.148,58.249z"/>
		<path fill="#E96B56" d="M262.484,32.204l-14.177-8.521c-0.688-0.416-1.094-1.438-0.9-2.287l0,0
			c0.186-0.852,0.896-1.206,1.581-0.791l14.178,8.522c0.689,0.416,1.095,1.437,0.901,2.288l0,0
			C263.887,32.265,263.17,32.621,262.484,32.204z"/>
		<path fill="#E96B56" d="M250.09,39.381l-4.64-2.79c-0.686-0.415-1.091-1.438-0.906-2.288l0,0c0.192-0.85,0.9-1.206,1.592-0.789
			l4.638,2.789c0.685,0.417,1.09,1.438,0.904,2.289l0,0C251.49,39.437,250.78,39.791,250.09,39.381z"/>
		<path fill="#E96B56" d="M245.57,51.283l-2.981-1.788c-0.688-0.414-1.092-1.439-0.905-2.291l0,0
			c0.192-0.845,0.899-1.205,1.584-0.788l2.982,1.791c0.689,0.416,1.096,1.438,0.904,2.289l0,0
			C246.964,51.347,246.255,51.703,245.57,51.283z"/>
		<path fill="#E96B56" d="M267.346,49.753l-12.389-7.452c-0.69-0.417-1.094-1.439-0.906-2.287l0,0c0.19-0.85,0.898-1.205,1.584-0.79
			l12.396,7.45c0.684,0.414,1.091,1.438,0.903,2.288l0,0C268.742,49.813,268.033,50.167,267.346,49.753z"/>
		<path fill="#E96B56" d="M268.476,43.119l-21.596-12.98c-0.685-0.417-1.091-1.438-0.902-2.291l0,0
			c0.187-0.849,0.901-1.206,1.59-0.786l21.594,12.981c0.688,0.417,1.09,1.437,0.905,2.288l0,0
			C269.874,43.181,269.166,43.534,268.476,43.119z"/>
		<path fill="#E96B56" d="M256.409,50.491l-12.391-7.449c-0.688-0.418-1.089-1.441-0.904-2.29l0,0c0.19-0.85,0.899-1.206,1.59-0.789
			l12.386,7.45c0.691,0.417,1.095,1.439,0.906,2.289l0,0C257.806,50.552,257.097,50.903,256.409,50.491z"/>
		<path fill="#E96B56" d="M256.053,64.904L241.16,55.95c-0.686-0.415-1.092-1.438-0.897-2.289l0,0
			c0.185-0.852,0.896-1.206,1.582-0.787l14.895,8.952c0.685,0.417,1.09,1.44,0.902,2.29l0,0
			C257.453,64.966,256.743,65.315,256.053,64.904z"/>
	</g>
	<g>
		<g>
			<path fill="#E8B3B3" d="M226.804,198.833l-17.444-10.565c-1.472-0.885-1.286-2.437,0.41-3.461l16.628-10.084
				c1.695-1.022,4.271-1.138,5.744-0.251l17.446,10.572c1.468,0.882,1.286,2.437-0.411,3.452l-16.631,10.088
				C230.843,199.608,228.271,199.717,226.804,198.833z"/>
			<path fill="#771818" d="M254.913,166.066L254.913,166.066v-4.392l-22.38-0.01l0.156-0.01c-1.777-1.063-4.874-0.933-6.927,0.303
				l0.662-0.289l-22.397-0.014v4.688c-0.05,0.721,0.339,1.421,1.187,1.927l21.033,12.742c1.776,1.072,4.877,0.938,6.924-0.296
				l20.047-12.167C254.407,167.839,254.978,166.921,254.913,166.066z"/>
			<path fill="#A83939" d="M229.478,160.943c-1.3,0.03-2.647,0.368-3.715,1.015l0.662-0.289l-22.397-0.014v4.688
				c-0.05,0.721,0.339,1.421,1.187,1.927l21.033,12.742c0.858,0.515,2.018,0.751,3.212,0.72L229.478,160.943z"/>
			<path fill="#D34C4C" d="M206.565,161.655h-2.538v4.688c-0.05,0.721,0.339,1.421,1.187,1.927l1.352,0.813V161.655z"/>
			<path fill="#872727" d="M226.699,181.241c1.531,0.687,3.741,0.644,5.536-0.065v-6.134h-5.536V181.241z"/>
			<path fill="#E96B56" d="M226.253,176.372l-21.033-12.74c-1.777-1.071-1.553-2.934,0.501-4.169l20.042-12.163
				c2.053-1.23,5.149-1.367,6.927-0.3l21.032,12.741c1.777,1.065,1.556,2.931-0.494,4.166l-20.048,12.164
				C231.124,177.307,228.026,177.437,226.253,176.372z"/>
		</g>
		<g>
			<path fill="#A83939" d="M230.171,159.928l-6.188-3.74c-0.825-0.496-0.825-1.305,0-1.802c0.828-0.494,2.17-0.494,2.99,0
				l6.187,3.747c0.828,0.493,0.828,1.302,0,1.795C232.336,160.422,230.998,160.422,230.171,159.928z"/>
		</g>
		<g>
			<path fill="#A83939" d="M239.163,165.401l-3.763-2.306c-0.822-0.495-0.822-1.308,0-1.797c0.829-0.494,2.17-0.494,2.993,0
				l3.754,2.302c0.831,0.493,0.831,1.304,0,1.801C241.328,165.898,239.985,165.898,239.163,165.401z"/>
		</g>
		<g>
			<path fill="#A83939" d="M221.498,162.23l-3.756-2.306c-0.826-0.496-0.826-1.308,0-1.799c0.828-0.494,2.168-0.494,2.99,0
				l3.754,2.303c0.83,0.495,0.83,1.308,0,1.802C223.667,162.728,222.325,162.728,221.498,162.23z"/>
		</g>
	</g>
</g>
<path fill="#E96B56" d="M278.808,106.056c0,2.511-1.909,4.54-4.265,4.54c-2.353,0-4.259-2.029-4.259-4.54
	c0-2.504,1.906-4.536,4.259-4.536C276.898,101.52,278.808,103.552,278.808,106.056z"/>
<path fill="#CC5858" d="M270.536,182.483c-3.191,0-5.788-2.76-5.788-6.163c0-3.39,2.597-6.164,5.788-6.164
	c3.194,0,5.79,2.767,5.79,6.164C276.332,179.724,273.73,182.483,270.536,182.483z M270.536,172.058
	c-2.212,0-4.007,1.917-4.007,4.263s1.795,4.273,4.007,4.273c2.208,0,4.007-1.918,4.007-4.273
	C274.543,173.968,272.751,172.058,270.536,172.058z"/>
<path fill="#CC5858" d="M138.402,192.161l-3.929-8.504l7.991-4.188l3.93,8.504L138.402,192.161z M136.854,184.52l2.358,5.104
	l4.8-2.513l-2.36-5.1L136.854,184.52z"/>
<path fill="#E96B56" d="M49.611,187.714c-4.502,0-8.163-3.901-8.163-8.689c0-4.79,3.661-8.692,8.163-8.692
	c4.503,0,8.165,3.902,8.165,8.692C57.775,183.813,54.111,187.714,49.611,187.714z M49.611,172.229c-3.521,0-6.384,3.048-6.384,6.796
	c0,3.743,2.863,6.793,6.384,6.793c3.52,0,6.387-3.05,6.387-6.793C55.991,175.276,53.131,172.229,49.611,172.229z"/>
<g>
	<path fill="#CC5858" d="M22.589,51.574l0.903-1.632c0,0,0.756,0.44,1.564,0.173c0.649-0.215,1.208-0.841,1.665-1.852
		c1.619-3.563,4.601-3.838,5.957-3.48l-0.425,1.845l0.215-0.923l-0.205,0.923c-0.258-0.064-2.575-0.535-3.929,2.46
		c-0.688,1.518-1.622,2.477-2.773,2.847C24.019,52.425,22.728,51.657,22.589,51.574z"/>
</g>
<g>
	<polygon fill="#E96B56" points="122.424,-17.896 121.161,-19.231 127.148,-25.602 128.405,-24.264 	"/>
	<polygon fill="#E96B56" points="127.148,-17.896 121.161,-24.264 122.424,-25.602 128.405,-19.231 	"/>
</g>
<path fill="#E96B56" d="M39.116-25.602c0,3.786-2.882,6.854-6.438,6.854c-3.558,0-6.439-3.068-6.439-6.854
	c0-3.783,2.881-6.852,6.439-6.852C36.234-32.454,39.116-29.384,39.116-25.602z"/>
<polygon fill="#CC5858" points="266.635,-59.977 255.521,-54.161 250.053,-65.988 261.165,-71.804 "/>
<g>
	<polygon fill="#CC5858" points="94.38,-68.788 93.993,-70.398 98.378,-71.593 98.765,-69.987 	"/>
	<polygon fill="#CC5858" points="92.145,-66.466 91.759,-68.072 96.143,-69.272 96.529,-67.663 	"/>
	<polygon fill="#CC5858" points="89.904,-64.146 89.515,-65.751 93.908,-66.946 94.293,-65.341 	"/>
	<polygon fill="#CC5858" points="87.667,-61.819 87.281,-63.428 91.666,-64.625 92.054,-63.019 	"/>
</g>
</svg>
