<?xml version="1.0" encoding="utf-8"?>
<!-- Generator: Adobe Illustrator 16.0.0, SVG Export Plug-In . SVG Version: 6.00 Build 0)  -->
<!DOCTYPE svg PUBLIC "-//W3C//DTD SVG 1.1//EN" "http://www.w3.org/Graphics/SVG/1.1/DTD/svg11.dtd">
<svg version="1.1" id="Layer_1" xmlns="http://www.w3.org/2000/svg" xmlns:xlink="http://www.w3.org/1999/xlink" x="0px" y="0px"
	 width="300px" height="300px" viewBox="0 -94.112 300 300" enable-background="new 0 -94.112 300 300" xml:space="preserve">
<g>
	<g>
		<path fill="#771818" d="M180.176,162.9H48.206c-4.175,0-7.567-3.021-7.567-6.744V-14.106c0-3.723,3.388-6.746,7.567-6.746H180.17
			c4.178,0,7.563,3.023,7.563,6.746v170.263C187.732,159.882,184.348,162.9,180.176,162.9z"/>
		<rect x="49.114" y="-13.297" fill="#E96B56" width="130.15" height="161.919"/>
		<g>
			<path fill="#A87979" d="M114.188,159.271c-2.133,0-3.866-1.541-3.866-3.443c0-1.898,1.73-3.444,3.866-3.444
				s3.866,1.546,3.866,3.444C118.055,157.729,116.32,159.271,114.188,159.271z M114.188,153.145c-1.657,0-3.009,1.203-3.009,2.686
				c0,1.479,1.353,2.686,3.009,2.686c1.657,0,3.01-1.207,3.01-2.686C117.201,154.348,115.849,153.145,114.188,153.145z"/>
		</g>
	</g>
	<g>
		<path fill="#F9E4E4" d="M187.732-4.174h-76.821c-1.559,0-2.826,1.126-2.826,2.52v89.118c0,1.39,1.26,2.521,2.826,2.521h76.821
			V-4.174z"/>
		<path fill="#FFD7D7" d="M217.152,87.604H112.82c-1.139,0-2.063-0.828-2.063-1.845V-4.709c0-1.015,0.925-1.841,2.063-1.841h104.339
			c1.144,0,2.065,0.826,2.065,1.841V85.76C219.215,86.777,218.303,87.604,217.152,87.604z"/>
		<rect x="120.165" y="1.839" fill="#771818" width="89.64" height="46.319"/>
		<rect x="120.165" y="51.965" fill="#FFFEFF" width="26.206" height="2.342"/>
		<rect x="185.477" y="53.132" opacity="0.4" fill="#E96B56" enable-background="new    " width="24.328" height="12.681"/>
		<rect x="185.477" y="68.689" opacity="0.4" fill="#E96B56" enable-background="new    " width="24.328" height="12.681"/>
		<rect x="120.165" y="79.755" fill="#FFFEFF" width="56.356" height="1.567"/>
		<g>
			<rect x="124.753" y="76.261" opacity="0.4" fill="#E96B56" enable-background="new    " width="7.342" height="3.501"/>
			<rect x="138.029" y="67.863" opacity="0.4" fill="#E96B56" enable-background="new    " width="7.341" height="11.892"/>
			<rect x="151.311" y="70.386" opacity="0.4" fill="#E96B56" enable-background="new    " width="7.34" height="9.369"/>
			<rect x="164.592" y="59.475" opacity="0.4" fill="#E96B56" enable-background="new    " width="7.344" height="20.287"/>
		</g>
		<polygon fill="#FFFEFF" points="157.453,16.809 157.453,33.191 172.525,25.001 		"/>
	</g>
	<g>
		<path fill="#E96B56" d="M110.001,16.736H57.065c-1.833,0-3.316,1.322-3.316,2.958v26.019c0,1.633,1.483,2.956,3.316,2.956h3.555
			v4.118l4.624-4.118h44.758c1.834,0,3.317-1.323,3.317-2.956v-26.02C113.318,18.061,111.836,16.736,110.001,16.736z"/>
		<path fill="#FFFEFF" d="M111.058,15.019H58.12c-1.832,0-3.315,1.322-3.315,2.957v26.019c0,1.635,1.483,2.956,3.315,2.956h3.561
			v4.119l4.623-4.119h44.755c1.834,0,3.315-1.321,3.315-2.956V17.976C114.374,16.341,112.893,15.019,111.058,15.019z"/>
		<g>
			<path fill="#771818" d="M106.809,25.893H61.962c-0.995,0-1.799-0.718-1.799-1.603l0,0c0-0.887,0.804-1.605,1.799-1.605h44.847
				c0.993,0,1.801,0.718,1.801,1.605l0,0C108.609,25.178,107.801,25.893,106.809,25.893z"/>
			<path fill="#771818" d="M87.089,32.661H61.962c-0.995,0-1.799-0.719-1.799-1.608l0,0c0-0.885,0.804-1.604,1.799-1.604h25.127
				c0.995,0,1.798,0.718,1.798,1.604l0,0C88.884,31.942,88.083,32.661,87.089,32.661z"/>
			<path fill="#771818" d="M106.809,32.661H94.953c-0.993,0-1.798-0.719-1.798-1.608l0,0c0-0.885,0.805-1.604,1.798-1.604h11.856
				c0.993,0,1.801,0.718,1.801,1.604l0,0C108.609,31.942,107.801,32.661,106.809,32.661z"/>
			<path fill="#771818" d="M71.529,39.425h-9.567c-0.995,0-1.799-0.721-1.799-1.607l0,0c0-0.886,0.804-1.604,1.799-1.604h9.567
				c0.998,0,1.803,0.718,1.803,1.604l0,0C73.326,38.704,72.522,39.425,71.529,39.425z"/>
		</g>
	</g>
	<g>
		<path fill="#FFD7D7" d="M187.732,105.057h-31.039c-1.562,0-2.824,1.127-2.824,2.521v22.182c0,1.391,1.266,2.521,2.824,2.521
			h31.039V105.057z"/>
		<path fill="#771818" d="M159.341,102.9h45.138c1.562,0,2.828,1.125,2.828,2.516v22.189c0,1.385-1.264,2.517-2.828,2.517h-3.035
			v3.515l-3.941-3.515h-38.158c-1.559,0-2.826-1.126-2.826-2.517v-22.189C156.512,104.033,157.782,102.9,159.341,102.9z"/>
		<g>
			<path fill="#FFFEFF" d="M192.676,117.634h7.45c0.687,0,1.229-0.491,1.229-1.093l0,0c0-0.611-0.543-1.1-1.229-1.1h-7.45
				c-0.678,0-1.229,0.488-1.229,1.1l0,0C191.445,117.143,191.998,117.634,192.676,117.634z"/>
			<path fill="#FFFEFF" d="M163.686,117.634h24.209c0.681,0,1.229-0.491,1.229-1.093l0,0c0-0.611-0.55-1.1-1.229-1.1h-24.209
				c-0.678,0-1.229,0.488-1.229,1.1l0,0C162.453,117.143,163.008,117.634,163.686,117.634z"/>
			<path fill="#FFFEFF" d="M163.686,123.939h10.063c0.679,0,1.229-0.489,1.229-1.096l0,0c0-0.611-0.551-1.102-1.229-1.102h-10.063
				c-0.678,0-1.229,0.49-1.229,1.102l0,0C162.453,123.45,163.008,123.939,163.686,123.939z"/>
			<path fill="#FFFEFF" d="M171.143,111.325h-7.449c-0.686,0-1.229-0.491-1.229-1.101l0,0c0-0.604,0.544-1.093,1.229-1.093h7.449
				c0.678,0,1.229,0.488,1.229,1.093l0,0C172.371,110.834,171.813,111.325,171.143,111.325z"/>
			<path fill="#FFFEFF" d="M200.132,111.325h-24.204c-0.682,0-1.232-0.491-1.232-1.101l0,0c0-0.604,0.554-1.093,1.232-1.093h24.204
				c0.681,0,1.229,0.488,1.229,1.093l0,0C201.361,110.834,200.813,111.325,200.132,111.325z"/>
		</g>
	</g>
	<g>
		<path fill="#E96B56" d="M51.001-20.853c-5.723,0-10.356,4.135-10.356,9.233v22.808h31.418c1.559,0,2.826-1.125,2.826-2.52v-29.521
			H51.001z"/>
		<path fill="#771818" d="M6.293,9.289h64.395c1.138,0,2.063-0.825,2.063-1.84v-45.262c0-1.014-0.925-1.839-2.063-1.839H6.293
			c-1.139,0-2.064,0.825-2.064,1.839V7.449C4.229,8.464,5.154,9.289,6.293,9.289z"/>
		<path fill="#915656" d="M14.716-36.111L14.716-36.111c-0.659,0-1.184-0.475-1.184-1.054v-4.962c0-0.585,0.529-1.056,1.184-1.056
			l0,0c0.653,0,1.179,0.476,1.179,1.056v4.962C15.895-36.585,15.373-36.111,14.716-36.111z"/>
		<path fill="#915656" d="M20.135-36.111L20.135-36.111c-0.656,0-1.182-0.475-1.182-1.054v-4.962c0-0.585,0.532-1.056,1.182-1.056
			l0,0c0.657,0,1.184,0.476,1.184,1.056v4.962C21.326-36.585,20.792-36.111,20.135-36.111z"/>
		<path fill="#915656" d="M62.261-36.111L62.261-36.111c0.656,0,1.184-0.475,1.184-1.054v-4.962c0-0.585-0.534-1.056-1.184-1.056
			l0,0c-0.657,0-1.182,0.476-1.182,1.056v4.962C61.082-36.585,61.611-36.111,62.261-36.111z"/>
		<path fill="#915656" d="M56.84-36.111L56.84-36.111c0.659,0,1.181-0.475,1.181-1.054v-4.962c0-0.585-0.529-1.056-1.181-1.056l0,0
			c-0.656,0-1.182,0.476-1.182,1.056v4.962C55.661-36.585,56.184-36.111,56.84-36.111z"/>
		<g>
			<rect x="10.818" y="-2.536" fill="#E96B56" width="6.291" height="5.949"/>
			<rect x="18.99" y="-2.536" fill="#E96B56" width="6.29" height="5.949"/>
			<rect x="27.171" y="-17.789" fill="#E96B56" width="6.291" height="5.949"/>
			<rect x="35.343" y="-17.789" fill="#E96B56" width="6.29" height="5.949"/>
			<rect x="27.171" y="-10.163" fill="#E96B56" width="6.291" height="5.948"/>
			<rect x="35.343" y="-10.163" fill="#E96B56" width="6.29" height="5.948"/>
			<rect x="43.519" y="-10.163" fill="#E96B56" width="6.289" height="5.948"/>
			<rect x="43.519" y="-17.789" fill="#E96B56" width="6.289" height="5.949"/>
			<rect x="43.519" y="-25.419" fill="#E96B56" width="6.289" height="5.95"/>
			<rect x="35.343" y="-25.419" fill="#E96B56" width="6.29" height="5.95"/>
			<rect x="27.171" y="-25.419" fill="#E96B56" width="6.291" height="5.95"/>
			<rect x="18.99" y="-17.789" fill="#E96B56" width="6.29" height="5.949"/>
			<rect x="18.99" y="-10.163" fill="#E96B56" width="6.29" height="5.948"/>
			<rect x="27.171" y="-2.536" fill="#E96B56" width="6.291" height="5.949"/>
			<rect x="35.343" y="-2.536" fill="#E96B56" width="6.29" height="5.949"/>
			<rect x="51.697" y="-10.163" fill="#E96B56" width="6.289" height="5.948"/>
			<rect x="51.697" y="-17.789" fill="#E96B56" width="6.289" height="5.949"/>
			<rect x="51.697" y="-25.419" fill="#E96B56" width="6.289" height="5.95"/>
			<rect x="10.818" y="-17.789" fill="#E96B56" width="6.291" height="5.949"/>
			<rect x="10.818" y="-10.163" fill="#E96B56" width="6.291" height="5.948"/>
			<rect x="59.868" y="-10.163" fill="#E96B56" width="6.291" height="5.948"/>
			<rect x="59.868" y="-17.789" fill="#E96B56" width="6.291" height="5.949"/>
			<rect x="59.868" y="-25.419" fill="#E96B56" width="6.291" height="5.95"/>
		</g>
		<rect x="10.818" y="-32.682" fill="#FFFEFF" width="55.34" height="3.569"/>
	</g>
</g>
<g>
	<path fill="#A83939" d="M262.587,124.73c14.853,0,26.892,6.109,26.892,13.645s-12.039,13.643-26.892,13.643
		c-14.854,0-26.896-6.105-26.896-13.643S247.732,124.73,262.587,124.73z"/>
	<g>
		<path fill="#5B1313" d="M275.457-1.277c0,0-0.591,10.604-1.505,17.737c-0.921,7.125-20.454-5.478-20.454-5.478V2.866
			L275.457-1.277z"/>
		<g>
			<path fill="#771818" d="M265.053,130.684c-0.296,0.647-5.354,6.063-10.419,7.416c-2.202,0.588-3.681,0.664-4.653,0.565
				c-0.976-0.103-1.57-0.981-1.244-1.797c0.871-2.152,3.373-6.642,9.717-9.405C267.034,123.721,265.053,130.684,265.053,130.684z"/>
			<path fill="#771818" d="M266.738,132.764c0,0-1.912,3.93-2.495,7.217c-0.359,2.01,0.896,4.611,1.924,6.342
				c0.644,1.07,2.265,1.311,3.285,0.501c1.655-1.321,3.761-3.615,4.106-6.902c0.586-5.541,0-6.511,0-6.511L266.738,132.764z"/>
			<path fill="#FFD7D7" d="M278.93,65.756c0,0,0.662,6.992,0,14.733c-0.658,7.731-3.021,43.913-3.459,52.614
				c0,0,0.215,2.637-5.59,2.056c-5.804-0.578-5.337-3.507-5.337-3.507s-8.149-0.094-8.403-4.321
				c-0.258-4.22-8.352-50.417-8.352-67.024L278.93,65.756z"/>
			<g>
				<path fill="#FFC2B0" d="M244.779,29.601l-3.995,5.434l-13.724,14.569c0,0,0.471,1.354,2.184,1.703
					c1.34,0.28,12.876-9.404,17.859-13.646c1.33-1.126,1.545-2.929,0.521-4.278L244.779,29.601z"/>
				<path fill="#E96B56" d="M252.572,7.288c0,0-6.35-0.144-8.559,7.912c-2.203,8.055-3.931,18.147-2.014,18.983
					c5.768,2.516,9.414-0.428,9.414-0.428L252.572,7.288z"/>
				<path fill="#E96B56" d="M250.671,7.635c1.081-0.396,2.297-0.45,3.427-0.169c5.399,1.366,25.729,6.606,29.073,9.123
					c3.872,2.903-5.801,19.239-5.666,24.592c0.142,5.353,0.827,11.668,1.363,17.492c0.538,5.824,1.271,9.011-4.149,11.483
					c-5.422,2.478-14.671,2.588-21.589-2.049c-6.926-4.635-5.673-7.81-5.378-11.17c0.29-3.367,2.65-17.928,2.445-22.059
					c0,0-2.438-1.579-4.241-4.287c-1.808-2.708,1.381-7.688,2.706-10.926c1.322-3.239-0.755-6.943-0.338-9.58
					C248.527,8.721,249.516,8.055,250.671,7.635z"/>
				<path fill="#FFFFFF" d="M266.201,18.635l-2.313,2.324c-0.296,0.301-0.438,0.702-0.361,1.099l2.015,12.395
					c0.062,0.346-0.039,0.702-0.269,0.986l-4.943,6.01c-0.217,0.267-0.688,0.206-0.813-0.105l-3.025-7.644
					c-0.111-0.292-0.111-0.605,0-0.892l4.557-11.408c0.102-0.251,0.115-0.518,0.045-0.772l-0.811-2.976L266.201,18.635z"/>
				<path fill="#FFFFFF" d="M257.167,13.198c-0.431,2.944,2.646,5.709,6.856,6.182c4.215,0.475,7.984-1.527,8.41-4.465
					c0.43-2.944-2.646-5.711-6.858-6.186C261.359,8.258,257.59,10.26,257.167,13.198z"/>
				<path fill="#FFC2B0" d="M259.343,13.443c-0.31,2.101,1.888,4.082,4.903,4.419c3.012,0.34,5.703-1.092,6.005-3.196
					c0.31-2.103-1.888-4.081-4.899-4.421C262.346,9.913,259.648,11.343,259.343,13.443z"/>
				<path fill="#FFC2B0" d="M262.339,6.541c0,0,3.667-2.656,4.386-1.31c0.719,1.343,1.315,7.102,1.315,7.102l-7.287,1.717
					l1.108-5.835C261.861,8.218,260.404,7.132,262.339,6.541z"/>
				<ellipse fill="#FFC2B0" cx="261.811" cy="-0.334" rx="10.883" ry="9.556"/>
				<path fill="#EA9C92" d="M267.234,6.902c0.062,0.301,0.121,0.626,0.188,0.954c-0.73,3.323-6.4,4.784-6.4,4.784l0.84-4.416
					c0,0-0.688-0.512-0.492-1.025C263.607,6.574,266.43,6.029,267.234,6.902z"/>
				<ellipse fill="#FFC2B0" cx="261.811" cy="-0.334" rx="10.883" ry="9.556"/>
				<polygon fill="#FFC2B0" points="288.611,40.127 287.395,65.708 283.141,66.092 280.366,43.064 				"/>
				<path fill="#E96B56" d="M274.623,37.987c0.229-0.892,2.093-1.624,2.376-2.782c1.46-5.961,1.813-14.746,1.813-14.746L280,32.465
					c-1.367,3.556-2.553,6.828-2.51,8.72c0.08,3.143,0.359,6.618,0.672,10.125v0.01C278.177,51.316,273.213,43.448,274.623,37.987z"
					/>
				<path fill="#E96B56" d="M282.355,16.065c0,0,3.396,1.144,5.326,10.324c1.928,9.184,3.362,18.386-0.07,19.571
					c-3.436,1.186-6.305,2.078-7.313-0.38c-1.004-2.46-1.632-14.297-1.761-18.55C278.42,22.771,278.23,16.905,282.355,16.065z"/>
				<path fill="#FFC2B0" d="M228.068,48.538c0,0-1.84,0.595-3.178,1.868c-1.094,1.049-1.692,1.936-2.17,2.557
					c-1.063,1.391-1.947,4.396-1.309,4.768c0.645,0.379,4.352-5.026,4.938-3.772c0.601,1.255-0.006,2.42,0.76,2.435
					c0.769,0.019,3.422-5.431,5.51-7.119C234.719,47.591,228.068,48.538,228.068,48.538z"/>
			</g>
			<path fill="#E96B56" d="M264.549,131.646c0,0-1.011-0.01-2.324-0.213l0,0l-1.592-56.231L264.549,131.646z"/>
		</g>
		<g>
			<path fill="#A83939" d="M270.707,101.271l2.264-2.601l23.813-12.116c0.766-0.389,1.383-1.425,1.383-2.322L298.146,67.1
				l1.367-1.572l-1.291-0.652l0,0c-0.236-0.137-0.574-0.132-0.933,0.046L270.307,78.65c-0.769,0.396-1.382,1.432-1.382,2.33
				l0.026,18.649c0,0.503,0.199,0.856,0.501,0.994l0,0L270.707,101.271z"/>
			<path fill="#A83939" d="M287.175,91.449l1.696-0.856l9.281-14.174l-0.012-9.31l1.363-1.575l-1.289-0.652l0,0
				c-0.236-0.139-0.568-0.132-0.931,0.048l-26.989,13.732c-0.406,0.207-0.768,0.591-1.021,1.042L287.175,91.449z"/>
			<path fill="#396CAA" d="M298.906,66.229l0.604-0.693l-1.289-0.652l0,0c-0.242-0.139-0.57-0.139-0.934,0.044l-0.471,0.237
				L298.906,66.229z"/>
			<path fill="#A83939" d="M270.057,78.807c-0.599,0.435-1.063,1.245-1.121,1.998l2.642,1.338l1.263-1.929L270.057,78.807z"/>
			<path fill="#FFD7D7" d="M271.594,79.311l26.983-13.733c0.769-0.39,1.383,0.022,1.383,0.922l0.026,18.657
				c0,0.896-0.617,1.934-1.379,2.324l-26.992,13.734c-0.76,0.391-1.379-0.025-1.379-0.925l-0.021-18.657
				C270.212,80.741,270.828,79.699,271.594,79.311z"/>
			<path fill="#FFFFFF" d="M271.186,79.1l26.988-13.735c0.45-0.226,0.844-0.175,1.102,0.09c-0.211-0.039-0.44,0-0.695,0.126
				l-26.99,13.736c-0.763,0.389-1.376,1.426-1.376,2.322l0.021,18.656c0,0.366,0.104,0.646,0.289,0.83
				c-0.412-0.068-0.692-0.445-0.692-1.042l-0.026-18.656C269.801,80.525,270.422,79.482,271.186,79.1z"/>
		</g>
		<polygon fill="#FFFFFF" points="277.129,92.689 278.42,92.04 278.42,82.337 277.129,82.989 		"/>
		<polygon fill="#FFFFFF" points="280.139,91.168 281.421,90.516 281.421,80.814 280.139,81.473 		"/>
		<polygon fill="#FFFFFF" points="283.141,89.646 284.423,88.994 284.423,79.292 283.141,79.938 		"/>
		<path fill="#FFC2B0" d="M287.359,65.489c0,0,1.129,5.972,0.959,7.885c-0.17,1.911-1.332,5.065-2.223,5.001
			c-0.883-0.064-0.027-7.689-1.578-6.93c-1.551,0.755-1.713,2.061-2.418,1.599c-0.701-0.466,1.223-6.978,0.711-9.804
			C282.298,60.414,287.359,65.489,287.359,65.489z"/>
		<path fill="#EA9C92" d="M257.637,0.497c-5.461,1.702-6.521,0.662-6.572,0.608c-0.051-0.289-0.09-0.58-0.108-0.88
			c-0.07-1.062,0.063-2.086,0.356-3.058l14.156-1.676C265.469-4.505,263.239-1.248,257.637,0.497z"/>
		<path fill="#771818" d="M250.563-9.292c1.291-0.968,5.931-5.758,14.237-4.628c5.195,0.708,9.574,3.822,10.55,10.926
			c0.654,4.79-1.348,9.5-5.033,12.987c-0.194-0.083-0.398-0.157-0.582-0.26c-2.082-1.205-2.312-1.868-2.312-1.875l-0.461-3.624
			c0.011-0.512,0.45-0.97,1.038-1.003c0.45-0.021,1.001-0.218,1.521-0.816c1.199-1.37,0.646-3.514-1.738-3.59
			c-1.254-0.047-1.736-0.635-1.912-1.194c-0.153-0.483-0.738-0.751-1.275-0.585c-2.714,0.865-9.406,2.727-13.716,1.656
			C245.363-2.678,249.273-8.329,250.563-9.292z"/>
		<path fill="#FFFFFF" d="M256.761,4.817l-3.329-0.804c0,0,1.592,2.196,3.91,2.753c2.319,0.559,2.68-1.164,2.68-1.164L256.761,4.817
			z"/>
		<polygon fill="#A83939" points="281.703,72.859 284.531,71.434 283.471,72.961 282.04,73.422 		"/>
	</g>
	<path fill="#FFFFFF" d="M268.169,2.644c0,0.545,0.504,0.993,1.122,0.993c0.625,0,1.125-0.448,1.125-0.993
		c0-0.547-0.508-0.995-1.125-0.995C268.667,1.655,268.169,2.097,268.169,2.644z"/>
</g>
<g>
	<polygon fill="#FFD7D7" points="1.479,69.589 0.013,68.169 6.981,61.426 8.446,62.846 	"/>
	<polygon fill="#FFD7D7" points="6.981,69.589 0.013,62.846 1.479,61.426 8.446,68.169 	"/>
</g>
<path fill="#FFD7D7" d="M146.595,187.857c0,2.617-2.19,4.734-4.891,4.734c-2.703,0-4.89-2.113-4.89-4.734
	c0-2.619,2.187-4.737,4.89-4.737C144.409,183.12,146.595,185.246,146.595,187.857z"/>
<g>
	<path fill="#CC5858" d="M13.086,183.359l1.047-1.731c0,0,0.882,0.47,1.82,0.187c0.756-0.225,1.406-0.893,1.937-1.963
		c1.881-3.771,5.355-4.062,6.93-3.686l-0.496,1.955l0.25-0.977l-0.236,0.977c-0.299-0.066-2.996-0.564-4.571,2.607
		c-0.797,1.604-1.887,2.619-3.225,3.018C14.747,184.26,13.247,183.449,13.086,183.359z"/>
</g>
<g>
	<polygon fill="#CC5858" points="291.27,186.881 290.818,185.175 295.924,183.911 296.373,185.617 	"/>
	<polygon fill="#CC5858" points="288.67,189.343 288.221,187.643 293.32,186.378 293.771,188.073 	"/>
	<polygon fill="#CC5858" points="286.068,191.798 285.619,190.098 290.718,188.834 291.168,190.534 	"/>
	<polygon fill="#CC5858" points="283.461,194.264 283.011,192.561 288.111,191.293 288.563,192.993 	"/>
</g>
<path fill="#FFD7D7" d="M179.947-36.111c-5.238,0-9.497-4.131-9.497-9.206c0-5.071,4.259-9.206,9.497-9.206s9.498,4.134,9.498,9.206
	C189.453-40.242,185.188-36.111,179.947-36.111z M179.947-52.514c-4.092,0-7.43,3.23-7.43,7.198c0,3.968,3.338,7.197,7.43,7.197
	c4.098,0,7.431-3.229,7.431-7.197C187.378-49.284,184.045-52.514,179.947-52.514z"/>
<polygon fill="#CC5858" points="46.21,-72.458 35.856,-67.531 30.767,-77.561 41.121,-82.488 "/>
<path fill="#FFD7D7" d="M284.787-72.255c0,1.521-1.271,2.753-2.842,2.753c-1.565,0-2.834-1.233-2.834-2.753
	c0-1.525,1.269-2.753,2.834-2.753C283.518-75.012,284.787-73.78,284.787-72.255z"/>
</svg>
