<?xml version="1.0" encoding="utf-8"?>
<!-- Generator: Adobe Illustrator 16.0.0, SVG Export Plug-In . SVG Version: 6.00 Build 0)  -->
<!DOCTYPE svg PUBLIC "-//W3C//DTD SVG 1.1//EN" "http://www.w3.org/Graphics/SVG/1.1/DTD/svg11.dtd">
<svg version="1.1" id="Layer_1" xmlns="http://www.w3.org/2000/svg" xmlns:xlink="http://www.w3.org/1999/xlink" x="0px" y="0px"
	 width="300px" height="100px" viewBox="0 0 300 100" enable-background="new 0 0 300 100" xml:space="preserve">
<g>
	<path opacity="0.5" fill="#E5C3C3" enable-background="new    " d="M189.891,65.342l-5.867-3.414
		c-0.494-0.286-0.433-0.786,0.139-1.117l5.592-3.258c0.572-0.331,1.438-0.365,1.934-0.08l5.867,3.414
		c0.494,0.286,0.433,0.786-0.139,1.115l-5.592,3.258C191.253,65.591,190.387,65.627,189.891,65.342z"/>
	<path fill="#771818" d="M197.887,58.105L197.887,58.105V56.93l-6.241-0.004l0.044-0.002c-0.495-0.285-1.36-0.251-1.934,0.08
		l0.186-0.076l-6.248-0.004v1.254c-0.016,0.193,0.094,0.381,0.33,0.519l5.867,3.415c0.494,0.285,1.36,0.25,1.934-0.08l5.592-3.258
		C197.746,58.582,197.905,58.334,197.887,58.105z"/>
	<path fill="#A83939" d="M190.791,56.732c-0.361,0.01-0.738,0.1-1.037,0.271l0.186-0.076l-6.248-0.004v1.254
		c-0.016,0.193,0.094,0.381,0.33,0.519l5.867,3.415c0.238,0.138,0.563,0.199,0.896,0.19L190.791,56.732z"/>
	<path fill="#E8B3B3" d="M184.4,56.924h-0.707v1.254c-0.016,0.193,0.094,0.381,0.33,0.519l0.375,0.216v-1.988H184.4z"/>
	<path fill="#872727" d="M190.017,62.171c0.427,0.184,1.046,0.173,1.544-0.019v-1.642h-1.544V62.171z"/>
	<path fill="#E6573F" d="M189.891,60.865l-5.867-3.414c-0.494-0.285-0.433-0.785,0.139-1.115l5.592-3.258
		c0.572-0.331,1.438-0.365,1.934-0.08l5.867,3.414c0.494,0.286,0.433,0.786-0.139,1.115l-5.592,3.258
		C191.253,61.116,190.387,61.152,189.891,60.865z"/>
</g>
<path opacity="0.5" fill="#E5C3C3" enable-background="new    " d="M131.258,41.731c-2.235,1.291-5.858,1.291-8.095,0
	c-2.234-1.291-2.234-3.382,0-4.673s5.858-1.291,8.095,0C133.493,38.349,133.493,40.44,131.258,41.731z"/>
<g>
	<path opacity="0.5" fill="#E5C3C3" enable-background="new    " d="M148.302,83.409L112.24,62.588
		c-1.02-0.59-0.893-1.619,0.285-2.299l24.555-14.173c1.178-0.68,2.96-0.754,3.98-0.166l36.061,20.821
		c1.021,0.588,0.894,1.617-0.285,2.298l-24.555,14.173C151.104,83.924,149.322,83.998,148.302,83.409z"/>
	<path fill="#771818" d="M186.371,28.591L149.602,7.362c-0.428-0.247-0.862-0.286-1.246-0.153l0.002-0.003l-0.067,0.025
		c-0.005,0.002-0.011,0.003-0.017,0.005l-1.329,0.509l1.193,0.583c-0.005,0.022-0.013,0.042-0.016,0.065l-5.989,27.262
		c-0.3,1.364,0.3,2.957,1.34,3.558l35.886,20.718l-0.128,1.521l1.453-0.564c0.487-0.229,0.879-0.743,1.04-1.479l5.989-27.262
		C188.013,30.784,187.412,29.191,186.371,28.591z"/>
	<path fill="#A83939" d="M186.371,28.591L149.602,7.362c-0.428-0.247-0.862-0.286-1.246-0.153l0.002-0.003l-0.067,0.025
		c-0.005,0.002-0.011,0.003-0.017,0.005l-1.329,0.509l1.193,0.583c-0.005,0.022-0.013,0.042-0.016,0.065l-3.948,17.967
		l17.992,14.016l25.367-10.322C187.289,29.424,186.884,28.887,186.371,28.591z"/>
	<path fill="#872727" d="M184.985,32.782l2.798-1.191c0.051-1.083-0.398-2.204-1.135-2.804l-4.43,1.864L184.985,32.782z"/>
	<path fill="#E6573F" d="M177.953,61.309l-36.77-21.229c-1.04-0.6-1.64-2.193-1.34-3.558l5.989-27.262
		c0.3-1.363,1.386-1.983,2.426-1.383l36.769,21.229c1.04,0.6,1.641,2.193,1.34,3.558l-5.988,27.262
		C180.08,61.289,178.994,61.909,177.953,61.309z"/>
	<path fill="#FFFFFF" d="M177.156,59.279l-34.582-19.956c-0.953-0.549-1.502-2.007-1.228-3.256l5.48-24.947
		c0.275-1.249,1.269-1.814,2.22-1.266l34.582,19.957c0.951,0.549,1.502,2.007,1.228,3.256l-5.479,24.947
		C179.102,59.264,178.109,59.831,177.156,59.279z"/>
	<path fill="#FFFFFF" d="M177.156,59.279l-34.582-19.956c-0.953-0.549-1.502-2.007-1.228-3.256l5.48-24.947
		c0.275-1.249,1.269-1.814,2.22-1.266l34.582,19.957c0.951,0.549,1.502,2.007,1.228,3.256l-5.479,24.947
		C179.102,59.264,178.109,59.831,177.156,59.279z"/>
	<path fill="#751717" d="M178.462,62.232l-5.025-0.663l-32.446-18.731c-1.04-0.6-2.856-0.526-4.058,0.169l-22.991,13.267
		l-3.04-0.401v1.723h0.003c-0.02,0.398,0.208,0.782,0.698,1.066l36.769,21.229c1.04,0.6,2.856,0.525,4.058-0.169l25.038-14.448
		c0.677-0.392,1.014-0.894,0.993-1.366l0,0V62.232z"/>
	<path fill="#A83939" d="M154.084,50.396l-2.306-1.331h-25.342l-12.493,7.209l-3.04-0.401v1.723h0.003
		c-0.02,0.398,0.208,0.782,0.698,1.066l36.767,21.229c0.549,0.318,1.316,0.443,2.095,0.393L154.084,50.396z"/>
	<path fill="#CC5858" d="M112.251,56.051l-1.349-0.178v1.723h0.003c-0.02,0.398,0.208,0.782,0.698,1.066l0.647,0.374V56.051z"/>
	<path fill="#872727" d="M148.744,80.063c0.985,0.374,2.397,0.293,3.448-0.214v-3.846h-3.448V80.063z"/>
	<path fill="#E6573F" d="M148.373,78.169l-36.769-21.229c-1.04-0.6-0.909-1.648,0.291-2.344l25.036-14.45
		c1.202-0.693,3.019-0.769,4.059-0.169l36.769,21.229c1.041,0.601,0.91,1.649-0.291,2.344L152.43,78
		C151.23,78.694,149.413,78.77,148.373,78.169z"/>
	<g>
		<path fill="#771818" d="M127.242,49.913l-1.664-0.96c-0.133-0.076-0.116-0.211,0.038-0.3l1.964-1.135
			c0.154-0.089,0.387-0.098,0.522-0.021l1.664,0.96c0.132,0.076,0.116,0.212-0.039,0.3l-1.963,1.135
			C127.609,49.98,127.376,49.989,127.242,49.913z"/>
		<path fill="#771818" d="M129.811,51.396l-1.664-0.96c-0.133-0.077-0.117-0.213,0.038-0.3l1.963-1.134
			c0.155-0.089,0.387-0.098,0.522-0.022l1.664,0.96c0.133,0.077,0.116,0.213-0.038,0.3l-1.964,1.135
			C130.178,51.464,129.945,51.473,129.811,51.396z"/>
		<path fill="#771818" d="M132.38,52.88l-1.664-0.96c-0.133-0.076-0.116-0.213,0.038-0.3l1.964-1.135
			c0.154-0.089,0.387-0.098,0.522-0.021l1.664,0.96c0.132,0.076,0.116,0.213-0.039,0.3l-1.963,1.135
			C132.747,52.947,132.515,52.957,132.38,52.88z"/>
		<path fill="#771818" d="M135.935,51.654l-1.664-0.96c-0.133-0.076-0.116-0.212,0.038-0.3l1.649-0.951
			c0.155-0.089,0.388-0.098,0.522-0.022l1.664,0.96c0.133,0.076,0.116,0.213-0.038,0.3l-1.649,0.951
			C136.3,51.722,136.067,51.73,135.935,51.654z"/>
		<path fill="#771818" d="M138.503,53.139l-1.664-0.961c-0.133-0.076-0.116-0.213,0.039-0.3l1.649-0.95
			c0.154-0.09,0.387-0.099,0.522-0.022l1.664,0.96c0.133,0.076,0.116,0.213-0.039,0.301l-1.649,0.95
			C138.869,53.205,138.636,53.215,138.503,53.139z"/>
		<path fill="#771818" d="M141.073,54.62l-1.664-0.96c-0.133-0.076-0.116-0.213,0.038-0.301l1.649-0.95
			c0.155-0.089,0.387-0.099,0.522-0.022l1.664,0.961c0.133,0.076,0.116,0.213-0.038,0.3l-1.649,0.95
			C141.44,54.689,141.206,54.698,141.073,54.62z"/>
		<path fill="#771818" d="M143.642,56.104l-1.664-0.96c-0.132-0.076-0.116-0.213,0.039-0.3l1.649-0.951
			c0.154-0.089,0.387-0.098,0.522-0.021l1.664,0.96c0.132,0.076,0.116,0.211-0.039,0.3l-1.649,0.951
			C144.009,56.171,143.774,56.182,143.642,56.104z"/>
		<path fill="#771818" d="M146.211,57.588l-1.664-0.961c-0.133-0.076-0.117-0.213,0.038-0.3l1.649-0.95
			c0.155-0.09,0.388-0.099,0.522-0.022l1.664,0.96c0.133,0.076,0.116,0.213-0.038,0.301l-1.649,0.95
			C146.578,57.654,146.344,57.666,146.211,57.588z"/>
		<path fill="#771818" d="M148.78,59.07l-1.664-0.959c-0.133-0.076-0.116-0.213,0.039-0.301l1.649-0.951
			c0.154-0.088,0.387-0.098,0.522-0.021l1.664,0.961c0.133,0.076,0.116,0.212-0.038,0.299l-1.649,0.951
			C149.147,59.139,148.913,59.147,148.78,59.07z"/>
		<path fill="#771818" d="M151.35,60.555l-1.664-0.96c-0.133-0.077-0.116-0.213,0.038-0.3l1.649-0.951
			c0.154-0.09,0.387-0.098,0.521-0.021l1.664,0.959c0.133,0.077,0.115,0.213-0.039,0.301l-1.648,0.951
			C151.717,60.622,151.482,60.631,151.35,60.555z"/>
		<path fill="#771818" d="M153.918,62.038l-1.664-0.96c-0.133-0.076-0.115-0.213,0.039-0.3l1.648-0.951
			c0.154-0.089,0.388-0.099,0.522-0.021l1.663,0.96c0.133,0.076,0.117,0.213-0.038,0.3l-1.649,0.951
			C154.285,62.105,154.053,62.115,153.918,62.038z"/>
		<path fill="#771818" d="M156.487,63.52l-1.663-0.959c-0.133-0.077-0.117-0.213,0.037-0.301l1.649-0.951
			c0.155-0.088,0.388-0.098,0.522-0.021l1.663,0.96c0.133,0.077,0.116,0.213-0.038,0.3l-1.648,0.951
			C156.854,63.589,156.622,63.598,156.487,63.52z"/>
		<path fill="#771818" d="M159.057,65.004l-1.664-0.961c-0.133-0.076-0.116-0.212,0.038-0.299l1.649-0.951
			c0.154-0.09,0.387-0.099,0.521-0.021l1.664,0.959c0.133,0.076,0.116,0.213-0.039,0.301l-1.648,0.951
			C159.424,65.07,159.191,65.082,159.057,65.004z"/>
		<path fill="#A83939" d="M139.72,50.953l-1.664-0.96c-0.132-0.076-0.116-0.213,0.039-0.3l1.649-0.951
			c0.155-0.089,0.387-0.098,0.522-0.021l1.664,0.96c0.133,0.076,0.116,0.212-0.038,0.3l-1.649,0.951
			C140.085,51.02,139.853,51.029,139.72,50.953z"/>
		<path fill="#A83939" d="M137.113,49.447l-1.664-0.96c-0.133-0.076-0.117-0.213,0.038-0.3l1.649-0.951
			c0.155-0.089,0.387-0.098,0.522-0.022l1.664,0.96c0.133,0.076,0.116,0.212-0.038,0.3l-1.649,0.951
			C137.478,49.515,137.246,49.523,137.113,49.447z"/>
		<path fill="#771818" d="M134.5,47.938l-3.583-2.069c-0.133-0.076-0.117-0.213,0.038-0.3l1.649-0.951
			c0.155-0.089,0.387-0.098,0.522-0.022l3.583,2.069c0.133,0.076,0.117,0.212-0.038,0.3l-1.649,0.951
			C134.867,48.005,134.633,48.017,134.5,47.938z"/>
		<path fill="#771818" d="M136.326,46.105l-2.908-1.678c-0.132-0.076-0.116-0.213,0.039-0.3l1.649-0.951
			c0.154-0.089,0.387-0.098,0.522-0.022l2.907,1.678c0.133,0.077,0.116,0.211-0.038,0.3l-1.649,0.951
			C136.693,46.173,136.46,46.182,136.326,46.105z"/>
		<path fill="#A83939" d="M142.289,52.435l-1.664-0.96c-0.133-0.076-0.116-0.213,0.038-0.3l1.649-0.951
			c0.155-0.089,0.388-0.098,0.522-0.022l1.664,0.96c0.133,0.076,0.117,0.213-0.038,0.3l-1.649,0.95
			C142.656,52.504,142.422,52.513,142.289,52.435z"/>
		<path fill="#771818" d="M144.858,53.918l-1.664-0.96c-0.132-0.076-0.116-0.212,0.039-0.3l1.649-0.951
			c0.154-0.089,0.387-0.098,0.522-0.021l1.664,0.96c0.133,0.076,0.116,0.213-0.038,0.3l-1.649,0.951
			C145.226,53.985,144.991,53.996,144.858,53.918z"/>
		<path fill="#771818" d="M147.427,55.402l-1.664-0.961c-0.133-0.076-0.116-0.213,0.038-0.3l1.649-0.95
			c0.155-0.09,0.388-0.099,0.522-0.022l1.664,0.96c0.133,0.076,0.117,0.213-0.038,0.301l-1.649,0.95
			C147.794,55.469,147.56,55.479,147.427,55.402z"/>
		<path fill="#771818" d="M149.997,56.885l-1.664-0.959c-0.132-0.076-0.116-0.213,0.039-0.301l1.649-0.95
			c0.154-0.089,0.387-0.099,0.522-0.022l1.663,0.961c0.133,0.076,0.117,0.213-0.037,0.299l-1.65,0.951
			C150.364,56.953,150.129,56.962,149.997,56.885z"/>
		<path fill="#771818" d="M152.565,58.369l-1.663-0.96c-0.133-0.077-0.117-0.213,0.037-0.3l1.649-0.951
			c0.155-0.089,0.388-0.098,0.522-0.021l1.663,0.959c0.133,0.077,0.116,0.213-0.038,0.301l-1.648,0.951
			C152.933,58.437,152.698,58.445,152.565,58.369z"/>
		<path fill="#771818" d="M155.135,59.853l-1.664-0.96c-0.133-0.076-0.116-0.213,0.039-0.3l1.648-0.951
			c0.154-0.089,0.387-0.099,0.521-0.021l1.664,0.96c0.133,0.076,0.116,0.213-0.038,0.3l-1.649,0.951
			C155.502,59.92,155.27,59.93,155.135,59.853z"/>
		<path fill="#771818" d="M157.703,61.334l-1.663-0.959c-0.133-0.076-0.116-0.213,0.038-0.301l1.648-0.951
			c0.155-0.088,0.389-0.098,0.522-0.021l1.663,0.961c0.133,0.076,0.117,0.212-0.037,0.299l-1.649,0.951
			C158.07,61.404,157.838,61.412,157.703,61.334z"/>
		<path fill="#771818" d="M160.273,62.818l-1.664-0.96c-0.133-0.077-0.117-0.213,0.038-0.3l1.649-0.951
			c0.154-0.09,0.387-0.098,0.521-0.021l1.664,0.959c0.133,0.077,0.115,0.213-0.039,0.301l-1.648,0.951
			C160.641,62.885,160.407,62.896,160.273,62.818z"/>
		<path fill="#771818" d="M162.842,64.302l-1.664-0.96c-0.133-0.076-0.115-0.213,0.039-0.3l1.648-0.951
			c0.154-0.089,0.388-0.099,0.521-0.021l1.664,0.96c0.133,0.076,0.117,0.213-0.038,0.3l-1.649,0.95
			C163.209,64.369,162.977,64.378,162.842,64.302z"/>
		<path fill="#771818" d="M167.409,66.938l-3.63-2.096c-0.132-0.076-0.115-0.213,0.039-0.3l1.648-0.951
			c0.155-0.089,0.388-0.099,0.522-0.021l3.629,2.097c0.133,0.076,0.116,0.212-0.038,0.299l-1.649,0.951
			C167.776,67.008,167.543,67.017,167.409,66.938z"/>
		<path fill="#771818" d="M172.411,64.051l-3.063-1.77c-0.133-0.076-0.117-0.212,0.037-0.299l1.65-0.951
			c0.154-0.09,0.387-0.099,0.521-0.021l3.063,1.769c0.133,0.076,0.116,0.212-0.038,0.3l-1.649,0.951
			C172.778,64.118,172.545,64.129,172.411,64.051z"/>
		<path fill="#771818" d="M146.787,52.146l-1.664-0.96c-0.133-0.076-0.116-0.213,0.038-0.301l1.649-0.95
			c0.154-0.089,0.387-0.098,0.521-0.022l1.664,0.96c0.132,0.076,0.116,0.213-0.039,0.3l-1.649,0.95
			C147.155,52.213,146.922,52.222,146.787,52.146z"/>
		<path fill="#771818" d="M144.155,50.625l-1.664-0.959c-0.132-0.077-0.116-0.211,0.039-0.3l1.649-0.951
			c0.154-0.089,0.387-0.098,0.522-0.022l1.664,0.96c0.133,0.077,0.116,0.213-0.038,0.3l-1.649,0.951
			C144.522,50.693,144.289,50.701,144.155,50.625z"/>
		<path fill="#A83939" d="M141.522,49.105l-1.664-0.96c-0.133-0.076-0.117-0.213,0.038-0.3l1.649-0.951
			c0.155-0.089,0.387-0.098,0.522-0.022l1.664,0.96c0.133,0.077,0.116,0.213-0.038,0.3l-1.649,0.951
			C141.889,49.173,141.655,49.182,141.522,49.105z"/>
		<path fill="#771818" d="M138.889,47.583l-1.664-0.96c-0.133-0.076-0.117-0.212,0.038-0.3l1.649-0.951
			c0.155-0.089,0.387-0.098,0.522-0.021l1.664,0.96c0.133,0.076,0.116,0.212-0.038,0.3l-1.649,0.951
			C139.254,47.651,139.022,47.662,138.889,47.583z"/>
		<path fill="#771818" d="M149.356,53.629l-1.664-0.96c-0.133-0.076-0.117-0.212,0.038-0.3l1.649-0.951
			c0.155-0.089,0.387-0.098,0.522-0.021l1.664,0.96c0.133,0.076,0.116,0.213-0.038,0.3l-1.649,0.951
			C149.724,53.696,149.491,53.705,149.356,53.629z"/>
		<path fill="#771818" d="M151.926,55.111l-1.664-0.961c-0.133-0.076-0.116-0.213,0.038-0.299l1.649-0.951
			c0.154-0.09,0.387-0.099,0.521-0.022l1.664,0.96c0.133,0.076,0.116,0.213-0.039,0.301l-1.648,0.95
			C152.293,55.18,152.061,55.189,151.926,55.111z"/>
		<path fill="#771818" d="M154.496,56.595l-1.664-0.96c-0.132-0.076-0.115-0.213,0.039-0.301l1.648-0.95
			c0.154-0.089,0.388-0.099,0.522-0.022l1.663,0.961c0.133,0.076,0.117,0.213-0.037,0.3l-1.65,0.95
			C154.861,56.662,154.629,56.673,154.496,56.595z"/>
		<path fill="#771818" d="M157.065,58.078l-1.663-0.96c-0.133-0.076-0.117-0.213,0.037-0.3l1.649-0.951
			c0.155-0.089,0.388-0.098,0.522-0.021l1.663,0.96c0.133,0.076,0.116,0.212-0.038,0.3l-1.648,0.951
			C157.431,58.146,157.198,58.156,157.065,58.078z"/>
		<path fill="#771818" d="M159.635,59.563l-1.664-0.961c-0.133-0.076-0.116-0.213,0.039-0.3l1.648-0.95
			c0.154-0.09,0.387-0.099,0.521-0.022l1.664,0.96c0.133,0.076,0.116,0.213-0.038,0.3l-1.649,0.951
			C160,59.629,159.768,59.639,159.635,59.563z"/>
		<path fill="#771818" d="M162.203,61.045l-1.663-0.959c-0.133-0.076-0.116-0.213,0.038-0.301l1.648-0.951
			c0.155-0.088,0.389-0.098,0.522-0.021l1.663,0.961c0.133,0.076,0.117,0.212-0.037,0.299l-1.649,0.951
			C162.57,61.113,162.336,61.122,162.203,61.045z"/>
		<path fill="#771818" d="M164.773,62.529l-1.664-0.96c-0.133-0.077-0.117-0.213,0.038-0.3l1.649-0.951
			c0.154-0.09,0.387-0.098,0.521-0.021l1.664,0.959c0.133,0.076,0.115,0.213-0.039,0.301l-1.648,0.951
			C165.141,62.596,164.905,62.605,164.773,62.529z"/>
		<path fill="#771818" d="M167.342,64.011l-1.664-0.96c-0.133-0.076-0.115-0.211,0.039-0.3l1.648-0.951
			c0.154-0.089,0.388-0.099,0.521-0.021l1.664,0.96c0.133,0.076,0.117,0.213-0.038,0.3l-1.649,0.951
			C167.709,64.08,167.475,64.089,167.342,64.011z"/>
		<path fill="#771818" d="M169.911,65.494l-1.664-0.959c-0.132-0.077-0.116-0.213,0.038-0.301l1.649-0.951
			c0.154-0.089,0.388-0.098,0.522-0.021l1.663,0.96c0.133,0.077,0.116,0.213-0.038,0.3l-1.649,0.951
			C170.278,65.563,170.043,65.572,169.911,65.494z"/>
		<path fill="#771818" d="M145.435,48.477l-1.664-0.96c-0.133-0.077-0.116-0.213,0.038-0.3l1.649-0.951
			c0.155-0.089,0.388-0.098,0.522-0.022l1.664,0.96c0.133,0.076,0.116,0.213-0.038,0.3l-1.649,0.951
			C145.802,48.543,145.569,48.553,145.435,48.477z"/>
		<path fill="#771818" d="M142.878,47l-1.664-0.96c-0.132-0.076-0.116-0.213,0.039-0.3l1.649-0.951
			c0.154-0.089,0.387-0.098,0.522-0.022l1.664,0.96c0.133,0.077,0.116,0.213-0.038,0.3l-1.649,0.951
			C143.246,47.067,143.013,47.078,142.878,47z"/>
		<path fill="#771818" d="M140.322,45.523l-1.664-0.96c-0.133-0.076-0.116-0.212,0.038-0.3l1.649-0.951
			c0.154-0.089,0.387-0.098,0.521-0.021l1.664,0.96c0.133,0.076,0.117,0.213-0.038,0.3l-1.649,0.951
			C140.689,45.591,140.457,45.602,140.322,45.523z"/>
		<path fill="#771818" d="M137.766,44.049l-1.664-0.96c-0.133-0.076-0.117-0.212,0.038-0.3l1.649-0.951
			c0.155-0.089,0.387-0.098,0.522-0.022l1.664,0.96c0.133,0.076,0.116,0.213-0.038,0.3l-1.649,0.951
			C138.133,44.116,137.9,44.125,137.766,44.049z"/>
		<path fill="#771818" d="M140.395,42.531l-1.664-0.96c-0.133-0.076-0.116-0.212,0.038-0.3l0.545-0.314
			c0.155-0.089,0.387-0.098,0.522-0.022l1.664,0.96c0.133,0.076,0.116,0.213-0.038,0.3l-0.545,0.315
			C140.762,42.598,140.527,42.607,140.395,42.531z"/>
		<path fill="#771818" d="M143.731,44.457l-1.664-0.96c-0.133-0.077-0.117-0.213,0.038-0.3l0.545-0.314
			c0.155-0.089,0.387-0.098,0.522-0.022l1.664,0.96c0.133,0.077,0.116,0.213-0.038,0.3l-0.545,0.314
			C144.098,44.523,143.864,44.535,143.731,44.457z"/>
		<path fill="#771818" d="M146.276,45.927l-1.664-0.96c-0.133-0.076-0.116-0.213,0.038-0.3l0.545-0.315
			c0.155-0.089,0.387-0.098,0.522-0.021l1.664,0.96c0.133,0.076,0.116,0.212-0.038,0.3l-0.545,0.314
			C146.644,45.995,146.411,46.003,146.276,45.927z"/>
		<path fill="#771818" d="M148.822,47.396l-1.664-0.96c-0.133-0.077-0.116-0.213,0.038-0.3l0.545-0.314
			c0.155-0.089,0.387-0.098,0.522-0.022l1.664,0.96c0.133,0.077,0.116,0.213-0.038,0.3l-0.545,0.314
			C149.189,47.464,148.957,47.473,148.822,47.396z"/>
		<path fill="#771818" d="M151.367,48.865l-1.664-0.96c-0.133-0.076-0.116-0.212,0.038-0.3l0.545-0.314
			c0.155-0.089,0.387-0.098,0.521-0.022l1.664,0.96c0.133,0.077,0.116,0.213-0.038,0.3l-0.546,0.314
			C151.734,48.933,151.502,48.944,151.367,48.865z"/>
		<path fill="#771818" d="M165.58,57.07l-1.664-0.959c-0.133-0.076-0.116-0.213,0.039-0.301l0.545-0.314
			c0.154-0.089,0.387-0.098,0.521-0.021l1.664,0.96c0.133,0.076,0.116,0.213-0.038,0.3l-0.546,0.314
			C165.947,57.141,165.715,57.148,165.58,57.07z"/>
		<path fill="#771818" d="M168.127,58.542l-1.663-0.96c-0.133-0.076-0.116-0.213,0.038-0.301l0.545-0.314
			c0.154-0.089,0.388-0.098,0.522-0.021l1.663,0.96c0.133,0.077,0.117,0.213-0.038,0.3l-0.546,0.314
			C168.492,58.609,168.26,58.618,168.127,58.542z"/>
		<path fill="#771818" d="M170.673,60.011l-1.663-0.96c-0.133-0.076-0.117-0.213,0.037-0.3l0.546-0.314
			c0.154-0.089,0.388-0.099,0.522-0.022l1.663,0.961c0.133,0.076,0.116,0.213-0.038,0.3l-0.546,0.314
			C171.038,60.078,170.806,60.089,170.673,60.011z"/>
		<path fill="#771818" d="M173.219,61.482l-1.664-0.961c-0.133-0.076-0.117-0.213,0.038-0.3l0.546-0.314
			c0.154-0.089,0.387-0.099,0.521-0.022l1.664,0.961c0.133,0.076,0.115,0.213-0.039,0.3l-0.545,0.314
			C173.586,61.549,173.352,61.559,173.219,61.482z"/>
		<path fill="#771818" d="M148.003,49.96L146.34,49c-0.133-0.076-0.116-0.213,0.039-0.3l1.649-0.951
			c0.154-0.089,0.387-0.098,0.522-0.022l1.664,0.96c0.133,0.076,0.116,0.212-0.039,0.3l-1.649,0.951
			C148.371,50.027,148.138,50.036,148.003,49.96z"/>
		<path fill="#771818" d="M150.572,51.443l-1.663-0.96c-0.133-0.076-0.116-0.212,0.038-0.3l1.648-0.951
			c0.155-0.089,0.388-0.098,0.522-0.022l1.663,0.96c0.133,0.076,0.117,0.213-0.037,0.3l-1.649,0.951
			C150.939,51.511,150.707,51.52,150.572,51.443z"/>
		<path fill="#771818" d="M153.142,52.926l-1.663-0.961c-0.133-0.076-0.117-0.212,0.038-0.299l1.649-0.951
			c0.154-0.09,0.387-0.099,0.521-0.021l1.664,0.959c0.132,0.076,0.115,0.213-0.039,0.301l-1.648,0.951
			C153.51,52.992,153.276,53.004,153.142,52.926z"/>
		<path fill="#771818" d="M155.713,54.409l-1.664-0.96c-0.133-0.076-0.116-0.213,0.039-0.301l1.648-0.95
			c0.154-0.089,0.387-0.099,0.521-0.022l1.664,0.961c0.133,0.076,0.116,0.213-0.038,0.3l-1.649,0.95
			C156.078,54.477,155.846,54.487,155.713,54.409z"/>
		<path fill="#771818" d="M158.281,55.893l-1.663-0.96c-0.133-0.076-0.116-0.212,0.038-0.3l1.649-0.951
			c0.154-0.089,0.388-0.098,0.521-0.021l1.663,0.96c0.133,0.076,0.117,0.212-0.037,0.3l-1.649,0.951
			C158.647,55.96,158.414,55.969,158.281,55.893z"/>
		<path fill="#771818" d="M160.852,57.377l-1.664-0.961c-0.133-0.076-0.117-0.213,0.038-0.3l1.649-0.95
			c0.154-0.09,0.387-0.099,0.521-0.022l1.664,0.96c0.133,0.076,0.115,0.213-0.039,0.301l-1.648,0.95
			C161.217,57.443,160.983,57.453,160.852,57.377z"/>
		<path fill="#771818" d="M163.42,58.859l-1.664-0.959c-0.133-0.076-0.115-0.213,0.039-0.301l1.648-0.951
			c0.154-0.088,0.388-0.098,0.521-0.021l1.664,0.961c0.133,0.076,0.117,0.212-0.038,0.299l-1.649,0.951
			C163.787,58.928,163.553,58.937,163.42,58.859z"/>
		<path fill="#771818" d="M165.989,60.344l-1.663-0.96c-0.133-0.077-0.117-0.213,0.037-0.3l1.649-0.951
			c0.155-0.09,0.388-0.098,0.522-0.021l1.663,0.959c0.133,0.077,0.116,0.213-0.038,0.301l-1.649,0.951
			C166.356,60.411,166.122,60.42,165.989,60.344z"/>
		<path fill="#771818" d="M168.559,61.826l-1.664-0.961c-0.133-0.076-0.116-0.213,0.038-0.3l1.649-0.95
			c0.154-0.09,0.387-0.099,0.521-0.022l1.664,0.96c0.133,0.076,0.116,0.213-0.039,0.3l-1.648,0.951
			C168.926,61.893,168.691,61.904,168.559,61.826z"/>
		<path fill="#771818" d="M133.316,50.142l-4.9-2.829c-0.133-0.076-0.117-0.212,0.038-0.3l1.649-0.951
			c0.155-0.089,0.387-0.098,0.522-0.022l4.9,2.829c0.133,0.076,0.116,0.213-0.038,0.3l-1.649,0.951
			C133.682,50.211,133.449,50.22,133.316,50.142z"/>
		<path fill="#771818" d="M164.879,68.365l-4.9-2.829c-0.133-0.076-0.117-0.212,0.038-0.3l1.649-0.951
			c0.154-0.089,0.387-0.098,0.521-0.021l4.898,2.827c0.133,0.077,0.115,0.213-0.039,0.3l-1.648,0.951
			C165.246,68.433,165.013,68.443,164.879,68.365z"/>
		<path fill="#771818" d="M154.604,65.711l-1.664-0.96c-0.133-0.076-0.115-0.213,0.039-0.3l1.963-1.135
			c0.154-0.089,0.388-0.098,0.522-0.021l1.663,0.959c0.133,0.077,0.117,0.213-0.038,0.301l-1.964,1.135
			C154.971,65.778,154.738,65.787,154.604,65.711z"/>
		<path fill="#771818" d="M135.947,54.938l-2.66-1.535c-0.132-0.077-0.116-0.213,0.039-0.301l1.963-1.135
			c0.155-0.089,0.387-0.098,0.522-0.021l2.66,1.537c0.133,0.076,0.117,0.212-0.038,0.299l-1.963,1.135
			C136.313,55.006,136.08,55.015,135.947,54.938z"/>
		<path fill="#771818" d="M152.129,64.281l-2.66-1.535c-0.133-0.077-0.117-0.211,0.038-0.301l1.963-1.135
			c0.154-0.089,0.388-0.098,0.521-0.021l2.66,1.537c0.133,0.076,0.117,0.212-0.037,0.299l-1.965,1.135
			C152.496,64.35,152.262,64.358,152.129,64.281z"/>
		<path fill="#771818" d="M139.653,57.078l-2.66-1.536c-0.133-0.077-0.116-0.213,0.038-0.3l1.964-1.135
			c0.154-0.09,0.387-0.098,0.522-0.021l2.66,1.536c0.133,0.076,0.117,0.212-0.038,0.3l-1.964,1.135
			C140.02,57.146,139.787,57.154,139.653,57.078z"/>
		<path fill="#771818" d="M139.533,54.096l11.567,6.679c0.145,0.084,0.145,0.216,0,0.3l-2.001,1.156
			c-0.144,0.084-0.376,0.084-0.52,0l-11.567-6.678L139.533,54.096z"/>
		<path fill="#771818" d="M161.785,68.4l1.854,1.068c0.108,0.064,0.096,0.175-0.031,0.248l-0.804,0.463
			c-0.128,0.073-0.318,0.082-0.427,0.019l-1.854-1.069c-0.109-0.063-0.096-0.174,0.031-0.247l0.804-0.464
			C161.483,68.344,161.674,68.336,161.785,68.4z"/>
		<path fill="#771818" d="M159.194,66.904l1.853,1.068c0.109,0.063,0.097,0.173-0.03,0.248l-0.804,0.463
			c-0.127,0.072-0.318,0.082-0.428,0.018l-1.853-1.068c-0.108-0.063-0.097-0.175,0.031-0.248l0.804-0.463
			C158.895,66.85,159.086,66.84,159.194,66.904z"/>
		<path fill="#771818" d="M156.625,65.42l1.854,1.069c0.109,0.063,0.096,0.173-0.031,0.247l-0.804,0.464
			c-0.127,0.072-0.317,0.081-0.427,0.019l-1.854-1.07c-0.109-0.063-0.096-0.172,0.031-0.246l0.804-0.465
			C156.324,65.365,156.517,65.358,156.625,65.42z"/>
		<path fill="#771818" d="M160.613,66.086l1.852,1.068c0.109,0.064,0.098,0.173-0.03,0.248l-0.804,0.463
			c-0.127,0.072-0.318,0.082-0.428,0.019l-1.852-1.069c-0.109-0.063-0.098-0.173,0.03-0.247l0.804-0.464
			C160.313,66.029,160.504,66.021,160.613,66.086z"/>
	</g>
</g>
<path fill="#E6573F" d="M181.637,27.147l-11.915-6.878l-10.751-4.687l-2.055,8.594c0,0-2.924,10.573,7.221,22.987
	c12.898,0.889,15.125-10.087,15.125-10.087L181.637,27.147z"/>
<g>
	<polygon fill="#771818" points="178.574,25.38 181.637,27.147 183.033,26.664 178.846,24.247 158.971,15.583 158.611,17.089 	"/>
	<polygon fill="#A83939" points="181.637,27.147 178.574,25.38 178.256,26.713 181.318,28.478 	"/>
</g>
<g>
	<g opacity="0.5">
		<path fill="#D4ECFF" d="M156.174,20.647l-2.232-1.289c-0.207-0.12-0.328-0.417-0.272-0.662l0,0
			c0.057-0.246,0.271-0.347,0.479-0.227l2.232,1.289c0.208,0.12,0.329,0.417,0.272,0.662l0,0
			C156.596,20.664,156.382,20.766,156.174,20.647z"/>
		<path fill="#D4ECFF" d="M161.494,23.718l-3.293-1.902c-0.207-0.12-0.328-0.417-0.271-0.662l0,0
			c0.056-0.245,0.271-0.347,0.478-0.227l3.293,1.902c0.207,0.12,0.329,0.417,0.272,0.662l0,0
			C161.916,23.736,161.701,23.838,161.494,23.718z"/>
		<path fill="#E6573F" d="M152.281,31.071l-2.232-1.289c-0.208-0.12-0.329-0.417-0.273-0.662l0,0
			c0.056-0.246,0.271-0.347,0.478-0.228l2.233,1.289c0.207,0.12,0.329,0.417,0.272,0.662l0,0
			C152.703,31.089,152.489,31.191,152.281,31.071z"/>
		<path fill="#D4ECFF" d="M157.023,33.809l-3.293-1.902c-0.207-0.12-0.328-0.417-0.272-0.662l0,0
			c0.057-0.246,0.271-0.347,0.479-0.228l3.292,1.902c0.208,0.12,0.33,0.417,0.273,0.662l0,0
			C157.445,33.827,157.23,33.929,157.023,33.809z"/>
		<path fill="#E6573F" d="M149.587,18.955l-1.395-0.806c-0.208-0.12-0.329-0.416-0.273-0.662l0,0
			c0.057-0.246,0.271-0.347,0.478-0.228l1.395,0.806c0.207,0.12,0.329,0.417,0.272,0.662l0,0
			C150.007,18.973,149.794,19.075,149.587,18.955z"/>
		<path fill="#E6573F" d="M153.887,23.549l-4.263-2.462c-0.207-0.12-0.329-0.417-0.272-0.662l0,0
			c0.056-0.245,0.271-0.347,0.478-0.227l4.264,2.462c0.207,0.12,0.329,0.416,0.272,0.662l0,0
			C154.307,23.567,154.095,23.669,153.887,23.549z"/>
		<path fill="#E6573F" d="M150.158,25.622l-1.395-0.806c-0.208-0.12-0.329-0.417-0.273-0.662l0,0
			c0.057-0.245,0.271-0.347,0.479-0.227l1.395,0.806c0.207,0.12,0.33,0.416,0.273,0.662l0,0
			C150.58,25.638,150.365,25.742,150.158,25.622z"/>
		<path fill="#E6573F" d="M157.742,38.449l-3.728-2.151c-0.208-0.12-0.329-0.417-0.272-0.662l0,0
			c0.057-0.245,0.271-0.347,0.479-0.227l3.727,2.151c0.207,0.12,0.329,0.417,0.273,0.662l0,0
			C158.164,38.465,157.949,38.569,157.742,38.449z"/>
		<path fill="#E6573F" d="M148.798,29.06l-0.896-0.517c-0.208-0.12-0.329-0.416-0.273-0.662l0,0
			c0.057-0.246,0.271-0.347,0.479-0.228l0.896,0.517c0.208,0.12,0.329,0.417,0.273,0.662l0,0
			C149.22,29.078,149.005,29.18,148.798,29.06z"/>
		<path fill="#E6573F" d="M148.155,32.913l-1.113-0.642c-0.208-0.12-0.329-0.417-0.273-0.662l0,0
			c0.057-0.245,0.271-0.347,0.478-0.227l1.113,0.642c0.208,0.12,0.329,0.417,0.273,0.662l0,0
			C148.576,32.931,148.362,33.033,148.155,32.913z"/>
		<path fill="#E6573F" d="M152.482,35.411l-2.933-1.693c-0.208-0.12-0.329-0.417-0.273-0.662l0,0
			c0.056-0.245,0.271-0.347,0.478-0.227l2.933,1.693c0.207,0.12,0.329,0.416,0.272,0.662l0,0
			C152.902,35.429,152.689,35.531,152.482,35.411z"/>
		<path fill="#E6573F" d="M148.72,35.353l-2.109-1.216c-0.207-0.12-0.329-0.416-0.272-0.662l0,0
			c0.056-0.246,0.271-0.347,0.478-0.228l2.109,1.217c0.208,0.12,0.329,0.416,0.273,0.662l0,0
			C149.142,35.369,148.927,35.471,148.72,35.353z"/>
		<path fill="#D4ECFF" d="M160.939,40.304l-1.354-0.782c-0.207-0.12-0.33-0.417-0.273-0.662l0,0
			c0.057-0.245,0.271-0.347,0.479-0.227l1.354,0.782c0.207,0.12,0.329,0.417,0.272,0.662l0,0
			C161.359,40.322,161.147,40.424,160.939,40.304z"/>
		<path fill="#E6573F" d="M155.35,28.618l-3.728-2.151c-0.208-0.12-0.329-0.417-0.272-0.662l0,0
			c0.056-0.246,0.271-0.348,0.478-0.228l3.728,2.151c0.207,0.12,0.329,0.417,0.272,0.662l0,0
			C155.77,28.635,155.557,28.738,155.35,28.618z"/>
	</g>
	<path fill="#E6573F" d="M155.689,26.702l-6.495-3.749c-0.207-0.12-0.329-0.417-0.272-0.662l0,0
		c0.056-0.246,0.271-0.347,0.478-0.228l6.495,3.749c0.207,0.12,0.329,0.417,0.273,0.662l0,0
		C156.109,26.72,155.896,26.822,155.689,26.702z"/>
	<path fill="#E6573F" d="M152.061,28.831l-3.728-2.151c-0.207-0.12-0.329-0.417-0.272-0.662l0,0
		c0.056-0.245,0.271-0.347,0.478-0.227l3.728,2.151c0.207,0.12,0.329,0.417,0.272,0.662l0,0
		C152.48,28.849,152.268,28.951,152.061,28.831z"/>
	<path fill="#D4ECFF" d="M158.174,30.249l-1.354-0.782c-0.207-0.12-0.33-0.417-0.273-0.662l0,0c0.057-0.246,0.271-0.348,0.479-0.228
		l1.354,0.782c0.208,0.12,0.329,0.417,0.272,0.662l0,0C158.596,30.267,158.382,30.369,158.174,30.249z"/>
	<path fill="#D4ECFF" d="M171.54,29.518l-8.019-4.629c-0.207-0.12-0.328-0.417-0.272-0.662l0,0c0.057-0.245,0.271-0.347,0.478-0.227
		l8.02,4.629c0.207,0.12,0.328,0.417,0.271,0.662l0,0C171.962,29.535,171.747,29.636,171.54,29.518z"/>
	<path fill="#E6573F" d="M151.953,32.993l-4.48-2.585c-0.207-0.12-0.329-0.417-0.272-0.662l0,0c0.056-0.246,0.271-0.347,0.478-0.228
		l4.48,2.585c0.207,0.12,0.329,0.417,0.272,0.662l0,0C152.373,33.011,152.16,33.113,151.953,32.993z"/>
	<path fill="#E6573F" d="M151.914,18.188l-3.292-1.902c-0.207-0.12-0.329-0.417-0.272-0.662l0,0
		c0.056-0.246,0.271-0.347,0.478-0.227l3.293,1.902c0.207,0.12,0.329,0.416,0.272,0.662l0,0
		C152.336,18.204,152.122,18.306,151.914,18.188z"/>
	<path fill="#E6573F" d="M148.133,37.125l-3.814-2.202c-0.208-0.12-0.329-0.417-0.273-0.662l0,0
		c0.057-0.245,0.271-0.347,0.478-0.227l3.815,2.202c0.207,0.12,0.329,0.417,0.272,0.662l0,0
		C148.555,37.144,148.34,37.246,148.133,37.125z"/>
</g>
<g>
	<path fill="#771818" d="M174.115,13.802c-3.115-2.236-6.348-4.102-9.645-5.569l-6.533-2.904l-2.092,0.814
		c0,0,0.918,0.491,1.684,0.902l-3.102,12.978c0,0-2.924,10.573,7.22,22.987c1.947,0.135,3.649-0.003,5.138-0.331
		c-0.031,0.122-0.051,0.205-0.051,0.205l1.884-0.736c0.175-0.063,0.347-0.131,0.515-0.202l0.04-0.017h-0.002
		c6.312-2.644,7.603-9.007,7.603-9.007l3.51-14.695L174.115,13.802z"/>
	<path fill="#992222" d="M164.471,8.233l-6.533-2.904l-2.092,0.814c0,0,0.918,0.491,1.684,0.902l-1.125,4.709l11.645,7.573
		l10.145-0.282l2.092-0.814l-6.169-4.429C171.002,11.565,167.77,9.698,164.471,8.233z"/>
	<path fill="#BC3B3B" d="M167.551,11.707l2.105-0.803c-1.705-0.999-3.436-1.893-5.186-2.671l-6.533-2.904l-2.092,0.814
		c0,0,0.918,0.491,1.684,0.902l-0.067,0.278C161.536,9.109,167.551,11.707,167.551,11.707z"/>
	<path fill="#B52D2D" d="M167.996,9.967l-3.922,1.469l3.285,1.896l3.894-1.458C170.178,11.196,169.093,10.558,167.996,9.967z"/>
	<path fill="#A83939" d="M174.678,33.74l3.512-14.695l-6.17-4.429c-3.114-2.236-6.347-4.102-9.645-5.569l-6.533-2.904l-3.511,14.695
		c0,0-2.924,10.573,7.22,22.987C172.453,44.716,174.678,33.74,174.678,33.74z"/>
	<path fill="#771818" d="M160.373,42.229c-4.584-5.818-6.115-11.116-6.584-14.58c-0.525-3.871,0.12-6.356,0.123-6.375l3.07-12.834
		l4.73,2.105c3.189,1.418,6.338,3.236,9.354,5.402l5.274,3.787l-3.256,13.625l-0.014,0.055c-0.005,0.023-0.527,2.407-2.383,4.66
		C168.291,40.985,164.822,42.382,160.373,42.229z"/>
</g>
<g>
	<path fill="#DD3E3E" d="M164.299,26.293c-0.104,0.314,0.033,0.698,0.309,0.856c0.272,0.158,0.578,0.029,0.68-0.285
		c0.104-0.314-0.034-0.698-0.309-0.856C164.705,25.849,164.4,25.978,164.299,26.293z"/>
	<path fill="#DD3E3E" d="M162.707,25.375c-0.104,0.314,0.035,0.698,0.31,0.856c0.272,0.158,0.578,0.029,0.68-0.286
		c0.104-0.314-0.034-0.698-0.31-0.856C163.115,24.931,162.809,25.06,162.707,25.375z"/>
	<path fill="#DD3E3E" d="M161.116,24.457c-0.104,0.314,0.034,0.698,0.31,0.856c0.272,0.158,0.578,0.029,0.68-0.285
		c0.104-0.314-0.035-0.698-0.309-0.856S161.219,24.14,161.116,24.457z"/>
</g>
<g>
	<path fill="#E6573F" d="M176.804,51.951c-0.104,0.314,0.034,0.697,0.31,0.855c0.273,0.158,0.578,0.029,0.68-0.285
		c0.104-0.314-0.035-0.697-0.31-0.855C177.211,51.508,176.905,51.637,176.804,51.951z"/>
	<path fill="#E6573F" d="M175.213,51.033c-0.104,0.314,0.034,0.697,0.309,0.855c0.273,0.158,0.578,0.029,0.68-0.285
		c0.104-0.314-0.033-0.698-0.309-0.856C175.618,50.589,175.314,50.717,175.213,51.033z"/>
	<path fill="#E6573F" d="M173.622,50.115c-0.104,0.314,0.034,0.698,0.31,0.856c0.271,0.158,0.578,0.029,0.68-0.285
		c0.104-0.314-0.035-0.698-0.31-0.856C174.029,49.671,173.724,49.798,173.622,50.115z"/>
</g>
<ellipse opacity="0.5" fill="#E5C3C3" enable-background="new    " cx="107.553" cy="81.869" rx="4.376" ry="2.527"/>
<g>
	<path fill="#012C4F" d="M104.911,51.021c0,0,0.116,2.264,0.3,3.785c0.184,1.522,4.076-1.168,4.076-1.168v-1.733L104.911,51.021z"/>
	<g>
		<path fill="#771818" d="M106.985,79.196c0.058,0.138,1.067,1.294,2.077,1.583c0.438,0.126,0.734,0.143,0.927,0.121
			c0.194-0.022,0.314-0.209,0.249-0.384c-0.173-0.46-0.671-1.419-1.937-2.009C106.591,77.709,106.985,79.196,106.985,79.196z"/>
		<path fill="#771818" d="M106.649,79.641c0,0,0.38,0.84,0.497,1.541c0.071,0.428-0.178,0.984-0.384,1.354
			c-0.127,0.229-0.451,0.279-0.654,0.106c-0.329-0.282-0.749-0.771-0.818-1.473c-0.116-1.184,0-1.391,0-1.391L106.649,79.641z"/>
		<path fill="#E6573F" d="M104.218,65.334c0,0-0.131,1.493,0,3.146c0.131,1.65,0.602,9.374,0.691,11.232
			c0,0-0.044,0.562,1.113,0.438c1.156-0.123,1.063-0.748,1.063-0.748s1.625-0.021,1.676-0.922
			c0.051-0.902,1.664-10.766,1.664-14.312L104.218,65.334z"/>
		<g>
			<path fill="#FFC2B0" d="M111.027,57.615l0.796,1.159l2.736,3.11c0,0-0.095,0.29-0.435,0.364
				c-0.266,0.058-2.567-2.007-3.562-2.915c-0.264-0.241-0.307-0.623-0.105-0.912L111.027,57.615z"/>
			<path fill="#8C2A2A" d="M109.475,52.852c0,0,1.266-0.031,1.706,1.688s0.785,3.874,0.402,4.053
				c-1.149,0.538-1.876-0.091-1.876-0.091L109.475,52.852z"/>
			<path fill="#A83939" d="M109.853,52.924c-0.216-0.086-0.458-0.097-0.682-0.035c-1.078,0.291-5.129,1.411-5.796,1.947
				c-0.771,0.621,1.156,4.107,1.129,5.252c-0.027,1.143-0.165,2.49-0.272,3.734c-0.107,1.243-0.253,1.924,0.827,2.452
				c1.08,0.529,2.924,0.553,4.306-0.437c1.38-0.99,1.131-1.667,1.073-2.385c-0.058-0.719-0.527-3.828-0.487-4.709
				c0,0,0.487-0.337,0.847-0.917c0.36-0.578-0.276-1.642-0.54-2.333c-0.264-0.69,0.149-1.481,0.067-2.045
				C110.28,53.156,110.083,53.015,109.853,52.924z"/>
			<path fill="#FFFFFF" d="M108.558,54.113c0.085,0.627-0.527,1.219-1.367,1.319c-0.84,0.103-1.591-0.325-1.676-0.954
				c-0.085-0.627,0.527-1.221,1.367-1.32C107.722,53.057,108.473,53.483,108.558,54.113z"/>
			<path fill="#FFC2B0" d="M108.124,54.166c0.062,0.449-0.376,0.87-0.976,0.943c-0.6,0.072-1.138-0.232-1.198-0.682
				c-0.062-0.449,0.376-0.871,0.976-0.944C107.525,53.411,108.063,53.717,108.124,54.166z"/>
			<path fill="#FFC2B0" d="M107.527,52.691c0,0-0.731-0.566-0.875-0.28c-0.144,0.285-0.262,1.517-0.262,1.517l1.453,0.367
				l-0.22-1.248C107.622,53.049,107.913,52.816,107.527,52.691z"/>
			<path fill="#FFC2B0" d="M109.796,51.342c-0.071,1.125-1.096,1.984-2.293,1.916c-1.196-0.066-2.107-1.032-2.036-2.158
				c0.071-1.125,1.096-1.983,2.292-1.916C108.955,49.251,109.867,50.218,109.796,51.342z"/>
			<path fill="#EA9C92" d="M106.551,52.768c-0.013,0.063-0.025,0.133-0.036,0.203c0.146,0.711,1.274,1.02,1.274,1.02l-0.167-0.943
				c0,0,0.137-0.109,0.099-0.218C107.273,52.698,106.711,52.58,106.551,52.768z"/>
			<path fill="#FFC2B0" d="M109.796,51.342c-0.071,1.125-1.096,1.984-2.293,1.916c-1.196-0.066-2.107-1.032-2.036-2.158
				c0.071-1.125,1.096-1.983,2.292-1.916C108.955,49.251,109.867,50.218,109.796,51.342z"/>
			<polygon fill="#FFC2B0" points="102.289,59.861 102.533,65.322 103.38,65.405 103.933,60.489 			"/>
			<path fill="#8C2A2A" d="M105.076,59.405c-0.28-1.165-0.834-3.743-0.834-3.743l-0.236,2.563c0.273,0.76,0.509,1.458,0.498,1.862
				c-0.016,0.67-0.071,1.412-0.134,2.161v0.002C104.369,62.251,105.358,60.57,105.076,59.405z"/>
			<path fill="#A83939" d="M103.536,54.724c0,0-0.678,0.243-1.062,2.206c-0.384,1.961-0.671,3.925,0.013,4.178
				c0.684,0.252,1.256,0.443,1.458-0.082c0.202-0.525,0.326-3.053,0.351-3.96C104.322,56.156,104.358,54.904,103.536,54.724z"/>
			<path fill="#FFC2B0" d="M114.358,61.658c0,0,0.367,0.127,0.632,0.4c0.218,0.223,0.336,0.412,0.433,0.547
				c0.211,0.297,0.389,0.938,0.26,1.018s-0.865-1.074-0.985-0.805c-0.118,0.27,0.002,0.516-0.151,0.52s-0.682-1.16-1.098-1.52
				C113.033,61.457,114.358,61.658,114.358,61.658z"/>
		</g>
		<path fill="#F79A9A" d="M107.085,79.402c0,0,0.202-0.004,0.464-0.046l0,0l0.318-12.005L107.085,79.402z"/>
	</g>
	<path fill="#FFC2B0" d="M102.538,65.276c0,0-0.224,1.274-0.191,1.684c0.035,0.409,0.266,1.082,0.442,1.067s0.005-1.643,0.314-1.48
		s0.342,0.44,0.482,0.342c0.14-0.098-0.244-1.488-0.142-2.092C103.549,64.193,102.538,65.276,102.538,65.276z"/>
	<path fill="#EA9C92" d="M108.465,51.4c1.087,0.363,1.3,0.142,1.309,0.129c0.009-0.063,0.019-0.124,0.022-0.188
		c0.015-0.226-0.013-0.445-0.073-0.652l-2.822-0.358C106.902,50.331,107.347,51.027,108.465,51.4z"/>
	<path fill="#750404" d="M109.875,49.309c-0.256-0.208-1.182-1.229-2.838-0.987c-1.036,0.151-1.909,0.816-2.102,2.333
		c-0.131,1.021,0.267,2.029,1.002,2.773c0.04-0.019,0.082-0.033,0.118-0.057c0.415-0.256,0.46-0.398,0.46-0.4l0.091-0.774
		c-0.003-0.108-0.091-0.207-0.208-0.214c-0.091-0.006-0.2-0.046-0.303-0.176c-0.238-0.292-0.129-0.748,0.347-0.767
		c0.249-0.009,0.345-0.136,0.38-0.255c0.031-0.104,0.147-0.162,0.254-0.123c0.542,0.184,1.876,0.582,2.735,0.353
		C110.911,50.722,110.131,49.517,109.875,49.309z"/>
	<path fill="#FFFFFF" d="M108.638,52.322l0.664-0.172c0,0-0.316,0.47-0.778,0.59c-0.461,0.119-0.534-0.25-0.534-0.25L108.638,52.322
		z"/>
</g>
<g>
	<path opacity="0.5" fill="#E5C3C3" enable-background="new    " d="M120.971,92.076l-6.443-3.72
		c-0.395-0.229-0.346-0.628,0.111-0.892l6.222-3.592c0.457-0.264,1.147-0.293,1.544-0.064l6.443,3.721
		c0.396,0.229,0.346,0.627-0.111,0.891l-6.222,3.593C122.058,92.276,121.367,92.306,120.971,92.076z"/>
	<g>
		<path fill="#771818" d="M130.983,84.696L130.983,84.696v-2.784l-6.242-0.003l-2.158-1.245c-0.495-0.286-1.36-0.252-1.933,0.08
			l-2.013,1.161l-6.249-0.003v2.863c-0.015,0.192,0.094,0.38,0.331,0.518l8.069,4.658c0.495,0.286,1.36,0.252,1.933-0.08
			l7.791-4.498C130.844,85.173,131.002,84.926,130.983,84.696z"/>
		<path fill="#9E2525" d="M121.688,80.471c-0.362,0.01-0.738,0.1-1.037,0.271l-2.013,1.162l-6.249-0.004v2.863
			c-0.015,0.193,0.094,0.38,0.331,0.518l8.069,4.658c0.238,0.139,0.562,0.201,0.896,0.191v-9.66H121.688z"/>
		<path fill="#C13030" d="M113.098,81.902h-0.707v2.863c-0.015,0.192,0.094,0.38,0.331,0.518l0.375,0.217v-3.598H113.098z"/>
		<path fill="#991616" d="M120.915,90.002c0.427,0.184,1.045,0.173,1.543-0.019v-3.251h-1.543V90.002z"/>
		<path fill="#891B1B" d="M120.791,87.089l-8.069-4.658c-0.495-0.285-0.433-0.785,0.138-1.114l7.791-4.498
			c0.571-0.331,1.437-0.365,1.933-0.08l8.069,4.658c0.495,0.285,0.433,0.785-0.138,1.116l-7.791,4.498
			C122.151,87.338,121.286,87.375,120.791,87.089z"/>
		<path fill="#6B1515" d="M120.937,86.249l-6.762-3.903c-0.415-0.24-0.363-0.658,0.117-0.935l6.529-3.77
			c0.48-0.276,1.204-0.308,1.618-0.067l6.762,3.904c0.415,0.24,0.363,0.658-0.117,0.934l-6.529,3.77
			C122.076,86.46,121.351,86.489,120.937,86.249z"/>
		<g>
			<path fill="#A83939" d="M128.017,85.431c0,0.208-0.146,0.46-0.326,0.563s-0.326,0.021-0.326-0.188
				c0-0.207,0.146-0.459,0.326-0.563C127.871,85.139,128.017,85.224,128.017,85.431z"/>
			<path fill="#A83939" d="M129.065,84.826c0,0.207-0.146,0.459-0.325,0.563c-0.18,0.104-0.326,0.021-0.326-0.188
				c0-0.207,0.146-0.459,0.326-0.563C128.918,84.533,129.065,84.618,129.065,84.826z"/>
			<path fill="#A83939" d="M130.113,84.221c0,0.207-0.146,0.459-0.326,0.563c-0.18,0.104-0.325,0.021-0.325-0.188
				c0-0.207,0.146-0.459,0.325-0.563C129.967,83.928,130.113,84.013,130.113,84.221z"/>
		</g>
	</g>
	<g>
		<path fill="#771818" d="M130.983,80.182L130.983,80.182v-2.783l-6.242-0.004l-2.158-1.246c-0.495-0.285-1.36-0.25-1.933,0.08
			l-2.013,1.162l-6.249-0.004v2.864c-0.015,0.192,0.094,0.38,0.331,0.519l8.069,4.658c0.495,0.285,1.36,0.25,1.933-0.08l7.791-4.498
			C130.844,80.658,131.002,80.411,130.983,80.182z"/>
		<path fill="#9E2525" d="M121.688,75.957c-0.362,0.008-0.738,0.1-1.037,0.27l-2.013,1.162l-6.249-0.004v2.864
			c-0.015,0.192,0.094,0.38,0.331,0.519l8.069,4.658c0.238,0.138,0.562,0.199,0.896,0.19v-9.659H121.688z"/>
		<path fill="#C13030" d="M113.098,77.387h-0.707v2.864c-0.015,0.192,0.094,0.38,0.331,0.519l0.375,0.216v-3.599H113.098z"/>
		<path fill="#991616" d="M120.915,85.487c0.427,0.184,1.045,0.173,1.543-0.019v-3.25h-1.543V85.487z"/>
		<path fill="#891B1B" d="M120.791,82.572l-8.069-4.658c-0.495-0.285-0.433-0.785,0.138-1.115l7.791-4.499
			c0.571-0.331,1.437-0.365,1.933-0.079l8.069,4.657c0.495,0.286,0.433,0.786-0.138,1.114l-7.791,4.498
			C122.151,82.824,121.286,82.859,120.791,82.572z"/>
		<path fill="#6B1515" d="M120.937,81.734l-6.762-3.903c-0.415-0.24-0.363-0.658,0.117-0.935l6.529-3.77
			c0.48-0.275,1.204-0.307,1.618-0.066l6.762,3.903c0.415,0.239,0.363,0.658-0.117,0.935l-6.529,3.77
			C122.076,81.943,121.351,81.975,120.937,81.734z"/>
		<g>
			<path fill="#A83939" d="M128.017,80.916c0,0.207-0.146,0.461-0.326,0.564s-0.326,0.02-0.326-0.188s0.146-0.461,0.326-0.564
				C127.871,80.623,128.017,80.707,128.017,80.916z"/>
			<path fill="#A83939" d="M129.065,80.311c0,0.207-0.146,0.461-0.325,0.564c-0.18,0.104-0.326,0.02-0.326-0.188
				s0.146-0.461,0.326-0.564C128.918,80.018,129.065,80.104,129.065,80.311z"/>
			<path fill="#A83939" d="M130.113,79.705c0,0.207-0.146,0.461-0.326,0.564c-0.18,0.104-0.325,0.02-0.325-0.188
				s0.146-0.46,0.325-0.564C129.967,79.412,130.113,79.498,130.113,79.705z"/>
		</g>
	</g>
	<g>
		<path fill="#771818" d="M130.983,75.666L130.983,75.666v-2.784l-6.242-0.004l-2.158-1.245c-0.495-0.285-1.36-0.251-1.933,0.08
			l-2.013,1.162l-6.249-0.004v2.863c-0.015,0.193,0.094,0.381,0.331,0.519l8.069,4.658c0.495,0.285,1.36,0.251,1.933-0.08
			l7.791-4.499C130.844,76.142,131.002,75.896,130.983,75.666z"/>
		<path fill="#9E2525" d="M121.688,71.441c-0.362,0.01-0.738,0.101-1.037,0.271l-2.013,1.162l-6.249-0.004v2.863
			c-0.015,0.193,0.094,0.381,0.331,0.519l8.069,4.658c0.238,0.138,0.562,0.2,0.896,0.19v-9.66H121.688z"/>
		<path fill="#C13030" d="M113.098,72.873h-0.707v2.863c-0.015,0.193,0.094,0.38,0.331,0.518l0.375,0.217v-3.598H113.098z"/>
		<path fill="#991616" d="M120.915,80.973c0.427,0.184,1.045,0.173,1.543-0.018v-3.252h-1.543V80.973z"/>
		<path fill="#9E2525" d="M120.791,78.059l-8.069-4.658c-0.495-0.285-0.433-0.785,0.138-1.115l7.791-4.498
			c0.571-0.33,1.437-0.365,1.933-0.08l8.069,4.658c0.495,0.285,0.433,0.785-0.138,1.115l-7.791,4.498
			C122.151,78.309,121.286,78.344,120.791,78.059z"/>
		<path fill="#A83939" d="M130.513,72.933l-7.791,4.498c-0.571,0.331-1.436,0.366-1.933,0.08l-8.069-4.658
			c-0.111-0.063-0.191-0.138-0.248-0.22c-0.171,0.274-0.093,0.57,0.248,0.768l8.069,4.658c0.495,0.285,1.36,0.25,1.933-0.08
			l7.791-4.498c0.444-0.257,0.58-0.615,0.385-0.896C130.822,72.709,130.693,72.829,130.513,72.933z"/>
		<g>
			<path fill="#A83939" d="M128.017,76.4c0,0.207-0.146,0.459-0.326,0.563c-0.18,0.104-0.326,0.02-0.326-0.188
				s0.146-0.46,0.326-0.563S128.017,76.193,128.017,76.4z"/>
			<path fill="#A83939" d="M129.065,75.797c0,0.207-0.146,0.459-0.325,0.563c-0.18,0.104-0.326,0.021-0.326-0.187
				c0-0.208,0.146-0.46,0.326-0.563C128.918,75.504,129.065,75.588,129.065,75.797z"/>
			<path fill="#A83939" d="M130.113,75.191c0,0.207-0.146,0.459-0.326,0.563c-0.18,0.104-0.325,0.021-0.325-0.187
				c0-0.208,0.146-0.46,0.325-0.563C129.967,74.898,130.113,74.982,130.113,75.191z"/>
		</g>
		<g>
			<path fill="#771818" d="M121.267,75.295l-3.776-2.18c-0.231-0.135-0.202-0.368,0.065-0.522l3.646-2.105
				c0.268-0.155,0.673-0.171,0.904-0.038l3.776,2.18c0.231,0.135,0.202,0.367-0.065,0.521l-3.646,2.105
				C121.904,75.411,121.5,75.428,121.267,75.295z"/>
			<path fill="#A83939" d="M121.629,73.469l-0.521-0.301c-0.033-0.02-0.027-0.052,0.009-0.073l0.504-0.291
				c0.036-0.022,0.093-0.024,0.125-0.005l0.521,0.301c0.033,0.019,0.027,0.051-0.009,0.073l-0.504,0.291
				C121.716,73.485,121.662,73.487,121.629,73.469z"/>
			<path fill="#A83939" d="M117.493,73.115l0.011,0.005c0.019-0.013,0.035-0.025,0.055-0.038l3.646-2.105
				c0.267-0.154,0.673-0.171,0.904-0.039l3.765,2.176c0.213-0.153,0.226-0.362,0.011-0.486l-3.776-2.18
				c-0.231-0.135-0.637-0.116-0.904,0.038l-3.646,2.105C117.289,72.747,117.26,72.98,117.493,73.115z"/>
		</g>
	</g>
	<path fill="#A83939" d="M118.38,83.162l-3.267-1.886c-0.202-0.116-0.366-0.429-0.366-0.696l0,0c0-0.27,0.164-0.393,0.366-0.276
		l3.267,1.886c0.202,0.116,0.366,0.429,0.366,0.695l0,0C118.744,83.154,118.58,83.278,118.38,83.162z"/>
	<path fill="#7A1313" d="M118.671,82.982l-3.267-1.887c-0.202-0.115-0.366-0.428-0.366-0.695c0-0.046,0.005-0.086,0.015-0.122
		c-0.174-0.063-0.307,0.058-0.307,0.302c0,0.27,0.164,0.58,0.365,0.696l3.268,1.886c0.167,0.096,0.307,0.025,0.349-0.154
		C118.711,83,118.691,82.992,118.671,82.982z"/>
</g>
<g>
	<path fill="#9E2525" d="M119.924,57.291l-0.842-0.48v0.002c-0.077-0.062-0.182-0.065-0.3,0.002l-5.767,3.329
		c-0.229,0.133-0.417,0.489-0.417,0.794v9.651c0,0.526,0.282,1.011,0.738,1.274l0.129,0.074l0.084-1.045l5.649-3.262V57.445
		l0.111,0.602L119.924,57.291z"/>
	<path fill="#9E2525" d="M119.082,56.809L119.082,56.809c-0.075-0.06-0.182-0.064-0.3,0.004l-5.767,3.329
		c-0.135,0.079-0.253,0.233-0.329,0.409l6.513,3.76v-6.867l0.111,0.602l0.615-0.754L119.082,56.809z"/>
	<path fill="#BA2F2F" d="M113.891,61.62l0.651-0.376l-1.682-0.971c-0.14,0.156-0.24,0.387-0.256,0.604L113.891,61.62z"/>
	<path fill="#771818" d="M120.063,68.125l-6.6,3.812V61.435c0-0.306,0.185-0.661,0.416-0.794l5.768-3.33
		c0.229-0.133,0.416,0.008,0.416,0.314V68.125z"/>
</g>
<path fill="#D65151" d="M116.093,70.707c0,0.186-0.129,0.26-0.291,0.168c-0.16-0.094-0.291-0.318-0.291-0.504
	s0.131-0.26,0.291-0.168C115.964,70.297,116.093,70.521,116.093,70.707z"/>
<polygon fill="#D65151" points="114.627,70.746 115.591,70.188 116.02,70.887 115.053,71.447 "/>
<path fill="#9E2525" d="M115.136,71.26c0,0.186-0.129,0.26-0.291,0.168c-0.16-0.094-0.291-0.318-0.291-0.504s0.129-0.26,0.291-0.168
	C115.005,70.85,115.136,71.074,115.136,71.26z"/>
<path fill="#771818" d="M114.995,71.178c0,0.097-0.067,0.135-0.149,0.088c-0.084-0.047-0.149-0.164-0.149-0.26
	c0-0.097,0.067-0.135,0.149-0.088C114.927,70.967,114.995,71.084,114.995,71.178z"/>
<path fill="#D65151" d="M119.469,68.8c0,0.186-0.131,0.261-0.291,0.167c-0.16-0.092-0.291-0.318-0.291-0.503
	c0-0.186,0.129-0.261,0.291-0.167S119.469,68.615,119.469,68.8z"/>
<polygon fill="#D65151" points="118.003,68.838 118.967,68.281 119.396,68.982 118.429,69.54 "/>
<path fill="#9E2525" d="M118.511,69.353c0,0.186-0.129,0.261-0.291,0.167c-0.16-0.092-0.291-0.318-0.291-0.503
	c0-0.186,0.129-0.261,0.291-0.167C118.382,68.943,118.511,69.169,118.511,69.353z"/>
<path fill="#771818" d="M118.371,69.273c0,0.096-0.067,0.134-0.149,0.086c-0.082-0.047-0.149-0.163-0.149-0.26
	c0-0.096,0.067-0.135,0.149-0.087C118.304,69.061,118.371,69.176,118.371,69.273z"/>
<path opacity="0.5" fill="#E5C3C3" enable-background="new    " d="M175.76,85.098l-4.787-2.764
	c-0.295-0.168-0.256-0.465,0.082-0.661l4.621-2.669c0.341-0.197,0.854-0.217,1.146-0.047l4.787,2.764
	c0.295,0.168,0.256,0.465-0.082,0.661l-4.622,2.669C176.567,85.247,176.055,85.268,175.76,85.098z"/>
<g>
	<path fill="#771818" d="M185.639,76.806L185.639,76.806v-2.784l-6.242-0.004l-2.158-1.244c-0.494-0.286-1.359-0.252-1.933,0.079
		l-2.013,1.162l-6.25-0.004v2.864c-0.014,0.192,0.096,0.379,0.332,0.518l8.068,4.658c0.494,0.285,1.36,0.251,1.934-0.08l7.791-4.498
		C185.498,77.281,185.658,77.035,185.639,76.806z"/>
	<path fill="#9E2525" d="M176.342,72.58c-0.361,0.009-0.738,0.1-1.036,0.271l-2.013,1.161l-6.25-0.003v2.863
		c-0.014,0.192,0.096,0.38,0.332,0.518l8.068,4.658c0.238,0.139,0.563,0.2,0.896,0.191v-9.66H176.342z"/>
	<path fill="#DD5050" d="M167.753,74.011h-0.708v2.864c-0.014,0.192,0.096,0.379,0.332,0.518l0.374,0.217v-3.599H167.753z"/>
	<path fill="#B72A2A" d="M175.569,82.111c0.427,0.184,1.046,0.172,1.544-0.019v-3.251h-1.544V82.111z"/>
	<path fill="#E6573F" d="M175.445,79.198l-8.068-4.658c-0.495-0.286-0.434-0.786,0.138-1.114l7.791-4.498
		c0.573-0.332,1.437-0.365,1.933-0.08l8.068,4.658c0.495,0.285,0.434,0.785-0.138,1.114l-7.79,4.498
		C176.806,79.447,175.939,79.483,175.445,79.198z"/>
	<g>
		<path fill="#DD5050" d="M182.671,77.54c0,0.207-0.146,0.46-0.325,0.563s-0.326,0.02-0.326-0.188s0.146-0.459,0.326-0.563
			C182.525,77.249,182.671,77.332,182.671,77.54z"/>
		<path fill="#DD5050" d="M183.721,76.935c0,0.207-0.146,0.46-0.326,0.563s-0.325,0.02-0.325-0.188s0.146-0.459,0.325-0.563
			C183.574,76.644,183.721,76.727,183.721,76.935z"/>
		<path fill="#DD5050" d="M184.77,76.329c0,0.207-0.146,0.46-0.326,0.563s-0.325,0.02-0.325-0.188s0.146-0.459,0.325-0.563
			C184.622,76.038,184.77,76.122,184.77,76.329z"/>
	</g>
</g>
<path fill="#F78D8D" d="M172.268,77.361l3.178,1.835c0.494,0.286,1.36,0.251,1.934-0.08l5.654-3.264l0.036-0.044l-4.562-2.527
	L172.268,77.361z"/>
<polygon fill="#B72A2A" points="173.574,78.116 173.574,80.969 172.393,80.297 171.852,77.531 172.776,77.656 "/>
<polygon fill="#DD5050" points="169.734,78.753 170.02,78.918 170.58,76.244 170.23,76.093 169.158,76.458 "/>
<ellipse opacity="0.5" fill="#E5C3C3" enable-background="new    " cx="170.015" cy="86.118" rx="4.638" ry="2.679"/>
<path fill="#FFFFFF" d="M174.882,59.061l-0.536-0.148c0,0,0.256,0.404,0.631,0.506c0.375,0.104,0.433-0.215,0.433-0.215
	L174.882,59.061z"/>
<g>
	<path fill="#E6573F" d="M135.726,57.3c-2.729-1.574-7.151-1.574-9.88,0c-2.729,1.575-2.728,4.13,0,5.704
		c2.729,1.574,7.151,1.574,9.88,0C138.453,61.43,138.453,58.877,135.726,57.3z M130.616,60.207c-0.702,0.406-1.84,0.406-2.54,0
		c-0.702-0.405-0.702-1.062,0-1.467c0.702-0.406,1.84-0.406,2.54,0C131.318,59.146,131.318,59.802,130.616,60.207z"/>
	<path fill="#E8B3B3" d="M137.198,61.74c-0.364,0.361-0.814,0.703-1.353,1.014c-0.539,0.312-1.129,0.572-1.758,0.781l1.336,0.771
		l2.013,0.104l0.996,0.574l-0.405,0.235l0.754,0.434l0.813-0.469l1.316,0.76l-1.324,0.764l0.973,0.563l0.943,0.545l1.175-0.678
		l1.742,1.005l-0.666,0.384l1.118,0.646l0.666-0.384l0.525,0.304l-0.529,1.053l1.692,0.977h6.22L137.198,61.74z"/>
</g>
<g>
	<path fill="#771818" d="M137.771,59.598v-1.889l-0.557,0.314c-0.34-0.463-0.836-0.896-1.489-1.274c-2.729-1.574-7.151-1.574-9.88,0
		c-0.757,0.437-1.302,0.949-1.64,1.495l-0.407-0.535v1.889c-0.002,1.033,0.68,2.068,2.045,2.855c2.729,1.574,7.151,1.574,9.88,0
		C137.091,61.666,137.773,60.631,137.771,59.598z M130.593,58.367c-0.702,0.406-1.84,0.406-2.54,0c-0.702-0.405-0.702-1.062,0-1.467
		c0.702-0.406,1.84-0.406,2.54,0C131.293,57.306,131.293,57.962,130.593,58.367z"/>
	<path fill="#992020" d="M130.2,61.088l-3.015-1.486l-2.678-1.77c-0.115,0.135-0.214,0.273-0.302,0.414l-0.407-0.535V59.6
		c-0.002,1.033,0.68,2.068,2.045,2.855c1.214,0.701,2.767,1.088,4.354,1.167v-2.534H130.2z"/>
	<path fill="#E56A6A" d="M135.726,54.856c-2.729-1.575-7.151-1.575-9.88,0c-2.729,1.574-2.728,4.129,0,5.704
		c2.729,1.574,7.151,1.574,9.88,0C138.453,58.985,138.453,56.433,135.726,54.856z M130.616,57.764c-0.702,0.405-1.84,0.405-2.54,0
		c-0.702-0.405-0.702-1.063,0-1.467c0.702-0.406,1.84-0.406,2.54,0C131.318,56.701,131.318,57.358,130.616,57.764z"/>
	<path fill="#771818" d="M131.985,55.854h-3.791c-0.347,0.08-0.684,0.177-1.009,0.289v3.213h4.8V55.854z M130.593,58.367
		c-0.702,0.406-1.84,0.406-2.54,0c-0.702-0.405-0.702-1.062,0-1.467c0.702-0.406,1.84-0.406,2.54,0
		C131.293,57.306,131.293,57.962,130.593,58.367z"/>
	<path fill="#A83939" d="M135.14,55.194c-2.406-1.389-6.304-1.389-8.709,0c-2.405,1.39-2.405,3.64,0,5.027
		c2.406,1.39,6.304,1.39,8.709,0C137.543,58.834,137.543,56.584,135.14,55.194z M130.616,57.764c-0.702,0.405-1.84,0.405-2.54,0
		c-0.702-0.405-0.702-1.063,0-1.467c0.702-0.406,1.84-0.406,2.54,0C131.318,56.701,131.318,57.358,130.616,57.764z"/>
	<path fill="#771818" d="M126.431,55.717c2.406-1.39,6.304-1.39,8.709,0c1.087,0.627,1.682,1.432,1.785,2.252
		c0.125-0.994-0.467-2.014-1.785-2.774c-2.406-1.389-6.304-1.389-8.709,0c-1.318,0.761-1.911,1.78-1.785,2.774
		C124.749,57.148,125.344,56.346,126.431,55.717z"/>
	<g>
		<path fill="#992020" d="M137.198,61.175c-0.364,0.361-0.814,0.703-1.353,1.015c-0.539,0.311-1.129,0.57-1.758,0.779l1.336,0.771
			l2.013,0.104l0.996,0.574l-0.405,0.234l0.754,0.436l0.813-0.47l1.316,0.76l-1.324,0.764l0.973,0.562l0.943,0.546l1.175-0.679
			l1.742,1.006l-0.666,0.384l1.118,0.646l0.666-0.384l0.525,0.304l-0.529,1.053l1.692,0.977h6.22L137.198,61.175z"/>
		<path fill="#E56A6A" d="M137.198,59.809c-0.364,0.362-0.814,0.704-1.353,1.016c-0.539,0.311-1.129,0.57-1.758,0.779l1.336,0.771
			l2.013,0.104l0.996,0.574l-0.405,0.234l0.754,0.435l0.813-0.469l1.316,0.76l-1.324,0.764l0.973,0.562l0.943,0.544l1.175-0.679
			l1.742,1.006l-0.666,0.384l1.118,0.646l0.666-0.384l0.525,0.304l-0.529,1.053l1.692,0.977h6.22L137.198,59.809z"/>
		<rect x="147.227" y="69.189" fill="#771818" width="6.22" height="1.365"/>
		<polygon fill="#771818" points="144.873,68.605 144.873,67.242 145.538,66.856 145.538,68.222 		"/>
		<polygon fill="#771818" points="143.754,66.595 143.754,67.96 144.873,68.605 144.873,67.242 		"/>
		<polygon fill="#771818" points="142.678,65.205 142.678,66.57 141.502,67.249 141.502,65.884 		"/>
		<polygon fill="#771818" points="139.587,64.778 139.587,66.144 141.502,67.249 141.502,65.884 		"/>
		<polygon fill="#771818" points="145.538,68.222 145.535,69.576 147.227,70.555 147.227,69.189 		"/>
		<polygon fill="#771818" points="138.78,63.724 138.78,65.089 138.027,64.652 138.027,63.287 		"/>
		<polygon fill="#771818" points="135.425,62.375 135.425,63.74 137.438,63.844 137.438,62.479 		"/>
		<polygon fill="#771818" points="149.202,68.222 137.307,61.35 137.967,60.967 150.517,68.219 		"/>
		<polygon fill="#AD2828" points="137.967,61.297 149.947,68.221 150.517,68.219 137.967,60.967 137.307,61.35 137.593,61.513 		"/>
		<polygon fill="#771818" points="135.425,63.74 135.425,62.375 134.089,61.604 134.089,62.969 		"/>
		<polygon fill="#771818" points="139.593,63.254 139.593,64.618 138.78,65.089 138.78,63.724 		"/>
	</g>
	<path fill="#992020" d="M135.14,55.194c-1.351-0.78-3.175-1.122-4.938-1.025v0.522c1.766-0.097,3.587,0.245,4.938,1.025
		c1.087,0.627,1.682,1.432,1.785,2.252C137.051,56.975,136.457,55.957,135.14,55.194z"/>
</g>
<path fill="#A83939" d="M117.404,64.799l0.001-0.604c0-0.036-0.029-0.049-0.067-0.028l-0.506,0.291
	c-0.036,0.021-0.067,0.068-0.067,0.105l-0.002,0.604c0,0.035,0.029,0.049,0.067,0.028l0.505-0.29
	C117.373,64.884,117.404,64.836,117.404,64.799z"/>
<g>
	<path opacity="0.5" fill="#E5C3C3" enable-background="new    " d="M139.964,97.666l-5.868-3.415
		c-0.494-0.286-0.433-0.786,0.138-1.114l5.593-3.259c0.571-0.331,1.437-0.365,1.933-0.079l5.868,3.414
		c0.494,0.285,0.433,0.785-0.138,1.116l-5.593,3.259C141.324,97.914,140.458,97.951,139.964,97.666z"/>
	<path fill="#771818" d="M147.958,90.43L147.958,90.43v-1.177l-6.242-0.004l0.043-0.002c-0.494-0.285-1.36-0.251-1.933,0.08
		l0.186-0.076l-6.249-0.004v1.255c-0.015,0.192,0.095,0.38,0.331,0.518l5.867,3.415c0.495,0.286,1.36,0.251,1.933-0.08l5.593-3.259
		C147.818,90.905,147.978,90.658,147.958,90.43z"/>
	<path fill="#A83939" d="M140.864,89.057c-0.362,0.009-0.738,0.1-1.037,0.271l0.186-0.076l-6.249-0.004v1.255
		c-0.015,0.192,0.095,0.38,0.331,0.518l5.867,3.415c0.238,0.138,0.562,0.2,0.896,0.19L140.864,89.057z"/>
	<path fill="#E8B3B3" d="M134.471,89.247h-0.707v1.255c-0.015,0.192,0.095,0.38,0.331,0.518l0.375,0.217v-1.989H134.471z"/>
	<path fill="#872727" d="M140.087,94.494c0.427,0.184,1.045,0.174,1.543-0.018v-1.643h-1.543V94.494z"/>
	<path fill="#E6573F" d="M139.964,93.189l-5.868-3.415c-0.494-0.285-0.433-0.785,0.138-1.116l5.593-3.258
		c0.571-0.331,1.437-0.365,1.933-0.08l5.868,3.414c0.494,0.285,0.433,0.785-0.138,1.115l-5.593,3.258
		C141.324,93.439,140.458,93.477,139.964,93.189z"/>
</g>
<g>
	<path opacity="0.5" fill="#E5C3C3" enable-background="new    " d="M112.604,28.649l-5.867-3.413
		c-0.495-0.286-0.433-0.786,0.138-1.116l5.593-3.258c0.571-0.331,1.437-0.365,1.933-0.08l5.867,3.415
		c0.495,0.286,0.433,0.786-0.138,1.115l-5.593,3.258C113.965,28.9,113.1,28.935,112.604,28.649z"/>
	<path fill="#771818" d="M120.6,21.693L120.6,21.693v-1.176l-6.242-0.004l0.043-0.002c-0.495-0.285-1.36-0.251-1.933,0.08
		l0.185-0.076l-6.249-0.004v1.255c-0.014,0.192,0.095,0.38,0.331,0.518l5.867,3.415c0.495,0.285,1.36,0.251,1.933-0.08l5.593-3.258
		C120.46,22.169,120.618,21.924,120.6,21.693z"/>
	<path fill="#A83939" d="M113.503,20.322c-0.362,0.009-0.738,0.1-1.036,0.271l0.186-0.076l-6.249-0.004v1.254
		c-0.015,0.193,0.094,0.38,0.331,0.519l5.868,3.415c0.238,0.138,0.562,0.2,0.896,0.191L113.503,20.322z"/>
	<path fill="#E8B3B3" d="M107.113,20.513h-0.708v1.254c-0.014,0.193,0.095,0.38,0.331,0.519l0.375,0.216v-1.989H107.113z"/>
	<path fill="#872727" d="M112.729,25.76c0.427,0.184,1.045,0.173,1.544-0.018V24.1h-1.544V25.76z"/>
	<path fill="#E54141" d="M112.604,24.455l-5.867-3.415c-0.495-0.286-0.433-0.786,0.138-1.115l5.593-3.258
		c0.571-0.331,1.437-0.366,1.933-0.08L120.267,20c0.495,0.286,0.433,0.786-0.138,1.116l-5.593,3.258
		C113.965,24.704,113.1,24.74,112.604,24.455z"/>
</g>
<g>
	<g>
		<path fill="#CC5858" d="M171.713,84.867c0,0-0.7-0.367-1.129,0.18c-0.43,0.546-1.044,1.837-1.063,2.707
			c-0.018,0.871,0.662,0.813,1.067,0.607c0.405-0.205,1.589-1.992,1.66-2.344c0.071-0.35-0.083-0.823-0.198-0.916
			C171.938,85.01,171.713,84.867,171.713,84.867z"/>
		<path fill="#E6573F" d="M171.865,84.693l0.033,0.754c0.007,0.16-0.071,0.313-0.205,0.393c-0.123,0.072-0.301,0.127-0.541,0.088
			c-0.527-0.088-0.574-0.246-0.61-0.998C170.506,84.175,171.865,84.693,171.865,84.693z"/>
		<g>
			<path fill="#CC5858" d="M169.152,83.418c0,0-0.699-0.367-1.129,0.18c-0.429,0.546-1.043,1.837-1.062,2.708
				c-0.019,0.87,0.661,0.813,1.067,0.606c0.405-0.205,1.589-1.992,1.66-2.343c0.07-0.351-0.084-0.823-0.199-0.917
				C169.38,83.561,169.152,83.418,169.152,83.418z"/>
			<path fill="#E6573F" d="M169.306,83.244l0.032,0.754c0.008,0.16-0.07,0.313-0.205,0.393c-0.122,0.073-0.301,0.127-0.54,0.088
				c-0.527-0.088-0.575-0.246-0.61-0.998C167.945,82.726,169.306,83.244,169.306,83.244z"/>
			<path fill="#771818" d="M175.543,69.405c-0.207-3.503-3.645,0.515-3.645,0.515l-2.355,2.402l-2.119,2.424
				c-0.414,0.473-0.607,1.112-0.527,1.746l0.857,6.795c0.043,0.336,0.318,0.584,0.645,0.58c0.092,0,0.196-0.009,0.318-0.029
				c0.766-0.123,0.709-0.88,0.709-0.88l-0.156-6.354l4.451-2.793C173.721,73.809,175.751,72.909,175.543,69.405z"/>
		</g>
		<path fill="#771818" d="M178.104,70.74c-0.207-3.504-3.646,0.514-3.646,0.514l-2.354,2.402l-2.12,2.424
			c-0.414,0.473-0.606,1.113-0.526,1.747l0.857,6.795c0.042,0.336,0.318,0.583,0.644,0.579c0.093,0,0.196-0.008,0.318-0.028
			c0.766-0.124,0.709-0.88,0.709-0.88l-0.156-6.355l4.45-2.792C176.278,75.144,178.311,74.244,178.104,70.74z"/>
		<path fill="#CC5858" d="M176.069,59.492c2.606,1.126,2.554,2.729,2.554,2.729s-0.51,5.88-0.336,9.808
			c0.072,1.642-8.382,1.768-7.119-2.613c1.486-5.163,0.928-9.346,1.625-9.975C173.487,58.811,175.395,59.201,176.069,59.492z"/>
		<path fill="#FFC2B0" d="M176.907,60.914c-0.136,0.551-0.829,0.842-1.549,0.649s-1.19-0.796-1.055-1.347s0.829-0.842,1.549-0.649
			C176.57,59.762,177.043,60.363,176.907,60.914z"/>
		<path fill="#FFFFFF" d="M175.799,61.753c-0.153,0-0.312-0.021-0.472-0.063c-0.784-0.211-1.298-0.886-1.146-1.504
			s0.916-0.953,1.702-0.742c0.372,0.1,0.698,0.308,0.915,0.582c0.225,0.287,0.307,0.615,0.23,0.922
			C176.905,61.441,176.396,61.753,175.799,61.753z M175.405,59.639c-0.483,0-0.889,0.234-0.981,0.61
			c-0.118,0.479,0.314,1.015,0.965,1.188c0.651,0.176,1.279-0.074,1.398-0.554c0.057-0.226-0.009-0.472-0.184-0.692
			c-0.184-0.233-0.46-0.41-0.783-0.495C175.68,59.656,175.54,59.639,175.405,59.639z"/>
		<path fill="#FFC2B0" d="M175.023,59.371c0,0,0.021,0.109-0.021,0.969c-0.015,0.271,0.895,0.523,1.131,0.278
			c0.234-0.245,0.142-0.5,0.198-1.418C176.385,58.278,175.023,59.371,175.023,59.371z"/>
		<path fill="#EA9C92" d="M176.329,59.198c0,0-0.224,0.853-1.327,1.18l0.016-0.774L176.329,59.198z"/>
		<path fill="#FFC2B0" d="M177.027,57.031c0.278,1.116-0.367,2.256-1.439,2.545c-1.073,0.289-2.168-0.382-2.446-1.5
			c-0.278-1.116,0.368-2.256,1.44-2.545C175.656,55.244,176.751,55.914,177.027,57.031z"/>
		<path fill="#EA9C92" d="M175.545,57.631c0,0-1.105,0.492-1.871,0.498c-0.765,0.006-0.596-0.662-0.596-0.662l2.271-0.342
			L175.545,57.631z"/>
		<path fill="#771818" d="M173.447,57.76c0,0,0.962-0.426,1.807-0.247c0.199,0.042,0.383,0.153,0.512,0.316
			c0.041,0.053,0.094,0.102,0.154,0.116c0.149,0.035,0.395-0.611,0.686-0.625c0.291-0.015,0.485,0.199,0.247,0.598
			c-0.237,0.398-0.158,0.842-0.047,0.908c0.108,0.063,1.274-0.864,0.247-2.982s-3.637-0.977-4.043-0.547
			c0,0-0.428,0.387-0.775,0.041C172.232,55.334,171.844,58.373,173.447,57.76z"/>
		<path fill="#FFC2B0" d="M177.162,66.518v1.59c0,0.182-0.074,0.356-0.204,0.479l-3.136,2.977l0.355,0.566l4.143-3.125
			c0.192-0.146,0.318-0.371,0.344-0.619l0.279-2.77L177.162,66.518z"/>
		<path fill="#CC5858" d="M178.404,61.428c0,0,0.95,1.488,1.305,5.408c0,0-1.625,0.548-2.547,0.236
			C176.238,66.764,178.404,61.428,178.404,61.428z"/>
		<path fill="#A83939" d="M176.987,63.311c0,0-0.372,2.074-0.395,3.049c-0.005,0.268,0.151,0.51,0.395,0.603l0,0V63.311z"/>
	</g>
	<g>
		<path fill="#CC5858" d="M176.174,73.627l-0.691-0.094l-4.475-2.689c-0.145-0.086-0.395-0.074-0.561,0.023l-3.171,1.904
			l-0.42-0.059v0.435l0,0c-0.004,0.056,0.028,0.112,0.097,0.152l5.07,3.048c0.145,0.085,0.395,0.074,0.561-0.023l3.452-2.075
			c0.093-0.056,0.14-0.127,0.137-0.196l0,0L176.174,73.627L176.174,73.627z"/>
		<path fill="#A83939" d="M172.811,71.93l-0.318-0.191h-3.496l-1.723,1.035l-0.421-0.059v0.434l0,0
			c-0.003,0.057,0.029,0.113,0.097,0.153l5.07,3.048c0.076,0.045,0.182,0.063,0.289,0.056L172.811,71.93z"/>
		<path fill="#5793CE" d="M167.042,72.74l-0.186-0.025v0.434l0,0c-0.004,0.057,0.028,0.113,0.097,0.153l0.089,0.055V72.74z"/>
		<path fill="#FFFFFF" d="M172.074,76.373c0.137,0.055,0.331,0.041,0.477-0.031v-0.738h-0.477V76.373z"/>
		<path fill="#FFFFFF" d="M172.023,75.914l-5.07-3.047c-0.145-0.086-0.126-0.236,0.039-0.336l3.453-2.074
			c0.166-0.101,0.416-0.111,0.561-0.024l5.07,3.048c0.145,0.085,0.125,0.236-0.04,0.336l-3.452,2.074
			C172.418,75.99,172.168,76.002,172.023,75.914z"/>
		<path fill="#E6573F" d="M171.938,75.453l-4.216-2.533c-0.12-0.07-0.104-0.196,0.032-0.279l1.852-1.084
			c0.139-0.084,0.346-0.092,0.465-0.021l4.217,2.534c0.12,0.071,0.104,0.197-0.033,0.281l-1.85,1.083
			C172.266,75.517,172.057,75.525,171.938,75.453z"/>
	</g>
	<path fill="#FFC2B0" d="M170.642,70.356l-0.053,0.364c-0.046,0.311-0.036,0.625,0.024,0.934l0.061,0.32
		c0.035,0.182,0.174,0.322,0.348,0.354l0,0c0.137,0.025,0.266-0.075,0.28-0.216l0.083-0.779c0,0,0.191,0.262,0.284,0.262
		s-0.104-0.779-0.313-1.219C171.148,69.935,170.642,70.356,170.642,70.356z"/>
	<path fill="#FFC2B0" d="M172.359,64.569l-0.543,1.12c-0.129,0.266-0.203,0.555-0.222,0.851l-0.236,3.835l-0.717-0.019l-0.325-4.306
		c-0.011-0.133-0.004-0.268,0.018-0.398l0.371-2.184L172.359,64.569z"/>
	<g>
		<path fill="#771818" d="M171.853,76.207l-0.425-0.578l-4.473-2.694c-0.145-0.087-0.261-0.318-0.261-0.517l0.004-3.811l-0.257-0.35
			l0.242-0.145l0,0c0.045-0.031,0.107-0.031,0.175,0.01l5.067,3.053c0.144,0.088,0.26,0.318,0.26,0.518l-0.004,4.15
			c0,0.113-0.036,0.189-0.094,0.222l0,0L171.853,76.207z"/>
		<path fill="#A83939" d="M168.76,74.021l-0.318-0.19l-1.743-3.153l0.002-2.07l-0.257-0.35l0.242-0.145l0,0
			c0.045-0.031,0.107-0.031,0.174,0.01l5.068,3.053c0.076,0.046,0.143,0.133,0.19,0.233L168.76,74.021z"/>
		<path fill="#CC5858" d="M166.557,68.414l-0.115-0.154l0.242-0.145l0,0c0.045-0.031,0.107-0.031,0.175,0.01l0.089,0.055
			L166.557,68.414z"/>
		<path fill="#872727" d="M171.973,71.211c0.113,0.096,0.2,0.276,0.211,0.443l-0.494,0.299l-0.238-0.43L171.973,71.211z"/>
		<path fill="#CC5858" d="M171.686,71.324l-5.067-3.053c-0.144-0.088-0.26,0.005-0.26,0.203l-0.004,4.148
			c0,0.199,0.116,0.432,0.261,0.518l5.066,3.053c0.145,0.086,0.26-0.006,0.26-0.204l0.004-4.149
			C171.945,71.642,171.829,71.409,171.686,71.324z"/>
	</g>
	<path fill="#FFC2B0" d="M174.178,72.129l-0.082,0.175c-0.092,0.202-0.239,0.371-0.423,0.489l-0.504,0.323
		c-0.156,0.101-0.354,0.109-0.515,0.013c-0.006-0.004-0.011-0.007-0.016-0.011c-0.16-0.104-0.175-0.344-0.044-0.483l0.525-0.564
		c0,0-0.296,0.236-0.378,0.141c-0.061-0.069,0.287-0.409,0.553-0.42c0.268-0.012,0.525-0.229,0.525-0.229L174.178,72.129z"/>
	<path fill="#CC5858" d="M172.844,59.433c0,0-1.93,2.184-2.707,4.188c0,0,0.66,1.236,2.274,1.722S172.844,59.433,172.844,59.433z"/>
	<path fill="#A83939" d="M172.049,65.213l0.313-3.143l-0.736,2.944C171.756,65.086,171.898,65.15,172.049,65.213z"/>
	<path fill="#FFFFFF" d="M174.289,58.992l-0.518-0.146c0,0,0.246,0.405,0.608,0.509s0.419-0.214,0.419-0.214L174.289,58.992z"/>
</g>
<path fill="#CC5858" d="M187.789,94.964c-1.08,0-1.958-0.954-1.958-2.13c0-1.172,0.878-2.129,1.958-2.129s1.958,0.955,1.958,2.129
	C189.749,94.01,188.869,94.964,187.789,94.964z M187.789,91.361c-0.747,0-1.356,0.662-1.356,1.473c0,0.812,0.609,1.475,1.356,1.475
	s1.356-0.661,1.356-1.475C189.146,92.021,188.536,91.361,187.789,91.361z"/>
<path fill="#CC5858" d="M192.889,43.924l-1.328-2.938l2.703-1.445l1.329,2.938L192.889,43.924z M192.367,41.284l0.799,1.764
	l1.623-0.867l-0.799-1.764L192.367,41.284z"/>
<path fill="#E6573F" d="M189.146,14.709c-1.524,0-2.762-1.347-2.762-3.002c0-1.654,1.237-3.001,2.762-3.001
	c1.523,0,2.762,1.347,2.762,3.001C191.907,13.362,190.669,14.709,189.146,14.709z M189.146,9.36c-1.19,0-2.16,1.053-2.16,2.347
	c0,1.295,0.97,2.348,2.16,2.348s2.16-1.053,2.16-2.348C191.306,10.413,190.336,9.36,189.146,9.36z"/>
<g>
	<path fill="#CC5858" d="M158.295,94.485l0.305-0.563c0,0,0.257,0.152,0.529,0.061c0.221-0.075,0.409-0.291,0.564-0.641
		c0.547-1.23,1.556-1.325,2.014-1.201l-0.144,0.636l0.073-0.318l-0.069,0.318c-0.087-0.022-0.871-0.184-1.329,0.851
		c-0.232,0.523-0.549,0.855-0.938,0.984C158.778,94.779,158.342,94.517,158.295,94.485z"/>
</g>
<g>
	<polygon fill="#E6573F" points="107.767,93.563 107.34,93.1 109.365,90.9 109.791,91.361 	"/>
	<polygon fill="#E6573F" points="109.365,93.563 107.34,91.361 107.767,90.9 109.791,93.1 	"/>
</g>
<path fill="#E6573F" d="M110.711,7.135c0,0.853-0.636,1.545-1.422,1.545s-1.422-0.691-1.422-1.545c0-0.853,0.636-1.546,1.422-1.546
	S110.711,6.282,110.711,7.135z"/>
<polygon fill="#CC5858" points="135.613,21.258 133.718,22.273 132.747,20.135 134.642,19.12 "/>
<g>
	<polygon fill="#CC5858" points="109.025,37.427 108.895,36.871 110.378,36.458 110.509,37.015 	"/>
	<polygon fill="#CC5858" points="108.267,38.229 108.136,37.675 109.622,37.262 109.753,37.816 	"/>
	<polygon fill="#CC5858" points="107.511,39.031 107.38,38.477 108.864,38.063 108.995,38.618 	"/>
	<polygon fill="#CC5858" points="106.754,39.834 106.624,39.278 108.107,38.865 108.238,39.42 	"/>
</g>
</svg>
