<?xml version="1.0" encoding="utf-8"?>
<!-- Generator: Adobe Illustrator 16.0.0, SVG Export Plug-In . SVG Version: 6.00 Build 0)  -->
<!DOCTYPE svg PUBLIC "-//W3C//DTD SVG 1.1//EN" "http://www.w3.org/Graphics/SVG/1.1/DTD/svg11.dtd">
<svg version="1.1" id="Layer_1" xmlns="http://www.w3.org/2000/svg" xmlns:xlink="http://www.w3.org/1999/xlink" x="0px" y="0px"
	 width="450px" height="450px" viewBox="0 0 300 100" enable-background="new 0 0 300 100" xml:space="preserve">
<g>
	<g>
		<g>
			<path fill="#E8B3B3" d="M131.46,41.629l-5.424-3.282c-0.458-0.274-0.4-0.754,0.129-1.073l5.169-3.133
				c0.529-0.318,1.327-0.353,1.786-0.076l5.423,3.282c0.458,0.275,0.4,0.754-0.129,1.073l-5.169,3.133
				C132.718,41.871,131.918,41.904,131.46,41.629z"/>
			<g>
				<path fill="#771818" d="M140.627,31.107L140.627,31.107v-1.437l-7.333-0.003l0.051-0.002c-0.582-0.349-1.599-0.306-2.27,0.098
					l0.217-0.095l-7.34-0.003v1.533c-0.016,0.236,0.111,0.465,0.389,0.633l6.893,4.171c0.582,0.349,1.598,0.305,2.269-0.098
					l6.569-3.982C140.462,31.689,140.649,31.387,140.627,31.107z"/>
				<path fill="#A83939" d="M132.293,29.431c-0.426,0.011-0.868,0.122-1.217,0.333l0.217-0.095l-7.34-0.003v1.533
					c-0.016,0.236,0.111,0.465,0.389,0.633l6.893,4.171c0.28,0.167,0.66,0.244,1.053,0.234L132.293,29.431z"/>
				<path fill="#E8B3B3" d="M124.784,29.666h-0.831v1.533c-0.016,0.236,0.111,0.465,0.389,0.633l0.442,0.265V29.666z"/>
				<path fill="#872727" d="M131.382,36.076c0.502,0.224,1.227,0.211,1.814-0.021v-2.007h-1.814V36.076z"/>
				<path fill="#FFD7D7" d="M131.236,34.48l-6.893-4.171c-0.582-0.349-0.509-0.96,0.164-1.364l6.569-3.981
					c0.671-0.404,1.688-0.447,2.27-0.099l6.893,4.171c0.582,0.349,0.509,0.96-0.164,1.364l-6.569,3.982
					C132.833,34.786,131.818,34.831,131.236,34.48z"/>
				<g>
					<path fill="#FFFFFF" d="M132.573,28.882l-2.027-1.228c-0.271-0.162-0.271-0.427,0-0.589s0.711-0.162,0.98,0l2.027,1.226
						c0.271,0.162,0.271,0.427,0,0.589C133.282,29.043,132.842,29.043,132.573,28.882z"/>
				</g>
				<g>
					<path fill="#FFFFFF" d="M135.518,30.673l-1.231-0.755c-0.271-0.162-0.271-0.427,0-0.589c0.271-0.162,0.711-0.162,0.98,0
						l1.231,0.754c0.271,0.162,0.271,0.427,0,0.589C136.229,30.836,135.789,30.836,135.518,30.673z"/>
				</g>
				<g>
					<path fill="#FFFFFF" d="M129.731,29.635L128.5,28.88c-0.271-0.162-0.271-0.427,0-0.589c0.271-0.162,0.711-0.162,0.98,0
						l1.231,0.754c0.271,0.162,0.271,0.427,0,0.589C130.44,29.796,130.002,29.796,129.731,29.635z"/>
				</g>
			</g>
		</g>
	</g>
	<path fill="#E8B3B3" d="M187.262,73.238l-38.467-23.102c-1.089-0.653-2.989-0.571-4.245,0.184l-26.195,15.725
		c-1.256,0.755-1.393,1.896-0.305,2.55l13.225,7.941c-1.049,0.097-2.06,0.384-2.869,0.869c-2.014,1.211-2.014,3.173,0,4.382
		c2.015,1.211,5.282,1.211,7.296,0c0.809-0.485,1.288-1.093,1.447-1.722l3.125,1.876c-0.651,0.154-1.26,0.388-1.785,0.704
		c-2.057,1.234-2.057,3.236,0,4.471c2.056,1.235,5.389,1.235,7.443,0c0.525-0.316,0.915-0.682,1.173-1.073l9.412,5.653
		c1.09,0.653,2.99,0.571,4.246-0.184l26.194-15.726C188.215,75.033,188.352,73.891,187.262,73.238z"/>
	<g>
		<path fill="#771818" d="M197.696,25.724l-40.063-24.06c-0.465-0.28-0.938-0.322-1.358-0.173l0.002-0.003l-0.073,0.029
			c-0.005,0.001-0.012,0.003-0.018,0.007L154.738,2.1l1.3,0.662c-0.005,0.025-0.013,0.047-0.019,0.073l-6.525,30.896
			c-0.327,1.545,0.327,3.351,1.46,4.033l39.1,23.48l-0.141,1.723l1.582-0.638c0.531-0.259,0.957-0.844,1.133-1.677l6.525-30.896
			C199.483,28.209,198.829,26.404,197.696,25.724z"/>
		<path fill="#A83939" d="M197.696,25.724l-40.063-24.06c-0.465-0.28-0.938-0.322-1.358-0.173l0.002-0.003l-0.073,0.029
			c-0.005,0.001-0.012,0.003-0.018,0.007L154.738,2.1l1.3,0.662c-0.005,0.025-0.013,0.047-0.019,0.073l-4.299,20.364l19.602,15.885
			l27.64-11.698C198.696,26.667,198.254,26.058,197.696,25.724z"/>
		<path fill="#872727" d="M196.186,30.473l3.049-1.351c0.057-1.229-0.433-2.499-1.236-3.177l-4.827,2.113L196.186,30.473z"/>
		<path fill="#FFD7D7" d="M188.523,62.802l-40.062-24.058c-1.133-0.68-1.788-2.485-1.46-4.033l6.525-30.896
			c0.327-1.545,1.511-2.247,2.644-1.567l40.063,24.06c1.133,0.68,1.787,2.486,1.46,4.033l-6.525,30.896
			C190.842,62.781,189.658,63.483,188.523,62.802z"/>
		<path fill="#FFFFFF" d="M187.656,60.504l-37.678-22.617c-1.036-0.624-1.636-2.274-1.336-3.689l5.972-28.273
			c0.298-1.415,1.381-2.056,2.418-1.435l37.678,22.617c1.037,0.624,1.637,2.274,1.336,3.689l-5.971,28.273
			C189.776,60.485,188.693,61.127,187.656,60.504z"/>
		<path fill="#FFFFFF" d="M187.656,60.504l-37.678-22.617c-1.036-0.624-1.636-2.274-1.336-3.689l5.972-28.273
			c0.298-1.415,1.381-2.056,2.418-1.435l37.678,22.617c1.037,0.624,1.637,2.274,1.336,3.689l-5.971,28.273
			C189.776,60.485,188.693,61.127,187.656,60.504z"/>
		<path fill="#771818" d="M189.076,63.852l-5.477-0.754l-35.349-21.229c-1.133-0.68-3.113-0.595-4.422,0.191L118.78,57.098
			l-3.311-0.454v1.954h0.003c-0.022,0.451,0.226,0.886,0.76,1.208l40.064,24.06c1.133,0.68,3.112,0.595,4.422-0.19l27.279-16.376
			c0.736-0.442,1.104-1.012,1.082-1.548l0,0v-1.899H189.076z"/>
		<path fill="#A83939" d="M162.517,50.437l-2.511-1.509h-27.613l-13.613,8.168l-3.311-0.454v1.954h0.003
			c-0.022,0.451,0.226,0.887,0.76,1.208l40.064,24.06c0.598,0.36,1.434,0.504,2.281,0.445L162.517,50.437z"/>
		<path fill="#CC5858" d="M116.938,56.844l-1.469-0.202v1.954h0.003c-0.022,0.451,0.226,0.887,0.76,1.208l0.705,0.424V56.844z"/>
		<path fill="#872727" d="M156.698,84.059c1.075,0.424,2.61,0.33,3.757-0.242v-4.359h-3.757V84.059z"/>
		<path fill="#FFD7D7" d="M156.295,81.911l-40.064-24.059c-1.133-0.68-0.991-1.869,0.318-2.654l27.28-16.376
			c1.309-0.786,3.289-0.871,4.422-0.191l40.063,24.061c1.133,0.68,0.991,1.869-0.318,2.654l-27.279,16.376
			C159.407,82.508,157.428,82.593,156.295,81.911z"/>
		<g>
			<path fill="#173D7A" d="M133.271,49.887l-1.813-1.089c-0.146-0.087-0.127-0.24,0.04-0.342l2.14-1.286
				c0.167-0.102,0.422-0.113,0.567-0.023l1.813,1.089c0.146,0.087,0.127,0.24-0.04,0.342l-2.14,1.286
				C133.671,49.964,133.417,49.975,133.271,49.887z"/>
			<path fill="#771818" d="M136.071,51.569l-1.813-1.089c-0.146-0.087-0.127-0.24,0.04-0.342l2.14-1.286
				c0.167-0.102,0.422-0.112,0.567-0.023l1.813,1.089c0.146,0.087,0.127,0.24-0.04,0.342l-2.14,1.285
				C136.469,51.646,136.216,51.656,136.071,51.569z"/>
			<path fill="#771818" d="M138.869,53.249l-1.813-1.089c-0.145-0.088-0.127-0.24,0.04-0.342l2.14-1.285
				c0.167-0.103,0.422-0.113,0.567-0.023l1.813,1.088c0.146,0.088,0.127,0.24-0.04,0.342l-2.14,1.286
				C139.269,53.326,139.015,53.336,138.869,53.249z"/>
			<path fill="#771818" d="M142.742,51.861l-1.813-1.088c-0.146-0.088-0.127-0.24,0.04-0.343l1.796-1.078
				c0.167-0.102,0.422-0.112,0.567-0.023l1.813,1.089c0.146,0.088,0.127,0.24-0.04,0.342l-1.796,1.078
				C143.14,51.938,142.887,51.949,142.742,51.861z"/>
			<path fill="#771818" d="M145.54,53.542l-1.813-1.089c-0.145-0.088-0.127-0.24,0.04-0.342l1.796-1.078
				c0.167-0.103,0.422-0.113,0.567-0.023l1.813,1.088c0.145,0.088,0.127,0.24-0.04,0.342l-1.796,1.078
				C145.94,53.618,145.686,53.629,145.54,53.542z"/>
			<path fill="#173D7A" d="M148.34,55.224l-1.813-1.089c-0.146-0.088-0.127-0.24,0.04-0.342l1.796-1.078
				c0.167-0.102,0.422-0.113,0.567-0.023l1.813,1.088c0.145,0.088,0.127,0.24-0.041,0.343l-1.796,1.078
				C148.74,55.3,148.485,55.311,148.34,55.224z"/>
			<path fill="#173D7A" d="M151.139,56.904l-1.813-1.09c-0.146-0.088-0.127-0.24,0.04-0.342l1.797-1.078
				c0.167-0.1,0.422-0.113,0.566-0.023l1.813,1.089c0.146,0.087,0.127,0.24-0.04,0.342l-1.797,1.078
				C151.538,56.98,151.283,56.99,151.139,56.904z"/>
			<path fill="#771818" d="M153.938,58.586l-1.813-1.09c-0.145-0.087-0.127-0.24,0.041-0.342l1.796-1.078
				c0.167-0.1,0.422-0.112,0.567-0.023l1.813,1.089c0.146,0.087,0.127,0.24-0.04,0.342l-1.796,1.079
				C154.338,58.662,154.084,58.673,153.938,58.586z"/>
			<path fill="#771818" d="M156.738,60.268l-1.813-1.09c-0.146-0.087-0.127-0.24,0.039-0.342l1.797-1.078
				c0.168-0.102,0.422-0.112,0.567-0.023l1.813,1.09c0.146,0.087,0.128,0.239-0.04,0.342l-1.796,1.078
				C157.139,60.344,156.884,60.354,156.738,60.268z"/>
			<path fill="#771818" d="M159.536,61.947l-1.813-1.089c-0.146-0.087-0.128-0.24,0.04-0.342l1.797-1.079
				c0.166-0.102,0.422-0.111,0.566-0.023l1.813,1.09c0.146,0.087,0.128,0.24-0.039,0.342l-1.797,1.078
				C159.937,62.023,159.682,62.035,159.536,61.947z"/>
			<path fill="#771818" d="M162.336,63.629l-1.813-1.089c-0.145-0.087-0.127-0.24,0.04-0.342l1.796-1.078
				c0.168-0.103,0.422-0.112,0.568-0.024l1.813,1.09c0.145,0.088,0.127,0.24-0.04,0.342l-1.796,1.078
				C162.736,63.705,162.482,63.717,162.336,63.629z"/>
			<path fill="#771818" d="M165.137,65.309l-1.813-1.088c-0.146-0.088-0.128-0.24,0.039-0.343l1.797-1.078
				c0.167-0.102,0.422-0.112,0.566-0.023l1.813,1.089c0.146,0.088,0.128,0.24-0.04,0.342l-1.797,1.078
				C165.535,65.385,165.281,65.396,165.137,65.309z"/>
			<path fill="#771818" d="M167.935,66.99l-1.813-1.088c-0.146-0.088-0.128-0.24,0.04-0.342l1.796-1.078
				c0.167-0.103,0.422-0.113,0.567-0.024l1.813,1.089c0.146,0.088,0.127,0.24-0.039,0.342l-1.797,1.078
				C168.334,67.067,168.08,67.078,167.935,66.99z"/>
			<path fill="#A83939" d="M146.865,51.065l-1.813-1.089c-0.146-0.087-0.127-0.24,0.04-0.342l1.796-1.079
				c0.167-0.102,0.422-0.112,0.567-0.023l1.813,1.089c0.146,0.087,0.127,0.24-0.04,0.342l-1.796,1.078
				C147.266,51.142,147.011,51.152,146.865,51.065z"/>
			<path fill="#A83939" d="M144.023,49.358l-1.813-1.089c-0.146-0.087-0.127-0.24,0.04-0.342l1.796-1.078
				c0.167-0.102,0.422-0.113,0.567-0.023l1.813,1.089c0.146,0.087,0.127,0.24-0.04,0.342l-1.796,1.078
				C144.424,49.435,144.171,49.445,144.023,49.358z"/>
			<path fill="#771818" d="M141.178,47.649l-3.904-2.343c-0.146-0.087-0.127-0.24,0.04-0.342l1.796-1.079
				c0.167-0.102,0.422-0.112,0.567-0.023l3.904,2.344c0.145,0.087,0.127,0.24-0.04,0.342l-1.796,1.078
				C141.578,47.726,141.324,47.738,141.178,47.649z"/>
			<path fill="#771818" d="M143.167,45.571L140,43.669c-0.146-0.087-0.127-0.24,0.04-0.342l1.796-1.078
				c0.167-0.102,0.422-0.113,0.567-0.023l3.169,1.902c0.146,0.087,0.127,0.24-0.04,0.342l-1.796,1.078
				C143.567,45.647,143.313,45.658,143.167,45.571z"/>
			<path fill="#396CAA" d="M149.666,52.746l-1.813-1.09c-0.146-0.087-0.127-0.24,0.04-0.342l1.796-1.078
				c0.167-0.102,0.422-0.113,0.567-0.023l1.813,1.089c0.146,0.087,0.127,0.24-0.04,0.342l-1.796,1.078
				C150.065,52.822,149.811,52.832,149.666,52.746z"/>
			<path fill="#771818" d="M152.464,54.428l-1.813-1.09c-0.145-0.087-0.127-0.24,0.041-0.342l1.796-1.078
				c0.167-0.102,0.422-0.112,0.567-0.023l1.813,1.089c0.146,0.087,0.127,0.24-0.04,0.343l-1.796,1.078
				C152.863,54.504,152.609,54.515,152.464,54.428z"/>
			<path fill="#771818" d="M155.264,56.109l-1.813-1.09c-0.146-0.087-0.127-0.24,0.039-0.342l1.797-1.078
				c0.168-0.102,0.422-0.112,0.567-0.023l1.813,1.09c0.145,0.087,0.127,0.239-0.041,0.342l-1.796,1.078
				C155.664,56.186,155.409,56.196,155.264,56.109z"/>
			<path fill="#771818" d="M158.063,57.789l-1.813-1.089c-0.146-0.087-0.128-0.24,0.04-0.342l1.797-1.079
				c0.166-0.102,0.422-0.111,0.566-0.023l1.813,1.09c0.146,0.087,0.128,0.24-0.039,0.342l-1.797,1.078
				C158.462,57.865,158.209,57.877,158.063,57.789z"/>
			<path fill="#771818" d="M160.861,59.471l-1.813-1.089c-0.145-0.087-0.127-0.24,0.04-0.342l1.796-1.078
				c0.168-0.103,0.422-0.112,0.568-0.024l1.813,1.09c0.146,0.088,0.127,0.24-0.04,0.342l-1.796,1.078
				C161.262,59.547,161.008,59.559,160.861,59.471z"/>
			<path fill="#771818" d="M163.662,61.15l-1.813-1.088c-0.146-0.088-0.128-0.24,0.039-0.342l1.797-1.079
				c0.167-0.102,0.422-0.112,0.567-0.023l1.813,1.089c0.146,0.088,0.128,0.24-0.04,0.342l-1.797,1.078
				C164.063,61.227,163.807,61.238,163.662,61.15z"/>
			<path fill="#771818" d="M166.46,62.832l-1.813-1.088c-0.146-0.088-0.128-0.24,0.04-0.342l1.796-1.078
				c0.167-0.101,0.422-0.113,0.567-0.024l1.813,1.089c0.146,0.088,0.127,0.24-0.039,0.342l-1.797,1.078
				C166.859,62.909,166.607,62.92,166.46,62.832z"/>
			<path fill="#771818" d="M169.26,64.515l-1.813-1.089c-0.146-0.088-0.127-0.24,0.04-0.342l1.796-1.078
				c0.168-0.102,0.422-0.113,0.568-0.023l1.813,1.088c0.145,0.088,0.127,0.24-0.041,0.342l-1.796,1.078
				C169.66,64.591,169.405,64.602,169.26,64.515z"/>
			<path fill="#771818" d="M172.061,66.194l-1.813-1.089c-0.146-0.088-0.127-0.24,0.04-0.342l1.797-1.078
				c0.167-0.102,0.422-0.113,0.566-0.023l1.813,1.089c0.146,0.087,0.127,0.239-0.04,0.342l-1.797,1.078
				C172.46,66.271,172.205,66.281,172.061,66.194z"/>
			<path fill="#771818" d="M177.036,69.184l-3.954-2.375c-0.146-0.087-0.127-0.239,0.04-0.342l1.796-1.078
				c0.168-0.102,0.422-0.112,0.567-0.023l3.954,2.375c0.146,0.087,0.128,0.24-0.039,0.342l-1.797,1.078
				C177.437,69.26,177.182,69.271,177.036,69.184z"/>
			<path fill="#771818" d="M182.485,65.911l-3.338-2.006c-0.146-0.087-0.128-0.239,0.04-0.342l1.796-1.078
				c0.167-0.102,0.422-0.112,0.567-0.023l3.338,2.005c0.146,0.088,0.128,0.24-0.039,0.342l-1.797,1.078
				C182.885,65.987,182.631,65.998,182.485,65.911z"/>
			<path fill="#771818" d="M154.567,52.416l-1.813-1.089c-0.145-0.087-0.127-0.239,0.041-0.342l1.796-1.078
				c0.167-0.102,0.422-0.113,0.567-0.023l1.813,1.089c0.146,0.088,0.127,0.24-0.04,0.342l-1.796,1.078
				C154.967,52.494,154.713,52.506,154.567,52.416z"/>
			<path fill="#771818" d="M151.698,50.694l-1.813-1.089c-0.145-0.087-0.127-0.24,0.04-0.342l1.796-1.078
				c0.167-0.102,0.422-0.113,0.567-0.024l1.813,1.089c0.146,0.087,0.127,0.24-0.039,0.342l-1.797,1.078
				C152.098,50.771,151.844,50.781,151.698,50.694z"/>
			<path fill="#A83939" d="M148.829,48.971l-1.813-1.089c-0.146-0.087-0.127-0.24,0.04-0.342l1.796-1.078
				c0.167-0.102,0.422-0.113,0.567-0.024l1.813,1.089c0.146,0.087,0.127,0.24-0.039,0.342l-1.797,1.078
				C149.229,49.047,148.975,49.058,148.829,48.971z"/>
			<path fill="#771818" d="M145.96,47.249l-1.813-1.089c-0.146-0.087-0.127-0.24,0.04-0.342l1.796-1.078
				c0.167-0.102,0.422-0.113,0.567-0.024l1.813,1.089c0.146,0.087,0.127,0.24-0.04,0.342l-1.796,1.078
				C146.36,47.326,146.105,47.336,145.96,47.249z"/>
			<path fill="#771818" d="M157.367,54.098l-1.813-1.088c-0.146-0.088-0.127-0.24,0.04-0.342l1.796-1.079
				c0.168-0.102,0.422-0.112,0.567-0.023l1.813,1.089c0.145,0.088,0.127,0.24-0.041,0.342l-1.796,1.078
				C157.766,54.175,157.513,54.186,157.367,54.098z"/>
			<path fill="#771818" d="M160.166,55.779l-1.813-1.088c-0.146-0.088-0.127-0.24,0.04-0.342l1.797-1.078
				c0.167-0.103,0.422-0.113,0.566-0.024l1.813,1.089c0.146,0.088,0.127,0.24-0.04,0.342l-1.797,1.078
				C160.565,55.856,160.311,55.867,160.166,55.779z"/>
			<path fill="#771818" d="M162.965,57.46l-1.813-1.089c-0.145-0.088-0.127-0.24,0.041-0.342l1.796-1.078
				c0.167-0.102,0.422-0.113,0.567-0.023l1.813,1.089c0.146,0.087,0.127,0.239-0.04,0.342l-1.796,1.078
				C163.365,57.536,163.111,57.547,162.965,57.46z"/>
			<path fill="#771818" d="M165.764,59.142l-1.813-1.089c-0.146-0.088-0.127-0.24,0.039-0.342l1.797-1.078
				c0.168-0.102,0.422-0.113,0.567-0.023l1.813,1.089c0.145,0.087,0.127,0.239-0.041,0.342l-1.796,1.078
				C166.164,59.219,165.909,59.229,165.764,59.142z"/>
			<path fill="#771818" d="M168.563,60.822l-1.813-1.09c-0.146-0.087-0.128-0.24,0.04-0.342l1.797-1.078
				c0.166-0.102,0.422-0.112,0.566-0.023l1.813,1.089c0.146,0.087,0.128,0.24-0.039,0.343l-1.797,1.078
				C168.964,60.9,168.709,60.911,168.563,60.822z"/>
			<path fill="#771818" d="M171.363,62.504l-1.813-1.09c-0.146-0.087-0.127-0.239,0.04-0.342l1.796-1.078
				c0.168-0.102,0.422-0.112,0.568-0.023l1.813,1.09c0.145,0.087,0.127,0.239-0.041,0.342l-1.796,1.078
				C171.764,62.58,171.51,62.591,171.363,62.504z"/>
			<path fill="#771818" d="M174.162,64.186l-1.813-1.09c-0.146-0.086-0.128-0.239,0.039-0.342l1.797-1.078
				c0.167-0.102,0.422-0.112,0.567-0.023l1.813,1.09c0.146,0.087,0.128,0.24-0.04,0.342l-1.797,1.078
				C174.563,64.262,174.307,64.273,174.162,64.186z"/>
			<path fill="#771818" d="M176.962,65.865l-1.813-1.089c-0.145-0.087-0.127-0.24,0.041-0.342l1.796-1.078
				c0.167-0.103,0.422-0.112,0.567-0.024l1.813,1.09c0.146,0.088,0.127,0.24-0.039,0.342l-1.797,1.078
				C177.361,65.941,177.107,65.953,176.962,65.865z"/>
			<path fill="#771818" d="M179.762,67.547l-1.813-1.089c-0.146-0.087-0.127-0.239,0.04-0.342l1.796-1.078
				c0.168-0.101,0.422-0.112,0.567-0.023l1.813,1.089c0.145,0.088,0.127,0.24-0.041,0.342l-1.796,1.078
				C180.16,67.623,179.907,67.635,179.762,67.547z"/>
			<path fill="#771818" d="M153.093,48.26l-1.813-1.089c-0.145-0.087-0.127-0.24,0.041-0.342l1.796-1.078
				c0.167-0.102,0.422-0.113,0.567-0.024l1.813,1.089c0.146,0.087,0.127,0.24-0.039,0.342l-1.797,1.078
				C153.492,48.336,153.238,48.347,153.093,48.26z"/>
			<path fill="#771818" d="M150.307,46.587l-1.813-1.089c-0.146-0.087-0.127-0.24,0.04-0.342l1.796-1.078
				c0.167-0.102,0.422-0.113,0.567-0.023l1.813,1.089c0.146,0.087,0.127,0.24-0.04,0.342l-1.796,1.078
				C150.707,46.664,150.453,46.675,150.307,46.587z"/>
			<path fill="#771818" d="M147.522,44.915l-1.813-1.089c-0.146-0.087-0.127-0.24,0.04-0.342l1.796-1.078
				c0.167-0.102,0.422-0.112,0.567-0.023l1.813,1.089c0.146,0.087,0.127,0.24-0.04,0.342l-1.796,1.079
				C147.922,44.991,147.667,45.002,147.522,44.915z"/>
			<path fill="#771818" d="M144.736,43.242l-1.813-1.089c-0.146-0.087-0.127-0.24,0.04-0.342l1.796-1.078
				c0.167-0.102,0.422-0.113,0.567-0.024l1.813,1.089c0.146,0.087,0.127,0.24-0.04,0.342l-1.796,1.078
				C145.136,43.318,144.882,43.329,144.736,43.242z"/>
			<path fill="#771818" d="M147.602,41.52l-1.813-1.089c-0.146-0.087-0.127-0.24,0.04-0.342l0.595-0.356
				c0.167-0.102,0.422-0.113,0.567-0.024l1.813,1.089c0.146,0.087,0.127,0.24-0.04,0.342l-0.595,0.356
				C148.002,41.598,147.747,41.609,147.602,41.52z"/>
			<path fill="#771818" d="M151.236,43.704l-1.813-1.089c-0.146-0.087-0.127-0.24,0.04-0.342l0.594-0.356
				c0.167-0.102,0.422-0.113,0.567-0.024l1.813,1.089c0.146,0.087,0.128,0.24-0.039,0.342l-0.595,0.356
				C151.637,43.78,151.382,43.791,151.236,43.704z"/>
			<path fill="#771818" d="M154.01,45.369l-1.813-1.089c-0.146-0.087-0.127-0.24,0.04-0.342l0.595-0.356
				c0.167-0.102,0.422-0.113,0.567-0.024l1.813,1.089c0.146,0.087,0.127,0.24-0.04,0.342l-0.595,0.356
				C154.409,45.445,154.154,45.457,154.01,45.369z"/>
			<path fill="#771818" d="M156.783,47.035l-1.813-1.089c-0.145-0.087-0.127-0.24,0.04-0.342l0.595-0.356
				c0.168-0.102,0.422-0.112,0.567-0.023l1.813,1.089c0.146,0.087,0.128,0.24-0.04,0.342l-0.594,0.356
				C157.184,47.111,156.93,47.122,156.783,47.035z"/>
			<path fill="#771818" d="M159.559,48.702l-1.813-1.089c-0.146-0.087-0.128-0.24,0.039-0.342l0.595-0.356
				c0.167-0.102,0.422-0.113,0.567-0.023l1.813,1.089c0.146,0.087,0.127,0.24-0.039,0.342l-0.596,0.356
				C159.957,48.778,159.703,48.789,159.559,48.702z"/>
			<path fill="#771818" d="M175.043,58l-1.813-1.089c-0.145-0.087-0.127-0.24,0.041-0.342l0.594-0.356
				c0.168-0.102,0.422-0.113,0.567-0.023l1.813,1.089c0.145,0.087,0.127,0.239-0.041,0.342l-0.594,0.356
				C175.443,58.076,175.189,58.088,175.043,58z"/>
			<path fill="#771818" d="M177.816,59.668l-1.813-1.09c-0.146-0.088-0.127-0.24,0.039-0.342l0.596-0.356
				c0.167-0.102,0.422-0.112,0.566-0.023l1.813,1.089c0.146,0.088,0.128,0.24-0.039,0.342l-0.595,0.356
				C178.217,59.744,177.962,59.754,177.816,59.668z"/>
			<path fill="#771818" d="M180.591,61.332l-1.813-1.088c-0.146-0.088-0.128-0.24,0.04-0.342l0.594-0.357
				c0.168-0.102,0.422-0.112,0.568-0.023l1.813,1.09c0.145,0.087,0.127,0.24-0.04,0.342l-0.595,0.355
				C180.99,61.409,180.736,61.42,180.591,61.332z"/>
			<path fill="#771818" d="M183.363,62.998l-1.813-1.089c-0.146-0.087-0.127-0.24,0.04-0.342l0.595-0.356
				c0.167-0.102,0.422-0.113,0.567-0.023l1.813,1.089c0.146,0.087,0.128,0.24-0.04,0.342l-0.595,0.356
				C183.764,63.074,183.511,63.086,183.363,62.998z"/>
			<path fill="#771818" d="M155.893,49.94l-1.813-1.089c-0.146-0.087-0.127-0.24,0.04-0.342l1.796-1.079
				c0.168-0.102,0.422-0.112,0.567-0.023l1.813,1.089c0.145,0.087,0.127,0.24-0.041,0.342l-1.796,1.078
				C156.293,50.017,156.038,50.027,155.893,49.94z"/>
			<path fill="#771818" d="M158.691,51.622l-1.813-1.089c-0.146-0.088-0.128-0.24,0.039-0.342l1.797-1.078
				c0.167-0.1,0.422-0.113,0.566-0.024l1.813,1.089c0.146,0.087,0.127,0.24-0.04,0.341l-1.797,1.078
				C159.091,51.698,158.838,51.709,158.691,51.622z"/>
			<path fill="#771818" d="M161.49,53.302l-1.813-1.089c-0.145-0.088-0.127-0.24,0.041-0.342l1.796-1.078
				c0.167-0.102,0.422-0.113,0.567-0.023l1.813,1.089c0.146,0.087,0.127,0.239-0.04,0.342l-1.796,1.078
				C161.891,53.378,161.637,53.389,161.49,53.302z"/>
			<path fill="#771818" d="M164.291,54.983l-1.813-1.089c-0.146-0.088-0.127-0.24,0.039-0.342l1.797-1.078
				c0.168-0.102,0.422-0.113,0.567-0.023l1.813,1.089c0.146,0.087,0.128,0.239-0.04,0.342l-1.796,1.078
				C164.691,55.061,164.437,55.07,164.291,54.983z"/>
			<path fill="#771818" d="M167.089,56.666l-1.813-1.09c-0.146-0.087-0.128-0.24,0.04-0.342l1.797-1.078
				c0.166-0.102,0.422-0.113,0.566-0.023l1.813,1.089c0.146,0.087,0.128,0.24-0.039,0.342l-1.797,1.078
				C167.489,56.742,167.234,56.753,167.089,56.666z"/>
			<path fill="#771818" d="M169.889,58.346l-1.813-1.09c-0.145-0.087-0.127-0.239,0.04-0.342l1.796-1.078
				c0.168-0.1,0.422-0.112,0.568-0.023l1.813,1.09c0.145,0.087,0.127,0.239-0.04,0.342l-1.796,1.078
				C170.289,58.422,170.035,58.433,169.889,58.346z"/>
			<path fill="#771818" d="M172.689,60.027l-1.813-1.09c-0.146-0.086-0.128-0.239,0.039-0.342l1.797-1.078
				c0.167-0.1,0.422-0.112,0.566-0.023l1.813,1.09c0.146,0.087,0.128,0.24-0.04,0.342l-1.797,1.078
				C173.088,60.104,172.834,60.115,172.689,60.027z"/>
			<path fill="#771818" d="M175.487,61.707l-1.813-1.089c-0.145-0.087-0.127-0.24,0.041-0.342l1.796-1.078
				c0.167-0.103,0.422-0.112,0.567-0.023l1.813,1.089c0.146,0.088,0.127,0.24-0.039,0.342l-1.797,1.078
				C175.887,61.783,175.633,61.795,175.487,61.707z"/>
			<path fill="#771818" d="M178.287,63.389l-1.813-1.089c-0.146-0.087-0.127-0.239,0.04-0.342l1.796-1.078
				c0.168-0.102,0.422-0.112,0.568-0.023l1.813,1.089c0.145,0.088,0.127,0.24-0.041,0.342l-1.796,1.078
				C178.688,63.465,178.433,63.477,178.287,63.389z"/>
			<path fill="#771818" d="M139.889,50.147l-5.338-3.206c-0.146-0.087-0.127-0.24,0.04-0.342l1.796-1.078
				c0.167-0.102,0.422-0.113,0.567-0.024l5.338,3.206c0.145,0.087,0.127,0.24-0.04,0.342l-1.796,1.078
				C140.287,50.224,140.035,50.234,139.889,50.147z"/>
			<path fill="#771818" d="M174.278,70.8l-5.339-3.205c-0.145-0.087-0.127-0.24,0.041-0.342l1.796-1.078
				c0.167-0.103,0.422-0.112,0.567-0.024l5.338,3.206c0.146,0.087,0.127,0.239-0.04,0.342l-1.796,1.078
				C174.678,70.877,174.424,70.887,174.278,70.8z"/>
			<path fill="#771818" d="M163.084,67.791l-1.813-1.09c-0.146-0.086-0.128-0.239,0.039-0.342l2.141-1.285
				c0.167-0.102,0.422-0.112,0.566-0.023l1.813,1.09c0.146,0.086,0.127,0.239-0.04,0.342l-2.141,1.285
				C163.483,67.867,163.229,67.878,163.084,67.791z"/>
			<path fill="#771818" d="M142.754,55.584l-2.898-1.742c-0.146-0.088-0.127-0.24,0.04-0.342l2.14-1.285
				c0.167-0.102,0.422-0.113,0.567-0.023l2.898,1.741c0.146,0.087,0.127,0.24-0.04,0.342l-2.14,1.286
				C143.155,55.66,142.9,55.671,142.754,55.584z"/>
			<path fill="#771818" d="M160.387,66.171l-2.897-1.741c-0.146-0.088-0.128-0.24,0.04-0.342l2.14-1.286
				c0.167-0.102,0.422-0.112,0.567-0.023l2.898,1.741c0.145,0.088,0.127,0.24-0.04,0.342l-2.14,1.286
				C160.785,66.247,160.533,66.258,160.387,66.171z"/>
			<path fill="#173D7A" d="M146.794,58.008l-2.898-1.742c-0.146-0.088-0.127-0.24,0.04-0.342l2.14-1.285
				c0.167-0.103,0.422-0.113,0.567-0.023l2.898,1.741c0.146,0.087,0.127,0.239-0.04,0.342l-2.14,1.285
				C147.193,58.086,146.94,58.096,146.794,58.008z"/>
			<path fill="#771818" d="M146.662,54.629l12.604,7.569c0.156,0.095,0.156,0.245,0,0.34l-2.182,1.312
				c-0.156,0.094-0.41,0.094-0.566,0l-12.603-7.57L146.662,54.629z"/>
			<path fill="#771818" d="M170.907,70.838l2.021,1.213c0.119,0.071,0.104,0.196-0.033,0.28l-0.875,0.525
				c-0.138,0.083-0.346,0.091-0.465,0.021l-2.02-1.213c-0.121-0.071-0.104-0.197,0.032-0.28l0.874-0.525
				C170.58,70.776,170.787,70.768,170.907,70.838z"/>
			<path fill="#771818" d="M168.086,69.144l2.02,1.213c0.12,0.071,0.104,0.196-0.033,0.28l-0.874,0.525
				c-0.138,0.082-0.346,0.091-0.466,0.02l-2.02-1.213c-0.12-0.07-0.104-0.195,0.033-0.279l0.874-0.525
				C167.756,69.082,167.965,69.072,168.086,69.144z"/>
			<path fill="#771818" d="M165.285,67.464l2.021,1.212c0.12,0.071,0.104,0.197-0.032,0.281l-0.875,0.525
				c-0.139,0.081-0.346,0.09-0.466,0.02l-2.021-1.213c-0.119-0.07-0.104-0.196,0.033-0.279l0.875-0.526
				C164.958,67.4,165.166,67.391,165.285,67.464z"/>
			<path fill="#771818" d="M169.631,68.217l2.02,1.213c0.121,0.07,0.104,0.195-0.032,0.279l-0.874,0.525
				c-0.139,0.082-0.346,0.092-0.466,0.02l-2.021-1.212c-0.119-0.071-0.104-0.196,0.033-0.28l0.875-0.525
				C169.304,68.152,169.511,68.144,169.631,68.217z"/>
		</g>
	</g>
	<g>
		<path fill="#4C0202" d="M129.331,41.367c0,0,0.134,2.886,0.345,4.826s4.702-1.489,4.702-1.489v-2.209L129.331,41.367z"/>
		<g>
			<path fill="#771818" d="M131.724,77.274c0.067,0.175,1.231,1.649,2.395,2.017c0.505,0.16,0.846,0.182,1.069,0.152
				c0.224-0.027,0.362-0.268,0.287-0.488c-0.2-0.586-0.774-1.808-2.233-2.561C131.267,75.38,131.724,77.274,131.724,77.274z"/>
			<path fill="#771818" d="M131.334,77.842c0,0,0.438,1.069,0.573,1.965c0.082,0.546-0.206,1.256-0.442,1.725
				c-0.147,0.291-0.52,0.355-0.754,0.137c-0.38-0.359-0.864-0.982-0.944-1.879c-0.134-1.51,0-1.771,0-1.771L131.334,77.842z"/>
			<path fill="#FFD7D7" d="M128.533,59.609c0,0-0.151,1.903,0,4.007c0.151,2.105,0.694,11.949,0.796,14.316
				c0,0-0.051,0.716,1.284,0.56c1.334-0.158,1.227-0.954,1.227-0.954s1.875-0.025,1.933-1.175c0.058-1.148,1.92-13.72,1.92-18.24
				L128.533,59.609z"/>
			<g>
				<path fill="#FFC2B0" d="M136.385,49.769l0.918,1.48l3.156,3.966c0,0-0.109,0.367-0.502,0.463
					c-0.307,0.075-2.961-2.558-4.107-3.714c-0.306-0.308-0.354-0.796-0.122-1.164L136.385,49.769z"/>
				<path fill="#8C2A2A" d="M134.593,43.698c0,0,1.458-0.04,1.965,2.153c0.507,2.192,0.906,4.938,0.464,5.166
					c-1.326,0.685-2.164-0.116-2.164-0.116L134.593,43.698z"/>
				<path fill="#A83939" d="M135.031,43.791c-0.249-0.107-0.527-0.122-0.787-0.045c-1.242,0.371-5.915,1.798-6.684,2.481
					c-0.889,0.791,1.334,5.235,1.302,6.693c-0.033,1.457-0.189,3.175-0.314,4.758c-0.124,1.584-0.291,2.453,0.955,3.126
					c1.245,0.673,3.373,0.706,4.963-0.557c1.593-1.262,1.304-2.125,1.236-3.042c-0.065-0.916-0.609-4.878-0.562-6.002
					c0,0,0.562-0.429,0.976-1.167c0.417-0.736-0.318-2.092-0.624-2.973c-0.305-0.882,0.173-1.889,0.078-2.607
					C135.523,44.089,135.296,43.907,135.031,43.791z"/>
				<path fill="#FFFFFF" d="M133.536,45.307c0.099,0.8-0.607,1.555-1.576,1.684c-0.969,0.129-1.834-0.415-1.935-1.216
					c-0.098-0.8,0.607-1.554,1.577-1.684C132.573,43.962,133.438,44.505,133.536,45.307z"/>
				<path fill="#FFC2B0" d="M133.036,45.373c0.071,0.573-0.434,1.111-1.127,1.204s-1.311-0.296-1.382-0.869
					c-0.071-0.572,0.435-1.111,1.127-1.204C132.347,44.413,132.965,44.802,133.036,45.373z"/>
				<path fill="#FFC2B0" d="M132.347,43.495c0,0-0.844-0.722-1.009-0.356c-0.166,0.365-0.302,1.933-0.302,1.933l1.675,0.467
					l-0.254-1.589C132.457,43.951,132.793,43.656,132.347,43.495z"/>
				<path fill="#FFC2B0" d="M134.965,41.776c-0.082,1.435-1.265,2.527-2.644,2.444c-1.378-0.085-2.431-1.316-2.349-2.75
					c0.082-1.435,1.266-2.527,2.644-2.443C133.995,39.111,135.045,40.342,134.965,41.776z"/>
				<path fill="#EA9C92" d="M131.222,43.593c-0.015,0.082-0.029,0.169-0.042,0.26c0.169,0.906,1.471,1.302,1.471,1.302l-0.193-1.202
					c0,0,0.158-0.14,0.113-0.278C132.055,43.503,131.407,43.354,131.222,43.593z"/>
				<path fill="#FFC2B0" d="M134.965,41.776c-0.082,1.435-1.265,2.527-2.644,2.444c-1.378-0.085-2.431-1.316-2.349-2.75
					c0.082-1.435,1.266-2.527,2.644-2.443C133.995,39.111,135.045,40.342,134.965,41.776z"/>
				<polygon fill="#FFC2B0" points="126.307,52.633 126.587,59.595 127.565,59.698 128.202,53.433 				"/>
				<path fill="#8C2A2A" d="M129.522,52.051c-0.324-1.485-0.964-4.771-0.964-4.771l-0.272,3.265c0.314,0.97,0.585,1.859,0.574,2.373
					c-0.018,0.855-0.082,1.801-0.154,2.757v0.003C128.706,55.68,129.846,53.538,129.522,52.051z"/>
				<path fill="#A83939" d="M127.746,46.085c0,0-0.782,0.311-1.226,2.811s-0.774,5.004,0.015,5.325s1.449,0.565,1.68-0.104
					c0.233-0.669,0.376-3.889,0.406-5.047C128.651,47.911,128.693,46.314,127.746,46.085z"/>
				<path fill="#FFC2B0" d="M140.226,54.924c0,0,0.423,0.162,0.729,0.509c0.251,0.286,0.389,0.525,0.498,0.696
					c0.244,0.379,0.449,1.195,0.3,1.297c-0.149,0.102-0.999-1.369-1.135-1.027s0.002,0.658-0.174,0.664
					c-0.177,0.005-0.786-1.479-1.268-1.939C138.696,54.666,140.226,54.924,140.226,54.924z"/>
			</g>
			<path fill="#F79A9A" d="M131.84,77.538c0,0,0.233-0.003,0.535-0.058l0,0l0.367-15.303L131.84,77.538z"/>
		</g>
		<g>
			<path fill="#A83939" d="M130.424,69.273l-0.52-0.708l-5.475-3.296c-0.176-0.105-0.318-0.39-0.316-0.633l0.005-4.662l-0.314-0.428
				l0.296-0.178l0,0c0.056-0.038,0.133-0.037,0.214,0.013l6.204,3.736c0.176,0.105,0.318,0.39,0.316,0.633l-0.005,5.076
				c0,0.137-0.045,0.233-0.116,0.271l0,0L130.424,69.273z"/>
			<path fill="#F27C7C" d="M126.638,66.6l-0.389-0.234l-2.134-3.855l0.001-2.533l-0.314-0.428l0.296-0.178l0,0
				c0.056-0.039,0.133-0.037,0.214,0.013l6.204,3.736c0.092,0.056,0.176,0.161,0.234,0.284L126.638,66.6z"/>
			<path fill="#5793CE" d="M123.942,59.738l-0.14-0.189l0.296-0.178l0,0c0.056-0.039,0.133-0.037,0.214,0.013l0.109,0.065
				L123.942,59.738z"/>
			<path fill="#872727" d="M130.573,63.16c0.138,0.118,0.246,0.338,0.26,0.543l-0.605,0.364l-0.291-0.525L130.573,63.16z"/>
			<path fill="#CC5858" d="M130.22,63.297l-6.204-3.736c-0.177-0.105-0.318,0.005-0.318,0.248l-0.005,5.076
				c0,0.244,0.142,0.527,0.316,0.633l6.204,3.736c0.176,0.105,0.318-0.005,0.318-0.248l0.005-5.076
				C130.538,63.686,130.396,63.402,130.22,63.297z"/>
		</g>
		<path fill="#FFC2B0" d="M126.595,59.536c0,0-0.258,1.626-0.22,2.146s0.307,1.379,0.509,1.36c0.204-0.019,0.007-2.093,0.363-1.886
			c0.356,0.207,0.395,0.563,0.557,0.437c0.162-0.126-0.282-1.898-0.164-2.667C127.76,58.154,126.595,59.536,126.595,59.536z"/>
		<path fill="#EA9C92" d="M133.429,41.851c1.254,0.463,1.498,0.18,1.511,0.166c0.011-0.079,0.02-0.158,0.025-0.24
			c0.017-0.287-0.015-0.567-0.083-0.831l-3.254-0.456C131.627,40.489,132.14,41.375,133.429,41.851z"/>
		<path fill="#750404" d="M135.055,39.186c-0.296-0.264-1.362-1.567-3.273-1.26c-1.194,0.193-2.202,1.04-2.423,2.973
			c-0.151,1.302,0.309,2.585,1.156,3.534c0.045-0.021,0.093-0.042,0.136-0.071c0.478-0.327,0.531-0.507,0.531-0.509l0.105-0.987
			c-0.003-0.14-0.104-0.265-0.238-0.272c-0.104-0.007-0.231-0.058-0.351-0.222c-0.274-0.373-0.147-0.957,0.402-0.979
			c0.287-0.011,0.398-0.172,0.438-0.323c0.035-0.133,0.169-0.206,0.293-0.158c0.625,0.234,2.164,0.742,3.154,0.449
			C136.249,40.987,135.351,39.449,135.055,39.186z"/>
		<path fill="#FFFFFF" d="M133.629,43.025l0.766-0.218c0,0-0.365,0.598-0.898,0.749c-0.533,0.153-0.617-0.316-0.617-0.316
			L133.629,43.025z"/>
		<polygon fill="#8C2A2A" points="127.896,61.542 127.244,61.152 127.489,61.569 127.818,61.694 		"/>
	</g>
	<g>
		<g>
			<path fill="#771818" d="M145.431,82.937c0,0-0.822-0.431-1.327,0.211s-1.227,2.158-1.249,3.184
				c-0.022,1.023,0.78,0.954,1.256,0.712c0.477-0.241,1.869-2.343,1.953-2.754c0.084-0.41-0.1-0.967-0.232-1.076
				C145.696,83.102,145.431,82.937,145.431,82.937z"/>
			<path fill="#FFD7D7" d="M145.611,82.73l0.038,0.886c0.007,0.189-0.083,0.367-0.24,0.462c-0.144,0.086-0.353,0.148-0.635,0.102
				c-0.62-0.104-0.674-0.287-0.718-1.172C144.013,82.122,145.611,82.73,145.611,82.73z"/>
			<g>
				<path fill="#771818" d="M142.422,81.232c0,0-0.822-0.431-1.327,0.211c-0.506,0.643-1.228,2.158-1.249,3.184
					c-0.022,1.023,0.78,0.955,1.256,0.713c0.476-0.242,1.869-2.344,1.953-2.754c0.083-0.411-0.1-0.968-0.233-1.076
					C142.688,81.398,142.422,81.232,142.422,81.232z"/>
				<path fill="#FFD7D7" d="M142.6,81.027l0.038,0.885c0.007,0.189-0.083,0.367-0.24,0.463c-0.144,0.085-0.353,0.148-0.634,0.102
					c-0.62-0.104-0.675-0.287-0.718-1.173C141,80.416,142.6,81.027,142.6,81.027z"/>
				<path fill="#F49898" d="M149.938,64.758c-0.244-4.117-4.289,0.605-4.289,0.605l-2.769,2.822l-2.493,2.85
					c-0.487,0.556-0.713,1.307-0.62,2.053l1.009,7.986c0.049,0.395,0.375,0.686,0.756,0.682c0.107,0,0.233-0.01,0.373-0.034
					c0.9-0.146,0.833-1.034,0.833-1.034l-0.184-7.471l5.234-3.284C147.791,69.937,150.18,68.878,149.938,64.758z"/>
			</g>
			<path fill="#F49898" d="M152.947,66.329c-0.244-4.118-4.289,0.605-4.289,0.605l-2.769,2.821l-2.493,2.85
				c-0.487,0.557-0.713,1.307-0.62,2.053l1.009,7.987c0.049,0.395,0.375,0.686,0.756,0.682c0.107,0,0.232-0.011,0.373-0.034
				c0.9-0.146,0.833-1.037,0.833-1.037l-0.184-7.471l5.235-3.281C150.802,71.506,153.191,70.447,152.947,66.329z"/>
			<path fill="#A83939" d="M150.555,53.107c3.066,1.322,3.006,3.207,3.006,3.207s-0.601,6.912-0.396,11.529
				c0.085,1.929-9.858,2.076-8.375-3.07c1.749-6.072,1.093-10.986,1.911-11.729C147.518,52.306,149.762,52.766,150.555,53.107z"/>
			<path fill="#FFC2B0" d="M151.54,54.778c-0.16,0.647-0.977,0.989-1.822,0.762c-0.846-0.228-1.402-0.935-1.242-1.583
				c0.16-0.648,0.976-0.99,1.822-0.763C151.146,53.422,151.701,54.131,151.54,54.778z"/>
			<path fill="#FFFFFF" d="M150.236,55.764c-0.18,0-0.365-0.023-0.555-0.074c-0.922-0.248-1.527-1.041-1.347-1.77
				c0.089-0.361,0.353-0.648,0.742-0.813c0.373-0.156,0.82-0.177,1.26-0.061c0.921,0.248,1.527,1.041,1.347,1.77l0,0
				C151.538,55.396,150.939,55.764,150.236,55.764z M149.776,53.278c-0.209,0-0.411,0.038-0.589,0.112
				c-0.3,0.126-0.502,0.34-0.567,0.605c-0.14,0.566,0.369,1.193,1.136,1.398c0.765,0.205,1.503-0.088,1.644-0.652
				c0.14-0.566-0.369-1.191-1.137-1.396C150.1,53.3,149.935,53.278,149.776,53.278z"/>
			<path fill="#FFC2B0" d="M149.326,52.964c0,0,0.027,0.127-0.027,1.138c-0.017,0.318,1.053,0.615,1.329,0.328
				c0.277-0.288,0.166-0.588,0.232-1.67C150.926,51.68,149.326,52.964,149.326,52.964z"/>
			<path fill="#EA9C92" d="M150.859,52.76c0,0-0.264,1.002-1.561,1.388l0.02-0.911L150.859,52.76z"/>
			<path fill="#FFC2B0" d="M151.682,50.213c0.326,1.313-0.433,2.652-1.694,2.99c-1.262,0.34-2.549-0.449-2.876-1.762
				c-0.325-1.313,0.433-2.652,1.695-2.99C150.069,48.111,151.356,48.9,151.682,50.213z"/>
			<path fill="#EA9C92" d="M149.94,50.918c0,0-1.3,0.578-2.2,0.586c-0.9,0.007-0.702-0.777-0.702-0.777l2.671-0.401L149.94,50.918z"
				/>
			<path fill="#750404" d="M147.471,51.07c0,0,1.133-0.5,2.125-0.291c0.233,0.05,0.449,0.179,0.6,0.371
				c0.049,0.064,0.111,0.121,0.182,0.137c0.176,0.042,0.463-0.718,0.807-0.736c0.342-0.018,0.57,0.234,0.291,0.702
				c-0.28,0.468-0.186,0.991-0.057,1.065s1.498-1.017,0.291-3.506c-1.209-2.489-4.278-1.149-4.754-0.644
				c0,0-0.504,0.457-0.913,0.051C146.042,48.218,145.583,51.791,147.471,51.07z"/>
			<path fill="#FFC2B0" d="M151.838,61.365v1.867c0,0.215-0.087,0.418-0.238,0.563l-3.688,3.498l0.42,0.667l4.851-3.466
				c0.228-0.17,0.375-0.436,0.404-0.725l0.351-3.466L151.838,61.365z"/>
			<path fill="#A83939" d="M153.3,55.382c0,0,1.12,1.751,1.536,6.358c0,0-1.91,0.644-2.996,0.277
				C150.754,61.652,153.3,55.382,153.3,55.382z"/>
			<path fill="#8C2A2A" d="M151.635,57.595c0,0-0.438,2.438-0.464,3.585c-0.007,0.314,0.179,0.6,0.464,0.707l0,0V57.595z"/>
		</g>
		<g>
			<path fill="#771818" d="M150.678,69.722l-0.814-0.112l-5.264-3.16c-0.169-0.102-0.464-0.09-0.658,0.029l-3.729,2.238
				l-0.493-0.068v0.512l0,0c-0.004,0.066,0.033,0.133,0.112,0.18l5.966,3.582c0.169,0.102,0.463,0.089,0.658-0.029l4.061-2.438
				c0.109-0.066,0.164-0.151,0.162-0.231l0,0v-0.502H150.678z"/>
			<path fill="#396CAA" d="M146.724,67.726l-0.375-0.226h-4.111l-2.027,1.217l-0.493-0.068v0.512l0,0
				c-0.004,0.066,0.033,0.133,0.113,0.18l5.965,3.582c0.089,0.053,0.213,0.074,0.34,0.065L146.724,67.726z"/>
			<path fill="#5793CE" d="M139.937,68.68l-0.218-0.031v0.512l0,0c-0.004,0.066,0.033,0.133,0.113,0.18l0.105,0.064V68.68z"/>
			<path fill="#274F89" d="M145.856,72.951c0.16,0.063,0.389,0.049,0.56-0.037v-0.869h-0.56V72.951z"/>
			<path fill="#FFFFFF" d="M145.796,72.411l-5.965-3.582c-0.169-0.103-0.147-0.278,0.047-0.395l4.062-2.438
				c0.195-0.116,0.489-0.129,0.658-0.029l5.965,3.582c0.169,0.102,0.147,0.278-0.047,0.395l-4.062,2.438
				C146.26,72.5,145.965,72.513,145.796,72.411z"/>
			<path fill="#FFD7D7" d="M145.696,71.869l-4.96-2.979c-0.14-0.084-0.122-0.23,0.04-0.328l2.176-1.273
				c0.162-0.098,0.407-0.107,0.547-0.023l4.96,2.979c0.14,0.083,0.122,0.23-0.04,0.328l-2.176,1.273
				C146.082,71.941,145.836,71.953,145.696,71.869z"/>
		</g>
		<path fill="#FFC2B0" d="M144.171,65.878l-0.062,0.428c-0.053,0.365-0.043,0.736,0.027,1.099l0.073,0.375
			c0.042,0.213,0.204,0.379,0.409,0.417l0,0c0.16,0.031,0.313-0.087,0.329-0.255l0.098-0.914c0,0,0.226,0.307,0.334,0.307
			c0.109,0-0.122-0.916-0.367-1.434C144.767,65.38,144.171,65.878,144.171,65.878z"/>
		<path fill="#FFC2B0" d="M146.193,59.074l-0.64,1.318c-0.151,0.311-0.24,0.65-0.262,1l-0.278,4.508l-0.842-0.021l-0.382-5.062
			c-0.011-0.156-0.003-0.313,0.022-0.467l0.436-2.568L146.193,59.074z"/>
		<g>
			<path fill="#771818" d="M145.595,72.756l-0.5-0.678l-5.26-3.169c-0.169-0.103-0.305-0.373-0.305-0.607l0.003-4.478l-0.302-0.412
				l0.284-0.17l0,0c0.055-0.037,0.127-0.037,0.206,0.012l5.96,3.59c0.169,0.102,0.305,0.373,0.305,0.607l-0.005,4.878
				c0,0.131-0.043,0.224-0.111,0.26l0,0L145.595,72.756z"/>
			<path fill="#A83939" d="M141.958,70.188l-0.375-0.226l-2.051-3.706l0.002-2.434l-0.302-0.411l0.284-0.171l0,0
				c0.054-0.037,0.127-0.037,0.205,0.013l5.96,3.589c0.089,0.055,0.169,0.154,0.226,0.273L141.958,70.188z"/>
			<path fill="#CC5858" d="M139.367,63.595l-0.134-0.183l0.284-0.17l0,0c0.054-0.037,0.127-0.037,0.205,0.012l0.105,0.064
				L139.367,63.595z"/>
			<path fill="#274F89" d="M145.738,66.884c0.133,0.112,0.234,0.325,0.249,0.521l-0.582,0.349l-0.278-0.503L145.738,66.884z"/>
			<path fill="#FFFFFF" d="M145.4,67.015l-5.96-3.589c-0.169-0.102-0.305,0.005-0.305,0.24l-0.006,4.877
				c0,0.235,0.137,0.506,0.306,0.607l5.96,3.59c0.169,0.102,0.306-0.006,0.306-0.24l0.005-4.878
				C145.706,67.387,145.569,67.116,145.4,67.015z"/>
		</g>
		<path fill="#FFC2B0" d="M148.331,67.96l-0.097,0.206c-0.109,0.236-0.284,0.436-0.498,0.574l-0.593,0.38
			c-0.184,0.118-0.418,0.127-0.604,0.015c-0.007-0.004-0.013-0.01-0.02-0.013c-0.188-0.122-0.206-0.403-0.051-0.569l0.618-0.662
			c0,0-0.347,0.277-0.446,0.166c-0.071-0.082,0.336-0.48,0.651-0.494c0.314-0.014,0.616-0.27,0.616-0.27L148.331,67.96z"/>
		<path fill="#A83939" d="M146.762,53.036c0,0-2.267,2.567-3.184,4.922c0,0,0.776,1.453,2.675,2.024
			C148.151,60.553,146.762,53.036,146.762,53.036z"/>
		<path fill="#8C2A2A" d="M145.826,59.829l0.367-3.694l-0.866,3.46C145.482,59.68,145.649,59.758,145.826,59.829z"/>
		<path fill="#FFFFFF" d="M148.46,52.518l-0.609-0.174c0,0,0.291,0.477,0.716,0.598c0.425,0.122,0.491-0.252,0.491-0.252
			L148.46,52.518z"/>
	</g>
	<g>
		<g>
			<path fill="#E8B3B3" d="M108.424,85.969l-5.497-3.327c-0.463-0.278-0.405-0.765,0.129-1.087l5.238-3.175
				c0.537-0.321,1.346-0.356,1.809-0.078l5.497,3.325c0.463,0.278,0.405,0.766-0.129,1.088l-5.238,3.176
				C109.698,86.213,108.887,86.247,108.424,85.969z"/>
			<path fill="#771818" d="M117.602,75.396L117.602,75.396V73.96l-7.333-0.003l0.051-0.002c-0.582-0.35-1.598-0.307-2.269,0.098
				l0.216-0.095l-7.34-0.005v1.532c-0.016,0.236,0.111,0.466,0.389,0.633l6.893,4.171c0.582,0.35,1.598,0.306,2.269-0.098
				l6.569-3.982C117.437,75.979,117.624,75.676,117.602,75.396z"/>
			<path fill="#A83939" d="M109.266,73.721c-0.426,0.01-0.868,0.121-1.216,0.332l0.216-0.095l-7.338-0.005v1.532
				c-0.016,0.236,0.111,0.466,0.389,0.633l6.893,4.171c0.28,0.168,0.66,0.244,1.053,0.234L109.266,73.721z"/>
			<path fill="#E8B3B3" d="M101.758,73.953h-0.831v1.532c-0.016,0.236,0.111,0.466,0.389,0.633l0.442,0.266V73.953z"/>
			<path fill="#872727" d="M108.356,80.363c0.502,0.225,1.227,0.211,1.814-0.021v-2.008h-1.814V80.363z"/>
			<path fill="#FFD7D7" d="M108.209,78.77l-6.893-4.172c-0.582-0.349-0.509-0.959,0.164-1.363l6.569-3.981
				c0.671-0.403,1.687-0.447,2.269-0.099l6.893,4.171c0.582,0.35,0.509,0.96-0.164,1.364l-6.569,3.981
				C109.807,79.074,108.791,79.118,108.209,78.77z"/>
		</g>
		<g>
			<path fill="#FFFFFF" d="M109.545,73.171l-2.027-1.226c-0.271-0.162-0.271-0.428,0-0.589c0.271-0.162,0.711-0.162,0.98,0
				l2.027,1.226c0.271,0.162,0.271,0.428,0,0.589C110.256,73.332,109.816,73.332,109.545,73.171z"/>
		</g>
		<g>
			<path fill="#FFFFFF" d="M112.493,74.962l-1.231-0.755c-0.271-0.162-0.271-0.428,0-0.589s0.711-0.161,0.98,0l1.231,0.755
				c0.271,0.162,0.271,0.427,0,0.589C113.202,75.123,112.764,75.123,112.493,74.962z"/>
		</g>
		<g>
			<path fill="#FFFFFF" d="M106.706,73.924l-1.231-0.755c-0.271-0.161-0.271-0.427,0-0.589s0.711-0.162,0.98,0l1.231,0.754
				c0.271,0.162,0.271,0.428,0,0.59S106.975,74.086,106.706,73.924z"/>
		</g>
	</g>
	<g>
		<path fill="#FFD7D7" d="M165.955,18.107l-2.434-1.462c-0.225-0.136-0.357-0.471-0.296-0.749l0,0
			c0.062-0.278,0.294-0.395,0.521-0.258l2.432,1.462c0.227,0.136,0.358,0.471,0.297,0.749l0,0
			C166.412,18.127,166.18,18.244,165.955,18.107z"/>
		<path fill="#FFD7D7" d="M171.751,21.589l-3.589-2.154c-0.226-0.136-0.358-0.471-0.297-0.749l0,0
			c0.063-0.278,0.295-0.395,0.52-0.258l3.59,2.155c0.226,0.136,0.357,0.471,0.297,0.749l0,0
			C172.211,21.609,171.977,21.726,171.751,21.589z"/>
		<path fill="#FFD7D7" d="M161.713,29.924l-2.434-1.462c-0.225-0.136-0.357-0.471-0.296-0.749l0,0
			c0.062-0.278,0.295-0.395,0.521-0.258l2.433,1.462c0.226,0.136,0.358,0.471,0.296,0.749l0,0
			C162.171,29.944,161.938,30.058,161.713,29.924z"/>
		<path fill="#FFD7D7" d="M166.88,33.025l-3.589-2.154c-0.226-0.137-0.358-0.471-0.297-0.749l0,0
			c0.063-0.278,0.295-0.395,0.521-0.258l3.589,2.154c0.226,0.136,0.358,0.471,0.297,0.749l0,0
			C167.338,33.045,167.105,33.162,166.88,33.025z"/>
		<path fill="#FFD7D7" d="M158.776,16.191l-1.521-0.913c-0.225-0.137-0.357-0.471-0.296-0.749l0,0
			c0.062-0.278,0.294-0.395,0.521-0.258l1.52,0.913c0.226,0.136,0.358,0.471,0.297,0.749l0,0
			C159.234,16.211,159.002,16.325,158.776,16.191z"/>
		<path fill="#FFD7D7" d="M163.462,21.398l-4.646-2.79c-0.226-0.136-0.358-0.471-0.297-0.749l0,0
			c0.063-0.278,0.295-0.395,0.521-0.258l4.646,2.79c0.226,0.136,0.357,0.471,0.297,0.749l0,0
			C163.92,21.418,163.688,21.533,163.462,21.398z"/>
		<path fill="#FFD7D7" d="M159.398,23.746l-1.52-0.913c-0.227-0.136-0.359-0.471-0.297-0.749l0,0
			c0.062-0.278,0.295-0.395,0.52-0.258l1.52,0.913c0.227,0.136,0.359,0.471,0.297,0.749l0,0
			C159.858,23.766,159.625,23.882,159.398,23.746z"/>
		<path fill="#FFD7D7" d="M167.662,38.284l-4.061-2.438c-0.225-0.137-0.357-0.471-0.296-0.75l0,0
			c0.062-0.278,0.294-0.395,0.521-0.258l4.059,2.438c0.227,0.136,0.359,0.471,0.297,0.749l0,0
			C168.12,38.304,167.887,38.42,167.662,38.284z"/>
		<path fill="#FFD7D7" d="M157.916,27.644l-0.977-0.585c-0.225-0.136-0.357-0.471-0.296-0.749l0,0
			c0.062-0.278,0.294-0.395,0.521-0.258l0.977,0.585c0.225,0.137,0.357,0.471,0.296,0.749l0,0
			C158.377,27.664,158.144,27.78,157.916,27.644z"/>
		<path fill="#FFD7D7" d="M157.217,32.011l-1.213-0.727c-0.226-0.136-0.358-0.471-0.297-0.749l0,0
			c0.063-0.278,0.295-0.395,0.52-0.258l1.213,0.727c0.227,0.137,0.359,0.471,0.297,0.75l0,0
			C157.674,32.029,157.441,32.146,157.217,32.011z"/>
		<path fill="#FFD7D7" d="M161.93,34.842l-3.195-1.918c-0.225-0.137-0.357-0.471-0.297-0.749l0,0
			c0.063-0.278,0.295-0.395,0.521-0.258l3.194,1.918c0.226,0.136,0.358,0.471,0.297,0.749l0,0
			C162.389,34.862,162.156,34.977,161.93,34.842z"/>
		<path fill="#FFD7D7" d="M157.832,34.774l-2.296-1.38c-0.226-0.136-0.358-0.471-0.296-0.749l0,0
			c0.062-0.278,0.295-0.395,0.52-0.258l2.297,1.38c0.225,0.137,0.357,0.471,0.296,0.75l0,0
			C158.291,34.794,158.059,34.909,157.832,34.774z"/>
		<path fill="#FFD7D7" d="M171.146,40.385l-1.475-0.885c-0.226-0.136-0.358-0.471-0.296-0.749l0,0
			c0.062-0.278,0.294-0.395,0.52-0.258l1.475,0.885c0.226,0.137,0.357,0.471,0.297,0.75l0,0
			C171.605,40.405,171.371,40.522,171.146,40.385z"/>
		<path fill="#FFD7D7" d="M165.055,27.142l-4.061-2.438c-0.225-0.136-0.357-0.471-0.296-0.749l0,0
			c0.062-0.278,0.294-0.395,0.521-0.258l4.06,2.438c0.226,0.136,0.358,0.471,0.296,0.749l0,0
			C165.513,27.162,165.279,27.278,165.055,27.142z"/>
		<path fill="#FFD7D7" d="M165.424,24.971l-7.076-4.249c-0.227-0.136-0.358-0.471-0.297-0.749l0,0
			c0.063-0.278,0.295-0.395,0.52-0.258l7.077,4.25c0.226,0.136,0.358,0.471,0.296,0.749l0,0
			C165.884,24.991,165.648,25.105,165.424,24.971z"/>
		<path fill="#FFD7D7" d="M161.471,27.384l-4.06-2.438c-0.226-0.136-0.358-0.471-0.296-0.749l0,0
			c0.061-0.278,0.294-0.395,0.52-0.258l4.06,2.438c0.226,0.136,0.358,0.471,0.296,0.749l0,0
			C161.93,27.404,161.696,27.52,161.471,27.384z"/>
		<path fill="#FFD7D7" d="M168.133,28.991l-1.475-0.885c-0.226-0.136-0.358-0.471-0.297-0.749l0,0
			c0.063-0.278,0.295-0.395,0.521-0.258l1.475,0.885c0.226,0.137,0.358,0.471,0.296,0.75l0,0
			C168.593,29.011,168.359,29.127,168.133,28.991z"/>
		<path fill="#FFD7D7" d="M182.696,28.162l-8.736-5.247c-0.226-0.136-0.358-0.471-0.296-0.749l0,0
			c0.062-0.278,0.294-0.395,0.52-0.258l8.736,5.247c0.226,0.137,0.358,0.471,0.297,0.75l0,0
			C183.154,28.182,182.922,28.296,182.696,28.162z"/>
		<path fill="#FFD7D7" d="M161.353,32.102l-4.88-2.931c-0.226-0.136-0.357-0.471-0.297-0.749l0,0
			c0.063-0.278,0.295-0.395,0.521-0.258l4.88,2.931c0.226,0.136,0.358,0.471,0.297,0.749l0,0
			C161.813,32.122,161.58,32.236,161.353,32.102z"/>
		<path fill="#FFD7D7" d="M161.313,15.32l-3.589-2.154c-0.226-0.136-0.358-0.471-0.296-0.749l0,0
			c0.062-0.278,0.294-0.395,0.52-0.258l3.589,2.154c0.226,0.137,0.358,0.471,0.296,0.75l0,0
			C161.771,15.34,161.538,15.457,161.313,15.32z"/>
		<path fill="#FFD7D7" d="M157.193,36.784l-4.157-2.497c-0.226-0.136-0.358-0.471-0.296-0.749l0,0
			c0.062-0.278,0.295-0.395,0.52-0.258l4.156,2.497c0.226,0.136,0.358,0.471,0.297,0.749l0,0
			C157.65,36.804,157.418,36.92,157.193,36.784z"/>
	</g>
	<g>
		<path fill="#FFD7D7" d="M185.091,52.975l-2.433-1.462c-0.226-0.136-0.358-0.471-0.297-0.749l0,0
			c0.063-0.278,0.295-0.395,0.521-0.258l2.433,1.461c0.226,0.137,0.358,0.471,0.297,0.75l0,0
			C185.551,52.994,185.318,53.109,185.091,52.975z"/>
		<path fill="#FFD7D7" d="M186.84,44.449l-4.646-2.789c-0.226-0.137-0.358-0.471-0.296-0.749l0,0
			c0.062-0.278,0.295-0.395,0.52-0.258l4.646,2.789c0.226,0.136,0.358,0.471,0.296,0.749l0,0
			C187.299,44.469,187.065,44.585,186.84,44.449z"/>
		<path fill="#FFD7D7" d="M182.778,46.798l-1.521-0.913c-0.225-0.136-0.357-0.471-0.296-0.749l0,0
			c0.062-0.278,0.294-0.395,0.521-0.258l1.52,0.913c0.225,0.136,0.357,0.471,0.297,0.749l0,0
			C183.236,46.816,183.004,46.933,182.778,46.798z"/>
		<path fill="#FFD7D7" d="M181.297,50.694l-0.977-0.585c-0.226-0.136-0.358-0.471-0.297-0.749l0,0
			c0.063-0.278,0.295-0.395,0.52-0.258l0.977,0.586c0.227,0.136,0.359,0.471,0.297,0.749l0,0
			C181.754,50.715,181.521,50.831,181.297,50.694z"/>
		<path fill="#FFD7D7" d="M188.433,50.193l-4.06-2.438c-0.226-0.136-0.358-0.471-0.297-0.749l0,0
			c0.063-0.278,0.295-0.395,0.52-0.258l4.061,2.438c0.226,0.136,0.358,0.471,0.297,0.749l0,0
			C188.891,50.213,188.658,50.329,188.433,50.193z"/>
		<path fill="#FFD7D7" d="M188.804,48.022l-7.077-4.249c-0.225-0.137-0.357-0.471-0.296-0.75l0,0
			c0.062-0.278,0.295-0.395,0.521-0.258l7.076,4.249c0.226,0.136,0.357,0.471,0.297,0.749l0,0
			C189.262,48.042,189.029,48.158,188.804,48.022z"/>
		<path fill="#FFD7D7" d="M184.85,50.435l-4.061-2.438c-0.226-0.137-0.357-0.471-0.297-0.75l0,0
			c0.063-0.278,0.295-0.395,0.521-0.258l4.06,2.438c0.227,0.136,0.358,0.471,0.297,0.749l0,0
			C185.307,50.455,185.074,50.57,184.85,50.435z"/>
		<path fill="#FFD7D7" d="M184.732,55.152l-4.88-2.931c-0.226-0.136-0.358-0.471-0.296-0.749l0,0
			c0.062-0.278,0.295-0.395,0.52-0.258l4.881,2.931c0.225,0.136,0.357,0.471,0.296,0.749l0,0
			C185.191,55.173,184.958,55.287,184.732,55.152z"/>
	</g>
	<g>
		<g>
			<path fill="#E8B3B3" d="M175.147,98.99l-5.717-3.459c-0.481-0.289-0.421-0.797,0.135-1.131l5.449-3.303
				c0.556-0.334,1.399-0.371,1.882-0.081l5.717,3.46c0.481,0.289,0.422,0.797-0.135,1.131l-5.449,3.302
				C176.471,99.244,175.629,99.279,175.147,98.99z"/>
			<path fill="#771818" d="M184.358,88.264L184.358,88.264v-1.437l-7.333-0.003l0.051-0.002c-0.582-0.35-1.598-0.306-2.27,0.098
				l0.217-0.094l-7.34-0.004v1.532c-0.016,0.236,0.111,0.466,0.389,0.633l6.893,4.171c0.582,0.35,1.599,0.306,2.27-0.098
				l6.569-3.982C184.193,88.846,184.38,88.545,184.358,88.264z"/>
			<path fill="#A83939" d="M176.023,86.588c-0.426,0.01-0.867,0.121-1.217,0.332l0.217-0.094l-7.34-0.004v1.532
				c-0.016,0.236,0.111,0.466,0.389,0.633l6.893,4.171c0.281,0.167,0.66,0.244,1.053,0.234L176.023,86.588z"/>
			<path fill="#D34C4C" d="M168.515,86.822h-0.831v1.532c-0.016,0.236,0.111,0.466,0.389,0.633l0.442,0.266V86.822z"/>
			<path fill="#874027" d="M175.113,93.232c0.502,0.225,1.227,0.211,1.814-0.021v-2.008h-1.814V93.232z"/>
			<path fill="#FFD7D7" d="M174.967,91.639l-6.893-4.172c-0.582-0.349-0.509-0.959,0.164-1.363l6.568-3.981
				c0.672-0.403,1.688-0.447,2.27-0.099l6.893,4.171c0.582,0.349,0.51,0.96-0.163,1.364l-6.569,3.981
				C176.563,91.943,175.549,91.987,174.967,91.639z"/>
		</g>
		<g>
			<path fill="#A83939" d="M176.251,86.256l-2.027-1.225c-0.271-0.162-0.271-0.428,0-0.59s0.711-0.162,0.979,0l2.027,1.227
				c0.271,0.161,0.271,0.427,0,0.588C176.96,86.418,176.521,86.418,176.251,86.256z"/>
		</g>
		<g>
			<path fill="#A83939" d="M179.196,88.047l-1.231-0.754c-0.271-0.162-0.271-0.428,0-0.59c0.271-0.161,0.711-0.161,0.98,0
				l1.23,0.755c0.271,0.162,0.271,0.427,0,0.589C179.907,88.211,179.467,88.211,179.196,88.047z"/>
		</g>
		<g>
			<path fill="#A83939" d="M173.409,87.01l-1.231-0.756c-0.271-0.161-0.271-0.427,0-0.588c0.271-0.162,0.711-0.162,0.98,0
				l1.23,0.754c0.271,0.162,0.271,0.428,0,0.59C174.12,87.173,173.68,87.173,173.409,87.01z"/>
		</g>
	</g>
</g>
<path fill="#FFD7D7" d="M195.144,66.933c0,0.866-0.646,1.567-1.442,1.567c-0.796,0-1.441-0.701-1.441-1.567
	c0-0.865,0.646-1.567,1.441-1.567C194.498,65.365,195.144,66.067,195.144,66.933z"/>
<path fill="#CC5858" d="M192.346,93.332c-1.08,0-1.959-0.954-1.959-2.129c0-1.172,0.879-2.129,1.959-2.129s1.958,0.955,1.958,2.129
	C194.306,92.378,193.426,93.332,192.346,93.332z M192.346,89.73c-0.748,0-1.356,0.662-1.356,1.473c0,0.812,0.608,1.475,1.356,1.475
	c0.747,0,1.355-0.661,1.355-1.475C193.701,90.391,193.095,89.73,192.346,89.73z"/>
<path fill="#CC5858" d="M147.644,96.675l-1.329-2.938l2.704-1.445l1.329,2.938L147.644,96.675z M147.12,94.035l0.798,1.764
	l1.624-0.868l-0.798-1.763L147.12,94.035z"/>
<path fill="#FFD7D7" d="M117.605,95.139c-1.523,0-2.762-1.348-2.762-3.002s1.238-3.002,2.762-3.002s2.762,1.348,2.762,3.002
	S119.127,95.139,117.605,95.139z M117.605,89.789c-1.191,0-2.16,1.053-2.16,2.348c0,1.294,0.969,2.347,2.16,2.347
	s2.16-1.053,2.16-2.347C119.764,90.842,118.796,89.789,117.605,89.789z"/>
<g>
	<path fill="#CC5858" d="M108.464,48.113l0.305-0.563c0,0,0.256,0.152,0.529,0.06c0.22-0.074,0.409-0.291,0.563-0.64
		c0.547-1.231,1.556-1.326,2.015-1.202l-0.144,0.637l0.073-0.318l-0.069,0.318c-0.087-0.022-0.871-0.184-1.329,0.851
		c-0.233,0.524-0.549,0.854-0.938,0.984C108.947,48.407,108.511,48.142,108.464,48.113z"/>
</g>
<g>
	<polygon fill="#FFD7D7" points="142.238,24.116 141.811,23.654 143.836,21.455 144.262,21.917 	"/>
	<polygon fill="#FFD7D7" points="143.836,24.116 141.811,21.917 142.238,21.455 144.262,23.654 	"/>
</g>
<path fill="#FFD7D7" d="M114.055,21.455c0,1.307-0.975,2.367-2.178,2.367s-2.178-1.06-2.178-2.367s0.975-2.367,2.178-2.367
	S114.055,20.147,114.055,21.455z"/>
<polygon fill="#CC5858" points="191.025,9.58 187.266,11.589 185.416,7.503 189.176,5.495 "/>
<g>
	<polygon fill="#CC5858" points="132.751,6.536 132.62,5.98 134.104,5.567 134.234,6.122 	"/>
	<polygon fill="#CC5858" points="131.995,7.338 131.864,6.784 133.347,6.369 133.478,6.925 	"/>
	<polygon fill="#CC5858" points="131.236,8.14 131.105,7.585 132.591,7.173 132.722,7.727 	"/>
	<polygon fill="#CC5858" points="130.48,8.944 130.349,8.387 131.833,7.975 131.964,8.529 	"/>
</g>
</svg>
